<svg xmlns="http://www.w3.org/2000/svg" viewBox="0 180 612 612">
  <g fill="#FFF" sodipodi:docname="twitter_bootstrap_logo.svg" inkscape:version="0.48.1 r9760" xmlns:svg="http://www.w3.org/2000/svg" xmlns:sodipodi="http://sodipodi.sourceforge.net/DTD/sodipodi-0.dtd" xmlns:rdf="http://www.w3.org/1999/02/22-rdf-syntax-ns#" xmlns:dc="http://purl.org/dc/elements/1.1/" xmlns:cc="http://creativecommons.org/ns#" xmlns:inkscape="http://www.inkscape.org/namespaces/inkscape">
    <path d="M510 186c25.5 0 49.6 10 67.8 28.2S606 256.5 606 282v408c0 25.5-10 49.6-28.2 67.8S535.5 786 510 786H102c-25.5 0-49.6-10-67.8-28.2S6 715.5 6 690V282c0-25.5 10-49.6 28.2-67.8S76.5 186 102 186h408m0-6H102C45.9 180 0 225.9 0 282v408c0 56.1 45.9 102 102 102h408c56.1 0 102-45.9 102-102V282c0-56.1-45.9-102-102-102z"/>
    <path d="M166.3 313h173.5c32 0 57.7 7.3 77 22s29 36.8 29 66.5c0 18-4.4 33.4-13.2 46.2-8.8 12.8-21.4 22.8-37.8 29.8v1c22 4.7 38.7 15.1 50 31.2 11.3 16.2 17 36.4 17 60.8 0 14-2.5 27.1-7.5 39.2-5 12.2-12.8 22.7-23.5 31.5s-24.3 15.8-41 21-36.5 7.8-59.5 7.8h-164V313zm62.5 149.5h102c15 0 27.5-4.2 37.5-12.8s15-20.8 15-36.8c0-18-4.5-30.7-13.5-38s-22-11-39-11h-102v98.6zm0 156.5h110.5c19 0 33.8-4.9 44.2-14.8 10.5-9.8 15.8-23.8 15.8-41.8 0-17.7-5.2-31.2-15.8-40.8s-25.2-14.2-44.2-14.2H228.8V619z"/>
  </g>
</svg>
