<?xml version="1.0" encoding="utf-8"?>
<!-- Generator: Adobe Illustrator 18.1.1, SVG Export Plug-In . SVG Version: 6.00 Build 0)  -->
<svg version="1.1" id="Cross" xmlns="http://www.w3.org/2000/svg" xmlns:xlink="http://www.w3.org/1999/xlink" x="0px" y="0px"
	 viewBox="0 0 612 792" enable-background="new 0 0 612 792" xml:space="preserve">
<path display="none" d="M444.8,544.4c-15,14.4-39.2,14.4-54.2,0L306,451.7l-84.6,92.7c-15,14.4-39.2,14.4-54.2,0
	c-15-14.4-15-37.6,0-51.9l88-96.4l-88-96.5c-15-14.4-15-37.6,0-51.9s39.2-14.4,54.2,0l84.6,92.7l84.6-92.7c15-14.4,39.2-14.4,54.2,0
	c15,14.4,15,37.6,0,51.9l-88,96.5l88,96.4C459.7,506.8,459.7,530,444.8,544.4z"/>
<path d="M410.6,247.7c15-14.4,39.2-14.4,54.2,0c15,14.4,15,37.6,0,51.9L221.4,544.3c-15,14.4-39.2,14.4-54.2,0
	c-15-14.4-15-37.6,0-51.9L410.6,247.7z"/>
<path d="M464.8,492.4c15,14.3,15,37.6,0,51.9c-14.9,14.4-39.2,14.4-54.2,0L167.2,299.6c-15-14.3-15-37.6,0-51.9
	c15-14.4,39.2-14.4,54.2,0L464.8,492.4z"/>
</svg>
