<?xml version="1.0" encoding="utf-8"?> <!-- Generated by Layerhero SVG Exporter: http://www.layerhero.com/photoshop-svg-exporter --><!DOCTYPE svg PUBLIC "-//W3C//DTD SVG 1.1//EN" "http://www.w3.org/Graphics/SVG/1.1/DTD/svg11.dtd"><svg version="1.1" baseProfile="full" xmlns="http://www.w3.org/2000/svg" xmlns:xlink="http://www.w3.org/1999/xlink" xmlns:ev="http://www.w3.org/2001/xml-events" width="34" height="40" viewBox="0 0 34 40"><g transform="scale(NaN)" ><path fill-rule="evenodd"  fill="rgb( 243, 198, 0 )" d="M2.000,31.000 C2.000,31.000 32.000,31.000 32.000,31.000 C32.000,31.000 32.000,33.000 32.000,33.000 C32.000,33.000 2.000,33.000 2.000,33.000 C2.000,33.000 2.000,31.000 2.000,31.000 Z"/><path fill-rule="evenodd"  fill="rgb( 243, 198, 0 )" d="M2.000,23.000 C2.000,23.000 32.000,23.000 32.000,23.000 C32.000,23.000 32.000,25.000 32.000,25.000 C32.000,25.000 2.000,25.000 2.000,25.000 C2.000,25.000 2.000,23.000 2.000,23.000 Z"/><path fill-rule="evenodd"  fill="rgb( 243, 198, 0 )" d="M0.012,31.489 C0.012,31.489 8.489,23.012 8.489,23.012 C8.489,23.012 9.988,24.511 9.988,24.511 C9.988,24.511 1.511,32.988 1.511,32.988 C1.511,32.988 0.012,31.489 0.012,31.489 Z"/><path fill-rule="evenodd"  fill="rgb( 243, 198, 0 )" d="M8.012,31.489 C8.012,31.489 16.489,23.012 16.489,23.012 C16.489,23.012 17.988,24.511 17.988,24.511 C17.988,24.511 9.511,32.988 9.511,32.988 C9.511,32.988 8.012,31.489 8.012,31.489 Z"/><path fill-rule="evenodd"  fill="rgb( 243, 198, 0 )" d="M16.012,31.489 C16.012,31.489 24.489,23.012 24.489,23.012 C24.489,23.012 25.988,24.511 25.988,24.511 C25.988,24.511 17.511,32.988 17.511,32.988 C17.511,32.988 16.012,31.489 16.012,31.489 Z"/><path fill-rule="evenodd"  fill="rgb( 243, 198, 0 )" d="M24.012,31.489 C24.012,31.489 32.489,23.012 32.489,23.012 C32.489,23.012 33.988,24.511 33.988,24.511 C33.988,24.511 25.511,32.988 25.511,32.988 C25.511,32.988 24.012,31.489 24.012,31.489 Z"/><path fill-rule="evenodd"  fill="rgb( 71, 140, 254 )" d="M30.522,40.000 C30.522,40.000 3.478,40.000 3.478,40.000 C1.557,40.000 0.000,38.458 0.000,36.555 C0.000,36.555 0.000,17.445 0.000,17.445 C0.000,15.542 1.557,14.000 3.478,14.000 C3.478,14.000 30.522,14.000 30.522,14.000 C32.443,14.000 34.000,15.542 34.000,17.445 C34.000,17.445 34.000,36.555 34.000,36.555 C34.000,38.458 32.443,40.000 30.522,40.000 ZM32.000,18.000 C32.000,17.049 30.960,16.000 30.000,16.000 C30.000,16.000 4.000,16.000 4.000,16.000 C3.040,16.000 2.000,17.049 2.000,18.000 C2.000,18.000 2.000,36.000 2.000,36.000 C2.000,36.951 3.040,38.000 4.000,38.000 C4.000,38.000 30.000,38.000 30.000,38.000 C30.960,38.000 32.000,36.951 32.000,36.000 C32.000,36.000 32.000,18.000 32.000,18.000 Z"/><path fill-rule="evenodd"  fill="rgb( 255, 255, 255 )" d="M17.000,5.000 C23.021,5.000 24.000,10.000 24.000,14.000 C22.000,14.000 23.012,14.000 22.000,14.000 C22.000,12.567 22.696,7.000 17.000,7.000 C11.304,7.000 11.000,12.561 11.000,14.000 C10.124,14.000 9.000,14.051 9.000,14.000 C9.000,10.000 10.979,5.000 17.000,5.000 Z"/><path fill-rule="evenodd"  fill="rgb( 255, 255, 255 )" d="M17.000,0.000 C27.000,0.000 29.000,8.058 29.000,14.000 C27.000,14.000 28.012,14.000 27.000,14.000 C27.000,11.448 27.000,2.000 17.000,2.000 C7.000,2.000 6.000,11.561 6.000,14.000 C5.124,14.000 4.000,14.051 4.000,14.000 C4.000,8.005 7.000,0.000 17.000,0.000 Z"/></g></svg>