<?xml version="1.0" encoding="utf-8"?> <!-- Generated by Layerhero SVG Exporter: http://www.layerhero.com/photoshop-svg-exporter --><!DOCTYPE svg PUBLIC "-//W3C//DTD SVG 1.1//EN" "http://www.w3.org/Graphics/SVG/1.1/DTD/svg11.dtd"><svg version="1.1" baseProfile="full" xmlns="http://www.w3.org/2000/svg" xmlns:xlink="http://www.w3.org/1999/xlink" xmlns:ev="http://www.w3.org/2001/xml-events" width="40" height="40" viewBox="0 0 40 40"><g transform="scale(NaN)" ><path fill-rule="evenodd"  fill="rgb( 133, 155, 187 )" d="M20.000,40.000 C8.954,40.000 0.000,31.046 0.000,20.000 C0.000,8.955 8.954,0.000 20.000,0.000 C31.046,0.000 40.000,8.955 40.000,20.000 C40.000,31.046 31.046,40.000 20.000,40.000 ZM20.000,2.000 C9.915,2.000 2.000,9.915 2.000,20.000 C2.000,30.085 9.915,38.000 20.000,38.000 C30.085,38.000 38.000,30.085 38.000,20.000 C38.000,9.915 30.085,2.000 20.000,2.000 ZM28.381,33.604 C28.579,33.167 28.696,32.685 28.696,32.174 C28.696,30.466 26.462,28.052 24.839,27.758 C25.282,27.322 25.692,26.838 26.069,26.311 C28.033,27.060 30.435,29.947 30.435,32.174 C30.435,32.245 30.417,32.311 30.414,32.381 C29.766,32.832 29.087,33.239 28.381,33.604 ZM20.000,30.000 C15.678,30.000 12.000,24.763 12.000,19.000 C12.000,13.237 15.678,9.000 20.000,9.000 C24.322,9.000 28.000,13.237 28.000,19.000 C28.000,24.763 24.322,30.000 20.000,30.000 ZM20.000,11.000 C16.638,11.000 14.000,14.197 14.000,19.000 C14.000,23.802 16.638,28.000 20.000,28.000 C23.362,28.000 26.000,23.802 26.000,19.000 C26.000,14.197 23.362,11.000 20.000,11.000 ZM15.161,27.758 C13.538,28.052 11.304,30.466 11.304,32.174 C11.304,32.685 11.421,33.167 11.619,33.604 C10.913,33.239 10.234,32.832 9.586,32.381 C9.583,32.311 9.565,32.245 9.565,32.174 C9.565,29.947 11.967,27.060 13.931,26.311 C14.308,26.838 14.718,27.322 15.161,27.758 Z"/><path fill-rule="evenodd"  fill="rgb( 71, 140, 254 )" d="M20.000,40.000 C8.954,40.000 0.000,31.046 0.000,20.000 C0.000,8.955 8.954,0.000 20.000,0.000 C31.046,0.000 40.000,8.955 40.000,20.000 C40.000,31.046 31.046,40.000 20.000,40.000 ZM20.000,2.000 C9.915,2.000 2.000,9.915 2.000,20.000 C2.000,30.085 9.915,38.000 20.000,38.000 C30.085,38.000 38.000,30.085 38.000,20.000 C38.000,9.915 30.085,2.000 20.000,2.000 Z"/><path fill-rule="evenodd"  fill="rgb( 30, 205, 110 )" d="M28.381,33.604 C28.579,33.167 28.696,32.685 28.696,32.174 C28.696,30.466 26.462,28.052 24.839,27.758 C25.282,27.322 25.692,26.838 26.069,26.311 C28.033,27.060 30.435,29.947 30.435,32.174 C30.435,32.245 30.417,32.311 30.414,32.381 C29.766,32.832 29.087,33.239 28.381,33.604 ZM20.000,30.000 C15.678,30.000 12.000,24.763 12.000,19.000 C12.000,13.237 15.678,9.000 20.000,9.000 C24.322,9.000 28.000,13.237 28.000,19.000 C28.000,24.763 24.322,30.000 20.000,30.000 ZM20.000,11.000 C16.638,11.000 14.000,14.197 14.000,19.000 C14.000,23.802 16.638,28.000 20.000,28.000 C23.362,28.000 26.000,23.802 26.000,19.000 C26.000,14.197 23.362,11.000 20.000,11.000 ZM15.161,27.758 C13.538,28.052 11.304,30.466 11.304,32.174 C11.304,32.685 11.421,33.167 11.619,33.604 C10.913,33.239 10.234,32.832 9.586,32.381 C9.583,32.311 9.565,32.245 9.565,32.174 C9.565,29.947 11.967,27.060 13.931,26.311 C14.308,26.838 14.718,27.322 15.161,27.758 Z"/></g></svg>