<?xml version="1.0" encoding="utf-8"?> <!-- Generated by Layerhero SVG Exporter: http://www.layerhero.com/photoshop-svg-exporter --><!DOCTYPE svg PUBLIC "-//W3C//DTD SVG 1.1//EN" "http://www.w3.org/Graphics/SVG/1.1/DTD/svg11.dtd"><svg version="1.1" baseProfile="full" xmlns="http://www.w3.org/2000/svg" xmlns:xlink="http://www.w3.org/1999/xlink" xmlns:ev="http://www.w3.org/2001/xml-events" width="42" height="40" viewBox="0 0 42 40"><g transform="scale(NaN)" ><path fill-rule="evenodd"  fill="rgb( 133, 155, 187 )" d="M38.000,15.000 C38.000,15.000 36.000,15.000 36.000,15.000 C36.000,15.000 35.000,15.000 35.000,15.000 C35.000,15.000 30.000,15.000 30.000,15.000 C28.965,15.000 28.000,15.036 28.000,14.000 C28.000,12.964 28.965,13.000 30.000,13.000 C30.000,13.000 37.000,13.000 37.000,13.000 C34.064,8.847 27.287,2.000 20.000,2.000 C10.000,2.000 2.000,11.025 2.000,20.000 C2.000,21.036 2.035,22.000 1.000,22.000 C-0.035,22.000 0.000,21.036 0.000,20.000 C0.000,20.000 0.000,20.000 0.000,20.000 C0.000,8.954 8.954,0.000 20.000,0.000 C26.708,0.000 34.378,5.929 38.000,11.000 C38.000,11.000 38.000,5.000 38.000,5.000 C38.000,3.964 37.964,3.000 39.000,3.000 C40.035,3.000 40.000,3.964 40.000,5.000 C40.000,5.000 40.000,13.000 40.000,13.000 C40.000,14.035 39.036,15.000 38.000,15.000 ZM2.000,26.000 C2.000,26.000 10.000,26.000 10.000,26.000 C11.035,26.000 12.000,25.964 12.000,27.000 C12.000,28.036 11.035,28.000 10.000,28.000 C10.000,28.000 3.000,28.000 3.000,28.000 C5.938,32.158 13.034,38.000 20.000,38.000 C30.000,38.000 38.000,28.975 38.000,20.000 C38.000,18.964 37.964,18.000 39.000,18.000 C40.035,18.000 40.000,18.964 40.000,20.000 C40.000,20.000 40.000,20.000 40.000,20.000 C40.000,31.045 31.046,40.000 20.000,40.000 C13.283,40.000 5.618,35.083 2.000,30.000 C2.000,30.000 2.000,35.000 2.000,35.000 C2.000,36.036 2.035,37.000 1.000,37.000 C-0.035,37.000 0.000,36.036 0.000,35.000 C0.000,35.000 0.000,28.000 0.000,28.000 C0.000,26.964 0.965,26.000 2.000,26.000 Z"/><path fill-rule="evenodd"  fill="rgb( 71, 140, 254 )" d="M2.000,26.000 C2.000,26.000 10.000,26.000 10.000,26.000 C11.035,26.000 12.000,25.964 12.000,27.000 C12.000,28.036 11.035,28.000 10.000,28.000 C10.000,28.000 3.000,28.000 3.000,28.000 C5.938,32.158 13.034,38.000 20.000,38.000 C30.000,38.000 38.000,28.975 38.000,20.000 C38.000,18.964 37.964,18.000 39.000,18.000 C40.035,18.000 40.000,18.964 40.000,20.000 C40.000,20.000 40.000,20.000 40.000,20.000 C40.000,31.045 31.046,40.000 20.000,40.000 C13.283,40.000 5.618,35.083 2.000,30.000 C2.000,30.000 2.000,35.000 2.000,35.000 C2.000,36.036 2.035,37.000 1.000,37.000 C-0.035,37.000 0.000,36.036 0.000,35.000 C0.000,35.000 0.000,28.000 0.000,28.000 C0.000,26.964 0.965,26.000 2.000,26.000 Z"/><path fill-rule="evenodd"  fill="rgb( 30, 205, 110 )" d="M38.000,15.000 C38.000,15.000 36.000,15.000 36.000,15.000 C36.000,15.000 35.000,15.000 35.000,15.000 C35.000,15.000 30.000,15.000 30.000,15.000 C28.965,15.000 28.000,15.036 28.000,14.000 C28.000,12.964 28.965,13.000 30.000,13.000 C30.000,13.000 37.000,13.000 37.000,13.000 C34.064,8.847 27.287,2.000 20.000,2.000 C10.000,2.000 2.000,11.025 2.000,20.000 C2.000,21.036 2.035,22.000 1.000,22.000 C-0.035,22.000 0.000,21.036 0.000,20.000 C0.000,20.000 0.000,20.000 0.000,20.000 C0.000,8.954 8.954,0.000 20.000,0.000 C26.708,0.000 34.378,5.929 38.000,11.000 C38.000,11.000 38.000,5.000 38.000,5.000 C38.000,3.964 37.964,3.000 39.000,3.000 C40.035,3.000 40.000,3.964 40.000,5.000 C40.000,5.000 40.000,13.000 40.000,13.000 C40.000,14.035 39.036,15.000 38.000,15.000 Z"/></g></svg>