<?xml version="1.0" encoding="utf-8"?> <!-- Generated by Layerhero SVG Exporter: http://www.layerhero.com/photoshop-svg-exporter --><!DOCTYPE svg PUBLIC "-//W3C//DTD SVG 1.1//EN" "http://www.w3.org/Graphics/SVG/1.1/DTD/svg11.dtd"><svg version="1.1" baseProfile="full" xmlns="http://www.w3.org/2000/svg" xmlns:xlink="http://www.w3.org/1999/xlink" xmlns:ev="http://www.w3.org/2001/xml-events" width="40" height="36" viewBox="0 0 40 36"><g transform="scale(NaN)" ><path fill-rule="evenodd"  fill="rgb( 133, 155, 187 )" d="M30.000,30.000 C30.000,30.000 20.000,34.000 20.000,34.000 C20.000,34.000 10.000,31.000 10.000,31.000 C10.000,31.000 -0.000,36.000 -0.000,36.000 C-0.000,36.000 -0.000,6.000 -0.000,6.000 C-0.000,6.000 10.000,1.000 10.000,1.000 C10.000,1.000 20.000,6.000 20.000,6.000 C20.000,6.000 30.000,-0.000 30.000,-0.000 C30.000,-0.000 40.000,5.000 40.000,5.000 C40.000,5.000 40.000,34.000 40.000,34.000 C40.000,34.000 30.000,30.000 30.000,30.000 ZM38.000,7.000 C38.000,7.000 30.000,3.000 30.000,3.000 C30.000,3.000 20.000,9.000 20.000,9.000 C20.000,9.000 10.000,4.000 10.000,4.000 C10.000,4.000 2.000,8.000 2.000,8.000 C2.000,8.000 2.000,32.000 2.000,32.000 C2.000,32.000 10.000,28.000 10.000,28.000 C10.000,28.000 20.000,31.000 20.000,31.000 C20.000,31.000 30.000,27.000 30.000,27.000 C30.000,27.000 38.000,30.000 38.000,30.000 C38.000,30.000 38.000,7.000 38.000,7.000 ZM32.000,24.000 C32.000,24.000 30.000,24.000 30.000,24.000 C30.000,24.000 30.000,7.000 30.000,7.000 C30.000,7.000 32.000,7.000 32.000,7.000 C32.000,7.000 32.000,24.000 32.000,24.000 ZM19.000,11.000 C19.000,11.000 21.000,11.000 21.000,11.000 C21.000,11.000 21.000,28.000 21.000,28.000 C21.000,28.000 19.000,28.000 19.000,28.000 C19.000,28.000 19.000,11.000 19.000,11.000 ZM9.000,8.000 C9.000,8.000 11.000,8.000 11.000,8.000 C11.000,8.000 11.000,25.000 11.000,25.000 C11.000,25.000 9.000,25.000 9.000,25.000 C9.000,25.000 9.000,8.000 9.000,8.000 Z"/><path fill-rule="evenodd"  fill="rgb( 30, 205, 110 )" d="M-0.000,6.000 C-0.000,6.000 10.000,1.000 10.000,1.000 C10.000,1.000 20.000,6.000 20.000,6.000 C20.000,6.000 30.000,-0.000 30.000,-0.000 C30.000,-0.000 40.000,5.000 40.000,5.000 C40.000,5.000 40.000,34.000 40.000,34.000 C40.000,34.000 30.000,30.000 30.000,30.000 C30.000,30.000 20.000,34.000 20.000,34.000 C20.000,34.000 10.000,31.000 10.000,31.000 C10.000,31.000 -0.000,36.000 -0.000,36.000 C-0.000,36.000 -0.000,6.000 -0.000,6.000 M10.000,4.000 C10.000,4.000 20.000,9.000 20.000,9.000 C20.000,9.000 30.000,3.000 30.000,3.000 C30.000,3.000 38.000,7.000 38.000,7.000 C38.000,7.000 38.000,30.000 38.000,30.000 C38.000,30.000 30.000,27.000 30.000,27.000 C30.000,27.000 20.000,31.000 20.000,31.000 C20.000,31.000 10.000,28.000 10.000,28.000 C10.000,28.000 2.000,32.000 2.000,32.000 C2.000,32.000 2.000,8.000 2.000,8.000 C2.000,8.000 10.000,4.000 10.000,4.000 Z"/><path fill-rule="evenodd"  fill="rgb( 255, 255, 255 )" d="M30.000,24.000 C30.000,24.000 30.000,7.000 30.000,7.000 C30.000,7.000 32.000,7.000 32.000,7.000 C32.000,7.000 32.000,24.000 32.000,24.000 C32.000,24.000 30.000,24.000 30.000,24.000 ZM19.000,11.000 C19.000,11.000 21.000,11.000 21.000,11.000 C21.000,11.000 21.000,28.000 21.000,28.000 C21.000,28.000 19.000,28.000 19.000,28.000 C19.000,28.000 19.000,11.000 19.000,11.000 ZM9.000,8.000 C9.000,8.000 11.000,8.000 11.000,8.000 C11.000,8.000 11.000,25.000 11.000,25.000 C11.000,25.000 9.000,25.000 9.000,25.000 C9.000,25.000 9.000,8.000 9.000,8.000 Z"/></g></svg>