<?xml version="1.0" encoding="utf-8"?> <!-- Generated by Layerhero SVG Exporter: http://www.layerhero.com/photoshop-svg-exporter --><!DOCTYPE svg PUBLIC "-//W3C//DTD SVG 1.1//EN" "http://www.w3.org/Graphics/SVG/1.1/DTD/svg11.dtd"><svg version="1.1" baseProfile="full" xmlns="http://www.w3.org/2000/svg" xmlns:xlink="http://www.w3.org/1999/xlink" xmlns:ev="http://www.w3.org/2001/xml-events" width="40" height="40" viewBox="0 0 40 40"><g transform="scale(NaN)" ><path fill-rule="evenodd"  fill="rgb( 133, 155, 187 )" d="M35.000,40.000 C35.000,40.000 5.000,40.000 5.000,40.000 C2.243,40.000 0.000,37.757 0.000,35.000 C0.000,35.000 0.000,5.000 0.000,5.000 C0.000,2.243 2.243,0.000 5.000,0.000 C5.000,0.000 35.000,0.000 35.000,0.000 C37.757,0.000 40.000,2.243 40.000,5.000 C40.000,5.000 40.000,35.000 40.000,35.000 C40.000,37.757 37.757,40.000 35.000,40.000 ZM38.000,5.000 C38.000,3.621 36.378,2.000 35.000,2.000 C35.000,2.000 5.000,2.000 5.000,2.000 C3.622,2.000 2.000,3.621 2.000,5.000 C2.000,5.000 2.000,35.000 2.000,35.000 C2.000,36.379 3.622,38.000 5.000,38.000 C5.000,38.000 35.000,38.000 35.000,38.000 C36.378,38.000 38.000,36.379 38.000,35.000 C38.000,35.000 38.000,5.000 38.000,5.000 ZM31.000,31.000 C31.000,31.000 31.000,33.000 31.000,33.000 C31.000,33.690 30.691,35.000 30.000,35.000 C29.309,35.000 29.000,33.690 29.000,33.000 C29.000,33.000 29.000,31.000 29.000,31.000 C27.549,31.000 26.000,29.627 26.000,28.000 C26.000,26.373 27.294,25.000 29.000,25.000 C29.000,25.000 29.000,7.000 29.000,7.000 C29.000,6.310 29.309,5.000 30.000,5.000 C30.691,5.000 31.000,6.310 31.000,7.000 C31.000,7.000 31.000,25.000 31.000,25.000 C32.451,25.000 34.000,26.373 34.000,28.000 C34.000,29.627 32.682,31.000 31.000,31.000 ZM31.000,27.000 C31.000,27.000 29.000,27.000 29.000,27.000 C29.000,27.000 29.000,29.000 29.000,29.000 C29.000,29.000 31.000,29.000 31.000,29.000 C31.000,29.000 31.000,27.000 31.000,27.000 ZM21.000,15.000 C21.000,15.000 21.000,33.000 21.000,33.000 C21.000,33.690 20.691,35.000 20.000,35.000 C19.309,35.000 19.000,33.690 19.000,33.000 C19.000,33.000 19.000,15.000 19.000,15.000 C17.294,15.000 16.000,13.627 16.000,12.000 C16.000,10.373 17.549,9.000 19.000,9.000 C19.000,9.000 19.000,7.000 19.000,7.000 C19.000,6.310 19.309,5.000 20.000,5.000 C20.691,5.000 21.000,6.310 21.000,7.000 C21.000,7.000 21.000,9.000 21.000,9.000 C22.682,9.000 24.000,10.373 24.000,12.000 C24.000,13.627 22.451,15.000 21.000,15.000 ZM21.000,11.000 C21.000,11.000 19.000,11.000 19.000,11.000 C19.000,11.000 19.000,13.000 19.000,13.000 C19.000,13.000 21.000,13.000 21.000,13.000 C21.000,13.000 21.000,11.000 21.000,11.000 ZM11.000,31.000 C11.000,31.000 11.000,33.000 11.000,33.000 C11.000,33.690 10.691,35.000 10.000,35.000 C9.309,35.000 9.000,33.690 9.000,33.000 C9.000,33.000 9.000,31.000 9.000,31.000 C7.549,31.000 6.000,29.627 6.000,28.000 C6.000,26.373 7.294,25.000 9.000,25.000 C9.000,25.000 9.000,7.000 9.000,7.000 C9.000,6.310 9.309,5.000 10.000,5.000 C10.691,5.000 11.000,6.310 11.000,7.000 C11.000,7.000 11.000,25.000 11.000,25.000 C12.451,25.000 14.000,26.373 14.000,28.000 C14.000,29.627 12.682,31.000 11.000,31.000 ZM11.000,27.000 C11.000,27.000 9.000,27.000 9.000,27.000 C9.000,27.000 9.000,29.000 9.000,29.000 C9.000,29.000 11.000,29.000 11.000,29.000 C11.000,29.000 11.000,27.000 11.000,27.000 Z"/><path fill-rule="evenodd"  fill="rgb( 255, 255, 255 )" d="M31.000,31.000 C31.000,31.000 31.000,33.000 31.000,33.000 C31.000,33.690 30.691,35.000 30.000,35.000 C29.309,35.000 29.000,33.690 29.000,33.000 C29.000,33.000 29.000,31.000 29.000,31.000 C27.549,31.000 26.000,29.627 26.000,28.000 C26.000,26.373 27.294,25.000 29.000,25.000 C29.000,25.000 29.000,7.000 29.000,7.000 C29.000,6.310 29.309,5.000 30.000,5.000 C30.691,5.000 31.000,6.310 31.000,7.000 C31.000,7.000 31.000,25.000 31.000,25.000 C32.451,25.000 34.000,26.373 34.000,28.000 C34.000,29.627 32.682,31.000 31.000,31.000 ZM31.000,27.000 C31.000,27.000 29.000,27.000 29.000,27.000 C29.000,27.000 29.000,29.000 29.000,29.000 C29.000,29.000 31.000,29.000 31.000,29.000 C31.000,29.000 31.000,27.000 31.000,27.000 ZM21.000,15.000 C21.000,15.000 21.000,33.000 21.000,33.000 C21.000,33.690 20.691,35.000 20.000,35.000 C19.309,35.000 19.000,33.690 19.000,33.000 C19.000,33.000 19.000,15.000 19.000,15.000 C17.294,15.000 16.000,13.627 16.000,12.000 C16.000,10.373 17.549,9.000 19.000,9.000 C19.000,9.000 19.000,7.000 19.000,7.000 C19.000,6.310 19.309,5.000 20.000,5.000 C20.691,5.000 21.000,6.310 21.000,7.000 C21.000,7.000 21.000,9.000 21.000,9.000 C22.682,9.000 24.000,10.373 24.000,12.000 C24.000,13.627 22.451,15.000 21.000,15.000 ZM21.000,11.000 C21.000,11.000 19.000,11.000 19.000,11.000 C19.000,11.000 19.000,13.000 19.000,13.000 C19.000,13.000 21.000,13.000 21.000,13.000 C21.000,13.000 21.000,11.000 21.000,11.000 ZM11.000,31.000 C11.000,31.000 11.000,33.000 11.000,33.000 C11.000,33.690 10.691,35.000 10.000,35.000 C9.309,35.000 9.000,33.690 9.000,33.000 C9.000,33.000 9.000,31.000 9.000,31.000 C7.549,31.000 6.000,29.627 6.000,28.000 C6.000,26.373 7.294,25.000 9.000,25.000 C9.000,25.000 9.000,7.000 9.000,7.000 C9.000,6.310 9.309,5.000 10.000,5.000 C10.691,5.000 11.000,6.310 11.000,7.000 C11.000,7.000 11.000,25.000 11.000,25.000 C12.451,25.000 14.000,26.373 14.000,28.000 C14.000,29.627 12.682,31.000 11.000,31.000 ZM11.000,27.000 C11.000,27.000 9.000,27.000 9.000,27.000 C9.000,27.000 9.000,29.000 9.000,29.000 C9.000,29.000 11.000,29.000 11.000,29.000 C11.000,29.000 11.000,27.000 11.000,27.000 Z"/><path fill-rule="evenodd"  fill="rgb( 233, 75, 53 )" d="M6.000,24.000 C6.000,24.000 14.000,24.000 14.000,24.000 C14.000,24.000 14.000,31.000 14.000,31.000 C14.000,31.000 6.000,31.000 6.000,31.000 C6.000,31.000 6.000,24.000 6.000,24.000 Z"/><path fill-rule="evenodd"  fill="rgb( 243, 198, 0 )" d="M16.000,9.000 C16.000,9.000 24.000,9.000 24.000,9.000 C24.000,9.000 24.000,15.000 24.000,15.000 C24.000,15.000 16.000,15.000 16.000,15.000 C16.000,15.000 16.000,9.000 16.000,9.000 Z"/><path fill-rule="evenodd"  fill="rgb( 30, 205, 110 )" d="M26.000,25.000 C26.000,25.000 34.000,25.000 34.000,25.000 C34.000,25.000 34.000,31.000 34.000,31.000 C34.000,31.000 26.000,31.000 26.000,31.000 C26.000,31.000 26.000,25.000 26.000,25.000 Z"/><path fill-rule="evenodd"  fill="rgb( 71, 140, 254 )" d="M35.000,0.000 C35.000,0.000 5.000,0.000 5.000,0.000 C2.243,0.000 0.000,2.243 0.000,5.000 C0.000,5.000 0.000,35.000 0.000,35.000 C0.000,37.757 2.243,40.000 5.000,40.000 C5.000,40.000 35.000,40.000 35.000,40.000 C37.757,40.000 40.000,37.757 40.000,35.000 C40.000,35.000 40.000,5.000 40.000,5.000 C40.000,2.243 37.757,0.000 35.000,0.000 ZM38.000,35.000 C38.000,36.379 36.378,38.000 35.000,38.000 C35.000,38.000 5.000,38.000 5.000,38.000 C3.622,38.000 2.000,36.379 2.000,35.000 C2.000,35.000 2.000,5.000 2.000,5.000 C2.000,3.621 3.622,2.000 5.000,2.000 C5.000,2.000 35.000,2.000 35.000,2.000 C36.378,2.000 38.000,3.621 38.000,5.000 C38.000,5.000 38.000,35.000 38.000,35.000 Z"/></g></svg>