<?xml version="1.0" encoding="utf-8"?> <!-- Generated by Layerhero SVG Exporter: http://www.layerhero.com/photoshop-svg-exporter --><!DOCTYPE svg PUBLIC "-//W3C//DTD SVG 1.1//EN" "http://www.w3.org/Graphics/SVG/1.1/DTD/svg11.dtd"><svg version="1.1" baseProfile="full" xmlns="http://www.w3.org/2000/svg" xmlns:xlink="http://www.w3.org/1999/xlink" xmlns:ev="http://www.w3.org/2001/xml-events" width="40" height="40" viewBox="0 0 40 40"><g transform="scale(NaN)" ><path fill-rule="evenodd"  fill="rgb( 71, 140, 254 )" d="M20.000,40.000 C8.954,40.000 0.000,31.046 0.000,20.000 C0.000,8.954 8.954,0.000 20.000,0.000 C31.046,0.000 40.000,8.954 40.000,20.000 C40.000,31.046 31.046,40.000 20.000,40.000 ZM20.000,2.000 C10.059,2.000 2.000,10.059 2.000,20.000 C2.000,29.941 10.059,38.000 20.000,38.000 C29.941,38.000 38.000,29.941 38.000,20.000 C38.000,10.059 29.941,2.000 20.000,2.000 Z"/><path fill-rule="evenodd"  fill="rgb( 233, 75, 53 )" d="M20.000,33.000 C17.791,33.000 16.000,31.209 16.000,29.000 C16.000,26.791 17.791,25.000 20.000,25.000 C22.209,25.000 24.000,26.791 24.000,29.000 C24.000,31.209 22.209,33.000 20.000,33.000 ZM20.000,27.000 C18.895,27.000 18.000,27.895 18.000,29.000 C18.000,30.105 18.895,31.000 20.000,31.000 C21.105,31.000 22.000,30.105 22.000,29.000 C22.000,27.895 21.105,27.000 20.000,27.000 Z"/><path fill-rule="evenodd"  fill="rgb( 255, 255, 255 )" d="M34.000,20.000 C34.000,11.935 27.987,6.000 20.000,6.000 C12.013,6.000 6.000,11.918 6.000,20.000 C6.770,20.000 7.254,20.000 8.000,20.000 C8.000,13.635 12.912,8.000 20.000,8.000 C27.088,8.000 32.000,13.877 32.000,20.000 C32.456,20.000 33.485,20.000 34.000,20.000 Z"/><path fill-rule="evenodd"  fill="rgb( 233, 75, 53 )" d="M23.175,13.286 C23.175,13.286 25.107,13.804 25.107,13.804 C25.107,13.804 21.783,26.210 21.783,26.210 C21.783,26.210 19.851,25.692 19.851,25.692 C19.851,25.692 23.175,13.286 23.175,13.286 Z"/></g></svg>