<?xml version="1.0" encoding="utf-8"?> <!-- Generated by Layerhero SVG Exporter: http://www.layerhero.com/photoshop-svg-exporter --><!DOCTYPE svg PUBLIC "-//W3C//DTD SVG 1.1//EN" "http://www.w3.org/Graphics/SVG/1.1/DTD/svg11.dtd"><svg version="1.1" baseProfile="full" xmlns="http://www.w3.org/2000/svg" xmlns:xlink="http://www.w3.org/1999/xlink" xmlns:ev="http://www.w3.org/2001/xml-events" width="40" height="40" viewBox="0 0 40 40"><g transform="scale(NaN)" ><path fill-rule="evenodd"  fill="rgb( 71, 140, 254 )" d="M20.000,40.000 C8.954,40.000 0.000,31.046 0.000,20.000 C0.000,8.955 8.954,0.000 20.000,0.000 C31.046,0.000 40.000,8.955 40.000,20.000 C40.000,31.046 31.046,40.000 20.000,40.000 ZM20.000,2.000 C9.915,2.000 2.000,9.915 2.000,20.000 C2.000,30.085 9.915,38.000 20.000,38.000 C30.085,38.000 38.000,30.085 38.000,20.000 C38.000,9.915 30.085,2.000 20.000,2.000 Z"/><text font-family="Open Sans" fill="rgb( 255, 255, 255 )" transform="matrix( 2, 0, 0, 2,6.101, 27.5)" font-size="9.5px">G&#49;&#49;</text></g></svg>