<?xml version="1.0" encoding="utf-8"?> <!-- Generated by Layerhero SVG Exporter: http://www.layerhero.com/photoshop-svg-exporter --><!DOCTYPE svg PUBLIC "-//W3C//DTD SVG 1.1//EN" "http://www.w3.org/Graphics/SVG/1.1/DTD/svg11.dtd"><svg version="1.1" baseProfile="full" xmlns="http://www.w3.org/2000/svg" xmlns:xlink="http://www.w3.org/1999/xlink" xmlns:ev="http://www.w3.org/2001/xml-events" width="40" height="40" viewBox="0 0 40 40"><g transform="scale(NaN)" ><path fill-rule="evenodd"  fill="rgb( 71, 140, 254 )" d="M28.000,36.000 C28.000,36.000 28.000,38.000 26.000,38.000 C24.000,38.000 5.924,38.000 4.000,38.000 C2.075,38.000 2.000,36.000 2.000,36.000 C2.000,36.000 2.000,10.000 2.000,10.000 C2.000,10.000 2.117,8.000 4.000,8.000 C5.883,8.000 8.000,8.000 8.000,8.000 C8.000,8.000 8.000,6.000 8.000,6.000 C8.000,6.000 8.000,6.000 4.000,6.000 C-0.000,6.000 -0.000,10.000 -0.000,10.000 C-0.000,10.000 -0.000,36.000 -0.000,36.000 C-0.000,36.000 -0.080,40.000 4.000,40.000 C8.080,40.000 21.998,40.000 26.000,40.000 C30.003,40.000 30.000,36.000 30.000,36.000 C30.000,36.000 28.000,36.000 28.000,36.000 Z"/><path fill-rule="evenodd"  fill="rgb( 30, 205, 110 )" d="M19.783,27.153 C19.783,26.897 19.880,26.640 20.076,26.445 C20.076,26.445 25.520,21.000 25.520,21.000 C25.520,21.000 6.952,21.000 6.952,21.000 C6.401,21.000 5.954,20.552 5.954,20.000 C5.954,19.448 6.401,19.000 6.952,19.000 C6.952,19.000 25.635,19.000 25.635,19.000 C25.635,19.000 20.075,13.429 20.075,13.429 C19.685,13.039 19.685,12.406 20.075,12.015 C20.465,11.624 21.097,11.624 21.486,12.015 C21.486,12.015 28.694,19.238 28.694,19.238 C28.881,19.425 28.986,19.679 28.986,19.945 C28.986,19.945 28.986,19.945 28.986,19.946 C28.986,20.210 28.881,20.465 28.693,20.653 C28.693,20.653 21.485,27.861 21.485,27.861 C21.096,28.251 20.464,28.251 20.074,27.859 C19.880,27.664 19.783,27.409 19.783,27.153 Z"/><path fill-rule="evenodd"  fill="rgb( 71, 140, 254 )" d="M36.000,34.000 C36.000,34.000 16.167,34.000 14.000,34.000 C11.833,34.000 10.000,32.031 10.000,30.000 C10.000,27.969 10.000,23.000 10.000,23.000 C10.000,23.000 12.000,23.000 12.000,23.000 C12.000,23.000 12.000,28.774 12.000,30.000 C12.000,31.226 12.863,32.000 14.000,32.000 C15.137,32.000 36.000,32.000 36.000,32.000 C37.104,32.000 38.000,31.105 38.000,30.000 C38.000,30.000 38.000,12.000 38.000,12.000 C38.000,12.000 32.000,12.000 32.000,12.000 C29.791,12.000 28.000,10.209 28.000,8.000 C28.000,8.000 28.000,2.000 28.000,2.000 C28.000,2.000 14.000,2.000 14.000,2.000 C12.896,2.000 12.000,2.895 12.000,4.000 C12.000,5.756 12.000,17.000 12.000,17.000 C12.000,17.000 10.000,17.000 10.000,17.000 C10.000,17.000 10.000,4.000 10.000,4.000 C10.000,1.791 11.791,0.000 14.000,0.000 C14.000,0.000 17.683,0.000 25.000,0.000 C24.062,0.000 30.000,0.000 30.000,0.000 C30.000,0.000 40.000,10.000 40.000,10.000 C40.000,10.000 40.000,30.000 40.000,30.000 C40.000,32.209 38.209,34.000 36.000,34.000 ZM30.000,3.000 C30.000,3.000 30.000,8.000 30.000,8.000 C30.000,9.105 30.895,10.000 32.000,10.000 C32.000,10.000 37.000,10.000 37.000,10.000 C37.000,10.000 30.000,3.000 30.000,3.000 Z"/></g></svg>