<?xml version="1.0" encoding="utf-8"?> <!-- Generated by Layerhero SVG Exporter: http://www.layerhero.com/photoshop-svg-exporter --><!DOCTYPE svg PUBLIC "-//W3C//DTD SVG 1.1//EN" "http://www.w3.org/Graphics/SVG/1.1/DTD/svg11.dtd"><svg version="1.1" baseProfile="full" xmlns="http://www.w3.org/2000/svg" xmlns:xlink="http://www.w3.org/1999/xlink" xmlns:ev="http://www.w3.org/2001/xml-events" width="40" height="40" viewBox="0 0 40 40"><g transform="scale(NaN)" ><path fill-rule="evenodd"  fill="rgb( 30, 205, 110 )" d="M0.000,29.000 C0.000,29.000 20.000,40.000 20.000,40.000 C20.000,40.000 40.000,29.000 40.000,29.000 C40.000,29.000 34.000,26.000 34.000,26.000 C34.000,26.000 32.000,27.000 32.000,27.000 C32.000,27.000 36.000,29.000 36.000,29.000 C36.000,29.000 20.000,37.000 20.000,37.000 C20.000,37.000 4.000,29.000 4.000,29.000 C4.000,29.000 8.000,27.000 8.000,27.000 C8.000,27.000 6.000,26.000 6.000,26.000 C6.000,26.000 0.000,29.000 0.000,29.000 Z"/><path fill-rule="evenodd"  fill="rgb( 243, 198, 0 )" d="M0.000,20.000 C0.000,20.000 20.000,31.000 20.000,31.000 C20.000,31.000 40.000,20.000 40.000,20.000 C40.000,20.000 34.000,17.000 34.000,17.000 C34.000,17.000 32.000,18.000 32.000,18.000 C32.000,18.000 36.000,20.000 36.000,20.000 C36.000,20.000 20.000,28.000 20.000,28.000 C20.000,28.000 4.000,20.000 4.000,20.000 C4.000,20.000 8.000,18.000 8.000,18.000 C8.000,18.000 6.000,17.000 6.000,17.000 C6.000,17.000 0.000,20.000 0.000,20.000 Z"/><path fill-rule="evenodd"  fill="rgb( 233, 75, 53 )" d="M20.000,22.000 C20.000,22.000 0.000,11.000 0.000,11.000 C0.000,11.000 20.000,0.000 20.000,0.000 C20.000,0.000 40.000,11.000 40.000,11.000 C40.000,11.000 20.000,22.000 20.000,22.000 ZM4.000,11.000 C4.000,11.000 20.000,19.000 20.000,19.000 C20.000,19.000 36.000,11.000 36.000,11.000 C36.000,11.000 20.000,3.000 20.000,3.000 C20.000,3.000 4.000,11.000 4.000,11.000 Z"/></g></svg>