<?xml version="1.0" encoding="utf-8"?> <!-- Generated by Layerhero SVG Exporter: http://www.layerhero.com/photoshop-svg-exporter --><!DOCTYPE svg PUBLIC "-//W3C//DTD SVG 1.1//EN" "http://www.w3.org/Graphics/SVG/1.1/DTD/svg11.dtd"><svg version="1.1" baseProfile="full" xmlns="http://www.w3.org/2000/svg" xmlns:xlink="http://www.w3.org/1999/xlink" xmlns:ev="http://www.w3.org/2001/xml-events" width="40" height="36" viewBox="0 0 40 36"><g transform="scale(NaN)" ><path fill-rule="evenodd"  fill="rgb( 30, 205, 110 )" d="M36.522,36.000 C36.522,36.000 9.478,36.000 9.478,36.000 C7.557,36.000 6.000,34.458 6.000,32.556 C6.000,32.556 6.000,13.444 6.000,13.444 C6.000,11.542 7.557,10.000 9.478,10.000 C9.478,10.000 36.522,10.000 36.522,10.000 C38.443,10.000 40.000,11.542 40.000,13.444 C40.000,13.444 40.000,32.556 40.000,32.556 C40.000,34.458 38.443,36.000 36.522,36.000 ZM38.000,14.000 C38.000,13.049 36.961,12.000 36.000,12.000 C36.000,12.000 10.000,12.000 10.000,12.000 C9.040,12.000 8.000,13.049 8.000,14.000 C8.000,14.000 8.000,32.000 8.000,32.000 C8.000,32.951 9.040,34.000 10.000,34.000 C10.000,34.000 36.000,34.000 36.000,34.000 C36.961,34.000 38.000,32.951 38.000,32.000 C38.000,32.000 38.000,14.000 38.000,14.000 Z"/><path fill-rule="evenodd"  fill="rgb( 243, 198, 0 )" d="M23.000,30.000 C19.134,30.000 16.000,26.866 16.000,23.000 C16.000,19.134 19.134,16.000 23.000,16.000 C26.866,16.000 30.000,19.134 30.000,23.000 C30.000,26.866 26.866,30.000 23.000,30.000 ZM23.000,18.000 C20.239,18.000 18.000,20.239 18.000,23.000 C18.000,25.761 20.239,28.000 23.000,28.000 C25.761,28.000 28.000,25.761 28.000,23.000 C28.000,20.239 25.761,18.000 23.000,18.000 Z"/><path fill-rule="evenodd"  fill="rgb( 30, 205, 110 )" d="M4.000,24.000 C4.000,24.000 2.000,24.000 2.000,22.000 C2.000,20.000 2.000,5.924 2.000,4.000 C2.000,2.076 4.000,2.000 4.000,2.000 C4.000,2.000 30.000,2.000 30.000,2.000 C30.000,2.000 32.000,2.117 32.000,4.000 C32.000,5.883 32.000,8.000 32.000,8.000 C32.000,8.000 34.000,8.000 34.000,8.000 C34.000,8.000 34.000,8.000 34.000,4.000 C34.000,-0.000 30.000,-0.000 30.000,-0.000 C30.000,-0.000 4.000,-0.000 4.000,-0.000 C4.000,-0.000 0.000,-0.080 0.000,4.000 C0.000,8.080 0.000,17.997 0.000,22.000 C0.000,26.003 4.000,26.000 4.000,26.000 C4.000,26.000 4.000,24.000 4.000,24.000 Z"/></g></svg>