<?xml version="1.0" encoding="utf-8"?> <!-- Generated by Layerhero SVG Exporter: http://www.layerhero.com/photoshop-svg-exporter --><!DOCTYPE svg PUBLIC "-//W3C//DTD SVG 1.1//EN" "http://www.w3.org/Graphics/SVG/1.1/DTD/svg11.dtd"><svg version="1.1" baseProfile="full" xmlns="http://www.w3.org/2000/svg" xmlns:xlink="http://www.w3.org/1999/xlink" xmlns:ev="http://www.w3.org/2001/xml-events" width="15" height="24" viewBox="0 0 15 24"><filter filterUnits="userSpaceOnUse" id="Filter_0" x="0px" y="0px" width="15px" height="24px"  >  <feOffset in="SourceAlpha" dx="0px" dy="1px" />  <feGaussianBlur result="blurOut" stdDeviation="1" />  <feFlood flood-color="rgb( 255, 255, 255 )" result="floodOut" />  <feComposite operator="atop" in="floodOut" in2="blurOut" />  <feComponentTransfer><feFuncA type="linear" slope="1"/></feComponentTransfer>  <feMerge>    <feMergeNode/>    <feMergeNode in="SourceGraphic"/>  </feMerge></filter><filter id="Filter_1">  <feFlood flood-color="rgb( 166, 190, 220 )" flood-opacity="1" result="floodOut" />  <feComposite operator="atop" in="floodOut" in2="SourceGraphic" result="compOut" />  <feBlend mode="normal" in="compOut" in2="SourceGraphic" /></filter><g transform="scale(NaN)" ><g filter="url(#Filter_0)"><g filter="url(#Filter_1)"><path fill-rule="evenodd"  fill="rgb( 166, 190, 220 )" d="M1.523,2.638 C1.523,2.638 9.382,10.497 9.382,10.497 C9.382,10.497 1.420,18.459 1.420,18.459 C1.420,18.459 1.421,18.459 1.421,18.459 C1.160,18.729 1.000,19.096 1.000,19.500 C1.000,20.328 1.672,21.000 2.500,21.000 C2.904,21.000 3.271,20.840 3.541,20.579 C3.541,20.579 3.541,20.580 3.541,20.580 C3.541,20.580 12.541,11.580 12.541,11.580 C12.541,11.580 12.541,11.579 12.541,11.579 C12.824,11.307 13.000,10.924 13.000,10.500 C13.000,10.499 13.000,10.498 13.000,10.497 C13.000,10.496 13.000,10.495 13.000,10.493 C13.000,10.069 12.824,9.687 12.541,9.414 C12.541,9.414 12.541,9.413 12.541,9.413 C12.541,9.413 3.541,0.413 3.541,0.413 C3.541,0.413 3.538,0.417 3.538,0.417 C3.268,0.159 2.903,0.000 2.500,0.000 C1.672,0.000 1.000,0.672 1.000,1.500 C1.000,1.955 1.203,2.363 1.523,2.638 Z"/></g></g></g></svg>