<?xml version="1.0" encoding="utf-8"?> <!-- Generated by Layerhero SVG Exporter: http://www.layerhero.com/photoshop-svg-exporter --><!DOCTYPE svg PUBLIC "-//W3C//DTD SVG 1.1//EN" "http://www.w3.org/Graphics/SVG/1.1/DTD/svg11.dtd"><svg version="1.1" baseProfile="full" xmlns="http://www.w3.org/2000/svg" xmlns:xlink="http://www.w3.org/1999/xlink" xmlns:ev="http://www.w3.org/2001/xml-events" width="17" height="9" viewBox="0 0 17 9"><g transform="scale(NaN)" ><path fill-rule="evenodd"  fill="rgb( 166, 190, 220 )" d="M2.135,8.608 C2.135,8.608 8.497,2.714 8.497,2.714 C8.497,2.714 14.943,8.685 14.943,8.685 C14.943,8.685 14.943,8.684 14.943,8.684 C15.161,8.880 15.458,9.000 15.786,9.000 C16.456,9.000 17.000,8.496 17.000,7.875 C17.000,7.572 16.870,7.297 16.660,7.094 C16.660,7.094 16.660,7.094 16.660,7.094 C16.660,7.094 9.374,0.344 9.374,0.344 C9.374,0.344 9.374,0.344 9.374,0.344 C9.153,0.132 8.843,-0.000 8.500,-0.000 C8.499,-0.000 8.498,-0.000 8.497,-0.000 C8.496,-0.000 8.496,-0.000 8.495,-0.000 C8.151,-0.000 7.842,0.132 7.621,0.344 C7.621,0.344 7.620,0.344 7.620,0.344 C7.620,0.344 0.335,7.094 0.335,7.094 C0.335,7.094 0.338,7.097 0.338,7.097 C0.129,7.299 0.000,7.573 0.000,7.875 C0.000,8.496 0.544,9.000 1.214,9.000 C1.583,9.000 1.913,8.848 2.135,8.608 Z"/></g></svg>