<?xml version="1.0" encoding="utf-8"?> <!-- Generated by Layerhero SVG Exporter: http://www.layerhero.com/photoshop-svg-exporter --><!DOCTYPE svg PUBLIC "-//W3C//DTD SVG 1.1//EN" "http://www.w3.org/Graphics/SVG/1.1/DTD/svg11.dtd"><svg version="1.1" baseProfile="full" xmlns="http://www.w3.org/2000/svg" xmlns:xlink="http://www.w3.org/1999/xlink" xmlns:ev="http://www.w3.org/2001/xml-events" width="24" height="15" viewBox="0 0 24 15"><filter filterUnits="userSpaceOnUse" id="Filter_0" x="0px" y="0px" width="24px" height="15px"  >  <feOffset in="SourceAlpha" dx="0px" dy="1px" />  <feGaussianBlur result="blurOut" stdDeviation="1" />  <feFlood flood-color="rgb( 255, 255, 255 )" result="floodOut" />  <feComposite operator="atop" in="floodOut" in2="blurOut" />  <feComponentTransfer><feFuncA type="linear" slope="1"/></feComponentTransfer>  <feMerge>    <feMergeNode/>    <feMergeNode in="SourceGraphic"/>  </feMerge></filter><filter id="Filter_1">  <feFlood flood-color="rgb( 166, 190, 220 )" flood-opacity="1" result="floodOut" />  <feComposite operator="atop" in="floodOut" in2="SourceGraphic" result="compOut" />  <feBlend mode="normal" in="compOut" in2="SourceGraphic" /></filter><g transform="scale(NaN)" ><g filter="url(#Filter_0)"><g filter="url(#Filter_1)"><path fill-rule="evenodd"  fill="rgb( 166, 190, 220 )" d="M3.638,0.523 C3.638,0.523 11.497,8.382 11.497,8.382 C11.497,8.382 19.459,0.420 19.459,0.420 C19.459,0.420 19.459,0.421 19.459,0.421 C19.729,0.160 20.096,0.000 20.500,0.000 C21.329,0.000 22.000,0.672 22.000,1.500 C22.000,1.904 21.840,2.271 21.580,2.541 C21.580,2.541 21.580,2.542 21.580,2.542 C21.580,2.542 12.580,11.541 12.580,11.541 C12.580,11.541 12.579,11.541 12.579,11.541 C12.307,11.824 11.924,12.000 11.500,12.000 C11.499,12.000 11.498,12.000 11.497,12.000 C11.496,12.000 11.495,12.000 11.493,12.000 C11.069,12.000 10.687,11.824 10.414,11.541 C10.414,11.541 10.413,11.541 10.413,11.541 C10.413,11.541 1.414,2.542 1.414,2.542 C1.414,2.542 1.417,2.538 1.417,2.538 C1.159,2.268 1.000,1.903 1.000,1.500 C1.000,0.672 1.672,0.000 2.500,0.000 C2.955,0.000 3.363,0.203 3.638,0.523 Z"/></g></g></g></svg>