<?xml version="1.0" encoding="utf-8"?> <!-- Generated by Layerhero SVG Exporter: http://www.layerhero.com/photoshop-svg-exporter --><!DOCTYPE svg PUBLIC "-//W3C//DTD SVG 1.1//EN" "http://www.w3.org/Graphics/SVG/1.1/DTD/svg11.dtd"><svg version="1.1" baseProfile="full" xmlns="http://www.w3.org/2000/svg" xmlns:xlink="http://www.w3.org/1999/xlink" xmlns:ev="http://www.w3.org/2001/xml-events" width="40" height="38" viewBox="0 0 40 38"><g transform="scale(NaN)" ><path fill-rule="evenodd"  fill="rgb( 71, 140, 254 )" d="M35.000,38.000 C35.000,38.000 5.000,38.000 5.000,38.000 C2.238,38.000 0.000,35.791 0.000,33.067 C0.000,33.067 0.000,9.867 0.000,9.867 C0.000,7.142 2.238,4.933 5.000,4.933 C5.000,4.933 13.000,5.000 13.000,5.000 C13.000,5.000 13.000,2.000 13.000,2.000 C13.000,0.638 13.619,0.000 15.000,0.000 C15.000,0.000 25.000,0.000 25.000,0.000 C26.381,0.000 27.000,0.638 27.000,2.000 C27.000,2.000 27.000,5.000 27.000,5.000 C27.000,5.000 35.000,4.933 35.000,4.933 C37.761,4.933 40.000,7.142 40.000,9.867 C40.000,9.867 40.000,33.067 40.000,33.067 C40.000,35.791 37.761,38.000 35.000,38.000 ZM25.000,4.933 C25.000,4.933 25.000,3.700 25.000,3.700 C25.000,3.019 24.690,2.000 24.000,2.000 C24.000,2.000 16.000,2.000 16.000,2.000 C15.310,2.000 15.000,3.019 15.000,3.700 C15.000,3.700 15.000,4.933 15.000,4.933 C15.742,4.933 24.258,4.933 25.000,4.933 ZM38.000,9.000 C38.000,7.638 36.381,7.000 35.000,7.000 C35.000,7.000 5.000,7.000 5.000,7.000 C3.619,7.000 2.000,8.638 2.000,10.000 C2.000,10.000 2.000,16.000 2.000,16.000 C2.000,16.000 38.000,16.000 38.000,16.000 C38.000,16.000 38.000,9.000 38.000,9.000 ZM17.000,18.000 C17.000,19.363 18.619,21.000 20.000,21.000 C21.381,21.000 23.000,19.363 23.000,18.000 C23.000,17.549 23.215,18.364 23.000,18.000 C23.000,18.000 17.000,18.000 17.000,18.000 C16.785,18.364 17.000,17.549 17.000,18.000 ZM38.000,18.000 C38.000,18.000 25.000,18.000 25.000,18.000 C25.104,18.396 25.000,17.572 25.000,18.000 C25.000,20.725 22.761,23.000 20.000,23.000 C17.239,23.000 15.000,20.725 15.000,18.000 C15.000,17.572 14.896,18.396 15.000,18.000 C15.000,18.000 2.000,18.000 2.000,18.000 C2.000,18.000 2.000,33.000 2.000,33.000 C2.000,34.362 3.619,36.000 5.000,36.000 C5.000,36.000 35.000,36.000 35.000,36.000 C36.381,36.000 38.000,34.362 38.000,33.000 C38.000,33.000 38.000,18.000 38.000,18.000 Z"/></g></svg>