<?xml version="1.0" encoding="utf-8"?> <!-- Generated by Layerhero SVG Exporter: http://www.layerhero.com/photoshop-svg-exporter --><!DOCTYPE svg PUBLIC "-//W3C//DTD SVG 1.1//EN" "http://www.w3.org/Graphics/SVG/1.1/DTD/svg11.dtd"><svg version="1.1" baseProfile="full" xmlns="http://www.w3.org/2000/svg" xmlns:xlink="http://www.w3.org/1999/xlink" xmlns:ev="http://www.w3.org/2001/xml-events" width="15" height="25" viewBox="0 0 15 25"><filter filterUnits="userSpaceOnUse" id="Filter_0" x="0px" y="0px" width="15px" height="25px"  >  <feOffset in="SourceAlpha" dx="0px" dy="1px" />  <feGaussianBlur result="blurOut" stdDeviation="1" />  <feFlood flood-color="rgb( 255, 255, 255 )" result="floodOut" />  <feComposite operator="atop" in="floodOut" in2="blurOut" />  <feComponentTransfer><feFuncA type="linear" slope="1"/></feComponentTransfer>  <feMerge>    <feMergeNode/>    <feMergeNode in="SourceGraphic"/>  </feMerge></filter><filter id="Filter_1">  <feFlood flood-color="rgb( 166, 190, 220 )" flood-opacity="1" result="floodOut" />  <feComposite operator="atop" in="floodOut" in2="SourceGraphic" result="compOut" />  <feBlend mode="normal" in="compOut" in2="SourceGraphic" /></filter><g transform="scale(NaN)" ><g filter="url(#Filter_0)"><g filter="url(#Filter_1)"><path fill-rule="evenodd"  fill="rgb( 166, 190, 220 )" d="M12.477,3.138 C12.477,3.138 4.618,10.997 4.618,10.997 C4.618,10.997 12.580,18.959 12.580,18.959 C12.580,18.959 12.579,18.959 12.579,18.959 C12.840,19.229 13.000,19.596 13.000,20.000 C13.000,20.828 12.328,21.500 11.500,21.500 C11.096,21.500 10.729,21.340 10.459,21.079 C10.459,21.079 10.459,21.080 10.459,21.080 C10.459,21.080 1.459,12.080 1.459,12.080 C1.459,12.080 1.459,12.079 1.459,12.079 C1.176,11.807 1.000,11.424 1.000,11.000 C1.000,10.999 1.000,10.998 1.000,10.997 C1.000,10.996 1.000,10.995 1.000,10.993 C1.000,10.569 1.176,10.187 1.459,9.914 C1.459,9.914 1.459,9.913 1.459,9.913 C1.459,9.913 10.459,0.913 10.459,0.913 C10.459,0.913 10.462,0.917 10.462,0.917 C10.732,0.659 11.097,0.500 11.500,0.500 C12.328,0.500 13.000,1.172 13.000,2.000 C13.000,2.455 12.797,2.863 12.477,3.138 Z"/></g></g></g></svg>