<?xml version="1.0" encoding="utf-8"?> <!-- Generated by Layerhero SVG Exporter: http://www.layerhero.com/photoshop-svg-exporter --><!DOCTYPE svg PUBLIC "-//W3C//DTD SVG 1.1//EN" "http://www.w3.org/Graphics/SVG/1.1/DTD/svg11.dtd"><svg version="1.1" baseProfile="full" xmlns="http://www.w3.org/2000/svg" xmlns:xlink="http://www.w3.org/1999/xlink" xmlns:ev="http://www.w3.org/2001/xml-events" width="17" height="9" viewBox="0 0 17 9"><g transform="scale(NaN)" ><path fill-rule="evenodd"  fill="rgb( 71, 140, 254 )" d="M2.135,0.392 C2.135,0.392 8.497,6.286 8.497,6.286 C8.497,6.286 14.943,0.315 14.943,0.315 C14.943,0.315 14.943,0.316 14.943,0.316 C15.161,0.120 15.458,-0.000 15.786,-0.000 C16.456,-0.000 17.000,0.504 17.000,1.125 C17.000,1.428 16.870,1.703 16.660,1.906 C16.660,1.906 16.660,1.906 16.660,1.906 C16.660,1.906 9.374,8.656 9.374,8.656 C9.374,8.656 9.374,8.656 9.374,8.656 C9.153,8.868 8.843,9.000 8.500,9.000 C8.499,9.000 8.498,9.000 8.497,9.000 C8.496,9.000 8.496,9.000 8.495,9.000 C8.151,9.000 7.842,8.868 7.621,8.656 C7.621,8.656 7.620,8.656 7.620,8.656 C7.620,8.656 0.335,1.906 0.335,1.906 C0.335,1.906 0.338,1.903 0.338,1.903 C0.129,1.701 0.000,1.427 0.000,1.125 C0.000,0.504 0.544,-0.000 1.214,-0.000 C1.583,-0.000 1.913,0.152 2.135,0.392 Z"/></g></svg>