<?xml version="1.0" encoding="utf-8"?> <!-- Generated by Layerhero SVG Exporter: http://www.layerhero.com/photoshop-svg-exporter --><!DOCTYPE svg PUBLIC "-//W3C//DTD SVG 1.1//EN" "http://www.w3.org/Graphics/SVG/1.1/DTD/svg11.dtd"><svg version="1.1" baseProfile="full" xmlns="http://www.w3.org/2000/svg" xmlns:xlink="http://www.w3.org/1999/xlink" xmlns:ev="http://www.w3.org/2001/xml-events" width="36" height="40" viewBox="0 0 36 40"><g transform="scale(NaN)" ><path fill-rule="evenodd"  fill="rgb( 166, 190, 220 )" d="M23.143,40.000 C23.143,40.000 18.000,36.250 18.000,36.250 C18.000,36.250 12.857,40.000 12.857,40.000 C12.857,40.000 7.714,36.250 7.714,36.250 C7.714,36.250 2.400,40.000 2.400,40.000 C2.400,40.000 -0.000,40.000 -0.000,40.000 C-0.000,40.000 -0.000,5.000 -0.000,5.000 C-0.000,2.239 2.303,0.000 5.143,0.000 C5.143,0.000 30.857,0.000 30.857,0.000 C33.697,0.000 36.000,2.239 36.000,5.000 C36.000,5.000 36.000,40.000 36.000,40.000 C36.000,40.000 33.600,40.000 33.600,40.000 C33.600,40.000 28.286,36.250 28.286,36.250 C28.286,36.250 23.143,40.000 23.143,40.000 ZM34.000,5.000 C34.000,3.619 32.420,2.000 31.000,2.000 C31.000,2.000 5.000,2.000 5.000,2.000 C3.580,2.000 2.000,3.619 2.000,5.000 C2.000,5.000 2.000,38.000 2.000,38.000 C2.000,38.000 7.714,33.750 7.714,33.750 C7.714,33.750 12.857,37.734 12.857,37.734 C12.857,37.734 18.000,33.750 18.000,33.750 C18.000,33.750 23.143,37.734 23.143,37.734 C23.143,37.734 28.286,33.750 28.286,33.750 C28.286,33.750 34.000,38.000 34.000,38.000 C34.000,38.000 34.000,5.000 34.000,5.000 ZM27.000,25.000 C27.000,25.000 9.000,25.000 9.000,25.000 C8.290,25.000 8.000,24.691 8.000,24.000 C8.000,23.310 8.290,23.000 9.000,23.000 C9.000,23.000 27.000,23.000 27.000,23.000 C27.710,23.000 28.000,23.310 28.000,24.000 C28.000,24.691 27.710,25.000 27.000,25.000 ZM27.000,17.000 C27.000,17.000 9.000,17.000 9.000,17.000 C8.290,17.000 8.000,16.690 8.000,16.000 C8.000,15.310 8.290,14.972 9.000,14.972 C9.000,14.972 27.000,14.972 27.000,14.972 C27.710,14.972 28.000,15.310 28.000,16.000 C28.000,16.690 27.710,17.000 27.000,17.000 ZM27.000,10.000 C27.000,10.000 9.000,10.000 9.000,10.000 C8.290,10.000 8.000,9.691 8.000,9.000 C8.000,8.310 8.290,8.000 9.000,8.000 C9.000,8.000 27.000,8.000 27.000,8.000 C27.710,8.000 28.000,8.310 28.000,9.000 C28.000,9.691 27.710,10.000 27.000,10.000 Z"/></g></svg>