<?xml version="1.0" encoding="utf-8"?> <!-- Generated by Layerhero SVG Exporter: http://www.layerhero.com/photoshop-svg-exporter --><!DOCTYPE svg PUBLIC "-//W3C//DTD SVG 1.1//EN" "http://www.w3.org/Graphics/SVG/1.1/DTD/svg11.dtd"><svg version="1.1" baseProfile="full" xmlns="http://www.w3.org/2000/svg" xmlns:xlink="http://www.w3.org/1999/xlink" xmlns:ev="http://www.w3.org/2001/xml-events" width="30" height="30" viewBox="0 0 30 30"><filter id="Filter_0">  <feFlood flood-color="rgb( 170, 204, 255 )" flood-opacity="1" result="floodOut" />  <feComposite operator="atop" in="floodOut" in2="SourceGraphic" result="compOut" />  <feBlend mode="normal" in="compOut" in2="SourceGraphic" /></filter><g transform="scale(NaN)" ><g filter="url(#Filter_0)"><path fill-rule="evenodd"  fill="rgb( 255, 255, 255 )" d="M30.000,30.000 C30.000,30.000 0.000,30.000 0.000,30.000 C0.000,30.000 0.000,28.000 0.000,28.000 C0.000,28.000 30.000,28.000 30.000,28.000 C30.000,28.000 30.000,30.000 30.000,30.000 ZM23.000,8.000 C23.000,8.000 19.000,4.000 19.000,4.000 C19.000,4.000 22.000,1.000 22.000,1.000 C22.583,0.418 23.889,-0.191 24.472,0.391 C24.472,0.391 26.584,2.498 26.584,2.498 C27.167,3.080 26.583,4.418 26.000,5.000 C26.000,5.000 23.000,8.000 23.000,8.000 ZM10.000,21.000 C10.000,21.000 6.000,17.000 6.000,17.000 C6.000,17.000 18.000,5.000 18.000,5.000 C18.000,5.000 22.000,9.000 22.000,9.000 C22.000,9.000 10.000,21.000 10.000,21.000 ZM3.000,24.000 C3.000,24.000 5.000,18.000 5.000,18.000 C5.000,18.000 9.000,22.000 9.000,22.000 C9.000,22.000 3.000,24.000 3.000,24.000 Z"/></g></g></svg>