<?xml version="1.0" encoding="utf-8"?> <!-- Generated by Layerhero SVG Exporter: http://www.layerhero.com/photoshop-svg-exporter --><!DOCTYPE svg PUBLIC "-//W3C//DTD SVG 1.1//EN" "http://www.w3.org/Graphics/SVG/1.1/DTD/svg11.dtd"><svg version="1.1" baseProfile="full" xmlns="http://www.w3.org/2000/svg" xmlns:xlink="http://www.w3.org/1999/xlink" xmlns:ev="http://www.w3.org/2001/xml-events" width="7" height="29" viewBox="0 0 7 29"><g transform="scale(NaN)" ><path fill-rule="evenodd"  fill="rgb( 170, 204, 255 )" d="M3.500,22.000 C5.433,22.000 7.000,23.567 7.000,25.500 C7.000,27.433 5.433,29.000 3.500,29.000 C1.567,29.000 0.000,27.433 0.000,25.500 C0.000,23.567 1.567,22.000 3.500,22.000 Z"/><path fill-rule="evenodd"  fill="rgb( 170, 204, 255 )" d="M3.500,11.000 C5.433,11.000 7.000,12.567 7.000,14.500 C7.000,16.433 5.433,18.000 3.500,18.000 C1.567,18.000 0.000,16.433 0.000,14.500 C0.000,12.567 1.567,11.000 3.500,11.000 Z"/><path fill-rule="evenodd"  fill="rgb( 170, 204, 255 )" d="M3.500,0.000 C5.433,0.000 7.000,1.567 7.000,3.500 C7.000,5.433 5.433,7.000 3.500,7.000 C1.567,7.000 0.000,5.433 0.000,3.500 C0.000,1.567 1.567,0.000 3.500,0.000 Z"/></g></svg>