<?xml version="1.0" encoding="utf-8"?> <!-- Generated by Layerhero SVG Exporter: http://www.layerhero.com/photoshop-svg-exporter --><!DOCTYPE svg PUBLIC "-//W3C//DTD SVG 1.1//EN" "http://www.w3.org/Graphics/SVG/1.1/DTD/svg11.dtd"><svg version="1.1" baseProfile="full" xmlns="http://www.w3.org/2000/svg" xmlns:xlink="http://www.w3.org/1999/xlink" xmlns:ev="http://www.w3.org/2001/xml-events" width="36" height="32" viewBox="0 0 36 32"><g transform="scale(NaN)" ><path fill-rule="evenodd"  fill="rgb( 71, 140, 254 )" d="M-0.000,28.000 C-0.000,28.000 -0.000,4.000 -0.000,4.000 C-0.000,1.791 1.787,-0.000 3.992,-0.000 C3.992,-0.000 18.946,-0.000 18.946,-0.000 C21.151,-0.000 22.938,1.791 22.938,4.000 C22.938,4.000 22.938,11.000 22.938,11.000 C22.938,11.000 20.942,11.000 20.942,11.000 C20.942,11.000 20.942,4.000 20.942,4.000 C20.942,2.895 20.048,2.000 18.946,2.000 C18.946,2.000 3.992,2.000 3.992,2.000 C2.889,2.000 1.996,2.895 1.996,4.000 C1.996,4.000 1.996,28.000 1.996,28.000 C1.996,29.105 2.889,30.000 3.992,30.000 C3.992,30.000 18.946,30.000 18.946,30.000 C20.048,30.000 20.942,29.105 20.942,28.000 C20.942,28.000 20.942,21.000 20.942,21.000 C20.942,21.000 22.938,21.000 22.938,21.000 C22.938,21.000 22.938,28.000 22.938,28.000 C22.938,30.210 21.151,32.000 18.946,32.000 C18.946,32.000 3.992,32.000 3.992,32.000 C1.787,32.000 -0.000,30.210 -0.000,28.000 ZM26.783,23.153 C26.783,22.897 26.881,22.640 27.076,22.445 C27.076,22.445 32.520,17.000 32.520,17.000 C32.520,17.000 11.952,17.000 11.952,17.000 C11.401,17.000 10.954,16.552 10.954,16.000 C10.954,15.448 11.401,15.000 11.952,15.000 C11.952,15.000 32.635,15.000 32.635,15.000 C32.635,15.000 27.075,9.429 27.075,9.429 C26.685,9.039 26.685,8.406 27.075,8.015 C27.465,7.625 28.097,7.625 28.486,8.015 C28.486,8.015 35.694,15.238 35.694,15.238 C35.881,15.425 35.986,15.679 35.986,15.945 C35.986,15.945 35.986,15.945 35.986,15.946 C35.986,16.211 35.881,16.466 35.693,16.653 C35.693,16.653 28.486,23.861 28.486,23.861 C28.096,24.250 27.464,24.250 27.074,23.859 C26.881,23.663 26.783,23.409 26.783,23.153 Z"/></g></svg>