<?xml version="1.0" encoding="utf-8"?> <!-- Generated by Layerhero SVG Exporter: http://www.layerhero.com/photoshop-svg-exporter --><!DOCTYPE svg PUBLIC "-//W3C//DTD SVG 1.1//EN" "http://www.w3.org/Graphics/SVG/1.1/DTD/svg11.dtd"><svg version="1.1" baseProfile="full" xmlns="http://www.w3.org/2000/svg" xmlns:xlink="http://www.w3.org/1999/xlink" xmlns:ev="http://www.w3.org/2001/xml-events" width="40" height="30" viewBox="0 0 40 30"><g transform="scale(NaN)" ><path fill-rule="evenodd"  fill="rgb( 166, 190, 220 )" d="M35.000,30.000 C35.000,30.000 5.000,30.000 5.000,30.000 C2.238,30.000 0.000,27.762 0.000,25.000 C0.000,25.000 0.000,5.000 0.000,5.000 C0.000,2.239 2.238,0.000 5.000,0.000 C5.000,0.000 35.000,0.000 35.000,0.000 C37.761,0.000 40.000,2.239 40.000,5.000 C40.000,5.000 40.000,25.000 40.000,25.000 C40.000,27.762 37.761,30.000 35.000,30.000 ZM36.000,28.000 C36.000,28.000 24.091,15.393 24.091,15.393 C24.091,15.393 20.000,19.000 20.000,19.000 C20.000,19.000 15.725,15.413 15.725,15.413 C15.725,15.413 4.000,28.000 4.000,28.000 C4.179,28.041 35.821,28.041 36.000,28.000 ZM2.000,3.000 C2.000,3.000 2.000,25.000 2.000,25.000 C2.000,25.254 2.930,25.770 3.000,26.000 C3.000,26.000 14.000,14.000 14.000,14.000 C14.000,14.000 2.000,3.000 2.000,3.000 ZM4.000,2.000 C4.000,2.000 20.000,16.000 20.000,16.000 C20.000,16.000 36.000,2.000 36.000,2.000 C36.000,2.000 4.000,2.000 4.000,2.000 ZM38.000,3.000 C38.000,3.000 26.000,14.000 26.000,14.000 C26.000,14.000 37.000,26.000 37.000,26.000 C37.070,25.770 38.000,25.254 38.000,25.000 C38.000,25.000 38.000,3.000 38.000,3.000 Z"/></g></svg>