<?xml version="1.0" encoding="utf-8"?> <!-- Generated by Layerhero SVG Exporter: http://www.layerhero.com/photoshop-svg-exporter --><!DOCTYPE svg PUBLIC "-//W3C//DTD SVG 1.1//EN" "http://www.w3.org/Graphics/SVG/1.1/DTD/svg11.dtd"><svg version="1.1" baseProfile="full" xmlns="http://www.w3.org/2000/svg" xmlns:xlink="http://www.w3.org/1999/xlink" xmlns:ev="http://www.w3.org/2001/xml-events" width="35" height="35" viewBox="0 0 35 35"><filter filterUnits="userSpaceOnUse" id="Filter_0" x="0px" y="0px" width="35px" height="35px"  >  <feOffset in="SourceAlpha" dx="0px" dy="1px" />  <feGaussianBlur result="blurOut" stdDeviation="1" />  <feFlood flood-color="rgb( 255, 255, 255 )" result="floodOut" />  <feComposite operator="atop" in="floodOut" in2="blurOut" />  <feComponentTransfer><feFuncA type="linear" slope="1"/></feComponentTransfer>  <feMerge>    <feMergeNode/>    <feMergeNode in="SourceGraphic"/>  </feMerge></filter><filter id="Filter_1">  <feFlood flood-color="rgb( 166, 190, 220 )" flood-opacity="1" result="floodOut" />  <feComposite operator="atop" in="floodOut" in2="SourceGraphic" result="compOut" />  <feBlend mode="normal" in="compOut" in2="SourceGraphic" /></filter><g transform="scale(NaN)" ><g filter="url(#Filter_0)"><g filter="url(#Filter_1)"><path fill-rule="evenodd"  fill="rgb( 128, 64, 122 )" d="M32.000,24.000 C32.000,24.000 31.000,24.000 31.000,24.000 C31.000,24.000 27.000,24.000 27.000,24.000 C27.000,24.000 27.000,32.000 27.000,32.000 C27.000,32.000 7.000,32.000 7.000,32.000 C7.000,32.000 7.000,24.000 7.000,24.000 C7.000,24.000 3.000,24.000 3.000,24.000 C3.000,24.000 1.000,24.000 1.000,24.000 C1.000,24.000 1.000,11.000 1.000,11.000 C1.000,8.794 2.794,7.000 5.000,7.000 C5.000,7.000 7.000,7.000 7.000,7.000 C7.000,7.000 7.000,-0.000 7.000,-0.000 C7.000,-0.000 27.000,-0.000 27.000,-0.000 C27.000,-0.000 27.000,7.000 27.000,7.000 C27.000,7.000 29.000,7.000 29.000,7.000 C31.206,7.000 33.000,8.794 33.000,11.000 C33.000,11.000 33.000,24.000 33.000,24.000 C33.000,24.000 32.000,24.000 32.000,24.000 ZM9.000,30.000 C9.000,30.000 25.000,30.000 25.000,30.000 C25.000,30.000 25.000,21.000 25.000,21.000 C25.000,21.000 9.000,21.000 9.000,21.000 C9.000,21.000 9.000,30.000 9.000,30.000 ZM25.000,2.000 C25.000,2.000 9.000,2.000 9.000,2.000 C9.000,2.000 9.000,7.000 9.000,7.000 C9.000,7.000 25.000,7.000 25.000,7.000 C25.000,7.000 25.000,2.000 25.000,2.000 ZM31.000,11.000 C31.000,9.898 30.102,9.000 29.000,9.000 C29.000,9.000 27.000,9.000 27.000,9.000 C27.000,9.000 7.000,9.000 7.000,9.000 C7.000,9.000 5.000,9.000 5.000,9.000 C3.898,9.000 3.000,9.898 3.000,11.000 C3.000,11.000 3.000,22.000 3.000,22.000 C3.000,22.000 7.000,22.000 7.000,22.000 C7.000,22.000 7.000,19.000 7.000,19.000 C7.000,19.000 27.000,19.000 27.000,19.000 C27.000,19.000 27.000,22.000 27.000,22.000 C27.000,22.000 31.000,22.000 31.000,22.000 C31.000,22.000 31.000,11.000 31.000,11.000 ZM17.000,14.000 C17.000,14.000 8.000,14.000 8.000,14.000 C7.447,14.000 7.000,13.553 7.000,13.000 C7.000,12.447 7.447,12.000 8.000,12.000 C8.000,12.000 17.000,12.000 17.000,12.000 C17.553,12.000 18.000,12.447 18.000,13.000 C18.000,13.553 17.553,14.000 17.000,14.000 Z"/></g></g></g></svg>