<?xml version="1.0" encoding="utf-8"?>
<!-- Generator: Adobe Illustrator 17.0.0, SVG Export Plug-In . SVG Version: 6.00 Build 0)  -->
<!DOCTYPE svg PUBLIC "-//W3C//DTD SVG 1.1//EN" "http://www.w3.org/Graphics/SVG/1.1/DTD/svg11.dtd">
<svg version="1.1" id="Layer_1" xmlns="http://www.w3.org/2000/svg" xmlns:xlink="http://www.w3.org/1999/xlink" x="0px" y="0px"
	 width="45px" height="45px" viewBox="0 0 45 45" enable-background="new 0 0 45 45" xml:space="preserve">
<g>
	<path fill="#FFFFFF" d="M28.83,8.58c0-3.499-2.83-6.33-6.33-6.33s-6.33,2.83-6.33,6.33v19.144
		c-1.544,1.595-2.522,3.757-2.522,6.175c0,4.889,3.963,8.851,8.851,8.851s8.851-3.963,8.851-8.851c0-2.419-0.978-4.58-2.522-6.175
		L28.83,8.58L28.83,8.58z M22.5,40.229c-0.257,0-0.515-0.051-0.772-0.051c-3.139-0.412-5.558-3.036-5.558-6.278
		c0-2.058,1.029-3.86,2.522-5.043V8.58c0-2.11,1.698-3.808,3.808-3.808s3.808,1.698,3.808,3.808v20.327
		c1.544,1.184,2.522,2.985,2.522,5.043C28.83,37.398,25.999,40.229,22.5,40.229z"/>
	<path fill="#FFFFFF" d="M23.787,30.348V17.534h-2.522v12.814c-1.492,0.515-2.522,1.904-2.522,3.551c0,2.11,1.698,3.808,3.808,3.808
		s3.808-1.698,3.808-3.808C26.308,32.252,25.227,30.863,23.787,30.348z"/>
</g>
</svg>
