<?xml version="1.0" encoding="utf-8"?>
<!-- Generator: Adobe Illustrator 17.0.0, SVG Export Plug-In . SVG Version: 6.00 Build 0)  -->
<!DOCTYPE svg PUBLIC "-//W3C//DTD SVG 1.1//EN" "http://www.w3.org/Graphics/SVG/1.1/DTD/svg11.dtd">
<svg version="1.1" id="Layer_1" xmlns="http://www.w3.org/2000/svg" xmlns:xlink="http://www.w3.org/1999/xlink" x="0px" y="0px"
	 width="45px" height="45px" viewBox="0 0 45 45" enable-background="new 0 0 45 45" xml:space="preserve">
<path fill="#FFFFFF" d="M41.707,17.314c0-1.162-0.951-2.113-2.113-2.113h-2.527l-1.832-4.763c-0.455-1.183-1.825-2.436-3.044-2.785
	c0,0-3.162-0.903-9.692-0.903s-9.692,0.904-9.692,0.904c-1.219,0.348-2.588,1.601-3.044,2.785l-1.832,4.763H5.405
	c-1.162,0-2.113,0.951-2.113,2.113c0,1.162,0.951,2.113,2.113,2.113h0.901l-0.65,1.69c-0.455,1.183-0.827,3.188-0.827,4.456v9.988
	c0,1.479,1.21,2.689,2.689,2.689s2.689-1.21,2.689-2.689v-1.537h24.585v1.537c0,1.479,1.21,2.689,2.689,2.689
	c1.479,0,2.689-1.21,2.689-2.689v-9.988c0-1.268-0.373-3.273-0.827-4.456l-0.65-1.69h0.902
	C40.757,19.427,41.707,18.476,41.707,17.314z M10.089,17.938l2.158-5.857c0.146-0.396,0.612-0.721,1.034-0.721H31.72
	c0.423,0,0.888,0.325,1.034,0.721l2.158,5.857c0.146,0.396-0.08,0.721-0.502,0.721H10.591C10.169,18.659,9.943,18.334,10.089,17.938
	z M10.015,27.494c-1.167,0-2.113-0.947-2.113-2.113c0-1.166,0.946-2.113,2.113-2.113c1.167,0,2.113,0.947,2.113,2.113
	C12.128,26.547,11.182,27.494,10.015,27.494z M34.985,27.494c-1.167,0-2.113-0.946-2.113-2.113c0-1.167,0.946-2.113,2.113-2.113
	c1.167,0,2.113,0.946,2.113,2.113C37.098,26.548,36.152,27.494,34.985,27.494z"/>
</svg>
