<?xml version="1.0" encoding="utf-8"?>
<!-- Generator: Adobe Illustrator 17.0.0, SVG Export Plug-In . SVG Version: 6.00 Build 0)  -->
<!DOCTYPE svg PUBLIC "-//W3C//DTD SVG 1.1//EN" "http://www.w3.org/Graphics/SVG/1.1/DTD/svg11.dtd">
<svg version="1.1" id="Layer_1" xmlns="http://www.w3.org/2000/svg" xmlns:xlink="http://www.w3.org/1999/xlink" x="0px" y="0px"
	 width="45px" height="45px" viewBox="0 0 45 45" enable-background="new 0 0 45 45" xml:space="preserve">
<g>
	<path id="favorite-3-icon" fill="#FFFFFF" d="M22.5,38.25C10.362,26.437,6.95,22.091,6.211,17.637
		C5.307,12.187,9.364,6.75,15.685,6.75c2.709,0,5.171,1.041,6.815,2.779c1.645-1.738,4.106-2.779,6.815-2.779
		c6.293,0,10.382,5.41,9.473,10.887C38.065,21.994,34.879,26.202,22.5,38.25z M15.685,9.947c-2.552,0-4.704,1.285-5.756,3.437
		C7.236,18.895,13.301,24.491,22.5,33.708c9.233-9.252,15.258-14.826,12.571-20.324c-1.052-2.152-3.203-3.437-5.756-3.437
		c-4.113,0-5.866,3.239-6.815,4.768C21.608,13.279,20.006,9.947,15.685,9.947z"/>
	<polygon fill="#FFFFFF" points="28.125,19.933 24.617,19.933 24.617,16.425 20.383,16.425 20.383,19.933 16.875,19.933 
		16.875,24.167 20.383,24.167 20.383,27.675 24.617,27.675 24.617,24.167 28.125,24.167 	"/>
</g>
</svg>
