<?xml version="1.0" encoding="utf-8"?>
<!-- Generator: Adobe Illustrator 17.0.0, SVG Export Plug-In . SVG Version: 6.00 Build 0)  -->
<!DOCTYPE svg PUBLIC "-//W3C//DTD SVG 1.1//EN" "http://www.w3.org/Graphics/SVG/1.1/DTD/svg11.dtd">
<svg version="1.1" id="Layer_1" xmlns="http://www.w3.org/2000/svg" xmlns:xlink="http://www.w3.org/1999/xlink" x="0px" y="0px"
	 width="45px" height="45px" viewBox="0 0 45 45" enable-background="new 0 0 45 45" xml:space="preserve">
<path id="calendar-5-icon" fill="#FFFFFF" d="M17.932,25.617h-4.596v-4.596h4.596V25.617z M24.876,21.021H20.28v4.596h4.596V21.021z
	 M31.821,21.021h-4.596v4.596h4.596V21.021z M17.932,27.732h-4.596v4.596h4.596V27.732z M24.876,27.732H20.28v4.596h4.596V27.732z
	 M31.821,27.732h-4.596v4.596h4.596V27.732z M33.532,11.742c0,0.783-0.635,1.418-1.418,1.418s-1.418-0.635-1.418-1.418V8.174
	c0-0.783,0.635-1.418,1.418-1.418s1.418,0.635,1.418,1.418V11.742z M14.376,8.168c0-0.783-0.635-1.418-1.418-1.418
	c-0.783,0-1.418,0.635-1.418,1.418v3.568c0,0.783,0.635,1.418,1.418,1.418c0.783,0,1.418-0.635,1.418-1.418V8.168z M35.246,10.238
	v1.453c0,1.727-1.405,3.132-3.131,3.132c-1.727,0-3.132-1.405-3.132-3.132v-1.453H16.09v1.446c0,1.727-1.405,3.132-3.131,3.132
	c-1.727,0-3.132-1.405-3.132-3.132v-1.446H6.426V38.25h32.148V10.238L35.246,10.238L35.246,10.238z M35.453,35.129H9.547V17.77
	h25.905V35.129z"/>
</svg>
