<?xml version="1.0" encoding="utf-8"?>
<!-- Generator: Adobe Illustrator 17.0.0, SVG Export Plug-In . SVG Version: 6.00 Build 0)  -->
<!DOCTYPE svg PUBLIC "-//W3C//DTD SVG 1.1//EN" "http://www.w3.org/Graphics/SVG/1.1/DTD/svg11.dtd">
<svg version="1.1" id="Layer_1" xmlns="http://www.w3.org/2000/svg" xmlns:xlink="http://www.w3.org/1999/xlink" x="0px" y="0px"
	 width="45px" height="45px" viewBox="0 0 45 45" enable-background="new 0 0 45 45" xml:space="preserve">
<path fill="#FFFFFF" d="M33.07,31.925c1.029-1.059,1.586-2.49,1.545-3.967L34.09,9.517c-0.097-3.42-2.897-6.142-6.319-6.142H22.5
	h-5.271c-3.421,0-6.222,2.722-6.319,6.142l-0.525,18.441c-0.042,1.477,0.515,2.907,1.545,3.967c0.371,0.382,0.794,0.701,1.25,0.957
	l-2.392,8.744h3.536l0.911-3.329h14.53l0.911,3.329h3.536l-2.392-8.744C32.277,32.625,32.699,32.306,33.07,31.925z M29.162,30.616
	c-1.512,0-2.738-1.226-2.738-2.738c0-1.512,1.226-2.737,2.738-2.737c1.512,0,2.738,1.225,2.738,2.737
	C31.9,29.39,30.674,30.616,29.162,30.616z M19.032,6.121c0-0.517,0.42-0.937,0.937-0.937h5.153c0.517,0,0.937,0.419,0.937,0.937
	v0.075c0,0.517-0.42,0.937-0.937,0.937h-5.153c-0.517,0-0.937-0.419-0.937-0.937V6.121z M13.659,10.814
	c0.041-1.046,0.901-1.873,1.948-1.873h14.061c1.047,0,1.907,0.827,1.948,1.873l0.251,6.414c0.021,0.53-0.175,1.045-0.542,1.427
	c-0.367,0.382-0.875,0.598-1.405,0.598H15.355c-0.531,0-1.038-0.216-1.405-0.598c-0.367-0.382-0.563-0.897-0.542-1.427
	L13.659,10.814z M15.838,25.141c1.512,0,2.738,1.225,2.738,2.737c0,1.512-1.226,2.738-2.738,2.738c-1.512,0-2.738-1.226-2.738-2.738
	C13.1,26.366,14.326,25.141,15.838,25.141z M15.768,36.347l0.756-2.765h11.952l0.756,2.765H15.768z"/>
</svg>
