<?xml version="1.0" encoding="utf-8"?>
<!-- Generator: Adobe Illustrator 17.0.0, SVG Export Plug-In . SVG Version: 6.00 Build 0)  -->
<!DOCTYPE svg PUBLIC "-//W3C//DTD SVG 1.1//EN" "http://www.w3.org/Graphics/SVG/1.1/DTD/svg11.dtd">
<svg version="1.1" id="Layer_1" xmlns="http://www.w3.org/2000/svg" xmlns:xlink="http://www.w3.org/1999/xlink" x="0px" y="0px"
	 width="45px" height="45px" viewBox="0 0 45 45" enable-background="new 0 0 45 45" xml:space="preserve">
<path id="info-6-icon" fill="#FFFFFF" d="M22.5,8.902c7.515,0,13.598,6.082,13.598,13.598c0,7.515-6.082,13.598-13.598,13.598
	c-7.515,0-13.598-6.082-13.598-13.598C8.902,14.985,14.983,8.902,22.5,8.902 M22.5,5.625c-9.32,0-16.875,7.555-16.875,16.875
	c0,9.32,7.555,16.875,16.875,16.875c9.32,0,16.875-7.555,16.875-16.875C39.375,13.18,31.82,5.625,22.5,5.625L22.5,5.625z
	 M22.219,31.987c-2.311,0.812-4.216-0.119-3.834-2.339c0.382-2.22,2.575-6.972,2.888-7.871c0.313-0.899-0.287-1.145-0.929-0.779
	c-0.371,0.214-0.921,0.642-1.394,1.059c-0.131-0.264-0.316-0.566-0.454-0.855c0.772-0.773,2.061-1.81,3.588-2.186
	c1.824-0.45,4.873,0.27,3.563,3.757c-0.936,2.485-1.598,4.2-2.015,5.478c-0.417,1.278,0.078,1.546,0.808,1.048
	c0.57-0.389,1.177-0.919,1.622-1.329c0.206,0.335,0.272,0.441,0.476,0.826C25.765,29.588,23.744,31.441,22.219,31.987z
	 M27.007,16.612c-1.048,0.892-2.602,0.873-3.471-0.044c-0.869-0.916-0.724-2.382,0.324-3.274c1.048-0.892,2.602-0.873,3.471,0.043
	C28.2,14.254,28.055,15.72,27.007,16.612z"/>
</svg>
