<?xml version="1.0" encoding="utf-8"?>
<!-- Generator: Adobe Illustrator 17.0.0, SVG Export Plug-In . SVG Version: 6.00 Build 0)  -->
<!DOCTYPE svg PUBLIC "-//W3C//DTD SVG 1.1//EN" "http://www.w3.org/Graphics/SVG/1.1/DTD/svg11.dtd">
<svg version="1.1" id="Layer_1" xmlns="http://www.w3.org/2000/svg" xmlns:xlink="http://www.w3.org/1999/xlink" x="0px" y="0px"
	 width="45px" height="45px" viewBox="0 0 45 45" enable-background="new 0 0 45 45" xml:space="preserve">
<g>
	<path id="cloud-3-icon" fill="#FFFFFF" d="M35.183,13.564c-0.862-4.546-4.852-7.922-9.576-7.922c-2.903,0-5.594,1.264-7.433,3.439
		c-3.073-0.819-6.293,0.974-7.19,4.035c-3.192,0.938-5.472,3.892-5.472,7.317c0,4.206,3.422,7.628,7.711,7.628h18.64
		c4.206,0,7.628-3.422,7.628-7.628C39.489,17.462,37.797,14.821,35.183,13.564z M31.861,24.752h-18.64
		c-2.464,0-4.402-1.938-4.402-4.319c0-2.819,2.287-4.969,5.144-4.451c-0.954-3.275,3.65-5.122,5.347-2.676
		c0.427-1.206,2.136-4.356,6.297-4.356c3.145,0,6.399,2.157,6.506,7.029c2.098,0.008,4.068,1.525,4.068,4.454
		C36.181,22.814,34.243,24.752,31.861,24.752z"/>
	<path fill="#FFFFFF" d="M13,38.532c-0.455,0.788-1.472,1.06-2.26,0.606h0c-0.788-0.455-1.06-1.472-0.606-2.26l3.309-5.731
		c0.455-0.788,1.472-1.06,2.26-0.606l0,0c0.788,0.455,1.06,1.472,0.606,2.26L13,38.532z"/>
	<path fill="#FFFFFF" d="M20.828,38.532c-0.455,0.788-1.472,1.06-2.26,0.606h0c-0.788-0.455-1.06-1.472-0.606-2.26l3.309-5.731
		c0.455-0.788,1.472-1.06,2.26-0.606l0,0c0.788,0.455,1.06,1.472,0.606,2.26L20.828,38.532z"/>
	<path fill="#FFFFFF" d="M28.656,38.532c-0.455,0.788-1.472,1.06-2.26,0.606h0c-0.788-0.455-1.06-1.472-0.605-2.26l3.309-5.731
		c0.455-0.788,1.472-1.06,2.26-0.606l0,0c0.788,0.455,1.06,1.472,0.605,2.26L28.656,38.532z"/>
</g>
</svg>
