<?xml version="1.0" encoding="utf-8"?>
<!-- Generator: Adobe Illustrator 16.0.4, SVG Export Plug-In . SVG Version: 6.00 Build 0)  -->
<!DOCTYPE svg PUBLIC "-//W3C//DTD SVG 1.1//EN" "http://www.w3.org/Graphics/SVG/1.1/DTD/svg11.dtd">
<svg version="1.1" id="Layer_1" xmlns="http://www.w3.org/2000/svg" xmlns:xlink="http://www.w3.org/1999/xlink" x="0px" y="0px"
	 width="2048px" height="2048px" viewBox="0 0 2048 2048" enable-background="new 0 0 2048 2048" xml:space="preserve">
<path fill="#FFFFFF" d="M1940.855,734.91c-94.031,0-147,12.582-173.672,22.039c-44.711-108.18-124.109-256.152-235.344-291.434
	l-11.984-1.863c0,0-161.938-32.477-495.844-32.477c-333.875,0-496.008,32.477-496.008,32.477l-11.828,1.863
	C404.91,500.797,325.512,648.77,280.902,756.949c-26.773-9.457-79.773-22.039-173.801-22.039
	c-151.785,0-149.547,149.676,54.012,126.027c0,0-121.988,94.844-79.801,309.375v415.602c0,10.727,8.734,19.555,19.578,19.555h353.02
	c10.875,0,19.578-8.828,19.578-19.555v-68.859h1100.977v68.859c0,10.727,8.703,19.555,19.555,19.555h353.141
	c10.844,0,19.547-8.828,19.547-19.555v-415.602c42.25-214.531-79.836-309.375-79.836-309.375
	C2090.496,884.586,2092.699,734.91,1940.855,734.91z M534.652,542.258h978.773c84.125,31.594,142.391,188.965,175.812,297.273
	h-27.68c-109.102-37.711-353.211-64.039-637.547-64.039c-284.281,0-528.484,26.328-637.578,64.039H358.84
	C392.23,731.223,450.473,573.852,534.652,542.258z M581.324,1211.969c-12.742,0-299.195,5.109-325.961,5.109
	c-48.688,0-88.102-39.383-88.102-88.039c0-48.648,39.73-75.453,88.352-75.453c15.383,0,113.164-6.68,192.742,12.836
	c73.594,18.195,174.336,62.023,174.336,104.047C622.691,1193.398,604.152,1211.969,581.324,1211.969z M1248.316,1480.984H799.793
	V1346.82h448.523V1480.984z M1792.66,1217.078c-26.742,0-313.164-5.109-325.898-5.109c-22.953,0-41.43-18.57-41.43-41.5
	c0-42.023,100.828-85.852,174.234-104.047c79.711-19.516,177.453-12.836,192.836-12.836c48.625,0,88.414,26.805,88.414,75.453
	C1880.816,1177.695,1841.277,1217.078,1792.66,1217.078z"/>
</svg>
