<?xml version="1.0" encoding="utf-8"?>
<!-- Generator: Adobe Illustrator 16.0.4, SVG Export Plug-In . SVG Version: 6.00 Build 0)  -->
<!DOCTYPE svg PUBLIC "-//W3C//DTD SVG 1.1//EN" "http://www.w3.org/Graphics/SVG/1.1/DTD/svg11.dtd">
<svg version="1.1" id="Layer_1" xmlns="http://www.w3.org/2000/svg" xmlns:xlink="http://www.w3.org/1999/xlink" x="0px" y="0px"
	 width="2048px" height="2048px" viewBox="0 0 2048 2048" enable-background="new 0 0 2048 2048" xml:space="preserve">
<path fill="#FFFFFF" d="M1665.875,1943.578c-46.992-25.434-76.648-83.434-91.59-125.234c79.156-61.762,115.426-165.27,82.352-260.68
	c-42.031-121.93-180.328-184.891-308.527-140.578c-44.711,15.512-82.352,42.316-110.465,75.68l-159.055-459.543L1456.691,9.637
	c-107.84,200.629-356.488,700.203-438.441,867.555C938.125,704.195,700.77,200.797,598.348-0.004l356.602,1031.859l-167.094,452.582
	c-27.547-33.762-64.215-61.02-108.586-77.504c-127.289-46.934-266.895,13.23-311.664,134.02
	c-44.652,120.902,22.527,257.203,149.816,304.195c127.23,46.992,266.781-12.949,311.379-133.793c1.484-3.82,2.395-7.699,3.648-11.52
	c0,0,0.23-0.285,0.23-0.457l182.266-493.527l172.91,500.371c0.684,1.312,1.312,2.566,1.941,3.82c0.91,2.566,1.254,5.363,2.336,8.156
	c38.383,111.379,157.801,173.312,275.965,149.02c20.988,54.633,62.848,133.219,138.465,173.879
	c15.113,7.984,32.336,8.785,47.793,3.707c12.773-4.676,24.293-13.285,31.82-25.605
	C1702.375,1992.227,1693.363,1958.52,1665.875,1943.578z M719.535,1670.75c-23.496,63.59-96.836,95.242-163.676,70.488
	c-67.066-24.75-102.254-96.551-78.812-159.852c23.266-63.418,96.949-95.066,163.785-70.316
	C707.613,1535.879,742.801,1607.562,719.535,1670.75z M1016.086,1067.328c-15.855,0-28.629-12.832-28.629-28.688
	c0-15.484,12.773-28.316,28.629-28.316c15.738,0,28.344,12.832,28.344,28.316C1044.43,1054.496,1031.824,1067.328,1016.086,1067.328
	z M1464.562,1753.844c-67.465,23.266-140.293-9.809-162.25-73.625c-22.184-64.102,14.773-134.93,81.953-158.484
	c67.523-23.039,140.289,9.922,162.305,73.852C1568.695,1659.688,1531.742,1730.574,1464.562,1753.844z"/>
</svg>
