<?xml version="1.0" encoding="utf-8"?>
<!-- Generator: Adobe Illustrator 16.0.4, SVG Export Plug-In . SVG Version: 6.00 Build 0)  -->
<!DOCTYPE svg PUBLIC "-//W3C//DTD SVG 1.1//EN" "http://www.w3.org/Graphics/SVG/1.1/DTD/svg11.dtd">
<svg version="1.1" id="Layer_1" xmlns="http://www.w3.org/2000/svg" xmlns:xlink="http://www.w3.org/1999/xlink" x="0px" y="0px"
	 width="2048px" height="2048px" viewBox="0 0 2048 2048" enable-background="new 0 0 2048 2048" xml:space="preserve">
<path fill="#565656" d="M1545.852,704.315c-8.978-135.339-120.884-242.972-258.476-242.972H260.112
	c-17.959,0-35.415,1.825-52.37,5.272C89.304,490.924,0,595.984,0,721.451v0.068v1027.256v0.065
	c0,143.438,116.681,260.109,260.112,260.109H1307.22c-0.88-0.563-1.819-1.187-2.762-1.759
	c135.392-8.979,243.152-120.825,243.152-258.416V721.451v-19.776C1547.047,702.549,1546.484,703.433,1545.852,704.315z
	 M1418.999,1748.775c0,72.537-59.03,131.505-131.5,131.505H260.112c-72.466,0-131.5-58.968-131.5-131.505V721.519
	c0-18.153,3.708-35.415,10.363-51.181c16.645-39.309,51.934-68.956,94.702-77.683c8.538-1.758,17.392-2.7,26.435-2.7h988.958h38.307
	c72.593,0,131.623,59.034,131.623,131.496v179.861v809.097V1748.775z"/>
</svg>
