<?xml version="1.0" encoding="utf-8"?>
<!-- Generator: Adobe Illustrator 16.0.4, SVG Export Plug-In . SVG Version: 6.00 Build 0)  -->
<!DOCTYPE svg PUBLIC "-//W3C//DTD SVG 1.1//EN" "http://www.w3.org/Graphics/SVG/1.1/DTD/svg11.dtd">
<svg version="1.1" id="Layer_1" xmlns="http://www.w3.org/2000/svg" xmlns:xlink="http://www.w3.org/1999/xlink" x="0px" y="0px"
	 width="2048px" height="2048px" viewBox="0 0 2048 2048" enable-background="new 0 0 2048 2048" xml:space="preserve">
<g>
	<path fill="#1F80B8" d="M854.781,1335.828c-121.277-173.898-308.648-307.805-308.648-307.805l-316.102,54.062
		c0,0,448.844,325.031,677.625,706.406C1261.062,635.246,2048,35.738,2048,35.738l-215.625,86.887
		C1832.375,122.625,1269.203,568.59,854.781,1335.828z"/>
	<path fill="#565656" d="M1415.797,907.188v845.477c0,72.414-58.891,131.18-131.18,131.18H259.535
		c-72.293,0-131.238-58.766-131.238-131.18V727.707c0-72.414,58.945-131.238,131.238-131.238h986.746
		c36.328-44.164,72.039-87.078,106.992-128.297H259.535C116.457,468.172,0,584.629,0,727.707v1024.957
		c0,143.203,116.457,259.594,259.535,259.594h1025.082c143.203,0,259.594-116.391,259.594-259.594V707.914
		C1502.117,771.871,1459.266,838.086,1415.797,907.188z"/>
</g>
</svg>
