<?xml version="1.0" encoding="utf-8"?>
<!-- Generator: Adobe Illustrator 16.0.4, SVG Export Plug-In . SVG Version: 6.00 Build 0)  -->
<!DOCTYPE svg PUBLIC "-//W3C//DTD SVG 1.1//EN" "http://www.w3.org/Graphics/SVG/1.1/DTD/svg11.dtd">
<svg version="1.1" id="Layer_1" xmlns="http://www.w3.org/2000/svg" xmlns:xlink="http://www.w3.org/1999/xlink" x="0px" y="0px"
	 width="2048px" height="2048px" viewBox="0 0 2048 2048" enable-background="new 0 0 2048 2048" xml:space="preserve">
<path fill="#1F80B8" d="M1023,0C646.625,0,340.441,306.18,340.441,682.559c0,234.102,118.523,440.895,298.629,563.902
	c15.898,118.09,32.195,239.055,34.238,254.293c0.824,5.969,2.641,11.547,4.883,16.855c-8.809,12.336-14.086,27.379-14.086,43.707
	c0,18.77,7.094,35.727,18.406,48.984c-11.312,13.195-18.406,30.184-18.406,48.953c0,17.285,6.039,33.02,15.77,45.754
	c-14.879,20.02-20.223,51.457-11.875,85.828c12.965,53.438,54.164,93.945,92.824,93.945c3,0,9.961,0,19.988,0
	c-0.527,4.094-0.988,8.184-0.988,12.371c0,83.355,107.602,150.848,240.371,150.848c0.957,0,1.848-0.098,2.805-0.098
	s1.848,0.098,2.805,0.098c132.77,0,240.371-67.492,240.371-150.848c0-4.188-0.461-8.277-0.988-12.371c10.027,0,16.988,0,19.988,0
	c38.66,0,79.859-40.508,92.824-93.945c8.348-34.371,3.004-65.809-11.875-85.828c9.73-12.734,15.77-28.469,15.77-45.754
	c0-18.77-7.094-35.758-18.406-48.953c11.312-13.258,18.406-30.215,18.406-48.984c0-16.328-5.277-31.371-14.086-43.707
	c2.242-5.309,4.059-10.887,4.883-16.855c2.043-15.238,18.34-136.203,34.238-254.293
	c180.105-123.008,298.629-329.801,298.629-563.902C1705.559,306.18,1399.375,0,1023,0z M1160.785,1904.84
	c-38.199,27.805-86.984,43.113-137.355,43.113s-99.16-15.309-137.355-43.113c-11.316-8.246-13.824-24.082-5.574-35.395
	c8.211-11.215,23.98-13.824,35.395-5.574c59.242,43.078,155.828,43.078,215.07,0c11.312-8.281,27.215-5.676,35.395,5.574
	C1174.605,1880.758,1172.098,1896.594,1160.785,1904.84z M1240.25,1799.645c-9.07,0-198.117,0-323.93,0
	c122.051-26.918,302.719-66.73,337.75-74.449c14.48,5.574,24.805,19.395,24.805,35.82
	C1278.875,1782.359,1261.59,1799.645,1240.25,1799.645z M1259.977,1701.609c-13.098,2.902-444.23,97.938-457.328,100.84
	c-20.848,4.586-41.461-8.578-46.047-29.426c-4.586-20.812,8.574-41.43,29.422-46.047c13.988-3.07,443.34-97.707,457.328-100.809
	c20.848-4.586,41.461,8.578,46.047,29.426S1280.824,1697.023,1259.977,1701.609z M1259.977,1598.891
	c-13.988,3.066-443.34,97.703-457.328,100.805c-20.848,4.586-41.461-8.578-46.047-29.422c-4.586-20.848,8.574-41.434,29.422-46.02
	c13.098-2.902,444.23-97.934,457.328-100.84c20.848-4.582,41.461,8.578,46.047,29.426
	C1293.984,1573.652,1280.824,1594.27,1259.977,1598.891z M959.27,1117.023L822.641,740.746
	c-4.816-13.129-19.43-19.926-32.492-15.074c-2.539,0.922-4.617,2.504-6.664,4.09V556.715c0-13.262,1.914-25.434,5.543-36.387
	c3.695-10.984,9.633-20.516,17.68-28.402c8.113-7.98,18.473-14.051,30.941-18.238c12.469-4.191,27.051-6.27,43.742-6.301
	c16.82,0.031,31.336,2.109,43.738,6.301c12.602,4.188,22.895,10.258,31.008,18.238c8.047,7.887,13.984,17.418,17.68,28.402
	c3.695,10.953,5.543,23.125,5.543,36.387v188.418c0,1.914,0.727,3.496,2.176,4.75c1.52,1.32,3.961,2.406,7.457,3.363
	c3.496,0.926,8.246,1.648,14.117,2.047c5.938,0.492,13.457,0.727,22.695,0.727c0.395,0,0.66,0,1.121,0c0.328,0,0.66,0,1.055,0
	c9.238,0,16.758-0.234,22.629-0.727c5.938-0.398,10.555-1.121,14.117-2.047c3.562-0.957,6.004-2.043,7.457-3.363
	c1.449-1.254,2.176-2.836,2.176-4.75V556.715c0-13.262,1.914-25.434,5.609-36.387c3.629-10.984,9.566-20.516,17.68-28.402
	c8.113-7.98,18.406-14.051,30.941-18.238c12.402-4.191,26.984-6.27,43.738-6.301c16.758,0.031,31.34,2.109,43.742,6.301
	c12.469,4.188,22.828,10.258,30.941,18.238c8.113,7.887,13.984,17.418,17.746,28.402c3.629,10.953,5.41,23.125,5.41,36.387v175.422
	c-2.605-2.738-5.672-5.082-9.434-6.465c-13.098-4.852-27.676,1.945-32.492,15.074L1093.129,1109.5l-17.25,342.336
	c-33.121,0-67.559,0-100.809,0L959.27,1117.023z M1126.777,1528.496c-122.051,26.918-302.719,66.73-337.75,74.449
	c-14.48-5.574-24.805-19.395-24.805-35.824c0-21.34,17.281-38.625,38.625-38.625
	C811.918,1528.496,1000.965,1528.496,1126.777,1528.496z M1274.754,1168.152c0,0-32.922,274.348-33.844,281.012
	c-0.133,0.891,0,1.781-0.102,2.672c-17.086,0-60.727,0-114.297,0l15.535-328.547l133.762-365.129
	c0.758-2.078,0.758-4.188,0.957-6.297c1.121,0.426,1.648,0.988,3.102,1.383c3.562,0.926,8.246,1.648,14.117,2.047
	c5.938,0.492,13.391,0.727,22.695,0.727c8.84,0,16.227-0.234,22.102-0.727c5.871-0.398,10.488-1.121,13.852-2.047
	c3.301-0.957,5.676-2.043,7.125-3.363c1.453-1.254,2.246-2.836,2.246-4.75V549.059c0-17.777-2.906-34.668-8.578-50.664
	c-5.738-16-15.305-29.953-28.766-41.895c-13.391-11.941-31.008-21.441-52.777-28.531c-21.77-7.16-48.621-10.754-80.684-10.754
	c-6.336,0-31.402,0-37.805,0c-32.062,0-58.914,3.594-80.617,10.754c-18.34,5.938-33.516,13.785-45.852,23.121
	c-12.469-9.336-27.578-17.184-45.984-23.121c-21.703-7.16-48.227-11.051-80.289-11.051c-6.332,0-32.262-0.297-37.934-0.266
	c-52.648,0.266-125.348-0.266-153.387,0.266c-6.863,0.129-17.617,3.793-17.484,17.547c0.266,36.188-0.133,114.594-0.133,114.594
	v196.074c0,1.914,0.793,3.496,2.312,4.75c1.449,1.32,3.758,2.406,7.059,3.363c3.363,0.926,8.047,1.648,13.852,2.047
	c5.938,0.492,13.262,0.727,22.102,0.727c9.305,0,16.824-0.234,22.695-0.727c5.871-0.398,10.621-1.121,14.117-2.047
	c0.199-0.066,0.23-0.133,0.43-0.195c0.266,1.715,0.164,3.43,0.793,5.109l133.758,365.129l15.539,328.547
	c-55.746,0-101.598,0-119.18,0c-0.102-0.891,0.031-1.781-0.102-2.672c-0.922-6.664-33.844-281.012-33.844-281.012
	c-175.422-91.309-295.691-274.516-295.691-485.594c0-301.863,245.586-547.445,547.445-547.445s547.445,245.582,547.445,547.445
	C1570.445,893.637,1450.176,1076.844,1274.754,1168.152z"/>
</svg>
