<?xml version="1.0" encoding="utf-8"?>
<!-- Generator: Adobe Illustrator 16.0.4, SVG Export Plug-In . SVG Version: 6.00 Build 0)  -->
<!DOCTYPE svg PUBLIC "-//W3C//DTD SVG 1.1//EN" "http://www.w3.org/Graphics/SVG/1.1/DTD/svg11.dtd">
<svg version="1.1" id="Layer_1" xmlns="http://www.w3.org/2000/svg" xmlns:xlink="http://www.w3.org/1999/xlink" x="0px" y="0px"
	 width="2048px" height="2048px" viewBox="0 0 2048 2048" enable-background="new 0 0 2048 2048" xml:space="preserve">
<g>
	<path fill="#1F80B8" d="M1024,0C647.625,0,341.441,306.18,341.441,682.559c0,234.102,118.523,440.895,298.629,563.902
		c15.898,118.09,32.195,239.055,34.238,254.293c0.824,5.969,2.641,11.547,4.883,16.855c-8.809,12.336-14.086,27.379-14.086,43.707
		c0,18.77,7.094,35.727,18.406,48.984c-11.312,13.195-18.406,30.184-18.406,48.953c0,17.285,6.039,33.02,15.77,45.754
		c-14.879,20.02-20.223,51.457-11.875,85.828c12.965,53.438,54.164,93.945,92.824,93.945c3,0,9.961,0,19.988,0
		c-0.527,4.094-0.988,8.184-0.988,12.371c0,83.355,107.602,150.848,240.371,150.848c0.957,0,1.848-0.098,2.805-0.098
		s1.848,0.098,2.805,0.098c132.77,0,240.371-67.492,240.371-150.848c0-4.188-0.461-8.277-0.988-12.371c10.027,0,16.988,0,19.988,0
		c38.66,0,79.859-40.508,92.824-93.945c8.348-34.371,3.004-65.809-11.875-85.828c9.73-12.734,15.77-28.469,15.77-45.754
		c0-18.77-7.094-35.758-18.406-48.953c11.312-13.258,18.406-30.215,18.406-48.984c0-16.328-5.277-31.371-14.086-43.707
		c2.242-5.309,4.059-10.887,4.883-16.855c2.043-15.238,18.34-136.203,34.238-254.293
		c180.105-123.008,298.629-329.801,298.629-563.902C1706.559,306.18,1400.375,0,1024,0z M1161.785,1904.84
		c-38.199,27.805-86.984,43.113-137.355,43.113s-99.16-15.309-137.355-43.113c-11.316-8.246-13.824-24.082-5.574-35.395
		c8.211-11.215,23.98-13.824,35.395-5.574c59.242,43.078,155.828,43.078,215.07,0c11.312-8.281,27.215-5.676,35.395,5.574
		C1175.605,1880.758,1173.098,1896.594,1161.785,1904.84z M1241.25,1799.645c-9.07,0-198.117,0-323.93,0
		c122.051-26.918,302.719-66.73,337.75-74.449c14.48,5.574,24.805,19.395,24.805,35.82
		C1279.875,1782.359,1262.59,1799.645,1241.25,1799.645z M1260.977,1701.609c-13.098,2.902-444.23,97.938-457.328,100.84
		c-20.848,4.586-41.461-8.578-46.047-29.426c-4.586-20.812,8.574-41.43,29.422-46.047c13.988-3.07,443.34-97.707,457.328-100.809
		c20.848-4.586,41.461,8.578,46.047,29.426S1281.824,1697.023,1260.977,1701.609z M1260.977,1598.891
		c-13.988,3.066-443.34,97.703-457.328,100.805c-20.848,4.586-41.461-8.578-46.047-29.422c-4.586-20.848,8.574-41.434,29.422-46.02
		c13.098-2.902,444.23-97.934,457.328-100.84c20.848-4.582,41.461,8.578,46.047,29.426
		C1294.984,1573.652,1281.824,1594.27,1260.977,1598.891z M765.223,1567.121c0-21.34,17.281-38.625,38.625-38.625
		c9.07,0,198.117,0,323.93,0c-122.051,26.918-302.719,66.73-337.75,74.449C775.547,1597.371,765.223,1583.551,765.223,1567.121z
		 M1275.754,1168.152c0,0-32.922,274.348-33.844,281.012c-0.133,0.891,0,1.781-0.102,2.672c-54.625,0-380.992,0-435.617,0
		c-0.102-0.891,0.031-1.781-0.102-2.672c-0.922-6.664-33.844-281.012-33.844-281.012
		c-175.422-91.309-295.691-274.516-295.691-485.594c0-301.863,245.586-547.445,547.445-547.445s547.445,245.582,547.445,547.445
		C1571.445,893.637,1451.176,1076.844,1275.754,1168.152z"/>
	<path fill="#1F80B8" d="M1288.848,622.719l-373.34-225.363c-21.41-12.93-38.926-3-38.926,21.969v453.797
		c0,25.004,17.516,34.898,38.926,21.969l373.34-225.398C1310.258,656.793,1310.258,635.648,1288.848,622.719z"/>
</g>
</svg>
