<?xml version="1.0" encoding="utf-8"?>
<!-- Generator: Adobe Illustrator 16.0.4, SVG Export Plug-In . SVG Version: 6.00 Build 0)  -->
<!DOCTYPE svg PUBLIC "-//W3C//DTD SVG 1.1//EN" "http://www.w3.org/Graphics/SVG/1.1/DTD/svg11.dtd">
<svg version="1.1" id="Layer_1" xmlns="http://www.w3.org/2000/svg" xmlns:xlink="http://www.w3.org/1999/xlink" x="0px" y="0px"
	 width="2048px" height="2048px" viewBox="0 0 2048 2048" enable-background="new 0 0 2048 2048" xml:space="preserve">
<path fill="#1F80B8" d="M1024,0C647.625,0,341.441,306.18,341.441,682.559c0,234.102,118.523,440.895,298.629,563.902
	c15.898,118.09,32.195,239.055,34.238,254.293c0.824,5.969,2.641,11.547,4.883,16.855c-8.809,12.336-14.086,27.379-14.086,43.707
	c0,18.77,7.094,35.727,18.406,48.984c-11.312,13.195-18.406,30.184-18.406,48.953c0,17.285,6.039,33.02,15.77,45.754
	c-14.879,20.02-20.223,51.457-11.875,85.828c12.965,53.438,54.164,93.945,92.824,93.945c3,0,9.961,0,19.988,0
	c-0.527,4.094-0.988,8.184-0.988,12.371c0,83.355,107.602,150.848,240.371,150.848c0.957,0,1.848-0.098,2.805-0.098
	s1.848,0.098,2.805,0.098c132.77,0,240.371-67.492,240.371-150.848c0-4.188-0.461-8.277-0.988-12.371c10.027,0,16.988,0,19.988,0
	c38.66,0,79.859-40.508,92.824-93.945c8.348-34.371,3.004-65.809-11.875-85.828c9.73-12.734,15.77-28.469,15.77-45.754
	c0-18.77-7.094-35.758-18.406-48.953c11.312-13.258,18.406-30.215,18.406-48.984c0-16.328-5.277-31.371-14.086-43.707
	c2.242-5.309,4.059-10.887,4.883-16.855c2.043-15.238,18.34-136.203,34.238-254.293
	c180.105-123.008,298.629-329.801,298.629-563.902C1706.559,306.18,1400.375,0,1024,0z M1161.785,1904.84
	c-38.199,27.805-86.984,43.113-137.355,43.113s-99.16-15.309-137.355-43.113c-11.316-8.246-13.824-24.082-5.574-35.395
	c8.211-11.215,23.98-13.824,35.395-5.574c59.242,43.078,155.828,43.078,215.07,0c11.312-8.281,27.215-5.676,35.395,5.574
	C1175.605,1880.758,1173.098,1896.594,1161.785,1904.84z M1241.25,1799.645c-9.07,0-198.117,0-323.93,0
	c122.051-26.918,302.719-66.73,337.75-74.449c14.48,5.574,24.805,19.395,24.805,35.82
	C1279.875,1782.359,1262.59,1799.645,1241.25,1799.645z M1260.977,1701.609c-13.098,2.902-444.23,97.938-457.328,100.84
	c-20.848,4.586-41.461-8.578-46.047-29.426c-4.586-20.812,8.574-41.43,29.422-46.047c13.988-3.07,443.34-97.707,457.328-100.809
	c20.848-4.586,41.461,8.578,46.047,29.426S1281.824,1697.023,1260.977,1701.609z M1260.977,1598.891
	c-13.988,3.066-443.34,97.703-457.328,100.805c-20.848,4.586-41.461-8.578-46.047-29.422c-4.586-20.848,8.574-41.434,29.422-46.02
	c13.098-2.902,444.23-97.934,457.328-100.84c20.848-4.582,41.461,8.578,46.047,29.426
	C1294.984,1573.652,1281.824,1594.27,1260.977,1598.891z M952.289,1104.52L817.176,741.766
	c-4.949-13.062-19.398-19.527-32.656-14.777c-1.484,0.562-2.543,1.617-3.859,2.41V556.582c0-13.262,1.879-25.434,5.473-36.387
	c3.73-10.984,9.668-20.516,17.715-28.398c8.148-7.984,18.473-14.055,30.941-18.242c12.438-4.191,27.051-6.27,43.773-6.301
	c16.789,0.031,31.336,2.109,43.738,6.301c12.57,4.188,22.863,10.258,30.977,18.242c8.082,7.883,13.953,17.414,17.68,28.398
	c3.695,10.953,5.508,23.125,5.508,36.387V745c0,1.914,0.762,3.496,2.211,4.75c1.484,1.32,3.961,2.41,7.488,3.363
	c3.496,0.926,8.215,1.652,14.117,2.047c5.875,0.496,13.426,0.727,22.629,0.727c0.43,0,0.695,0,1.156,0c0.363,0,0.625,0,1.055,0
	c9.203,0,16.758-0.23,22.629-0.727c5.938-0.395,10.59-1.121,14.117-2.047c3.531-0.953,6.004-2.043,7.488-3.363
	c1.418-1.254,2.18-2.836,2.18-4.75V556.582c0-13.262,1.879-25.434,5.539-36.387c3.664-10.984,9.602-20.516,17.684-28.398
	c8.113-7.984,18.438-14.055,30.973-18.242c12.402-4.191,26.984-6.27,43.707-6.301c16.758,0.031,31.371,2.109,43.805,6.301
	c12.469,4.188,22.797,10.258,30.941,18.242c8.117,7.883,13.988,17.414,17.684,28.398c3.66,10.953,5.473,23.125,5.473,36.387V729.43
	c-1.316-0.789-2.406-1.879-3.891-2.441c-13.262-4.75-27.707,1.715-32.656,14.777L1095.68,1104.52l-11.973,347.316
	c-39.059,0-80.391,0-119.445,0L952.289,1104.52z M1127.777,1528.496c-122.051,26.918-302.719,66.73-337.75,74.449
	c-14.48-5.574-24.805-19.395-24.805-35.824c0-21.34,17.281-38.625,38.625-38.625
	C812.918,1528.496,1001.965,1528.496,1127.777,1528.496z M1275.754,1168.152c0,0-32.922,274.348-33.844,281.012
	c-0.133,0.891,0,1.781-0.102,2.672c-16.293,0-57.066,0-107.371,0l11.746-341.41l132.043-350.781
	c0.758-2.043,0.793-4.121,0.988-6.199c3.266,0.727,6.93,1.387,11.91,1.715c5.938,0.496,13.426,0.727,22.695,0.727
	c8.84,0,16.227-0.23,22.102-0.727c5.871-0.395,10.488-1.121,13.852-2.047c3.301-0.953,5.676-2.043,7.16-3.363
	c1.449-1.254,2.211-2.836,2.211-4.75V548.93c0-17.781-2.906-34.672-8.547-50.668c-5.77-16-15.336-29.953-28.797-41.895
	c-13.391-11.941-31.039-21.441-52.809-28.531c-21.707-7.16-48.625-10.754-80.688-10.754c-6.266,0-31.367,0-37.734,0
	c-32.062,0-58.914,3.594-80.688,10.754c-18.273,5.938-33.445,13.789-45.816,23.121c-12.469-9.332-27.609-17.184-45.949-23.121
	c-21.738-7.16-48.293-11.051-80.324-11.051c-6.332,0-32.293-0.297-37.934-0.266c-52.613,0.266-125.316-0.262-153.387,0.266
	c-6.863,0.133-17.617,3.793-17.516,17.547c0.297,36.188-0.102,114.598-0.102,114.598V745c0,1.914,0.828,3.496,2.312,4.75
	c1.449,1.32,3.758,2.41,7.09,3.363c3.332,0.926,7.984,1.652,13.855,2.047c5.871,0.496,13.262,0.727,22.066,0.727
	c9.305,0,16.855-0.23,22.695-0.727c4.816-0.328,8.676-0.922,11.875-1.617c0.23,2.047,0.23,4.09,0.988,6.102l132.047,350.781
	l11.742,341.41c-50.27,0-91.043,0-107.336,0c-0.102-0.891,0.031-1.781-0.102-2.672c-0.922-6.664-33.844-281.012-33.844-281.012
	c-175.422-91.309-295.691-274.516-295.691-485.594c0-301.863,245.586-547.445,547.445-547.445s547.445,245.582,547.445,547.445
	C1571.445,893.637,1451.176,1076.844,1275.754,1168.152z"/>
</svg>
