<?xml version="1.0" encoding="utf-8"?>
<!-- Generator: Adobe Illustrator 16.0.4, SVG Export Plug-In . SVG Version: 6.00 Build 0)  -->
<!DOCTYPE svg PUBLIC "-//W3C//DTD SVG 1.1//EN" "http://www.w3.org/Graphics/SVG/1.1/DTD/svg11.dtd">
<svg version="1.1" id="Layer_1" xmlns="http://www.w3.org/2000/svg" xmlns:xlink="http://www.w3.org/1999/xlink" x="0px" y="0px"
	 width="2048px" height="2048px" viewBox="0 0 2048 2048" enable-background="new 0 0 2048 2048" xml:space="preserve">
<g>
	<path d="M1022.914,740.398c-208.227,0-377.07,168.914-377.07,376.914c0,208.281,168.844,377.195,377.07,377.195
		c208.156,0,376.938-168.914,376.938-377.195C1399.852,909.312,1231.07,740.398,1022.914,740.398z"/>
	<path d="M2046.859,398.281h-695.602V227.219H702.555v171.062c0,0-109.273-0.453-128.961,0
		c-59.25,1.039-125.906,23.195-125.906,23.195L0,566.031v1254.742h2046.859h0.07
		C2049.398,1820.773,2046.859,398.281,2046.859,398.281z M1022.914,1668.102c-304.312,0-550.859-246.484-550.859-550.664
		c0-304.211,246.547-550.953,550.859-550.953c304.242,0,550.859,246.742,550.859,550.953
		C1573.773,1421.617,1327.156,1668.102,1022.914,1668.102z"/>
	<polygon points="412.344,282.312 84.914,282.312 84.914,461.43 412.344,350.469 	"/>
</g>
</svg>
