<?xml version="1.0" encoding="utf-8"?>
<!-- Generator: Adobe Illustrator 16.0.4, SVG Export Plug-In . SVG Version: 6.00 Build 0)  -->
<!DOCTYPE svg PUBLIC "-//W3C//DTD SVG 1.1//EN" "http://www.w3.org/Graphics/SVG/1.1/DTD/svg11.dtd">
<svg version="1.1" id="Layer_1" xmlns="http://www.w3.org/2000/svg" xmlns:xlink="http://www.w3.org/1999/xlink" x="0px" y="0px"
	 width="2048px" height="2048px" viewBox="0 0 2048 2048" enable-background="new 0 0 2048 2048" xml:space="preserve">
<g>
	<path fill="#01486D" d="M1024,2047.957c-564.605,0-1024-459.219-1024-1023.855C0,459.438,459.395,0.043,1024,0.043
		c564.664,0,1024,459.395,1024,1024.059C2048,1588.738,1588.664,2047.957,1024,2047.957z M1024,169.312
		c-471.266,0-854.73,383.465-854.73,854.789c0,471.352,383.465,854.645,854.73,854.645c471.324,0,854.789-383.293,854.789-854.645
		C1878.789,552.777,1495.324,169.312,1024,169.312z"/>
	<rect x="999.395" y="344.176" fill="#01486D" width="133.93" height="789.109"/>
	<rect x="531.152" y="999.496" fill="#01486D" width="602.172" height="133.789"/>
</g>
</svg>
