<?xml version="1.0" encoding="utf-8"?>
<!-- Generator: Adobe Illustrator 16.0.4, SVG Export Plug-In . SVG Version: 6.00 Build 0)  -->
<!DOCTYPE svg PUBLIC "-//W3C//DTD SVG 1.1//EN" "http://www.w3.org/Graphics/SVG/1.1/DTD/svg11.dtd">
<svg version="1.1" id="Layer_1" xmlns="http://www.w3.org/2000/svg" xmlns:xlink="http://www.w3.org/1999/xlink" x="0px" y="0px"
	 width="2048px" height="2048px" viewBox="0 0 2048 2048" enable-background="new 0 0 2048 2048" xml:space="preserve">
<g>
	<path fill="#1F80B8" d="M1896.957,217.039h-43.914H150.809c-10.367,0-20.496,1.07-30.305,3.125
		c-49.055,9.973-89.566,43.992-108.637,89.094C4.273,327.336,0,347.156,0,367.965v975.676c0,83.238,67.73,150.887,150.809,150.887
		h241.164v336.43l336.426-336.43h1168.715c83.156,0,150.887-67.648,150.887-150.887V367.887
		C2048,284.73,1980.27,217.039,1896.957,217.039z M589.301,918.656c-58.391,0-105.785-47.395-105.785-105.785
		c0-58.395,47.395-105.707,105.785-105.707c58.395,0,105.707,47.312,105.707,105.707
		C695.008,871.262,647.695,918.656,589.301,918.656z M1024,918.656c-58.391,0-105.707-47.395-105.707-105.785
		c0-58.395,47.316-105.707,105.707-105.707s105.785,47.312,105.785,105.707C1129.785,871.262,1082.391,918.656,1024,918.656z
		 M1458.777,918.656c-58.395,0-105.785-47.395-105.785-105.785c0-58.395,47.391-105.707,105.785-105.707
		c58.391,0,105.707,47.312,105.707,105.707C1564.484,871.262,1517.168,918.656,1458.777,918.656z"/>
</g>
</svg>
