<?xml version="1.0" encoding="utf-8"?>
<!-- Generator: Adobe Illustrator 16.0.4, SVG Export Plug-In . SVG Version: 6.00 Build 0)  -->
<!DOCTYPE svg PUBLIC "-//W3C//DTD SVG 1.1//EN" "http://www.w3.org/Graphics/SVG/1.1/DTD/svg11.dtd">
<svg version="1.1" id="Layer_1" xmlns="http://www.w3.org/2000/svg" xmlns:xlink="http://www.w3.org/1999/xlink" x="0px" y="0px"
	 width="2048px" height="2048px" viewBox="0 0 2048 2048" enable-background="new 0 0 2048 2048" xml:space="preserve">
<g>
	<path fill="#1F80B8" d="M1672.883,883.078H1058.98v388.41h613.902V883.078z M1158.992,1243.297l158.492-334.02h80.082
		L1239,1243.297H1158.992z M1310.094,1243.297h-38.918l158.496-334.02h38.914L1310.094,1243.297z"/>
	<path fill="#1F80B8" d="M2042.195,629.395l-98.996-216.941V183.262H104.754v229.227L5.828,629.395
		c-22.32,81.348,21.379,150.195,98.344,150.195h0.582v1085.148h1838.445V779.59h0.652
		C2020.816,779.59,2064.445,710.742,2042.195,629.395z M216.066,294.578h1615.82v110.988H216.066V294.578z M837.508,636.605
		l18.336-172.082h336.266l18.336,172.082H837.508z M1210.445,668.637v52.035H837.508v-52.035H1210.445z M220.633,464.523h336.195
		L501.75,636.605H128.812L220.633,464.523z M128.812,668.637H501.75v52.035H128.812V668.637z M728.586,1318.742
		c0-29.242,23.695-52.977,52.973-52.977c29.281,0,52.977,23.734,52.977,52.977s-23.695,52.973-52.977,52.973
		C752.281,1371.715,728.586,1347.984,728.586,1318.742z M1831.887,1753.422H885.629V909.277H403.551v844.145H216.066V779.59h1615.82
		V1753.422z M1919.141,720.672h-372.938v-52.035h372.938V720.672z M1546.203,636.605l-55.078-172.082h336.195l91.82,172.082
		H1546.203z"/>
</g>
</svg>
