<?xml version="1.0" encoding="utf-8"?>
<!-- Generator: Adobe Illustrator 16.0.4, SVG Export Plug-In . SVG Version: 6.00 Build 0)  -->
<!DOCTYPE svg PUBLIC "-//W3C//DTD SVG 1.1//EN" "http://www.w3.org/Graphics/SVG/1.1/DTD/svg11.dtd">
<svg version="1.1" id="Layer_1" xmlns="http://www.w3.org/2000/svg" xmlns:xlink="http://www.w3.org/1999/xlink" x="0px" y="0px"
	 width="2048px" height="2048px" viewBox="0 0 2048 2048" enable-background="new 0 0 2048 2048" xml:space="preserve">
<path fill-rule="evenodd" clip-rule="evenodd" fill="#FFFFFF" d="M876.789,552.008c35.543-51.25,30.82-261.051-169.566-314.309
	c-156.816-41.77-175,57.684-175,57.684h-178.66V0h178.66c0,0,6.316,36.93,94.762,36.93c123.984,0,189.168-34.57,189.168-34.57
	l381.497-1.387c0,0,424.684,85.199,496.715,394.691c2.125,8.738-41.562-39.762-53.727-48.207
	c-211.664-143.941-433.129-156.254-517.793,56.738c-32.355,81.625,0,116.52,16.355,159.117
	C1155.551,605.91,1166.535,2048,1166.535,2048H843.843C843.843,2048,833.214,614.68,876.789,552.008z"/>
</svg>
