<?xml version="1.0" encoding="utf-8"?>
<!-- Generator: Adobe Illustrator 16.0.4, SVG Export Plug-In . SVG Version: 6.00 Build 0)  -->
<!DOCTYPE svg PUBLIC "-//W3C//DTD SVG 1.1//EN" "http://www.w3.org/Graphics/SVG/1.1/DTD/svg11.dtd">
<svg version="1.1" id="Layer_1" xmlns="http://www.w3.org/2000/svg" xmlns:xlink="http://www.w3.org/1999/xlink" x="0px" y="0px"
	 width="2048px" height="2048px" viewBox="0 0 2048 2048" enable-background="new 0 0 2048 2048" xml:space="preserve">
<g>
	<path fill="#FFFFFF" d="M1395.898,331.469c91.43,0,165.57-74.211,165.57-165.766C1561.469,74.078,1487.328,0,1395.898,0
		c-91.555,0-165.766,74.078-165.766,165.703C1230.133,257.258,1304.344,331.469,1395.898,331.469z"/>
	<path fill="#FFFFFF" d="M1568.461,368.211l-349.867-0.266c-90.57,0-97.891,35.094-164.055,134.43L885.016,925.531
		c-13.922,20.844-16.492,41.492-11.742,59.5l-51.188,82.32c0,0-97.562-98.547-173.617-98.547l-233.109-0.062
		c-83.25,0-150.07,67.742-150.07,152.305v285.031c0,70.117,102.57,70.117,102.57,0v-254.289h24.281v826.977
		c0,93.734,136.406,90.898,136.406,0v-448.484h23.75v448.484c0,90.898,137.203,93.734,137.203,0v-826.977h23.68l84.766,50.258
		c0,0,38.453,23.617,63.656-15.297c13.453-20.914,57.32-88.789,95.383-147.562c17.672-3.031,35.023-13.195,48.352-33.242
		l180.344-434.898v1329.156c0,132.258,192.805,128.305,192.805,0v-739.25h33.25v739.25c0,128.305,193.734,132.258,193.734,0V626.523
		h33.57v465.234c0,99.672,143.938,99.672,143.672,0V586.086C1782.711,475.992,1697.422,368.211,1568.461,368.211z"/>
	<path fill="#FFFFFF" d="M540.953,942.812c64.641,0,117.211-52.57,117.211-117.414s-52.57-117.344-117.211-117.344
		c-64.914,0-117.414,52.5-117.414,117.344S476.039,942.812,540.953,942.812z"/>
</g>
</svg>
