<?xml version="1.0" encoding="utf-8"?>
<!-- Generator: Adobe Illustrator 16.0.4, SVG Export Plug-In . SVG Version: 6.00 Build 0)  -->
<!DOCTYPE svg PUBLIC "-//W3C//DTD SVG 1.1//EN" "http://www.w3.org/Graphics/SVG/1.1/DTD/svg11.dtd">
<svg version="1.1" id="Layer_1" xmlns="http://www.w3.org/2000/svg" xmlns:xlink="http://www.w3.org/1999/xlink" x="0px" y="0px"
	 width="2048px" height="2048px" viewBox="0 0 2048 2048" enable-background="new 0 0 2048 2048" xml:space="preserve">
<path fill="#FFFFFF" d="M1036.75,78.594c-175.578,0-413.617-159.734-585.125-23.734C290.844,182.57,159.062,423.492,273.461,713.977
	c182.734,464.859,260.586,407.758,248.672,728.625c-11.523,302.891,108.344,612.234,200.305,605.289
	c89.078-6.461-191.367-582.148,301.797-637.266c493.172,55.117,213.117,630.805,301.898,637.266
	c92.258,6.945,211.727-302.398,200.609-605.289c-12.219-320.867,65.641-263.766,248.266-728.625
	c110.633-281.195-11.812-512.531-163.062-646.5C1491.383-38.836,1212.328,78.594,1036.75,78.594z"/>
</svg>
