<?xml version="1.0" encoding="utf-8"?>
<!-- Generator: Adobe Illustrator 16.0.4, SVG Export Plug-In . SVG Version: 6.00 Build 0)  -->
<!DOCTYPE svg PUBLIC "-//W3C//DTD SVG 1.1//EN" "http://www.w3.org/Graphics/SVG/1.1/DTD/svg11.dtd">
<svg version="1.1" id="Layer_1" xmlns="http://www.w3.org/2000/svg" xmlns:xlink="http://www.w3.org/1999/xlink" x="0px" y="0px"
	 width="2048px" height="2048px" viewBox="0 0 2048 2048" enable-background="new 0 0 2048 2048" xml:space="preserve">
<path fill="#FFFFFF" d="M1165.148,205.117c-20.055,30.719-49.883,53.688-84.664,66.578c0.383-28.18,0.758-50.836,1.016-67.531
	c31.602-19.547,53.75-52.93,53.75-92.977C1135.25,49.758,1085.438,0,1024,0S912.68,49.758,912.68,111.188
	c0,40.047,22.219,73.43,53.82,93.102c0.258,16.57,0.633,39.289,1.016,67.406c-34.844-12.891-64.734-35.859-84.727-66.578
	c-155.609,0-813.68-0.188-844.523-0.32c23.992,71.023,157.906,203.086,241.297,236.602c0,0,589.328,112.523,692.523,123.625
	c1.141,73.367,2.414,153.266,3.742,237.039c-18.594-0.633-36.805-1.078-54.453-1.773c-199.531-8.062-310.594-80.664-253.344-130.93
	c65.68-57.625,162.398,40.555,233.164,26.336c100.594-20.242-2.031-90.75-55.273-94.305c-26.852-1.586-45.125,3.867-118.938,4.695
	c-45.695,0.57-89.734,21.328-114.172,49.438c-11.742,13.391-17.578,26.719-17.578,39.922c0,85.992,113.727,131.75,227.711,156.758
	c-33.383,20.438-61.305,48.867-78.25,91.391c-44.109,110.867,96.016,168.18,216.984,224.789
	c-70.445,41.312-123.633,97.352-67.398,192.93c22.969,39.094,55.844,64.289,90.625,87.711
	c-82.375,61.625-154.406,127.75-44.047,226.883c15.422,13.961,32.812,27.672,49.375,42.016c0.133,1.969,0.133,4.188,0.133,6.219
	c-9.203,11.617-17.141,24.055-21.008,38.586c-13.391,50.266-1.148,100.594,23.922,144.57c0.383,24.312,0.766,45.695,0.953,62.516
	c-4.82,7.805-9.648,15.484-14.531,23.289c5.016-3.805,9.836-8.375,14.719-12.688c0.383,23.414,0.578,37.633,0.578,38.648
	c0,16.055,13.07,28.938,29,28.938s28.938-12.883,28.938-28.938c0-1.016,0.258-15.234,0.57-38.648
	c4.891,4.312,9.711,8.758,14.852,12.688c-5.008-7.805-9.836-15.609-14.656-23.414c0.25-16.82,0.508-38.148,1.016-62.391
	c25-43.977,37.25-94.305,23.859-144.57c-3.93-14.531-11.805-26.969-21.07-38.586c0.062-2.031,0.062-4.25,0.195-6.281
	c16.562-14.344,33.953-27.992,49.438-41.953c110.359-99.133,38.266-165.258-44.047-226.883
	c34.719-23.422,67.656-48.617,90.625-87.711c56.234-95.578,3.047-151.68-67.398-192.93
	c120.969-56.609,261.031-113.922,216.922-224.789c-16.945-42.523-44.805-70.953-78.188-91.391
	c113.922-25.008,227.711-70.766,227.711-156.758c0-13.203-5.969-26.531-17.641-39.922c-24.5-28.109-68.414-48.867-114.047-49.438
	c-73.938-0.828-92.148-6.281-119-4.695c-53.18,3.555-155.992,74.062-55.336,94.305c70.828,14.219,167.547-83.961,233.164-26.336
	c57.312,50.266-53.75,122.867-253.344,130.93c-17.523,0.695-35.797,1.141-54.391,1.773c1.328-83.773,2.602-163.672,3.742-237.039
	c103.133-11.102,692.398-123.625,692.398-123.625c83.516-33.516,217.305-165.578,241.422-236.602
	C1978.891,204.93,1320.758,205.117,1165.148,205.117z M828.656,1005.281c-12.375-82.828,80.156-109.734,148.508-119.695
	c1.141,75.391,2.414,152.438,3.617,229.609c-0.891-0.438-1.906-0.883-2.797-1.266
	C926.516,1088.477,835.508,1050.844,828.656,1005.281z M957.422,1361.312c-48.734-58.453-26.398-100.336,25.07-136.703
	c0.891,55.664,1.781,110.555,2.664,164.125C974.812,1379.719,965.234,1370.641,957.422,1361.312z M983,1655.852
	c-49.625-44.68-68.156-85.93-12.562-138.797c5.078-5.016,11.039-8.633,16.438-13.133c0.953,55.211,1.711,108.078,2.602,157.328
	C987.32,1659.406,984.969,1657.695,983,1655.852z M1064.938,1655.852c-1.969,1.781-4.383,3.555-6.414,5.336
	c0.828-49.25,1.648-102.117,2.539-157.266c5.461,4.5,11.359,8.117,16.625,13.133
	C1133.156,1569.922,1114.562,1611.172,1064.938,1655.852z M1090.641,1361.312c-7.875,9.328-17.516,18.406-27.734,27.484
	c0.82-53.633,1.711-108.523,2.602-164.188C1117.039,1260.977,1139.375,1302.859,1090.641,1361.312z M1069.945,1113.93
	c-0.82,0.383-1.836,0.891-2.789,1.266c1.266-77.172,2.539-154.219,3.68-229.609c68.289,9.961,160.945,36.867,148.383,119.695
	C1212.492,1050.844,1121.352,1088.477,1069.945,1113.93z"/>
</svg>
