<?xml version="1.0" encoding="utf-8"?>
<!-- Generator: Adobe Illustrator 16.0.4, SVG Export Plug-In . SVG Version: 6.00 Build 0)  -->
<!DOCTYPE svg PUBLIC "-//W3C//DTD SVG 1.1//EN" "http://www.w3.org/Graphics/SVG/1.1/DTD/svg11.dtd">
<svg version="1.1" id="Layer_1" xmlns="http://www.w3.org/2000/svg" xmlns:xlink="http://www.w3.org/1999/xlink" x="0px" y="0px"
	 width="2048px" height="2048px" viewBox="0 0 2048 2048" enable-background="new 0 0 2048 2048" xml:space="preserve">
<g>
	<path fill="#1F80B8" d="M2039.648,786.82c-13.754-32.531-42.941-57.074-78.305-64.266c-7.102-1.465-14.391-2.23-21.871-2.23H711.93
		h-31.676c-60.062,0-108.926,48.797-108.926,108.77v703.664c0,60.004,48.863,108.77,108.832,108.77h842.801l242.617,242.617
		v-242.617h173.895c59.906,0,108.77-48.766,108.77-108.77V829.156C2048.242,814.133,2045.121,799.84,2039.648,786.82z
		 M996.246,1226.254c-42.113,0-76.238-34.156-76.238-76.27s34.125-76.234,76.238-76.234s76.301,34.121,76.301,76.234
		S1038.359,1226.254,996.246,1226.254z M1309.785,1226.254c-42.113,0-76.301-34.156-76.301-76.27s34.188-76.234,76.301-76.234
		s76.234,34.121,76.234,76.234S1351.898,1226.254,1309.785,1226.254z M1623.262,1226.254c-42.113,0-76.238-34.156-76.238-76.27
		s34.125-76.234,76.238-76.234s76.297,34.121,76.297,76.234S1665.375,1226.254,1623.262,1226.254z"/>
	<path fill="#1F80B8" d="M1113.098,164.645h-25.719H88.701c-6.049,0-12.033,0.637-17.762,1.846
		c-28.775,5.857-52.555,25.816-63.727,52.268c-4.457,10.6-6.971,22.219-6.971,34.441V825.59c0,48.832,39.756,88.492,88.459,88.492
		h141.49v197.387l197.387-197.387h78.559v-84.988c0-95.91,78.117-173.961,174.117-173.961h31.676h489.789V253.137
		C1201.719,204.371,1161.992,164.645,1113.098,164.645z M345.963,576.258c-34.252,0-62.072-27.789-62.072-62.039
		c0-34.285,27.82-62.043,62.072-62.043c34.25,0,62.006,27.758,62.006,62.043C407.969,548.469,380.213,576.258,345.963,576.258z
		 M600.996,576.258c-34.25,0-62.008-27.789-62.008-62.039c0-34.285,27.758-62.043,62.008-62.043s62.07,27.758,62.07,62.043
		C663.066,548.469,635.246,576.258,600.996,576.258z M856.059,576.258c-34.281,0-62.07-27.789-62.07-62.039
		c0-34.285,27.789-62.043,62.07-62.043c34.254,0,62.008,27.758,62.008,62.043C918.066,548.469,890.312,576.258,856.059,576.258z"/>
</g>
</svg>
