<?xml version="1.0" encoding="utf-8"?>
<!-- Generator: Adobe Illustrator 16.0.4, SVG Export Plug-In . SVG Version: 6.00 Build 0)  -->
<!DOCTYPE svg PUBLIC "-//W3C//DTD SVG 1.1//EN" "http://www.w3.org/Graphics/SVG/1.1/DTD/svg11.dtd">
<svg version="1.1" id="Layer_1" xmlns="http://www.w3.org/2000/svg" xmlns:xlink="http://www.w3.org/1999/xlink" x="0px" y="0px"
	 width="2048px" height="2048px" viewBox="0 0 2048 2048" enable-background="new 0 0 2048 2048" xml:space="preserve">
<path fill="#3C5A99" d="M0-0.016v2048.031h2048V-0.016H0z M1329.266,596.258c-57,0-118.523,0-147.727,0
	c-29.211,0-58.812,30.312-58.812,52.797c0,22.43,0,150.578,0,150.578s182.5,0,206.281,0
	c-8.273,115.414-25.461,221.008-25.461,221.008h-181.852v654.5h-271v-654.5H718.734V800.469h131.961c0,0,0-147.211,0-180.102
	c0-32.961-6.719-253.391,277.719-253.391c38.125,0,124.727,0,200.852,0C1329.266,462.688,1329.266,566.273,1329.266,596.258z"/>
</svg>
