<?xml version="1.0" encoding="utf-8"?>
<!-- Generator: Adobe Illustrator 16.0.4, SVG Export Plug-In . SVG Version: 6.00 Build 0)  -->
<!DOCTYPE svg PUBLIC "-//W3C//DTD SVG 1.1//EN" "http://www.w3.org/Graphics/SVG/1.1/DTD/svg11.dtd">
<svg version="1.1" id="Layer_1" xmlns="http://www.w3.org/2000/svg" xmlns:xlink="http://www.w3.org/1999/xlink" x="0px" y="0px"
	 width="2048px" height="2048px" viewBox="0 0 2048 2048" enable-background="new 0 0 2048 2048" xml:space="preserve">
<path id="Facebook_5_" fill="#3C5A99" d="M752.766,396.68c0,51.5,0,281.961,0,281.961H546.078v344.68h206.688V2048h424.305V1023.32
	h284.586c0,0,26.906-165.312,39.859-346c-37.133,0-322.93,0-322.93,0s0-200.617,0-235.719c0-35.203,46.336-82.656,92.062-82.656
	s142.039,0,231.273,0c0-46.938,0-209.109,0-358.945c-119.18,0-254.641,0-314.438,0C742.148,0,752.766,345.086,752.766,396.68z"/>
</svg>
