<?xml version="1.0" encoding="utf-8"?>
<!-- Generator: Adobe Illustrator 16.0.4, SVG Export Plug-In . SVG Version: 6.00 Build 0)  -->
<!DOCTYPE svg PUBLIC "-//W3C//DTD SVG 1.1//EN" "http://www.w3.org/Graphics/SVG/1.1/DTD/svg11.dtd">
<svg version="1.1" id="Layer_1" xmlns="http://www.w3.org/2000/svg" xmlns:xlink="http://www.w3.org/1999/xlink" x="0px" y="0px"
	 width="2048px" height="2048px" viewBox="0 0 2048 2048" enable-background="new 0 0 2048 2048" xml:space="preserve">
<g>
	<path fill="#FFFFFF" d="M2048,967.844h-48.793V789.277c0-13.246-10.828-24.133-24.219-24.133h-81.977
		c-13.043,0-24.105,10.887-24.105,24.133v469.184c0,13.332,11.062,24.223,24.105,24.223h81.977
		c13.391,0,24.219-10.891,24.219-24.223v-178.422H2048V967.844z"/>
	<path fill="#FFFFFF" d="M1786.812,649.516h-81.859c-13.273,0-24.105,10.945-24.105,24.277v700.414
		c0,13.219,10.832,24.105,24.105,24.105h81.859c13.277,0,24.453-10.887,24.453-24.105V673.793
		C1811.266,660.461,1800.09,649.516,1786.812,649.516z"/>
	<path fill="#FFFFFF" d="M1598.871,534.059h-81.859c-13.391,0-24.105,10.773-24.105,24.047v409.738H555.09V558.105
		c0-13.273-11.004-24.047-24.102-24.047h-82.152c-13.277,0-24.047,10.773-24.047,24.047v931.559
		c0,13.504,10.77,24.277,24.047,24.277h82.152c13.098,0,24.102-10.773,24.102-24.277v-409.625h937.816v409.625
		c0,13.504,10.715,24.277,24.105,24.277h81.859c13.273,0,24.105-10.773,24.105-24.277V558.105
		C1622.977,544.832,1612.145,534.059,1598.871,534.059z"/>
	<path fill="#FFFFFF" d="M154.754,765.145H72.895c-13.391,0-24.223,10.887-24.223,24.133v178.566H0v112.195h48.672v178.422
		c0,13.332,10.832,24.223,24.223,24.223h81.859c13.215,0,24.047-10.891,24.047-24.223V789.277
		C178.801,776.031,167.969,765.145,154.754,765.145z"/>
	<path fill="#FFFFFF" d="M342.637,649.516h-81.801c-13.332,0-24.105,10.945-24.105,24.277v700.414
		c0,13.219,10.773,24.105,24.105,24.105h81.801c13.391,0,24.164-10.887,24.164-24.105V673.793
		C366.801,660.461,356.027,649.516,342.637,649.516z"/>
</g>
</svg>
