<?xml version="1.0" encoding="utf-8"?>
<!-- Generator: Adobe Illustrator 16.0.4, SVG Export Plug-In . SVG Version: 6.00 Build 0)  -->
<!DOCTYPE svg PUBLIC "-//W3C//DTD SVG 1.1//EN" "http://www.w3.org/Graphics/SVG/1.1/DTD/svg11.dtd">
<svg version="1.1" id="Layer_1" xmlns="http://www.w3.org/2000/svg" xmlns:xlink="http://www.w3.org/1999/xlink" x="0px" y="0px"
	 width="2048px" height="2048px" viewBox="0 0 2048 2048" enable-background="new 0 0 2048 2048" xml:space="preserve">
<g>
	<path fill="#FFFFFF" d="M1983.289,605.633L2048,540.75l-118.688-118.789l-64.992,64.992H183.672l-65.055-64.992L0,540.75
		l65.055,64.992v1149.789L0,1820.594l118.617,118.82l65.055-65.055H1864.32l64.992,65.055L2048,1820.594l-64.711-65.062V605.633z
		 M1875.617,1755.531l-11.297,11.227H183.672l-11.078-11.227V605.742l11.078-11.188H1864.32l11.297,11.188V1755.531z"/>
	<path fill="#FFFFFF" d="M269.312,1662.461h1509.641V698.68H269.312V1662.461z M1560.719,839.461
		c61.828,0,111.945,50.125,111.945,111.945c0,61.852-50.117,111.969-111.945,111.969c-61.953,0-112.078-50.117-112.078-111.969
		C1448.641,889.586,1498.766,839.461,1560.719,839.461z M340.984,1489.312c26.641-15.07,55.828-40.336,79.789-83.508
		c59.961-108.016,136.031-292.031,312-262.016c175.891,30.016,331.828,371.891,658.039,340.016c0,0-138.102-22.094-186.289-90.117
		c0,0,42.273-121.852,228.148-117.859c144.57,3.172,172.383,149.805,274.688,217.688V1591H340.984V1489.312z"/>
	<polygon fill="#FFFFFF" points="1024.047,173.5 1459.523,452.32 1560.719,452.32 1024.047,108.586 487.414,452.32 588.75,452.32 	
		"/>
</g>
</svg>
