<?xml version="1.0" encoding="utf-8"?>
<!-- Generator: Adobe Illustrator 16.0.4, SVG Export Plug-In . SVG Version: 6.00 Build 0)  -->
<!DOCTYPE svg PUBLIC "-//W3C//DTD SVG 1.1//EN" "http://www.w3.org/Graphics/SVG/1.1/DTD/svg11.dtd">
<svg version="1.1" id="Layer_1" xmlns="http://www.w3.org/2000/svg" xmlns:xlink="http://www.w3.org/1999/xlink" x="0px" y="0px"
	 width="2048px" height="2048px" viewBox="0 0 2048 2048" enable-background="new 0 0 2048 2048" xml:space="preserve">
<g>
	<path fill-rule="evenodd" clip-rule="evenodd" fill="#2B6CA6" d="M1024.078,0C459.344,0,0,459.344,0,1024.078
		C0,1588.75,459.344,2048,1024.078,2048C1588.75,2048,2048,1588.75,2048,1024.078C2048,459.344,1588.75,0,1024.078,0z
		 M1413.43,746.164c-3.523,1.867-7.461,3.211-10.156,5.805c-7.25,7.25-14.094,15.234-21.141,22.898c0,0,0,0,0.211,0l-0.211,0.102
		c4.977,1.664,9.953,3.422,14.922,5.078c-0.203,1.141-0.203,2.18-0.414,3.219h-37.508l-0.414-3.109
		c7.875-1.766,15.539-3.523,23.414-5.188c0-0.102,0-0.102,0-0.102c-3.312-2.172-6.633-4.352-10.773-6.938
		c7.25-12.125,23.828-17.617,19.891-35.336c-4.352,0.727-8.078,1.344-12.43,2.07c-3.938-13.266,4.141-14.508,13.055-15.75
		c8.914-1.344,19.898,1.344,24.664-13.266c-7.461,1.453-13.266,2.594-18.859,3.625c-0.828-1.445-1.656-2.898-2.492-4.555
		c7.047-4.25,14.719-12.852,20.938-11.812c7.461,1.344,13.469,10.773,22.586,18.859c0-6.844,0.211-11.297-0.203-15.648
		c-0.422-4.867-1.453-9.633-2.906-18.031c16.164,10.883,26.32,1.867,35.852-7.148c0.828,8.5,2.078,15.023,1.867,21.453
		c0,3.625-1.656,8.492-4.352,10.461c-11.609,8.703-10.359,20.102-7.25,31.5c2.07,6.945,6.211,13.055,15.328,7.773
		c1.664-0.828,4.359-1.344,6.016-0.727c15.336,5.703,20.102,3.211,19.273-13.156c-0.414-10.781-3.938-21.352-6.016-32.023
		c-0.828-4.766-1.445-9.43-2.273-14.609c15.336,4.875,29.633,7.773,42.484,13.992c18.023,8.703,35.227,19.273,52.016,30.359
		c2.281,1.555,1.453,13.57-1.656,15.75c-5.805,4.25-12.852,10.469-22.594,5.078c-2.484-1.453-8.703,3.938-13.469,6.008
		c2.07,3.836,2.898,9.117,5.805,11.195c7.25,4.766,15.336,8.289,23.414,11.602c8.703,3.422,12.438-1.344,14.719-9.531
		c1.445-4.977,5.18-9.742,8.703-13.781c9.531-10.781,17.406-21.453,9.945-34.609c7.875-0.938,15.336-1.969,23.008-2.484
		c3.102-0.211,6.625,0,8.906,1.547c6.43,4.359,13.055,8.812,18.031,14.719c5.18,6.422,7.875,15.336,13.266,21.656
		c4.969,5.594,12.43,8.805,18.648,13.055c2.695-4.141,5.594-8.289,8.289-12.539c6.844-11.086,9.742-21.141-5.383-28.594
		c-2.078-1.039-3.523-8.297-2.078-10.68c4.352-7.047,9.742-13.672,16.164-18.859c1.453-1.133,10.156,3.523,12.438,7.359
		c4.562,7.258,5.594,16.891,10.773,23.523c8.086,10.57,14.094,24.352,29.641,27.461c3.727,0.828,7.25,3.414,10.984,4.766
		c3.312,1.141,7.25,3.109,10.359,2.383c17.406-3.938,34.812-8.602,55.75-13.992c3.109,11.609,7.25,22.594,8.492,33.883
		c1.453,13.68,1.039,27.773-0.203,41.555c-0.211,4.453-4.766,11.812-8.086,12.227c-27.148,3.625-54.297,7.672-81.648,7.977
		c-19.273,0.312-38.758-6.008-58.234-7.148c-23.422-1.656-23.625-0.727-26.945,22.18c-1.242,8.906-6.422,10.984-14.297,11.602
		c-20.93,1.555-37.719-8.188-52.438-20.828c-13.258-10.984-27.148-14.508-43.516-13.984c-7.047,0.203-14.508-1.867-21.141-4.352
		c-7.664-3.008-9.742-9.227-9.117-17.93c0.828-13.781,0-27.773-1.453-41.555c-1.656-14.609-16.578-20.305-30.047-9.32
		c-13.055,10.461-25.906,6.523-39.375,6.422s-26.945,1.453-40.617,2.07c-4.977,0.312-10.156,0.109-15.133,0.109
		c1.656-3.836,4.148-7.359,4.977-11.398C1414.258,754.562,1413.43,750.312,1413.43,746.164z M1734.648,627
		c0.414-8.289-0.414-16.992,1.656-24.867c1.453-5.281,6.633-10.672,11.398-13.57c1.664-1.039,9.125,4.969,11.609,9.32
		c7.047,12.023,18.648,15.336,31.5,10.156c6.219-2.586,15.539-3.109,21.344-0.102c14.305,7.664,28.188,17.094,40.828,27.461
		c3.938,3.312,5.805,12.43,4.562,18.133c-0.836,3.211-9.539,6.633-14.719,6.422c-8.289-0.203-17.203-1.969-25.078-5.391
		c-13.883-6.109-25.898-1.445-36.266,6.43c-11.602,8.906-23.625,10.984-36.055,5.078c-13.062-6.219-10.156-19.383-10.367-30.781
		c0-2.688,0-5.594,0-8.289C1735.062,627,1734.859,627,1734.648,627z M1779.625,583.07c4.352-4.047,8.289-8.812,13.469-11.508
		c1.031-0.617,6.008,5.492,11.602,10.984c-6.219,4.664-10.359,10.156-13.469,9.641
		C1786.875,591.562,1783.562,586.281,1779.625,583.07z M1630.82,707.203c-9.117-4.453-18.234-8.078-26.523-13.156
		c-4.148-2.492-9.945-7.672-9.328-11.086c0.414-4.352,6.219-7.984,12.023-14.305c3.312,9.953,5.383,16.273,8.289,24.25
		c1.867-5.078,3.312-8.914,4.969-13.578C1632.062,685.547,1636.008,693.633,1630.82,707.203z M1577.352,673.633
		c-3.312-0.102-7.039,0.727-9.734-0.516c-16.164-7.461-25.078-19.797-23.625-31.922c10.148,7.57,20.516,14.82,30.258,23.008
		C1576.523,665.859,1576.32,670.422,1577.352,673.633z M1918.266,1039.305c-1.656-6.523-5.391-12.641-7.461-19.062
		c-6.219-19.586-10.773-39.789-18.648-58.648c-7.258-17.617-18.445-33.68-27.562-50.461c-3.734-6.742-6.633-13.891-9.953-20.727
		c1.039-1.352,2.07-2.695,3.109-3.938c5.805,3.625,13.469,6.008,16.992,11.297c12.227,16.992,23.625,34.711,33.781,52.945
		c10.781,19.07,20.516,38.859,29.219,59.172c5.602,13.156,9.125,27.25,12.852,41.234c-0.414,15.961-1.242,31.812-2.484,47.562
		C1930.906,1082.203,1924.07,1061.172,1918.266,1039.305z M218.742,1424.414c10.672,20.93,10.047,43.102,3.727,65.07
		c-44.141-75.641-77.508-157.914-98.852-245.164c13.469,10.57,21.969,24.867,30.047,39.789
		c12.227,22.383,29.43,39.586,51.812,52.016c7.461,4.352,13.68,10.984,20.312,16.789v-0.211c0.203,0,0.203,0,0.414,0
		c3.312-7.25,6.836-14.5,12.016-25.484c3.836,8.289,6.633,14.297,9.328,20.305c-7.047,1.867-14.195,3.523-21.344,5.18
		c-0.109,0.211-0.211,0.211-0.211,0.414c0-0.203-0.102-0.203-0.102-0.203c-2.383,9.531-2.797,20.312-7.359,28.805
		C210.656,1396.641,211.07,1409.281,218.742,1424.414z M711.352,1896.711c1.242-4.555,3.523-8.492,8.703-12.016
		c9.742-6.844,7.461-18.445,3.109-27.984c-6.844-15.125-3.109-24.453,12.844-28.391c13.266-3.109,26.945-4.969,39.797-9.531
		c6.32-1.867,13.984-7.461,15.953-13.266c5.078-13.883,7.258-28.805,10.156-43.516c0.727-3.523,0.625-7.461,0-11.195
		c-4.25-23.828,2.594-41.656,22.172-58.023c11.508-9.531,17-26.945,23.422-41.453c3.625-8.703-9.117-26.727-18.656-31.289
		c-15.125-7.461-29.633-16.164-44.969-23.211c-10.156-4.766-21.031-9.117-32.125-10.984c-25.594-3.938-50.875-8.5-75.117-18.648
		c-14.406-6.016-30.156-9.125-45.078-13.68c-10.883-3.32-21.656-6.633-32.328-10.359c-1.867-0.625-4.562-3.734-4.352-4.773
		c7.25-20.719-13.055-28.391-20.414-42.07c-3.625-6.836-11.609-11.602-17.203-17.609c-15.648-16.789-36.68-22.797-58.133-24.875
		c-20.102-1.859-34.609-10.773-46.836-25.484c-1.859-2.492-3.938-6.43-6.422-6.844c-22.172-4.555-31.188-21.758-39.273-40.203
		c-0.727,1.242-1.555,2.484-2.281,3.734c-4.766-1.664-9.43-3.523-14.398-4.977c-3.938-1.039-8.289-2.695-12.023-2.07
		c-19.273,3.727-36.266-2.695-53.156-10.781c-10.258-4.969-20.516-10.57-31.398-13.469c-6.422-1.656-14.094,2.281-21.547,3.523
		c0.617-3.727,1.445-7.664,2.273-11.398c-1.031,0.625-2.07,1.039-3.109,1.453c-4.352-5.18-9.531-10.156-13.055-15.961
		c-8.391-13.469-22.273-18.648-38.859-13.68c-10.461,3.109-26.422-8.906-33.055-24.242c-6.836-15.961-9.734-32.125-10.148-49.531
		c-0.211-11.195-4.977-23.422-10.984-33.367c-3.211-4.977-13.266-7.25-20.625-8.078c-16.891-2.078-19.375-3.109-18.133-20.312
		c1.453-19.688-3.312-39.586,6.844-58.492c4.039-7.562-1.25-14.195-9.742-16.891c-7.047-2.18-16.789,0.414-22.695,5.391
		c-2.797-29.125-4.453-58.445-4.453-88.078c0-17.719,1.656-35.023,2.695-52.438c7.461,4.766,12.227,4.664,18.031-2.172
		c8.805-10.367,22.586-10.672,32.328-1.242c2.898,2.797,5.594,6.422,9.117,8.18c18.961,9.125,16.992,10.883,19.062,31.297
		c1.766,17.617,11.094,34.508,17.828,51.289c0.828,1.969,7.25,3.633,9.734,2.594c2.492-1.141,4.977-5.906,4.766-8.914
		c-0.617-15.75,0.727-32.117-3.727-46.836c-12.227-40.93,8.703-70.875,41.445-84.031c26.008-10.469,40-25.594,39.172-54.609
		c-0.312-14.922,4.352-29.531,21.141-35.961c2.898-1.133,6.008-5.07,6.734-8.289c4.867-19.992,20-25.695,37.508-26.836
		c10.672-0.828,16.688-4.141,20-14.922c5.594-17.406,19.688-27.352,36.477-30.875c6.836-1.453,18.023,2.898,22.273,8.602
		c7.773,10.359,12.336,7.664,21.141,1.758c9.945-6.633,21.758-10.672,33.055-15.125c16.375-6.43,33.055-12.125,49.734-18.242
		c-4.555-10.461-7.562-17.195-12.016-27.352c-6.836,8.289-12.227,15.023-20.102,24.656c-7.258-2.898-20.312-4.555-27.148-11.812
		c-6.734-7.461-7.148-20.719-10.57-31.914c3.727-1.344,6.945-1.656,8.703-3.312c3.109-2.898,5.391-6.836,8.086-10.359
		c-3.523-2.383-6.844-4.977-10.469-7.258c-4.25-2.797-8.805-5.391-13.156-7.977c4.969-2.281,9.844-5.078,15.023-6.531
		c3.414-1.031,7.562-1.031,10.984,0c25.383,8.086,50.148-0.727,75.125-1.758c8.078-0.312,10.148,0,8.703,9.43
		c-2.383,16.367-13.477,25.594-25.703,37.508c12.023,4.453,22.797,8.289,33.578,12.227c6.109,2.383,12.125,5.18,18.445,7.047
		c3.312,1.141,7.562,2.281,10.562,1.141c7.047-2.695,11.508-1.344,16.891,4.039c2.805,2.695,11.922,3.625,13.992,1.352
		c2.797-3.008,2.07-9.742,2.07-14.922c-0.102-5.391-3.109-11.5-1.242-15.961c5.492-13.57-3.312-18.961-12.328-23.727
		c-17.516-9.117-16.062-9.117-9.641-27.773c4.562-13.055,3.938-28.18,3.734-42.172c-0.109-3.523-7.984-6.945-13.477-11.188
		c4.977-15.75-8.492-21.867-20.203-25.805c-16.891-5.695-16.891-17.406-17.922-31.602c-1.141-18.031-3.938-36.266-7.984-53.984
		c-3-12.539-16.477-13.477-25.797-3.633c-4.875,5.18-11.086,10.258-17.617,12.336c-5.391,1.656-12.438-0.625-18.133-2.906
		c-1.141-0.414,0.727-8.906,1.758-13.57c2.281-10.469,8.086-20.414-3.109-30.359c-5.18-4.562,3.523-23.836,10.883-25.18
		c3.008-0.414,7.148,1.859,10.055,3.938c5.383,4.039,9.531,9.844,15.125,13.055c15.547,8.289,18.344,6.633,21.758-10.055
		c24.25-0.93,29.531-5.594,36.164-33.367c1.766-7.461,2.797-13.258,13.367-10.148c6.633,1.969,40.625-21.555,42.898-28.703
		c0.828-2.594,0.414-7.047-1.242-8.703c-9.531-9.227-19.688-17.93-30.359-27.461c2.07-3.422,5.805-8.5,8.5-14.094
		c10.562-21.656-0.312-38.445-12.953-54.812c-3.32-4.25-4.562-10.258-8.188-13.992c-5.18-5.281-11.398-9.633-17.516-14.406
		c61.555-33.359,127.664-58.953,196.57-77.711c4.867,2.797,4.664,8.289,2.695,13.984c-5.906,16.688-13.781,31.922-25.18,46.633
		c-9.641,12.852-13.367,30.773-24.148,44.242c10.266,22.492-10.047,32.75-19.375,47.148c-7.875,12.227-14.922,23.109-7.461,39.273
		c4.039,8.805-0.312,21.039,1.766,31.188c2.383,11.812,7.875,22.906,11.703,34.508c1.039,3.422,1.039,7.359,1.664,11.812
		c4.141,2.695,9.945,7.672,16.578,10.672c9.328,4.148,19.273,9.531,29.016,9.641c14.398,0.102,27.148-0.312,35.641,14.297
		c1.242,2.484,7.977,3.938,11.398,2.898c15.547-4.656,30.57-9.008,33.781-30.148c2.484-15.438,8.805-31.914,18.031-44.352
		c10.773-14.406,12.641-30.773,19.273-46.008c2.898-6.734,14.711-9.633,22.586-14.195c15.336-9.016,30.984-17.617,45.906-27.352
		c3.211-1.969,4.766-7.773,5.391-12.125c1.969-13.477,10.258-19.797,21.859-25.703c21.141-10.875,42.281-22.688,51.398-47.352
		c5.391-14.609,4.969-29.742-5.594-37.617c-6.219-4.555-15.445-4.867-23.523-7.039c1.555-6.844,3.938-15.961,5.383-25.078
		c1.352-8.188,1.141-16.273-10.047-17.617c-0.828-0.211-2.383-0.727-2.484-1.039c0-1.031-0.625-1.758-0.828-2.688
		c9.32-0.312,18.438-1.453,27.977-1.453c135.477,0,263.969,29.844,380.023,82.375c-8.703,3.938-15.125,12.023-20.102,21.344
		c-5.391,9.742-4.977,22.492-10.359,31.922c-8.703,14.812-6.844,30.148-7.047,45.695c-0.211,6.633-2.906,13.055-4.148,19.789
		c-2.898,14.297-14.297,21.555-24.453,30.156c-15.961,13.984-16.992,26.32-5.18,44.453c6.219,9.844,11.188,20.617,17.406,30.562
		c7.875,12.539,33.57,13.891,43.523,2.797c11.602-13.156,14.711-13.359,27.352-1.344c8.703,8.188,17.617,16.266,24.867,25.594
		c2.492,3.109,0.422,10.055,0,15.133c-0.203,4.656-1.031,9.43-1.656,13.984c5.18,0,11.195,1.766,15.133-0.203
		c8.906-4.664,16.578-11.812,25.281-16.789c9.945-5.805,10.773-14.711,9.117-23.836c-2.484-15.953,0-30.359,9.945-42.07
		c5.391-1.031,10.781-1.445,15.336-3.312c9.953-4.148,13.891-0.828,13.891,9.328c0.203,9.734,0.617,19.273,0.828,28.906
		c0,8.289,0.828,15.648,10.773,18.547c1.453,0.312,1.453,5.703,2.281,8.812c-4.148,0.516-9.945,3.109-11.812,1.344
		c-8.086-7.148-14.508-15.438-22.383-23.938c-5.391,6.219-2.484,12.852,1.242,19.797c2.906,4.969,5.391,9.945,8.086,15.023
		c-6.008,0.828-12.227,1.758-18.242,2.586c-2.273,0.211-4.352,0.414-7.25,0.625c-0.414,4.664-0.211,8.914-1.242,12.742
		c-2.07,7.258-5.805,11.094-14.305,7.156c-4.555-2.078-11.812-3.938-15.328-1.766c-8.5,5.281-14.922,3.008-23.211-0.516
		c-17.617-7.875-19.695-13.055-9.328-30.57c-2.07-2.484-4.977-4.766-6.844-7.664c-11.188-17.102-10.773-16.891-27.352-5.805
		c-6.633,4.555-7.047,8.805-3.109,14.922c6.422,9.945,12.852,19.688,19.062,29.945c3.938,6.633,1.25,10.359-5.797,13.68
		c-10.984,5.383-21.766,11.812-31.914,18.859c-4.562,3-6.633,9.32-10.781,13.258c-6.219,6.016-12.227,12.953-19.688,16.375
		c-8.078,3.625-12.016-3.109-11.398-10.672c1.039-12.75-6.633-17.305-16.578-21.453c-5.594-2.484-10.773-6.523-15.336-10.773
		c-10.984-10.258-21.758-20.516-31.289-31.914c-5.391-6.219-7.672-14.719-11.609-22.07c-2.07-3.836-4.562-7.461-7.664-10.781
		c-2.281-2.586-7.258-4.141-8.086-7.047c-2.695-10.984-11.398-10.57-18.648-8.703c-4.977,1.352-11.609,6.734-12.648,11.5
		c-2.07,8.289-2.688,18.242,0.211,26.117c5.805,15.953,4.148,19.891-13.055,20c-9.117,0-14.922,4.453-22.594,9.219
		c-15.953,9.742-21.758,18.648-11.188,34.922c0.625,0.93,0,2.797,0,4.141c-3.312,18.547,4.141,25.703,22.797,19.688
		c10.984-3.523,20.93-10.047,31.703-14.812c8.5-3.836,6.844-9.844,4.148-16.062c-4.148-9.227-1.242-23.109,6.219-25.695
		c10.984-4.148,19.477,2.273,24.453,10.461c1.656,2.906-5.18,10.781-8.703,16.062c-2.07,5.594-5.391,10.984-6.008,16.68
		c-0.625,5.492,1.859,11.195,2.898,16.789c1.453,0,2.695,0,4.141,0c-3.727,5.492-7.453,10.883-13.469,19.898
		c8.5,0,14.305,0.828,19.688-0.109c23.422-4.453,46.633-9.531,70.047-14.086c2.492-0.414,5.18,0.516,8.086,0.93
		c-14.922,22.898-17.406,24.141-34.406,21.969c-8.492,3.109-16.992,6.633-25.695,9.219c-8.078,2.383-15.336,5.078-14.922,15.023
		c0.414,10.258,7.672,10.68,15.75,11.195c25.078,1.453,46.008,32.742,37.516,56.883c-1.25,3.836-8.086,7.875-12.438,7.984
		c-23.008,0.727-46.219-0.828-69.219,0.617c-10.57,0.625-20.93,5.703-30.875,9.844c-1.664,0.828-3.109,7.984-1.664,10.57
		c10.984,19.375,3.938,38.445,0.414,57.82c-0.828,4.664,0.414,10.156,2.281,14.719c2.484,6.734,5.594,13.469,9.742,19.164
		c2.281,3.008,7.461,5.906,10.984,5.492c17.617-2.281,28.602,6.633,37.922,22.18c-14.094,16.68-28.805,33.469-43.102,50.664
		c-6.219,7.461-11.812,15.234-17.617,23.008c-1.242,1.758-3.32,4.453-2.898,6.008c9.117,26.531-15.133,28.805-28.188,39.172
		c-8.289,6.523-17.82,12.328-23.836,20.516c-18.906,24.969-36.625,50.875-54.453,76.68c-4.656,6.633-11.086,14.398-11.086,21.656
		c0,9.742,4.039,20.203,8.812,29.016c8.906,16.367,8.492,31.602,0.414,47.969c-6.844,13.633-16.789,28.344-16.273,42.023
		c0.523,17.406,4.875,36.68,21.656,48.906c11.812,8.5,23.211,18.031,33.992,27.977c6.992,6.43,11.555,15.547,18.805,21.555
		c24.867,21.555,47.875,44.969,83.516,51.398c59.484,10.562,116.883-0.625,174.5-11.812c9.328-1.664,17.82-7.461,26.32-11.812
		c14.094-6.844,22.383-5.602,29.219,7.664c5.391,10.773,13.266,13.266,23.625,12.852c10.156-0.211,20.312-0.828,30.469-0.625
		c18.438,0.211,26.727,15.336,18.234,31.914c-2.484,4.562-3.109,10.367-4.562,15.547c-2.07,6.836-3.312,14.094-6.422,20.305
		c-7.047,13.891-2.281,31.5,12.438,39.375c17.609,9.125,24.867,24.664,27.766,43.109c1.039,4.977,3.109,9.742,3.523,14.711
		c0.414,6.43,0.414,12.852-0.414,19.273c-0.625,6.633-3.312,13.477-3.312,20.109c0.617,15.539-6.43,26.938-15.133,38.961
		c-11.602,16.164-22.172,33.57-32.328,50.977c-7.461,12.641,2.281,23.211,7.25,33.367c12.438,26.109,8.289,49.734-5.18,73.57
		c-1.859,3.523-2.281,9.117-1.031,12.852c7.875,21.961,9.117,43.516-0.828,65.484c-2.078,4.562-1.25,10.156-2.078,17.203
		c3.734-0.828,7.258-1.453,10.984-2.078c-143.82,91.812-314.172,145.695-496.906,145.695
		C914.234,1952.047,809.164,1931.734,711.352,1896.711z"/>
	<path fill-rule="evenodd" clip-rule="evenodd" fill="#2B6CA6" d="M1742.938,779.945h-28.594c0.203,1.555,0.203,3.008,0.414,4.453
		C1724.289,786.891,1734.031,789.062,1742.938,779.945z"/>
	<path fill-rule="evenodd" clip-rule="evenodd" fill="#2B6CA6" d="M1831.43,762.742c-16.164,9.539-16.367,9.844-7.875,20
		C1830.398,778.078,1837.859,774.141,1831.43,762.742z"/>
	<path fill-rule="evenodd" clip-rule="evenodd" fill="#2B6CA6" d="M376.242,1196.031l0.414,5.391h19.898
		c-0.109-2.281-0.211-4.562-0.414-7.047C389.508,1195,382.875,1195.617,376.242,1196.031z"/>
	<path fill-rule="evenodd" clip-rule="evenodd" fill="#2B6CA6" d="M241.742,1177.797c-2.695-0.828-6.008,1.242-12.742,3.109
		c5.906,4.352,8.602,7.664,11.398,7.875c2.797,0.203,5.906-2.906,8.805-4.766C246.719,1181.938,244.648,1178.414,241.742,1177.797z"
		/>
	<path fill-rule="evenodd" clip-rule="evenodd" fill="#2B6CA6" d="M284.227,1161.008c0,0,0.102,0,0.211,0.211h-0.109
		c3.422,4.352,6.945,8.492,10.469,12.844c-14.297,5.805-20.727,3.938-25.906-8.906c5.289-1.453,10.359-2.695,15.438-3.938
		L284.227,1161.008L284.227,1161.008c-10.156-13.469-16.367-31.133-36.266-34.867c-2.383-0.414-4.25-3.422-6.531-4.977
		c-12.328-8.906-23.93-19.062-37.406-25.898c-10.773-5.703-23.414-8.188-35.641-10.266c-3.109-0.516-8.602,4.977-10.984,8.914
		c-2.281,3.938-2.078,9.227-2.906,13.992c5.188,0.828,11.609,4.039,15.336,2.172c13.891-7.047,19.273,0.625,23.211,11.609
		c3.523,10.102,10.781,13,20.523,11.555c3.102-0.414,6.008-1.453,7.562-1.664c4.453,8.914,6.836,21.555,12.539,23.211
		c19.477,6.016,28.594,23.836,44.656,32.953c5.078,3.109,11.297,4.148,17.102,5.805c4.352,1.242,8.906,2.898,13.469,2.898
		c16.68-0.203,33.367-1.242,49.945-1.656C339.766,1165.984,314.484,1157.484,284.227,1161.008z"/>
</g>
</svg>
