<?xml version="1.0" encoding="utf-8"?>
<!-- Generator: Adobe Illustrator 16.0.4, SVG Export Plug-In . SVG Version: 6.00 Build 0)  -->
<!DOCTYPE svg PUBLIC "-//W3C//DTD SVG 1.1//EN" "http://www.w3.org/Graphics/SVG/1.1/DTD/svg11.dtd">
<svg version="1.1" id="Layer_1" xmlns="http://www.w3.org/2000/svg" xmlns:xlink="http://www.w3.org/1999/xlink" x="0px" y="0px"
	 width="2048px" height="2048px" viewBox="0 0 2048 2048" enable-background="new 0 0 2048 2048" xml:space="preserve">
<g>
	<path fill="#DD4B38" d="M1122.805,134.453H684.938c-126.195,0-294.242,6.539-427.5,116.25
		c-100.461,86.422-147.031,215.492-147.031,323.023c0,237.555,142.234,376.82,390.086,376.82c11.508,0,34.617,0.789,47.086,0
		c0,66.109-2.523,74.391-2.523,114.156c41.859,39.508,56.156,49.148,74.562,103.734c-105.086,6.805-307.672,12.383-452.703,101.164
		C29.125,1351.406,0,1495.469,0,1579.539c0,172.852,163.688,334.008,502.672,334.008c402.023,0,614.727-221.68,614.727-441.273
		c0-160.984-82.234-248.891-184.969-335.227l-78.836-64.406c-25.727-21.102-76.047-57.82-77.094-102.641
		c-0.867-51.367,34.711-74.562,65.148-104.914c98.109-77.094,192.82-158.719,196.305-331.477
		c4.711-230.406-93.836-282.992-157.234-321.891c51.711-15.695,176.336-24.07,176.336-24.07L1122.805,134.453z M952.836,1502.445
		c0,144.594-162.289,283.078-340.805,285.695c-250.117,3.664-399.07-90.344-399.07-255.867
		c0-166.047,146.859-232.148,198.141-250.984c98.281-32.789,165.523-33.141,186.453-32.789
		C814.18,1252.508,952.836,1383.32,952.836,1502.445z M625.547,845.641c-185.148,26.688-295.984-201.977-294.938-386.336
		c0.344-60.781,12.297-117.727,51.883-166.828c37.328-46.656,89.305-68.375,150.086-68.375c108.227,0,206.602,118,233.547,189.508
		C793.07,485.031,848.359,813.633,625.547,845.641z"/>
	<polygon fill="#DD4B38" points="1700.734,481.633 1700.734,134.453 1600.273,134.453 1600.273,481.633 1253.008,481.633 
		1253.008,582.094 1600.273,582.094 1600.273,929.445 1700.734,929.445 1700.734,582.094 2048,582.094 2048,481.633 	"/>
</g>
</svg>
