<?xml version="1.0" encoding="utf-8"?>
<!-- Generator: Adobe Illustrator 16.0.4, SVG Export Plug-In . SVG Version: 6.00 Build 0)  -->
<!DOCTYPE svg PUBLIC "-//W3C//DTD SVG 1.1//EN" "http://www.w3.org/Graphics/SVG/1.1/DTD/svg11.dtd">
<svg version="1.1" id="Layer_1" xmlns="http://www.w3.org/2000/svg" xmlns:xlink="http://www.w3.org/1999/xlink" x="0px" y="0px"
	 width="2048px" height="2048px" viewBox="0 0 2048 2048" enable-background="new 0 0 2048 2048" xml:space="preserve">
<g>
	<path fill="#DD4B38" d="M0,0v2048h2048V0H0z M1122.164,701.406c-2.586,128.016-72.766,188.5-145.469,245.633
		c-22.555,22.484-48.914,39.672-48.273,77.734c0.781,33.219,38.062,60.422,57.125,76.062l58.422,47.688
		c76.125,63.977,137.062,129.117,137.062,248.406c0,162.789-157.609,327.055-455.523,327.055
		c-251.18,0-372.477-119.422-372.477-247.5c0-62.297,21.586-169.055,123.688-229.734c107.461-65.719,257.578-69.852,335.453-74.961
		c-13.641-40.391-24.234-47.562-55.258-76.836c0-29.469,1.875-35.602,1.875-84.586c-9.242,0.578-26.367,0-34.891,0
		c-183.656,0-289.055-103.203-289.055-279.234c0-79.68,34.508-175.32,108.953-239.359c98.742-81.297,223.266-86.141,316.773-86.141
		h324.469l-48.727,39.422c0,0-92.344,6.203-130.664,17.836C1052.625,491.711,1125.648,530.672,1122.164,701.406z M1870.609,737.336
		h-257.32v257.391h-74.445V737.336h-257.328v-74.445h257.328V405.633h74.445v257.258h257.32V737.336z"/>
	<path fill="#DD4B38" d="M747.68,472.062c-45.047,0-83.562,16.094-111.219,50.664c-29.336,36.383-38.188,78.578-38.445,123.625
		c-0.781,136.609,81.352,306.047,218.547,286.273c165.109-23.719,124.141-267.211,104.172-320.141
		C900.766,559.5,827.875,472.062,747.68,472.062z"/>
	<path fill="#DD4B38" d="M657.656,1255.477c-37.992,13.891-146.82,62.938-146.82,185.914c0,122.719,110.375,192.32,295.711,189.672
		c132.281-1.945,252.539-104.562,252.539-211.773c0-88.273-102.742-185.141-263.266-188.109
		C780.312,1230.922,730.484,1231.18,657.656,1255.477z"/>
</g>
</svg>
