<?xml version="1.0" encoding="utf-8"?>
<!-- Generator: Adobe Illustrator 16.0.4, SVG Export Plug-In . SVG Version: 6.00 Build 0)  -->
<!DOCTYPE svg PUBLIC "-//W3C//DTD SVG 1.1//EN" "http://www.w3.org/Graphics/SVG/1.1/DTD/svg11.dtd">
<svg version="1.1" id="Layer_1" xmlns="http://www.w3.org/2000/svg" xmlns:xlink="http://www.w3.org/1999/xlink" x="0px" y="0px"
	 width="2048px" height="2048px" viewBox="0 0 2048 2048" enable-background="new 0 0 2048 2048" xml:space="preserve">
<path fill="#01486D" d="M1024.023,0C458.445,0,0,458.445,0,1024.023C0,1589.633,458.445,2048,1024.023,2048
	C1589.633,2048,2048,1589.633,2048,1024.023C2048,458.445,1589.633,0,1024.023,0z M1022.648,1908.734
	c-112.797,0-190.508-85.25-190.508-195.438c0-115.242,80.234-195.594,190.508-195.594c112.75,0,187.977,80.352,190.5,195.594
	C1213.148,1823.484,1137.93,1908.734,1022.648,1908.734z M1295.789,973.977c-97.719,115.242-137.812,218.047-132.844,338.188
	l2.531,52.648H894.812l-4.969-65.039c-12.594-130.398,32.555-268.172,150.328-411.039
	c95.227-112.797,157.898-200.57,157.898-298.289c0-105.289-65.117-175.461-205.5-177.914c-87.695,0-187.938,27.555-250.609,75.227
	l-75.18-220.539c90.18-57.773,235.531-102.844,393.477-102.844c310.758,0,453.625,180.516,453.625,380.922
	C1513.883,725.812,1403.609,851.086,1295.789,973.977z"/>
</svg>
