<?xml version="1.0" encoding="utf-8"?>
<!-- Generator: Adobe Illustrator 16.0.4, SVG Export Plug-In . SVG Version: 6.00 Build 0)  -->
<!DOCTYPE svg PUBLIC "-//W3C//DTD SVG 1.1//EN" "http://www.w3.org/Graphics/SVG/1.1/DTD/svg11.dtd">
<svg version="1.1" id="Layer_1" xmlns="http://www.w3.org/2000/svg" xmlns:xlink="http://www.w3.org/1999/xlink" x="0px" y="0px"
	 width="2048px" height="2048px" viewBox="0 0 2048 2048" enable-background="new 0 0 2048 2048" xml:space="preserve">
<g>
	<path fill="#01486D" d="M811.977,1273.223l-329.375-0.332c-118.336,0-213.59,95.09-216.477,214.699h764.82
		C1026.621,1377.965,940.52,1273.223,811.977,1273.223z"/>
	<path fill="#01486D" d="M649.645,1235.496c93.703,0,169.711-76.004,169.711-169.734c0-93.703-76.008-169.652-169.711-169.652
		c-93.699,0-169.648,75.949-169.648,169.652C479.996,1159.492,555.945,1235.496,649.645,1235.496z"/>
	<rect x="1030.945" y="875.25" fill="#01486D" width="744.766" height="136.312"/>
	<rect x="1148.035" y="1155.055" fill="#01486D" width="627.676" height="136.254"/>
	<path fill="#01486D" d="M1883.562,371.734h-603.16v-70.184c0-32.453-26.406-58.805-58.805-58.805H826.453
		c-32.508,0-58.859,26.352-58.859,58.805v70.184H164.547C73.672,371.734,0,445.406,0,536.168V1640.82
		c0,90.762,73.672,164.438,164.547,164.438h1719.016c90.762,0,164.438-73.676,164.438-164.438V536.168
		C2048,445.406,1974.324,371.734,1883.562,371.734z M1024.012,407.516c32.734,0,59.336,26.574,59.336,59.363
		c0,32.73-26.602,59.305-59.336,59.305c-32.789,0-59.359-26.574-59.359-59.305C964.652,434.09,991.223,407.516,1024.012,407.516z
		 M1919.18,1640.82c0,19.641-15.98,35.727-35.617,35.727H164.547c-19.695,0-35.785-16.086-35.785-35.727V536.168
		c0-19.637,16.09-35.672,35.785-35.672h603.047v95.035c-21.195,13.812-35.23,37.668-35.23,64.852
		c0,42.832,34.676,77.559,77.559,77.559c34.453,0,393.699,0,428.207,0c42.828,0,77.449-34.727,77.449-77.559
		c0-27.184-13.98-51.039-35.176-64.852v-95.035h603.16c19.637,0,35.617,16.035,35.617,35.672V1640.82z"/>
</g>
</svg>
