<?xml version="1.0" encoding="utf-8"?>
<!-- Generator: Adobe Illustrator 16.0.4, SVG Export Plug-In . SVG Version: 6.00 Build 0)  -->
<!DOCTYPE svg PUBLIC "-//W3C//DTD SVG 1.1//EN" "http://www.w3.org/Graphics/SVG/1.1/DTD/svg11.dtd">
<svg version="1.1" id="Layer_1" xmlns="http://www.w3.org/2000/svg" xmlns:xlink="http://www.w3.org/1999/xlink" x="0px" y="0px"
	 width="2048px" height="2048px" viewBox="0 0 2048 2048" enable-background="new 0 0 2048 2048" xml:space="preserve">
<path fill="#FFFFFF" d="M1128.719,109.227V57.578c0-31.68-25.602-57.578-57.469-57.578c-31.82,0-57.43,25.898-57.43,57.578v46.586
	c-503.797,8.023-919.055,415.914-992.477,946.828c64.523-51.352,153.641-83.031,252.445-83.031
	c107.773,0,204.195,38.047,269.508,97.938c65.172-59.891,161.664-97.938,269.516-97.938c67.047,0,129.758,14.828,183.289,40.359
	v264.156c0,134.25,8.898,352.258,0.43,486.367c-4.625,72.984-45.273,137.141-130.844,134.898
	c-68.5-1.883-113.93-67.922-129.336-129.836c-5.492-21.773-4.625-46.148-15.039-65.898c-16.062-30.375-51.07-46.508-84.414-39.133
	c-73.852,16.203-62.281,96.711-46.727,151.25c40.141,140.977,166.219,253.812,319.711,236.023
	c154.062-18.156,240.25-154.07,240.25-300.469c0-215.625-0.148-511.758-0.438-727.453c57.438-31.461,126.875-50.266,201.953-50.266
	c108.07,0,204.562,38.047,269.805,97.938c65.094-59.891,161.586-97.938,269.508-97.938c48.172,0,93.891,7.734,135.695,21.406
	C1936.391,518.266,1574.578,156.531,1128.719,109.227z"/>
</svg>
