<?xml version="1.0" encoding="utf-8"?>
<!-- Generator: Adobe Illustrator 16.0.4, SVG Export Plug-In . SVG Version: 6.00 Build 0)  -->
<!DOCTYPE svg PUBLIC "-//W3C//DTD SVG 1.1//EN" "http://www.w3.org/Graphics/SVG/1.1/DTD/svg11.dtd">
<svg version="1.1" id="Layer_1" xmlns="http://www.w3.org/2000/svg" xmlns:xlink="http://www.w3.org/1999/xlink" x="0px" y="0px"
	 width="2048px" height="2048px" viewBox="0 0 2048 2048" enable-background="new 0 0 2048 2048" xml:space="preserve">
<path fill="#FFFFFF" d="M1994.57,1387.766l-266.68-754.211c7.281-13.469,12.242-29.445,12.242-48.312
	c0-12.617-2.312-24.07-5.578-34.508c14.758-2.617,27.203-6.734,34.953-12.852c16.586-12.719,40.93-38.656,22.641-63.781
	c-18.219-25.156-48.344-15.062-61.125-7.07c-9.797,6.258-27.203,24.203-39.031,24.203c-11.836,0-71.398-39.742-71.398-39.742
	c-254.305-146.562-454.688-177.875-541.992-184.266V171.32c9.789-2.008,15.977-4.594,15.977-7.344c0-2.891,0-21.078,0-23.906
	c0-2.68-6.188-5.508-15.977-7.375v-27.508c3.469-1.734,5.508-3.633,5.508-5.609c0-5.773,15.773-74.828,15.773-82.508
	c0-9.555-34-17.07-75.953-17.07c-41.68,0-75.609,7.516-75.609,17.07c0,7,15.57,77.516,15.57,82.508c0,1.977,2.242,3.875,5.578,5.609
	v27.508c-9.727,1.867-15.844,4.695-15.844,7.375c0,2.828,0,21.016,0,23.906c0,2.75,6.117,5.336,15.844,7.344v95.906
	c-87.172,6.391-287.555,37.703-542.062,184.266c0,0-59.562,39.742-71.328,39.742s-29.172-17.945-39.102-24.203
	c-12.914-7.992-42.836-18.086-61.055,7.07c-18.227,25.125,6.188,51.062,22.438,63.781c7.883,6.117,20.531,10.234,35.219,12.852
	c-3.398,10.438-5.57,21.891-5.57,34.508c0,18.867,5.031,34.844,12.102,48.312L53.43,1387.766
	c-7.344,8.906-12.516,18.016-12.516,27.602c0,3.266,0,16.188,0,19.383c0,58.812,145.375,106.414,324.883,106.414
	c179.305,0,324.891-47.602,324.891-106.414c0-3.195,0-16.117,0-19.383c0-9.453-5.305-18.695-12.586-27.469L411.359,633.688
	c7.203-13.602,12.102-29.578,12.102-48.445c0-15.914-3.742-29.578-8.977-41.82c5.172-1.797,10.336-3.43,15.094-5.539
	c49.234-22.062,351.406-125.484,481.688-126.438c38.211-0.344,60.242,7.781,72.75,19.414v744.352c-3.531,0-6.391,0-7.07,0
	c-7.203,0-12.914,5.844-12.914,13.188c-0.891,0-1.773,0-2.047,0c-9.516,0-17.336,7.75-17.336,17.203
	c0,9.656,7.82,17.406,17.336,17.406c1.633,0,6.938,0,14.352,0c-16.797,13.805-27.812,34.68-27.812,58.203
	c0,11.086,14.078,184.203,60.656,215.617c-54.742,15.023-71.266,109.336-71.266,115.25c0,14.352,0,133.203,0,170.328
	c-77.039,6.664-131.023,22.234-131.023,40.258c0,7.617,0,33.656,0,42.562c-93.633,15.164-154.828,39.711-154.828,67.594
	c0,5.57,0,26.375,0,31.75c0,46.031,166.523,83.43,371.867,83.43c205.625,0,372.078-37.398,372.078-83.43c0-5.375,0-26.18,0-31.75
	c0-27.883-61.133-52.43-154.898-67.594c0-8.906,0-34.945,0-42.562c0-18.023-53.984-33.594-130.891-40.258
	c0-37.125,0-155.977,0-170.328c0-5.914-16.523-100.43-71.328-115.25c46.711-31.414,60.719-204.531,60.719-215.617
	c0-23.523-11.148-44.398-27.945-58.203c7.688,0,12.984,0,14.484,0c9.656,0,17.477-7.75,17.477-17.406
	c0-9.453-7.82-17.203-17.477-17.203c-0.344,0-1.227,0-2.039,0c0-7.344-5.711-13.188-13.055-13.188c-0.68,0-3.398,0-6.938,0V430.789
	c12.508-11.562,34.539-19.688,72.617-19.344c130.281,0.953,432.453,104.375,481.75,126.438c4.766,2.109,9.859,3.742,15.102,5.539
	c-5.242,12.242-8.914,25.906-8.914,41.82c0,18.867,4.898,34.844,11.969,48.445l-266.742,754.211
	c-7.344,8.773-12.383,18.016-12.383,27.469c0,3.266,0,16.188,0,19.383c0,58.812,145.445,106.414,324.688,106.414
	c179.508,0,324.883-47.602,324.883-106.414c0-3.195,0-16.117,0-19.383C2007.086,1405.781,2001.914,1396.672,1994.57,1387.766z
	 M597.938,1341.188c-59.086-19.789-141.156-32.164-232.141-32.164c-90.977,0-173.117,12.375-232,32.164l232-656.125
	L597.938,1341.188z M1682.203,1309.023c-90.914,0-173.055,12.375-232.008,32.164l232.211-656.125l231.93,656.125
	C1855.32,1321.398,1773.18,1309.023,1682.203,1309.023z"/>
</svg>
