<?xml version="1.0" encoding="utf-8"?>
<!-- Generator: Adobe Illustrator 16.0.4, SVG Export Plug-In . SVG Version: 6.00 Build 0)  -->
<!DOCTYPE svg PUBLIC "-//W3C//DTD SVG 1.1//EN" "http://www.w3.org/Graphics/SVG/1.1/DTD/svg11.dtd">
<svg version="1.1" id="Layer_1" xmlns="http://www.w3.org/2000/svg" xmlns:xlink="http://www.w3.org/1999/xlink" x="0px" y="0px"
	 width="2048px" height="2048px" viewBox="0 0 2048 2048" enable-background="new 0 0 2048 2048" xml:space="preserve">
<path id="LinkedIn_5_" fill="#047CB7" d="M2048,1245.383v757.086h-439.078v-706.5c0-177.406-63.438-298.477-222.234-298.477
	c-121.383,0-193.625,81.68-225.344,160.406c-11.508,28.195-14.516,67.578-14.516,107.18v737.391H707.75
	c0,0,6.016-1196.531,0-1320.398h439.078v187.203c-0.828,1.242-2.07,2.797-2.898,4.148h2.898v-4.148
	c58.258-89.867,162.531-218.297,395.75-218.297C1831.469,650.977,2048,839.734,2048,1245.383z M248.359,45.531
	C98.266,45.531,0,144.008,0,273.57c0,126.773,95.359,228.25,242.656,228.25h3.008c152.883,0,248.148-101.477,248.148-228.25
	C490.906,144.008,398.547,45.531,248.359,45.531z M26.117,2002.469h438.875V682.07H26.117V2002.469z"/>
</svg>
