<?xml version="1.0" encoding="utf-8"?>
<!-- Generator: Adobe Illustrator 16.0.4, SVG Export Plug-In . SVG Version: 6.00 Build 0)  -->
<!DOCTYPE svg PUBLIC "-//W3C//DTD SVG 1.1//EN" "http://www.w3.org/Graphics/SVG/1.1/DTD/svg11.dtd">
<svg version="1.1" id="Layer_1" xmlns="http://www.w3.org/2000/svg" xmlns:xlink="http://www.w3.org/1999/xlink" x="0px" y="0px"
	 width="2048px" height="2048px" viewBox="0 0 2048 2048" enable-background="new 0 0 2048 2048" xml:space="preserve">
<g>
	<path fill="#047CB7" d="M1100.578,900.117v-2.586c-0.586,0.781-1.297,1.75-1.875,2.586H1100.578z"/>
	<path fill="#047CB7" d="M0,0v2048h2048V0H0z M675.43,1603.984H401.82V780.828H675.43V1603.984z M538.688,668.453h-1.875
		c-91.758,0-151.211-63.266-151.211-142.305c0-80.773,61.258-142.164,154.836-142.164c93.57,0,151.211,61.391,153.023,142.164
		C693.461,605.188,634.008,668.453,538.688,668.453z M1662.336,1603.984h-273.672v-440.398
		c0-110.633-39.555-186.117-138.617-186.117c-75.672,0-120.648,50.922-140.422,100.039c-7.242,17.578-9.047,42.133-9.047,66.75
		v459.727H826.773c0,0,3.812-745.938,0-823.156h273.805v116.703c36.32-56.023,101.258-136.094,246.664-136.094
		c180.102,0,315.094,117.68,315.094,370.547V1603.984z"/>
</g>
</svg>
