<?xml version="1.0" encoding="utf-8"?>
<!-- Generator: Adobe Illustrator 16.0.4, SVG Export Plug-In . SVG Version: 6.00 Build 0)  -->
<!DOCTYPE svg PUBLIC "-//W3C//DTD SVG 1.1//EN" "http://www.w3.org/Graphics/SVG/1.1/DTD/svg11.dtd">
<svg version="1.1" id="Layer_1" xmlns="http://www.w3.org/2000/svg" xmlns:xlink="http://www.w3.org/1999/xlink" x="0px" y="0px"
	 width="2048px" height="2048px" viewBox="0 0 2048 2048" enable-background="new 0 0 2048 2048" xml:space="preserve">
<path fill-rule="evenodd" clip-rule="evenodd" fill="#01486D" d="M435.281,949.469L1023.938,2048l588.598-1098.41
	c43.855-88.078,69.004-187.027,69.004-291.988C1681.539,294.48,1387.121,0,1023.938,0C660.941,0,366.461,294.48,366.461,657.602
	C366.461,762.562,391.73,861.332,435.281,949.469z M1023.938,356.68c150.766,0,272.859,122.094,272.859,272.797
	c0,150.824-122.094,272.918-272.859,272.918c-150.641,0-272.672-122.094-272.672-272.918
	C751.266,478.773,873.297,356.68,1023.938,356.68z"/>
</svg>
