<?xml version="1.0" encoding="utf-8"?>
<!-- Generator: Adobe Illustrator 16.0.4, SVG Export Plug-In . SVG Version: 6.00 Build 0)  -->
<!DOCTYPE svg PUBLIC "-//W3C//DTD SVG 1.1//EN" "http://www.w3.org/Graphics/SVG/1.1/DTD/svg11.dtd">
<svg version="1.1" id="Layer_1" xmlns="http://www.w3.org/2000/svg" xmlns:xlink="http://www.w3.org/1999/xlink" x="0px" y="0px"
	 width="2048px" height="2048px" viewBox="0 0 2048 2048" enable-background="new 0 0 2048 2048" xml:space="preserve">
<g>
	<polygon fill="#FFFFFF" points="681.883,488.992 535.656,488.992 678.465,313.605 678.465,280.906 492.059,280.906 
		492.059,318.023 623.852,318.023 481.098,491.172 481.098,526.109 681.883,526.109 	"/>
	<path fill="#FFFFFF" d="M154.414,603.289c0-42.598-34.582-77.18-77.176-77.18C34.523,526.109,0,560.691,0,603.289v1163.805h154.414
		V1442.18h1739.109v324.914H2048V1287.82H154.414V603.289z"/>
	<path fill="#FFFFFF" d="M426.309,985c85.602,0,155.18-69.582,155.18-155.242c0-85.664-69.578-155.125-155.18-155.125
		c-85.723,0-155.184,69.461-155.184,155.125C271.125,915.418,340.586,985,426.309,985z"/>
	<path fill="#FFFFFF" d="M1842.152,932.328c-181.754-26.746-917.07-129.023-1054.52-148.113c-7.188-1.824-14.434-3.062-22.27-3.062
		c-49.902,0-90.316,40.477-90.316,90.375v197.836H311.012c-42.656,0-77.18,34.523-77.18,77.121c0,42.652,34.523,77.238,77.18,77.238
		H2048v-77.238v-77.121c0-2.414,0-4.77,0-7.008C2048,956.484,2014.418,957.602,1842.152,932.328z"/>
</g>
</svg>
