<?xml version="1.0" encoding="utf-8"?>
<!-- Generator: Adobe Illustrator 18.1.0, SVG Export Plug-In . SVG Version: 6.00 Build 0)  -->
<svg version="1.1" id="Layer_1" xmlns="http://www.w3.org/2000/svg" xmlns:xlink="http://www.w3.org/1999/xlink" x="0px" y="0px"
	 viewBox="0 0 800 600" enable-background="new 0 0 800 600" xml:space="preserve">
<path fill="#231F20" d="M739.8,298.6c-6.5-0.6-12.4-0.9-17.8-0.9c-7.4,0-14.9,0.8-22.3,2.4c-7.4,1.6-14.2,4.2-20.2,7.8
	c-6,3.6-10.9,8.5-14.8,14.5c-3.8,6-5.7,13.5-5.7,22.4c0,8.9,1.5,16.4,4.6,22.6c3.1,6.1,7.4,11.1,13.1,15c5.7,3.9,12.4,6.7,20.3,8.4
	c7.9,1.7,16.6,2.5,26.1,2.5c11.7,0,22.2-0.9,31.5-2.8c9.3-1.9,17.2-3.8,23.7-5.9v-83.6c0-20.4-5.4-35.3-16.3-44.6
	c-10.9-9.3-26-13.9-45.3-13.9c-7.1,0-14.7,0.6-22.8,1.9c-8.2,1.3-24.5,6.1-24.5,6.1l16.4,29c0,0,13.4-5.9,23.4-5.9
	c4.6,0,8.9,0.3,12.7,0.8c3.8,0.6,7,1.6,9.6,3.2c2.6,1.6,4.6,3.8,6.1,6.5c1.5,2.8,2.2,6.4,2.2,10.9V298.6z M739.8,360.7
	c-2,0.4-4.5,0.8-7.3,1.3c-2.8,0.5-5.6,0.7-8.3,0.7c-2.4,0-5.3-0.1-8.5-0.4c-3.2-0.3-6.3-1-9.2-2.2c-2.9-1.2-5.3-3.1-7.4-5.7
	c-2-2.6-3.1-6.3-3.1-11.1c0-7.2,2.6-12.5,7.9-15.7c5.3-3.3,12.5-4.9,21.6-4.9c2,0,4.4,0.1,7,0.4c2.6,0.3,5,0.6,7.3,1V360.7z
	 M343.8,298.6c-6.5-0.6-12.4-0.9-17.8-0.9c-7.4,0-14.9,0.8-22.3,2.4c-7.4,1.6-14.2,4.2-20.2,7.8c-6,3.6-10.9,8.5-14.8,14.5
	c-3.8,6-5.7,13.5-5.7,22.4c0,8.9,1.5,16.4,4.6,22.6c3.1,6.1,7.4,11.1,13.1,15c5.7,3.9,12.4,6.7,20.3,8.4c7.9,1.7,16.6,2.5,26.1,2.5
	c11.7,0,22.2-0.9,31.5-2.8c9.3-1.9,17.2-3.8,23.7-5.9v-83.6c0-20.4-5.4-35.3-16.3-44.6c-10.9-9.3-26-13.9-45.3-13.9
	c-7.1,0-14.7,0.6-22.8,1.9c-8.2,1.3-24.5,6.1-24.5,6.1l16.4,29c0,0,13.4-5.9,23.4-5.9c4.6,0,8.9,0.3,12.7,0.8c3.8,0.6,7,1.6,9.6,3.2
	c2.6,1.6,4.6,3.8,6.1,6.5c1.5,2.8,2.2,6.4,2.2,10.9V298.6z M343.8,360.7c-2,0.4-4.5,0.8-7.3,1.3c-2.8,0.5-5.6,0.7-8.3,0.7
	c-2.4,0-5.3-0.1-8.5-0.4c-3.2-0.3-6.3-1-9.2-2.2c-2.9-1.2-5.3-3.1-7.4-5.7c-2-2.6-3.1-6.3-3.1-11.1c0-7.2,2.6-12.5,7.9-15.7
	c5.3-3.3,12.5-4.9,21.6-4.9c2,0,4.4,0.1,7,0.4c2.6,0.3,5,0.6,7.3,1V360.7z M241.3,391.6v-88.9c0-15,0-60.5-55-60.5
	c-11.9,0-33.8,7.9-47.9,15.7c-9.1-10.4-23.3-15.7-42.3-15.7c-9.3,0-23.2,4.4-35.2,9.5v-16.6l-39.1,16v140.5h39.1v-103
	c12.9-7,24.8-11,33.1-11c13.4,0,17.9,7,17.9,27.7v86.4h39.1v-88.9c0-4.6,0.3-9.2,0.1-14.3c10.4-5.9,23-10.9,33-10.9
	c13.4,0,17.9,7,17.9,27.7v86.4H241.3z M539.3,391.6V306c0-31.5-6.3-63.7-53.3-63.7c-10.5,0-25.8,4.5-38.1,9.8v-16.9l-37.9,16v140.5
	h37.9V288.7c8.8-5.2,24.2-11.2,36.1-11.2c7.7,0,17.4,0,17.4,28.4v85.7H539.3z M636.3,356.1c-4.9,1.3-9.1,2.1-12,2.2
	c-14.7,0.7-21.2-1.4-21.2-31V277h46.7l-17.9-31.9h-28.8v-37.3l-38.4,15.6v103.9c0,31.9,4.2,66,53.9,66c16.6,0,26.6-4.9,34.3-7.7
	L636.3,356.1z"/>
<g>
</g>
<g>
</g>
<g>
</g>
<g>
</g>
<g>
</g>
<g>
</g>
<g>
</g>
<g>
</g>
<g>
</g>
<g>
</g>
<g>
</g>
<g>
</g>
<g>
</g>
<g>
</g>
<g>
</g>
</svg>
