<?xml version="1.0" encoding="utf-8"?>
<!-- Generator: Adobe Illustrator 16.0.4, SVG Export Plug-In . SVG Version: 6.00 Build 0)  -->
<!DOCTYPE svg PUBLIC "-//W3C//DTD SVG 1.1//EN" "http://www.w3.org/Graphics/SVG/1.1/DTD/svg11.dtd">
<svg version="1.1" id="Layer_1" xmlns="http://www.w3.org/2000/svg" xmlns:xlink="http://www.w3.org/1999/xlink" x="0px" y="0px"
	 width="2048px" height="2048px" viewBox="0 0 2048 2048" enable-background="new 0 0 2048 2048" xml:space="preserve">
<path fill="#FDB515" d="M1895.367,1603.938c188.227-160.648,226.359-860.625-23.055-1069.727
	C1623.203,325.266,449.383,166.648,168.922,356.68C-111.531,546.57-22.32,1469.508,286.172,1638.297
	c224.242,122.82,837.297,164.562,1253.992,94.039c129.305,35.562,294.625,65.555,389.719,23.805c0,0-74.898-34.812-146.336-88.156
	C1829.062,1649.445,1867.039,1628.047,1895.367,1603.938z M1709.555,1411.336c-21.102,0-38.281-0.602-51.844-1.656
	c-13.414-0.906-24.109-2.562-32.102-4.672c-7.984-2.258-13.711-4.672-17.023-7.688c-3.469-2.859-5.125-6.477-5.125-10.852V956.023
	c0-30.289-4.219-58.094-12.508-83.109c-8.445-25.094-21.852-46.867-40.391-64.875c-18.688-18.234-42.195-32.102-70.68-41.672
	s-61.789-14.312-100.07-14.391c-38.273,0.078-71.578,4.82-99.914,14.391c-28.633,9.57-52.141,23.438-70.68,41.672
	c-18.531,18.008-32.094,39.781-40.383,64.875c-8.445,25.016-12.664,52.82-12.664,83.109v430.445c0,4.375-1.805,7.992-4.969,10.852
	c-3.469,3.016-9.047,5.43-17.18,7.688c-7.992,2.109-18.688,3.766-32.25,4.672c-13.414,1.055-30.594,1.656-51.695,1.656
	c-0.906,0-1.508,0-2.406,0c-1.062,0-1.664,0-2.562,0c-21.102,0-38.281-0.602-51.695-1.656c-13.562-0.906-24.266-2.562-32.25-4.672
	c-8.141-2.258-13.711-4.672-17.18-7.688c-3.312-2.859-4.977-6.477-4.977-10.852V956.023c0-30.289-4.219-58.094-12.656-83.109
	c-8.438-25.094-21.852-46.867-40.391-64.875c-18.531-18.234-42.039-32.102-70.68-41.672c-28.328-9.57-61.633-14.312-99.914-14.391
	c-38.273,0.078-71.578,4.82-100.062,14.391s-51.992,23.438-70.68,41.672c-18.391,18.008-31.953,39.781-40.391,64.875
	c-8.289,25.016-12.508,52.82-12.508,83.109v430.445c0,4.375-1.656,7.992-5.273,10.852c-3.164,3.016-8.891,5.43-16.883,7.688
	c-7.836,2.109-18.836,3.766-32.25,4.672c-13.258,1.055-30.586,1.656-51.836,1.656c-20.047,0-36.922-0.602-50.336-1.656
	c-13.414-0.906-24.117-2.562-31.648-4.672c-7.688-2.258-12.961-4.672-16.273-7.688c-3.32-2.859-5.281-6.477-5.281-10.852V938.547
	c0,0,0.906-179.109,0.305-261.773c-0.305-31.422,24.266-39.781,39.938-40.086c64.195-1.203,230.273,0,350.383-0.602
	c12.961-0.078,72.188,0.602,86.656,0.602c73.242,0,133.82,8.891,183.555,25.242c41.891,13.562,76.406,31.5,104.891,52.82
	c28.328-21.32,62.992-39.258,104.734-52.82c49.734-16.352,111.07-24.562,184.312-24.562c14.461,0,71.883,0,86.195,0
	c73.242,0,134.734,8.211,184.312,24.562c49.734,16.203,89.969,37.906,120.562,65.18c30.742,27.281,52.594,59.148,65.859,95.695
	c12.805,36.547,19.438,75.125,19.438,115.742v447.922c0,4.375-1.656,7.992-4.977,10.852c-3.461,3.016-8.891,5.43-16.422,7.688
	c-7.688,2.109-18.234,3.766-31.648,4.672C1746.625,1410.734,1729.75,1411.336,1709.555,1411.336z"/>
</svg>
