<?xml version="1.0" encoding="utf-8"?>
<!-- Generator: Adobe Illustrator 16.0.4, SVG Export Plug-In . SVG Version: 6.00 Build 0)  -->
<!DOCTYPE svg PUBLIC "-//W3C//DTD SVG 1.1//EN" "http://www.w3.org/Graphics/SVG/1.1/DTD/svg11.dtd">
<svg version="1.1" id="Layer_1" xmlns="http://www.w3.org/2000/svg" xmlns:xlink="http://www.w3.org/1999/xlink" x="0px" y="0px"
	 width="2048px" height="2048px" viewBox="0 0 2048 2048" enable-background="new 0 0 2048 2048" xml:space="preserve">
<g>
	<polygon fill-rule="evenodd" clip-rule="evenodd" fill="#2B6CA6" points="1664.281,928.742 1301.633,928.742 1208.758,1142.57 
		1544.531,1142.57 1755.992,1668.188 292.008,1668.188 503.469,1142.57 838.883,1142.57 746.102,928.742 383.719,928.742 
		0,1882.148 2048,1882.148 	"/>
	<path fill-rule="evenodd" clip-rule="evenodd" fill="#2B6CA6" d="M717.344,660.305l306.57,706.586l306.477-706.5
		c22.945-45.898,36.07-97.336,36.07-152.078c0-189.133-153.414-342.461-342.547-342.461c-188.961,0-342.375,153.328-342.375,342.461
		C681.539,563.055,694.664,614.406,717.344,660.305z M1023.914,351.594c78.492,0,142.164,63.578,142.164,141.984
		c0,78.672-63.672,142.258-142.164,142.258c-78.406,0-141.992-63.586-141.992-142.258
		C881.922,415.172,945.508,351.594,1023.914,351.594z"/>
</g>
</svg>
