<?xml version="1.0" encoding="utf-8"?>
<!-- Generator: Adobe Illustrator 16.0.4, SVG Export Plug-In . SVG Version: 6.00 Build 0)  -->
<!DOCTYPE svg PUBLIC "-//W3C//DTD SVG 1.1//EN" "http://www.w3.org/Graphics/SVG/1.1/DTD/svg11.dtd">
<svg version="1.1" id="Layer_1" xmlns="http://www.w3.org/2000/svg" xmlns:xlink="http://www.w3.org/1999/xlink" x="0px" y="0px"
	 width="2048px" height="2048px" viewBox="0 0 2048 2048" enable-background="new 0 0 2048 2048" xml:space="preserve">
<g>
	<path fill="#FFFFFF" d="M1951.5,1724.398c-25.656,0-1270.609,0-1758.578,0c0-517.766,0-1470.523,0-1497.328
		c0-53.164-43.18-96.312-96.422-96.312c-53.312,0-96.5,43.148-96.5,96.312c0,27.328,0,1273.57,0,1690.18c0,0,1922.664,0,1951.5,0
		c53.312,0,96.5-43.188,96.5-96.648C2048,1767.438,2004.812,1724.398,1951.5,1724.398z"/>
	<polygon fill="#FFFFFF" points="1117.391,1316.516 1786.75,638.727 1940.258,792.352 1940.258,267.703 1415.766,267.703 
		1565.211,417.188 1129.891,849.656 859.547,587.633 289.5,1144.516 289.5,1618.805 859.547,1043.766 	"/>
</g>
</svg>
