<?xml version="1.0" encoding="utf-8"?>
<!-- Generator: Adobe Illustrator 16.0.4, SVG Export Plug-In . SVG Version: 6.00 Build 0)  -->
<!DOCTYPE svg PUBLIC "-//W3C//DTD SVG 1.1//EN" "http://www.w3.org/Graphics/SVG/1.1/DTD/svg11.dtd">
<svg version="1.1" id="Layer_1" xmlns="http://www.w3.org/2000/svg" xmlns:xlink="http://www.w3.org/1999/xlink" x="0px" y="0px"
	 width="2048px" height="2048px" viewBox="0 0 2048 2048" enable-background="new 0 0 2048 2048" xml:space="preserve">
<path fill="#01486D" d="M0,251.496v1545.008h2048V251.496H0z M1091.738,1123.777c-15.242,15.41-38.746,24.223-64.578,24.223
	c-25.941,0-49.836-9.035-65.41-24.723L242.406,394.344c321.285,0,1267.293,0,1574.055,0L1091.738,1123.777z M660.586,1021.449
	L142.848,1550.66c0-243.734,0-810.363,0-1053.766L660.586,1021.449z M760.918,1123.168l99.336,100.609
	c42.293,42.684,103.102,67.074,166.906,67.074c63.582,0,124.113-24.168,165.965-66.41l97.781-98.336l515.242,527.551
	c-317.238,0-1246.727,0-1564.133,0L760.918,1123.168z M1391.625,1024.664l513.469-516.848c0,249,0,802.492,0,1042.734
	L1391.625,1024.664z"/>
</svg>
