<?xml version="1.0" encoding="utf-8"?>
<!-- Generator: Adobe Illustrator 16.0.4, SVG Export Plug-In . SVG Version: 6.00 Build 0)  -->
<!DOCTYPE svg PUBLIC "-//W3C//DTD SVG 1.1//EN" "http://www.w3.org/Graphics/SVG/1.1/DTD/svg11.dtd">
<svg version="1.1" id="Layer_1" xmlns="http://www.w3.org/2000/svg" xmlns:xlink="http://www.w3.org/1999/xlink" x="0px" y="0px"
	 width="2048px" height="2048px" viewBox="0 0 2048 2048" enable-background="new 0 0 2048 2048" xml:space="preserve">
<path fill="#4D4D4D" d="M0-0.016v2048.031h2048V-0.016H0z M148.891,645.375l370.289,375.203L148.891,1399.07V645.375z
	 M1899.109,1898.867H148.891v-215.844l509.68-521.117l137.977,139.781c58.805,59.258,143.203,93.117,231.867,93.117
	c88.367,0,172.375-33.539,230.539-92.148l135.836-136.68l504.32,516.336V1898.867z M1899.109,1398.234l-364.344-373.203
	l364.344-366.734V1398.234z M1899.109,376.734l-780.906,786.008c-21.32,21.391-53.859,33.672-89.789,33.672
	c-36,0-69.211-12.602-90.859-34.312L148.891,362.844V149.391h1750.219V376.734z"/>
</svg>
