<?xml version="1.0" encoding="utf-8"?>
<!-- Generator: Adobe Illustrator 16.0.4, SVG Export Plug-In . SVG Version: 6.00 Build 0)  -->
<!DOCTYPE svg PUBLIC "-//W3C//DTD SVG 1.1//EN" "http://www.w3.org/Graphics/SVG/1.1/DTD/svg11.dtd">
<svg version="1.1" id="Layer_1" xmlns="http://www.w3.org/2000/svg" xmlns:xlink="http://www.w3.org/1999/xlink" x="0px" y="0px"
	 width="2048px" height="2048px" viewBox="0 0 2048 2048" enable-background="new 0 0 2048 2048" xml:space="preserve">
<path fill="#01486D" d="M1744.797,76.992c0-42.488-34.445-76.992-76.938-76.992c-42.488,0-76.938,34.504-76.938,76.992
	c0,4.023,3.801,31.027,10.43,74.113c-409.359,117.148-634.879,427.02-726.977,576.496
	C630.684,1123.055,314.941,1164.836,0.34,1067.141c48.414,151.758,390.672,391.922,856.16,284.445
	c265.398-61.289,469.809-231.848,909.055-180.391c67.156,413.543,128.121,788.727,128.121,799.867
	c0,42.488,34.559,76.938,77.047,76.938c42.492,0,76.941-34.449,76.941-76.938C2047.664,1943.133,1744.797,99.867,1744.797,76.992z
	 M1607.332,1023.348c-245.27,0-421.098,57.758-570.168,123.992c-210.766,93.73-459.293,100.684-570.68,77.539
	c207.832-53.793,383.984-196.207,525.094-425.176c110.871-179.957,306.695-409.086,618.359-508.195
	c29.125,183.438,74.004,460.328,118.996,737.328C1687.965,1025.414,1647.539,1023.348,1607.332,1023.348z"/>
</svg>
