<?xml version="1.0" encoding="utf-8"?>
<!-- Generator: Adobe Illustrator 16.0.4, SVG Export Plug-In . SVG Version: 6.00 Build 0)  -->
<!DOCTYPE svg PUBLIC "-//W3C//DTD SVG 1.1//EN" "http://www.w3.org/Graphics/SVG/1.1/DTD/svg11.dtd">
<svg version="1.1" id="Layer_1" xmlns="http://www.w3.org/2000/svg" xmlns:xlink="http://www.w3.org/1999/xlink" x="0px" y="0px"
	 width="2048px" height="2048px" viewBox="0 0 2048 2048" enable-background="new 0 0 2048 2048" xml:space="preserve">
<path fill="#01486D" d="M1744.809,76.992c0-42.488-34.445-76.992-76.938-76.992c-42.488,0-76.992,34.504-76.992,76.992
	c0,4.023,3.91,31.027,10.484,74.113c-409.359,117.148-634.852,427.02-726.895,576.496
	C630.668,1123.055,314.98,1164.836,0.324,1067.141c48.469,151.758,390.672,391.922,856.16,284.445
	c265.48-61.289,469.781-231.848,909.082-180.391c67.211,413.543,128.176,788.727,128.176,799.867
	c0,42.488,34.449,76.938,76.992,76.938c42.492,0,76.941-34.449,76.941-76.938C2047.676,1943.133,1744.809,99.867,1744.809,76.992z"
	/>
</svg>
