<?xml version="1.0" encoding="utf-8"?>
<!-- Generator: Adobe Illustrator 16.0.4, SVG Export Plug-In . SVG Version: 6.00 Build 0)  -->
<!DOCTYPE svg PUBLIC "-//W3C//DTD SVG 1.1//EN" "http://www.w3.org/Graphics/SVG/1.1/DTD/svg11.dtd">
<svg version="1.1" id="Layer_1" xmlns="http://www.w3.org/2000/svg" xmlns:xlink="http://www.w3.org/1999/xlink" x="0px" y="0px"
	 width="2048px" height="2048px" viewBox="0 0 2048 2048" enable-background="new 0 0 2048 2048" xml:space="preserve">
<g>
	<g>
		<path fill="#01486D" d="M1409.359,134.316v-72.93c0-33.891-27.5-61.387-61.387-61.387c-33.891,0-61.336,27.496-61.336,61.387
			v71.641H650.93c-47.465,0-85.961,38.543-85.961,86.008V1962.09c0,47.461,38.496,85.91,85.961,85.91h746.141
			c47.465,0,85.961-38.449,85.961-85.91V219.035C1483.031,175.785,1450.926,140.262,1409.359,134.316z M868.43,1931.77
			c0,6.836-5.547,12.383-12.434,12.383H698.344c-6.836,0-12.438-5.547-12.438-12.383V1823.66c0-6.836,5.602-12.387,12.438-12.387
			h157.652c6.887,0,12.434,5.551,12.434,12.387V1931.77z M868.43,1765.891c0,6.938-5.547,12.488-12.434,12.488H698.344
			c-6.836,0-12.438-5.551-12.438-12.488v-108.004c0-6.84,5.602-12.488,12.438-12.488h157.652c6.887,0,12.434,5.648,12.434,12.488
			V1765.891z M868.43,1600.117c0,6.836-5.547,12.387-12.434,12.387H698.344c-6.836,0-12.438-5.551-12.438-12.387v-108.008
			c0-6.938,5.602-12.484,12.438-12.484h157.652c6.887,0,12.434,5.547,12.434,12.484V1600.117z M868.43,1434.242
			c0,6.934-5.547,12.484-12.434,12.484H698.344c-6.836,0-12.438-5.551-12.438-12.484v-108.008c0-6.836,5.602-12.387,12.438-12.387
			h157.652c6.887,0,12.434,5.551,12.434,12.387V1434.242z M1137.309,1931.77c0,6.836-5.648,12.383-12.484,12.383H923.129
			c-6.84,0-12.438-5.547-12.438-12.383V1823.66c0-6.836,5.598-12.387,12.438-12.387h201.695c6.836,0,12.484,5.551,12.484,12.387
			V1931.77z M1137.309,1765.891c0,6.938-5.648,12.488-12.484,12.488H923.129c-6.84,0-12.438-5.551-12.438-12.488v-108.004
			c0-6.84,5.598-12.488,12.438-12.488h201.695c6.836,0,12.484,5.648,12.484,12.488V1765.891z M1137.309,1600.117
			c0,6.836-5.648,12.387-12.484,12.387H923.129c-6.84,0-12.438-5.551-12.438-12.387v-108.008c0-6.938,5.598-12.484,12.438-12.484
			h201.695c6.836,0,12.484,5.547,12.484,12.484V1600.117z M1137.309,1434.242c0,6.934-5.648,12.484-12.484,12.484H923.129
			c-6.84,0-12.438-5.551-12.438-12.484v-108.008c0-6.836,5.598-12.387,12.438-12.387h201.695c6.836,0,12.484,5.551,12.484,12.387
			V1434.242z M1362.043,1931.77c0,6.836-5.551,12.383-12.387,12.383h-157.652c-6.887,0-12.484-5.547-12.484-12.383V1823.66
			c0-6.836,5.598-12.387,12.484-12.387h157.652c6.836,0,12.387,5.551,12.387,12.387V1931.77z M1362.043,1765.891
			c0,6.938-5.551,12.488-12.387,12.488h-157.652c-6.887,0-12.484-5.551-12.484-12.488v-108.004c0-6.84,5.598-12.488,12.484-12.488
			h157.652c6.836,0,12.387,5.648,12.387,12.488V1765.891z M1362.043,1600.117c0,6.836-5.551,12.387-12.387,12.387h-157.652
			c-6.887,0-12.484-5.551-12.484-12.387v-108.008c0-6.938,5.598-12.484,12.484-12.484h157.652c6.836,0,12.387,5.547,12.387,12.484
			V1600.117z M1362.043,1434.242c0,6.934-5.551,12.484-12.387,12.484h-157.652c-6.887,0-12.484-5.551-12.484-12.484v-108.008
			c0-6.836,5.598-12.387,12.484-12.387h157.652c6.836,0,12.387,5.551,12.387,12.387V1434.242z M1362.043,1135.09
			c0,39.539-32.008,71.543-71.492,71.543H757.5c-39.535,0-71.543-32.004-71.543-71.543v-798.73
			c0-39.488,32.008-71.496,71.543-71.496h533.051c39.484,0,71.492,32.008,71.492,71.496V1135.09z"/>
	</g>
</g>
</svg>
