<?xml version="1.0" encoding="utf-8"?>
<!-- Generator: Adobe Illustrator 16.0.4, SVG Export Plug-In . SVG Version: 6.00 Build 0)  -->
<!DOCTYPE svg PUBLIC "-//W3C//DTD SVG 1.1//EN" "http://www.w3.org/Graphics/SVG/1.1/DTD/svg11.dtd">
<svg version="1.1" id="Layer_1" xmlns="http://www.w3.org/2000/svg" xmlns:xlink="http://www.w3.org/1999/xlink" x="0px" y="0px"
	 width="2048px" height="2048px" viewBox="0 0 2048 2048" enable-background="new 0 0 2048 2048" xml:space="preserve">
<g>
	<path fill="#01486D" d="M1016.781,1343.023c-113.523-92.586-244.094-217.078-357.344-357.383
		c-79.391-98.445-149.695-201.82-77.156-274.398L72.797,202.516c-74.016,92.695-238.375,534.07,466.547,1256.695
		c742.625,761.195,1221.812,598.367,1304.273,512.492l-496.578-496.578C1277.711,1544.391,1188.266,1482.875,1016.781,1343.023z"/>
	<path fill="#01486D" d="M1525.297,1295.891l-101.523,101.523l497.977,497.969c0,0,101.375-100.961,101.375-101.172l0.141-0.344
		c32.047-32.055,28.977-81.273-0.344-110.531l-0.07-0.562c0,0-387.305-386.812-387.586-387.086
		C1604.688,1265.031,1555.531,1265.664,1525.297,1295.891z"/>
	<path fill="#01486D" d="M761.375,532.391l0.141-0.312c31.977-32.047,28.906-81.273-0.352-110.562l-0.07-0.453
		c0,0-398.469-398.094-398.68-398.266c-30.719-30.758-79.805-30.094-110.039,0.172L150.852,124.461l509.141,509.141
		C659.992,633.602,761.305,532.633,761.375,532.391z"/>
</g>
</svg>
