<?xml version="1.0" encoding="utf-8"?>
<!-- Generator: Adobe Illustrator 16.0.4, SVG Export Plug-In . SVG Version: 6.00 Build 0)  -->
<!DOCTYPE svg PUBLIC "-//W3C//DTD SVG 1.1//EN" "http://www.w3.org/Graphics/SVG/1.1/DTD/svg11.dtd">
<svg version="1.1" id="Layer_1" xmlns="http://www.w3.org/2000/svg" xmlns:xlink="http://www.w3.org/1999/xlink" x="0px" y="0px"
	 width="2048px" height="2048px" viewBox="0 0 2048 2048" enable-background="new 0 0 2048 2048" xml:space="preserve">
<g>
	<rect x="626.586" y="1239.16" fill="#01486D" width="790.535" height="155.461"/>
	<rect x="626.586" y="1499.16" fill="#01486D" width="790.535" height="155.414"/>
	<path fill="#01486D" d="M1945.562,502.574H1738V177.355c0-56.539-45.953-102.512-102.535-102.512H412.512
		C356.023,74.844,310,120.816,310,177.355v325.219H102.512C45.953,502.574,0,548.477,0,605.035v688.367
		c0,56.586,45.953,102.539,102.512,102.539H310v474.73c0,56.633,46.023,102.488,102.512,102.488h1222.953
		c56.582,0,102.535-45.855,102.535-102.488v-474.73h207.562c56.582,0,102.438-45.953,102.438-102.539V605.035
		C2048,548.477,2002.145,502.574,1945.562,502.574z M1576.34,1815.598H471.684V1128.77H1576.34V1815.598z M1576.34,502.574H471.684
		V234.988H1576.34V502.574z M1761.66,927.621c-47.223,0-85.516-38.266-85.516-85.535c0-47.145,38.293-85.391,85.516-85.391
		c47.168,0,85.414,38.246,85.414,85.391C1847.074,889.355,1808.828,927.621,1761.66,927.621z"/>
</g>
</svg>
