<?xml version="1.0" encoding="utf-8"?>
<!-- Generator: Adobe Illustrator 16.0.4, SVG Export Plug-In . SVG Version: 6.00 Build 0)  -->
<!DOCTYPE svg PUBLIC "-//W3C//DTD SVG 1.1//EN" "http://www.w3.org/Graphics/SVG/1.1/DTD/svg11.dtd">
<svg version="1.1" id="Layer_1" xmlns="http://www.w3.org/2000/svg" xmlns:xlink="http://www.w3.org/1999/xlink" x="0px" y="0px"
	 width="2048px" height="2048px" viewBox="0 0 2048 2048" enable-background="new 0 0 2048 2048" xml:space="preserve">
<g>
	<path fill="#2B6CA6" d="M583.938,981.938h314.844V667.18H583.938V981.938z M671.406,754.648h139.906v139.82H671.406V754.648z"/>
	<rect x="986.688" y="839.211" fill="#2B6CA6" width="332.188" height="87.469"/>
	<rect x="986.688" y="722.438" fill="#2B6CA6" width="466.906" height="87.469"/>
	<path fill="#2B6CA6" d="M1627.297,187.25h-429.773c0.266-4.219,1.234-8.18,1.234-12.492C1198.758,78.406,1120.352,0,1024,0
		S849.242,78.406,849.242,174.758c0,4.312,0.969,8.273,1.234,12.492H420.703c-65.289,0-118.086,52.891-118.086,118.008V1929.82
		c0,65.297,52.797,118.18,118.086,118.18h1206.594c65.289,0,118.086-52.883,118.086-118.18V305.258
		C1745.383,240.141,1692.586,187.25,1627.297,187.25z M1024,90.109c46.812,0,84.648,37.922,84.648,84.648
		s-37.836,84.648-84.648,84.648s-84.648-37.922-84.648-84.648S977.188,90.109,1024,90.109z M1551,1853.531H497V380.055h150.383
		c0,74.617,60.539,135.156,135.156,135.156h482.922c74.617,0,135.156-60.539,135.156-135.156H1551V1853.531z"/>
</g>
</svg>
