<?xml version="1.0" encoding="utf-8"?>
<!-- Generator: Adobe Illustrator 16.0.4, SVG Export Plug-In . SVG Version: 6.00 Build 0)  -->
<!DOCTYPE svg PUBLIC "-//W3C//DTD SVG 1.1//EN" "http://www.w3.org/Graphics/SVG/1.1/DTD/svg11.dtd">
<svg version="1.1" id="Layer_1" xmlns="http://www.w3.org/2000/svg" xmlns:xlink="http://www.w3.org/1999/xlink" x="0px" y="0px"
	 width="2048px" height="2048px" viewBox="0 0 2048 2048" enable-background="new 0 0 2048 2048" xml:space="preserve">
<g>
	<path fill="#FFFFFF" d="M1658.242,1538.469v-247.227c0-28.891-1.133-47.172-2.93-55.383c-1.742-8.141-6.008-14.016-12.547-17.812
		c-6.539-3.938-18.883-5.672-36.703-5.672v418.375c23.625,0,38.367-4.734,43.906-14.406
		C1655.312,1606.797,1658.242,1580.773,1658.242,1538.469z"/>
	<path fill="#FFFFFF" d="M856.117,1645.297c11.344,0,18.477-5,21.547-15.008c3.203-9.875,4.742-33.5,4.742-71.07v-292.328
		c0-29.695-1.539-48.516-4.742-56.656c-3.266-8.336-10.008-12.406-20.547-12.406c-8.414,0-15.016,3.266-19.555,9.938
		c-4.672,6.742-6.938,26.43-6.938,59.125v297.133c0,36.836,1.664,59.727,4.539,68.195
		C838.234,1640.961,845.172,1645.297,856.117,1645.297z"/>
	<path fill="#FFFFFF" d="M0,1761.609c0,79.734,64.727,144.328,144.133,144.328h1759.734c79.477,0,144.133-64.594,144.133-144.328
		V580.859H0V1761.609z M1440.383,1103.406h123.977c79.805,0,133.586,3.734,161.945,11.078c28.164,7.273,49.711,19.414,64.328,36.102
		c14.547,16.812,23.953,35.43,27.492,55.984c3.805,20.617,5.539,60.984,5.539,121.242v222.734c0,57.117-2.672,95.422-8.008,114.57
		c-5.406,19.219-14.945,34.297-28.094,45.172c-13.414,10.883-29.891,18.422-49.711,22.82c-19.555,4.211-49.312,6.539-88.75,6.539
		h-208.719V1103.406z M1108.812,1103.406h165.414v508.93h100.625v127.312h-266.039V1103.406z M665.273,1367.109
		c0-63.922,1.336-109.094,4.469-135.719c2.867-26.625,12.477-50.984,28.297-72.938c15.945-22.016,37.094-38.836,64.055-50.641
		c27.023-11.75,58.719-17.75,94.422-17.75c34.164,0,64.727,5.539,91.68,16.75c27.297,11.07,49.18,27.758,65.461,49.977
		c16.547,22.422,26.359,46.641,29.43,72.734c3.336,26.219,4.867,72.133,4.867,137.586v108.906c0,63.789-1.531,109.031-4.672,135.656
		c-2.867,26.555-12.273,50.914-28.086,72.867c-15.883,21.953-37.234,38.969-64.266,50.773
		c-27.023,11.75-58.516,17.555-94.414,17.555c-34.164,0-64.523-5.539-91.75-16.617c-27.156-11.211-48.844-27.828-65.398-50.18
		c-16.547-22.156-26.289-46.375-29.422-72.602c-3.141-26.219-4.672-72.062-4.672-137.453V1367.109z M243.086,1161.992
		c12.477-22.484,32.562-40.172,60.188-52.852c27.898-12.609,61.391-19.078,100.695-19.078c42.836,0,79.602,7.008,109.703,20.82
		c30.422,13.875,50.312,31.359,60.117,52.508c9.875,21.086,14.75,56.852,14.75,107.438v25.086H435v-47.109
		c0-21.953-2.008-36.031-5.875-41.906c-4.203-6.141-10.406-9.07-19.75-9.07c-9.875,0-17.484,4.07-22.555,12.211
		c-5.141,8.008-7.609,20.352-7.609,37.031c0,21.086,2.867,37.031,8.609,47.844c5.469,10.742,21.016,23.617,46.508,38.836
		c73.805,43.773,120.242,79.539,139.195,107.695c19.148,27.961,28.828,73.203,28.828,135.391c0,45.508-5.406,78.805-16.016,100.359
		c-10.547,21.289-31.094,39.367-61.461,53.914c-30.359,14.617-65.789,21.758-106.156,21.758c-44.18,0-82.016-8.273-113.172-25.023
		c-31.297-16.82-52.047-38.172-61.656-64.195c-9.812-25.82-14.414-62.656-14.414-110.297v-41.641h153.672v77.469
		c0,23.688,2,39.102,6.273,45.844c4.539,6.805,12.281,10.273,23.219,10.273c10.945,0,19.219-4.336,24.625-13.078
		c5.336-8.469,7.805-21.281,7.805-38.367c0-37.5-4.938-61.922-15.211-73.531c-10.477-11.477-36.438-30.695-77.469-57.719
		c-41.109-27.297-68.266-47.047-81.812-59.32c-13.273-12.414-24.422-29.359-33.031-51.117c-8.805-21.75-13.273-49.578-13.273-83.273
		C224.273,1220.109,230.609,1184.547,243.086,1161.992z"/>
	<path fill="#FFFFFF" d="M75,408.836c6.938,0,133.188,0,317.758,0c0,32.031,0,56.453,0,62.258c0,30.227,24.82,54.922,54.984,54.922
		c30.227,0,55.047-24.695,55.047-54.922c0-5.602,0-30.227,0-62.258c311.352,0,731,0,1042.484,0c0,32.031,0,56.453,0,62.258
		c0,30.227,24.625,54.922,54.984,54.922s54.852-24.695,54.852-54.922c0-5.602,0-30.227,0-62.258c184.703,0,311.219,0,317.891,0
		c41.5,0,75-33.492,75-74.867c0-41.305-33.5-74.797-75-74.797c-6.477,0-132.992,0-317.891,0c0-32.234,0-56.789,0-62.195
		c0-30.359-24.492-54.914-54.852-54.914s-54.984,24.555-54.984,54.914c0,5.672,0,30.234,0,62.195c-311.484,0-731.133,0-1042.484,0
		c0-32.234,0-56.789,0-62.195c0-30.359-24.82-54.914-55.047-54.914c-30.164,0-54.984,24.555-54.984,54.914
		c0,5.672,0,30.234,0,62.195c-184.57,0-311.281,0-317.758,0c-41.5,0-75,33.492-75,74.797C0,375.344,33.5,408.836,75,408.836z"/>
</g>
</svg>
