<?xml version="1.0" encoding="utf-8"?>
<!-- Generator: Adobe Illustrator 16.0.4, SVG Export Plug-In . SVG Version: 6.00 Build 0)  -->
<!DOCTYPE svg PUBLIC "-//W3C//DTD SVG 1.1//EN" "http://www.w3.org/Graphics/SVG/1.1/DTD/svg11.dtd">
<svg version="1.1" id="Layer_1" xmlns="http://www.w3.org/2000/svg" xmlns:xlink="http://www.w3.org/1999/xlink" x="0px" y="0px"
	 width="2048px" height="2048px" viewBox="0 0 2048 2048" enable-background="new 0 0 2048 2048" xml:space="preserve">
<g>
	<path fill="#7F7D7C" d="M1911.164,1075.684c14.176-48.453-6.598-100.266-32.629-140.59C1867.906,918.598,1849.82,893.973,1831,871
		c-31.402-38.246-96.289-46.559-126.719-46.434c-105.945,0.305-322.969,1.895-412.66-2.141
		c-44.359-2.016-58.531-20.285-66.355-37.512c-25.902-56.824,41.305-186.23,83.461-261.262
		c39.961-71.18,75.031-256.797,53.523-335.125c-22.852-83.402-108.266-204.5-206.145-186.781
		c-81.723,14.848-57.68,126.172-67.945,184.641c-20.008,113.707-68.461,220.262-148.805,302.992
		C799.93,632.898,693.066,766.703,629.891,977.68c-24.93,83.156-92.078,130.629-179.754,141.688c0,223.684,0,480.91,0,704.594
		c0,39.164,0,78.387,0,117.555c264.312,0,491.664,88.652,558.199,97.086c159.133,20.16,524.871,6.902,574.238-30.246
		c45.336-33.969,96.656-31.832,135.641-80.285c33.727-41.91,23.828-124.52,35.68-173.824c13.074-54.012,62.32-66.781,92.383-111.445
		c35.191-51.934,24.805-91.707,11.242-148.957c-19.918-83.34,14.664-86.516,34.094-136.926
		c23.828-62.012,5.129-98.855-15.887-158.184C1852.387,1133.176,1896.5,1126.148,1911.164,1075.684
		C1925.461,1026.621,1904.809,1097.555,1911.164,1075.684z"/>
	<path fill="#7F7D7C" d="M318.348,1065.113H200.547c0,0-32.258,0-34.152,33.297c-7.945,137.656-28.047,658.953-34.645,820.191
		c-1.098,28.105,10.145,47.535,33.605,47.535c16.617,0,152.992,0,152.992,0c33.664,0,60.977-27.312,60.977-60.914v-779.258
		C379.324,1092.363,352.012,1065.113,318.348,1065.113z M273.379,1929.051c-35.805,0-64.949-18.27-64.949-40.754
		c0-22.547,29.145-40.812,64.949-40.812c35.926,0,65.008,18.266,65.008,40.812C338.387,1910.781,309.305,1929.051,273.379,1929.051z
		"/>
</g>
</svg>
