<?xml version="1.0" encoding="utf-8"?>
<!-- Generator: Adobe Illustrator 16.0.4, SVG Export Plug-In . SVG Version: 6.00 Build 0)  -->
<!DOCTYPE svg PUBLIC "-//W3C//DTD SVG 1.1//EN" "http://www.w3.org/Graphics/SVG/1.1/DTD/svg11.dtd">
<svg version="1.1" id="Layer_1" xmlns="http://www.w3.org/2000/svg" xmlns:xlink="http://www.w3.org/1999/xlink" x="0px" y="0px"
	 width="2048px" height="2048px" viewBox="0 0 2048 2048" enable-background="new 0 0 2048 2048" xml:space="preserve">
<g>
	<path fill="#FFFFFF" d="M908.164,39.359v460.184h-66.172V41.398c0-55.816-72.66-53.742-72.66-2.039v460.184h-67.137V40.828
		c0-54.734-74.879-51.582-74.879-2.039v460.754h-65.035V42.871c0-57.918-77.703-55.758-77.703-2.043v617.816
		c0,88.152,66.535,147.211,143.098,147.211v1122.711c0,159.25,217.199,159.25,217.199,0V805.855
		c78.543,0,139.07-71.156,139.07-137.754l0.121-626.703C984.066-13.906,908.164-11.742,908.164,39.359z"/>
	<path fill="#FFFFFF" d="M1229.91,184.465v1051.613h115.895v691.887c0,153.605,217.617,155.887,217.617,0v-1743.5
		C1563.422-60.383,1229.91-60.383,1229.91,184.465z"/>
</g>
</svg>
