<?xml version="1.0" encoding="utf-8"?>
<!-- Generator: Adobe Illustrator 16.0.4, SVG Export Plug-In . SVG Version: 6.00 Build 0)  -->
<!DOCTYPE svg PUBLIC "-//W3C//DTD SVG 1.1//EN" "http://www.w3.org/Graphics/SVG/1.1/DTD/svg11.dtd">
<svg version="1.1" id="Layer_1" xmlns="http://www.w3.org/2000/svg" xmlns:xlink="http://www.w3.org/1999/xlink" x="0px" y="0px"
	 width="2048px" height="2048px" viewBox="0 0 2048 2048" enable-background="new 0 0 2048 2048" xml:space="preserve">
<g>
	<path fill="#01486D" d="M2048.002,1847.479l-718.629-662.535c219.054-289.604,197.366-704.601-66.637-968.553
		c-288.408-288.514-757.874-288.514-1046.388,0c-288.463,288.463-288.463,757.929,0,1046.388
		c263.948,263.948,678.891,285.585,968.604,66.641l662.535,718.574L2048.002,1847.479z M1165.874,1165.921
		c-235.139,235.085-617.527,234.976-852.557,0c-235.03-235.084-235.139-617.473,0-852.557c235.03-235.139,617.527-235.139,852.557,0
		C1400.85,548.394,1400.799,930.836,1165.874,1165.921z"/>
</g>
</svg>
