<?xml version="1.0" encoding="utf-8"?>
<!-- Generator: Adobe Illustrator 16.0.4, SVG Export Plug-In . SVG Version: 6.00 Build 0)  -->
<!DOCTYPE svg PUBLIC "-//W3C//DTD SVG 1.1//EN" "http://www.w3.org/Graphics/SVG/1.1/DTD/svg11.dtd">
<svg version="1.1" id="Layer_1" xmlns="http://www.w3.org/2000/svg" xmlns:xlink="http://www.w3.org/1999/xlink" x="0px" y="0px"
	 width="2048px" height="2048px" viewBox="0 0 2048 2048" enable-background="new 0 0 2048 2048" xml:space="preserve">
<path fill="#01486D" d="M1714.359,615.078l160.656-160.656c-74.625-111.078-170.359-206.812-281.438-281.438l-160.656,160.656
	c-66.359-39.344-137.047-68.453-209.969-87.078V19.672C1158.562,6.953,1092.062,0,1024,0c-68.203,0-134.562,6.953-198.953,19.672
	v226.891c-72.922,18.625-143.609,47.734-210.094,87.078L454.422,172.984c-111.203,74.625-206.812,170.234-281.438,281.438
	l160.656,160.656c-39.344,66.359-68.453,137.047-87.078,209.969H19.672C6.953,889.438,0,955.938,0,1024
	s6.953,134.562,19.672,198.953h226.891c18.625,72.922,47.734,143.609,87.078,209.969l-160.656,160.656
	c74.484,111.078,170.234,206.812,281.438,281.438l160.531-160.656c66.484,39.344,137.172,68.453,210.094,87.078v226.891
	C889.438,2041.047,955.797,2048,1024,2048c68.062,0,134.562-6.953,198.953-19.672v-226.891
	c72.922-18.625,143.609-47.734,209.969-87.078l160.656,160.656c111.078-74.625,206.812-170.359,281.438-281.438l-160.656-160.656
	c39.219-66.359,68.328-137.047,86.953-209.969h227.016C2041.047,1158.562,2048,1092.062,2048,1024s-6.953-134.562-19.672-198.953
	h-227.016C1782.688,752.125,1753.578,681.438,1714.359,615.078z M1300.203,1300.203c-152.656,152.516-399.875,152.516-552.406,0
	c-152.516-152.531-152.516-399.875,0-552.406c152.531-152.516,399.75-152.516,552.406,0
	C1452.719,900.328,1452.719,1147.672,1300.203,1300.203z"/>
</svg>
