<?xml version="1.0" encoding="utf-8"?>
<!-- Generator: Adobe Illustrator 16.0.4, SVG Export Plug-In . SVG Version: 6.00 Build 0)  -->
<!DOCTYPE svg PUBLIC "-//W3C//DTD SVG 1.1//EN" "http://www.w3.org/Graphics/SVG/1.1/DTD/svg11.dtd">
<svg version="1.1" id="Layer_1" xmlns="http://www.w3.org/2000/svg" xmlns:xlink="http://www.w3.org/1999/xlink" x="0px" y="0px"
	 width="2048px" height="2048px" viewBox="0 0 2048 2048" enable-background="new 0 0 2048 2048" xml:space="preserve">
<path fill="#FFFFFF" d="M1635.57,1898.664c0,82.57,66.766,149.336,149.266,149.336c82.641,0,149.273-66.766,149.273-149.336
	c0-82.508-66.633-149.469-149.273-149.469C1702.336,1749.195,1635.57,1816.156,1635.57,1898.664z M457.055,1898.664
	c0,82.57,66.773,149.336,149.539,149.336c82.305,0,149.008-66.766,149.008-149.336c0-82.508-66.703-149.469-149.008-149.469
	C523.828,1749.195,457.055,1816.156,457.055,1898.664z M52.008,56.258c0,31.141,25.258,56.328,56.461,56.328
	c0,0,128.445,0,189.797,0c13.945,87.492,201.828,1267.391,206.055,1294.031c-8.328,23.406-93.539,266.156-93.539,266.156h1490.273
	c31.203,0,56.258-25.188,56.258-56.328c0-31.07-25.055-56.32-56.258-56.32c0,0-1189.812,0-1331.281,0
	c16.195-46.148,36.953-105.383,45.875-130.828h1380.344V551.906L434.648,252.898L394.383,0H108.469
	C77.266,0,52.008,25.125,52.008,56.258z M1668.688,1126.852h214.586v189.859h-214.586V1126.852z M1668.688,822.484h214.586v265.523
	h-214.586V822.484z M1668.688,603.836c115.359,22.242,196.141,37.578,214.586,41.148v138.828h-214.586V603.836z M1386.469,1126.852
	h243.414v189.859h-243.414V1126.852z M1386.469,822.484h243.414v265.523h-243.414V822.484z M1386.469,549.859
	c88.32,16.891,171.289,32.852,243.414,46.602v187.352h-243.414V549.859z M1087.727,1126.852h259.938v189.859h-259.938V1126.852z
	 M1087.727,822.484h259.938v265.523h-259.938V822.484z M1087.727,492.641c87.594,16.82,175.719,33.648,259.938,49.812v241.359
	h-259.938V492.641z M805.641,1126.852h243.281v189.859H805.641V1126.852z M805.641,822.484h243.281v265.523H805.641V822.484z
	 M805.641,438.695c77.086,14.711,159.453,30.477,243.281,46.508v298.609H805.641V438.695z M573.867,1126.852h193.102v189.859
	H604.016L573.867,1126.852z M525.344,822.484h241.625v265.523H567.586L525.344,822.484z M453.555,371.266
	c71.656,13.617,182.984,35.039,313.414,59.93v352.617H519.133L453.555,371.266z"/>
</svg>
