<?xml version="1.0" encoding="utf-8"?>
<!-- Generator: Adobe Illustrator 16.0.4, SVG Export Plug-In . SVG Version: 6.00 Build 0)  -->
<!DOCTYPE svg PUBLIC "-//W3C//DTD SVG 1.1//EN" "http://www.w3.org/Graphics/SVG/1.1/DTD/svg11.dtd">
<svg version="1.1" id="Layer_1" xmlns="http://www.w3.org/2000/svg" xmlns:xlink="http://www.w3.org/1999/xlink" x="0px" y="0px"
	 width="2048px" height="2048px" viewBox="0 0 2048 2048" enable-background="new 0 0 2048 2048" xml:space="preserve">
<g>
	<path fill="#01486D" d="M775.805,1015.191c-68.742-3.391-98.852-10.387-106.508-34.199c-6.539-20.211,2.098-45.246,48.988-60.316
		c51.926-16.715,90.426-10.84,111.684-8.918l-5.312-88.219c-27.52-3.918-63.223-3.531-112.211,9.859l-20.418-63.465l-70.703,22.801
		l22.098,68.465c-72.312,40.035-100.984,104.129-80.492,167.629c22.516,69.898,86.785,89.023,172.281,90.109
		c59.164,0.84,87.836,10.699,96.613,38.148c9.301,28.777-13.605,53.742-54.758,66.996c-46.82,15.07-94.273,13.637-129.973,6.855
		l5.559,91.262c32.59,7.098,83.57,4.93,132.629-8.461l22.066,68.465l70.598-22.695l-23.641-73.605
		c78.258-41.121,106.055-110.598,85.355-174.762C918.785,1046.312,871.336,1017.777,775.805,1015.191z"/>
	<path fill="#01486D" d="M2007.578,341.453c-28.008-6.223-55.703,11.328-61.926,39.336
		c-25.316,113.188-126.195,196.758-256.938,212.879c-12.375,1.504-27.098,3.391-43.184,5.91L1318.176,431.84
		c-49.551-25.523-111.371-28.285-159.871-10.699c-1.816,0.457-3.602,0.945-5.664,1.574L138.781,749.48
		c-50.77,16.363-92.137,51.504-116.473,98.988S-6.434,950.082,9.93,1000.82l183.086,568.242
		c26.785,82.836,103.188,138.504,190.148,138.504c20.734,0,41.367-3.25,61.262-9.652l1014.176-326.797
		c1.711-0.594,3.391-1.188,5.453-2.062c53.219-15.562,98.082-52.59,123.293-101.895l189.871-370.297
		c24.965-48.672,29.266-104.164,12.238-155.531c-6.434-20.527-16.68-38.953-28.711-55.98
		c145.742-37.695,255.293-143.539,286.203-281.902C2053.211,375.441,2035.586,347.676,2007.578,341.453z M1500.176,834.238
		c14.824,45.91-10.488,95.285-56.438,110.109c-8.742,2.832-17.797,4.266-26.852,4.266c-38.148,0-71.613-24.406-83.258-60.699
		c-7.203-22.312-5.281-46.02,5.422-66.859c8.809-17.203,22.938-30.387,40.105-38.566c-7.938,22.379-13.531,47.484-16.121,75.703
		c-2.621,28.531,18.395,53.742,46.961,56.367c1.609,0.207,3.254,0.277,4.859,0.277c26.508,0,49.129-20.281,51.578-47.203
		c2.238-24.406,7.551-45.527,16.223-63.992C1490.281,812.418,1496.434,822.629,1500.176,834.238z M1700.047,857.281
		l-189.871,370.367c-14.824,28.988-40.316,49.793-71.75,58.57L417.852,1615.395c-11.328,3.637-22.973,5.453-34.688,5.453
		c-49.23,0-92.484-31.504-107.625-78.395L92.453,974.246c-9.234-28.742-6.75-59.34,7.027-86.195
		c13.742-26.887,37.168-46.785,65.875-56.051L1179.32,505.238l6.785-1.961c12.938-4.684,26.398-7.062,40-7.062
		c18.359,0,36.016,4.301,52.488,12.762l243.785,124.938c-29.441,13.078-57.836,30.91-82.59,54.688
		c-7.52-0.98-15.105-1.816-22.867-1.816c-18.078,0-36.086,2.867-53.43,8.461c-44.305,14.195-80.355,44.863-101.613,86.227
		c-21.262,41.438-25.07,88.711-10.805,132.98c23.219,72.273,89.863,120.844,165.812,120.844c18.078,0,36.086-2.832,53.461-8.426
		c91.441-29.477,141.828-127.84,112.352-219.172c-8.324-25.91-22.414-48.641-40.32-67.312
		c28.465-16.434,66.055-28.285,113.992-36.855c23.918,14.688,41.891,36.785,50.562,64.41
		C1716.793,797.699,1714.383,829.449,1700.047,857.281z"/>
</g>
</svg>
