<?xml version="1.0" encoding="utf-8"?>
<!-- Generator: Adobe Illustrator 16.0.4, SVG Export Plug-In . SVG Version: 6.00 Build 0)  -->
<!DOCTYPE svg PUBLIC "-//W3C//DTD SVG 1.1//EN" "http://www.w3.org/Graphics/SVG/1.1/DTD/svg11.dtd">
<svg version="1.1" id="Layer_1" xmlns="http://www.w3.org/2000/svg" xmlns:xlink="http://www.w3.org/1999/xlink" x="0px" y="0px"
	 width="2048px" height="2048px" viewBox="0 0 2048 2048" enable-background="new 0 0 2048 2048" xml:space="preserve">
<path fill="#FFFFFF" d="M277.297,864.617l1657.242-437.375L1821.82,0L52.789,466.852l112.797,427.312V2048h1829.633V864.617H277.297
	z M1741.875,137.312l55.359,209.984l-182.602,48.172l-259.953-156L1741.875,137.312z M1042.352,321.922l259.992,156l-335.906,88.641
	l-259.953-156L1042.352,321.922z M394.117,492.945l259.961,156.078L245.594,756.859l-55.422-210.062L394.117,492.945z
	 M1012.875,976.984h347.266l-211.5,217.18H801.305L1012.875,976.984z M278.016,976.984h411.719l-211.5,217.18H278.016V976.984z
	 M1882.781,1935.633H278.016v-629.102h1604.766V1935.633z M1882.781,1194.164h-411.07l211.508-217.18h199.562V1194.164z"/>
</svg>
