<?xml version="1.0" encoding="utf-8"?>
<!-- Generator: Adobe Illustrator 16.0.4, SVG Export Plug-In . SVG Version: 6.00 Build 0)  -->
<!DOCTYPE svg PUBLIC "-//W3C//DTD SVG 1.1//EN" "http://www.w3.org/Graphics/SVG/1.1/DTD/svg11.dtd">
<svg version="1.1" id="Layer_1" xmlns="http://www.w3.org/2000/svg" xmlns:xlink="http://www.w3.org/1999/xlink" x="0px" y="0px"
	 width="2048px" height="2048px" viewBox="0 0 2048 2048" enable-background="new 0 0 2048 2048" xml:space="preserve">
<path fill="#28AAE2" d="M0-0.016v2048.031h2048V-0.016H0z M1572.508,745.023c0,0,29.203,359.883-251.258,620.57
	c-280.492,260.758-674.5,276.781-986.305,85.367c0,0,213.445,48.859,423.859-112.828c0,0-195.227,0-263.789-193.609
	c0,0,74.703,10.664,124.977-6.078c0,0-208.797-44.586-225.664-278.391c0,0,74.773,35.992,129.633,33.016
	c0,0-210.344-135.703-85.297-378.109c0,0,218.555,296.82,578.891,294.234c-19.195-111.219,5.812-242.922,143.039-310.969
	c176.555-87.562,303.086,22.617,334.625,54.539c22.359-2,86.977-12.602,178.875-67.461c0,0-10.344,74.898-122.141,157.422
	c0,0,84.789-10.406,161.172-44.789C1713.125,597.938,1659.484,677.102,1572.508,745.023z"/>
</svg>
