<?xml version="1.0" encoding="utf-8"?>
<!-- Generator: Adobe Illustrator 16.0.4, SVG Export Plug-In . SVG Version: 6.00 Build 0)  -->
<!DOCTYPE svg PUBLIC "-//W3C//DTD SVG 1.1//EN" "http://www.w3.org/Graphics/SVG/1.1/DTD/svg11.dtd">
<svg version="1.1" id="Layer_1" xmlns="http://www.w3.org/2000/svg" xmlns:xlink="http://www.w3.org/1999/xlink" x="0px" y="0px"
	 width="2048px" height="2048px" viewBox="0 0 2048 2048" enable-background="new 0 0 2048 2048" xml:space="preserve">
<path fill="#28AAE2" d="M2048,393.023c-113.367,51.109-239.5,66.516-239.5,66.516c166.109-122.617,181.508-233.938,181.508-233.938
	c-136.625,81.586-232.461,97.312-265.711,100.344c-46.852-47.508-235.078-211.242-497.352-81.094
	c-203.992,101.078-241.094,296.836-212.594,462.133C478.836,710.828,154.07,269.672,154.07,269.672
	C-31.703,629.906,280.859,831.562,280.859,831.562c-81.5,4.422-192.562-49.062-192.562-49.062
	c24.977,347.5,335.328,413.68,335.328,413.68c-74.781,24.898-185.766,9.008-185.766,9.008
	c101.891,287.828,391.93,287.828,391.93,287.828C317.148,1733.172,0,1660.602,0,1660.602
	c463.352,284.547,1048.836,260.633,1465.789-126.797c416.75-387.422,373.344-922.25,373.344-922.25
	C1968.219,510.648,2048,393.023,2048,393.023z"/>
</svg>
