<?xml version="1.0" encoding="utf-8"?>
<!-- Generator: Adobe Illustrator 18.1.0, SVG Export Plug-In . SVG Version: 6.00 Build 0)  -->
<svg version="1.1" id="Capa_1" xmlns="http://www.w3.org/2000/svg" xmlns:xlink="http://www.w3.org/1999/xlink" x="0px" y="0px"
	 viewBox="0 0 40 40" enable-background="new 0 0 40 40" xml:space="preserve">
<path fill="#FFFFFF" d="M27.9,16.1c-0.4-0.8-1.1-1.3-1.8-1.5c0.2-0.5,0.2-1.1-0.1-1.6c-0.4-0.8-1.3-1.3-2.1-1.2
	c0-0.3-0.1-0.6-0.2-0.9c-0.5-1.1-1.8-1.5-2.8-1c-0.3,0.1-0.6,0.4-0.8,0.6c-0.6-0.5-1.5-0.6-2.3-0.3c-0.6,0.3-1.1,0.9-1.2,1.6
	c-0.5-0.1-1-0.1-1.5,0.1c-1.1,0.5-1.5,1.8-1,2.8c0,0,0,0.1,0.1,0.1c0,0-0.1,0-0.1,0c-1.9,0.9-2.8,3.3-1.8,5.2
	c0.7,1.5,2.2,2.3,3.8,2.2c0,0.3,0.1,0.6,0.2,0.8c0.5,1.1,1.8,1.5,2.8,1c0.2-0.1,0.3-0.2,0.5-0.3v6.5h1.9v-6c0.9,0.3,1.9,0.3,2.8-0.1
	c1.6-0.8,2.4-2.5,1.9-4.2c0.2,0,0.3-0.1,0.5-0.2C27.9,19.2,28.5,17.5,27.9,16.1z"/>
</svg>
