<?xml version="1.0" encoding="utf-8"?>
<!-- Generator: Adobe Illustrator 18.1.0, SVG Export Plug-In . SVG Version: 6.00 Build 0)  -->
<svg version="1.1" id="Capa_1" xmlns="http://www.w3.org/2000/svg" xmlns:xlink="http://www.w3.org/1999/xlink" x="0px" y="0px"
	 viewBox="0 0 40 40" enable-background="new 0 0 40 40" xml:space="preserve">
<g>
	<path fill="#FFFFFF" d="M20.9,14.6c0.9,0,1.7-0.8,1.7-1.7c0-0.9-0.8-1.7-1.7-1.7c-0.9,0-1.7,0.7-1.7,1.7S20,14.6,20.9,14.6z"/>
	<path fill="#FFFFFF" d="M20.5,26c-0.3,0.2-0.7,0.5-0.7,0.5L19.6,27l-0.3,0.3h-0.5l-1.3,1h12.8l-0.6-0.6l-0.5-0.5l-0.7,0l-0.5-0.5
		c0,0-0.4-0.6-0.4-0.7c0-0.1,0.1-0.6,0-0.7c-0.1-0.1-0.5-0.3-0.5-0.3l-1,0l-0.5-0.7l-0.5-0.8l-0.7-0.1c0,0-0.4,0-0.6,0.2
		c-0.2,0.2-0.5,0.4-0.9,0.5c-0.1,0-0.2,0.1-0.3,0.1l-5-4l2.4-4.7l-2.5-3.5h-5.1l-0.7,3.5l-1-0.8c-0.2-0.2-0.5-0.1-0.7,0.1
		c-0.2,0.2-0.1,0.5,0.1,0.7l1.9,1.6l-1.2,1.3l0.1,4.6l-1.2,4.5c-0.1,0.5,0.2,1.1,0.7,1.2c0.1,0,0.2,0,0.3,0c0.4,0,0.9-0.3,1-0.7
		l1.3-4.8l0.2-3.6l2.5,3l-2.4,4.4c-0.3,0.5-0.1,1.1,0.4,1.4c0.1,0.1,0.3,0.1,0.5,0.1c0.4,0,0.7-0.2,0.9-0.5l3-5.6L16.8,21l5,4.1
		l-0.3,0.5C21.5,25.6,20.8,25.9,20.5,26z M16.1,19.2l-1-0.9l1.9-0.8L16.1,19.2z M13.6,13.9l1.3,0.2l-1.6,1.6L13.6,13.9z"/>
</g>
</svg>
