<?xml version="1.0" encoding="utf-8"?>
<!-- Generator: Adobe Illustrator 18.1.0, SVG Export Plug-In . SVG Version: 6.00 Build 0)  -->
<svg version="1.1" id="Capa_1" xmlns="http://www.w3.org/2000/svg" xmlns:xlink="http://www.w3.org/1999/xlink" x="0px" y="0px"
	 viewBox="0 0 40 40" enable-background="new 0 0 40 40" xml:space="preserve">
<path fill="#FFFFFF" d="M18.4,14.6c0-0.6,1.2-1.1,2.9-1.5V12l0-0.1h0v-0.5c-4.6,0.6-9.1,1.6-9.1,3.3c0,3.4,7.3,7.4,7.3,9.3
	c0,2.7-7.4,4-9.9,4.9h9.7c0.3-0.2,0.6-0.4,1-0.6l0.2-0.1l0.3,0.4l-0.2,0.1c-0.1,0.1-0.2,0.1-0.3,0.1h6.8c0,0,3.4-2,3.3-4.9
	C30.3,20.2,18.4,16.5,18.4,14.6z M17.3,12.7c0.7-0.2,1.5-0.4,2.5-0.6l0.3,0l0.1,0.5l-0.3,0c-1,0.2-1.8,0.4-2.4,0.6l-0.2,0.1
	l-0.1-0.5L17.3,12.7z M15.9,16.4l-0.1-0.2c-0.4-0.6-0.6-1.2-0.6-1.8c0-0.3,0.1-0.6,0.5-0.9l0.2-0.1l0.3,0.4l-0.2,0.2
	c-0.2,0.2-0.3,0.3-0.3,0.5c0,0.4,0.2,0.9,0.6,1.5l0.1,0.2L15.9,16.4z M19.2,19.3L19,19.1c-0.8-0.6-1.5-1.1-2-1.6l-0.2-0.2l0.3-0.4
	l0.2,0.2c0.5,0.5,1.1,1,2,1.6l0.2,0.1L19.2,19.3z M20.3,20l0.3-0.4l0.8,0.6c0.5,0.4,1,0.7,1.5,1l0.2,0.1l-0.3,0.4l-0.2-0.1
	c-0.5-0.3-0.9-0.6-1.5-1L20.3,20z M24.3,26.3c-0.6,0.6-1.4,1-2.2,1.4l-0.2,0.1l-0.2-0.4l0.2-0.1c0.8-0.4,1.5-0.8,2.1-1.4l0.2-0.2
	l0.3,0.4L24.3,26.3z M25.3,24.7L25.2,25l-0.5-0.1l0.1-0.2c0.1-0.2,0.1-0.4,0.1-0.7c0-0.2-0.2-0.6-0.9-1.3l-0.2-0.1l0.3-0.4l0.2,0.1
	c0.8,0.7,1.1,1.1,1.1,1.6C25.4,24.2,25.4,24.5,25.3,24.7z"/>
</svg>
