<?xml version="1.0" encoding="utf-8"?>
<!-- Generator: Adobe Illustrator 18.1.0, SVG Export Plug-In . SVG Version: 6.00 Build 0)  -->
<svg version="1.1" id="Layer_1" xmlns="http://www.w3.org/2000/svg" xmlns:xlink="http://www.w3.org/1999/xlink" x="0px" y="0px"
	 viewBox="269.1 -175 112 112" enable-background="new 269.1 -175 112 112" xml:space="preserve">
<path id="numbered-list-icon" fill="#FFFFFF" d="M312.1-139.5h41.9v5.9h-41.9V-139.5z M312.1-121.8h41.9v5.9h-41.9V-121.8z
	 M312.1-104h41.9v5.9h-41.9V-104z M299.3-130.6h3v-12.6h-2.5v0.2c0,1.8-1.7,1.9-3.4,2v2.1h3L299.3-130.6L299.3-130.6z M304.7-115.9
	h-4c1.8-1.5,3.8-3.3,3.8-5.7c0-2.3-1.7-3.8-4.3-3.8c-1.4,0-2.8,0.4-4,1.3l0.9,2.3c0.8-0.6,1.6-1.1,2.6-1.1c1.1,0,1.7,0.5,1.7,1.5
	c0,1.6-1.9,3.1-5.3,6.2v2h8.6L304.7-115.9L304.7-115.9z M302.8-101.5c1.1-0.5,1.7-1.5,1.7-2.7c0-1.5-1.2-3.1-4-3.1
	c-1.3,0-2.7,0.3-3.8,1l0.7,2.4c1-0.6,1.8-0.8,2.5-0.8c0.9,0,1.5,0.4,1.5,1c0,0.9-1.1,1.1-1.8,1.1h-1.3v2.4h1.3c1,0,2.1,0.4,2.1,1.4
	c0,0.8-0.7,1.3-1.9,1.3c-1,0-2-0.3-2.8-0.8l-0.7,2.5c1.1,0.7,2.4,0.9,3.7,0.9c3,0,4.9-1.5,4.9-3.7C304.9-99.9,304.1-101,302.8-101.5
	z"/>
</svg>
