<svg{{ with .width }} width="{{ . }}"{{ end }}{{ with .height }} height="{{ . }}"{{ end }}{{ with .class }} class="{{ . }}"{{ end }} focusable="false" viewBox="0 0 16 16" fill="currentColor" xmlns="http://www.w3.org/2000/svg">
  <path fill-rule="evenodd" d="M5.854 4.146a.5.5 0 010 .708L2.707 8l3.147 3.146a.5.5 0 01-.708.708l-3.5-3.5a.5.5 0 010-.708l3.5-3.5a.5.5 0 01.708 0zm4.292 0a.5.5 0 000 .708L13.293 8l-3.147 3.146a.5.5 0 00.708.708l3.5-3.5a.5.5 0 000-.708l-3.5-3.5a.5.5 0 00-.708 0z" clip-rule="evenodd"/>
</svg>
