<svg xmlns="http://www.w3.org/2000/svg"{{ with .width }} width="{{ . }}"{{ end }}{{ with .height }} height="{{ . }}"{{ end }}{{ with .class }} class="{{ . }}"{{ end }} viewBox="0 0 512 512" role="img"><title>{{ with .title }}{{ . }}{{ else }}Slack{{ end }}</title><path fill="currentColor" d="M210.787 234.832l68.31-22.883 22.1 65.977-68.309 22.882z"/><path fill="currentColor" d="M490.54 185.6C437.7 9.59 361.6-31.34 185.6 21.46S-31.3 150.4 21.46 326.4 150.4 543.3 326.4 490.54 543.34 361.6 490.54 185.6zM401.7 299.8l-33.15 11.05 11.46 34.38c4.5 13.92-2.87 29.06-16.78 33.56-2.87.82-6.14 1.64-9 1.23a27.32 27.32 0 0 1-24.56-18l-11.46-34.38-68.36 22.92 11.46 34.38c4.5 13.92-2.87 29.06-16.78 33.56-2.87.82-6.14 1.64-9 1.23a27.32 27.32 0 0 1-24.56-18l-11.46-34.43-33.15 11.05c-2.87.82-6.14 1.64-9 1.23a27.32 27.32 0 0 1-24.56-18c-4.5-13.92 2.87-29.06 16.78-33.56l33.12-11.03-22.1-65.9-33.15 11.05c-2.87.82-6.14 1.64-9 1.23a27.32 27.32 0 0 1-24.56-18c-4.48-13.93 2.89-29.07 16.81-33.58l33.15-11.05-11.46-34.38c-4.5-13.92 2.87-29.06 16.78-33.56s29.06 2.87 33.56 16.78l11.46 34.38 68.36-22.92-11.46-34.38c-4.5-13.92 2.87-29.06 16.78-33.56s29.06 2.87 33.56 16.78l11.47 34.42 33.15-11.05c13.92-4.5 29.06 2.87 33.56 16.78s-2.87 29.06-16.78 33.56L329.7 194.6l22.1 65.9 33.15-11.05c13.92-4.5 29.06 2.87 33.56 16.78s-2.88 29.07-16.81 33.57z"/></svg>