<?xml version="1.0" encoding="UTF-8"?>
<svg width="24px" height="24px" viewBox="0 0 24 24" version="1.1" xmlns="http://www.w3.org/2000/svg" xmlns:xlink="http://www.w3.org/1999/xlink">
    <!-- Generator: Sketch 47.1 (45422) - http://www.bohemiancoding.com/sketch -->
    <title>google-normal</title>
    <desc>Created with Sketch.</desc>
    <defs>
        <path d="M23.1818182,9.81818182 L12,9.81818182 L12,14.4545455 L18.4363636,14.4545455 C17.8363636,17.4 15.3272727,19.0909091 12,19.0909091 C8.07272727,19.0909091 4.90909091,15.9272727 4.90909091,12 C4.90909091,8.07272727 8.07272727,4.90909091 12,4.90909091 C13.6909091,4.90909091 15.2181818,5.50909091 16.4181818,6.49090909 L19.9090909,3 C17.7818182,1.14545455 15.0545455,0 12,0 C5.34545455,0 0,5.34545455 0,12 C0,18.6545455 5.34545455,24 12,24 C18,24 23.4545455,19.6363636 23.4545455,12 C23.4545455,11.2909091 23.3454545,10.5272727 23.1818182,9.81818182 Z" id="path-1"></path>
        <path d="M23.1818182,9.81818182 L12,9.81818182 L12,14.4545455 L18.4363636,14.4545455 C17.8363636,17.4 15.3272727,19.0909091 12,19.0909091 C8.07272727,19.0909091 4.90909091,15.9272727 4.90909091,12 C4.90909091,8.07272727 8.07272727,4.90909091 12,4.90909091 C13.6909091,4.90909091 15.2181818,5.50909091 16.4181818,6.49090909 L19.9090909,3 C17.7818182,1.14545455 15.0545455,0 12,0 C5.34545455,0 0,5.34545455 0,12 C0,18.6545455 5.34545455,24 12,24 C18,24 23.4545455,19.6363636 23.4545455,12 C23.4545455,11.2909091 23.3454545,10.5272727 23.1818182,9.81818182 Z" id="path-3"></path>
        <path d="M23.1818182,9.81818182 L12,9.81818182 L12,14.4545455 L18.4363636,14.4545455 C17.8363636,17.4 15.3272727,19.0909091 12,19.0909091 C8.07272727,19.0909091 4.90909091,15.9272727 4.90909091,12 C4.90909091,8.07272727 8.07272727,4.90909091 12,4.90909091 C13.6909091,4.90909091 15.2181818,5.50909091 16.4181818,6.49090909 L19.9090909,3 C17.7818182,1.14545455 15.0545455,0 12,0 C5.34545455,0 0,5.34545455 0,12 C0,18.6545455 5.34545455,24 12,24 C18,24 23.4545455,19.6363636 23.4545455,12 C23.4545455,11.2909091 23.3454545,10.5272727 23.1818182,9.81818182 Z" id="path-5"></path>
        <path d="M23.1818182,9.81818182 L12,9.81818182 L12,14.4545455 L18.4363636,14.4545455 C17.8363636,17.4 15.3272727,19.0909091 12,19.0909091 C8.07272727,19.0909091 4.90909091,15.9272727 4.90909091,12 C4.90909091,8.07272727 8.07272727,4.90909091 12,4.90909091 C13.6909091,4.90909091 15.2181818,5.50909091 16.4181818,6.49090909 L19.9090909,3 C17.7818182,1.14545455 15.0545455,0 12,0 C5.34545455,0 0,5.34545455 0,12 C0,18.6545455 5.34545455,24 12,24 C18,24 23.4545455,19.6363636 23.4545455,12 C23.4545455,11.2909091 23.3454545,10.5272727 23.1818182,9.81818182 Z" id="path-7"></path>
    </defs>
    <g id="Log-in" stroke="none" stroke-width="1" fill="none" fill-rule="evenodd">
        <g id="google-normal">
            <g id="Google_-G-_Logo">
                <g id="Clipped">
                    <mask id="mask-2" fill="white">
                        <use xlink:href="#path-1"></use>
                    </mask>
                    <g id="a"></g>
                    <polygon id="Shape" fill="#FBBC05" fill-rule="nonzero" mask="url(#mask-2)" points="-1.09090909 19.0909091 -1.09090909 4.90909091 8.18181818 12"></polygon>
                </g>
                <g id="Clipped">
                    <mask id="mask-4" fill="white">
                        <use xlink:href="#path-3"></use>
                    </mask>
                    <g id="a"></g>
                    <polygon id="Shape" fill="#EA4335" fill-rule="nonzero" mask="url(#mask-4)" points="-1.09090909 4.90909091 8.18181818 12 12 8.67272727 25.0909091 6.54545455 25.0909091 -1.09090909 -1.09090909 -1.09090909"></polygon>
                </g>
                <g id="Clipped">
                    <mask id="mask-6" fill="white">
                        <use xlink:href="#path-5"></use>
                    </mask>
                    <g id="a"></g>
                    <polygon id="Shape" fill="#34A853" fill-rule="nonzero" mask="url(#mask-6)" points="-1.09090909 19.0909091 15.2727273 6.54545455 19.5818182 7.09090909 25.0909091 -1.09090909 25.0909091 25.0909091 -1.09090909 25.0909091"></polygon>
                </g>
                <g id="Clipped">
                    <mask id="mask-8" fill="white">
                        <use xlink:href="#path-7"></use>
                    </mask>
                    <g id="a"></g>
                    <polygon id="Shape" fill="#4285F4" fill-rule="nonzero" mask="url(#mask-8)" points="25.0909091 25.0909091 8.18181818 12 6 10.3636364 25.0909091 4.90909091"></polygon>
                </g>
            </g>
        </g>
    </g>
</svg>