<?xml version="1.0" standalone="no"?>
<!DOCTYPE svg PUBLIC "-//W3C//DTD SVG 1.1//EN" "http://www.w3.org/Graphics/SVG/1.1/DTD/svg11.dtd">
<svg xmlns="http://www.w3.org/2000/svg">
<metadata>Generated by Fontastic.me</metadata>
<defs>
<font id="bastrap" horiz-adv-x="512">
<font-face font-family="bastrap" units-per-em="512" ascent="480" descent="-32"/>
<missing-glyph horiz-adv-x="512" />

<glyph unicode="&#97;" d="M204 221l-52 0 0 52 52 0z m79 52l-52 0 0-52 52 0z m79 0l-52 0 0-52 52 0z m-158-77l-52 0 0-52 52 0z m79 0l-52 0 0-52 52 0z m79 0l-52 0 0-52 52 0z m20 182c0-9-8-16-17-16-9 0-16 7-16 16l0 41c0 9 7 16 16 16 9 0 17-7 17-16z m-218 41c0 9-8 16-17 16-8 0-16-7-16-16l0-41c0-8 8-16 16-16 9 0 17 8 17 16z m237-23l0-17c0-20-16-36-36-36-19 0-35 16-35 36l0 17-147 0 0-17c0-20-16-36-36-36-19 0-35 16-35 36l0 17-39 0 0-319 366 0 0 319z m2-284l-294 0 0 198 294 0 0-198z"/>
<glyph unicode="&#98;" d="M108 124c0 0 18-24 37-47 17-22 21-60 21-60 0 0 123 249 138 275 18 31 46 83 46 83l-30 41c0 0-105-135-132-173-27-39-80-119-80-119z m228-113c0 0 2 24 18 45 16 21 52 55 52 55 0 0-102 166-116 181-13 14-62 96-71 109-12 18 8 36 8 36l-45-22c0 0-17-5 0-69 8-29 88-198 100-228 11-30 54-107 54-107z m-160 384c6 0 57 52 83 52 48 0 86-69 90-69 5 0-13 41-21 62-9 21-15 61-60 61-44 0-67-21-77-49-10-28-21-57-15-57z m-68-271c0 0 18-24 37-47 17-22 21-60 21-60 0 0 123 249 138 275 18 31 46 83 46 83l-30 41c0 0-105-135-132-173-27-39-80-119-80-119z m228-113c0 0 2 24 18 45 16 21 52 55 52 55 0 0-102 166-116 181-13 14-62 96-71 109-12 18 8 36 8 36l-45-22c0 0-17-5 0-69 8-29 88-198 100-228 11-30 54-107 54-107z m-160 384c6 0 57 52 83 52 48 0 86-69 90-69 5 0-13 41-21 62-9 21-15 61-60 61-44 0-67-21-77-49-10-28-21-57-15-57z m-68-271c0 0 18-24 37-47 17-22 21-60 21-60 0 0 123 249 138 275 18 31 46 83 46 83l-30 41c0 0-105-135-132-173-27-39-80-119-80-119z m228-113c0 0 2 24 18 45 16 21 52 55 52 55 0 0-102 166-116 181-13 14-62 96-71 109-12 18 8 36 8 36l-45-22c0 0-17-5 0-69 8-29 88-198 100-228 11-30 54-107 54-107z m-160 384c6 0 57 52 83 52 48 0 86-69 90-69 5 0-13 41-21 62-9 21-15 61-60 61-44 0-67-21-77-49-10-28-21-57-15-57z"/>
<glyph unicode="&#99;" d="M256 506c70 0 129-24 178-73 24-24 42-50 54-81 12-30 18-62 18-96 0-34-6-66-18-96-12-30-30-57-53-80-25-24-52-42-83-55-31-13-63-19-96-19-34 0-65 6-95 19-31 12-58 31-82 55-24 24-42 51-55 81-12 30-18 62-18 95 0 33 6 65 19 95 12 31 31 58 55 82 48 49 106 73 176 73z m0-45c-57 0-105-20-144-60-20-20-35-42-45-67-11-25-16-51-16-78 0-27 5-53 16-78 10-24 25-47 45-66 20-20 42-35 67-45 24-10 50-15 77-15 27 0 53 5 78 15 26 11 48 26 69 46 39 38 58 85 58 143 0 28-5 54-15 79-10 24-25 46-44 66-41 40-89 60-146 60z m-3-163l-33-18c-4 8-8 13-13 16-6 3-10 4-15 4-22 0-33-15-33-44 0-13 2-24 8-32 6-8 14-12 25-12 15 0 25 7 31 21l31-15c-7-13-16-22-28-29-11-7-24-11-38-11-22 0-40 7-54 21-14 13-21 33-21 57 0 24 7 43 21 57 14 14 32 21 53 21 31 0 53-12 66-36z m145 0l-33-18c-4 8-8 13-14 16-5 3-10 4-15 4-22 0-33-15-33-44 0-13 3-24 8-32 6-8 14-12 25-12 15 0 25 7 31 21l32-15c-7-13-17-22-28-29-12-7-24-11-38-11-23 0-41 7-54 21-14 13-21 33-21 57 0 24 7 43 21 57 14 14 31 21 53 21 31 0 53-12 66-36z"/>
<glyph unicode="&#100;" d="M400 358c-10 51-55 90-109 90-33 0-63-15-84-39-35 9-72-11-82-46-36-11-62-45-62-83 0-48 39-87 87-87l213 0c47 0 86 39 86 87 0 33-19 63-49 78z m-37-128l-213 0c-28 0-50 22-50 50 0 32 26 56 59 50-11 37 41 58 61 31 5 13 24 49 71 49 36 0 73-24 74-80 24 0 47-17 47-50 0-28-22-50-49-50z m-215-156c-5-9-17-12-26-7-9 5-12 16-7 25l38 66c5 9 17 12 26 7 9-6 12-17 7-26z m89 0c-5-9-17-12-26-7-9 5-12 16-7 25l38 66c5 9 17 12 26 7 9-6 12-17 7-26z m89 0c-5-9-17-12-26-7-9 5-12 16-7 25l38 66c5 9 17 12 26 7 9-6 12-17 7-26z"/>
<glyph unicode="&#101;" d="M129 64l-43 0 0 384 43 0z m297 355c0 0-28-24-63-24-56 0-58 49-123 49-35 0-68-17-82-28 0-12 0-203 0-203 20 14 50 29 82 29 62 0 71-46 126-46 35 0 60 22 60 22z"/>
<glyph unicode="&#102;" d="M309 256l-35 0c0-56 0-125 0-125l-52 0c0 0 0 68 0 125l-24 0 0 44 24 0 0 29c0 20 10 52 53 52l38 0 0-43c0 0-23 0-27 0-5 0-11-2-11-11l0-27 40 0z"/>
<glyph unicode="&#103;" d="M187 200c-31 0-56 25-56 56 0 31 25 56 56 56 30 0 55-25 55-56 0-31-25-56-55-56z m138 0c-30 0-55 25-55 56 0 31 25 56 55 56 31 0 56-25 56-56 0-31-25-56-56-56z"/>
<glyph unicode="&#104;" d="M256 411c86 0 155-69 155-155 0-86-69-155-155-155-86 0-155 69-155 155 0 86 69 155 155 155m0 37c-106 0-192-86-192-192 0-106 86-192 192-192 106 0 192 86 192 192 0 106-86 192-192 192z m-3-300c-26-9-48 1-44 27 5 25 29 79 33 89 4 10-3 13-11 9-4-2-10-7-15-12-2 3-4 6-6 10 9 9 24 20 41 25 21 5 56-3 41-43-11-28-18-48-23-62-5-15 1-18 9-12 7 4 13 10 19 15 2-4 3-5 5-10-9-9-32-30-49-36z m54 175c-12-10-29-10-39 0-10 11-8 28 3 38 12 10 30 10 40-1 10-10 8-27-4-37z"/>
<glyph unicode="&#105;" d="M256 77c-138 134-177 184-185 234-11 62 36 124 107 124 31 0 59-12 78-31 19 19 47 31 78 31 71 0 118-61 107-124-8-49-44-97-185-234z m-78 322c-29 0-53-15-65-39-31-63 38-127 143-232 105 106 174 169 143 232-12 24-36 39-65 39-47 0-67-37-78-54-10 16-28 54-78 54z m142-114l-40 0 0 40-48 0 0-40-40 0 0-48 40 0 0-40 48 0 0 40 40 0z"/>
<glyph unicode="&#106;" d="M290 381c0 0-54 0-74 0-37 0-68-28-68-58 0-31 20-56 56-56 2 0 4 0 7 1-2-5-4-9-4-14 0-9 5-14 11-20-5 0-9 0-14 0-43 0-73-30-73-58 0-28 36-45 79-45 49 0 79 28 79 56 0 22-5 33-28 51-7 5-22 16-22 23 0 8 2 12 15 22 12 10 21 23 21 39 0 18-7 34-21 42l20 0z m-25-190c1-3 1-5 1-8 0-23-15-40-56-40-30 0-51 19-51 41 0 23 25 41 54 41 7 0 13-1 20-3 16-11 29-18 32-31z m-47 88c-20 0-39 19-42 45-4 26 9 46 29 45 20 0 37-22 41-48 3-26-9-43-28-42z m129 99l-17 0 0-34-34 0 0-17 34 0 0-35 17 0 0 35 34 0 0 17-34 0z"/>
<glyph unicode="&#107;" d="M164 131c-18 0-33 15-33 33 0 19 15 33 33 33 19 0 33-14 33-33 1-18-14-33-33-33z m84 0c0 31-12 61-34 83-22 22-51 34-83 34l0 48c91 0 165-74 165-165 0 0-48 0-48 0z m85 0c0 111-91 202-202 202l0 48c138 0 250-112 250-250z"/>
<glyph unicode="&#108;" d="M376 149c12 12 18 28 18 45l-6 210c-1 39-33 70-72 70l-120 0c-39 0-71-31-72-70l-6-210c0-17 6-33 18-45 4-5 9-8 14-11l-27-100 40 0 10 38 166 0 10-38 40 0-27 100c5 3 10 6 14 11z m-44 15c-17 0-31 14-31 31 0 17 14 31 31 31 17 0 31-14 31-31 0-17-14-31-31-31z m-115 278c0 6 4 11 10 11l59 0c6 0 10-5 10-11l0 0c0-6-4-11-10-11l-59 0c-6 0-10 5-10 11z m-62-53c1 12 11 21 23 21l160 0c11 0 21-9 22-21l3-73c0-6-2-12-7-16-4-5-10-7-16-7l-165 0c-6 0-12 2-16 7-4 4-7 10-6 16z m25-163c17 0 31-14 31-31 0-17-14-31-31-31-17 0-31 14-31 31 0 17 14 31 31 31z m-1-128l9 32 136 0 9-32z"/>
<glyph unicode="&#109;" d="M328 414c0 40-32 72-72 72-40 0-72-32-72-72l0-217c-18-19-29-43-29-71 0-55 45-100 101-100 56 0 101 45 101 100 0 28-11 52-29 71z m-72-360c-3 0-6 1-9 1-35 5-63 34-63 71 0 24 12 44 29 58l0 230c0 24 19 44 43 44 24 0 43-20 43-44l0-231c18-13 29-34 29-57 0-40-32-72-72-72z m15 113l0 146-29 0 0-146c-17-6-29-22-29-41 0-24 20-43 44-43 24 0 43 19 43 43-1 19-13 35-29 41z"/>
<glyph unicode="&#110;" d="M356 307c0-2 0-4 0-7 0-67-52-146-147-146-29 0-55 9-78 23 4 0 8 0 12 0 24 0 46 8 64 22-22 1-41 15-48 36 3-1 7-1 10-1 5 0 9 0 14 2-24 4-41 25-41 50 0 0 0 1 0 1 6-4 14-7 23-7-14 10-23 25-23 43 0 10 3 18 7 26 25-32 63-52 106-54-1 4-1 8-1 12 0 29 22 51 51 51 15 0 28-6 37-16 12 3 23 7 33 13-4-12-12-22-23-28 10 1 21 4 30 8-8-12-16-21-26-28z"/>
<glyph unicode="&#111;" d="M142 142l0 28 76 48 0 19c-5 0-9 5-13 14-4 10-6 18-6 24l0 38c0 16 6 29 17 40 11 11 24 17 40 17 16 0 29-6 40-17 12-11 17-24 17-40l0-38c0-6-2-14-6-24-4-10-8-14-13-14l0-19 76-48 0-28z"/>
<glyph unicode="&#112;" d="M475 315c0 13-11 24-25 24l-28 0-21 54c-5 14-21 28-35 32 0 0-36 10-110 10-74 0-110-10-110-10-14-4-30-18-35-32l-21-54-29 0c-13 0-24-11-24-24 0-13 11-24 24-24l11 0-8-19c-5-14-9-37-9-51l0-114c0-16 14-30 31-30 16 0 30 14 30 30l0 18 280 0 0-18c0-16 14-30 30-30 17 0 31 14 31 30l0 114c0 14-4 37-9 51l-8 19 11 0c13 0 24 11 24 24z m-360-7l24 67c2 4 7 8 12 8l210 0c5 0 10-4 12-8l24-67c2-5-1-8-5-8l-271 0c-5 0-8 3-6 8z m-1-109c-13 0-24 11-24 24 0 13 11 24 24 24 13 0 24-11 24-24 0-13-11-24-24-24z m284 0c-13 0-24 11-24 24 0 13 11 24 24 24 13 0 24-11 24-24 0-13-11-24-24-24z"/>
<glyph unicode="&#113;" d="M249 107c-4-4-10-4-14 0-1 2-2 4-2 7l0 35c0 5-4 8-8 8-2 0-3 0-4-1-2-1-4-2-6-3l-7-3c-18-8-38-12-60-12l-110 0c-21 0-38 17-38 38l0 190c0 21 17 38 38 38l102 0c22 0 44-6 62-16l0 0c21-10 35-32 35-58 0-21-10-41-27-52 17-7 30-20 37-36l72 138c8 16 25 28 45 28 20 0 37-12 45-28l0 0 97-188 0 0c4-5 5-12 5-19 0-20-17-37-38-37-15 0-28 9-34 22l0 0c-3 7-10 12-19 12l-105 0c-2 0-4-1-6-2z"/>
<glyph unicode="&#114;" d="M286 354l14 0 0-54c0-1 1-2 2-3 0-1 1-1 2-1 1 0 3 0 4 2 2 1 3 2 5 4l0 52 14 0 0-70-14 0 0 8c-3-3-5-5-8-6-3-2-6-3-9-3-3 0-5 1-7 4-2 2-2 5-2 9l0 58z m-91 24l10-37 1 0 10 37 16 0-19-55 0-39-16 0 0 37-19 57z m74-28c-4 4-8 6-14 6-6 0-12-2-15-5-4-3-6-7-6-13l0-36c0-6 2-11 6-15 3-3 8-5 14-5 7 0 12 2 16 5 3 4 5 8 5 15l0 35c0 5-3 10-6 13z m-9-50c0-1-1-3-2-4-1-1-3-2-4-2-2 0-4 1-5 2-1 1-2 2-2 4l0 38c0 2 1 3 2 4 1 1 2 1 4 1 2 0 4-1 5-1 1-1 1-2 1-4l0-38z m19-86c-1 0-1 0-3-1-1 0-1-1-2-1l0-40c1-1 2-1 2-2 2 0 2 0 3 0 2 0 3 0 4 1 0 1 1 2 1 4l0 33c0 2-1 4-1 5-1 0-2 1-4 1z m48-2c0 1-2 1-4 1-2 0-3 0-4-1-2-2-2-3-2-6l0-6 12 0 0 6c-1 3-1 5-2 6z m9 50l-160 0c-25 0-45-21-45-46l0-37c0-25 20-45 45-45l160 0c25 0 45 20 45 45l0 37c0 25-20 46-45 46z m-126-29l-15 0 0-73-14 0 0 73-15 0 0 13 44 0z m41-73l-12 0 0 7c-2-3-5-5-7-6-3-1-6-2-8-2-3 0-5 1-7 3-1 1-2 4-2 8l0 53 13 0 0-48c0-2 0-3 0-4 1 0 2-1 3-1 1 0 2 1 3 1 2 1 3 3 4 4l0 48 13 0 0-63z m47 13c0-5-2-8-3-10-2-3-5-4-9-4-2 0-4 1-7 1-1 2-4 3-5 5l0-5-13 0 0 86 13 0 0-28c1 2 3 3 5 4 2 2 4 2 6 2 4 0 7-1 9-4 2-3 4-7 4-12z m43 17l-24 0 0-12c0-3 0-6 1-7 1-1 2-1 5-1 2 0 3 0 4 1 1 1 1 4 1 8l0 2 13 0 0-3c0-6-1-11-4-15-4-3-8-5-14-5-6 0-11 2-14 5-4 4-5 9-5 14l0 29c0 6 1 10 5 14 3 3 8 5 14 5 5 0 10-2 13-5 3-3 5-8 5-13l0-17z"/>
<glyph unicode="&#115;" d="M108 192c-2-2-4-2-6 0-1 0-1 1-1 2l0 16c0 2-2 3-4 3 0 0-1 0-1 0l0 0c-1-1-2-1-3-1l-3-2c-8-3-17-5-26-5l-48 0c-9 0-16 7-16 16l0 83c0 9 7 16 16 16l45 0c9 0 18-2 26-7l0 0c10-4 16-14 16-25 0-9-5-18-12-23 7-2 13-8 16-15l31 59c4 8 11 13 20 13 8 0 16-5 19-13l0 0 42-81 0 0c2-2 2-5 2-8 0-9-7-16-16-16-7 0-12 4-15 9l0 0c-1 4-4 6-8 6l-46 0c0 0-1-1-2-1z m139 107l26 0 0-6-20 0 0-9 18 0 0-5-18 0 0-10 20 0 0-5-26 0z m30 0l6 0 19-24 0 24 6 0 0-35-6 0-19 25 0-25-6 0z m57-6l-11 0 0 6 28 0 0-6-11 0 0-29-6 0z m19-12l0 0c0 10 7 18 18 18 10 0 18-8 18-17l0-1c0-9-8-18-18-18-11 0-18 9-18 18z m30 0l0 0c0 7-5 13-12 13-7 0-12-6-12-12l0-1c0-6 5-12 12-12 7 0 12 6 12 12z m10 18l13 0c11 0 19-8 19-17l0-1c0-9-8-17-19-17l-13 0z m13-29c7 0 12 5 12 11l0 0c0 7-5 12-12 12l-7 0 0-23z m21 11l0 0c0 10 8 18 19 18 10 0 18-8 18-17l0-1c0-9-8-18-18-18-11 0-19 9-19 18z m30 0l0 0c0 7-5 13-11 13-7 0-12-6-12-12l0-1c0-6 5-12 12-12 7 0 11 6 11 12z m-210-30l26 0 0-6-20 0 0-9 18 0 0-5-18 0 0-10 20 0 0-5-26 0z m28-30l4 4c3-3 6-4 11-4 3 0 6 1 6 4l0 0c0 3-2 4-8 6-7 1-12 4-12 10l0 0c0 6 5 10 12 10 5 0 9-1 13-4l-3-5c-4 2-7 4-10 4-3 0-6-2-6-4l0-1c0-2 2-3 9-5 7-2 11-4 11-10l0 0c0-7-5-11-13-11-5 0-10 2-14 6z m39 24l-11 0 0 6 29 0 0-6-11 0 0-29-7 0 0 29z m33 6l6 0 15-35-6 0-4 8-16 0-4-8-6 0z m9-21l-6 14-6-14z m-3 32l5-3-6-6-4 0z m16-41l3 4c4-3 7-4 11-4 4 0 6 1 6 4l0 0c0 3-1 4-7 6-8 1-12 4-12 10l0 0c0 6 5 10 12 10 5 0 9-1 13-4l-4-5c-3 2-6 4-9 4-4 0-6-2-6-4l0-1c0-2 2-3 8-5 8-2 12-4 12-10l0 0c0-7-6-11-13-11-5 0-10 2-14 6z m39 30l7 0 11-27 10 27 7 0-15-35-5 0z m36-18l0 0c0 10 7 18 18 18 11 0 18-8 18-18l0 0c0-10-7-18-18-18-11 0-18 8-18 18z m30 0l0 0c0 7-5 13-12 13-7 0-12-6-12-13l0 0c0-7 5-12 12-12 7 0 12 5 12 12z m8-12l4 4c3-3 6-4 11-4 3 0 6 1 6 4l0 0c0 3-2 4-8 6-7 1-12 4-12 10l0 0c0 6 5 10 12 10 5 0 9-1 13-4l-3-5c-3 2-7 4-10 4-3 0-5-2-5-4l0-1c0-2 1-3 8-5 7-2 11-4 11-10l0 0c0-7-5-11-12-11-6 0-11 2-15 6z"/>
<glyph unicode="&#116;" d="M94 270l13 0c4 0 6-1 8-2 1-2 2-3 2-5l0 0c0-4-2-6-4-7 3-1 6-3 6-7l0 0c0-5-5-8-11-8l-14 0z m12-12c4 0 6 1 6 4l0 0c0 2-2 4-5 4l-8 0 0-8z m2-12c3 0 5 1 5 4l0 0c0 2-2 4-6 4l-8 0 0-8z m15 3l0 14 5 0 0-12c0-4 1-6 4-6 3 0 5 2 5 6l0 12 6 0 0-22-6 0 0 3c-1-2-3-3-6-3-5 0-8 3-8 8m24 3l0 0c0 6 4 12 11 12 7 0 10-6 10-12 0-1 0-1 0-2l-16 0c0-3 3-5 6-5 3 0 4 1 6 2l3-2c-2-3-5-5-9-5-6 0-11 5-11 12m16 2c0 3-2 5-5 5-3 0-6-2-6-5z m10 9l5 0 0-3c1 2 3 4 6 4 5 0 8-4 8-9l0-14-5 0 0 13c0 3-1 5-4 5-3 0-5-2-5-6l0-12-5 0z m23-11l0 0c0 6 5 12 12 12 7 0 12-6 12-12l0 0c0-6-5-12-12-12-7 0-12 6-12 12m19 0l0 0c0 4-3 7-7 7-4 0-6-3-6-7l0 0c0-4 2-7 6-7 4 0 7 3 7 7m8-8l2 3c2-2 5-2 7-2 2 0 3 0 3 2l0 0c0 2-2 2-4 3-4 1-7 2-7 7l0 0c0 4 3 6 8 6 2 0 5-1 8-2l-2-4c-3 2-5 2-7 2-2 0-3 0-3-2l0 0c0-1 3-2 5-3 3-1 7-2 7-6l0-1c0-4-3-6-8-6-3 0-7 1-9 3m44 26l5 0 13-29-6 0-3 7-13 0-3-7-6 0z m8-17l-6 11-5-11z m14 18l5 0 0-5-5 0z m0-8l5 0 0-22-5 0z m11 0l5 0 0-5c1 3 4 6 8 5l0-5-1 0c-4 0-7-3-7-9l0-8-5 0z m14-11l0 0c0 6 5 12 11 12 7 0 11-6 11-12 0-1-1-1-1-2l-16 0c1-3 3-5 7-5 2 0 4 1 6 2l2-2c-2-3-4-5-9-5-6 0-11 5-11 12m16 2c0 3-2 5-5 5-3 0-5-2-6-5z m8-10l2 3c3-2 5-2 7-2 3 0 4 0 4 2l0 0c0 2-2 2-5 3-3 1-7 2-7 7l0 0c0 4 4 6 8 6 3 0 6-1 8-2l-2-4c-2 2-4 2-6 2-2 0-3 0-3-2l0 0c0-1 2-2 5-3 3-1 7-2 7-6l0-1c0-4-4-6-9-6-3 0-6 1-9 3m33 12l0 0c0 8 6 15 15 15 5 0 9-2 12-5l-4-4c-2 3-5 4-8 4-6 0-10-5-10-10l0 0c0-6 4-11 10-11 4 0 6 2 8 4l4-3c-3-4-7-6-12-6-9 0-15 7-15 16m31 15l5 0 0-5-5 0z m0-8l5 0 0-22-5 0z m11-14l0 14 5 0 0-12c0-4 1-6 4-6 3 0 5 2 5 6l0 12 5 0 0-22-5 0 0 3c-1-2-3-3-7-3-5 0-7 3-7 8m24 3l0 0c0 7 5 12 10 12 4 0 6-2 8-4l0 12 5 0 0-31-5 0 0 4c-2-3-4-4-8-4-5 0-10 4-10 11m18 0l0 0c0 4-3 7-7 7-3 0-6-3-6-7l0 0c0-4 3-7 6-7 4 0 7 3 7 7m24-11l0 3c-2-2-4-3-7-3-5 0-8 2-8 6l0 0c0 5 4 8 9 8 2 0 4-1 6-1l0 0c0 3-2 5-6 5-2 0-4-1-6-1l-1 4c2 1 4 1 8 1 7 0 10-3 10-9l0-13z m0 9c-1 1-3 1-5 1-3 0-5-1-5-3l0 0c0-3 2-4 4-4 3 0 6 2 6 5l0 1z m9 2l0 0c0 7 5 12 10 12 4 0 6-2 8-4l0 12 5 0 0-31-5 0 0 4c-2-3-4-4-8-4-5 0-10 4-10 11m18 0l0 0c0 4-3 7-7 7-3 0-6-3-6-7l0 0c0-4 3-7 6-7 4 0 7 3 7 7m-469 35c0 0 0-1 0-1 0 0 0 0 0 0 0 0 1 0 1 0 0 0-1 1-1 1m22-7l0 0c-2 0-5 1-7 2 0 0-1 0-2 1-2 0-3 0-5 0 0 0-1 0-1 0-1 0-2 0-3 0 0 1-1 2-1 3 0 1-1 2-2 3 0 0-1 0-1 0-1 0-2-1-2-2l0 0c-1-1-1-1-1-2 0 0 1 0 1-1 1 0 1-1 1-1l0 0c0-1 0-1 0-2-1 1-3 2-5 2 0 0-1 0-2 0-2 0-4 0-5-1-1 0-1-1-2-1-2-1-3-1-5-2 0 0-1 0-1 0l0 0c0 0 0 0 0 0l0 0c0 0-1 0-1-1 0 0 0 0 1-1 1 0 2-1 4-1 0 0 0 0 1 0 0 1 1 1 1 1 1 0 2 0 3 0 0 0 0 0 1 0 1-1 2-2 3-3 0 0 0 0 0-1l0 0c0 0 1-1 1-1 0-1-1-1-2-2 0 0 0 0 0 0 0 0 0 0-1 0-1-1-2-2-2-4 0 0 0-1 1-1 0 0 0 0 0 0 1 0 1 0 2 0 0 0 0 1 0 1 1 0 1 0 2 0 1 0 2 0 3-1 0 0 0 0 1-1 0 0 0 0 1-1 0 0 0 0 1 0 0 0 0 0 1 1 0 0 0 1 0 2 0 0 0 1 0 2 0 0 0 1 0 1 0 0 1 0 1 0 0 0 0 0 1 0 0 0 0 0 0 0 2 0 3 1 3 3 1 0 1 1 1 1 1 0 2 0 2 1 0 0 0 0 0 0 1 1 2 2 3 2 1 0 1 0 1 0 1 0 1 0 1-1 1 0 2 0 2 0 1 0 2 0 3 1 1 0 3 1 4 2l0 1c1 0 1 0 1 0 0 1-1 1-1 1m-29-5c-1 0-1 1-1 2-1 1-3 1-5 1 0 0-1 0-2 0-1 0-2 0-3 0 0 0 0 0-1 0 2 0 3 1 4 2 2 0 3 1 5 2 1 0 2 0 3 0 1 0 3 0 4-1 2-1 2-2 2-3-1-1-2-2-3-4 0 0 0 0 0 0 0 0-1-1-2-1 0 0 0 0 0 0-1 1-1 1-1 2m11-2c0-1 0-2-1-2-1-1-1-1-2-1 0 0 0 0 0 0 0 0-1 0-1 0 0 0-1 0-1 0-1-1-1-3-1-5l0 0 0 0c-1 1-2 2-4 2 0 0 0 0-1 0 0 0-1 0-1 0-1 0-1 0-2 0 0 0 0 0 0 0 0-1-1-1-1-1 0 0 0 0 0 0 0 0 0 0 0 0 0 1 1 1 1 2l1 0c1 1 2 2 3 2 2 2 5 4 6 7 0 1 1 3 0 5l0 0c0 1 0 2 0 2 0 1-1 1-1 2 0 0 0 0 0 0 0 0 0 1 1 1 0 0 1 0 1 0 1-1 1-3 2-4 0 0 0 0 0-1 0-2 2-6 1-9m15 5c-2-1-3-1-4-1l0 0c0 0-1 0-2 0 0 0-1 0-1 0-2 0-3 0-3-1-1 0-1 0-2-1 0 0 0-1-1-1 0 0 0 0 0 0l0 0c0 0 0 0 0 0 0 0 0 0 0 0 0 1 0 1 0 2l-1 0c0 1 0 2 0 3 0 0 0 0 0 0 0 1-1 2 0 3 0 0 1 0 1 0 0 0 1 0 1 0l1 0c0 0 1 0 1 0 1 0 2-1 4-1 1 0 1-1 2-1 2 0 3-1 5-1 0-1-1-1-1-1m18-13c-1 3-1 6-2 9-1 3-3 5-4 8-1 2-3 4-4 6-2 2-4 4-7 6-2 2-5 3-7 5-3 1-6 2-9 2-3 0-6 0-9 0-2-1-5-2-8-3-3-1-5-3-7-4-3-2-5-4-7-7-2-2-3-5-4-7-2-3-3-6-4-9-1-3-1-6-2-9 0-3 0-7 0-10 0-3 1-7 2-10 1-3 2-6 3-8 1-3 3-6 4-8 2-3 7-7 7-7 6-5 14-8 21-8l0 0c3 0 6 0 9 1 3 1 5 2 8 4 3 1 5 3 7 5 2 2 4 5 6 7 1 3 3 5 4 8 1 3 2 6 2 9 1 3 1 6 2 10 0 3-1 6-1 10m-66-22l-1 0 1 3c0 0 0 0 0 0 0-1 0-2 0-3m0 9l-2 1c0 0 0 0 0 0l5 0c0 0 0 0 0 0l-2-1c0 0-1 0-1 0m-2 2l2 1c0 0 0-1 0-1z m1 5l3 0c0 0 0 0 0 0l-1-1c0 0-1 0-1 0l-1 1c0 0 0 0 0 0m-1 0l2 2c0-1 0-1 0-2z m3 2l2-2-2 0c0 1 0 1 0 2m0-6l2-1-2 0c0 0 0 1 0 1m0-12c0 1 0 2 0 3 0 0 0 0 0 0l1-3z m28-29c-5 0-11 2-16 5 4 0 8-1 11-1 4-1 8-1 11-2 2 0 3 0 5 0-4-1-7-2-11-2m17 5c-4 0-7 0-11 1-3 0-7 1-11 1-3 1-7 1-11 1-1 0-2 0-4 0-1 1-2 2-3 3 4 1 8 1 11 1 4-1 8-1 12-2 2 0 3 0 5-1 1 0 5 0 6 0 4 0 7 0 11 1-1-2-3-3-5-5m8 9c-3-1-7-1-11-2-1 0-3 0-5 0-2 0-4 1-6 1-3 1-7 1-11 2-4 0-7 0-11 0-2 0-4 0-6-1-1 1-2 2-2 3 3 1 7 1 10 1 3 1 7 0 10 0 3 0 7-1 10-2 3 0 6 0 9 0l0 0c3 0 6 0 9 1 3 0 5 0 7 1-1-1-2-3-3-4m-50 11c-1 1-1 3-1 3l5 12c0 0 0 0 0 0z m4 11c0-5 0-10 0-12-1 0-2 1-3 1l3 11c0 1 0 0 0 0m-2 10l4 0c0 0 0 0 0 0l-2-1c0 0 0 0 0 0l-2 1c0 0 0 0 0 0m0 1l2 1c0 0 0-1 0-1z m3 1l2-1-2 0c0 0 0 1 0 1m4-17c-1-2-1-4-1-6 0 0 0 0 0 0l-1 7 1 2z m-1 4l1 1c0 0 0 0 0 0 0-1 0-2 0-3z m-2-4l2-7c-1 0-1 0-2 0 0 0 0 0-1 0 0 0 0 0 0 0 0 1 0 2 0 4z m-1-2c0 2 0 5 0 7 0 0 0 1 0 0l1-4z m1 4l-1 7c0 0 0 0 0 0l2-5z m4-3l0 1c0 2 0 3-1 5 0 0 1 0 1 0l3-7c-1-1-1-1-2-2z m1-4c-1 0-1 0-1-1 0 1 0 3 0 4z m3 3l3 7c0-2 0-5 0-7l-2 0c0 0-1 0-1 0m23 9l5 0c0 0 0 0 0 0 0 0-2-1-2-1 0 0 0 0 0 0l-3 1c0 0 0 0 0 0m0 1l2 2c0-1 0-2 0-2z m1 7c0 0 0 0 0 0l4 0c0 0 0 0 0 0l0 0 0 0c0 0 0 0 0 0l-2-1c0 0 0 0 0 0l-2 1c0 0 0 0 0 0m-1 1l3 2c0-1-1-1-1-2z m3 2l2-2-2 0c0 1 0 1 0 2m0-8l3-2-3 0c0 1 0 1 0 2m8 2l4 0c0 0 0 0 0 0l-2-1c0 0 0 0 0 0l-2 1c-1 0-1 0 0 0m-1 1l2 1c0 0 0-1 0-1z m3 1l2-1-2 0c0 0 0 1 0 1m-1-9c0-5 0-10 0-14-1 0-2 0-3 0l2 9 1 5c0 1 0 1 0 0m0 3l-4-16-1 4 0 0 5 12c0 0 0 0 0 0m-4-17c-1 0-2 1-3 1l1 3z m-3 2c-1 1-1 1-1 2 0 2 0 6-1 9l3-8z m-6 2l-6 0 9 10z m3 9c0-2 0-9 0-9l-2 0z m11 1c0 1 0 1 0 0l3-10c-1-1-2-2-3-3 0 2 0 13 0 13m3-10l-3 12c0 1 1 1 1 1l5-13z m5 6c0-2-1-4-1-6l-7 16 3 1c0 0 0 0 0 1 0 0-3 2-3 2l0 5c0 0 1 0 1 0 0 0 1 0 1 0 0 0 1 0 1 0 0 0 1 0 1 0-1 0-1 1-2 1 0 0-1 0-1 0 0 0-1 0-1 0 0 1 0 1 0 1l0 0c-1-1-1-3-1-4 0-1 0-2 0-3 0 0 0 0 0 0l-3-2c0-1 0-1 0-1l3-1-6-14-2 9 3 1c0 0 0 1 0 1 0 0-3 2-4 3 0 1 0 2 0 3l3 1c1 0 1 1 0 1 0 0-2 2-3 2 0 2 0 4 0 7 0 0 1 0 1 0 0 0 0 0 0 0 1 0 1 0 1 0 1 0 1 0 1 0 1 0 1 0 1 0 0 0-1 1-2 1 0 0 0 0-1 0 0 0-1 0-1 0 0 1 0 1 0 1l0 0 0 0c0-1 0-2 0-3 0-2 0-3 0-4 0 0 0-1 0-2l-3-2c-1 0-1-1 0-1l2-1 0 0c0-1 0-2 0-3l-3-3c0 0 0-1 0-1l3-1-10-11c0 0-1 0-1 0-1-1-1-1 0-1 0-1 0-1 0-1 0 0 1 0 1 0 0 0 0 0 0 0 0 0 1-3 5-5 0 0 0 0 0 0 0 0 0 0 0 0 0 0 0 0 0 0-4 0-8 1-11 2-2 0-3 0-4 0-1 0-2 0-3 1 0 0 0 0 0 0l0 0c0 0 0 0 0 0l0 0c0 0 0 0 0 0 0 0 0 0 0 0 0 0 0 0 0 0 5 1 6 5 6 5 0 0 0 0 0 0 0 0 0 0 0 0 1 0 1 1 1 1 0 0 0 1 0 1 0 0-2 0-2 0l0 0 0 0c0 1 0 3 0 4 0 0 0 0 1 0 0 0 0 0 0 0 1 1 1 0 1 0 1 0 1 0 1 0 1 0 1 1 1 1 0 0-1 0-2 1 0 0 0 0-1 0 0 0-1 0-1 0 0 0 0 0 0 1l0 0c0-1 0-5 0-7l-3 0c0 3 0 7 0 9l2 5c0-1 1-1 1-1 0 0 1 0 1 0 0 0 0-1 1-1 0 0 0 0 1 0-1 1-1 1-1 2-1 0-1 0-1 1-1 0-1 0-1 0 0 0 0 1 0 1 0 0 0 0 0 0 0 0 0 0 0 0 0 0 0 0 0 0-1 0-1-1-1-1l-2-5c0 1 0 2 0 2 0 1 0 2 0 3l-1 0c0-1 0-2 0-3 0-1 0-2 0-3l-4-9-4 9c0 1 0 2 0 3 0 2 0 3 0 4l0 0c0-1 0-2 0-4 0-1 0-2 0-3l-1-3-3 7c0 1 0 2 0 3l2 1c1 0 1 1 0 1 0 0-2 2-2 2 0 2 0 4 0 7 0 0 0 0 0 0 0 0 0 0 1 0 0 0 0 0 1 0 0 0 0 0 1 0 0 0 0 0 1 0-1 0-2 1-2 1-1 0-1 0-1 0-1 0-1 0-2 0 0 1 0 1 0 1l0 0c0-1 0-3 0-4 0-2 0-3 0-4 0-1 0-1 0-1l-3-2c0 0 0-1 0-1l3-1c0-1 0-3 0-3l-5-12-1 2 0 0 0 0 1 0c0 0 0 0 0 1 0 0 1 0 1 0 0 0-1 0-1 0 0 0 0 0 0 0l-1 0-1 2c0 1 0 2 0 2l3 2c0 0 0 0 0 1 0 0-3 1-3 2 0 0 0 1 0 2l3 1c0 0 0 0 0 0 0 0-3 2-3 2 0 2 0 3 0 4 0 0 0 0 1 0 0 0 0 0 1 0 0 0 0 0 1 0 0 0 0 0 0 0 0 0-1 1-1 1-1 0-1 0-1 0-1 0-1 0-1 0 0 0 0 1 0 1l-1 0c0-1 0-2 0-3 0-1 0-2 0-3l-2-2c-1 0-1 0 0 0l2-1c0-1 0-2 0-2l-3-2c0-1 0-1 0-1l3-2c0 0 0-1 0-2l-1-2-1 0c0 0 0 0 0 0 0 0-1 0-1 0 0 0 1 0 1 0 0-1 0-1 0-1l1 0c0 0 0 0 0 0l0 0-1-3-1 0c-1 3-1 7-2 10 0 3 0 7 1 10 0 3 1 7 2 10 1 2 2 5 4 8 1 1 1 2 2 4 4-2 9 0 9 0 5 0 8 0 10 0l0 0c0 0 1 1 1 1-5 2-10 1-10 1-4 0-6 0-7 1 0 0 2 2 4 3 2-1 3-1 5-1 1-1 2-1 4-1 1 0 2-1 3-1 0 0 1 0 1-1 0 1 1 1 1 2l-1 0c-1 1-3 2-4 2-1 0-2 1-3 1-2 1-2 2-2 2 0 0 2 1 4 2 1-1 3-2 4-3 2-2 3-3 3-3 0 0 1 0 1 0-1 2-2 4-3 5 0 0-1 1-1 2 0 0 2 1 5 1l1-7c0 0 0 0 0 0 0 0 1 0 1 0l1 7c0 0 2 0 3-1 1 0 2 0 2 0 0-1-1-2-2-2-1-1-2-3-3-5 1 0 1 0 2 0 1 1 2 2 3 3 1 1 3 2 4 3 0 0 1-1 3-1l1-1c0 0-1-1-2-2-1 0-2-1-3-1-2 0-3-1-5-2l0 0c0-1 0-1 0-2 1 1 1 1 2 1 1 0 2 1 3 1 1 0 2 0 3 1 2 0 4 0 6 1 1-1 3-3 3-3-1-1-3-1-6-1 0 0-5 1-10-1 0 0 0 0 0-1l1 0c2 0 5 0 9 0 0 0 5-2 9 0 0-1 1-1 1-2 2-2 3-5 4-8 2-3 3-6 3-9 1-3 1-6 1-9 0-4 0-8-1-11"/>
<glyph unicode="&#117;" d="M342 123l-84 85-83-85-45 46 83 83-83 84 45 45 83-84 84 84 45-45-83-84 83-83z"/>
<glyph unicode="&#118;" d="M213 118l-122 121 52 52 70-70 160 160 51-51z"/>
<glyph unicode="&#119;" d="M50 409l0-306 412 0 0 306z m363-40l-157-130-157 130z m9-226l-332 0 0 178 166-137 166 137z"/>
<glyph unicode="&#120;" d="M287 187l-46-46-44 0 0-44-45 0 0-41-102 0 0 70 146 146c16-39 49-71 91-85z m139 233c48-49 48-127 0-176-49-48-127-48-176 0-48 49-48 127 0 176 49 48 127 48 176 0z m-25-25c-12 12-32 12-44 0-12-12-12-32 0-44 12-12 32-12 44 0 12 12 12 32 0 44z"/>
</font>
</defs>
</svg>
