<?xml version="1.0" encoding="utf-8"?>
<!-- Generator: Adobe Illustrator 17.0.0, SVG Export Plug-In . SVG Version: 6.00 Build 0)  -->
<!DOCTYPE svg PUBLIC "-//W3C//DTD SVG 1.1//EN" "http://www.w3.org/Graphics/SVG/1.1/DTD/svg11.dtd">
<svg version="1.1" id="Capa_1" xmlns="http://www.w3.org/2000/svg" xmlns:xlink="http://www.w3.org/1999/xlink" x="0px" y="0px"
	 width="28.498px" height="45px" viewBox="0 0 28.498 45" enable-background="new 0 0 28.498 45" xml:space="preserve">
<g>
	<path fill="#494949" d="M1,34.097c0,0,1.563,2.085,3.259,4.169c1.51,1.859,1.823,5.213,1.823,5.213S16.91,21.596,18.2,19.373
		c1.615-2.779,4.038-7.357,4.038-7.357l-2.604-3.587c0,0-9.251,11.857-11.597,15.245C5.69,27.06,1,34.097,1,34.097z"/>
	<path fill="#505050" d="M21.067,44c0,0,0.13-2.084,1.563-3.91c1.433-1.824,4.561-4.82,4.561-4.82S18.2,20.676,17.027,19.373
		c-1.173-1.303-5.5-8.509-6.254-9.643c-1.043-1.563,0.65-3.127,0.65-3.127L7.515,8.559c0,0-1.505,0.393,0,5.993
		c0.698,2.595,7.688,17.461,8.731,20.068C17.288,37.224,21.067,44,21.067,44z"/>
	<path fill="#5F5F5F" d="M6.994,10.252c0.521,0,4.948-4.561,7.297-4.561c4.17,0,7.507,6.125,7.899,6.125
		c0.39,0-1.122-3.649-1.904-5.472C19.503,4.519,18.981,1,15.073,1c-3.909,0-5.864,1.825-6.776,4.3
		C7.386,7.776,6.474,10.252,6.994,10.252z"/>
</g>
<g>
	<path fill="#545454" d="M1,34.097c0,0,1.563,2.085,3.259,4.169c1.51,1.859,1.823,5.213,1.823,5.213S16.91,21.596,18.2,19.373
		c1.615-2.779,4.038-7.357,4.038-7.357l-2.604-3.587c0,0-9.251,11.857-11.597,15.245C5.69,27.06,1,34.097,1,34.097z"/>
	<path fill="#5C5C5C" d="M21.067,44c0,0,0.13-2.084,1.563-3.91c1.433-1.824,4.561-4.82,4.561-4.82S18.2,20.676,17.027,19.373
		c-1.173-1.303-5.5-8.509-6.254-9.643c-1.043-1.563,0.65-3.127,0.65-3.127L7.515,8.559c0,0-1.505,0.393,0,5.993
		c0.698,2.595,7.688,17.461,8.731,20.068C17.288,37.224,21.067,44,21.067,44z"/>
	<path fill="#6A6A6A" d="M6.994,10.252c0.521,0,4.948-4.561,7.297-4.561c4.17,0,7.507,6.125,7.899,6.125
		c0.39,0-1.122-3.649-1.904-5.472C19.503,4.519,18.981,1,15.073,1c-3.909,0-5.864,1.825-6.776,4.3
		C7.386,7.776,6.474,10.252,6.994,10.252z"/>
</g>
<g>
	<path fill="#292929" d="M1,34.097c0,0,1.563,2.085,3.259,4.169c1.51,1.859,1.823,5.213,1.823,5.213S16.91,21.596,18.2,19.373
		c1.615-2.779,4.038-7.357,4.038-7.357l-2.604-3.587c0,0-9.251,11.857-11.597,15.245C5.69,27.06,1,34.097,1,34.097z"/>
	<path fill="#2D2D2D" d="M21.067,44c0,0,0.13-2.084,1.563-3.91c1.433-1.824,4.561-4.82,4.561-4.82S18.2,20.676,17.027,19.373
		c-1.173-1.303-5.5-8.509-6.254-9.643c-1.043-1.563,0.65-3.127,0.65-3.127L7.515,8.559c0,0-1.505,0.393,0,5.993
		c0.698,2.595,7.688,17.461,8.731,20.068C17.288,37.224,21.067,44,21.067,44z"/>
	<path fill="#3F3F3F" d="M6.994,10.252c0.521,0,4.948-4.561,7.297-4.561c4.17,0,7.507,6.125,7.899,6.125
		c0.39,0-1.122-3.649-1.904-5.472C19.503,4.519,18.981,1,15.073,1c-3.909,0-5.864,1.825-6.776,4.3
		C7.386,7.776,6.474,10.252,6.994,10.252z"/>
</g>
</svg>
