<?xml version="1.0" encoding="utf-8"?>
<!-- Generator: Adobe Illustrator 17.0.0, SVG Export Plug-In . SVG Version: 6.00 Build 0)  -->
<!DOCTYPE svg PUBLIC "-//W3C//DTD SVG 1.1//EN" "http://www.w3.org/Graphics/SVG/1.1/DTD/svg11.dtd">
<svg version="1.1" id="Capa_1" xmlns="http://www.w3.org/2000/svg" xmlns:xlink="http://www.w3.org/1999/xlink" x="0px" y="0px"
	 width="28.498px" height="45px" viewBox="0 0 28.498 45" enable-background="new 0 0 28.498 45" xml:space="preserve">
<g>
	<path fill="#B84674" d="M1,34.097c0,0,1.563,2.085,3.258,4.169c1.51,1.859,1.824,5.213,1.824,5.213S16.91,21.595,18.201,19.373
		c1.614-2.779,4.038-7.358,4.038-7.358l-2.605-3.588c0,0-9.251,11.858-11.597,15.245C5.69,27.06,1,34.097,1,34.097z"/>
	<path fill="#C64B7D" d="M21.067,44c0,0,0.13-2.084,1.564-3.91c1.433-1.823,4.56-4.819,4.56-4.819s-8.99-14.594-10.165-15.897
		c-1.172-1.303-5.499-8.51-6.253-9.644c-1.043-1.562,0.651-3.127,0.651-3.127L7.515,8.558c0,0-1.505,0.393,0,5.993
		c0.698,2.595,7.689,17.461,8.731,20.068C17.288,37.224,21.067,44,21.067,44z"/>
	<path fill="#CC5D8A" d="M6.994,10.252c0.521,0,4.948-4.561,7.297-4.561c4.17,0,7.507,6.125,7.898,6.125
		c0.39,0-1.122-3.649-1.904-5.472c-0.782-1.825-1.303-5.344-5.212-5.344c-3.909,0-5.864,1.825-6.776,4.299
		C7.385,7.775,6.474,10.252,6.994,10.252z"/>
</g>
</svg>
