<?xml version="1.0" encoding="utf-8"?>
<!-- Generator: Adobe Illustrator 17.0.0, SVG Export Plug-In . SVG Version: 6.00 Build 0)  -->
<!DOCTYPE svg PUBLIC "-//W3C//DTD SVG 1.1//EN" "http://www.w3.org/Graphics/SVG/1.1/DTD/svg11.dtd">
<svg version="1.1" id="Layer_1" xmlns="http://www.w3.org/2000/svg" xmlns:xlink="http://www.w3.org/1999/xlink" x="0px" y="0px"
	 width="72px" height="72px" viewBox="0 0 72 72" enable-background="new 0 0 72 72" xml:space="preserve">
<g>
	<path fill="#FFFFFF" d="M62.795,13.487c12.434,14.799,10.521,36.875-4.28,49.31C43.715,75.23,21.639,73.313,9.203,58.515
		c-12.434-14.8-10.516-36.875,4.283-49.31C28.285-3.231,50.361-1.314,62.795,13.487"/>
	<path fill="#EB2227" d="M59.878,15.936c11.083,13.19,9.376,32.863-3.817,43.945c-13.186,11.08-32.861,9.37-43.939-3.817
		C1.041,42.877,2.749,23.202,15.938,12.12C29.125,1.039,48.799,2.747,59.878,15.936"/>
	<path fill="#FCCF0F" d="M58.269,17.288c10.333,12.301,8.74,30.65-3.557,40.981c-12.301,10.334-30.648,8.739-40.98-3.561
		C3.399,42.412,4.99,24.067,17.289,13.732C29.589,3.4,47.936,4.99,58.269,17.288"/>
	<path fill="#231F20" d="M9.494,33.442l0.26-1.969l7.688-2.193l-0.29,2.196l-1.359,0.369l-0.375,2.846l1.223,0.697l-0.282,2.153
		L9.494,33.442z M14.157,32.229l-2.164,0.554l1.95,1.103L14.157,32.229z"/>
	<path fill="#231F20" d="M14.649,26.934l-0.015-0.01c-1.796-1.136-2.293-3.464-1.059-5.413c0.699-1.107,1.532-1.677,2.512-1.987
		l0.557,1.787c-0.65,0.215-1.148,0.531-1.541,1.153c-0.573,0.908-0.269,2.081,0.671,2.676l0.017,0.012
		c0.995,0.629,2.155,0.371,2.788-0.627c0.265-0.423,0.382-0.804,0.378-1.169l-0.746-0.473l-0.785,1.24l-1.249-0.789l1.832-2.894
		l2.771,1.752c0.113,1.005-0.058,2.192-0.781,3.335C18.761,27.485,16.512,28.115,14.649,26.934"/>
	<polygon fill="#231F20" points="18.796,15.604 23.771,12.275 24.728,13.703 21.449,15.896 22.062,16.814 25.033,14.826 
		25.914,16.148 22.947,18.137 23.588,19.096 26.911,16.871 27.868,18.299 22.845,21.659 	"/>
	<polygon fill="#231F20" points="28.008,10.482 29.902,10.148 33.589,13.402 32.922,9.612 34.928,9.257 36.198,16.427 
		34.417,16.742 30.59,13.364 31.289,17.296 29.277,17.653 	"/>
	<path fill="#231F20" d="M39.892,9.515l2.77,0.765c2.561,0.713,3.646,2.566,3.084,4.594l-0.003,0.019
		c-0.564,2.026-2.488,3.111-5.069,2.396l-2.725-0.758L39.892,9.515z M41.223,15.583c1.187,0.328,2.155-0.093,2.468-1.226
		l0.009-0.019c0.312-1.122-0.299-1.995-1.489-2.324l-0.807-0.225l-0.989,3.569L41.223,15.583z"/>
	<path fill="#231F20" d="M52.361,14.963l1.524,1.283l-2.317,7.651l-1.691-1.428l0.425-1.344l-2.19-1.854l-1.249,0.653l-1.657-1.403
		L52.361,14.963z M50.865,19.541l0.7-2.117l-1.976,1.04L50.865,19.541z"/>
	<path fill="#231F20" d="M16.219,49.662l0.017-0.015c1.506-1.498,3.831-1.52,5.37,0.03c1.041,1.044,1.265,2.157,1.082,3.241
		l-1.895-0.24c0.078-0.659-0.02-1.23-0.508-1.719c-0.71-0.718-1.827-0.614-2.581,0.135l-0.011,0.014
		c-0.778,0.77-0.879,1.877-0.17,2.594c0.532,0.535,1.095,0.598,1.779,0.53l0.291,1.831c-1.152,0.183-2.291,0.026-3.42-1.109
		C14.72,53.495,14.677,51.195,16.219,49.662"/>
	<path fill="#231F20" d="M22.44,56.014l1.785-3.679l1.827,0.886l-1.764,3.639c-0.458,0.946-0.203,1.625,0.523,1.977
		c0.722,0.353,1.401,0.15,1.847-0.766l1.788-3.687l1.831,0.887l-1.761,3.628c-1.027,2.115-2.674,2.46-4.522,1.568
		C22.151,59.571,21.449,58.059,22.44,56.014"/>
	<polygon fill="#231F20" points="31.325,55.456 33.312,55.699 32.648,61.174 36.116,61.6 35.904,63.354 30.445,62.687 	"/>
	<polygon fill="#231F20" points="38.614,57.558 36.476,57.923 36.178,56.178 42.427,55.113 42.722,56.854 40.587,57.22 
		41.512,62.655 39.54,62.993 	"/>
	<path fill="#231F20" d="M45.058,58.423l-2.104-3.505l1.741-1.047l2.085,3.472c0.539,0.899,1.246,1.058,1.936,0.645
		c0.692-0.415,0.895-1.098,0.372-1.973l-2.113-3.512l1.741-1.046l2.081,3.461c1.212,2.015,0.598,3.583-1.158,4.638
		C47.878,60.614,46.228,60.376,45.058,58.423"/>
	<path fill="#231F20" d="M49.42,50.754l2.109-2.69c0.676-0.867,1.379-1.288,2.069-1.361c0.59-0.078,1.164,0.098,1.73,0.542
		l0.015,0.013c0.879,0.685,1.097,1.603,0.848,2.547l3.062,0.21l-1.426,1.815l-2.632-0.214l-0.542,0.691l1.737,1.359l-1.234,1.574
		L49.42,50.754z M54.224,50.295c0.418-0.537,0.398-1.051-0.022-1.379l-0.014-0.012c-0.453-0.354-0.937-0.209-1.347,0.318
		l-0.809,1.031l1.375,1.078L54.224,50.295z"/>
	<path fill="#231F20" d="M54.403,42.723l0.579-1.842l7.918-0.737l-0.644,2.048l-1.398,0.114l-0.831,2.656l1.085,0.88l-0.632,2.008
		L54.403,42.723z M59.187,42.385l-2.215,0.147l1.729,1.397L59.187,42.385z"/>
	<polygon fill="#231F20" points="55.766,37.39 55.673,35.391 61.186,35.14 61.022,31.648 62.791,31.565 63.046,37.057 	"/>
	<polygon fill="#EB2227" points="13.661,44.179 13.324,42.106 14.93,43.464 16.797,42.503 16.004,44.447 17.492,45.928 
		15.399,45.77 14.454,47.645 13.955,45.607 11.881,45.286 	"/>
	<polygon fill="#EB2227" points="56.348,27.152 56.926,25.133 57.801,27.041 59.898,26.965 58.352,28.388 59.068,30.361 
		57.24,29.33 55.586,30.624 56.005,28.566 54.263,27.392 	"/>
	<path fill="#EB2227" d="M39.708,44.137c-0.125,0.279-0.453,0.402-0.735,0.279c-0.136-0.062-0.238-0.175-0.284-0.304l-0.742-1.927
		c-0.091-0.238-0.36-0.357-0.598-0.266c-0.075,0.027-0.141,0.076-0.192,0.135l0.007,0.001c-0.074,0.09-0.155,0.181-0.238,0.271
		l-0.309,0.326c-0.831,0.814-1.843,1.477-3.002,1.919l-3.991,1.533l-2.008,0.767c-1.14,0.44-2.417-0.131-2.851-1.267L20.8,35.277
		c-0.438-1.139,0.132-2.421,1.273-2.855l5.552-2.131c1.211-0.465,2.472-0.604,3.679-0.462c1.363,0.154,2.602,1.043,3.128,2.413
		c0.452,1.184,0.272,2.453-0.371,3.438c1.035,0.005,2.026,0.419,2.766,1.146l0.999-8.943c0.105-1.078,0.801-2.057,1.883-2.47
		c1.078-0.416,2.253-0.151,3.05,0.576l9.177,8.16c0.288,0.231,0.515,0.543,0.66,0.912c0.433,1.14-0.137,2.415-1.277,2.85
		c-0.831,0.32-1.742,0.102-2.339-0.487v-0.002c-0.32-0.328-0.812-0.454-1.27-0.283l-5.72,2.193c-0.11,0.048-0.204,0.131-0.255,0.248
		L39.708,44.137z"/>
</g>
</svg>
