<?xml version="1.0" encoding="utf-8"?>
<!-- Generator: Adobe Illustrator 17.0.0, SVG Export Plug-In . SVG Version: 6.00 Build 0)  -->
<!DOCTYPE svg PUBLIC "-//W3C//DTD SVG 1.1//EN" "http://www.w3.org/Graphics/SVG/1.1/DTD/svg11.dtd">
<svg version="1.1" id="Layer_1" xmlns="http://www.w3.org/2000/svg" xmlns:xlink="http://www.w3.org/1999/xlink" x="0px" y="0px"
	 width="72px" height="72px" viewBox="0 0 72 72" enable-background="new 0 0 72 72" xml:space="preserve">
<g>
	<g>
		<path fill="#FFFFFF" d="M9.204,58.514C-3.23,43.716-1.314,21.638,13.486,9.203C28.287-3.232,50.364-1.313,62.797,13.485
			c12.434,14.801,10.517,36.877-4.282,49.313C43.715,75.232,21.638,73.314,9.204,58.514"/>
	</g>
	<g>
		<defs>
			<path id="SVGID_1_" d="M6.675,45.814c0.059,0.175,0.12,0.348,0.182,0.522c3.312,9.224,10.557,15.904,19.17,18.824
				c5.52,1.836,11.575,2.173,17.516,0.677c0.943-0.241,1.885-0.529,2.819-0.865c16.053-5.762,24.397-23.45,18.635-39.504
				c-0.062-0.173-0.126-0.347-0.192-0.519L6.675,45.814z"/>
		</defs>
		<clipPath id="SVGID_2_">
			<use xlink:href="#SVGID_1_"  overflow="visible"/>
		</clipPath>
		<g clip-path="url(#SVGID_2_)">
			<g>
				<defs>
					<rect id="SVGID_3_" x="6.675" y="24.95" width="64.084" height="42.384"/>
				</defs>
				<clipPath id="SVGID_4_">
					<use xlink:href="#SVGID_3_"  overflow="visible"/>
				</clipPath>
				<rect x="6.675" y="24.95" clip-path="url(#SVGID_4_)" fill="#5C9E8B" width="1.218" height="42.384"/>
				<rect x="7.894" y="24.95" clip-path="url(#SVGID_4_)" fill="#5C9E8C" width="1.606" height="42.384"/>
				<rect x="9.499" y="24.95" clip-path="url(#SVGID_4_)" fill="#5C9E8D" width="1.606" height="42.384"/>
				<rect x="11.105" y="24.95" clip-path="url(#SVGID_4_)" fill="#5C9E8E" width="1.606" height="42.384"/>
				<rect x="12.711" y="24.95" clip-path="url(#SVGID_4_)" fill="#5D9E8F" width="1.606" height="42.384"/>
				<rect x="14.316" y="24.95" clip-path="url(#SVGID_4_)" fill="#5D9E90" width="1.606" height="42.384"/>
				<rect x="15.922" y="24.95" clip-path="url(#SVGID_4_)" fill="#5D9E91" width="1.606" height="42.384"/>
				<rect x="17.528" y="24.95" clip-path="url(#SVGID_4_)" fill="#5D9E92" width="1.606" height="42.384"/>
				<rect x="19.133" y="24.95" clip-path="url(#SVGID_4_)" fill="#5D9E93" width="1.606" height="42.384"/>
				<rect x="20.739" y="24.95" clip-path="url(#SVGID_4_)" fill="#5D9E94" width="1.606" height="42.384"/>
				<rect x="22.345" y="24.95" clip-path="url(#SVGID_4_)" fill="#5D9F95" width="1.606" height="42.384"/>
				<rect x="23.95" y="24.95" clip-path="url(#SVGID_4_)" fill="#5D9F96" width="1.606" height="42.384"/>
				<rect x="25.556" y="24.95" clip-path="url(#SVGID_4_)" fill="#5E9F97" width="1.606" height="42.384"/>
				<rect x="27.162" y="24.95" clip-path="url(#SVGID_4_)" fill="#5E9F98" width="1.606" height="42.384"/>
				<rect x="28.767" y="24.95" clip-path="url(#SVGID_4_)" fill="#5E9F99" width="1.606" height="42.384"/>
				<rect x="30.373" y="24.95" clip-path="url(#SVGID_4_)" fill="#5E9F9A" width="1.606" height="42.384"/>
				<rect x="31.979" y="24.95" clip-path="url(#SVGID_4_)" fill="#5E9F9B" width="1.606" height="42.384"/>
				<rect x="33.584" y="24.95" clip-path="url(#SVGID_4_)" fill="#5E9F9C" width="1.606" height="42.384"/>
				<rect x="35.19" y="24.95" clip-path="url(#SVGID_4_)" fill="#5E9F9D" width="1.606" height="42.384"/>
				<rect x="36.796" y="24.95" clip-path="url(#SVGID_4_)" fill="#5F9F9F" width="1.606" height="42.384"/>
				<rect x="38.401" y="24.95" clip-path="url(#SVGID_4_)" fill="#5F9FA0" width="1.606" height="42.384"/>
				<rect x="40.007" y="24.95" clip-path="url(#SVGID_4_)" fill="#5F9FA1" width="1.606" height="42.384"/>
				<rect x="41.613" y="24.95" clip-path="url(#SVGID_4_)" fill="#5F9FA2" width="1.606" height="42.384"/>
				<rect x="43.218" y="24.95" clip-path="url(#SVGID_4_)" fill="#5F9FA3" width="1.606" height="42.384"/>
				<rect x="44.824" y="24.95" clip-path="url(#SVGID_4_)" fill="#5F9FA4" width="1.606" height="42.384"/>
				<rect x="46.43" y="24.95" clip-path="url(#SVGID_4_)" fill="#5F9FA5" width="1.606" height="42.384"/>
				<rect x="48.035" y="24.95" clip-path="url(#SVGID_4_)" fill="#609FA6" width="1.606" height="42.384"/>
				<rect x="49.641" y="24.95" clip-path="url(#SVGID_4_)" fill="#609FA7" width="1.606" height="42.384"/>
				<rect x="51.247" y="24.95" clip-path="url(#SVGID_4_)" fill="#60A0A8" width="1.606" height="42.384"/>
				<rect x="52.852" y="24.95" clip-path="url(#SVGID_4_)" fill="#60A0A9" width="1.606" height="42.384"/>
				<rect x="54.458" y="24.95" clip-path="url(#SVGID_4_)" fill="#60A0AA" width="1.606" height="42.384"/>
				<rect x="56.064" y="24.95" clip-path="url(#SVGID_4_)" fill="#60A0AB" width="1.606" height="42.384"/>
				<rect x="57.669" y="24.95" clip-path="url(#SVGID_4_)" fill="#60A0AC" width="1.606" height="42.384"/>
				<rect x="59.275" y="24.95" clip-path="url(#SVGID_4_)" fill="#60A0AD" width="1.606" height="42.384"/>
				<rect x="60.881" y="24.95" clip-path="url(#SVGID_4_)" fill="#61A0AE" width="1.606" height="42.384"/>
				<rect x="62.486" y="24.95" clip-path="url(#SVGID_4_)" fill="#61A0AF" width="1.606" height="42.384"/>
				<rect x="64.092" y="24.95" clip-path="url(#SVGID_4_)" fill="#61A0B0" width="1.606" height="42.384"/>
				<rect x="65.698" y="24.95" clip-path="url(#SVGID_4_)" fill="#61A0B1" width="1.606" height="42.384"/>
				<rect x="67.303" y="24.95" clip-path="url(#SVGID_4_)" fill="#61A0B1" width="3.456" height="42.384"/>
			</g>
		</g>
	</g>
	<g>
		<defs>
			<path id="SVGID_5_" d="M35.925,5.009c-3.463,0.001-6.986,0.587-10.432,1.824C9.438,12.596,1.095,30.282,6.857,46.336
				c5.763,16.055,23.449,24.399,39.505,18.637c16.053-5.762,24.397-23.45,18.635-39.504C60.472,12.861,48.593,5.01,35.926,5.009
				C35.926,5.009,35.925,5.009,35.925,5.009"/>
		</defs>
		<clipPath id="SVGID_6_">
			<use xlink:href="#SVGID_5_"  overflow="visible"/>
		</clipPath>
		<g clip-path="url(#SVGID_6_)">
			<path fill="#82C3CC" d="M6.374,46.202C0.579,30.056,9.002,11.843,25.351,5.975c16.348-5.868,34.431,2.831,40.227,18.977
				L6.374,46.202z"/>
		</g>
		<g clip-path="url(#SVGID_6_)">
			<path fill="#8AC5BB" d="M6.263,45.982C0.467,29.837,8.89,11.624,25.24,5.756c16.347-5.867,34.43,2.831,40.226,18.976
				L6.263,45.982z"/>
		</g>
		<g clip-path="url(#SVGID_6_)">
			
				<rect x="25.768" y="2.458" transform="matrix(-0.3572 -0.934 0.934 -0.3572 49.3124 77.4837)" fill="#61A0B1" width="51.098" height="38.633"/>
		</g>
		<g clip-path="url(#SVGID_6_)">
			<polygon fill="#88C2AC" points="5.648,46.042 35.758,35.345 30.093,20.371 -0.016,31.068 			"/>
		</g>
	</g>
	<g>
		<path fill="#FFFFFF" d="M51.455,30.213c-3.448-8.826-13.399-13.186-22.225-9.739c-8.825,3.449-13.185,13.402-9.737,22.228
			c3.449,8.825,13.4,13.186,22.226,9.737C50.545,48.99,54.905,39.038,51.455,30.213"/>
	</g>
	<g>
		<defs>
			<path id="SVGID_7_" d="M11.611,51.384L37.868,40.45L26.43,10.883C-5.366,31.457,11.611,51.384,11.611,51.384"/>
		</defs>
		<clipPath id="SVGID_8_">
			<use xlink:href="#SVGID_7_"  overflow="visible"/>
		</clipPath>
		<g clip-path="url(#SVGID_8_)">
			<path fill="#EFCF32" d="M14.519,42.991c-4.116-11.354,1.774-24.194,13.27-28.36c11.494-4.168,24.243,1.916,28.359,13.269
				L14.519,42.991z"/>
		</g>
	</g>
	<g>
		<defs>
			<path id="SVGID_9_" d="M33.28,35.038l22.376,12.177c8.856-11.782,2.057-24.669,2.057-24.669L33.28,35.038z"/>
		</defs>
		<clipPath id="SVGID_10_">
			<use xlink:href="#SVGID_9_"  overflow="visible"/>
		</clipPath>
		<g clip-path="url(#SVGID_10_)">
			<path fill="#6FBDD4" d="M55.294,28.018c4.244,10.86-1.134,23.393-12.131,27.69c-10.995,4.296-23.445-1.272-27.69-12.132
				L55.294,28.018z"/>
		</g>
	</g>
	<g>
		<path fill="#ECCB6D" d="M53.249,29.943c-3.749-9.599-14.572-14.342-24.171-10.592c-9.598,3.752-14.341,14.574-10.591,24.174
			c3.751,9.598,14.574,14.341,24.173,10.59C52.259,50.363,57,39.541,53.249,29.943"/>
	</g>
	<g>
		<path fill="#F1C930" d="M48.048,31.543c-2.713-6.944-10.542-10.373-17.485-7.661c-6.944,2.713-10.374,10.54-7.661,17.486
			c2.713,6.943,10.541,10.374,17.485,7.66C47.33,46.317,50.76,38.486,48.048,31.543"/>
	</g>
	<g>
		<defs>
			<path id="SVGID_11_" d="M34.282,6.211l2.791,29.369L58.528,18.44c0,0,3.244,0.772-4.076-6.222
				c-5.709-5.454-14.779-6.055-18.497-6.055C34.905,6.163,34.282,6.211,34.282,6.211"/>
		</defs>
		<clipPath id="SVGID_12_">
			<use xlink:href="#SVGID_11_"  overflow="visible"/>
		</clipPath>
		<g clip-path="url(#SVGID_12_)">
			<path fill="#EFCF32" d="M36.308,11.344c-3.134,0-6.209,0.581-9.141,1.727c-6.295,2.459-11.262,7.259-13.986,13.516
				c-2.563,5.889-2.837,12.352-0.799,18.321l47.235-18.455C55.591,17.371,46.363,11.344,36.308,11.344 M11.104,47.785l-0.403-1.031
				c-2.658-6.802-2.498-14.277,0.45-21.051c2.961-6.8,8.363-12.019,15.211-14.694c3.19-1.247,6.536-1.878,9.946-1.878
				c11.331,0,21.699,7.047,25.798,17.539l0.403,1.031L11.104,47.785z"/>
		</g>
	</g>
	<g>
		<path fill="#63A8AB" d="M38.614,44.522c-0.138,0.304-0.493,0.439-0.802,0.306c-0.15-0.07-0.262-0.193-0.315-0.335l-0.809-2.111
			c-0.098-0.257-0.397-0.389-0.658-0.29c-0.081,0.029-0.153,0.084-0.208,0.148h0.005c-0.081,0.1-0.168,0.2-0.258,0.3l-0.336,0.355
			c-0.913,0.891-2.023,1.62-3.292,2.102l-4.373,1.682l-2.198,0.838c-1.247,0.482-2.648-0.144-3.121-1.385l-4.346-11.313
			c-0.477-1.251,0.147-2.653,1.393-3.131l6.083-2.333c1.329-0.508,2.71-0.659,4.029-0.508c1.498,0.169,2.849,1.145,3.428,2.646
			c0.497,1.297,0.299,2.685-0.406,3.767c1.134,0.005,2.219,0.459,3.027,1.257l1.094-9.8c0.116-1.179,0.88-2.254,2.065-2.702
			c1.179-0.456,2.466-0.166,3.34,0.629l10.055,8.939c0.314,0.254,0.562,0.595,0.718,0.998c0.477,1.25-0.146,2.645-1.395,3.127
			c-0.914,0.347-1.91,0.11-2.563-0.538l0,0c-0.351-0.36-0.89-0.5-1.391-0.311l-6.263,2.402c-0.123,0.054-0.225,0.143-0.281,0.27
			L38.614,44.522z"/>
	</g>
	<g>
		<polygon fill="#EFCF32" points="16.408,48.436 19.985,52.583 18.716,53.676 16.36,50.943 15.546,51.646 17.68,54.12 
			16.504,55.135 14.37,52.659 13.517,53.395 15.905,56.165 14.637,57.257 11.029,53.074 		"/>
	</g>
	<g>
		<polygon fill="#EFCF32" points="20.415,53.109 22.213,54.214 21.177,58.853 24.848,55.834 26.613,56.919 20.515,61.567 
			19.024,60.65 		"/>
	</g>
	<g>
		<path fill="#EFCF32" d="M30.668,61.597l0.005-0.019c0.254-0.993-0.213-2.034-1.221-2.292c-0.999-0.254-1.884,0.42-2.137,1.413
			l-0.005,0.019c-0.254,0.993,0.213,2.033,1.212,2.289C29.53,63.265,30.415,62.59,30.668,61.597 M25.429,60.259l0.005-0.02
			c0.504-1.975,2.44-3.188,4.476-2.668c2.035,0.519,3.138,2.488,2.634,4.464l-0.005,0.02c-0.505,1.976-2.441,3.188-4.476,2.668
			C26.028,64.203,24.924,62.235,25.429,60.259"/>
	</g>
	<g>
		<polygon fill="#EFCF32" points="33.708,58.472 35.594,58.419 35.746,63.794 39.042,63.701 39.09,65.426 33.909,65.572 		"/>
	</g>
	<g>
		<path fill="#EFCF32" d="M39.892,62.219l-1.127-3.825l1.838-0.541l1.116,3.786c0.29,0.983,0.903,1.309,1.631,1.095
			c0.728-0.215,1.071-0.803,0.79-1.756l-1.13-3.834l1.838-0.541l1.113,3.776c0.649,2.199-0.271,3.518-2.127,4.065
			C41.976,64.99,40.52,64.35,39.892,62.219"/>
	</g>
	<g>
		<path fill="#EFCF32" d="M46.928,59.545l-0.011-0.017c-1.119-1.742-0.711-3.933,1.024-5.047c1.17-0.752,2.252-0.723,3.231-0.315
			l-0.575,1.732c-0.602-0.217-1.153-0.249-1.702,0.104c-0.802,0.515-0.912,1.586-0.352,2.457l0.01,0.017
			c0.576,0.896,1.59,1.234,2.392,0.719c0.598-0.384,0.763-0.901,0.827-1.557l1.765,0.121c-0.041,1.123-0.402,2.163-1.67,2.978
			C50.23,61.789,48.074,61.328,46.928,59.545"/>
	</g>
	<g>
		
			<rect x="52.794" y="50.945" transform="matrix(-0.7134 0.7007 -0.7007 -0.7134 130.2702 55.7178)" fill="#EFCF32" width="1.897" height="7.103"/>
	</g>
	<g>
		<path fill="#EFCF32" d="M58.367,48.539l-0.017-0.011c-0.862-0.555-1.997-0.442-2.56,0.434c-0.558,0.866-0.198,1.919,0.663,2.475
			l0.017,0.011c0.862,0.555,1.997,0.44,2.555-0.427C59.589,50.146,59.229,49.093,58.367,48.539 M55.44,53.085l-0.017-0.011
			c-1.715-1.104-2.253-3.324-1.116-5.09c1.138-1.767,3.354-2.191,5.068-1.087l0.018,0.011c1.714,1.104,2.252,3.325,1.115,5.09
			C59.37,53.766,57.155,54.189,55.44,53.085"/>
	</g>
	<g>
		<polygon fill="#EFCF32" points="56.429,44.763 56.893,43.064 61.252,41.35 57.631,40.362 58.123,38.56 64.976,40.431 
			64.539,42.026 60.015,43.805 63.773,44.832 63.281,46.633 		"/>
	</g>
	<g>
		<path fill="#EFCF32" d="M62.391,34.798l-2.018,0.763l2.02,0.764L62.391,34.798z M58.041,36.46l-0.004-1.819l7.149-2.911
			l0.003,2.023l-1.267,0.499l0.005,2.625l1.269,0.485l0.004,1.984L58.041,36.46z"/>
	</g>
</g>
</svg>
