<?xml version="1.0" encoding="utf-8"?>
<!-- Generator: Adobe Illustrator 16.0.4, SVG Export Plug-In . SVG Version: 6.00 Build 0)  -->
<!DOCTYPE svg PUBLIC "-//W3C//DTD SVG 1.1//EN" "http://www.w3.org/Graphics/SVG/1.1/DTD/svg11.dtd">
<svg version="1.1" id="Layer_1" xmlns="http://www.w3.org/2000/svg" xmlns:xlink="http://www.w3.org/1999/xlink" x="0px" y="0px"
	 width="90px" height="90px" viewBox="0 0 90 90" enable-background="new 0 0 90 90" xml:space="preserve">
<g>
	<path fill="#FFFFFF" d="M50.986,23c0,0-9.576,0-12.968,0c-6.58,0-12.067,4.855-12.066,10.196c0,5.451,3.605,9.803,9.795,9.803
		c0.43,0,0.848-0.028,1.256-0.055c-0.403,0.768-0.688,1.628-0.688,2.53c0,1.515,0.833,2.379,1.864,3.377
		c-0.779,0-1.531,0.021-2.353,0.021c-7.536,0-12.811,5.189-12.811,10.162c0,4.904,6.36,7.965,13.896,7.965
		c8.589,0,13.871-4.872,13.871-9.775c0-3.926-0.849-5.901-5.036-9.045c-1.203-0.902-3.818-2.75-3.818-3.991
		c0-1.455,0.414-2.17,2.605-3.883c2.242-1.751,3.828-4.061,3.828-6.929c0-3.126-1.274-5.956-3.676-7.331h3.404L50.986,23z
		 M46.59,56.383c0.107,0.451,0.166,0.917,0.166,1.396c0,3.963-2.551,7.057-9.874,7.057c-5.208,0-8.97-3.297-8.97-7.256
		c0-3.883,4.412-7.23,9.622-7.17c1.214,0.009,2.347,0.203,3.373,0.537C43.738,52.912,46.016,54.143,46.59,56.383z M38.251,41.014
		c-3.496-0.107-6.818-3.314-7.42-7.906c-0.607-4.587,1.74-8.1,5.234-7.998c3.494,0.108,6.486,3.873,7.087,8.46
		C43.754,38.162,41.745,41.116,38.251,41.014z"/>
	<polygon fill="#FFFFFF" points="61,23.602 58.009,23.602 58.009,29.585 52.029,29.585 52.029,32.577 58.009,32.577 58.009,38.555 
		61,38.555 61,32.577 66.984,32.577 66.984,29.585 61,29.585 	"/>
	<path fill="#BF5C41" d="M36.065,25.11c-3.494-0.102-5.841,3.411-5.234,7.998c0.602,4.592,3.924,7.799,7.42,7.906
		c3.494,0.102,5.503-2.852,4.901-7.444C42.551,28.983,39.559,25.218,36.065,25.11z"/>
	<path fill="#BF5C41" d="M37.534,50.41c-5.21-0.061-9.622,3.287-9.622,7.17c0,3.959,3.762,7.256,8.97,7.256
		c7.323,0,9.874-3.094,9.874-7.057c0-0.479-0.059-0.945-0.166-1.396c-0.574-2.24-2.852-3.471-5.683-5.436
		C39.881,50.613,38.748,50.419,37.534,50.41z"/>
	<path fill="#BF5C41" d="M45,1C20.701,1,1,20.701,1,45c0,24.305,19.701,44,44,44c24.302,0,44-19.695,44-44C89,20.701,69.302,1,45,1z
		 M48.361,33.377c0,2.868-1.586,5.178-3.828,6.929c-2.191,1.713-2.605,2.428-2.605,3.883c0,1.241,2.615,3.088,3.818,3.991
		c4.188,3.144,5.036,5.119,5.036,9.045C50.782,62.128,45.5,67,36.911,67c-7.536,0-13.896-3.061-13.896-7.965
		c0-4.973,5.275-10.162,12.811-10.162c0.822,0,1.574-0.021,2.353-0.021c-1.031-0.998-1.864-1.862-1.864-3.377
		c0-0.902,0.285-1.762,0.688-2.53c-0.408,0.027-0.826,0.055-1.256,0.055c-6.19,0-9.795-4.352-9.795-9.803
		C25.951,27.855,31.438,23,38.018,23c3.392,0,12.968,0,12.968,0l-2.897,3.046h-3.404C47.087,27.421,48.361,30.251,48.361,33.377z
		 M66.984,32.577H61v5.978h-2.991v-5.978h-5.979v-2.992h5.979v-5.983H61v5.983h5.984V32.577z"/>
</g>
</svg>
