<?xml version="1.0" encoding="utf-8"?>
<!-- Generator: Adobe Illustrator 16.0.4, SVG Export Plug-In . SVG Version: 6.00 Build 0)  -->
<!DOCTYPE svg PUBLIC "-//W3C//DTD SVG 1.1//EN" "http://www.w3.org/Graphics/SVG/1.1/DTD/svg11.dtd">
<svg version="1.1" id="Layer_1" xmlns="http://www.w3.org/2000/svg" xmlns:xlink="http://www.w3.org/1999/xlink" x="0px" y="0px"
	 width="76px" height="45px" viewBox="0 0 76 45" enable-background="new 0 0 76 45" xml:space="preserve">
<path fill="#5F4600" d="M36.923,44.588c-0.55,0.55-1.441,0.55-1.991,0c-0.272-0.272-0.408-0.633-0.408-0.993v-5.26
	c0-0.653-0.532-1.183-1.183-1.183c-0.211,0-0.404,0.053-0.574,0.149l0,0c-0.256,0.155-0.52,0.299-0.792,0.433l-1.037,0.504
	c-2.732,1.178-5.748,1.828-8.912,1.828H11.107H5.634C2.522,40.066,0,37.544,0,34.433V6.219c0-3.111,2.522-5.633,5.634-5.633h15.165
	c3.313,0,6.442,0.814,9.185,2.256l0.006-0.003c3.11,1.611,5.237,4.859,5.237,8.604c0,3.231-1.587,6.097-4.021,7.854l0,0
	c2.457,0.957,4.447,2.856,5.528,5.25L47.289,4.163C48.528,1.695,51.082,0,54.03,0c2.949,0,5.502,1.695,6.743,4.162h-0.005
	l14.404,27.816h0.006c0.461,0.817,0.725,1.763,0.725,2.771c0,3.112-2.522,5.634-5.634,5.634c-2.28,0-4.249-1.356-5.133-3.308v-0.002
	c-0.457-1.072-1.521-1.823-2.76-1.823H46.753c-0.303,0-0.606,0.112-0.839,0.343L36.923,44.588z"/>
</svg>
