<?xml version="1.0" encoding="utf-8"?>
<!-- Generator: Adobe Illustrator 16.0.4, SVG Export Plug-In . SVG Version: 6.00 Build 0)  -->
<!DOCTYPE svg PUBLIC "-//W3C//DTD SVG 1.1//EN" "http://www.w3.org/Graphics/SVG/1.1/DTD/svg11.dtd">
<svg version="1.1" id="Layer_1" xmlns="http://www.w3.org/2000/svg" xmlns:xlink="http://www.w3.org/1999/xlink" x="0px" y="0px"
	 width="255px" height="45px" viewBox="0 0 255 45" enable-background="new 0 0 255 45" xml:space="preserve">
<g>
	<g>
		<path fill="#292202" d="M46.861,15.387h6.548c1.667,0,2.981,0.46,3.817,1.296c0.647,0.646,0.981,1.438,0.981,2.42v0.04
			c0,1.75-1.002,2.691-2.087,3.256c1.711,0.581,2.898,1.564,2.898,3.543v0.042c0,2.608-2.147,4.005-5.399,4.005h-6.759V15.387z
			 M52.89,21.543c1.647,0,2.749-0.65,2.749-1.986v-0.038c0-1.146-0.915-1.857-2.563-1.857h-3.692v3.882H52.89z M53.638,27.717
			c1.752,0,2.818-0.689,2.818-2.004V25.67c0-1.229-0.981-1.954-3.004-1.954h-4.069v4.001H53.638z"/>
		<path fill="#292202" d="M61.091,25.983v-7.007h2.525v6.258c0,1.709,0.855,2.689,2.355,2.689c1.462,0,2.483-1.021,2.483-2.736
			v-6.211h2.523v11.012h-2.523V28.28c-0.708,1.043-1.731,1.938-3.441,1.938C62.532,30.218,61.091,28.553,61.091,25.983"/>
		<path fill="#292202" d="M73.132,24.527v-0.046c0-3.146,2.232-5.734,5.384-5.734c3.504,0,5.274,2.752,5.274,5.925
			c0,0.228-0.018,0.456-0.039,0.709h-8.093c0.271,1.794,1.543,2.794,3.169,2.794c1.232,0,2.106-0.458,2.984-1.314l1.48,1.314
			c-1.044,1.251-2.485,2.064-4.507,2.064C75.593,30.239,73.132,27.924,73.132,24.527 M81.286,23.716
			c-0.163-1.634-1.125-2.905-2.793-2.905c-1.541,0-2.628,1.187-2.856,2.905H81.286z"/>
		<path fill="#292202" d="M85.926,18.977h2.522v1.709c0.708-1.041,1.732-1.938,3.441-1.938c2.482,0,3.925,1.669,3.925,4.232v7.009
			h-2.527v-6.254c0-1.713-0.856-2.691-2.355-2.691c-1.462,0-2.483,1.019-2.483,2.731v6.214h-2.522V18.977z"/>
		<path fill="#292202" d="M97.84,24.546v-0.045c0-3.148,2.504-5.754,5.881-5.754c3.38,0,5.861,2.566,5.861,5.715v0.039
			c0,3.13-2.499,5.738-5.9,5.738C100.323,30.239,97.84,27.678,97.84,24.546 M107.06,24.546v-0.045c0-1.938-1.397-3.544-3.378-3.544
			c-2.024,0-3.316,1.584-3.316,3.505v0.039c0,1.923,1.397,3.549,3.355,3.549C105.768,28.05,107.06,26.442,107.06,24.546"/>
		<path fill="#292202" d="M110.842,28.553l1.125-1.713c1.188,0.899,2.484,1.356,3.609,1.356c1.084,0,1.71-0.457,1.71-1.191v-0.039
			c0-0.856-1.166-1.15-2.461-1.546c-1.626-0.459-3.44-1.12-3.44-3.234v-0.04c0-2.087,1.73-3.359,3.922-3.359
			c1.373,0,2.876,0.481,4.045,1.253l-1.002,1.795c-1.063-0.648-2.188-1.044-3.107-1.044c-0.979,0-1.544,0.46-1.544,1.108v0.034
			c0,0.797,1.188,1.129,2.483,1.551c1.605,0.498,3.419,1.229,3.419,3.209v0.044c0,2.314-1.796,3.461-4.086,3.461
			C113.946,30.197,112.216,29.637,110.842,28.553"/>
		<path fill="#292202" d="M133.06,15.286h2.382l6.424,14.702h-2.712l-1.48-3.523h-6.904l-1.503,3.523h-2.629L133.06,15.286z
			 M136.733,24.188l-2.522-5.839l-2.503,5.839H136.733z"/>
		<path fill="#292202" d="M143.711,14.889h2.711v2.402h-2.711V14.889z M143.812,18.977h2.525v11.012h-2.525V18.977z"/>
		<path fill="#292202" d="M149.217,18.977h2.525v2.482c0.686-1.647,1.96-2.772,3.899-2.693v2.669h-0.146
			c-2.21,0-3.753,1.444-3.753,4.362v4.191h-2.525V18.977z"/>
		<path fill="#292202" d="M156.44,24.527v-0.046c0-3.146,2.229-5.734,5.38-5.734c3.507,0,5.276,2.752,5.276,5.925
			c0,0.228-0.02,0.456-0.042,0.709h-8.091c0.269,1.794,1.543,2.794,3.169,2.794c1.23,0,2.107-0.458,2.983-1.314l1.481,1.314
			c-1.041,1.251-2.487,2.064-4.508,2.064C158.898,30.239,156.44,27.924,156.44,24.527 M164.592,23.716
			c-0.162-1.634-1.126-2.905-2.793-2.905c-1.543,0-2.625,1.187-2.856,2.905H164.592z"/>
		<path fill="#292202" d="M168.336,28.553l1.123-1.713c1.189,0.899,2.482,1.356,3.609,1.356c1.085,0,1.707-0.457,1.707-1.191v-0.039
			c0-0.856-1.167-1.15-2.456-1.546c-1.628-0.459-3.445-1.12-3.445-3.234v-0.04c0-2.087,1.734-3.359,3.923-3.359
			c1.377,0,2.879,0.481,4.046,1.253l-1.002,1.795c-1.065-0.648-2.19-1.044-3.105-1.044c-0.982,0-1.543,0.46-1.543,1.108v0.034
			c0,0.797,1.188,1.129,2.482,1.551c1.604,0.498,3.42,1.229,3.42,3.209v0.044c0,2.314-1.796,3.461-4.09,3.461
			C171.44,30.197,169.709,29.637,168.336,28.553"/>
		<path fill="#292202" d="M184.735,22.729v-0.042c0-4.149,3.104-7.548,7.529-7.548c2.691,0,4.317,0.937,5.715,2.271l-1.646,1.896
			c-1.169-1.08-2.424-1.81-4.091-1.81c-2.798,0-4.819,2.291-4.819,5.152v0.038c0,2.856,2.021,5.192,4.819,5.192
			c1.794,0,2.941-0.729,4.193-1.896l1.648,1.669c-1.525,1.585-3.192,2.587-5.924,2.587
			C187.902,30.239,184.735,26.922,184.735,22.729"/>
		<path fill="#292202" d="M200.115,14.889h2.711v2.402h-2.711V14.889z M200.218,18.977h2.523v11.012h-2.523V18.977z"/>
		<path fill="#292202" d="M205.499,25.983v-7.007h2.521v6.258c0,1.709,0.858,2.689,2.36,2.689c1.46,0,2.479-1.021,2.479-2.736
			v-6.211h2.527v11.012h-2.527V28.28c-0.706,1.043-1.729,1.938-3.438,1.938C206.938,30.218,205.499,28.553,205.499,25.983"/>
		<path fill="#292202" d="M217.579,24.501v-0.039c0-3.651,2.484-5.715,5.112-5.715c1.816,0,2.96,0.92,3.753,1.938v-5.924h2.522
			v15.227h-2.522v-1.836c-0.812,1.147-1.96,2.065-3.753,2.065C220.104,30.218,217.579,28.152,217.579,24.501 M226.487,24.501v-0.039
			c0-2.127-1.502-3.525-3.192-3.525c-1.729,0-3.173,1.335-3.173,3.525v0.039c0,2.131,1.465,3.528,3.173,3.528
			C224.985,28.029,226.487,26.608,226.487,24.501"/>
		<path fill="#292202" d="M238.447,29.988v-1.356c-0.754,0.896-1.9,1.586-3.566,1.586c-2.088,0-3.925-1.188-3.925-3.396v-0.044
			c0-2.442,1.899-3.609,4.465-3.609c1.336,0,2.188,0.188,3.043,0.458v-0.205c0-1.522-0.957-2.358-2.709-2.358
			c-1.23,0-2.15,0.272-3.149,0.688l-0.688-2.023c1.21-0.541,2.399-0.918,4.192-0.918c3.254,0,4.84,1.711,4.84,4.652v6.526H238.447z
			 M238.509,25.381c-0.648-0.253-1.545-0.439-2.525-0.439c-1.584,0-2.522,0.647-2.522,1.713v0.038c0,1.047,0.938,1.629,2.123,1.629
			c1.674,0,2.925-0.939,2.925-2.319V25.381z"/>
		<path fill="#292202" d="M242.979,24.501v-0.039c0-3.651,2.482-5.715,5.107-5.715c1.815,0,2.965,0.92,3.755,1.938v-5.924h2.523
			v15.227h-2.523v-1.836c-0.814,1.147-1.959,2.065-3.755,2.065C245.502,30.218,242.979,28.152,242.979,24.501 M251.886,24.501
			v-0.039c0-2.127-1.503-3.525-3.192-3.525c-1.732,0-3.169,1.335-3.169,3.525v0.039c0,2.131,1.457,3.528,3.169,3.528
			C250.383,28.029,251.886,26.608,251.886,24.501"/>
		<path fill="#292202" d="M18.518,7.276c-0.115,0-0.212,0.095-0.212,0.211c0,0.117,0.097,0.214,0.212,0.214
			c0.119,0,0.211-0.097,0.211-0.214C18.729,7.371,18.637,7.276,18.518,7.276"/>
		<path fill="#292202" d="M29.328,10.584l-0.035-0.004c-1.113-0.046-2.177-0.447-3.205-0.837c-0.417-0.158-0.85-0.321-1.277-0.454
			c-0.844-0.27-1.597-0.416-2.3-0.451c-0.188-0.009-0.356-0.013-0.536-0.013c-0.475,0-1.143,0.044-1.559,0.449
			c-0.12-0.524-0.261-1.113-0.48-1.672c-0.211-0.529-0.521-1.159-1.089-1.33c-0.092-0.03-0.188-0.038-0.276-0.038
			c-0.562,0-0.986,0.5-1.195,0.799l-0.094,0.135c-0.242,0.354-0.365,0.527-0.33,0.695c0.04,0.166,0.239,0.291,0.696,0.553
			c0.193,0.112,0.231,0.399,0.258,0.615l0.003,0.021c0.041,0.319,0.063,0.629,0.059,0.924C17.32,9.31,16.329,9.048,15.433,8.88
			c-0.237-0.045-0.487-0.07-0.742-0.07c-1.03,0-2.037,0.389-2.705,0.676c-0.376,0.163-0.754,0.341-1.116,0.521
			c-0.703,0.338-1.433,0.682-2.187,0.916c-0.23,0.07-0.477,0.129-0.779,0.179H7.895c-0.003,0.005-0.012,0.005-0.021,0.005
			l-0.02,0.003c-0.117,0.022-0.311,0.083-0.349,0.262c-0.04,0.177-0.018,0.293,0.224,0.479c0.552,0.312,1.224,0.463,2.048,0.463
			c0.171,0,0.345-0.006,0.534-0.017c0.248-0.016,0.498-0.046,0.762-0.08c0.381-0.05,0.768-0.099,1.143-0.099
			c0.258,0,0.483,0.022,0.688,0.069c0.612,0.142,0.98,0.75,1.298,1.288c0.082,0.137,0.157,0.261,0.235,0.378l0.005,0.008
			c0.149,0.225,0.396,0.601,0.382,0.882c-0.016,0.271-0.394,0.498-0.665,0.663c-0.071,0.046-0.144,0.088-0.194,0.125
			c-0.088,0.058-0.19,0.124-0.299,0.194c-0.615,0.39-1.454,0.928-1.357,1.648c0.044,0.355,0.341,0.64,0.701,0.684
			c0.031,0.004,0.065,0.004,0.099,0.004c0.258,0,0.487-0.115,0.71-0.232c0.094-0.047,0.19-0.097,0.281-0.136
			c0.295-0.116,0.591-0.178,0.883-0.178c0.494,0,0.972,0.166,1.415,0.498c0.146,0.11,0.273,0.242,0.402,0.369
			c0.136,0.137,0.276,0.281,0.438,0.396c0.129,0.093,0.369,0.188,0.571,0.188c0.199,0,0.336-0.099,0.371-0.278
			c0.073-0.357,0.072-0.732,0.072-1.096c-0.007-0.288-0.007-0.589,0.028-0.874c0.021-0.175,0.069-0.53,0.297-0.641
			c0.075-0.034,0.16-0.052,0.264-0.052c0.116,0,0.238,0.021,0.354,0.037c0.161,0.028,0.334,0.053,0.471,0.035
			c0.648-0.091,1.19-0.623,1.448-1.425c0.123-0.268,0.264-0.39,0.542-0.454c0.325-0.08,0.53-0.344,0.728-0.606
			c0.049-0.065,0.099-0.127,0.149-0.188c0.406-0.486,0.905-0.701,1.607-0.701c0.129,0,0.267,0.006,0.422,0.021
			c0.144,0.015,0.287,0.029,0.434,0.047c0.374,0.044,0.732,0.086,1.096,0.086c0.393,0,0.744-0.052,1.069-0.158
			c0.844-0.281,1.585-0.828,2.265-1.378l0.1-0.08c0.19-0.159,0.234-0.26,0.185-0.442S29.419,10.591,29.328,10.584 M14.794,13.091
			c-0.163-0.28-0.337-0.564-0.548-0.816c-0.492-0.598-1.143-0.86-2.115-0.86c-0.407,0-0.835,0.043-1.251,0.089
			c-0.41,0.044-0.835,0.086-1.234,0.086c-0.211,0-0.4-0.014-0.578-0.034c0.703-0.235,1.38-0.555,2.028-0.871
			c0.701-0.338,1.426-0.688,2.183-0.92c0.467-0.142,0.957-0.219,1.451-0.219c0.905,0,1.743,0.239,2.425,0.69
			c0.566,0.375,0.733,0.771,0.54,1.329c-0.202,0.589-0.557,1.173-1.05,1.731c-0.031,0.034-0.066,0.076-0.108,0.125
			c-0.216,0.255-0.573,0.683-0.876,0.683c-0.093,0-0.175-0.042-0.245-0.118C15.169,13.716,14.979,13.398,14.794,13.091
			 M20.495,13.918c-0.067,0.492-0.261,0.914-0.562,1.188c-0.268,0.247-0.56,0.294-0.949,0.294c-0.062,0-0.132-0.004-0.195-0.004
			c-0.07,0-0.14,0-0.218,0c-0.246,0-0.454,0.082-0.615,0.244c-0.467,0.475-0.457,1.512-0.45,2.2v0.221l-0.048-0.042
			c-0.592-0.545-1.146-1.068-1.98-1.195c-0.129-0.023-0.265-0.032-0.401-0.032c-0.251,0-0.519,0.034-0.791,0.101
			c-0.237,0.059-0.438,0.148-0.65,0.247c-0.086,0.036-0.167,0.071-0.251,0.108c-0.101,0.044-0.235,0.082-0.315,0.082
			c-0.022,0-0.043,0-0.053-0.008c-0.003-0.012-0.003-0.029,0.004-0.05c0.081-0.281,0.384-0.48,0.626-0.646l0.065-0.042
			c0.622-0.419,1.202-0.836,1.775-1.283c1.051-0.817,2.206-1.834,2.777-3.22c0.328-0.777,0.466-1.67,0.411-2.583L18.67,9.446
			c-0.029-0.378-0.049-0.77-0.205-1.112c-0.122-0.286-0.349-0.419-0.58-0.558c-0.046-0.027-0.088-0.05-0.129-0.075
			c0.109-0.208,0.419-0.752,0.773-0.752c0.138,0,0.268,0.084,0.393,0.253c0.418,0.572,0.606,1.255,0.776,1.86
			c0.026,0.104,0.059,0.219,0.092,0.338C20.124,10.569,20.678,12.529,20.495,13.918 M27.675,11.7
			c-0.573,0.324-1.083,0.479-1.569,0.479h-0.047c-0.316-0.009-0.634-0.049-0.943-0.093c-0.27-0.032-0.545-0.07-0.817-0.084
			c-0.671-0.027-1.189,0.076-1.606,0.325c-0.291,0.177-0.493,0.422-0.69,0.669c-0.139,0.169-0.29,0.348-0.466,0.499
			c-0.053,0.039-0.123,0.091-0.188,0.091h-0.006c-0.075-0.003-0.082-0.052-0.075-0.166c0-0.028,0.002-0.053,0-0.072
			c-0.013-0.253-0.053-0.503-0.083-0.745l-0.021-0.139c-0.059-0.424-0.123-0.872-0.226-1.314c-0.018-0.074-0.047-0.164-0.077-0.263
			c-0.12-0.386-0.271-0.872,0.028-1.116c0.185-0.149,0.493-0.178,0.699-0.199c0,0,0.237-0.02,0.492-0.021h0.094
			c0.284,0,0.574,0.016,0.861,0.053c0.533,0.072,1.093,0.213,1.77,0.438c0.363,0.119,0.727,0.257,1.084,0.387
			c0.817,0.305,1.664,0.622,2.549,0.772C28.156,11.406,27.912,11.568,27.675,11.7"/>
		<path fill="#292202" d="M36.787,18.229c-0.242-1.558-0.63-3.093-1.151-4.579c-0.504-1.422-1.137-2.802-1.895-4.108
			c-0.59-1.013-1.255-1.98-1.999-2.891c-0.949-1.161-2.027-2.22-3.213-3.139c-1.153-0.894-2.418-1.647-3.757-2.224
			c-1.339-0.572-2.754-0.966-4.195-1.155c-1.464-0.192-2.965-0.175-4.425,0.051c-1.436,0.229-2.835,0.658-4.157,1.265
			c-1.33,0.61-2.58,1.393-3.718,2.312C7.114,4.7,6.064,5.78,5.142,6.953c-0.912,1.151-1.702,2.396-2.37,3.708
			c-0.694,1.359-1.258,2.785-1.692,4.25c-0.451,1.53-0.763,3.102-0.93,4.689c-0.17,1.649-0.196,3.314-0.072,4.967
			c0.122,1.604,0.38,3.197,0.79,4.75c0.39,1.488,0.911,2.945,1.567,4.337c0.633,1.336,1.384,2.617,2.259,3.806
			c0.981,1.341,3.482,3.705,3.496,3.705c2.948,2.412,6.521,3.836,10.372,3.836h0.005c1.466,0,2.934-0.206,4.34-0.62
			c1.4-0.405,2.733-1.006,3.976-1.762c1.265-0.765,2.428-1.692,3.476-2.737c1.045-1.044,1.977-2.202,2.782-3.445
			c0.817-1.25,1.507-2.584,2.071-3.969c0.589-1.441,1.037-2.939,1.354-4.469c0.332-1.592,0.513-3.217,0.554-4.847
			C37.153,21.505,37.048,19.853,36.787,18.229 M3.929,28.98H3.454l0.425-1.607c0.041-0.117,0.064-0.112,0.079-0.064
			C3.946,27.89,3.938,28.451,3.929,28.98 M4.16,24.6l-0.949-0.438c-0.056-0.023-0.049-0.044,0.006-0.044h2.042
			c0.059,0,0.062,0.021,0.009,0.044L4.354,24.6C4.301,24.625,4.213,24.625,4.16,24.6 M2.968,23.702l1.062-0.756
			c-0.007,0.248-0.01,0.501-0.011,0.756H2.968z M3.325,21.153h1.816c0.05,0,0.056,0.018,0.007,0.038l-0.812,0.384
			c-0.05,0.022-0.127,0.022-0.177,0.004l-0.847-0.394C3.267,21.166,3.271,21.153,3.325,21.153 M3.097,20.777l0.976-0.644
			c0,0.202-0.006,0.421-0.012,0.644H3.097z M4.418,20.148l0.967,0.629H4.427C4.424,20.566,4.421,20.355,4.418,20.148 M4.46,22.949
			l1.073,0.753h-1.06C4.468,23.449,4.462,23.194,4.46,22.949 M4.562,28.98c-0.009-0.529-0.02-1.091-0.029-1.669
			c0.006-0.038,0.038-0.068,0.07,0.046L5.03,28.98H4.562z M18.562,43.375c-2.83,0-5.499-0.85-7.854-2.377
			c1.824-0.014,3.636,0.23,5.436,0.499c1.807,0.266,3.614,0.568,5.434,0.752c0.697,0.071,1.4,0.122,2.104,0.154
			C22.062,43.036,20.343,43.375,18.562,43.375 M26.861,40.699c-1.793,0.188-3.604,0.104-5.395-0.09
			c-1.789-0.193-3.564-0.499-5.344-0.755c-1.839-0.268-3.68-0.498-5.535-0.482c-0.635,0.008-1.261,0.039-1.885,0.101
			c-0.589-0.522-1.15-1.09-1.684-1.7c1.859-0.273,3.751-0.265,5.625-0.134c1.881,0.141,3.746,0.414,5.612,0.689
			c0.937,0.141,1.872,0.281,2.809,0.402c0.466,0.065,2.319,0.204,2.777,0.204c1.867,0,3.748-0.139,5.6-0.442
			C28.639,39.323,27.775,40.06,26.861,40.699 M31.121,36.498c-1.796,0.435-3.636,0.667-5.481,0.763
			c-0.92,0.046-1.846,0.072-2.769,0.026c-0.932-0.042-1.857-0.193-2.78-0.328c-1.855-0.266-3.713-0.562-5.581-0.777
			c-1.86-0.203-3.732-0.316-5.607-0.222c-1.013,0.054-2.032,0.164-3.034,0.357c-0.34-0.475-0.665-0.972-0.973-1.49
			c1.649-0.34,3.321-0.561,5.007-0.619c1.707-0.062,3.41,0.055,5.103,0.275c1.635,0.213,3.257,0.516,4.891,0.735
			c1.496,0.202,2.999,0.334,4.505,0.334h0.011c1.564,0,3.133-0.141,4.68-0.389c1.125-0.185,2.249-0.419,3.352-0.704
			C32.035,35.173,31.595,35.854,31.121,36.498 M6.205,30.76C5.42,30.241,5.312,29.4,5.359,29.237l2.418-5.7
			c0.056-0.104,0.077-0.07,0.062,0L6.205,30.76z M7.807,25.381c-0.038,2.553-0.07,4.933-0.081,6.072
			c-0.444-0.128-0.879-0.266-1.257-0.533l1.282-5.657C7.783,25.211,7.802,25.293,7.807,25.381 M7.163,20.377h1.818
			c0.049,0,0.056,0.021,0.009,0.042L8.176,20.81c-0.047,0.022-0.126,0.022-0.17,0l-0.849-0.391
			C7.107,20.398,7.113,20.377,7.163,20.377 M6.938,20.011l0.958-0.633c-0.002,0.205-0.005,0.416-0.007,0.633H6.938z M8.277,19.39
			l0.948,0.621H8.287C8.283,19.796,8.281,19.588,8.277,19.39 M10.221,27.759c-0.032,1.224-0.062,2.446-0.081,3.391
			c-0.007,0.008-0.018,0.014-0.03,0.02l-0.812-3.526l0.434-1.028L10.221,27.759z M9.896,26.224l0.324-0.764
			c0.034-0.045,0.052-0.033,0.061,0.006c-0.011,0.492-0.026,1.02-0.039,1.562L9.896,26.224z M9.093,28.121l0.781,3.209
			c-0.272,0.114-0.613,0.177-0.91,0.217c-0.107,0.015-0.215,0.021-0.32,0.028c-0.063,0.005-0.134,0.016-0.195,0.01
			c-0.003-0.433-0.014-1.083-0.021-1.882L9.093,28.121z M8.418,28.946C8.4,27.885,8.384,26.646,8.364,25.36
			c0.01-0.105,0.035-0.18,0.088-0.023l0.523,2.279L8.418,28.946z M9.182,27.138l-0.833-3.595c-0.006-0.07,0.009-0.109,0.064-0.006
			l1.151,2.687L9.182,27.138z M10.769,28.257v-0.522c-0.022-0.936-0.047-1.371-0.068-2.237c0.007-0.062,0.028-0.099,0.07-0.031
			l1.445,3.606c-0.237,0.468-0.278,0.633-0.644,1.017L10.769,28.257z M11.337,30.323c-0.143,0.163-0.336,0.322-0.501,0.456
			c-0.015-0.491-0.032-1.13-0.046-1.701L11.337,30.323z M12.805,28.943l1.652-3.545c-0.032,1.013-0.062,2.474-0.094,3.545H13.69
			C13.44,28.943,13.05,28.958,12.805,28.943 M24.626,24.398h2.385c0.063,0,0.073,0.021,0.031,0.043
			c-0.008,0.008-1.089,0.517-1.089,0.517c-0.07,0.039-0.167,0.031-0.223,0.003l-1.119-0.51
			C24.55,24.419,24.556,24.398,24.626,24.398 M24.353,23.923l1.249-0.892c-0.006,0.262-0.012,0.859-0.012,0.892H24.353z
			 M24.802,20.406c0,0,0.026-0.008,0.041-0.008h1.997c0.018,0,0.027,0.002,0.036,0.008h0.003h-0.003
			c0.014,0.008,0.006,0.02-0.029,0.035l-0.895,0.417c-0.049,0.026-0.134,0.026-0.188,0.005l-0.928-0.422
			C24.805,20.426,24.793,20.414,24.802,20.406 M24.59,19.98l1.064-0.766c-0.004,0.247-0.009,0.5-0.01,0.766H24.59z M26.026,19.229
			l1.074,0.751H26.04C26.035,19.724,26.029,19.472,26.026,19.229 M26.079,23.031l1.244,0.892h-1.229
			C26.091,23.632,26.085,23.324,26.079,23.031 M29.691,22.073h2.042c0.055,0,0.062,0.019,0.009,0.044l-0.92,0.436
			c-0.053,0.026-0.135,0.026-0.186,0l-0.954-0.436C29.63,22.092,29.633,22.073,29.691,22.073 M29.437,21.657l1.069-0.759
			c-0.006,0.255-0.009,0.501-0.012,0.759H29.437z M30.925,20.898l1.084,0.759h-1.072C30.937,21.402,30.931,21.153,30.925,20.898
			 M30.456,25.286c-0.035,2.473-0.076,5.128-0.103,6.997c-0.601,0.202-1.122,0.26-1.58,0.216l1.015-4.53l0.598-2.666
			C30.414,25.237,30.444,25.202,30.456,25.286 M30.315,24.227l-1.77,7.854l-0.765-2.109l0.006-0.016l2.42-5.809
			C30.273,24.029,30.345,23.951,30.315,24.227 M28.358,32.435c-0.554-0.122-0.993-0.392-1.333-0.688l0.579-1.375L28.358,32.435z
			 M26.806,31.531c-0.343-0.362-0.537-0.725-0.615-0.874c-0.015-1.188-0.041-2.966-0.07-4.866l1.344,4.146L26.806,31.531z
			 M23.887,30.573h-2.923l4.354-4.914L23.887,30.573z M25.554,25.787c-0.017,1.108-0.055,4.647-0.055,4.786h-1.304L25.554,25.787z
			 M30.983,25.284c-0.003-0.08,0.035-0.056,0.067,0.019l1.219,5.27c-0.265,0.621-0.806,1.078-1.196,1.344
			C31.062,30.956,30.988,25.307,30.983,25.284 M32.583,30.543l-1.494-6.255c-0.044-0.381,0.053-0.246,0.126-0.105l2.728,6.36H32.583
			z M35.014,27.493c-0.2,0.997-0.462,1.979-0.781,2.941l-3.269-7.751l1.437-0.641c0.15-0.07,0.15-0.286,0.004-0.362
			c0,0-1.407-0.999-1.485-1.058l-0.035-2.376c0.176-0.021,0.342-0.1,0.513-0.127c0.19-0.031,0.369,0.003,0.557,0.036
			c0.17,0.028,0.34,0.044,0.505-0.005c0.16-0.045,0.301-0.133,0.427-0.235c-0.372-0.009-0.675-0.247-1.005-0.393
			c-0.164-0.081-0.343-0.12-0.524-0.144c-0.179-0.018-0.392-0.03-0.562,0.023c-0.016-0.14-0.035-0.281-0.062-0.439h-0.073
			c-0.111,0.653-0.105,1.365-0.114,2.022c-0.006,0.462-0.009,0.928-0.018,1.388c0,0.085,0,0.167-0.003,0.249l-1.477,1.055
			c-0.144,0.076-0.149,0.289,0,0.365l0,0l1.394,0.641l-2.814,6.845l-1.45-4.402l1.606-0.753c0.166-0.085,0.172-0.333,0.007-0.422
			c0,0-1.512-1.061-1.71-1.203c-0.012-0.555-0.021-1.158-0.023-1.681l1.465-0.693l0,0c0.144-0.068,0.154-0.287,0.006-0.363
			c0,0-1.31-0.935-1.503-1.07c-0.015-1.081-0.026-2.158-0.038-3.232c0.081,0,0.164-0.031,0.245-0.054
			c0.095-0.028,0.188-0.057,0.281-0.07c0.188-0.036,0.367-0.006,0.555,0.025c0.176,0.031,0.359,0.053,0.533,0
			c0.161-0.049,0.299-0.132,0.427-0.236c-0.374-0.006-0.677-0.245-1.002-0.392c-0.167-0.079-0.346-0.119-0.529-0.141
			c-0.179-0.022-0.387-0.032-0.559,0.021c-0.016-0.143-0.033-0.288-0.062-0.441h-0.071v0.002c-0.102,0.599-0.108,1.199-0.114,1.802
			c-0.005,0.549-0.008,1.097-0.017,1.646c-0.006,0.358-0.009,0.715-0.017,1.07l-1.489,1.064c-0.149,0.076-0.149,0.293,0,0.369
			l1.459,0.688h0.003c-0.004,0.522-0.012,1.14-0.021,1.686l-1.708,1.2c-0.171,0.087-0.171,0.334,0,0.425l1.573,0.749l-4.913,5.451
			c-0.093,0-0.706,0.007-0.794,0.119c-0.129,0.1-0.133,0.258-0.079,0.391c0.075,0.175,0.227,0.299,0.387,0.394
			c0.082,0.051,0.174,0.091,0.264,0.125c0.009,0.008,0.021,0.02,0.029,0.025c0,0,0.441,1.474,2.335,2.159H22.7
			c0,0,0.048,0.015,0.034,0.057c0,0.01-0.007,0.012-0.013,0.018c-0.012,0.005-0.029,0.011-0.048,0.014
			c-1.807-0.112-3.587-0.411-5.375-0.69c-0.682-0.11-1.362-0.213-2.048-0.303c-0.462-0.059-0.923-0.114-1.383-0.197
			c-0.046-0.012-0.07-0.028-0.076-0.049v-0.003c-0.004,0-0.004-0.006-0.004-0.006v-0.012c0-0.006,0.004-0.006,0.004-0.006
			c0-0.009,0.013-0.021,0.021-0.031c0.009-0.008,0.014-0.01,0.014-0.01c2.514-0.75,3.043-2.583,3.043-2.583
			c0.033-0.016,0.065-0.034,0.095-0.048c0.068-0.032,0.138-0.064,0.199-0.103c0.161-0.091,0.315-0.214,0.386-0.394
			c0.057-0.137,0.048-0.286-0.078-0.39c-0.094-0.123-0.806-0.12-0.806-0.12l-0.004,0.007H16.54
			c-0.004-0.394-0.015-1.409-0.036-2.067c0.074,0.033,0.162,0.004,0.232-0.014c0.097-0.027,0.188-0.058,0.281-0.079
			c0.195-0.045,0.384-0.034,0.58,0c0.188,0.033,0.375,0.066,0.562,0.018c0.167-0.04,0.32-0.133,0.448-0.241
			c-0.378-0.01-0.686-0.26-1.022-0.405c-0.177-0.076-0.366-0.118-0.556-0.137c-0.18-0.014-0.402-0.03-0.566,0.048
			c-0.013-0.154-0.026-0.293-0.044-0.39h-0.07c-0.097,0.561-0.1,2.511-0.105,3.268l-1.26,0.003
			c-0.039-1.377-0.101-3.214-0.132-4.389l1.093-2.344c0.149,0.067,0.325,0.076,0.477,0.134c0.171,0.059,0.311,0.159,0.448,0.279
			c0.134,0.105,0.267,0.214,0.429,0.266c0.181,0.06,0.369,0.05,0.546,0.021c-0.309-0.188-0.458-0.533-0.658-0.816
			c-0.105-0.147-0.235-0.271-0.38-0.382c-0.152-0.112-0.329-0.229-0.514-0.275c0.043-0.126,0.098-0.299,0.104-0.381
			c-0.007-0.015,0-0.037-0.033-0.057c-0.006,0-0.011-0.004-0.019-0.004c-0.049,0.004-0.063,0.039-0.096,0.078
			c-0.098,0.12-0.229,0.352-0.248,0.394l-1.167,2.501c-0.011-0.393-0.021-0.788-0.026-1.184c0-0.498-0.023-0.99-0.106-1.48h-0.07
			c-0.104,0.597-0.106,1.196-0.113,1.802c-0.006,0.54-0.023,1.082-0.039,1.627l-2.009,4.16l-1.799-4.413
			c-0.015-0.544-0.029-1.089-0.035-1.637c-0.012-0.619-0.012-1.237-0.114-1.853h-0.066c-0.107,0.602-0.107,1.214-0.116,1.82
			c-0.007,0.557-0.022,1.112-0.033,1.665l-0.578,1.363L8.325,22.56c-0.009-0.548-0.016-1.081-0.026-1.603l1.28-0.602
			c0.132-0.065,0.132-0.255,0.003-0.325c0,0-1.084-0.778-1.31-0.939c-0.018-1.129-0.026-2.254-0.044-3.383
			c0.085,0,0.164-0.031,0.243-0.054c0.091-0.028,0.184-0.057,0.281-0.07c0.191-0.036,0.368-0.006,0.553,0.025
			c0.18,0.031,0.359,0.053,0.535,0c0.158-0.049,0.299-0.132,0.427-0.236c-0.363-0.006-0.666-0.231-0.979-0.382
			c-0.167-0.08-0.344-0.127-0.526-0.15c-0.182-0.022-0.397-0.035-0.58,0.021c-0.015-0.152-0.035-0.301-0.062-0.447H8.05
			c-0.12,0.725-0.107,1.45-0.114,2.179c-0.006,0.703-0.02,1.404-0.032,2.107c0,0.134,0,0.263-0.005,0.39l-1.307,0.938
			c-0.132,0.066-0.134,0.257,0,0.327l1.28,0.602c-0.007,0.586-0.021,1.538-0.021,1.603l-2.609,6.125L4.86,27.279h0.337v-0.006h0.167
			c0.073,0,0.152-0.026,0.22-0.048c0.05-0.017,0.164-0.055,0.164-0.125c0-0.064-0.103-0.104-0.149-0.121
			c-0.07-0.025-0.152-0.053-0.234-0.053H4.77l-0.258-0.971c-0.006-0.396-0.012-0.798-0.021-1.19l1.438-0.674
			c0.146-0.076,0.149-0.287,0.009-0.363c0,0-1.383-0.98-1.482-1.045c-0.003-0.285-0.009-0.687-0.015-0.944l1.298-0.615
			c0.129-0.063,0.135-0.252,0.004-0.322c0,0-1.152-0.823-1.331-0.954c-0.015-0.941-0.021-1.574-0.026-1.645
			c0.152,0.015,0.313-0.07,0.454-0.099c0.167-0.03,0.325-0.016,0.488,0.01c0.156,0.033,0.314,0.053,0.473,0.019
			c0.149-0.041,0.284-0.12,0.402-0.217c-0.329-0.009-0.602-0.217-0.891-0.349c-0.147-0.069-0.309-0.111-0.473-0.125
			c-0.158-0.013-0.349-0.031-0.501,0.031c-0.015-0.129-0.032-0.253-0.062-0.394H4.21c-0.103,0.517-0.105,1.04-0.111,1.564
			c-0.006,0.446-0.012,0.757-0.022,1.203l-1.325,0.95c-0.137,0.068-0.137,0.263,0,0.325l1.295,0.616
			C4.043,22.003,4.04,22.4,4.034,22.684l-1.456,1.042c-0.15,0.07-0.15,0.288-0.006,0.36l1.427,0.68
			c-0.006,0.393-0.015,0.788-0.023,1.18l-0.255,0.981H3.12c-0.072,0-0.152,0.024-0.217,0.047c-0.05,0.019-0.167,0.061-0.167,0.127
			c0,0.064,0.103,0.103,0.15,0.12c0.075,0.026,0.157,0.053,0.233,0.053h0.167c0,0,0,0.006,0.003,0.006h0.337L3.179,28.98h-0.72
			c-0.439-1.642-0.701-3.328-0.795-5.021c-0.097-1.698-0.023-3.404,0.215-5.085c0.218-1.562,0.591-3.105,1.106-4.592
			c0.498-1.418,1.125-2.793,1.893-4.079c0.401-0.679,0.84-1.336,1.325-1.966c1.95,0.654,4.475,0.054,4.475,0.054
			c2.275-0.411,3.691-0.346,4.516-0.217l0.441,0.076c0.047-0.277,0.079-0.478,0.166-0.739c-2.382-0.755-5.062-0.388-5.062-0.388
			C9.116,7.17,8.132,6.84,7.623,6.559c0,0,1.022-1.09,1.859-1.69c0.732,0.53,1.657,0.79,2.525,0.942
			c0.573,0.104,1.156,0.15,1.725,0.277c0.575,0.131,1.151,0.304,1.709,0.498c0.196,0.068,0.46,0.195,0.576,0.251
			c0.105-0.232,0.253-0.445,0.399-0.654l-0.369-0.233c-0.735-0.42-1.426-0.639-2.201-0.87c-0.521-0.16-1.02-0.339-1.505-0.588
			c-0.659-0.341-1.067-0.783-1.104-0.813c0,0,1.13-0.693,2.195-1.088c0.492,0.698,1.408,1.09,2.032,1.626
			c0.884,0.751,1.354,1.455,1.394,1.534c0.208-0.158,0.401-0.271,0.668-0.372c-0.352-0.773-0.855-1.661-1.462-2.224
			c-0.272-0.255-0.683-0.697-0.8-1.143c0,0,1.418-0.358,2.51-0.372l0.404,3.585c0.153-0.03,0.382-0.026,0.382-0.026
			s0.146-0.004,0.385,0.026l0.404-3.585c0,0,0.963,0.046,1.749,0.203c0.432,0.086,0.763,0.169,0.763,0.169
			c-0.125,0.442-0.523,0.893-0.796,1.143c-0.615,0.576-1.092,1.449-1.445,2.23c0.205,0.093,0.443,0.184,0.661,0.365
			c0.411-0.612,0.919-1.136,1.385-1.534c0.612-0.531,1.529-0.944,2.024-1.626c0.125,0.049,0.677,0.26,1.553,0.71l0.659,0.374
			c-0.021,0.02-0.751,0.614-1.113,0.817c-0.472,0.27-0.981,0.428-1.497,0.588c-0.777,0.231-1.471,0.45-2.206,0.87l-0.373,0.229
			c0.146,0.183,0.285,0.401,0.408,0.656c0.129-0.065,0.384-0.185,0.571-0.249c0.562-0.194,1.131-0.367,1.714-0.498
			c0.565-0.127,1.148-0.174,1.719-0.277c0.861-0.148,1.791-0.426,2.522-0.942c0.921,0.715,1.858,1.69,1.858,1.69
			c-0.513,0.281-1.503,0.609-3.115,0.465c0,0-2.677-0.369-5.053,0.378c0.073,0.223,0.102,0.379,0.156,0.725l0.471-0.074
			c0.841-0.122,2.222-0.172,4.491,0.239c0,0,2.514,0.6,4.468-0.051c0.193,0.25,0.381,0.51,0.56,0.773
			c0.84,1.215,1.543,2.52,2.116,3.876c0.605,1.431,1.062,2.92,1.379,4.439c0.328,1.604,0.501,3.237,0.52,4.873
			C35.519,23.975,35.357,25.749,35.014,27.493"/>
	</g>
</g>
</svg>
