<?xml version="1.0" encoding="utf-8"?>
<!-- Generator: Adobe Illustrator 16.0.0, SVG Export Plug-In . SVG Version: 6.00 Build 0)  -->
<!DOCTYPE svg PUBLIC "-//W3C//DTD SVG 1.1//EN" "http://www.w3.org/Graphics/SVG/1.1/DTD/svg11.dtd">
<svg version="1.1" id="Layer_1" xmlns="http://www.w3.org/2000/svg" xmlns:xlink="http://www.w3.org/1999/xlink" x="0px" y="0px"
	 width="169.998px" height="30px" viewBox="0 0 169.998 30" enable-background="new 0 0 169.998 30" xml:space="preserve">
<g>
	<g>
		<path fill="#292202" d="M31.241,10.258h4.365c1.111,0,1.987,0.307,2.545,0.864c0.432,0.431,0.654,0.958,0.654,1.613v0.027
			c0,1.167-0.668,1.794-1.392,2.17c1.141,0.387,1.933,1.042,1.933,2.362v0.028c0,1.738-1.432,2.67-3.6,2.67H31.24L31.241,10.258
			L31.241,10.258z M35.259,14.362c1.099,0,1.833-0.434,1.833-1.324v-0.025c0-0.764-0.61-1.238-1.709-1.238h-2.462v2.588
			L35.259,14.362L35.259,14.362z M35.758,18.479c1.168,0,1.879-0.459,1.879-1.336v-0.028c0-0.819-0.654-1.304-2.003-1.304h-2.713
			v2.668H35.758z"/>
		<path fill="#292202" d="M40.727,17.322v-4.671h1.684v4.172c0,1.139,0.57,1.793,1.57,1.793c0.975,0,1.656-0.681,1.656-1.824v-4.141
			h1.682v7.341h-1.682v-1.139c-0.472,0.694-1.154,1.291-2.294,1.291C41.688,20.145,40.727,19.035,40.727,17.322"/>
		<path fill="#292202" d="M48.754,16.352V16.32c0-2.097,1.488-3.822,3.589-3.822c2.336,0,3.516,1.834,3.516,3.95
			c0,0.151-0.012,0.304-0.026,0.473h-5.395c0.181,1.196,1.028,1.863,2.112,1.863c0.822,0,1.404-0.306,1.99-0.876l0.987,0.876
			c-0.696,0.834-1.657,1.376-3.004,1.376C50.395,20.159,48.754,18.616,48.754,16.352 M54.19,15.811
			c-0.109-1.088-0.75-1.937-1.862-1.937c-1.027,0-1.752,0.791-1.904,1.937H54.19z"/>
		<path fill="#292202" d="M57.283,12.651h1.682v1.139c0.472-0.694,1.155-1.292,2.294-1.292c1.655,0,2.616,1.112,2.616,2.821v4.673
			H62.19v-4.169c0-1.142-0.571-1.794-1.57-1.794c-0.975,0-1.656,0.679-1.656,1.821v4.144h-1.682L57.283,12.651L57.283,12.651z"/>
		<path fill="#292202" d="M65.226,16.364v-0.03c0-2.099,1.669-3.836,3.92-3.836c2.253,0,3.908,1.711,3.908,3.811v0.025
			c0,2.086-1.666,3.825-3.934,3.825C66.881,20.159,65.226,18.452,65.226,16.364 M71.373,16.364v-0.03
			c0-1.292-0.932-2.363-2.252-2.363c-1.35,0-2.211,1.056-2.211,2.335v0.026c0,1.282,0.932,2.366,2.237,2.366
			C70.511,18.7,71.373,17.628,71.373,16.364"/>
		<path fill="#292202" d="M73.894,19.035l0.75-1.143c0.792,0.601,1.656,0.904,2.406,0.904c0.722,0,1.14-0.305,1.14-0.794v-0.026
			c0-0.57-0.777-0.767-1.641-1.031c-1.084-0.305-2.293-0.746-2.293-2.155v-0.026c0-1.392,1.154-2.24,2.615-2.24
			c0.915,0,1.917,0.321,2.696,0.835l-0.668,1.196c-0.709-0.432-1.459-0.696-2.071-0.696c-0.653,0-1.029,0.307-1.029,0.739v0.023
			c0,0.531,0.792,0.752,1.655,1.034c1.07,0.331,2.279,0.819,2.279,2.14v0.029c0,1.543-1.197,2.307-2.724,2.307
			C75.963,20.131,74.81,19.758,73.894,19.035"/>
		<path fill="#292202" d="M88.706,10.191h1.588l4.283,9.801h-1.809l-0.986-2.35h-4.604l-1.002,2.35h-1.752L88.706,10.191z
			 M91.155,16.125l-1.682-3.893l-1.668,3.893H91.155z"/>
		<path fill="#292202" d="M95.808,9.926h1.807v1.602h-1.807V9.926z M95.874,12.651h1.684v7.341h-1.684V12.651z"/>
		<path fill="#292202" d="M99.478,12.651h1.684v1.655c0.457-1.098,1.307-1.848,2.6-1.795v1.779h-0.098
			c-1.475,0-2.502,0.963-2.502,2.908v2.794h-1.684V12.651z"/>
		<path fill="#292202" d="M104.292,16.352V16.32c0-2.097,1.486-3.822,3.587-3.822c2.338,0,3.519,1.834,3.519,3.95
			c0,0.151-0.014,0.304-0.028,0.473h-5.394c0.178,1.196,1.027,1.863,2.111,1.863c0.82,0,1.405-0.306,1.989-0.876l0.987,0.876
			c-0.694,0.834-1.658,1.376-3.006,1.376C105.931,20.159,104.292,18.616,104.292,16.352 M109.728,15.811
			c-0.108-1.088-0.752-1.937-1.862-1.937c-1.028,0-1.75,0.791-1.904,1.937H109.728z"/>
		<path fill="#292202" d="M112.224,19.035l0.748-1.143c0.793,0.601,1.655,0.904,2.406,0.904c0.723,0,1.139-0.305,1.139-0.794v-0.026
			c0-0.57-0.779-0.767-1.638-1.031c-1.085-0.305-2.297-0.746-2.297-2.155v-0.026c0-1.392,1.155-2.24,2.614-2.24
			c0.919,0,1.92,0.321,2.697,0.835l-0.668,1.196c-0.709-0.432-1.459-0.696-2.07-0.696c-0.654,0-1.027,0.307-1.027,0.739v0.023
			c0,0.531,0.792,0.752,1.655,1.034c1.069,0.331,2.28,0.819,2.28,2.14v0.029c0,1.543-1.197,2.307-2.728,2.307
			C114.292,20.131,113.138,19.758,112.224,19.035"/>
		<path fill="#292202" d="M123.155,15.153v-0.028c0-2.766,2.07-5.032,5.021-5.032c1.794,0,2.878,0.624,3.81,1.514l-1.096,1.264
			c-0.779-0.72-1.617-1.207-2.728-1.207c-1.865,0-3.213,1.527-3.213,3.435v0.025c0,1.903,1.348,3.461,3.213,3.461
			c1.196,0,1.961-0.485,2.795-1.265l1.099,1.113c-1.017,1.057-2.128,1.725-3.949,1.725
			C125.267,20.159,123.155,17.948,123.155,15.153"/>
		<path fill="#292202" d="M133.409,9.926h1.807v1.602h-1.807V9.926z M133.478,12.651h1.683v7.341h-1.683V12.651z"/>
		<path fill="#292202" d="M136.998,17.322v-4.671h1.681v4.172c0,1.139,0.571,1.793,1.573,1.793c0.974,0,1.653-0.681,1.653-1.824
			v-4.141h1.685v7.341h-1.685v-1.139c-0.471,0.694-1.152,1.291-2.293,1.291C137.958,20.145,136.998,19.035,136.998,17.322"/>
		<path fill="#292202" d="M145.051,16.334v-0.025c0-2.435,1.656-3.811,3.408-3.811c1.211,0,1.974,0.613,2.502,1.292V9.841h1.683
			v10.151h-1.683v-1.225c-0.541,0.766-1.308,1.377-2.502,1.377C146.735,20.145,145.051,18.768,145.051,16.334 M150.99,16.334v-0.025
			c0-1.418-1.001-2.351-2.128-2.351c-1.153,0-2.115,0.89-2.115,2.351v0.025c0,1.42,0.977,2.352,2.115,2.352
			C149.989,18.686,150.99,17.739,150.99,16.334"/>
		<path fill="#292202" d="M158.963,19.992v-0.904c-0.502,0.598-1.267,1.057-2.377,1.057c-1.392,0-2.617-0.791-2.617-2.264v-0.029
			c0-1.627,1.267-2.406,2.978-2.406c0.891,0,1.459,0.125,2.029,0.305v-0.137c0-1.015-0.639-1.572-1.807-1.572
			c-0.82,0-1.434,0.182-2.1,0.459l-0.459-1.349c0.807-0.361,1.6-0.612,2.795-0.612c2.169,0,3.227,1.141,3.227,3.103v4.351
			L158.963,19.992L158.963,19.992z M159.004,16.92c-0.433-0.168-1.03-0.293-1.685-0.293c-1.055,0-1.682,0.432-1.682,1.143v0.024
			c0,0.698,0.625,1.086,1.416,1.086c1.116,0,1.95-0.626,1.95-1.546V16.92L159.004,16.92z"/>
		<path fill="#292202" d="M161.983,16.334v-0.025c0-2.435,1.656-3.811,3.406-3.811c1.209,0,1.977,0.613,2.502,1.292V9.841h1.683
			v10.151h-1.683v-1.225c-0.543,0.766-1.306,1.377-2.502,1.377C163.667,20.145,161.983,18.768,161.983,16.334 M167.922,16.334
			v-0.025c0-1.418-1.002-2.351-2.128-2.351c-1.154,0-2.111,0.89-2.111,2.351v0.025c0,1.42,0.971,2.352,2.111,2.352
			C166.92,18.686,167.922,17.739,167.922,16.334"/>
		<path fill="#292202" d="M12.345,4.851c-0.077,0-0.141,0.063-0.141,0.141c0,0.078,0.064,0.143,0.141,0.143
			c0.08,0,0.141-0.064,0.141-0.143C12.485,4.914,12.424,4.851,12.345,4.851"/>
		<path fill="#292202" d="M19.552,7.056l-0.023-0.003c-0.742-0.03-1.451-0.298-2.137-0.558c-0.278-0.105-0.566-0.214-0.852-0.303
			c-0.562-0.18-1.064-0.277-1.533-0.301c-0.125-0.006-0.237-0.009-0.357-0.009c-0.316,0-0.762,0.029-1.039,0.3
			c-0.08-0.35-0.174-0.742-0.32-1.115c-0.141-0.353-0.348-0.773-0.726-0.887c-0.062-0.02-0.126-0.025-0.185-0.025
			c-0.375,0-0.657,0.333-0.797,0.533l-0.062,0.09c-0.161,0.235-0.243,0.352-0.22,0.463c0.026,0.111,0.159,0.194,0.464,0.369
			c0.129,0.075,0.154,0.266,0.172,0.41l0.002,0.014c0.027,0.213,0.042,0.419,0.039,0.616c-0.431-0.444-1.092-0.619-1.689-0.731
			C10.13,5.89,9.963,5.873,9.793,5.873c-0.687,0-1.358,0.259-1.803,0.451C7.739,6.432,7.487,6.551,7.246,6.67
			C6.777,6.896,6.291,7.125,5.788,7.281C5.635,7.328,5.471,7.367,5.269,7.4H5.263C5.261,7.404,5.255,7.404,5.249,7.404L5.236,7.406
			C5.158,7.42,5.029,7.461,5.004,7.58C4.977,7.698,4.992,7.775,5.153,7.9c0.368,0.208,0.816,0.309,1.365,0.309
			c0.114,0,0.23-0.004,0.356-0.011c0.166-0.01,0.332-0.031,0.508-0.053c0.254-0.033,0.512-0.066,0.762-0.066
			c0.172,0,0.322,0.015,0.459,0.046c0.408,0.094,0.654,0.5,0.865,0.858c0.055,0.091,0.105,0.174,0.157,0.252L9.628,9.24
			c0.1,0.15,0.264,0.4,0.255,0.588C9.872,10.009,9.62,10.16,9.439,10.27c-0.048,0.031-0.096,0.059-0.13,0.083
			c-0.059,0.039-0.127,0.083-0.199,0.129c-0.41,0.26-0.969,0.619-0.905,1.099c0.029,0.237,0.227,0.426,0.467,0.456
			c0.021,0.003,0.044,0.003,0.066,0.003c0.172,0,0.325-0.077,0.473-0.155c0.062-0.031,0.127-0.064,0.188-0.09
			c0.197-0.078,0.394-0.119,0.589-0.119c0.329,0,0.647,0.111,0.943,0.332c0.097,0.074,0.182,0.162,0.268,0.246
			c0.09,0.091,0.184,0.188,0.292,0.264c0.086,0.062,0.246,0.125,0.381,0.125c0.133,0,0.224-0.065,0.248-0.186
			c0.049-0.238,0.048-0.488,0.048-0.73c-0.005-0.192-0.005-0.393,0.019-0.583c0.014-0.117,0.046-0.354,0.198-0.427
			c0.05-0.022,0.106-0.034,0.176-0.034c0.077,0,0.159,0.014,0.235,0.024c0.107,0.019,0.223,0.035,0.314,0.023
			c0.432-0.061,0.793-0.415,0.965-0.95c0.082-0.178,0.176-0.26,0.361-0.303c0.217-0.053,0.354-0.229,0.485-0.404
			c0.032-0.043,0.065-0.084,0.1-0.125c0.271-0.324,0.604-0.468,1.071-0.468c0.086,0,0.178,0.004,0.281,0.015
			c0.096,0.01,0.191,0.02,0.289,0.031c0.25,0.029,0.488,0.057,0.73,0.057c0.262,0,0.496-0.035,0.713-0.105
			c0.562-0.188,1.057-0.552,1.51-0.918l0.066-0.054c0.127-0.106,0.156-0.173,0.123-0.295C19.772,7.09,19.612,7.061,19.552,7.056
			 M9.862,8.727C9.754,8.541,9.638,8.351,9.497,8.183c-0.328-0.398-0.762-0.574-1.41-0.574c-0.271,0-0.557,0.029-0.834,0.059
			C6.979,7.698,6.696,7.726,6.43,7.726c-0.141,0-0.267-0.009-0.385-0.023c0.469-0.157,0.92-0.37,1.352-0.581
			c0.467-0.226,0.951-0.459,1.455-0.613C9.163,6.415,9.49,6.363,9.819,6.363c0.604,0,1.162,0.16,1.617,0.46
			c0.377,0.25,0.489,0.514,0.36,0.886c-0.135,0.393-0.371,0.782-0.7,1.154c-0.021,0.023-0.044,0.051-0.072,0.083
			c-0.144,0.17-0.382,0.455-0.584,0.455c-0.062,0-0.117-0.028-0.164-0.079C10.112,9.144,9.985,8.932,9.862,8.727 M13.663,9.279
			c-0.045,0.328-0.174,0.609-0.375,0.792c-0.178,0.165-0.373,0.196-0.633,0.196c-0.041,0-0.088-0.002-0.13-0.002
			c-0.047,0-0.093,0-0.146,0c-0.164,0-0.303,0.055-0.41,0.163c-0.311,0.316-0.305,1.008-0.3,1.467v0.147l-0.032-0.028
			c-0.395-0.363-0.764-0.712-1.32-0.797c-0.086-0.016-0.176-0.021-0.268-0.021c-0.167,0-0.346,0.023-0.527,0.067
			C9.364,11.3,9.231,11.36,9.089,11.426c-0.057,0.024-0.111,0.047-0.167,0.072c-0.067,0.029-0.157,0.055-0.21,0.055
			c-0.015,0-0.029,0-0.035-0.005c-0.002-0.008-0.002-0.02,0.002-0.033c0.054-0.188,0.256-0.32,0.417-0.43l0.043-0.028
			c0.415-0.279,0.802-0.558,1.184-0.855c0.701-0.545,1.471-1.223,1.852-2.146c0.219-0.519,0.311-1.113,0.274-1.722l-0.003-0.035
			c-0.02-0.252-0.032-0.513-0.137-0.741c-0.081-0.191-0.232-0.279-0.387-0.372c-0.03-0.018-0.059-0.033-0.086-0.05
			c0.073-0.139,0.279-0.501,0.516-0.501c0.092,0,0.179,0.056,0.262,0.168c0.279,0.382,0.404,0.837,0.518,1.24
			c0.018,0.07,0.039,0.146,0.062,0.226C13.416,7.046,13.785,8.353,13.663,9.279 M18.45,7.8c-0.382,0.216-0.722,0.319-1.046,0.319
			h-0.031c-0.211-0.006-0.422-0.032-0.629-0.062c-0.18-0.021-0.363-0.047-0.545-0.056c-0.447-0.018-0.793,0.051-1.071,0.217
			c-0.194,0.118-0.329,0.281-0.46,0.446c-0.092,0.113-0.193,0.232-0.311,0.333c-0.035,0.026-0.082,0.061-0.125,0.061h-0.004
			c-0.05-0.002-0.055-0.035-0.05-0.111c0-0.02,0.001-0.035,0-0.048c-0.009-0.168-0.035-0.335-0.056-0.497L14.108,8.31
			c-0.039-0.283-0.082-0.582-0.15-0.876c-0.012-0.049-0.031-0.109-0.051-0.175c-0.08-0.257-0.18-0.581,0.019-0.744
			c0.123-0.1,0.329-0.118,0.466-0.133c0,0,0.158-0.013,0.328-0.014h0.062c0.189,0,0.383,0.011,0.574,0.035
			c0.355,0.048,0.729,0.142,1.18,0.292c0.242,0.079,0.484,0.171,0.723,0.258c0.545,0.203,1.109,0.415,1.699,0.515
			C18.771,7.604,18.608,7.712,18.45,7.8"/>
		<path fill="#292202" d="M24.524,12.152c-0.162-1.039-0.42-2.062-0.768-3.053c-0.336-0.948-0.758-1.868-1.263-2.739
			C22.1,5.685,21.657,5.04,21.16,4.433c-0.633-0.774-1.352-1.48-2.142-2.092c-0.769-0.596-1.612-1.099-2.505-1.482
			c-0.893-0.382-1.836-0.644-2.797-0.771c-0.976-0.128-1.977-0.116-2.95,0.034C9.809,0.274,8.876,0.56,7.995,0.965
			C7.11,1.373,6.276,1.894,5.518,2.507c-0.775,0.626-1.475,1.346-2.09,2.128C2.82,5.403,2.293,6.233,1.848,7.107
			C1.385,8.014,1.009,8.964,0.719,9.941c-0.301,1.02-0.508,2.067-0.62,3.126c-0.113,1.1-0.131,2.209-0.048,3.311
			c0.082,1.069,0.253,2.132,0.527,3.167c0.26,0.992,0.607,1.963,1.045,2.891c0.422,0.892,0.922,1.746,1.506,2.537
			c0.654,0.895,2.321,2.471,2.331,2.471C7.425,29.051,9.807,30,12.374,30h0.003c0.977,0,1.956-0.137,2.893-0.414
			c0.934-0.27,1.822-0.67,2.65-1.174c0.843-0.51,1.619-1.128,2.317-1.825c0.696-0.696,1.317-1.468,1.854-2.297
			c0.545-0.833,1.004-1.724,1.381-2.646c0.393-0.961,0.691-1.959,0.902-2.979c0.221-1.062,0.342-2.146,0.369-3.231
			C24.769,14.336,24.698,13.235,24.524,12.152 M2.619,19.32H2.303l0.283-1.072c0.027-0.078,0.043-0.075,0.053-0.043
			C2.631,18.593,2.625,18.967,2.619,19.32 M2.773,16.398L2.14,16.107c-0.037-0.017-0.033-0.029,0.004-0.029h1.361
			c0.039,0,0.041,0.014,0.006,0.029l-0.609,0.291C2.867,16.417,2.809,16.417,2.773,16.398 M1.979,15.801l0.708-0.504
			c-0.004,0.166-0.006,0.334-0.007,0.504H1.979z M2.217,14.102h1.211c0.033,0,0.037,0.012,0.004,0.025l-0.541,0.256
			c-0.033,0.015-0.084,0.015-0.118,0.002l-0.564-0.262C2.178,14.11,2.181,14.102,2.217,14.102 M2.064,13.852l0.65-0.429
			c0,0.135-0.004,0.281-0.008,0.429H2.064z M2.945,13.432l0.645,0.419H2.951C2.949,13.711,2.947,13.57,2.945,13.432 M2.973,15.299
			l0.715,0.502H2.982C2.979,15.633,2.975,15.463,2.973,15.299 M3.041,19.32c-0.006-0.354-0.013-0.729-0.02-1.113
			c0.004-0.025,0.025-0.045,0.047,0.031l0.285,1.082H3.041z M12.374,28.917c-1.887,0-3.666-0.565-5.236-1.584
			c1.216-0.009,2.424,0.153,3.624,0.333c1.204,0.177,2.409,0.379,3.622,0.501c0.465,0.047,0.934,0.081,1.402,0.103
			C14.708,28.689,13.562,28.917,12.374,28.917 M17.907,27.133c-1.195,0.125-2.402,0.069-3.596-0.06
			c-1.193-0.13-2.376-0.333-3.562-0.503c-1.226-0.178-2.453-0.332-3.69-0.321c-0.423,0.005-0.841,0.026-1.257,0.067
			c-0.393-0.349-0.767-0.728-1.122-1.133c1.239-0.184,2.5-0.178,3.75-0.09c1.254,0.094,2.497,0.276,3.741,0.459
			c0.625,0.094,1.248,0.188,1.873,0.27c0.311,0.043,1.546,0.136,1.852,0.136c1.245,0,2.499-0.092,3.733-0.295
			C19.092,26.215,18.517,26.706,17.907,27.133 M20.747,24.332c-1.197,0.29-2.424,0.443-3.654,0.508
			c-0.613,0.031-1.23,0.049-1.846,0.018c-0.621-0.027-1.238-0.129-1.854-0.219c-1.237-0.177-2.475-0.375-3.721-0.518
			c-1.24-0.137-2.488-0.211-3.738-0.148c-0.675,0.036-1.354,0.109-2.022,0.238c-0.227-0.316-0.443-0.648-0.648-0.994
			c1.1-0.227,2.214-0.374,3.338-0.412c1.138-0.043,2.273,0.036,3.401,0.184c1.09,0.142,2.171,0.344,3.261,0.49
			c0.997,0.135,1.999,0.223,3.003,0.223h0.007c1.043,0,2.088-0.094,3.12-0.26c0.75-0.123,1.5-0.278,2.234-0.469
			C21.356,23.448,21.063,23.902,20.747,24.332 M4.137,20.506C3.614,20.16,3.542,19.6,3.573,19.491l1.612-3.8
			c0.037-0.069,0.052-0.047,0.041,0L4.137,20.506z M5.204,16.92c-0.025,1.702-0.047,3.289-0.054,4.048
			c-0.296-0.085-0.586-0.177-0.838-0.354l0.854-3.771C5.188,16.807,5.201,16.861,5.204,16.92 M4.775,13.584h1.212
			c0.033,0,0.037,0.014,0.006,0.028L5.45,13.873c-0.031,0.015-0.084,0.015-0.113,0l-0.565-0.261
			C4.738,13.599,4.742,13.584,4.775,13.584 M4.625,13.34l0.639-0.422c-0.001,0.137-0.003,0.277-0.004,0.422H4.625z M5.518,12.926
			L6.15,13.34H5.524C5.522,13.197,5.521,13.059,5.518,12.926 M6.813,18.506c-0.021,0.814-0.041,1.631-0.054,2.26
			c-0.005,0.006-0.012,0.01-0.021,0.014l-0.541-2.352l0.289-0.686L6.813,18.506z M6.597,17.482l0.216-0.51
			c0.023-0.029,0.035-0.021,0.041,0.004c-0.007,0.328-0.018,0.681-0.026,1.041L6.597,17.482z M6.062,18.747l0.521,2.14
			c-0.182,0.076-0.409,0.118-0.607,0.146c-0.071,0.01-0.143,0.014-0.213,0.019c-0.042,0.004-0.089,0.012-0.13,0.008
			c-0.002-0.289-0.009-0.723-0.014-1.256L6.062,18.747z M5.612,19.297c-0.012-0.707-0.023-1.533-0.036-2.39
			c0.006-0.07,0.023-0.12,0.059-0.017l0.349,1.521L5.612,19.297z M6.121,18.092l-0.556-2.396c-0.004-0.047,0.006-0.072,0.043-0.004
			l0.768,1.791L6.121,18.092z M7.179,18.838v-0.349c-0.015-0.624-0.031-0.914-0.045-1.491c0.004-0.041,0.019-0.066,0.047-0.021
			l0.963,2.404c-0.158,0.313-0.186,0.422-0.429,0.678L7.179,18.838z M7.558,20.215c-0.095,0.109-0.224,0.215-0.334,0.305
			c-0.01-0.328-0.021-0.754-0.03-1.135L7.558,20.215z M8.536,19.295l1.102-2.363c-0.021,0.676-0.041,1.649-0.062,2.363H9.127
			C8.96,19.295,8.7,19.305,8.536,19.295 M16.417,16.266h1.59c0.042,0,0.049,0.015,0.021,0.028c-0.005,0.005-0.726,0.345-0.726,0.345
			c-0.047,0.026-0.111,0.021-0.148,0.002l-0.746-0.34C16.366,16.279,16.37,16.266,16.417,16.266 M16.235,15.948l0.833-0.594
			c-0.004,0.173-0.008,0.573-0.008,0.594H16.235z M16.534,13.604c0,0,0.018-0.005,0.027-0.005h1.332
			c0.012,0,0.018,0.001,0.024,0.005h0.002h-0.002c0.009,0.005,0.004,0.013-0.02,0.023l-0.596,0.278
			c-0.033,0.018-0.089,0.018-0.125,0.003l-0.619-0.281C16.536,13.617,16.528,13.609,16.534,13.604 M16.393,13.32l0.709-0.51
			c-0.002,0.165-0.006,0.333-0.006,0.51H16.393z M17.351,12.82l0.716,0.5H17.36C17.356,13.149,17.353,12.981,17.351,12.82
			 M17.386,15.354l0.83,0.594h-0.82C17.394,15.754,17.39,15.549,17.386,15.354 M19.794,14.715h1.361
			c0.037,0,0.041,0.012,0.006,0.029l-0.613,0.291c-0.035,0.018-0.09,0.018-0.124,0l-0.636-0.291
			C19.753,14.728,19.755,14.715,19.794,14.715 M19.624,14.438l0.713-0.506c-0.004,0.17-0.006,0.334-0.008,0.506H19.624z
			 M20.616,13.932l0.723,0.506h-0.715C20.624,14.268,20.62,14.102,20.616,13.932 M20.304,16.857
			c-0.023,1.647-0.051,3.418-0.068,4.664c-0.4,0.136-0.748,0.174-1.053,0.145l0.676-3.021l0.398-1.776
			C20.276,16.825,20.296,16.801,20.304,16.857 M20.21,16.15l-1.18,5.236l-0.51-1.406l0.004-0.01l1.613-3.873
			C20.182,16.02,20.229,15.967,20.21,16.15 M18.905,21.623c-0.369-0.082-0.662-0.262-0.889-0.458l0.386-0.917L18.905,21.623z
			 M17.87,21.021c-0.229-0.241-0.358-0.483-0.41-0.584c-0.01-0.791-0.027-1.977-0.047-3.244l0.896,2.765L17.87,21.021z
			 M15.924,20.382h-1.949l2.902-3.276L15.924,20.382z M17.036,17.191c-0.011,0.738-0.037,3.098-0.037,3.189H16.13L17.036,17.191z
			 M20.655,16.855c-0.002-0.053,0.023-0.037,0.045,0.013l0.812,3.513c-0.176,0.414-0.537,0.719-0.797,0.896
			C20.708,20.637,20.659,16.871,20.655,16.855 M21.722,20.361l-0.996-4.17c-0.029-0.254,0.035-0.164,0.084-0.069l1.818,4.239H21.722
			z M23.342,18.329c-0.134,0.665-0.308,1.319-0.521,1.961l-2.179-5.167l0.958-0.427c0.1-0.047,0.1-0.191,0.002-0.242
			c0,0-0.938-0.666-0.99-0.705l-0.023-1.584c0.117-0.014,0.228-0.066,0.342-0.084c0.127-0.021,0.246,0.002,0.371,0.024
			c0.113,0.019,0.227,0.029,0.336-0.003c0.107-0.03,0.201-0.089,0.285-0.157c-0.248-0.006-0.45-0.165-0.67-0.262
			c-0.109-0.054-0.229-0.08-0.35-0.096c-0.119-0.012-0.261-0.02-0.375,0.016c-0.01-0.093-0.023-0.188-0.041-0.293h-0.049
			c-0.074,0.436-0.07,0.91-0.076,1.349c-0.004,0.308-0.006,0.618-0.012,0.925c0,0.057,0,0.111-0.002,0.166l-0.984,0.703
			c-0.096,0.051-0.1,0.193,0,0.244l0,0l0.929,0.427l-1.876,4.563L17.45,16.75l1.071-0.502c0.11-0.057,0.114-0.223,0.004-0.281
			c0,0-1.008-0.707-1.14-0.802c-0.008-0.37-0.014-0.772-0.016-1.12l0.977-0.462l0,0c0.096-0.045,0.103-0.191,0.004-0.242
			c0,0-0.873-0.623-1.002-0.713c-0.01-0.721-0.018-1.439-0.025-2.155c0.054,0,0.109-0.021,0.164-0.036
			c0.063-0.019,0.125-0.038,0.188-0.047c0.125-0.024,0.245-0.004,0.37,0.017c0.117,0.021,0.24,0.035,0.355,0
			c0.107-0.033,0.199-0.088,0.285-0.158c-0.25-0.004-0.451-0.163-0.668-0.261c-0.111-0.053-0.23-0.08-0.353-0.094
			c-0.119-0.015-0.258-0.021-0.372,0.014c-0.011-0.095-0.022-0.192-0.042-0.294h-0.047v0.001c-0.068,0.399-0.072,0.799-0.076,1.201
			c-0.003,0.366-0.005,0.731-0.011,1.097c-0.004,0.239-0.006,0.477-0.011,0.713l-0.993,0.709c-0.1,0.051-0.1,0.195,0,0.246
			l0.973,0.459h0.002c-0.002,0.348-0.008,0.76-0.014,1.124l-1.139,0.8c-0.114,0.058-0.114,0.224,0,0.283l1.049,0.5l-3.275,3.634
			c-0.062,0-0.471,0.005-0.529,0.08c-0.086,0.066-0.088,0.172-0.053,0.26c0.05,0.117,0.151,0.199,0.258,0.264
			c0.055,0.033,0.116,0.061,0.176,0.082c0.006,0.006,0.014,0.014,0.02,0.018c0,0,0.294,0.982,1.557,1.439l0,0
			c0,0,0.032,0.01,0.023,0.037c0,0.008-0.005,0.008-0.009,0.013c-0.008,0.003-0.02,0.007-0.032,0.009
			c-1.205-0.075-2.391-0.273-3.583-0.46c-0.454-0.073-0.908-0.142-1.365-0.202c-0.308-0.039-0.615-0.076-0.922-0.131
			c-0.03-0.008-0.047-0.02-0.051-0.033v-0.002c-0.002,0-0.002-0.004-0.002-0.004v-0.008c0-0.004,0.002-0.004,0.002-0.004
			c0-0.006,0.009-0.014,0.015-0.021c0.006-0.005,0.009-0.006,0.009-0.006c1.676-0.5,2.029-1.722,2.029-1.722
			c0.022-0.011,0.043-0.022,0.063-0.032c0.046-0.021,0.092-0.043,0.133-0.068c0.107-0.061,0.21-0.143,0.257-0.262
			c0.038-0.091,0.032-0.191-0.052-0.26c-0.062-0.082-0.537-0.08-0.537-0.08l-0.002,0.004h-0.082
			c-0.002-0.262-0.01-0.939-0.024-1.378c0.049,0.022,0.108,0.003,0.155-0.009c0.064-0.02,0.126-0.039,0.188-0.053
			c0.13-0.031,0.256-0.023,0.387,0c0.125,0.021,0.25,0.043,0.375,0.012c0.111-0.027,0.214-0.09,0.299-0.161
			c-0.252-0.007-0.457-0.173-0.682-0.271c-0.118-0.051-0.244-0.078-0.37-0.091c-0.12-0.009-0.269-0.021-0.378,0.032
			c-0.008-0.104-0.018-0.195-0.029-0.26h-0.047c-0.064,0.373-0.066,1.674-0.07,2.178l-0.84,0.002
			c-0.026-0.918-0.067-2.143-0.088-2.926l0.729-1.562c0.1,0.045,0.217,0.051,0.318,0.089c0.114,0.039,0.207,0.106,0.299,0.186
			c0.089,0.07,0.178,0.143,0.286,0.177c0.121,0.04,0.246,0.033,0.364,0.014c-0.206-0.125-0.306-0.355-0.439-0.544
			c-0.07-0.098-0.157-0.18-0.253-0.254c-0.102-0.075-0.219-0.153-0.342-0.184c0.029-0.084,0.065-0.199,0.07-0.254
			c-0.005-0.01,0-0.025-0.022-0.038c-0.004,0-0.007-0.003-0.012-0.003c-0.033,0.003-0.042,0.026-0.064,0.052
			c-0.065,0.08-0.152,0.234-0.165,0.262L9.89,15.977c-0.007-0.262-0.014-0.524-0.018-0.789c0-0.332-0.016-0.66-0.071-0.987H9.754
			c-0.07,0.397-0.071,0.797-0.076,1.201c-0.004,0.36-0.016,0.721-0.026,1.084L8.313,19.26l-1.199-2.941
			c-0.01-0.363-0.02-0.727-0.023-1.091c-0.008-0.413-0.008-0.825-0.076-1.235H6.971c-0.072,0.401-0.072,0.809-0.078,1.213
			c-0.004,0.371-0.015,0.742-0.022,1.109l-0.386,0.91L5.55,15.04c-0.006-0.365-0.01-0.721-0.018-1.068l0.854-0.401
			c0.088-0.044,0.088-0.17,0.002-0.217c0,0-0.723-0.519-0.873-0.626c-0.012-0.752-0.018-1.502-0.029-2.255
			c0.057,0,0.109-0.021,0.162-0.036c0.061-0.019,0.123-0.038,0.188-0.047c0.128-0.024,0.246-0.004,0.369,0.017
			c0.12,0.021,0.24,0.035,0.357,0c0.105-0.033,0.199-0.088,0.284-0.158c-0.242-0.004-0.444-0.154-0.653-0.254
			c-0.111-0.053-0.229-0.084-0.351-0.1C5.72,9.879,5.576,9.871,5.454,9.908c-0.01-0.101-0.023-0.2-0.041-0.298H5.366
			c-0.08,0.483-0.071,0.967-0.076,1.453c-0.004,0.469-0.013,0.936-0.021,1.405c0,0.089,0,0.175-0.003,0.26l-0.871,0.625
			c-0.088,0.044-0.089,0.171,0,0.218l0.854,0.401c-0.005,0.391-0.015,1.025-0.015,1.068l-1.739,4.083L3.24,18.186h0.225v-0.004
			h0.111c0.049,0,0.102-0.018,0.146-0.031c0.033-0.012,0.109-0.037,0.109-0.084c0-0.043-0.068-0.068-0.1-0.08
			c-0.047-0.018-0.102-0.035-0.156-0.035H3.18l-0.172-0.646C3.004,17.04,3,16.771,2.994,16.51l0.959-0.449
			c0.098-0.051,0.1-0.19,0.006-0.242c0,0-0.922-0.653-0.988-0.696c-0.002-0.19-0.006-0.458-0.01-0.629l0.865-0.41
			c0.086-0.042,0.09-0.168,0.002-0.215c0,0-0.768-0.549-0.887-0.636c-0.01-0.627-0.014-1.049-0.018-1.096
			c0.102,0.01,0.209-0.047,0.303-0.065c0.111-0.021,0.217-0.011,0.325,0.006c0.104,0.022,0.21,0.035,0.315,0.012
			c0.1-0.027,0.189-0.08,0.268-0.145c-0.219-0.006-0.401-0.145-0.594-0.232c-0.098-0.046-0.206-0.074-0.315-0.083
			C3.12,11.62,2.993,11.608,2.891,11.65c-0.01-0.086-0.021-0.168-0.041-0.262H2.807c-0.068,0.344-0.07,0.693-0.074,1.043
			c-0.004,0.297-0.008,0.504-0.015,0.802l-0.883,0.634c-0.091,0.045-0.091,0.175,0,0.217l0.863,0.411
			c-0.002,0.176-0.004,0.441-0.008,0.629l-0.971,0.694c-0.1,0.048-0.1,0.192-0.004,0.24l0.951,0.453
			c-0.004,0.262-0.01,0.525-0.016,0.787l-0.17,0.654h-0.4c-0.048,0-0.102,0.016-0.145,0.031c-0.033,0.012-0.111,0.039-0.111,0.084
			c0,0.043,0.068,0.067,0.1,0.08c0.05,0.018,0.105,0.035,0.156,0.035h0.111c0,0,0,0.004,0.002,0.004h0.225L2.119,19.32h-0.48
			c-0.293-1.096-0.467-2.219-0.53-3.348c-0.064-1.133-0.016-2.271,0.143-3.391c0.146-1.041,0.394-2.07,0.738-3.061
			C2.322,8.576,2.74,7.66,3.252,6.802c0.268-0.452,0.56-0.89,0.883-1.31c1.3,0.436,2.983,0.036,2.983,0.036
			c1.517-0.274,2.461-0.23,3.011-0.145l0.294,0.051c0.031-0.185,0.053-0.318,0.111-0.493C8.946,4.438,7.159,4.682,7.159,4.682
			C6.077,4.78,5.421,4.56,5.082,4.373c0,0,0.682-0.727,1.239-1.127C6.81,3.599,7.426,3.772,8.005,3.874
			c0.382,0.069,0.771,0.101,1.15,0.185c0.383,0.087,0.768,0.203,1.139,0.332c0.131,0.045,0.307,0.13,0.384,0.167
			c0.07-0.155,0.168-0.297,0.266-0.437l-0.246-0.155c-0.49-0.28-0.95-0.426-1.467-0.58C8.884,3.279,8.551,3.16,8.228,2.994
			c-0.44-0.227-0.712-0.522-0.736-0.542c0,0,0.753-0.462,1.463-0.725c0.328,0.465,0.939,0.727,1.355,1.084
			c0.589,0.5,0.902,0.97,0.929,1.023c0.139-0.105,0.268-0.181,0.445-0.248c-0.234-0.516-0.57-1.107-0.975-1.482
			c-0.182-0.17-0.455-0.465-0.533-0.762c0,0,0.945-0.239,1.673-0.248l0.27,2.39c0.102-0.02,0.254-0.018,0.254-0.018
			s0.097-0.002,0.257,0.018l0.27-2.39c0,0,0.642,0.03,1.166,0.135c0.288,0.057,0.508,0.113,0.508,0.113
			c-0.083,0.295-0.349,0.595-0.531,0.762c-0.41,0.384-0.728,0.966-0.963,1.487c0.137,0.062,0.295,0.123,0.441,0.244
			c0.274-0.408,0.612-0.757,0.923-1.023c0.408-0.354,1.02-0.629,1.35-1.084C15.877,1.759,16.245,1.9,16.829,2.2l0.439,0.25
			c-0.014,0.013-0.5,0.41-0.742,0.545c-0.314,0.18-0.654,0.285-0.998,0.392c-0.518,0.154-0.98,0.3-1.471,0.58L13.808,4.12
			c0.098,0.122,0.19,0.268,0.272,0.438c0.086-0.043,0.256-0.123,0.381-0.166c0.375-0.129,0.754-0.245,1.143-0.332
			c0.377-0.084,0.766-0.116,1.146-0.185c0.574-0.099,1.194-0.284,1.682-0.628c0.614,0.477,1.239,1.127,1.239,1.127
			c-0.342,0.188-1.002,0.406-2.077,0.31c0,0-1.785-0.246-3.369,0.252c0.049,0.148,0.068,0.253,0.104,0.483l0.313-0.05
			c0.561-0.081,1.481-0.114,2.994,0.16c0,0,1.676,0.4,2.979-0.034c0.129,0.167,0.254,0.34,0.373,0.516
			c0.56,0.81,1.029,1.68,1.411,2.584c0.404,0.954,0.708,1.946,0.919,2.959c0.219,1.07,0.334,2.158,0.346,3.249
			C23.679,15.982,23.571,17.166,23.342,18.329"/>
	</g>
</g>
</svg>
