<svg width="24" height="24" viewBox="0 0 24 24" xmlns="http://www.w3.org/2000/svg" xmlns:sketch="http://www.bohemiancoding.com/sketch/ns"><title>ic_facebook_default</title><desc>Created with Sketch.</desc><path d="M22.582 0h-21.263c-.729 0-1.319.591-1.319 1.319v21.263c0 .729.59 1.319 1.319 1.319h11.447v-9.256h-3.115v-3.607h3.115v-2.66c0-3.087 1.886-4.768 4.639-4.768 1.319 0 2.453.098 2.783.142v3.226l-1.91.001c-1.498 0-1.788.712-1.788 1.756v2.303h3.572l-.465 3.607h-3.107v9.256h6.091c.729 0 1.319-.591 1.319-1.319v-21.263c0-.729-.591-1.319-1.319-1.319" sketch:type="MSShapeGroup" fill="#3B5998"/></svg>