<?xml version="1.0" encoding="UTF-8"?>
<svg width="24px" height="24px" viewBox="0 0 24 24" version="1.1" xmlns="http://www.w3.org/2000/svg" xmlns:xlink="http://www.w3.org/1999/xlink">
    <!-- Generator: Sketch 47.1 (45422) - http://www.bohemiancoding.com/sketch -->
    <title>google-active</title>
    <desc>Created with Sketch.</desc>
    <defs>
        <path d="M23.1818182,9.81818182 L12,9.81818182 L12,14.4545455 L18.4363636,14.4545455 C17.8363636,17.4 15.3272727,19.0909091 12,19.0909091 C8.07272727,19.0909091 4.90909091,15.9272727 4.90909091,12 C4.90909091,8.07272727 8.07272727,4.90909091 12,4.90909091 C13.6909091,4.90909091 15.2181818,5.50909091 16.4181818,6.49090909 L19.9090909,3 C17.7818182,1.14545455 15.0545455,0 12,0 C5.34545455,0 0,5.34545455 0,12 C0,18.6545455 5.34545455,24 12,24 C18,24 23.4545455,19.6363636 23.4545455,12 C23.4545455,11.2909091 23.3454545,10.5272727 23.1818182,9.81818182 Z" id="path-1"></path>
    </defs>
    <g id="Log-in" stroke="none" stroke-width="1" fill="none" fill-rule="evenodd">
        <g id="google-active">
            <mask id="mask-2" fill="white">
                <use xlink:href="#path-1"></use>
            </mask>
            <use id="a" fill="#FFFFFF" xlink:href="#path-1"></use>
        </g>
    </g>
</svg>