<svg width="24" height="24" viewBox="0 0 24 24" xmlns="http://www.w3.org/2000/svg" xmlns:sketch="http://www.bohemiancoding.com/sketch/ns"><title>ic_google_default</title><desc>Created with Sketch.</desc><path d="M12.369 13.702l-1.131-.874c-.345-.284-.816-.659-.816-1.346 0-.69.471-1.128.88-1.534 1.318-1.032 2.634-2.13 2.634-4.445 0-2.38-1.505-3.632-2.227-4.226h1.945l2.042-1.276h-6.185c-1.697 0-4.143.4-5.934 1.87-1.35 1.158-2.008 2.756-2.008 4.194 0 2.441 1.884 4.915 5.21 4.915.314 0 .658-.031 1.004-.063-.155.376-.312.689-.312 1.221 0 .969.501 1.564.942 2.127-1.414.097-4.052.252-5.997 1.442-1.853 1.096-2.416 2.691-2.416 3.817 0 2.318 2.196 4.476 6.749 4.476 5.399 0 8.257-2.972 8.257-5.915 0-2.162-1.255-3.226-2.637-4.384zm-4.112-3.599c-2.701 0-3.924-3.474-3.924-5.57 0-.816.155-1.659.69-2.317.504-.627 1.381-1.033 2.199-1.033 2.604 0 3.954 3.505 3.954 5.759 0 .564-.062 1.563-.784 2.286-.505.501-1.35.875-2.134.875zm.031 12.586c-3.359 0-5.525-1.598-5.525-3.821 0-2.222 2.008-2.974 2.699-3.223 1.318-.441 3.014-.503 3.297-.503.314 0 .471 0 .721.031 2.388 1.691 3.424 2.533 3.424 4.134 0 1.938-1.602 3.381-4.616 3.381zm12.009-12.634v-3.129h-1.554v3.129h-3.14v1.563h3.14v3.149h1.554v-3.149h3.156v-1.563h-3.156z" sketch:type="MSShapeGroup" fill="#DC4A38"/></svg>