<?xml version="1.0" encoding="utf-8"?>
<!-- Generator: Adobe Illustrator 17.0.0, SVG Export Plug-In . SVG Version: 6.00 Build 0)  -->
<!DOCTYPE svg PUBLIC "-//W3C//DTD SVG 1.1//EN" "http://www.w3.org/Graphics/SVG/1.1/DTD/svg11.dtd">
<svg version="1.1" id="Capa_1" xmlns="http://www.w3.org/2000/svg" xmlns:xlink="http://www.w3.org/1999/xlink" x="0px" y="0px"
	 width="28.498px" height="45px" viewBox="0 0 28.498 45" enable-background="new 0 0 28.498 45" xml:space="preserve">
<g>
	<path fill="#C23B30" d="M1,34.097c0,0,1.564,2.085,3.258,4.169c1.51,1.859,1.823,5.213,1.823,5.213s10.829-21.884,12.119-24.107
		c1.614-2.779,4.038-7.358,4.038-7.358l-2.605-3.588c0,0-9.251,11.858-11.597,15.245C5.691,27.06,1,34.097,1,34.097z"/>
	<path fill="#D13F34" d="M21.068,44c0,0,0.13-2.084,1.563-3.91c1.433-1.823,4.561-4.819,4.561-4.819s-8.991-14.594-10.165-15.897
		c-1.172-1.303-5.499-8.51-6.254-9.644c-1.043-1.562,0.651-3.127,0.651-3.127L7.516,8.558c0,0-1.505,0.393,0,5.993
		c0.698,2.595,7.688,17.461,8.731,20.068C17.289,37.224,21.068,44,21.068,44z"/>
	<path fill="#D65248" d="M6.994,10.252c0.522,0,4.948-4.561,7.297-4.561c4.17,0,7.507,6.125,7.898,6.125
		c0.39,0-1.122-3.649-1.904-5.472c-0.782-1.825-1.303-5.344-5.212-5.344c-3.909,0-5.864,1.825-6.776,4.299
		C7.386,7.775,6.474,10.252,6.994,10.252z"/>
</g>
</svg>
