<svg class="bi bi-bootstrap" xmlns="http://www.w3.org/2000/svg" width="20" height="20" viewBox="0 0 20 20"><path d="M6.002 2h8a4 4 0 014 4v8a4 4 0 01-4 4h-8a4 4 0 01-4-4V6a4 4 0 014-4zm0 1.5a2.5 2.5 0 00-2.5 2.5v8a2.5 2.5 0 002.5 2.5h8a2.5 2.5 0 002.5-2.5V6a2.5 2.5 0 00-2.5-2.5h-8zM10.537 14H7.062V5.545h3.399c1.587 0 2.542.809 2.542 2.11 0 .884-.65 1.675-1.482 1.816v.1c1.143.117 1.904.931 1.904 2.033 0 1.488-1.084 2.396-2.888 2.396zM8.375 6.658v2.467h1.558c1.16 0 1.764-.428 1.764-1.23 0-.78-.569-1.237-1.541-1.237H8.375zm0 6.229h1.898c1.184 0 1.81-.48 1.81-1.377 0-.885-.65-1.348-1.886-1.348H8.375v2.725z"/></svg>
