<svg class="bi bi-star-outline" xmlns="http://www.w3.org/2000/svg" width="20" height="20" viewBox="0 0 20 20"><path d="M5.612 17.443c-.386.198-.824-.149-.746-.592l.83-4.73-3.522-3.356c-.33-.314-.16-.888.282-.95l4.898-.696 2.184-4.327c.197-.39.73-.39.927 0l2.184 4.327 4.898.696c.441.062.612.636.283.95l-3.523 3.356.83 4.73c.078.443-.36.79-.746.592L10 15.187l-4.389 2.256zm.473-1.466l3.686-1.894a.503.503 0 01.461 0l3.686 1.894-.694-3.957a.565.565 0 01.163-.505l2.906-2.77-4.052-.576a.525.525 0 01-.393-.288l-1.846-3.658-1.847 3.658a.525.525 0 01-.393.288l-4.052.575 2.906 2.77a.565.565 0 01.163.506l-.694 3.957z"/></svg>
