<?xml version="1.0" standalone="no"?>
<!DOCTYPE svg PUBLIC "-//W3C//DTD SVG 20010904//EN"
 "http://www.w3.org/TR/2001/REC-SVG-20010904/DTD/svg10.dtd">
<svg version="1.0" xmlns="http://www.w3.org/2000/svg"
 width="700.000000pt" height="700.000000pt" viewBox="0 0 700.000000 700.000000"
 preserveAspectRatio="xMidYMid meet">
<metadata>
Created by potrace 1.11, written by Peter Selinger 2001-2013
</metadata>
<g transform="translate(0.000000,700.000000) scale(0.100000,-0.100000)"
fill="#000000" stroke="none">
<path d="M975 6983 c-494 -88 -870 -467 -959 -965 -13 -72 -15 -404 -14 -2513
0 -1970 3 -2446 13 -2515 46 -295 206 -564 445 -747 60 -46 164 -113 175 -113
3 0 31 -13 62 -28 73 -35 146 -58 260 -82 84 -17 196 -18 2563 -16 2334 1
2479 3 2545 19 39 10 77 20 85 22 74 18 226 87 310 139 92 58 255 209 298 276
9 14 28 41 43 60 36 48 111 200 138 280 12 36 30 106 40 155 18 86 19 188 17
2570 l-1 2480 -27 95 c-52 188 -106 300 -207 434 -170 225 -400 372 -691 442
-71 17 -200 18 -2545 20 -2111 2 -2482 0 -2550 -13z"/>
</g>
</svg>
