<svg xmlns="http://www.w3.org/2000/svg" viewBox="0 0 640 512"><path d="M14 325.3c2.3-4.2 5.2-4.9 9.7-2.5 10.4 5.6 20.6 11.4 31.2 16.7a595.88 595.88 0 0 0 127.4 46.3 616.61 616.61 0 0 0 63.2 11.8 603.33 603.33 0 0 0 95 5.2c17.4-.4 34.8-1.8 52.1-3.8a603.66 603.66 0 0 0 163.3-42.8c2.9-1.2 5.9-2 9.1-1.2 6.7 1.8 9 9 4.1 13.9a70 70 0 0 1-9.6 7.4c-30.7 21.1-64.2 36.4-99.6 47.9a473.31 473.31 0 0 1-75.1 17.6 431 431 0 0 1-53.2 4.8 21.3 21.3 0 0 0-2.5.3H308a21.3 21.3 0 0 0-2.5-.3c-3.6-.2-7.2-.3-10.7-.4a426.3 426.3 0 0 1-50.4-5.3A448.4 448.4 0 0 1 164 420a443.33 443.33 0 0 1-145.6-87c-1.8-1.6-3-3.8-4.4-5.7zM172 65.1l-4.3.6a80.92 80.92 0 0 0-38 15.1c-2.4 1.7-4.6 3.5-7.1 5.4a4.29 4.29 0 0 1-.4-1.4c-.4-2.7-.8-5.5-1.3-8.2-.7-4.6-3-6.6-7.6-6.6h-11.5c-6.9 0-8.2 1.3-8.2 8.2v209.3c0 1 0 2 .1 3 .2 3 2 4.9 4.9 5 7 .1 14.1.1 21.1 0 2.9 0 4.7-2 5-5 .1-1 .1-2 .1-3v-72.4c1.1.9 1.7 1.4 2.2 1.9 17.9 14.9 38.5 19.8 61 15.4 20.4-4 34.6-16.5 43.8-34.9 7-13.9 9.9-28.7 10.3-44.1.5-17.1-1.2-33.9-8.1-49.8-8.5-19.6-22.6-32.5-43.9-36.9-3.2-.7-6.5-1-9.8-1.5-2.8-.1-5.5-.1-8.3-.1zM124.6 107a3.48 3.48 0 0 1 1.7-3.3c13.7-9.5 28.8-14.5 45.6-13.2 14.9 1.1 27.1 8.4 33.5 25.9 3.9 10.7 4.9 21.8 4.9 33 0 10.4-.8 20.6-4 30.6-6.8 21.3-22.4 29.4-42.6 28.5-14-.6-26.2-6-37.4-13.9a3.57 3.57 0 0 1-1.7-3.3c.1-14.1 0-28.1 0-42.2s.1-28 0-42.1zm205.7-41.9c-1 .1-2 .3-2.9.4a148 148 0 0 0-28.9 4.1c-6.1 1.6-12 3.8-17.9 5.8-3.6 1.2-5.4 3.8-5.3 7.7.1 3.3-.1 6.6 0 9.9.1 4.8 2.1 6.1 6.8 4.9 7.8-2 15.6-4.2 23.5-5.7 12.3-2.3 24.7-3.3 37.2-1.4 6.5 1 12.6 2.9 16.8 8.4 3.7 4.8 5.1 10.5 5.3 16.4.3 8.3.2 16.6.3 24.9a7.84 7.84 0 0 1-.2 1.4c-.5-.1-.9 0-1.3-.1a180.56 180.56 0 0 0-32-4.9c-11.3-.6-22.5.1-33.3 3.9-12.9 4.5-23.3 12.3-29.4 24.9-4.7 9.8-5.4 20.2-3.9 30.7 2 14 9 24.8 21.4 31.7 11.9 6.6 24.8 7.4 37.9 5.4 15.1-2.3 28.5-8.7 40.3-18.4a7.36 7.36 0 0 1 1.6-1.1c.6 3.8 1.1 7.4 1.8 11 .6 3.1 2.5 5.1 5.4 5.2 5.4.1 10.9.1 16.3 0a4.84 4.84 0 0 0 4.8-4.7 26.2 26.2 0 0 0 .1-2.8v-106a80 80 0 0 0-.9-12.9c-1.9-12.9-7.4-23.5-19-30.4-6.7-4-14.1-6-21.8-7.1-3.6-.5-7.2-.8-10.8-1.3-3.9.1-7.9.1-11.9.1zm35 127.7a3.33 3.33 0 0 1-1.5 3c-11.2 8.1-23.5 13.5-37.4 14.9-5.7.6-11.4.4-16.8-1.8a20.08 20.08 0 0 1-12.4-13.3 32.9 32.9 0 0 1-.1-19.4c2.5-8.3 8.4-13 16.4-15.6a61.33 61.33 0 0 1 24.8-2.2c8.4.7 16.6 2.3 25 3.4 1.6.2 2.1 1 2.1 2.6-.1 4.8 0 9.5 0 14.3s-.2 9.4-.1 14.1zm259.9 129.4c-1-5-4.8-6.9-9.1-8.3a88.42 88.42 0 0 0-21-3.9 147.32 147.32 0 0 0-39.2 1.9c-14.3 2.7-27.9 7.3-40 15.6a13.75 13.75 0 0 0-3.7 3.5 5.11 5.11 0 0 0-.5 4c.4 1.5 2.1 1.9 3.6 1.8a16.2 16.2 0 0 0 2.2-.1c7.8-.8 15.5-1.7 23.3-2.5 11.4-1.1 22.9-1.8 34.3-.9a71.64 71.64 0 0 1 14.4 2.7c5.1 1.4 7.4 5.2 7.6 10.4.4 8-1.4 15.7-3.5 23.3-4.1 15.4-10 30.3-15.8 45.1a17.6 17.6 0 0 0-1 3c-.5 2.9 1.2 4.8 4.1 4.1a10.56 10.56 0 0 0 4.8-2.5 145.91 145.91 0 0 0 12.7-13.4c12.8-16.4 20.3-35.3 24.7-55.6.8-3.6 1.4-7.3 2.1-10.9v-17.3zM493.1 199q-19.35-53.55-38.7-107.2c-2-5.7-4.2-11.3-6.3-16.9-1.1-2.9-3.2-4.8-6.4-4.8-7.6-.1-15.2-.2-22.9-.1-2.5 0-3.7 2-3.2 4.5a43.1 43.1 0 0 0 1.9 6.1q29.4 72.75 59.1 145.5c1.7 4.1 2.1 7.6.2 11.8-3.3 7.3-5.9 15-9.3 22.3-3 6.5-8 11.4-15.2 13.3a42.13 42.13 0 0 1-15.4 1.1c-2.5-.2-5-.8-7.5-1-3.4-.2-5.1 1.3-5.2 4.8q-.15 5 0 9.9c.1 5.5 2 8 7.4 8.9a108.18 108.18 0 0 0 16.9 2c17.1.4 30.7-6.5 39.5-21.4a131.63 131.63 0 0 0 9.2-18.4q35.55-89.7 70.6-179.6a26.62 26.62 0 0 0 1.6-5.5c.4-2.8-.9-4.4-3.7-4.4-6.6-.1-13.3 0-19.9 0a7.54 7.54 0 0 0-7.7 5.2c-.5 1.4-1.1 2.7-1.6 4.1l-34.8 100c-2.5 7.2-5.1 14.5-7.7 22.2-.4-1.1-.6-1.7-.9-2.4z"/></svg>