<svg xmlns="http://www.w3.org/2000/svg" viewBox="0 0 640 512"><path d="M42.1 239.1c22.2 0 29 2.8 33.5 14.6h.8v-22.9c0-11.3-4.8-15.4-17.9-15.4-11.3 0-14.4 2.5-15.1 12.8H4.8c.3-13.9 1.5-19.1 5.8-24.4C17.9 195 29.5 192 56.7 192c33 0 47.1 5 53.9 18.9 2 4.3 4 15.6 4 23.7v76.3H76.3l1.3-19.1h-1c-5.3 15.6-13.6 20.4-35.5 20.4-30.3 0-41.1-10.1-41.1-37.3 0-25.2 12.3-35.8 42.1-35.8zm17.1 48.1c13.1 0 16.9-3 16.9-13.4 0-9.1-4.3-11.6-19.6-11.6-13.1 0-17.9 3-17.9 12.1-.1 10.4 3.7 12.9 20.6 12.9zm77.8-94.9h38.3l-1.5 20.6h.8c9.1-17.1 15.9-20.9 37.5-20.9 14.4 0 24.7 3 31.5 9.1 9.8 8.6 12.8 20.4 12.8 48.1 0 30-3 43.1-12.1 52.9-6.8 7.3-16.4 10.1-33.2 10.1-20.4 0-29.2-5.5-33.8-21.2h-.8v70.3H137v-169zm80.9 60.7c0-27.5-3.3-32.5-20.7-32.5-16.9 0-20.7 5-20.7 28.7 0 28 3.5 33.5 21.2 33.5 16.4 0 20.2-5.6 20.2-29.7zm57.9-60.7h38.3l-1.5 20.6h.8c9.1-17.1 15.9-20.9 37.5-20.9 14.4 0 24.7 3 31.5 9.1 9.8 8.6 12.8 20.4 12.8 48.1 0 30-3 43.1-12.1 52.9-6.8 7.3-16.4 10.1-33.3 10.1-20.4 0-29.2-5.5-33.8-21.2h-.8v70.3h-39.5v-169zm80.9 60.7c0-27.5-3.3-32.5-20.7-32.5-16.9 0-20.7 5-20.7 28.7 0 28 3.5 33.5 21.2 33.5 16.4 0 20.2-5.6 20.2-29.7zm53.8-3.8c0-25.4 3.3-37.8 12.3-45.8 8.8-8.1 22.2-11.3 45.1-11.3 42.8 0 55.7 12.8 55.7 55.7v11.1h-75.3c-.3 2-.3 4-.3 4.8 0 16.9 4.5 21.9 20.1 21.9 13.9 0 17.9-3 17.9-13.9h37.5v2.3c0 9.8-2.5 18.9-6.8 24.7-7.3 9.8-19.6 13.6-44.3 13.6-27.5 0-41.6-3.3-50.6-12.3-8.5-8.5-11.3-21.3-11.3-50.8zm76.4-11.6c-.3-1.8-.3-3.3-.3-3.8 0-12.3-3.3-14.6-19.6-14.6-14.4 0-17.1 3-18.1 15.1l-.3 3.3h38.3zm55.6-45.3h38.3l-1.8 19.9h.7c6.8-14.9 14.4-20.2 29.7-20.2 10.8 0 19.1 3.3 23.4 9.3 5.3 7.3 6.8 14.4 6.8 34 0 1.5 0 5 .2 9.3h-35c.3-1.8.3-3.3.3-4 0-15.4-2-19.4-10.3-19.4-6.3 0-10.8 3.3-13.1 9.3-1 3-1 4.3-1 12.3v68h-38.3V192.3z"/></svg>