<svg xmlns="http://www.w3.org/2000/svg" viewBox="0 0 640 512"><path d="M116.9 158.5c-7.5 8.9-19.5 15.9-31.5 14.9-1.5-12 4.4-24.8 11.3-32.6 7.5-9.1 20.6-15.6 31.3-16.1 1.2 12.4-3.7 24.7-11.1 33.8m10.9 17.2c-17.4-1-32.3 9.9-40.5 9.9-8.4 0-21-9.4-34.8-9.1-17.9.3-34.5 10.4-43.6 26.5-18.8 32.3-4.9 80 13.3 106.3 8.9 13 19.5 27.3 33.5 26.8 13.3-.5 18.5-8.6 34.5-8.6 16.1 0 20.8 8.6 34.8 8.4 14.5-.3 23.6-13 32.5-26 10.1-14.8 14.3-29.1 14.5-29.9-.3-.3-28-10.9-28.3-42.9-.3-26.8 21.9-39.5 22.9-40.3-12.5-18.6-32-20.6-38.8-21.1m100.4-36.2v194.9h30.3v-66.6h41.9c38.3 0 65.1-26.3 65.1-64.3s-26.4-64-64.1-64h-73.2zm30.3 25.5h34.9c26.3 0 41.3 14 41.3 38.6s-15 38.8-41.4 38.8h-34.8V165zm162.2 170.9c19 0 36.6-9.6 44.6-24.9h.6v23.4h28v-97c0-28.1-22.5-46.3-57.1-46.3-32.1 0-55.9 18.4-56.8 43.6h27.3c2.3-12 13.4-19.9 28.6-19.9 18.5 0 28.9 8.6 28.9 24.5v10.8l-37.8 2.3c-35.1 2.1-54.1 16.5-54.1 41.5.1 25.2 19.7 42 47.8 42zm8.2-23.1c-16.1 0-26.4-7.8-26.4-19.6 0-12.3 9.9-19.4 28.8-20.5l33.6-2.1v11c0 18.2-15.5 31.2-36 31.2zm102.5 74.6c29.5 0 43.4-11.3 55.5-45.4L640 193h-30.8l-35.6 115.1h-.6L537.4 193h-31.6L557 334.9l-2.8 8.6c-4.6 14.6-12.1 20.3-25.5 20.3-2.4 0-7-.3-8.9-.5v23.4c1.8.4 9.3.7 11.6.7z"/></svg>