<svg xmlns="http://www.w3.org/2000/svg" viewBox="0 0 640 512"><path d="M107.2 283.5l-19-41.8H36.1l-19 41.8H0l62.2-131.4 62.2 131.4h-17.2zm-45-98.1l-19.6 42.5h39.2l-19.6-42.5zm112.7 102.4l-62.2-131.4h17.1l45.1 96 45.1-96h17l-62.1 131.4zm80.6-4.3V156.4H271v127.1h-15.5zm209.1-115.6v115.6h-17.3V167.9h-41.2v-11.5h99.6v11.5h-41.1zM640 218.8c0 9.2-1.7 17.8-5.1 25.8-3.4 8-8.2 15.1-14.2 21.1-6 6-13.1 10.8-21.1 14.2-8 3.4-16.6 5.1-25.8 5.1s-17.8-1.7-25.8-5.1c-8-3.4-15.1-8.2-21.1-14.2-6-6-10.8-13-14.2-21.1-3.4-8-5.1-16.6-5.1-25.8s1.7-17.8 5.1-25.8c3.4-8 8.2-15.1 14.2-21.1 6-6 13-8.4 21.1-11.9 8-3.4 16.6-5.1 25.8-5.1s17.8 1.7 25.8 5.1c8 3.4 15.1 5.8 21.1 11.9 6 6 10.7 13.1 14.2 21.1 3.4 8 5.1 16.6 5.1 25.8zm-15.5 0c0-7.3-1.3-14-3.9-20.3-2.6-6.3-6.2-11.7-10.8-16.3-4.6-4.6-10-8.2-16.2-10.9-6.2-2.7-12.8-4-19.8-4s-13.6 1.3-19.8 4c-6.2 2.7-11.6 6.3-16.2 10.9-4.6 4.6-8.2 10-10.8 16.3-2.6 6.3-3.9 13.1-3.9 20.3 0 7.3 1.3 14 3.9 20.3 2.6 6.3 6.2 11.7 10.8 16.3 4.6 4.6 10 8.2 16.2 10.9 6.2 2.7 12.8 4 19.8 4s13.6-1.3 19.8-4c6.2-2.7 11.6-6.3 16.2-10.9 4.6-4.6 8.2-10 10.8-16.3 2.6-6.3 3.9-13.1 3.9-20.3zm-94.8 96.7v-6.3l88.9-10-242.9 13.4c.6-2.2 1.1-4.6 1.4-7.2.3-2 .5-4.2.6-6.5l64.8-8.1-64.9 1.9c0-.4-.1-.7-.1-1.1-2.8-17.2-25.5-23.7-25.5-23.7l-1.1-26.3h23.8l19 41.8h17.1L348.6 152l-62.2 131.4h17.1l19-41.8h23.6L345 268s-22.7 6.5-25.5 23.7c-.1.3-.1.7-.1 1.1l-64.9-1.9 64.8 8.1c.1 2.3.3 4.4.6 6.5.3 2.6.8 5 1.4 7.2L78.4 299.2l88.9 10v6.3c-5.9.9-10.5 6-10.5 12.2 0 6.8 5.6 12.4 12.4 12.4 6.8 0 12.4-5.6 12.4-12.4 0-6.2-4.6-11.3-10.5-12.2v-5.8l80.3 9v5.4c-5.7 1.1-9.9 6.2-9.9 12.1 0 6.8 5.6 10.2 12.4 10.2 6.8 0 12.4-3.4 12.4-10.2 0-6-4.3-11-9.9-12.1v-4.9l28.4 3.2v23.7h-5.9V360h5.9v-6.6h5v6.6h5.9v-13.8h-5.9V323l38.3 4.3c8.1 11.4 19 13.6 19 13.6l-.1 6.7-5.1.2-.1 12.1h4.1l.1-5h5.2l.1 5h4.1l-.1-12.1-5.1-.2-.1-6.7s10.9-2.1 19-13.6l38.3-4.3v23.2h-5.9V360h5.9v-6.6h5v6.6h5.9v-13.8h-5.9v-23.7l28.4-3.2v4.9c-5.7 1.1-9.9 6.2-9.9 12.1 0 6.8 5.6 10.2 12.4 10.2 6.8 0 12.4-3.4 12.4-10.2 0-6-4.3-11-9.9-12.1v-5.4l80.3-9v5.8c-5.9.9-10.5 6-10.5 12.2 0 6.8 5.6 12.4 12.4 12.4 6.8 0 12.4-5.6 12.4-12.4-.2-6.3-4.7-11.4-10.7-12.3zm-200.8-87.6l19.6-42.5 19.6 42.5h-17.9l-1.7-40.3-1.7 40.3h-17.9z"/></svg>