<svg xmlns="http://www.w3.org/2000/svg" viewBox="0 0 512 512"><path d="M448.61 225.62c26.87.18 35.57-7.43 38.92-12.37 12.47-16.32-7.06-47.6-52.85-71.33 17.76-33.58 30.11-63.68 36.34-85.3 3.38-11.83 1.09-19 .45-20.25-1.72 10.52-15.85 48.46-48.2 100.05-25-11.22-56.52-20.1-93.77-23.8-8.94-16.94-34.88-63.86-60.48-88.93C252.18 7.14 238.7 1.07 228.18.22h-.05c-13.83-1.55-22.67 5.85-27.4 11-17.2 18.53-24.33 48.87-25 84.07-7.24-12.35-17.17-24.63-28.5-25.93h-.18c-20.66-3.48-38.39 29.22-36 81.29-38.36 1.38-71 5.75-93 11.23-9.9 2.45-16.22 7.27-17.76 9.72 1-.38 22.4-9.22 111.56-9.22 5.22 53 29.75 101.82 26 93.19-9.73 15.4-38.24 62.36-47.31 97.7-5.87 22.88-4.37 37.61.15 47.14 5.57 12.75 16.41 16.72 23.2 18.26 25 5.71 55.38-3.63 86.7-21.14-7.53 12.84-13.9 28.51-9.06 39.34 7.31 19.65 44.49 18.66 88.44-9.45 20.18 32.18 40.07 57.94 55.7 74.12a39.79 39.79 0 0 0 8.75 7.09c5.14 3.21 8.58 3.37 8.58 3.37-8.24-6.75-34-38-62.54-91.78 22.22-16 45.65-38.87 67.47-69.27 122.82 4.6 143.29-24.76 148-31.64 14.67-19.88 3.43-57.44-57.32-93.69zm-77.85 106.22c23.81-37.71 30.34-67.77 29.45-92.33 27.86 17.57 47.18 37.58 49.06 58.83 1.14 12.93-8.1 29.12-78.51 33.5zM216.9 387.69c9.76-6.23 19.53-13.12 29.2-20.49 6.68 13.33 13.6 26.1 20.6 38.19-40.6 21.86-68.84 12.76-49.8-17.7zm215-171.35c-10.29-5.34-21.16-10.34-32.38-15.05a722.459 722.459 0 0 0 22.74-36.9c39.06 24.1 45.9 53.18 9.64 51.95zM279.18 398c-5.51-11.35-11-23.5-16.5-36.44 43.25 1.27 62.42-18.73 63.28-20.41 0 .07-25 15.64-62.53 12.25a718.78 718.78 0 0 0 85.06-84q13.06-15.31 24.93-31.11c-.36-.29-1.54-3-16.51-12-51.7 60.27-102.34 98-132.75 115.92-20.59-11.18-40.84-31.78-55.71-61.49-20-39.92-30-82.39-31.57-116.07 12.3.91 25.27 2.17 38.85 3.88-22.29 36.8-14.39 63-13.47 64.23 0-.07-.95-29.17 20.14-59.57a695.23 695.23 0 0 0 44.67 152.84c.93-.38 1.84.88 18.67-8.25-26.33-74.47-33.76-138.17-34-173.43 20-12.42 48.18-19.8 81.63-17.81 44.57 2.67 86.36 15.25 116.32 30.71q-10.69 15.66-23.33 32.47C365.63 152 339.1 145.84 337.5 146c.11 0 25.9 14.07 41.52 47.22a717.63 717.63 0 0 0-115.34-31.71 646.608 646.608 0 0 0-39.39-6.05c-.07.45-1.81 1.85-2.16 20.33C300 190.28 358.78 215.68 389.36 233c.74 23.55-6.95 51.61-25.41 79.57-24.6 37.31-56.39 67.23-84.77 85.43zm27.4-287c-44.56-1.66-73.58 7.43-94.69 20.67 2-52.3 21.31-76.38 38.21-75.28C267 52.15 305 108.55 306.58 111zm-130.65 3.1c.48 12.11 1.59 24.62 3.21 37.28-14.55-.85-28.74-1.25-42.4-1.26-.08 3.24-.12-51 24.67-49.59h.09c5.76 1.09 10.63 6.88 14.43 13.57zm-28.06 162c20.76 39.7 43.3 60.57 65.25 72.31-46.79 24.76-77.53 20-84.92 4.51-.2-.21-11.13-15.3 19.67-76.81zm210.06 74.8"/></svg>