<svg xmlns="http://www.w3.org/2000/svg" viewBox="0 0 576 512"><path d="M325.1 167.8c0-16.4-14.1-18.4-27.4-18.4l-39.1-.3v69.3H275v-25.1h18c18.4 0 14.5 10.3 14.8 25.1h16.6v-13.5c0-9.2-1.5-15.1-11-18.4 7.4-3 11.8-10.7 11.7-18.7zm-29.4 11.3H275v-15.3h21c5.1 0 10.7 1 10.7 7.4 0 6.6-5.3 7.9-11 7.9zM279 268.6h-52.7l-21 22.8-20.5-22.8h-66.5l-.1 69.3h65.4l21.3-23 20.4 23h32.2l.1-23.3c18.9 0 49.3 4.6 49.3-23.3 0-17.3-12.3-22.7-27.9-22.7zm-103.8 54.7h-40.6v-13.8h36.3v-14.1h-36.3v-12.5h41.7l17.9 20.2zm65.8 8.2l-25.3-28.1L241 276zm37.8-31h-21.2v-17.6h21.5c5.6 0 10.2 2.3 10.2 8.4 0 6.4-4.6 9.2-10.5 9.2zm-31.6-136.7v-14.6h-55.5v69.3h55.5v-14.3h-38.9v-13.8h37.8v-14.1h-37.8v-12.5zM576 255.4h-.2zm-194.6 31.9c0-16.4-14.1-18.7-27.1-18.7h-39.4l-.1 69.3h16.6l.1-25.3h17.6c11 0 14.8 2 14.8 13.8l-.1 11.5h16.6l.1-13.8c0-8.9-1.8-15.1-11-18.4 7.7-3.1 11.8-10.8 11.9-18.4zm-29.2 11.2h-20.7v-15.6h21c5.1 0 10.7 1 10.7 7.4 0 6.9-5.4 8.2-11 8.2zm-172.8-80v-69.3h-27.6l-19.7 47-21.7-47H83.3v65.7l-28.1-65.7H30.7L1 218.5h17.9l6.4-15.3h34.5l6.4 15.3H100v-54.2l24 54.2h14.6l24-54.2v54.2zM31.2 188.8l11.2-27.6 11.5 27.6zm477.4 158.9v-4.5c-10.8 5.6-3.9 4.5-156.7 4.5 0-25.2.1-23.9 0-25.2-1.7-.1-3.2-.1-9.4-.1 0 17.9-.1 6.8-.1 25.3h-39.6c0-12.1.1-15.3.1-29.2-10 6-22.8 6.4-34.3 6.2 0 14.7-.1 8.3-.1 23h-48.9c-5.1-5.7-2.7-3.1-15.4-17.4-3.2 3.5-12.8 13.9-16.1 17.4h-82v-92.3h83.1c5 5.6 2.8 3.1 15.5 17.2 3.2-3.5 12.2-13.4 15.7-17.2h58c9.8 0 18 1.9 24.3 5.6v-5.6c54.3 0 64.3-1.4 75.7 5.1v-5.1h78.2v5.2c11.4-6.9 19.6-5.2 64.9-5.2v5c10.3-5.9 16.6-5.2 54.3-5V80c0-26.5-21.5-48-48-48h-480c-26.5 0-48 21.5-48 48v109.8c9.4-21.9 19.7-46 23.1-53.9h39.7c4.3 10.1 1.6 3.7 9 21.1v-21.1h46c2.9 6.2 11.1 24 13.9 30 5.8-13.6 10.1-23.9 12.6-30h103c0-.1 11.5 0 11.6 0 43.7.2 53.6-.8 64.4 5.3v-5.3H363v9.3c7.6-6.1 17.9-9.3 30.7-9.3h27.6c0 .5 1.9.3 2.3.3H456c4.2 9.8 2.6 6 8.8 20.6v-20.6h43.3c4.9 8-1-1.8 11.2 18.4v-18.4h39.9v92h-41.6c-5.4-9-1.4-2.2-13.2-21.9v21.9h-52.8c-6.4-14.8-.1-.3-6.6-15.3h-19c-4.2 10-2.2 5.2-6.4 15.3h-26.8c-12.3 0-22.3-3-29.7-8.9v8.9h-66.5c-.3-13.9-.1-24.8-.1-24.8-1.8-.3-3.4-.2-9.8-.2v25.1H151.2v-11.4c-2.5 5.6-2.7 5.9-5.1 11.4h-29.5c-4-8.9-2.9-6.4-5.1-11.4v11.4H58.6c-4.2-10.1-2.2-5.3-6.4-15.3H33c-4.2 10-2.2 5.2-6.4 15.3H0V432c0 26.5 21.5 48 48 48h480.1c26.5 0 48-21.5 48-48v-90.4c-12.7 8.3-32.7 6.1-67.5 6.1zm36.3-64.5H575v-14.6h-32.9c-12.8 0-23.8 6.6-23.8 20.7 0 33 42.7 12.8 42.7 27.4 0 5.1-4.3 6.4-8.4 6.4h-32l-.1 14.8h32c8.4 0 17.6-1.8 22.5-8.9v-25.8c-10.5-13.8-39.3-1.3-39.3-13.5 0-5.8 4.6-6.5 9.2-6.5zm-57 39.8h-32.2l-.1 14.8h32.2c14.8 0 26.2-5.6 26.2-22 0-33.2-42.9-11.2-42.9-26.3 0-5.6 4.9-6.4 9.2-6.4h30.4v-14.6h-33.2c-12.8 0-23.5 6.6-23.5 20.7 0 33 42.7 12.5 42.7 27.4-.1 5.4-4.7 6.4-8.8 6.4zm-42.2-40.1v-14.3h-55.2l-.1 69.3h55.2l.1-14.3-38.6-.3v-13.8H445v-14.1h-37.8v-12.5zm-56.3-108.1c-.3.2-1.4 2.2-1.4 7.6 0 6 .9 7.7 1.1 7.9.2.1 1.1.5 3.4.5l7.3-16.9c-1.1 0-2.1-.1-3.1-.1-5.6 0-7 .7-7.3 1zm20.4-10.5h-.1zm-16.2-15.2c-23.5 0-34 12-34 35.3 0 22.2 10.2 34 33 34h19.2l6.4-15.3h34.3l6.6 15.3h33.7v-51.9l31.2 51.9h23.6v-69h-16.9v48.1l-29.1-48.1h-25.3v65.4l-27.9-65.4h-24.8l-23.5 54.5h-7.4c-13.3 0-16.1-8.1-16.1-19.9 0-23.8 15.7-20 33.1-19.7v-15.2zm42.1 12.1l11.2 27.6h-22.8zm-101.1-12v69.3h16.9v-69.3z"/></svg>