<svg xmlns="http://www.w3.org/2000/svg" viewBox="0 0 576 512"><path d="M239.7 79.9c-96.9 0-175.8 78.6-175.8 175.8 0 96.9 78.9 175.8 175.8 175.8 97.2 0 175.8-78.9 175.8-175.8 0-97.2-78.6-175.8-175.8-175.8zm-39.9 279.6c-41.7-15.9-71.4-56.4-71.4-103.8s29.7-87.9 71.4-104.1v207.9zm79.8.3V151.6c41.7 16.2 71.4 56.7 71.4 104.1s-29.7 87.9-71.4 104.1zM528 32H48C21.5 32 0 53.5 0 80v352c0 26.5 21.5 48 48 48h480c26.5 0 48-21.5 48-48V80c0-26.5-21.5-48-48-48zM329.7 448h-90.3c-106.2 0-193.8-85.5-193.8-190.2C45.6 143.2 133.2 64 239.4 64h90.3c105 0 200.7 79.2 200.7 193.8 0 104.7-95.7 190.2-200.7 190.2z"/></svg>