<svg xmlns="http://www.w3.org/2000/svg" viewBox="0 0 576 512"><path d="M520.4 196.1c0-7.9-5.5-12.1-15.6-12.1h-4.9v24.9h4.7c10.3 0 15.8-4.4 15.8-12.8zM528 32H48C21.5 32 0 53.5 0 80v352c0 26.5 21.5 48 48 48h480c26.5 0 48-21.5 48-48V80c0-26.5-21.5-48-48-48zm-44.1 138.9c22.6 0 52.9-4.1 52.9 24.4 0 12.6-6.6 20.7-18.7 23.2l25.8 34.4h-19.6l-22.2-32.8h-2.2v32.8h-16zm-55.9.1h45.3v14H444v18.2h28.3V217H444v22.2h29.3V253H428zm-68.7 0l21.9 55.2 22.2-55.2h17.5l-35.5 84.2h-8.6l-35-84.2zm-55.9-3c24.7 0 44.6 20 44.6 44.6 0 24.7-20 44.6-44.6 44.6-24.7 0-44.6-20-44.6-44.6 0-24.7 20-44.6 44.6-44.6zm-49.3 6.1v19c-20.1-20.1-46.8-4.7-46.8 19 0 25 27.5 38.5 46.8 19.2v19c-29.7 14.3-63.3-5.7-63.3-38.2 0-31.2 33.1-53 63.3-38zm-97.2 66.3c11.4 0 22.4-15.3-3.3-24.4-15-5.5-20.2-11.4-20.2-22.7 0-23.2 30.6-31.4 49.7-14.3l-8.4 10.8c-10.4-11.6-24.9-6.2-24.9 2.5 0 4.4 2.7 6.9 12.3 10.3 18.2 6.6 23.6 12.5 23.6 25.6 0 29.5-38.8 37.4-56.6 11.3l10.3-9.9c3.7 7.1 9.9 10.8 17.5 10.8zM55.4 253H32v-82h23.4c26.1 0 44.1 17 44.1 41.1 0 18.5-13.2 40.9-44.1 40.9zm67.5 0h-16v-82h16zM544 433c0 8.2-6.8 15-15 15H128c189.6-35.6 382.7-139.2 416-160zM74.1 191.6c-5.2-4.9-11.6-6.6-21.9-6.6H48v54.2h4.2c10.3 0 17-2 21.9-6.4 5.7-5.2 8.9-12.8 8.9-20.7s-3.2-15.5-8.9-20.5z"/></svg>