<svg xmlns="http://www.w3.org/2000/svg" viewBox="0 0 576 512"><path d="M431.5 244.3V212c41.2 0 38.5.2 38.5.2 7.3 1.3 13.3 7.3 13.3 16 0 8.8-6 14.5-13.3 15.8-1.2.4-3.3.3-38.5.3zm42.8 20.2c-2.8-.7-3.3-.5-42.8-.5v35c39.6 0 40 .2 42.8-.5 7.5-1.5 13.5-8 13.5-17 0-8.7-6-15.5-13.5-17zM576 80v352c0 26.5-21.5 48-48 48H48c-26.5 0-48-21.5-48-48V80c0-26.5 21.5-48 48-48h480c26.5 0 48 21.5 48 48zM182 192.3h-57c0 67.1 10.7 109.7-35.8 109.7-19.5 0-38.8-5.7-57.2-14.8v28c30 8.3 68 8.3 68 8.3 97.9 0 82-47.7 82-131.2zm178.5 4.5c-63.4-16-165-14.9-165 59.3 0 77.1 108.2 73.6 165 59.2V287C312.9 311.7 253 309 253 256s59.8-55.6 107.5-31.2v-28zM544 286.5c0-18.5-16.5-30.5-38-32v-.8c19.5-2.7 30.3-15.5 30.3-30.2 0-19-15.7-30-37-31 0 0 6.3-.3-120.3-.3v127.5h122.7c24.3.1 42.3-12.9 42.3-33.2z"/></svg>