<svg xmlns="http://www.w3.org/2000/svg" viewBox="0 0 640 512"><path d="M210.3 220.2c-5.6-24.8-26.9-41.2-51-41.2h-37c-7.1 0-12.5 4.5-14.3 10.9L73.1 320l24.7-.1c6.8 0 12.3-4.5 14.2-10.7l25.8-95.7h19.8c8.4 0 16.2 5.6 18.3 14.8 2.5 10.9-5.9 22.6-18.3 22.6h-10.3c-7 0-12.5 4.6-14.3 10.8l-6.4 23.8h32c37.2 0 58.3-36.2 51.7-65.3zm-156.5 28h18.6c6.9 0 12.4-4.4 14.3-10.9l6.2-23.6h-40C30 213.7 9 227.8 1.7 254.8-7 288.6 18.5 320 52 320h12.4l7.1-26.1c1.2-4.4-2.2-8.3-6.4-8.3H53.8c-24.7 0-24.9-37.4 0-37.4zm247.5-34.8h-77.9l-3.5 13.4c-2.4 9.6 4.5 18.5 14.2 18.5h57.5c4 0 2.4 4.3 2.1 5.3l-8.6 31.8c-.4 1.4-.9 5.3-5.5 5.3h-34.9c-5.3 0-5.3-7.9 0-7.9h21.6c6.8 0 12.3-4.6 14.2-10.8l3.5-13.2h-48.4c-39.2 0-43.6 63.8-.7 63.8l57.5.2c11.2 0 20.6-7.2 23.4-17.8l14-51.8c4.8-19.2-9.7-36.8-28.5-36.8zM633.1 179h-18.9c-4.9 0-9.2 3.2-10.4 7.9L568.2 320c20.7 0 39.8-13.8 44.9-34.5l26.5-98.2c1.2-4.3-2-8.3-6.5-8.3zm-236.3 34.7v.1h-48.3l-26.2 98c-1.2 4.4 2.2 8.3 6.4 8.3h18.9c4.8 0 9.2-3 10.4-7.8l17.2-64H395c12.5 0 21.4 11.8 18.1 23.4l-10.6 40c-1.2 4.3 1.9 8.3 6.4 8.3H428c4.6 0 9.1-2.9 10.3-7.8l8.8-33.1c9-33.1-15.9-65.4-50.3-65.4zm98.3 74.6c-3.6 0-6-3.4-5.1-6.7l8-30c.9-3.9 3.7-6 7.8-6h32.9c2.6 0 4.6 2.4 3.9 5.1l-.7 2.6c-.6 2-1.9 3-3.9 3h-21.6c-7 0-12.6 4.6-14.2 10.8l-3.5 13h53.4c10.5 0 20.3-6.6 23.2-17.6l3.2-12c4.9-19.1-9.3-36.8-28.3-36.8h-47.3c-17.9 0-33.8 12-38.6 29.6l-10.8 40c-5 17.7 8.3 36.7 28.3 36.7h66.7c6.8 0 12.3-4.5 14.2-10.7l5.7-21z"/></svg>