<svg xmlns="http://www.w3.org/2000/svg" viewBox="0 0 496 512"><path d="M247.6 8C389.4 8 496 118.1 496 256c0 147.1-118.5 248-248.4 248C113.6 504 0 394.5 0 256 0 123.1 104.7 8 247.6 8zm.8 44.7C130.2 52.7 44.7 150.6 44.7 256c0 109.8 91.2 202.8 203.7 202.8 103.2 0 202.8-81.1 202.8-202.8.1-113.8-90.2-203.3-202.8-203.3zm-.4 60.5c-81.9 0-102.5 77.3-102.5 142.8 0 65.5 20.6 142.8 102.5 142.8S350.5 321.5 350.5 256c0-65.5-20.6-142.8-102.5-142.8zm0 53.9c3.3 0 6.4.5 9.2 1.2 5.9 5.1 8.8 12.1 3.1 21.9l-54.5 100.2c-1.7-12.7-1.9-25.1-1.9-34.4 0-28.8 2-88.9 44.1-88.9zm40.8 46.2c2.9 15.4 3.3 31.4 3.3 42.7 0 28.9-2 88.9-44.1 88.9-13.5 0-32.6-7.7-20.1-26.4l60.9-105.2z"/></svg>