<svg xmlns="http://www.w3.org/2000/svg" viewBox="0 0 496 512"><path d="M247.6 8C389.4 8 496 118.1 496 256c0 147.1-118.5 248-248.4 248C113.6 504 0 394.5 0 256 0 123.1 104.7 8 247.6 8zm.8 44.7C130.2 52.7 44.7 150.6 44.7 256c0 109.8 91.2 202.8 203.7 202.8 103.2 0 202.8-81.1 202.8-202.8.1-113.8-90.2-203.3-202.8-203.3zm107 205.6c-4.7 0-9 2.8-10.7 7.2l-4 9.5-11-92.8c-1.7-13.9-22-13.4-23.1.4l-4.3 51.4-5.2-68.8c-1.1-14.3-22.1-14.2-23.2 0l-3.5 44.9-5.9-94.3c-.9-14.5-22.3-14.4-23.2 0l-5.1 83.7-4.3-66.3c-.9-14.4-22.2-14.4-23.2 0l-5.3 80.2-4.1-57c-1.1-14.3-22-14.3-23.2-.2l-7.7 89.8-1.8-12.2c-1.7-11.4-17.1-13.6-22-3.3l-13.2 27.7H87.5v23.2h51.3c4.4 0 8.4-2.5 10.4-6.4l10.7 73.1c2 13.5 21.9 13 23.1-.7l3.8-43.6 5.7 78.3c1.1 14.4 22.3 14.2 23.2-.1l4.6-70.4 4.8 73.3c.9 14.4 22.3 14.4 23.2-.1l4.9-80.5 4.5 71.8c.9 14.3 22.1 14.5 23.2.2l4.6-58.6 4.9 64.4c1.1 14.3 22 14.2 23.1.1l6.8-83 2.7 22.3c1.4 11.8 17.7 14.1 22.3 3.1l18-43.4h50.5V258l-58.4.3zm-78 5.2h-21.9v21.9c0 4.1-3.3 7.5-7.5 7.5-4.1 0-7.5-3.3-7.5-7.5v-21.9h-21.9c-4.1 0-7.5-3.3-7.5-7.5 0-4.1 3.4-7.5 7.5-7.5h21.9v-21.9c0-4.1 3.4-7.5 7.5-7.5s7.5 3.3 7.5 7.5v21.9h21.9c4.1 0 7.5 3.3 7.5 7.5 0 4.1-3.4 7.5-7.5 7.5z"/></svg>