<svg xmlns="http://www.w3.org/2000/svg" viewBox="0 0 496 512"><path d="M247.6 8C104.7 8 0 123.1 0 256c0 138.5 113.6 248 247.6 248C377.5 504 496 403.1 496 256 496 118.1 389.4 8 247.6 8zm.8 450.8c-112.5 0-203.7-93-203.7-202.8 0-105.4 85.5-203.3 203.7-203.3 112.6 0 202.9 89.5 202.8 203.3 0 121.7-99.6 202.8-202.8 202.8zM316.7 186h-53.2v137.2h53.2c21.4 0 70-5.1 70-68.6 0-63.4-48.6-68.6-70-68.6zm.8 108.5h-19.9v-79.7l19.4-.1c3.8 0 35-2.1 35 39.9 0 24.6-10.5 39.9-34.5 39.9zM203.7 186h-68.2v137.3h34.6V279h27c54.1 0 57.1-37.5 57.1-46.5 0-31-16.8-46.5-50.5-46.5zm-4.9 67.3h-29.2v-41.6h28.3c30.9 0 28.8 41.6.9 41.6z"/></svg>