<svg xmlns="http://www.w3.org/2000/svg" viewBox="0 0 512 512"><path d="M256 32.86L32.86 256 256 479.14 479.14 256 256 32.86zM88.34 255.83c1.96-2 11.92-12.3 96.49-97.48 41.45-41.75 86.19-43.77 119.77-18.69 24.63 18.4 62.06 58.9 62.15 59 .68.74 1.07 2.86.58 3.38-11.27 11.84-22.68 23.54-33.5 34.69-34.21-32.31-40.52-38.24-48.51-43.95-17.77-12.69-41.4-10.13-56.98 5.1-2.17 2.13-1.79 3.43.12 5.35 2.94 2.95 28.1 28.33 35.09 35.78-11.95 11.6-23.66 22.97-35.69 34.66-12.02-12.54-24.48-25.53-36.54-38.11-21.39 21.09-41.69 41.11-61.85 60.99a42569.01 42569.01 0 0 1-41.13-40.72zm234.82 101.6c-35.49 35.43-78.09 38.14-106.99 20.47-22.08-13.5-39.38-32.08-72.93-66.84 12.05-12.37 23.79-24.42 35.37-36.31 33.02 31.91 37.06 36.01 44.68 42.09 18.48 14.74 42.52 13.67 59.32-1.8 3.68-3.39 3.69-3.64.14-7.24-10.59-10.73-21.19-21.44-31.77-32.18-1.32-1.34-3.03-2.48-.8-4.69 10.79-10.71 21.48-21.52 32.21-32.29.26-.26.65-.38 1.91-1.07 12.37 12.87 24.92 25.92 37.25 38.75 21.01-20.73 41.24-40.68 61.25-60.42 13.68 13.4 27.13 26.58 40.86 40.03-20.17 20.86-81.68 82.71-100.5 101.5zM256 0L0 256l256 256 256-256L256 0zM16 256L256 16l240 240-240 240L16 256z"/></svg>