<svg xmlns="http://www.w3.org/2000/svg" viewBox="0 0 448 512"><path d="M225 32C101.3 31.7.8 131.7.4 255.4L0 425.7a53.6 53.6 0 0 0 53.6 53.9l170.2.4c123.7.3 224.3-99.7 224.6-223.4S348.7 32.3 225 32zm169.8 157.2L333 126.6c2.3-4.7 3.8-9.2 3.8-14.3v-1.6l55.2 56.1a101 101 0 0 1 2.8 22.4zM331 94.3a106.06 106.06 0 0 1 58.5 63.8l-54.3-54.6a26.48 26.48 0 0 0-4.2-9.2zM118.1 247.2a49.66 49.66 0 0 0-7.7 11.4l-8.5-8.5a85.78 85.78 0 0 1 16.2-2.9zM97 251.4l11.8 11.9-.9 8a34.74 34.74 0 0 0 2.4 12.5l-27-27.2a80.6 80.6 0 0 1 13.7-5.2zm-18.2 7.4l38.2 38.4a53.17 53.17 0 0 0-14.1 4.7L67.6 266a107 107 0 0 1 11.2-7.2zm-15.2 9.8l35.3 35.5a67.25 67.25 0 0 0-10.5 8.5L53.5 278a64.33 64.33 0 0 1 10.1-9.4zm-13.3 12.3l34.9 35a56.84 56.84 0 0 0-7.7 11.4l-35.8-35.9c2.8-3.8 5.7-7.2 8.6-10.5zm-11 14.3l36.4 36.6a48.29 48.29 0 0 0-3.6 15.2l-39.5-39.8a99.81 99.81 0 0 1 6.7-12zm-8.8 16.3l41.3 41.8a63.47 63.47 0 0 0 6.7 26.2L25.8 326c1.4-4.9 2.9-9.6 4.7-14.5zm-7.9 43l61.9 62.2a31.24 31.24 0 0 0-3.6 14.3v1.1l-55.4-55.7a88.27 88.27 0 0 1-2.9-21.9zm5.3 30.7l54.3 54.6a28.44 28.44 0 0 0 4.2 9.2 106.32 106.32 0 0 1-58.5-63.8zm-5.3-37a80.69 80.69 0 0 1 2.1-17l72.2 72.5a37.59 37.59 0 0 0-9.9 8.7zm253.3-51.8l-42.6-.1-.1 56c-.2 69.3-64.4 115.8-125.7 102.9-5.7 0-19.9-8.7-19.9-24.2a24.89 24.89 0 0 1 24.5-24.6c6.3 0 6.3 1.6 15.7 1.6a55.91 55.91 0 0 0 56.1-55.9l.1-47c0-4.5-4.5-9-8.9-9l-33.6-.1c-32.6-.1-32.5-49.4.1-49.3l42.6.1.1-56a105.18 105.18 0 0 1 105.6-105 86.35 86.35 0 0 1 20.2 2.3c11.2 1.8 19.9 11.9 19.9 24 0 15.5-14.9 27.8-30.3 23.9-27.4-5.9-65.9 14.4-66 54.9l-.1 47a8.94 8.94 0 0 0 8.9 9l33.6.1c32.5.2 32.4 49.5-.2 49.4zm23.5-.3a35.58 35.58 0 0 0 7.6-11.4l8.5 8.5a102 102 0 0 1-16.1 2.9zm21-4.2L308.6 280l.9-8.1a34.74 34.74 0 0 0-2.4-12.5l27 27.2a74.89 74.89 0 0 1-13.7 5.3zm18-7.4l-38-38.4c4.9-1.1 9.6-2.4 13.7-4.7l36.2 35.9c-3.8 2.5-7.9 5-11.9 7.2zm15.5-9.8l-35.3-35.5a61.06 61.06 0 0 0 10.5-8.5l34.9 35a124.56 124.56 0 0 1-10.1 9zm13.2-12.3l-34.9-35a63.18 63.18 0 0 0 7.7-11.4l35.8 35.9a130.28 130.28 0 0 1-8.6 10.5zm11-14.3l-36.4-36.6a48.29 48.29 0 0 0 3.6-15.2l39.5 39.8a87.72 87.72 0 0 1-6.7 12zm13.5-30.9a140.63 140.63 0 0 1-4.7 14.3L345.6 190a58.19 58.19 0 0 0-7.1-26.2zm1-5.6l-71.9-72.1a32 32 0 0 0 9.9-9.2l64.3 64.7a90.93 90.93 0 0 1-2.3 16.6z"/></svg>