<svg xmlns="http://www.w3.org/2000/svg" viewBox="0 0 496 512"><path d="M248 8C111.03 8 0 119.03 0 256s111.03 248 248 248 248-111.03 248-248S384.97 8 248 8zm0 488.21C115.34 496.21 7.79 388.66 7.79 256S115.34 15.79 248 15.79 488.21 123.34 488.21 256 380.66 496.21 248 496.21zm0-459.92C126.66 36.29 28.29 134.66 28.29 256S126.66 475.71 248 475.71 467.71 377.34 467.71 256 369.34 36.29 248 36.29zm0 431.22c-116.81 0-211.51-94.69-211.51-211.51S131.19 44.49 248 44.49 459.51 139.19 459.51 256 364.81 467.51 248 467.51zm186.23-162.98a191.613 191.613 0 0 1-20.13 48.69l-74.13-35.88 61.48 54.82a193.515 193.515 0 0 1-37.2 37.29l-54.8-61.57 35.88 74.27a190.944 190.944 0 0 1-48.63 20.23l-27.29-78.47 4.79 82.93c-8.61 1.18-17.4 1.8-26.33 1.8s-17.72-.62-26.33-1.8l4.76-82.46-27.15 78.03a191.365 191.365 0 0 1-48.65-20.2l35.93-74.34-54.87 61.64a193.85 193.85 0 0 1-37.22-37.28l61.59-54.9-74.26 35.93a191.638 191.638 0 0 1-20.14-48.69l77.84-27.11-82.23 4.76c-1.16-8.57-1.78-17.32-1.78-26.21 0-9 .63-17.84 1.82-26.51l82.38 4.77-77.94-27.16a191.726 191.726 0 0 1 20.23-48.67l74.22 35.92-61.52-54.86a193.85 193.85 0 0 1 37.28-37.22l54.76 61.53-35.83-74.17a191.49 191.49 0 0 1 48.65-20.13l26.87 77.25-4.71-81.61c8.61-1.18 17.39-1.8 26.32-1.8s17.71.62 26.32 1.8l-4.74 82.16 27.05-77.76c17.27 4.5 33.6 11.35 48.63 20.17l-35.82 74.12 54.72-61.47a193.13 193.13 0 0 1 37.24 37.23l-61.45 54.77 74.12-35.86a191.515 191.515 0 0 1 20.2 48.65l-77.81 27.1 82.24-4.75c1.19 8.66 1.82 17.5 1.82 26.49 0 8.88-.61 17.63-1.78 26.19l-82.12-4.75 77.72 27.09z"/></svg>