<svg xmlns="http://www.w3.org/2000/svg" viewBox="0 0 368 512"><path d="M323.1 3H49.9C12.4 3 0 31.3 0 49.1v433.8c0 20.3 12.1 27.7 18.2 30.1 6.2 2.5 22.8 4.6 32.9-7.1C180 356.5 182.2 354 182.2 354c3.1-3.4 3.4-3.1 6.8-3.1h83.4c35.1 0 40.6-25.2 44.3-39.7l48.6-243C373.8 25.8 363.1 3 323.1 3zm-16.3 73.8l-11.4 59.7c-1.2 6.5-9.5 13.2-16.9 13.2H172.1c-12 0-20.6 8.3-20.6 20.3v13c0 12 8.6 20.6 20.6 20.6h90.4c8.3 0 16.6 9.2 14.8 18.2-1.8 8.9-10.5 53.8-11.4 58.8-.9 4.9-6.8 13.5-16.9 13.5h-73.5c-13.5 0-17.2 1.8-26.5 12.6 0 0-8.9 11.4-89.5 108.3-.9.9-1.8.6-1.8-.3V75.9c0-7.7 6.8-16.6 16.6-16.6h219c8.2 0 15.6 7.7 13.5 17.5z"/></svg>