<svg xmlns="http://www.w3.org/2000/svg" viewBox="0 0 512 512"><path d="M249.86 33.48v26.07C236.28 80.17 226 168.14 225.39 274.9c11.74-15.62 19.13-33.33 19.13-48.24v-16.88c-.03-5.32.75-10.53 2.19-15.65.65-2.14 1.39-4.08 2.62-5.82 1.23-1.75 3.43-3.79 6.68-3.79 3.24 0 5.45 2.05 6.68 3.79 1.23 1.75 1.97 3.68 2.62 5.82 1.44 5.12 2.22 10.33 2.19 15.65v16.88c0 14.91 7.39 32.62 19.13 48.24-.63-106.76-10.91-194.73-24.49-215.35V33.48h-12.28zm-26.34 147.77c-9.52 2.15-18.7 5.19-27.46 9.08 8.9 16.12 9.76 32.64 1.71 37.29-8 4.62-21.85-4.23-31.36-19.82-11.58 8.79-21.88 19.32-30.56 31.09 14.73 9.62 22.89 22.92 18.32 30.66-4.54 7.7-20.03 7.14-35.47-.96-5.78 13.25-9.75 27.51-11.65 42.42 9.68.18 18.67 2.38 26.18 6.04 17.78-.3 32.77-1.96 40.49-4.22 5.55-26.35 23.02-48.23 46.32-59.51.73-25.55 1.88-49.67 3.48-72.07zm64.96 0c1.59 22.4 2.75 46.52 3.47 72.07 23.29 11.28 40.77 33.16 46.32 59.51 7.72 2.26 22.71 3.92 40.49 4.22 7.51-3.66 16.5-5.85 26.18-6.04-1.9-14.91-5.86-29.17-11.65-42.42-15.44 8.1-30.93 8.66-35.47.96-4.57-7.74 3.6-21.05 18.32-30.66-8.68-11.77-18.98-22.3-30.56-31.09-9.51 15.59-23.36 24.44-31.36 19.82-8.05-4.65-7.19-21.16 1.71-37.29a147.49 147.49 0 0 0-27.45-9.08zm-32.48 8.6c-3.23 0-5.86 8.81-6.09 19.93h-.05v16.88c0 41.42-49.01 95.04-93.49 95.04-52 0-122.75-1.45-156.37 29.17v2.51c9.42 17.12 20.58 33.17 33.18 47.97C45.7 380.26 84.77 360.4 141.2 360c45.68 1.02 79.03 20.33 90.76 40.87.01.01-.01.04 0 .05 7.67 2.14 15.85 3.23 24.04 3.21 8.19.02 16.37-1.07 24.04-3.21.01-.01-.01-.04 0-.05 11.74-20.54 45.08-39.85 90.76-40.87 56.43.39 95.49 20.26 108.02 41.35 12.6-14.8 23.76-30.86 33.18-47.97v-2.51c-33.61-30.62-104.37-29.17-156.37-29.17-44.48 0-93.49-53.62-93.49-95.04v-16.88h-.05c-.23-11.12-2.86-19.93-6.09-19.93zm0 96.59c22.42 0 40.6 18.18 40.6 40.6s-18.18 40.65-40.6 40.65-40.6-18.23-40.6-40.65c0-22.42 18.18-40.6 40.6-40.6zm0 7.64c-18.19 0-32.96 14.77-32.96 32.96S237.81 360 256 360s32.96-14.77 32.96-32.96-14.77-32.96-32.96-32.96zm0 6.14c14.81 0 26.82 12.01 26.82 26.82s-12.01 26.82-26.82 26.82-26.82-12.01-26.82-26.82 12.01-26.82 26.82-26.82zm-114.8 66.67c-10.19.07-21.6.36-30.5 1.66.43 4.42 1.51 18.63 7.11 29.76 9.11-2.56 18.36-3.9 27.62-3.9 41.28.94 71.48 34.35 78.26 74.47l.11 4.7c10.4 1.91 21.19 2.94 32.21 2.94 11.03 0 21.81-1.02 32.21-2.94l.11-4.7c6.78-40.12 36.98-73.53 78.26-74.47 9.26 0 18.51 1.34 27.62 3.9 5.6-11.13 6.68-25.34 7.11-29.76-8.9-1.3-20.32-1.58-30.5-1.66-18.76.42-35.19 4.17-48.61 9.67-12.54 16.03-29.16 30.03-49.58 33.07-.09.02-.17.04-.27.05-.05.01-.11.04-.16.05-5.24 1.07-10.63 1.6-16.19 1.6-5.55 0-10.95-.53-16.19-1.6-.05-.01-.11-.04-.16-.05-.1-.02-.17-.04-.27-.05-20.42-3.03-37.03-17.04-49.58-33.07-13.42-5.49-29.86-9.25-48.61-9.67z"/></svg>