<svg xmlns="http://www.w3.org/2000/svg" viewBox="0 0 640 512"><path d="M105.72,215v41.25h57.1a49.66,49.66,0,0,1-21.14,32.6c-9.54,6.55-21.72,10.28-36,10.28-27.6,0-50.93-18.91-59.3-44.22a65.61,65.61,0,0,1,0-41l0,0c8.37-25.46,31.7-44.37,59.3-44.37a56.43,56.43,0,0,1,40.51,16.08L176.47,155a101.24,101.24,0,0,0-70.75-27.84,105.55,105.55,0,0,0-94.38,59.11,107.64,107.64,0,0,0,0,96.18v.15a105.41,105.41,0,0,0,94.38,59c28.47,0,52.55-9.53,70-25.91,20-18.61,31.41-46.15,31.41-78.91A133.76,133.76,0,0,0,205.38,215Zm389.41-4c-10.13-9.38-23.93-14.14-41.39-14.14-22.46,0-39.34,8.34-50.5,24.86l20.85,13.26q11.45-17,31.26-17a34.05,34.05,0,0,1,22.75,8.79A28.14,28.14,0,0,1,487.79,248v5.51c-9.1-5.07-20.55-7.75-34.64-7.75-16.44,0-29.65,3.88-39.49,11.77s-14.82,18.31-14.82,31.56a39.74,39.74,0,0,0,13.94,31.27c9.25,8.34,21,12.51,34.79,12.51,16.29,0,29.21-7.3,39-21.89h1v17.72h22.61V250C510.25,233.45,505.26,220.34,495.13,211ZM475.9,300.3a37.32,37.32,0,0,1-26.57,11.16A28.61,28.61,0,0,1,431,305.21a19.41,19.41,0,0,1-7.77-15.63c0-7,3.22-12.81,9.54-17.42s14.53-7,24.07-7C470,265,480.3,268,487.64,273.94,487.64,284.07,483.68,292.85,475.9,300.3Zm-93.65-142A55.71,55.71,0,0,0,341.74,142H279.07V328.74H302.7V253.1h39c16,0,29.5-5.36,40.51-15.93.88-.89,1.76-1.79,2.65-2.68A54.45,54.45,0,0,0,382.25,158.26Zm-16.58,62.23a30.65,30.65,0,0,1-23.34,9.68H302.7V165h39.63a32,32,0,0,1,22.6,9.23A33.18,33.18,0,0,1,365.67,220.49ZM614.31,201,577.77,292.7h-.45L539.9,201H514.21L566,320.55l-29.35,64.32H561L640,201Z"/></svg>