<svg xmlns="http://www.w3.org/2000/svg" viewBox="0 0 512 512"><path d="M301.1 212c4.4 4.4 4.4 11.9 0 16.3l-9.7 9.7c-4.4 4.7-11.9 4.7-16.6 0l-10.5-10.5c-4.4-4.7-4.4-11.9 0-16.6l9.7-9.7c4.4-4.4 11.9-4.4 16.6 0l10.5 10.8zm-30.2-19.7c3-3 3-7.8 0-10.5-2.8-3-7.5-3-10.5 0-2.8 2.8-2.8 7.5 0 10.5 3.1 2.8 7.8 2.8 10.5 0zm-26 5.3c-3 2.8-3 7.5 0 10.2 2.8 3 7.5 3 10.5 0 2.8-2.8 2.8-7.5 0-10.2-3-3-7.7-3-10.5 0zm72.5-13.3c-19.9-14.4-33.8-43.2-11.9-68.1 21.6-24.9 40.7-17.2 59.8.8 11.9 11.3 29.3 24.9 17.2 48.2-12.5 23.5-45.1 33.2-65.1 19.1zm47.7-44.5c-8.9-10-23.3 6.9-15.5 16.1 7.4 9 32.1 2.4 15.5-16.1zM504 256c0 137-111 248-248 248S8 393 8 256 119 8 256 8s248 111 248 248zm-66.2 42.6c2.5-16.1-20.2-16.6-25.2-25.7-13.6-24.1-27.7-36.8-54.5-30.4 11.6-8 23.5-6.1 23.5-6.1.3-6.4 0-13-9.4-24.9 3.9-12.5.3-22.4.3-22.4 15.5-8.6 26.8-24.4 29.1-43.2 3.6-31-18.8-59.2-49.8-62.8-22.1-2.5-43.7 7.7-54.3 25.7-23.2 40.1 1.4 70.9 22.4 81.4-14.4-1.4-34.3-11.9-40.1-34.3-6.6-25.7 2.8-49.8 8.9-61.4 0 0-4.4-5.8-8-8.9 0 0-13.8 0-24.6 5.3 11.9-15.2 25.2-14.4 25.2-14.4 0-6.4-.6-14.9-3.6-21.6-5.4-11-23.8-12.9-31.7 2.8.1-.2.3-.4.4-.5-5 11.9-1.1 55.9 16.9 87.2-2.5 1.4-9.1 6.1-13 10-21.6 9.7-56.2 60.3-56.2 60.3-28.2 10.8-77.2 50.9-70.6 79.7.3 3 1.4 5.5 3 7.5-2.8 2.2-5.5 5-8.3 8.3-11.9 13.8-5.3 35.2 17.7 24.4 15.8-7.2 29.6-20.2 36.3-30.4 0 0-5.5-5-16.3-4.4 27.7-6.6 34.3-9.4 46.2-9.1 8 3.9 8-34.3 8-34.3 0-14.7-2.2-31-11.1-41.5 12.5 12.2 29.1 32.7 28 60.6-.8 18.3-15.2 23-15.2 23-9.1 16.6-43.2 65.9-30.4 106 0 0-9.7-14.9-10.2-22.1-17.4 19.4-46.5 52.3-24.6 64.5 26.6 14.7 108.8-88.6 126.2-142.3 34.6-20.8 55.4-47.3 63.9-65 22 43.5 95.3 94.5 101.1 59z"/></svg>