<svg xmlns="http://www.w3.org/2000/svg" viewBox="0 0 512 512"><path d="M76.38 370.3a37.8 37.8 0 1 1-32.07-32.42c-78.28-111.35 52-190.53 52-190.53-5.86 43-8.24 91.16-8.24 91.16-67.31 41.49.93 64.06 39.81 72.87a140.38 140.38 0 0 0 131.66 91.94c1.92 0 3.77-.21 5.67-.28l.11 18.86c-99.22 1.39-158.7-29.14-188.94-51.6zm108-327.7A37.57 37.57 0 0 0 181 21.45a37.95 37.95 0 1 0-31.17 54.22c-22.55 29.91-53.83 89.57-52.42 190l21.84-.15c0-.9-.14-1.77-.14-2.68A140.42 140.42 0 0 1 207 132.71c8-37.71 30.7-114.3 73.8-44.29 0 0 48.14 2.38 91.18 8.24 0 0-77.84-128-187.59-54.06zm304.19 134.17a37.94 37.94 0 1 0-53.84-28.7C403 126.13 344.89 99 251.28 100.33l.14 22.5c2.7-.15 5.39-.41 8.14-.41a140.37 140.37 0 0 1 130.49 88.76c39.1 9 105.06 31.58 38.46 72.54 0 0-2.34 48.13-8.21 91.16 0 0 133.45-81.16 49-194.61a37.45 37.45 0 0 0 19.31-3.5zM374.06 436.24c21.43-32.46 46.42-89.69 45.14-179.66l-19.52.14c.08 2.06.3 4.07.3 6.15a140.34 140.34 0 0 1-91.39 131.45c-8.85 38.95-31.44 106.66-72.77 39.49 0 0-48.12-2.34-91.19-8.22 0 0 79.92 131.34 191.9 51a37.5 37.5 0 0 0 3.64 14 37.93 37.93 0 1 0 33.89-54.29z"/></svg>