<svg xmlns="http://www.w3.org/2000/svg" viewBox="0 0 448 512"><path d="M407.4 32H40.6C18.2 32 0 50.2 0 72.6v366.8C0 461.8 18.2 480 40.6 480h366.8c22.4 0 40.6-18.2 40.6-40.6V72.6c0-22.4-18.2-40.6-40.6-40.6zM176.1 145.6c.4 23.4-22.4 27.3-26.6 27.4-14.9 0-27.1-12-27.1-27 .1-35.2 53.1-35.5 53.7-.4zM332.8 377c-65.6 0-34.1-74-25-106.6 14.1-46.4-45.2-59-59.9.7l-25.8 103.3H177l8.1-32.5c-31.5 51.8-94.6 44.4-94.6-4.3.1-14.3.9-14 23-104.1H81.7l9.7-35.6h76.4c-33.6 133.7-32.6 126.9-32.9 138.2 0 20.9 40.9 13.5 57.4-23.2l19.8-79.4h-32.3l9.7-35.6h68.8l-8.9 40.5c40.5-75.5 127.9-47.8 101.8 38-14.2 51.1-14.6 50.7-14.9 58.8 0 15.5 17.5 22.6 31.8-16.9L386 325c-10.5 36.7-29.4 52-53.2 52z"/></svg>