<svg xmlns="http://www.w3.org/2000/svg" viewBox="0 0 448 512"><path d="M398.5 373.6c95.9-122.1 17.2-233.1 17.2-233.1 45.4 85.8-41.4 170.5-41.4 170.5 105-171.5-60.5-271.5-60.5-271.5 96.9 72.7-10.1 190.7-10.1 190.7 85.8 158.4-68.6 230.1-68.6 230.1s-.4-16.9-2.2-85.7c4.3 4.5 34.5 36.2 34.5 36.2l-24.2-47.4 62.6-9.1-62.6-9.1 20.2-55.5-31.4 45.9c-2.2-87.7-7.8-305.1-7.9-306.9v-2.4 1-1 2.4c0 1-5.6 219-7.9 306.9l-31.4-45.9 20.2 55.5-62.6 9.1 62.6 9.1-24.2 47.4 34.5-36.2c-1.8 68.8-2.2 85.7-2.2 85.7s-154.4-71.7-68.6-230.1c0 0-107-118.1-10.1-190.7 0 0-165.5 99.9-60.5 271.5 0 0-86.8-84.8-41.4-170.5 0 0-78.7 111 17.2 233.1 0 0-26.2-16.1-49.4-77.7 0 0 16.9 183.3 222 185.7h4.1c205-2.4 222-185.7 222-185.7-23.6 61.5-49.9 77.7-49.9 77.7z"/></svg>