<svg xmlns="http://www.w3.org/2000/svg" viewBox="0 0 496 512"><path d="M378.1 45C337.6 19.9 292.6 8 248.2 8 165 8 83.8 49.9 36.9 125.9c-71.9 116.6-35.6 269.3 81 341.2s269.3 35.6 341.2-80.9c71.9-116.6 35.6-269.4-81-341.2zm51.8 323.2c-40.4 65.5-110.4 101.5-182 101.5-6.8 0-13.6-.4-20.4-1-9-13.6-19.9-33.3-23.7-42.4-5.7-13.7-27.2-45.6 31.2-67.1 51.7-19.1 176.7-16.5 208.8-17.6-4 9-8.6 17.9-13.9 26.6zm-200.8-86.3c-55.5-1.4-81.7-20.8-58.5-48.2s51.1-40.7 68.9-51.2c17.9-10.5 27.3-33.7-23.6-29.7C87.3 161.5 48.6 252.1 37.6 293c-8.8-49.7-.1-102.7 28.5-149.1C128 43.4 259.6 12.2 360.1 74.1c74.8 46.1 111.2 130.9 99.3 212.7-24.9-.5-179.3-3.6-230.3-4.9zm183.8-54.8c-22.7-6-57 11.3-86.7 27.2-29.7 15.8-31.1 8.2-31.1 8.2s40.2-28.1 50.7-34.5 31.9-14 13.4-24.6c-3.2-1.8-6.7-2.7-10.4-2.7-17.8 0-41.5 18.7-67.5 35.6-31.5 20.5-65.3 31.3-65.3 31.3l169.5-1.6 46.5-23.4s3.6-9.5-19.1-15.5z"/></svg>