<svg xmlns="http://www.w3.org/2000/svg" viewBox="0 0 640 512"><path d="M612.7 219c0-20.5 3.2-32.6 3.2-54.6 0-34.2-12.6-45.2-40.5-45.2h-20.5v24.2h6.3c14.2 0 17.3 4.7 17.3 22.1 0 16.3-1.6 32.6-1.6 51.5 0 24.2 7.9 33.6 23.6 37.3v1.6c-15.8 3.7-23.6 13.1-23.6 37.3 0 18.9 1.6 34.2 1.6 51.5 0 17.9-3.7 22.6-17.3 22.6v.5h-6.3V393h20.5c27.8 0 40.5-11 40.5-45.2 0-22.6-3.2-34.2-3.2-54.6 0-11 6.8-22.6 27.3-23.6v-27.3c-20.5-.7-27.3-12.3-27.3-23.3zm-105.6 32c-15.8-6.3-30.5-10-30.5-20.5 0-7.9 6.3-12.6 17.9-12.6s22.1 4.7 33.6 13.1l21-27.8c-13.1-10-31-20.5-55.2-20.5-35.7 0-59.9 20.5-59.9 49.4 0 25.7 22.6 38.9 41.5 46.2 16.3 6.3 32.1 11.6 32.1 22.1 0 7.9-6.3 13.1-20.5 13.1-13.1 0-26.3-5.3-40.5-16.3l-21 30.5c15.8 13.1 39.9 22.1 59.9 22.1 42 0 64.6-22.1 64.6-51s-22.5-41-43-47.8zm-358.9 59.4c-3.7 0-8.4-3.2-8.4-13.1V119.1H65.2c-28.4 0-41 11-41 45.2 0 22.6 3.2 35.2 3.2 54.6 0 11-6.8 22.6-27.3 23.6v27.3c20.5.5 27.3 12.1 27.3 23.1 0 19.4-3.2 31-3.2 53.6 0 34.2 12.6 45.2 40.5 45.2h20.5v-24.2h-6.3c-13.1 0-17.3-5.3-17.3-22.6s1.6-32.1 1.6-51.5c0-24.2-7.9-33.6-23.6-37.3v-1.6c15.8-3.7 23.6-13.1 23.6-37.3 0-18.9-1.6-34.2-1.6-51.5s3.7-22.1 17.3-22.1H93v150.8c0 32.1 11 53.1 43.1 53.1 10 0 17.9-1.6 23.6-3.7l-5.3-34.2c-3.1.8-4.6.8-6.2.8zM379.9 251c-16.3-6.3-31-10-31-20.5 0-7.9 6.3-12.6 17.9-12.6 11.6 0 22.1 4.7 33.6 13.1l21-27.8c-13.1-10-31-20.5-55.2-20.5-35.7 0-59.9 20.5-59.9 49.4 0 25.7 22.6 38.9 41.5 46.2 16.3 6.3 32.1 11.6 32.1 22.1 0 7.9-6.3 13.1-20.5 13.1-13.1 0-26.3-5.3-40.5-16.3l-20.5 30.5c15.8 13.1 39.9 22.1 59.9 22.1 42 0 64.6-22.1 64.6-51 .1-28.9-22.5-41-43-47.8zm-155-68.8c-38.4 0-75.1 32.1-74.1 82.5 0 52 34.2 82.5 79.3 82.5 18.9 0 39.9-6.8 56.2-17.9l-15.8-27.8c-11.6 6.8-22.6 10-34.2 10-21 0-37.3-10-41.5-34.2H290c.5-3.7 1.6-11 1.6-19.4.6-42.6-22.6-75.7-66.7-75.7zm-30 66.2c3.2-21 15.8-31 30.5-31 18.9 0 26.3 13.1 26.3 31h-56.8z"/></svg>