<svg xmlns="http://www.w3.org/2000/svg" viewBox="0 0 448 512"><path d="M437.4 226.3c-.3-.9-.9-1.4-1.4-2l-70-38.6c-.9-.6-2-.6-3.1 0l-58.9 36c-.9.6-1.4 1.7-1.4 2.6l-.9 31.4-24-16c-.9-.6-2.3-.6-3.1 0L240 260.9l-1.4-35.1c0-.9-.6-2-1.4-2.3l-36-24.3 33.7-17.4c1.1-.6 1.7-1.7 1.7-2.9l-5.7-132.3c0-.9-.9-2-1.7-2.6L138.6.3c-.9-.3-1.7-.3-2.3-.3L12.6 38.6c-1.4.6-2.3 2-2 3.7L38 175.4c.9 3.4 34 27.4 38.6 30.9l-26.9 12.9c-1.4.9-2 2.3-1.7 3.4l20.6 100.3c.6 2.9 23.7 23.1 27.1 26.3l-17.4 10.6c-.9.6-1.7 2-1.4 3.1 1.4 7.1 15.4 77.7 16.9 79.1l65.1 69.1c.6.6 1.4.6 2.3.9.6 0 1.1-.3 1.7-.6l83.7-66.9c.9-.6 1.1-1.4 1.1-2.3l-2-46 28 23.7c1.1.9 2.9.9 4 0l66.9-53.4c.9-.6 1.1-1.4 1.1-2.3l2.3-33.4 20.3 14c1.1.9 2.6.9 3.7 0l54.6-43.7c.6-.3 1.1-1.1 1.1-2 .9-6.5 10.3-70.8 9.7-72.8zm-204.8 4.8l4 92.6-90.6 61.2-14-96.6 100.6-57.2zm-7.7-180l5.4 126-106.6 55.4L104 97.7l120.9-46.6zM44 173.1L18 48l79.7 49.4 19.4 132.9L44 173.1zm30.6 147.8L55.7 230l70 58.3 13.7 93.4-64.8-60.8zm24.3 117.7l-13.7-67.1 61.7 60.9 9.7 67.4-57.7-61.2zm64.5 64.5l-10.6-70.9 85.7-61.4 3.1 70-78.2 62.3zm82-115.1c0-3.4.9-22.9-2-25.1l-24.3-20 22.3-14.9c2.3-1.7 1.1-5.7 1.1-8l29.4 22.6.6 68.3-27.1-22.9zm94.3-25.4l-60.9 48.6-.6-68.6 65.7-46.9-4.2 66.9zm27.7-25.7l-19.1-13.4 2-34c.3-.9-.3-2-1.1-2.6L308 259.7l.6-30 64.6 40.6-5.8 66.6zm54.6-39.8l-48.3 38.3 5.7-65.1 51.1-36.6-8.5 63.4z"/></svg>