<svg xmlns="http://www.w3.org/2000/svg" viewBox="0 0 448 512"><path d="M330.61 243.52a36.15 36.15 0 0 1 9.3 0c1.66-3.83 1.95-10.43.45-17.61-2.23-10.67-5.25-17.14-11.48-16.13s-6.47 8.74-4.24 19.42c1.26 6 3.49 11.14 6 14.32zM277.05 252c4.47 2 7.2 3.26 8.28 2.13 1.89-1.94-3.48-9.39-12.12-13.09a31.44 31.44 0 0 0-30.61 3.68c-3 2.18-5.81 5.22-5.41 7.06.85 3.74 10-2.71 22.6-3.48 7-.44 12.8 1.75 17.26 3.71zm-9 5.13c-9.07 1.42-15 6.53-13.47 10.1.9.34 1.17.81 5.21-.81a37 37 0 0 1 18.72-1.95c2.92.34 4.31.52 4.94-.49 1.46-2.22-5.71-8-15.39-6.85zm54.17 17.1c3.38-6.87-10.9-13.93-14.3-7s10.92 13.88 14.32 6.97zm15.66-20.47c-7.66-.13-7.95 15.8-.26 15.93s7.98-15.81.28-15.96zm-218.79 78.9c-1.32.31-6 1.45-8.47-2.35-5.2-8 11.11-20.38 3-35.77-9.1-17.47-27.82-13.54-35.05-5.54-8.71 9.6-8.72 23.54-5 24.08 4.27.57 4.08-6.47 7.38-11.63a12.83 12.83 0 0 1 17.85-3.72c11.59 7.59 1.37 17.76 2.28 28.62 1.39 16.68 18.42 16.37 21.58 9a2.08 2.08 0 0 0-.2-2.33c.03.89.68-1.3-3.35-.39zm299.72-17.07c-3.35-11.73-2.57-9.22-6.78-20.52 2.45-3.67 15.29-24-3.07-43.25-10.4-10.92-33.9-16.54-41.1-18.54-1.5-11.39 4.65-58.7-21.52-83 20.79-21.55 33.76-45.29 33.73-65.65-.06-39.16-48.15-51-107.42-26.47l-12.55 5.33c-.06-.05-22.71-22.27-23.05-22.57C169.5-18-41.77 216.81 25.78 273.85l14.76 12.51a72.49 72.49 0 0 0-4.1 33.5c3.36 33.4 36 60.42 67.53 60.38 57.73 133.06 267.9 133.28 322.29 3 1.74-4.47 9.11-24.61 9.11-42.38s-10.09-25.27-16.53-25.27zm-316 48.16c-22.82-.61-47.46-21.15-49.91-45.51-6.17-61.31 74.26-75.27 84-12.33 4.54 29.64-4.67 58.49-34.12 57.81zM84.3 249.55C69.14 252.5 55.78 261.09 47.6 273c-4.88-4.07-14-12-15.59-15-13.01-24.85 14.24-73 33.3-100.21C112.42 90.56 186.19 39.68 220.36 48.91c5.55 1.57 23.94 22.89 23.94 22.89s-34.15 18.94-65.8 45.35c-42.66 32.85-74.89 80.59-94.2 132.4zM323.18 350.7s-35.74 5.3-69.51-7.07c6.21-20.16 27 6.1 96.4-13.81 15.29-4.38 35.37-13 51-25.35a102.85 102.85 0 0 1 7.12 24.28c3.66-.66 14.25-.52 11.44 18.1-3.29 19.87-11.73 36-25.93 50.84A106.86 106.86 0 0 1 362.55 421a132.45 132.45 0 0 1-20.34 8.58c-53.51 17.48-108.3-1.74-126-43a66.33 66.33 0 0 1-3.55-9.74c-7.53-27.2-1.14-59.83 18.84-80.37 1.23-1.31 2.48-2.85 2.48-4.79a8.45 8.45 0 0 0-1.92-4.54c-7-10.13-31.19-27.4-26.33-60.83 3.5-24 24.49-40.91 44.07-39.91l5 .29c8.48.5 15.89 1.59 22.88 1.88 11.69.5 22.2-1.19 34.64-11.56 4.2-3.5 7.57-6.54 13.26-7.51a17.45 17.45 0 0 1 13.6 2.24c10 6.64 11.4 22.73 11.92 34.49.29 6.72 1.1 23 1.38 27.63.63 10.67 3.43 12.17 9.11 14 3.19 1.05 6.15 1.83 10.51 3.06 13.21 3.71 21 7.48 26 12.31a16.38 16.38 0 0 1 4.74 9.29c1.56 11.37-8.82 25.4-36.31 38.16-46.71 21.68-93.68 14.45-100.48 13.68-20.15-2.71-31.63 23.32-19.55 41.15 22.64 33.41 122.4 20 151.37-21.35.69-1 .12-1.59-.73-1-41.77 28.58-97.06 38.21-128.46 26-4.77-1.85-14.73-6.44-15.94-16.67 43.6 13.49 71 .74 71 .74s2.03-2.79-.56-2.53zm-68.47-5.7zm-83.4-187.5c16.74-19.35 37.36-36.18 55.83-45.63a.73.73 0 0 1 1 1c-1.46 2.66-4.29 8.34-5.19 12.65a.75.75 0 0 0 1.16.79c11.49-7.83 31.48-16.22 49-17.3a.77.77 0 0 1 .52 1.38 41.86 41.86 0 0 0-7.71 7.74.75.75 0 0 0 .59 1.19c12.31.09 29.66 4.4 41 10.74.76.43.22 1.91-.64 1.72-69.55-15.94-123.08 18.53-134.5 26.83a.76.76 0 0 1-1-1.12z"/></svg>