<svg xmlns="http://www.w3.org/2000/svg" viewBox="0 0 320 512"><path d="M118.3 238.4c3.5-12.5 6.9-33.6 13.2-33.6 8.3 1.8 9.6 23.4 18.6 36.6 4.6-23.5 5.3-85.1 14.1-86.7 9-.7 19.7 66.5 22 77.5 9.9 4.1 48.9 6.6 48.9 6.6 1.9 7.3-24 7.6-40 7.8-4.6 14.8-5.4 27.7-11.4 28-4.7.2-8.2-28.8-17.5-49.6l-9.4 65.5c-4.4 13-15.5-22.5-21.9-39.3-3.3-.1-62.4-1.6-47.6-7.8l31-5zM228 448c21.2 0 21.2-32 0-32H92c-21.2 0-21.2 32 0 32h136zm-24 64c21.2 0 21.2-32 0-32h-88c-21.2 0-21.2 32 0 32h88zm34.2-141.5c3.2-18.9 5.2-36.4 11.9-48.8 7.9-14.7 16.1-28.1 24-41 24.6-40.4 45.9-75.2 45.9-125.5C320 69.6 248.2 0 160 0S0 69.6 0 155.2c0 50.2 21.3 85.1 45.9 125.5 7.9 12.9 16 26.3 24 41 6.7 12.5 8.7 29.8 11.9 48.9 3.5 21 36.1 15.7 32.6-5.1-3.6-21.7-5.6-40.7-15.3-58.6C66.5 246.5 33 211.3 33 155.2 33 87.3 90 32 160 32s127 55.3 127 123.2c0 56.1-33.5 91.3-66.1 151.6-9.7 18-11.7 37.4-15.3 58.6-3.4 20.6 29 26.4 32.6 5.1z"/></svg>