<svg xmlns="http://www.w3.org/2000/svg" viewBox="0 0 640 512"><path d="M187.1 159.9l-34.2 113.7-54.5-113.7H49L0 320h44.9L76 213.5 126.6 320h56.9L232 159.9h-44.9zm452.5-.9c-2.9-18-23.9-28.1-42.1-31.3-44.6-7.8-101.9 16.3-88.5 58.8v.1c-43.8 8.7-74.3 26.8-94.2 48.2-3-9.8-13.6-16.6-34-16.6h-87.6c-9.3 0-12.9-2.3-11.5-7.4 1.6-5.5 1.9-6.8 3.7-12.2 2.1-6.4 7.8-7.1 13.3-7.1h133.5l9.7-31.5c-139.7 0-144.5-.5-160.1 1.2-12.3 1.3-23.5 4.8-30.6 15-6.8 9.9-14.4 35.6-17.6 47.1-5.4 19.4-.6 28.6 32.8 28.6h87.3c7.8 0 8.8 2.7 7.7 6.6-1.1 4.4-2.8 10-4.5 14.6-1.6 4.2-4.7 7.4-13.8 7.4H216.3L204.7 320c139.9 0 145.3-.6 160.9-2.3 6.6-.7 13-2.1 18.5-4.9.2 3.7.5 7.3 1.2 10.8 5.4 30.5 27.4 52.3 56.8 59.5 48.6 11.9 108.7-16.8 135.1-68 18.7-36.2 14.1-76.2-3.4-105.5h.1c29.6-5.9 70.3-22 65.7-50.6zM530.7 263.7c-5.9 29.5-36.6 47.8-61.6 43.9-30.9-4.8-38.5-39.5-14.1-64.8 16.2-16.8 45.2-24 68.5-26.9 6.7 14.1 10.3 32 7.2 47.8zm21.8-83.1c-4.2-6-9.8-18.5-2.5-26.3 6.7-7.2 20.9-10.1 31.8-7.7 15.3 3.4 19.7 15.9 4.9 24.4-10.7 6.1-23.6 8.1-34.2 9.6z"/></svg>