<svg xmlns="http://www.w3.org/2000/svg" viewBox="0 0 496 512"><path d="M235.76 10.23c7.5-.31 15-.28 22.5-.09 3.61.14 7.2.4 10.79.73 4.92.27 9.79 1.03 14.67 1.62 2.93.43 5.83.98 8.75 1.46 7.9 1.33 15.67 3.28 23.39 5.4 12.24 3.47 24.19 7.92 35.76 13.21 26.56 12.24 50.94 29.21 71.63 49.88 20.03 20.09 36.72 43.55 48.89 69.19 1.13 2.59 2.44 5.1 3.47 7.74 2.81 6.43 5.39 12.97 7.58 19.63 4.14 12.33 7.34 24.99 9.42 37.83.57 3.14 1.04 6.3 1.4 9.47.55 3.83.94 7.69 1.18 11.56.83 8.34.84 16.73.77 25.1-.07 4.97-.26 9.94-.75 14.89-.24 3.38-.51 6.76-.98 10.12-.39 2.72-.63 5.46-1.11 8.17-.9 5.15-1.7 10.31-2.87 15.41-4.1 18.5-10.3 36.55-18.51 53.63-15.77 32.83-38.83 62.17-67.12 85.12a246.503 246.503 0 0 1-56.91 34.86c-6.21 2.68-12.46 5.25-18.87 7.41-3.51 1.16-7.01 2.38-10.57 3.39-6.62 1.88-13.29 3.64-20.04 5-4.66.91-9.34 1.73-14.03 2.48-5.25.66-10.5 1.44-15.79 1.74-6.69.66-13.41.84-20.12.81-6.82.03-13.65-.12-20.45-.79-3.29-.23-6.57-.5-9.83-.95-2.72-.39-5.46-.63-8.17-1.11-4.12-.72-8.25-1.37-12.35-2.22-4.25-.94-8.49-1.89-12.69-3.02-8.63-2.17-17.08-5.01-25.41-8.13-10.49-4.12-20.79-8.75-30.64-14.25-2.14-1.15-4.28-2.29-6.35-3.57-11.22-6.58-21.86-14.1-31.92-22.34-34.68-28.41-61.41-66.43-76.35-108.7-3.09-8.74-5.71-17.65-7.8-26.68-1.48-6.16-2.52-12.42-3.58-18.66-.4-2.35-.61-4.73-.95-7.09-.6-3.96-.75-7.96-1.17-11.94-.8-9.47-.71-18.99-.51-28.49.14-3.51.34-7.01.7-10.51.31-3.17.46-6.37.92-9.52.41-2.81.65-5.65 1.16-8.44.7-3.94 1.3-7.9 2.12-11.82 3.43-16.52 8.47-32.73 15.26-48.18 1.15-2.92 2.59-5.72 3.86-8.59 8.05-16.71 17.9-32.56 29.49-47.06 20-25.38 45.1-46.68 73.27-62.47 7.5-4.15 15.16-8.05 23.07-11.37 15.82-6.88 32.41-11.95 49.31-15.38 3.51-.67 7.04-1.24 10.56-1.85 2.62-.47 5.28-.7 7.91-1.08 3.53-.53 7.1-.68 10.65-1.04 2.46-.24 4.91-.36 7.36-.51m8.64 24.41c-9.23.1-18.43.99-27.57 2.23-7.3 1.08-14.53 2.6-21.71 4.3-13.91 3.5-27.48 8.34-40.46 14.42-10.46 4.99-20.59 10.7-30.18 17.22-4.18 2.92-8.4 5.8-12.34 9.03-5.08 3.97-9.98 8.17-14.68 12.59-2.51 2.24-4.81 4.7-7.22 7.06-28.22 28.79-48.44 65.39-57.5 104.69-2.04 8.44-3.54 17.02-4.44 25.65-1.1 8.89-1.44 17.85-1.41 26.8.11 7.14.38 14.28 1.22 21.37.62 7.12 1.87 14.16 3.2 21.18 1.07 4.65 2.03 9.32 3.33 13.91 6.29 23.38 16.5 45.7 30.07 65.75 8.64 12.98 18.78 24.93 29.98 35.77 16.28 15.82 35.05 29.04 55.34 39.22 7.28 3.52 14.66 6.87 22.27 9.63 5.04 1.76 10.06 3.57 15.22 4.98 11.26 3.23 22.77 5.6 34.39 7.06 2.91.29 5.81.61 8.72.9 13.82 1.08 27.74 1 41.54-.43 4.45-.6 8.92-.99 13.35-1.78 3.63-.67 7.28-1.25 10.87-2.1 4.13-.98 8.28-1.91 12.36-3.07 26.5-7.34 51.58-19.71 73.58-36.2 15.78-11.82 29.96-25.76 42.12-41.28 3.26-4.02 6.17-8.31 9.13-12.55 3.39-5.06 6.58-10.25 9.6-15.54 2.4-4.44 4.74-8.91 6.95-13.45 5.69-12.05 10.28-24.62 13.75-37.49 2.59-10.01 4.75-20.16 5.9-30.45 1.77-13.47 1.94-27.1 1.29-40.65-.29-3.89-.67-7.77-1-11.66-2.23-19.08-6.79-37.91-13.82-55.8-5.95-15.13-13.53-29.63-22.61-43.13-12.69-18.8-28.24-35.68-45.97-49.83-25.05-20-54.47-34.55-85.65-42.08-7.78-1.93-15.69-3.34-23.63-4.45-3.91-.59-7.85-.82-11.77-1.24-7.39-.57-14.81-.72-22.22-.58zM139.26 83.53c13.3-8.89 28.08-15.38 43.3-20.18-3.17 1.77-6.44 3.38-9.53 5.29-11.21 6.68-21.52 14.9-30.38 24.49-6.8 7.43-12.76 15.73-17.01 24.89-3.29 6.86-5.64 14.19-6.86 21.71-.93 4.85-1.3 9.81-1.17 14.75.13 13.66 4.44 27.08 11.29 38.82 5.92 10.22 13.63 19.33 22.36 27.26 4.85 4.36 10.24 8.09 14.95 12.6 2.26 2.19 4.49 4.42 6.43 6.91 2.62 3.31 4.89 6.99 5.99 11.1.9 3.02.66 6.2.69 9.31.02 4.1-.04 8.2.03 12.3.14 3.54-.02 7.09.11 10.63.08 2.38.02 4.76.05 7.14.16 5.77.06 11.53.15 17.3.11 2.91.02 5.82.13 8.74.03 1.63.13 3.28-.03 4.91-.91.12-1.82.18-2.73.16-10.99 0-21.88-2.63-31.95-6.93-6-2.7-11.81-5.89-17.09-9.83-5.75-4.19-11.09-8.96-15.79-14.31-6.53-7.24-11.98-15.39-16.62-23.95-1.07-2.03-2.24-4.02-3.18-6.12-1.16-2.64-2.62-5.14-3.67-7.82-4.05-9.68-6.57-19.94-8.08-30.31-.49-4.44-1.09-8.88-1.2-13.35-.7-15.73.84-31.55 4.67-46.82 2.12-8.15 4.77-16.18 8.31-23.83 6.32-14.2 15.34-27.18 26.3-38.19 6.28-6.2 13.13-11.84 20.53-16.67zm175.37-20.12c2.74.74 5.41 1.74 8.09 2.68 6.36 2.33 12.68 4.84 18.71 7.96 13.11 6.44 25.31 14.81 35.82 24.97 10.2 9.95 18.74 21.6 25.14 34.34 1.28 2.75 2.64 5.46 3.81 8.26 6.31 15.1 10 31.26 11.23 47.57.41 4.54.44 9.09.45 13.64.07 11.64-1.49 23.25-4.3 34.53-1.97 7.27-4.35 14.49-7.86 21.18-3.18 6.64-6.68 13.16-10.84 19.24-6.94 10.47-15.6 19.87-25.82 27.22-10.48 7.64-22.64 13.02-35.4 15.38-3.51.69-7.08 1.08-10.66 1.21-1.85.06-3.72.16-5.56-.1-.28-2.15 0-4.31-.01-6.46-.03-3.73.14-7.45.1-11.17.19-7.02.02-14.05.21-21.07.03-2.38-.03-4.76.03-7.14.17-5.07-.04-10.14.14-15.21.1-2.99-.24-6.04.51-8.96.66-2.5 1.78-4.86 3.09-7.08 4.46-7.31 11.06-12.96 17.68-18.26 5.38-4.18 10.47-8.77 15.02-13.84 7.68-8.37 14.17-17.88 18.78-28.27 2.5-5.93 4.52-12.1 5.55-18.46.86-4.37 1.06-8.83 1.01-13.27-.02-7.85-1.4-15.65-3.64-23.17-1.75-5.73-4.27-11.18-7.09-16.45-3.87-6.93-8.65-13.31-13.96-19.2-9.94-10.85-21.75-19.94-34.6-27.1-1.85-1.02-3.84-1.82-5.63-2.97zm-100.8 58.45c.98-1.18 1.99-2.33 3.12-3.38-.61.93-1.27 1.81-1.95 2.68-3.1 3.88-5.54 8.31-7.03 13.06-.87 3.27-1.68 6.6-1.73 10-.07 2.52-.08 5.07.32 7.57 1.13 7.63 4.33 14.85 8.77 21.12 2 2.7 4.25 5.27 6.92 7.33 1.62 1.27 3.53 2.09 5.34 3.05 3.11 1.68 6.32 3.23 9.07 5.48 2.67 2.09 4.55 5.33 4.4 8.79-.01 73.67 0 147.34-.01 221.02 0 1.35-.08 2.7.04 4.04.13 1.48.82 2.83 1.47 4.15.86 1.66 1.78 3.34 3.18 4.62.85.77 1.97 1.4 3.15 1.24 1.5-.2 2.66-1.35 3.45-2.57.96-1.51 1.68-3.16 2.28-4.85.76-2.13.44-4.42.54-6.63.14-4.03-.02-8.06.14-12.09.03-5.89.03-11.77.06-17.66.14-3.62.03-7.24.11-10.86.15-4.03-.02-8.06.14-12.09.03-5.99.03-11.98.07-17.97.14-3.62.02-7.24.11-10.86.14-3.93-.02-7.86.14-11.78.03-5.99.03-11.98.06-17.97.16-3.94-.01-7.88.19-11.82.29 1.44.13 2.92.22 4.38.19 3.61.42 7.23.76 10.84.32 3.44.44 6.89.86 10.32.37 3.1.51 6.22.95 9.31.57 4.09.87 8.21 1.54 12.29 1.46 9.04 2.83 18.11 5.09 26.99 1.13 4.82 2.4 9.61 4 14.3 2.54 7.9 5.72 15.67 10.31 22.62 1.73 2.64 3.87 4.98 6.1 7.21.27.25.55.51.88.71.6.25 1.31-.07 1.7-.57.71-.88 1.17-1.94 1.7-2.93 4.05-7.8 8.18-15.56 12.34-23.31.7-1.31 1.44-2.62 2.56-3.61 1.75-1.57 3.84-2.69 5.98-3.63 2.88-1.22 5.9-2.19 9.03-2.42 6.58-.62 13.11.75 19.56 1.85 3.69.58 7.4 1.17 11.13 1.41 3.74.1 7.48.05 11.21-.28 8.55-.92 16.99-2.96 24.94-6.25 5.3-2.24 10.46-4.83 15.31-7.93 11.46-7.21 21.46-16.57 30.04-27.01 1.17-1.42 2.25-2.9 3.46-4.28-1.2 3.24-2.67 6.37-4.16 9.48-1.25 2.9-2.84 5.61-4.27 8.42-5.16 9.63-11.02 18.91-17.75 27.52-4.03 5.21-8.53 10.05-13.33 14.57-6.64 6.05-14.07 11.37-22.43 14.76-8.21 3.37-17.31 4.63-26.09 3.29-3.56-.58-7.01-1.69-10.41-2.88-2.79-.97-5.39-2.38-8.03-3.69-3.43-1.71-6.64-3.81-9.71-6.08 2.71 3.06 5.69 5.86 8.7 8.61 4.27 3.76 8.74 7.31 13.63 10.23 3.98 2.45 8.29 4.4 12.84 5.51 1.46.37 2.96.46 4.45.6-1.25 1.1-2.63 2.04-3.99 2.98-9.61 6.54-20.01 11.86-30.69 16.43-20.86 8.7-43.17 13.97-65.74 15.34-4.66.24-9.32.36-13.98.36-4.98-.11-9.97-.13-14.92-.65-11.2-.76-22.29-2.73-33.17-5.43-10.35-2.71-20.55-6.12-30.3-10.55-8.71-3.86-17.12-8.42-24.99-13.79-1.83-1.31-3.74-2.53-5.37-4.08 6.6-1.19 13.03-3.39 18.99-6.48 5.74-2.86 10.99-6.66 15.63-11.07 2.24-2.19 4.29-4.59 6.19-7.09-3.43 2.13-6.93 4.15-10.62 5.78-4.41 2.16-9.07 3.77-13.81 5.02-5.73 1.52-11.74 1.73-17.61 1.14-8.13-.95-15.86-4.27-22.51-8.98-4.32-2.94-8.22-6.43-11.96-10.06-9.93-10.16-18.2-21.81-25.66-33.86-3.94-6.27-7.53-12.75-11.12-19.22-1.05-2.04-2.15-4.05-3.18-6.1 2.85 2.92 5.57 5.97 8.43 8.88 8.99 8.97 18.56 17.44 29.16 24.48 7.55 4.9 15.67 9.23 24.56 11.03 3.11.73 6.32.47 9.47.81 2.77.28 5.56.2 8.34.3 5.05.06 10.11.04 15.16-.16 3.65-.16 7.27-.66 10.89-1.09 2.07-.25 4.11-.71 6.14-1.2 3.88-.95 8.11-.96 11.83.61 4.76 1.85 8.44 5.64 11.38 9.71 2.16 3.02 4.06 6.22 5.66 9.58 1.16 2.43 2.46 4.79 3.55 7.26 1 2.24 2.15 4.42 3.42 6.52.67 1.02 1.4 2.15 2.62 2.55 1.06-.75 1.71-1.91 2.28-3.03 2.1-4.16 3.42-8.65 4.89-13.05 2.02-6.59 3.78-13.27 5.19-20.02 2.21-9.25 3.25-18.72 4.54-28.13.56-3.98.83-7.99 1.31-11.97.87-10.64 1.9-21.27 2.24-31.94.08-1.86.24-3.71.25-5.57.01-4.35.25-8.69.22-13.03-.01-2.38-.01-4.76 0-7.13.05-5.07-.2-10.14-.22-15.21-.2-6.61-.71-13.2-1.29-19.78-.73-5.88-1.55-11.78-3.12-17.51-2.05-7.75-5.59-15.03-9.8-21.82-3.16-5.07-6.79-9.88-11.09-14.03-3.88-3.86-8.58-7.08-13.94-8.45-1.5-.41-3.06-.45-4.59-.64.07-2.99.7-5.93 1.26-8.85 1.59-7.71 3.8-15.3 6.76-22.6 1.52-4.03 3.41-7.9 5.39-11.72 3.45-6.56 7.62-12.79 12.46-18.46zm31.27 1.7c.35-.06.71-.12 1.07-.19.19 1.79.09 3.58.1 5.37v38.13c-.01 1.74.13 3.49-.15 5.22-.36-.03-.71-.05-1.06-.05-.95-3.75-1.72-7.55-2.62-11.31-.38-1.53-.58-3.09-1.07-4.59-1.7-.24-3.43-.17-5.15-.2-5.06-.01-10.13 0-15.19-.01-1.66-.01-3.32.09-4.98-.03-.03-.39-.26-.91.16-1.18 1.28-.65 2.72-.88 4.06-1.35 3.43-1.14 6.88-2.16 10.31-3.31 1.39-.48 2.9-.72 4.16-1.54.04-.56.02-1.13-.05-1.68-1.23-.55-2.53-.87-3.81-1.28-3.13-1.03-6.29-1.96-9.41-3.02-1.79-.62-3.67-1-5.41-1.79-.03-.37-.07-.73-.11-1.09 5.09-.19 10.2.06 15.3-.12 3.36-.13 6.73.08 10.09-.07.12-.39.26-.77.37-1.16 1.08-4.94 2.33-9.83 3.39-14.75zm5.97-.2c.36.05.72.12 1.08.2.98 3.85 1.73 7.76 2.71 11.61.36 1.42.56 2.88 1.03 4.27 2.53.18 5.07-.01 7.61.05 5.16.12 10.33.12 15.49.07.76-.01 1.52.03 2.28.08-.04.36-.07.72-.1 1.08-1.82.83-3.78 1.25-5.67 1.89-3.73 1.23-7.48 2.39-11.22 3.57-.57.17-1.12.42-1.67.64-.15.55-.18 1.12-.12 1.69.87.48 1.82.81 2.77 1.09 4.88 1.52 9.73 3.14 14.63 4.6.38.13.78.27 1.13.49.4.27.23.79.15 1.18-1.66.13-3.31.03-4.97.04-5.17.01-10.33-.01-15.5.01-1.61.03-3.22-.02-4.82.21-.52 1.67-.72 3.42-1.17 5.11-.94 3.57-1.52 7.24-2.54 10.78-.36.01-.71.02-1.06.06-.29-1.73-.15-3.48-.15-5.22v-38.13c.02-1.78-.08-3.58.11-5.37zM65.05 168.33c1.12-2.15 2.08-4.4 3.37-6.46-1.82 7.56-2.91 15.27-3.62 23-.8 7.71-.85 15.49-.54 23.23 1.05 19.94 5.54 39.83 14.23 57.88 2.99 5.99 6.35 11.83 10.5 17.11 6.12 7.47 12.53 14.76 19.84 21.09 4.8 4.1 9.99 7.78 15.54 10.8 3.27 1.65 6.51 3.39 9.94 4.68 5.01 2.03 10.19 3.61 15.42 4.94 3.83.96 7.78 1.41 11.52 2.71 5 1.57 9.47 4.61 13.03 8.43 4.93 5.23 8.09 11.87 10.2 18.67.99 2.9 1.59 5.91 2.17 8.92.15.75.22 1.52.16 2.29-6.5 2.78-13.26 5.06-20.26 6.18-4.11.78-8.29.99-12.46 1.08-10.25.24-20.47-1.76-30.12-5.12-3.74-1.42-7.49-2.85-11.03-4.72-8.06-3.84-15.64-8.7-22.46-14.46-2.92-2.55-5.83-5.13-8.4-8.03-9.16-9.83-16.3-21.41-21.79-33.65-2.39-5.55-4.61-11.18-6.37-16.96-1.17-3.94-2.36-7.89-3.26-11.91-.75-2.94-1.22-5.95-1.87-8.92-.46-2.14-.69-4.32-1.03-6.48-.85-5.43-1.28-10.93-1.33-16.43.11-6.18.25-12.37 1.07-18.5.4-2.86.67-5.74 1.15-8.6.98-5.7 2.14-11.37 3.71-16.93 3.09-11.65 7.48-22.95 12.69-33.84zm363.73-6.44c1.1 1.66 1.91 3.48 2.78 5.26 2.1 4.45 4.24 8.9 6.02 13.49 7.61 18.76 12.3 38.79 13.04 59.05.02 1.76.07 3.52.11 5.29.13 9.57-1.27 19.09-3.18 28.45-.73 3.59-1.54 7.17-2.58 10.69-4.04 14.72-10 29-18.41 41.78-8.21 12.57-19.01 23.55-31.84 31.41-5.73 3.59-11.79 6.64-18.05 9.19-5.78 2.19-11.71 4.03-17.8 5.11-6.4 1.05-12.91 1.52-19.4 1.23-7.92-.48-15.78-2.07-23.21-4.85-1.94-.8-3.94-1.46-5.84-2.33-.21-1.51.25-2.99.53-4.46 1.16-5.74 3.03-11.36 5.7-16.58 2.37-4.51 5.52-8.65 9.46-11.9 2.43-2.05 5.24-3.61 8.16-4.83 3.58-1.5 7.47-1.97 11.24-2.83 7.23-1.71 14.37-3.93 21.15-7 10.35-4.65 19.71-11.38 27.65-19.46 1.59-1.61 3.23-3.18 4.74-4.87 3.37-3.76 6.71-7.57 9.85-11.53 7.48-10.07 12.82-21.59 16.71-33.48 1.58-5.3 3.21-10.6 4.21-16.05.63-2.87 1.04-5.78 1.52-8.68.87-6.09 1.59-12.22 1.68-18.38.12-6.65.14-13.32-.53-19.94-.73-7.99-1.87-15.96-3.71-23.78z"/></svg>