<svg xmlns="http://www.w3.org/2000/svg" viewBox="0 0 512 512"><path d="M96 63.38C142.49 27.25 201.55 7.31 260.51 8.81c29.58-.38 59.11 5.37 86.91 15.33-24.13-4.63-49-6.34-73.38-2.45C231.17 27 191 48.84 162.21 80.87c5.67-1 10.78-3.67 16-5.86 18.14-7.87 37.49-13.26 57.23-14.83 19.74-2.13 39.64-.43 59.28 1.92-14.42 2.79-29.12 4.57-43 9.59-34.43 11.07-65.27 33.16-86.3 62.63-13.8 19.71-23.63 42.86-24.67 67.13-.35 16.49 5.22 34.81 19.83 44a53.27 53.27 0 0 0 37.52 6.74c15.45-2.46 30.07-8.64 43.6-16.33 11.52-6.82 22.67-14.55 32-24.25 3.79-3.22 2.53-8.45 2.62-12.79-2.12-.34-4.38-1.11-6.3.3a203 203 0 0 1-35.82 15.37c-20 6.17-42.16 8.46-62.1.78 12.79 1.73 26.06.31 37.74-5.44 20.23-9.72 36.81-25.2 54.44-38.77a526.57 526.57 0 0 1 88.9-55.31c25.71-12 52.94-22.78 81.57-24.12-15.63 13.72-32.15 26.52-46.78 41.38-14.51 14-27.46 29.5-40.11 45.18-3.52 4.6-8.95 6.94-13.58 10.16a150.7 150.7 0 0 0-51.89 60.1c-9.33 19.68-14.5 41.85-11.77 63.65 1.94 13.69 8.71 27.59 20.9 34.91 12.9 8 29.05 8.07 43.48 5.1 32.8-7.45 61.43-28.89 81-55.84 20.44-27.52 30.52-62.2 29.16-96.35-.52-7.5-1.57-15-1.66-22.49 8 19.48 14.82 39.71 16.65 60.83 2 14.28.75 28.76-1.62 42.9-1.91 11-5.67 21.51-7.78 32.43a165 165 0 0 0 39.34-81.07 183.64 183.64 0 0 0-14.21-104.64c20.78 32 32.34 69.58 35.71 107.48.49 12.73.49 25.51 0 38.23A243.21 243.21 0 0 1 482 371.34c-26.12 47.34-68 85.63-117.19 108-78.29 36.23-174.68 31.32-248-14.68A248.34 248.34 0 0 1 25.36 366 238.34 238.34 0 0 1 0 273.08v-31.34C3.93 172 40.87 105.82 96 63.38m222 80.33a79.13 79.13 0 0 0 16-4.48c5-1.77 9.24-5.94 10.32-11.22-8.96 4.99-17.98 9.92-26.32 15.7z"/></svg>