<svg xmlns="http://www.w3.org/2000/svg" viewBox="0 0 512 512"><path d="M407.4 61.5C331.6 22.1 257.8 31 182.9 66c-11.3 5.2-15.5 10.6-19.9 19-10.3 19.2-16.2 37.4-19.9 52.7-21.2 25.6-36.4 56.1-43.3 89.9-10.6 18-20.9 41.4-23.1 71.4 0 0-.7 7.6-.5 7.9-35.3-4.6-76.2-27-76.2-27 9.1 14.5 61.3 32.3 76.3 37.9 0 0 1.7 98 64.5 131.2-11.3-17.2-13.3-20.2-13.3-20.2S94.8 369 100.4 324.7c.7 0 1.5.2 2.2.2 23.9 87.4 103.2 151.4 196.9 151.4 6.2 0 12.1-.2 18-.7 14 1.5 27.6.5 40.1-3.9 6.9-2.2 13.8-6.4 20.2-10.8 70.2-39.1 100.9-82 123.1-147.7 5.4-16 8.1-35.5 9.8-52.2 8.7-82.3-30.6-161.6-103.3-199.5zM138.8 163.2s-1.2 12.3-.7 19.7c-3.4 2.5-10.1 8.1-18.2 16.7 5.2-12.8 11.3-25.1 18.9-36.4zm-31.2 121.9c4.4-17.2 13.3-39.1 29.8-55.1 0 0 1.7 48 15.8 90.1l-41.4-6.9c-2.2-9.2-3.5-18.5-4.2-28.1zm7.9 42.8c14.8 3.2 34 7.6 43.1 9.1 27.3 76.8 108.3 124.3 108.3 124.3 1 .5 1.7.7 2.7 1-73.1-11.6-132.7-64.7-154.1-134.4zM386 444.1c-14.5 4.7-36.2 8.4-64.7 3.7 0 0-91.1-23.1-127.5-107.8 38.2.7 52.4-.2 78-3.9 39.4-5.7 79-16.2 115-33 11.8-5.4 11.1-19.4 9.6-29.8-2-12.8-11.1-12.1-21.4-4.7 0 0-82 58.6-189.8 53.7-18.7-32-26.8-110.8-26.8-110.8 41.4-35.2 83.2-59.6 168.4-52.4.2-6.4 3-27.1-20.4-28.1 0 0-93.5-11.1-146 33.5 2.5-16.5 5.9-29.3 11.1-39.4 34.2-30.8 79-49.5 128.3-49.5 106.4 0 193 87.1 193 194.5-.2 76-43.8 142-106.8 174z"/></svg>