<svg xmlns="http://www.w3.org/2000/svg" viewBox="0 0 576 512"><path d="M486.41 107.57c-76.93-50.83-179.18-62.4-264.12-47.07C127.26-31.16 20.77 11 0 23.12c0 0 73.08 62.1 61.21 116.49-86.52 88.2-45.39 186.4 0 232.77C73.08 426.77 0 488.87 0 488.87c20.57 12.16 126.77 54.19 222.29-37 84.75 15.23 187 3.76 264.12-47.16 119.26-76.14 119.65-220.61 0-297.15zM294.18 404.22a339.53 339.53 0 0 1-88.11-11.37l-19.77 19.09a179.74 179.74 0 0 1-36.59 27.39A143.14 143.14 0 0 1 98 454.06c1-1.78 1.88-3.56 2.77-5.24q29.67-55 16-98.69c-32.53-25.61-52-58.34-52-94.13 0-82 102.74-148.43 229.41-148.43S523.59 174 523.59 256 420.85 404.22 294.18 404.22zM184.12 291.3a34.32 34.32 0 0 1-34.8-33.72c-.7-45.39 67.83-46.38 68.52-1.09v.51a34 34 0 0 1-33.72 34.32zm73.77-33.72c-.79-45.39 67.74-46.48 68.53-1.19v.61c.39 45.08-67.74 45.57-68.53.58zm143.38 33.72a34.33 34.33 0 0 1-34.81-33.72c-.69-45.39 67.84-46.38 68.53-1.09v.51a33.89 33.89 0 0 1-33.72 34.32z"/></svg>