<svg xmlns="http://www.w3.org/2000/svg" viewBox="0 0 512 512"><path d="M186.12 343.34c-9.65 9.65-9.65 25.29 0 34.94 9.65 9.65 25.29 9.65 34.94 0L378.24 221.1c19.29-19.29 50.57-19.29 69.86 0s19.29 50.57 0 69.86L293.95 445.1c19.27 19.29 50.53 19.31 69.82.04l.04-.04 119.25-119.24c38.59-38.59 38.59-101.14 0-139.72-38.59-38.59-101.15-38.59-139.72 0l-157.22 157.2zm244.53-104.8c-9.65-9.65-25.29-9.65-34.93 0l-157.2 157.18c-19.27 19.29-50.53 19.31-69.82.05l-.05-.05c-9.64-9.64-25.27-9.65-34.92-.01l-.01.01c-9.65 9.64-9.66 25.28-.02 34.93l.02.02c38.58 38.57 101.14 38.57 139.72 0l157.2-157.2c9.65-9.65 9.65-25.29.01-34.93zm-261.99 87.33l157.18-157.18c9.64-9.65 9.64-25.29 0-34.94-9.64-9.64-25.27-9.64-34.91 0L133.72 290.93c-19.28 19.29-50.56 19.3-69.85.01l-.01-.01c-19.29-19.28-19.31-50.54-.03-69.84l.03-.03L218.03 66.89c-19.28-19.29-50.55-19.3-69.85-.02l-.02.02L28.93 186.14c-38.58 38.59-38.58 101.14 0 139.72 38.6 38.59 101.13 38.59 139.73.01zm-87.33-52.4c9.64 9.64 25.27 9.64 34.91 0l157.21-157.19c19.28-19.29 50.55-19.3 69.84-.02l.02.02c9.65 9.65 25.29 9.65 34.93 0 9.65-9.65 9.65-25.29 0-34.93-38.59-38.59-101.13-38.59-139.72 0L81.33 238.54c-9.65 9.64-9.65 25.28-.01 34.93h.01z"/></svg>