<svg xmlns="http://www.w3.org/2000/svg" viewBox="0 0 448 512"><path d="M185.2 356.5c7.7-18.5-1-39.7-19.6-47.4l-29.5-12.2c11.4-4.3 24.3-4.5 36.4.5 12.2 5.1 21.6 14.6 26.7 26.7 5 12.2 5 25.6-.1 37.7-10.5 25.1-39.4 37-64.6 26.5-11.6-4.8-20.4-13.6-25.4-24.2l28.5 11.8c18.6 7.8 39.9-.9 47.6-19.4zM400 32H48C21.5 32 0 53.5 0 80v160.7l116.6 48.1c12-8.2 26.2-12.1 40.7-11.3l55.4-80.2v-1.1c0-48.2 39.3-87.5 87.6-87.5s87.6 39.3 87.6 87.5c0 49.2-40.9 88.7-89.6 87.5l-79 56.3c1.6 38.5-29.1 68.8-65.7 68.8-31.8 0-58.5-22.7-64.5-52.7L0 319.2V432c0 26.5 21.5 48 48 48h352c26.5 0 48-21.5 48-48V80c0-26.5-21.5-48-48-48zm-99.7 222.5c-32.2 0-58.4-26.1-58.4-58.3s26.2-58.3 58.4-58.3 58.4 26.2 58.4 58.3-26.2 58.3-58.4 58.3zm.1-14.6c24.2 0 43.9-19.6 43.9-43.8 0-24.2-19.6-43.8-43.9-43.8-24.2 0-43.9 19.6-43.9 43.8 0 24.2 19.7 43.8 43.9 43.8z"/></svg>