<svg xmlns="http://www.w3.org/2000/svg" viewBox="0 0 512 512"><path d="M256 8C119 8 8 119 8 256s111 248 248 248 248-111 248-248S393 8 256 8zm133.74 143.54c-11.47.41-19.4-6.45-19.77-16.87-.27-9.18 6.68-13.44 6.53-18.85-.23-6.55-10.16-6.82-12.87-6.67-39.78 1.29-48.59 57-58.89 113.85 21.43 3.15 36.65-.72 45.14-6.22 12-7.75-3.34-15.72-1.42-24.56 4-18.16 32.55-19 32 5.3-.36 17.86-25.92 41.81-77.6 35.7-10.76 59.52-18.35 115-58.2 161.72-29 34.46-58.4 39.82-71.58 40.26-24.65.85-41-12.31-41.58-29.84-.56-17 14.45-26.26 24.31-26.59 21.89-.75 30.12 25.67 14.88 34-12.09 9.71.11 12.61 2.05 12.55 10.42-.36 17.34-5.51 22.18-9 24-20 33.24-54.86 45.35-118.35 8.19-49.66 17-78 18.23-82-16.93-12.75-27.08-28.55-49.85-34.72-15.61-4.23-25.12-.63-31.81 7.83-7.92 10-5.29 23 2.37 30.7l12.63 14c15.51 17.93 24 31.87 20.8 50.62-5.06 29.93-40.72 52.9-82.88 39.94-36-11.11-42.7-36.56-38.38-50.62 7.51-24.15 42.36-11.72 34.62 13.6-2.79 8.6-4.92 8.68-6.28 13.07-4.56 14.77 41.85 28.4 51-1.39 4.47-14.52-5.3-21.71-22.25-39.85-28.47-31.75-16-65.49 2.95-79.67C204.23 140.13 251.94 197 262 205.29c37.17-109 100.53-105.46 102.43-105.53 25.16-.81 44.19 10.59 44.83 28.65.25 7.69-4.17 22.59-19.52 23.13z"/></svg>