<svg xmlns="http://www.w3.org/2000/svg" viewBox="0 0 384 512"><path d="M192 480c39.5 0 76.2-11.8 106.8-32.2H85.3C115.8 468.2 152.5 480 192 480zm-89.1-193.1v-12.4H0v12.4c0 2.5 0 5 .1 7.4h103.1c-.2-2.4-.3-4.9-.3-7.4zm20.5 57H8.5c2.6 8.5 5.8 16.8 9.6 24.8h138.3c-12.9-5.7-24.1-14.2-33-24.8zm-17.7-34.7H1.3c.9 7.6 2.2 15 3.9 22.3h109.7c-4-6.9-7.2-14.4-9.2-22.3zm-2.8-69.3H0v17.3h102.9zm0-173.2H0v4.9h102.9zm0-34.7H0v2.5h102.9zm0 69.3H0v7.4h102.9zm0 104H0v14.8h102.9zm0-69.3H0v9.9h102.9zm0 34.6H0V183h102.9zm166.2 160.9h109.7c1.8-7.3 3.1-14.7 3.9-22.3H278.3c-2.1 7.9-5.2 15.4-9.2 22.3zm12-185.7H384V136H281.1zm0 37.2H384v-12.4H281.1zm0-74.3H384v-7.4H281.1zm0-76.7v2.5H384V32zm-203 410.9h227.7c11.8-8.7 22.7-18.6 32.2-29.7H44.9c9.6 11 21.4 21 33.2 29.7zm203-371.3H384v-4.9H281.1zm0 148.5H384v-14.8H281.1zM38.8 405.7h305.3c6.7-8.5 12.6-17.6 17.8-27.2H23c5.2 9.6 9.2 18.7 15.8 27.2zm188.8-37.1H367c3.7-8 5.8-16.2 8.5-24.8h-115c-8.8 10.7-20.1 19.2-32.9 24.8zm53.5-81.7c0 2.5-.1 5-.4 7.4h103.1c.1-2.5.2-4.9.2-7.4v-12.4H281.1zm0-29.7H384v-17.3H281.1z"/></svg>