<svg xmlns="http://www.w3.org/2000/svg" viewBox="0 0 512 512"><path d="M156.8 285.1l5.7 14.4h-8.2c-1.3-3.2-3.1-7.7-3.8-9.5-2.5-6.3-1.1-8.4 0-10 1.9-2.7 3.2-4.4 3.6-5.2 0 2.2.8 5.7 2.7 10.3zm297.3 18.8c-2.1 13.8-5.7 27.1-10.5 39.7l43 23.4-44.8-18.8c-5.3 13.2-12 25.6-19.9 37.2l34.2 30.2-36.8-26.4c-8.4 11.8-18 22.6-28.7 32.3l24.9 34.7-28.1-31.8c-11 9.6-23.1 18-36.1 25.1l15.7 37.2-19.3-35.3c-13.1 6.8-27 12.1-41.6 15.9l6.7 38.4-10.5-37.4c-14.3 3.4-29.2 5.3-44.5 5.4L256 512l-1.9-38.4c-15.3-.1-30.2-2-44.5-5.3L199 505.6l6.7-38.2c-14.6-3.7-28.6-9.1-41.7-15.8l-19.2 35.1 15.6-37c-13-7-25.2-15.4-36.2-25.1l-27.9 31.6 24.7-34.4c-10.7-9.7-20.4-20.5-28.8-32.3l-36.5 26.2 33.9-29.9c-7.9-11.6-14.6-24.1-20-37.3l-44.4 18.7L67.8 344c-4.8-12.7-8.4-26.1-10.5-39.9l-51 9 50.3-14.2c-1.1-8.5-1.7-17.1-1.7-25.9 0-4.7.2-9.4.5-14.1L0 256l56-2.8c1.3-13.1 3.8-25.8 7.5-38.1L6.4 199l58.9 10.4c4-12 9.1-23.5 15.2-34.4l-55.1-30 58.3 24.6C90 159 97.2 149.2 105.3 140L55.8 96.4l53.9 38.7c8.1-8.6 17-16.5 26.6-23.6l-40-55.6 45.6 51.6c9.5-6.6 19.7-12.3 30.3-17.2l-27.3-64.9 33.8 62.1c10.5-4.4 21.4-7.9 32.7-10.4L199 6.4l19.5 69.2c11-2.1 22.3-3.2 33.8-3.4L256 0l3.6 72.2c11.5.2 22.8 1.4 33.8 3.5L313 6.4l-12.4 70.7c11.3 2.6 22.2 6.1 32.6 10.5l33.9-62.2-27.4 65.1c10.6 4.9 20.7 10.7 30.2 17.2l45.8-51.8-40.1 55.9c9.5 7.1 18.4 15 26.5 23.6l54.2-38.9-49.7 43.9c8 9.1 15.2 18.9 21.5 29.4l58.7-24.7-55.5 30.2c6.1 10.9 11.1 22.3 15.1 34.3l59.3-10.4-57.5 16.2c3.7 12.2 6.2 24.9 7.5 37.9L512 256l-56 2.8c.3 4.6.5 9.3.5 14.1 0 8.7-.6 17.3-1.6 25.8l50.7 14.3-51.5-9.1zm-21.8-31c0-97.5-79-176.5-176.5-176.5s-176.5 79-176.5 176.5 79 176.5 176.5 176.5 176.5-79 176.5-176.5zm-24 0c0 84.3-68.3 152.6-152.6 152.6s-152.6-68.3-152.6-152.6 68.3-152.6 152.6-152.6 152.6 68.3 152.6 152.6zM195 241c0 2.1 1.3 3.8 3.6 5.1 3.3 1.9 6.2 4.6 8.2 8.2 2.8-5.7 4.3-9.5 4.3-11.2 0-2.2-1.1-4.4-3.2-7-2.1-2.5-3.2-5.2-3.3-7.7-6.5 6.8-9.6 10.9-9.6 12.6zm-40.7-19c0 2.1 1.3 3.8 3.6 5.1 3.5 1.9 6.2 4.6 8.2 8.2 2.8-5.7 4.3-9.5 4.3-11.2 0-2.2-1.1-4.4-3.2-7-2.1-2.5-3.2-5.2-3.3-7.7-6.5 6.8-9.6 10.9-9.6 12.6zm-19 0c0 2.1 1.3 3.8 3.6 5.1 3.3 1.9 6.2 4.6 8.2 8.2 2.8-5.7 4.3-9.5 4.3-11.2 0-2.2-1.1-4.4-3.2-7-2.1-2.5-3.2-5.2-3.3-7.7-6.4 6.8-9.6 10.9-9.6 12.6zm204.9 87.9c-8.4-3-8.7-6.8-8.7-15.6V182c-8.2 12.5-14.2 18.6-18 18.6 6.3 14.4 9.5 23.9 9.5 28.3v64.3c0 2.2-2.2 6.5-4.7 6.5h-18c-2.8-7.5-10.2-26.9-15.3-40.3-2 2.5-7.2 9.2-10.7 13.7 2.4 1.6 4.1 3.6 5.2 6.3 2.6 6.7 6.4 16.5 7.9 20.2h-9.2c-3.9-10.4-9.6-25.4-11.8-31.1-2 2.5-7.2 9.2-10.7 13.7 2.4 1.6 4.1 3.6 5.2 6.3.8 2 2.8 7.3 4.3 10.9H256c-1.5-4.1-5.6-14.6-8.4-22-2 2.5-7.2 9.2-10.7 13.7 2.5 1.6 4.3 3.6 5.2 6.3.2.6.5 1.4.6 1.7H225c-4.6-13.9-11.4-27.7-11.4-34.1 0-2.2.3-5.1 1.1-8.2-8.8 10.8-14 15.9-14 25 0 7.5 10.4 28.3 10.4 33.3 0 1.7-.5 3.3-1.4 4.9-9.6-12.7-15.5-20.7-18.8-20.7h-12l-11.2-28c-3.8-9.6-5.7-16-5.7-18.8 0-3.8.5-7.7 1.7-12.2-1 1.3-3.7 4.7-5.5 7.1-.8-2.1-3.1-7.7-4.6-11.5-2.1 2.5-7.5 9.1-11.2 13.6.9 2.3 3.3 8.1 4.9 12.2-2.5 3.3-9.1 11.8-13.6 17.7-4 5.3-5.8 13.3-2.7 21.8 2.5 6.7 2 7.9-1.7 14.1H191c5.5 0 14.3 14 15.5 22 13.2-16 15.4-19.6 16.8-21.6h107c3.9 0 7.2-1.9 9.9-5.8zm20.1-26.6V181.7c-9 12.5-15.9 18.6-20.7 18.6 7.1 14.4 10.7 23.9 10.7 28.3v66.3c0 17.5 8.6 20.4 24 20.4 8.1 0 12.5-.8 13.7-2.7-4.3-1.6-7.6-2.5-9.9-3.3-8.1-3.2-17.8-7.4-17.8-26z"/></svg>