<svg xmlns="http://www.w3.org/2000/svg" viewBox="0 0 448 512"><path d="M400 32H48C21.5 32 0 53.5 0 80v352c0 26.5 21.5 48 48 48h352c26.5 0 48-21.5 48-48V80c0-26.5-21.5-48-48-48zM280.7 381.2c-42.4 46.2-120 46.6-162.4 0-68-73.6-19.8-196.1 81.2-196.1 13.3 0 26.6 2.1 39.1 6.7-4.3 8.4-7.3 17.6-8.4 27.1-9.7-4.1-20.2-6-30.7-6-48.8 0-84.6 41.7-84.6 88.9 0 43 28.5 78.7 69.5 85.9 61.5-24 72.9-117.6 72.9-175 0-7.3 0-14.8-.6-22.1-11.2-32.9-26.6-64.6-44.2-94.5 27.1 18.3 41.9 62.5 44.2 94.1v.4c7.7 22.5 11.8 46.2 11.8 70 0 54.1-21.9 99-68.3 128.2l-2.4.2c50 1 86.2-38.6 86.2-87.2 0-12.2-2.1-24.3-6.9-35.7 9.5-1.9 18.5-5.6 26.4-10.5 15.3 36.6 12.6 87.3-22.8 125.6zM309 233.7c-13.3 0-25.1-7.1-34.4-16.1 21.9-12 49.6-30.7 62.3-53 1.5-3 4.1-8.6 4.5-12-12.5 27.9-44.2 49.8-73.9 56.7-4.7-7.3-7.5-15.5-7.5-24.3 0-10.3 5.2-24.1 12.9-31.6 21.6-20.5 53-8.5 72.4-50 32.5 46.2 13.1 130.3-36.3 130.3z"/></svg>