<svg xmlns="http://www.w3.org/2000/svg" viewBox="0 0 512 512"><path d="M425.09 65.83c-39.88 0-73.28 25.73-83.66 64.33-18.16-58.06-65.5-64.33-84.95-64.33-19.78 0-66.8 6.28-85.28 64.33-10.38-38.6-43.45-64.33-83.66-64.33C38.59 65.83 0 99.72 0 143.03c0 28.96 4.18 33.27 77.17 233.48 22.37 60.57 67.77 69.35 92.74 69.35 39.23 0 70.04-19.46 85.93-53.98 15.89 34.83 46.69 54.29 85.93 54.29 24.97 0 70.36-9.1 92.74-69.67 76.55-208.65 77.5-205.58 77.5-227.2.63-48.32-36.01-83.47-86.92-83.47zm26.34 114.81l-65.57 176.44c-7.92 21.49-21.22 37.22-46.24 37.22-23.44 0-37.38-12.41-44.03-33.9l-39.28-117.42h-.95L216.08 360.4c-6.96 21.5-20.9 33.6-44.02 33.6-25.02 0-38.33-15.74-46.24-37.22L60.88 181.55c-5.38-14.83-7.92-23.91-7.92-34.5 0-16.34 15.84-29.36 38.33-29.36 18.69 0 31.99 11.8 36.11 29.05l44.03 139.82h.95l44.66-136.79c6.02-19.67 16.47-32.08 38.96-32.08s32.94 12.11 38.96 32.08l44.66 136.79h.95l44.03-139.82c4.12-17.25 17.42-29.05 36.11-29.05 22.17 0 38.33 13.32 38.33 35.71-.32 7.87-4.12 16.04-7.61 27.24z"/></svg>