<svg xmlns="http://www.w3.org/2000/svg" viewBox="0 0 640 512"><path d="M393.38 131.69c0 13.03 2.08 32.69-28.68 43.83-9.52 3.45-15.95 9.66-15.95 9.66 0-31 4.72-42.22 17.4-48.86 9.75-5.11 27.23-4.63 27.23-4.63zm-115.8 35.54l-34.24 132.66-28.48-108.57c-7.69-31.99-20.81-48.53-48.43-48.53-27.37 0-40.66 16.18-48.43 48.53L89.52 299.89 55.28 167.23C49.73 140.51 23.86 128.96 0 131.96l65.57 247.93s21.63 1.56 32.46-3.96c14.22-7.25 20.98-12.84 29.59-46.57 7.67-30.07 29.11-118.41 31.12-124.7 4.76-14.94 11.09-13.81 15.4 0 1.97 6.3 23.45 94.63 31.12 124.7 8.6 33.73 15.37 39.32 29.59 46.57 10.82 5.52 32.46 3.96 32.46 3.96l65.57-247.93c-24.42-3.07-49.82 8.93-55.3 35.27zm115.78 5.21s-4.1 6.34-13.46 11.57c-6.01 3.36-11.78 5.64-17.97 8.61-15.14 7.26-13.18 13.95-13.18 35.2v152.07s16.55 2.09 27.37-3.43c13.93-7.1 17.13-13.95 17.26-44.78V181.41l-.02.01v-8.98zm163.44 84.08L640 132.78s-35.11-5.98-52.5 9.85c-13.3 12.1-24.41 29.55-54.18 72.47-.47.73-6.25 10.54-13.07 0-29.29-42.23-40.8-60.29-54.18-72.47-17.39-15.83-52.5-9.85-52.5-9.85l83.2 123.74-82.97 123.36s36.57 4.62 53.95-11.21c11.49-10.46 17.58-20.37 52.51-70.72 6.81-10.52 12.57-.77 13.07 0 29.4 42.38 39.23 58.06 53.14 70.72 17.39 15.83 53.32 11.21 53.32 11.21L556.8 256.52z"/></svg>