<svg xmlns="http://www.w3.org/2000/svg" viewBox="0 0 640 512"><path d="M219.19 345.69c-1.9 1.38-11.07 8.44-.26 23.57 4.64 6.42 14.11 12.79 21.73 6.55 6.5-4.88 7.35-12.92.26-23.04-5.47-7.76-14.28-12.88-21.73-7.08zm336.75 75.94c-.34 1.7-.55 1.67.79 0 2.09-4.19 4.19-10.21 4.98-19.9 3.14-38.49-40.33-71.49-101.34-78.03-54.73-6.02-124.38 9.17-188.8 60.49l-.26 1.57c2.62 4.98 4.98 10.74 3.4 21.21l.79.26c63.89-58.4 131.19-77.25 184.35-73.85 58.4 3.67 100.03 34.04 100.03 68.08-.01 9.96-2.63 15.72-3.94 20.17zM392.28 240.42c.79 7.07 4.19 10.21 9.17 10.47 5.5.26 9.43-2.62 10.47-6.55.79-3.4 2.09-29.85 2.09-29.85s-11.26 6.55-14.93 10.47c-3.66 3.68-7.33 8.39-6.8 15.46zm-50.02-151.1C137.75 89.32 13.1 226.8.79 241.2c-1.05.52-1.31.79.79 1.31 60.49 16.5 155.81 81.18 196.13 202.16l1.05.26c55.25-69.92 140.88-128.05 236.99-128.05 80.92 0 130.15 42.16 130.15 80.39 0 18.33-6.55 33.52-22.26 46.35 0 .96-.2.79.79.79 14.66-10.74 27.5-28.8 27.5-48.18 0-22.78-12.05-38.23-12.05-38.23 7.07 7.07 10.74 16.24 10.74 16.24 5.76-40.85 26.97-62.32 26.97-62.32-2.36-9.69-6.81-17.81-6.81-17.81 7.59 8.12 14.4 27.5 14.4 41.37 0 10.47-3.4 22.78-12.57 31.95l.26.52c8.12-4.98 16.5-16.76 16.5-37.97 0-15.71-4.71-25.92-4.71-25.92 5.76-5.24 11.26-9.17 15.97-11.78.79 3.4 2.09 9.69 2.36 14.93 0 1.05.79 1.83 1.05 0 .79-5.76-.26-16.24-.26-16.5 6.02-3.14 9.69-4.45 9.69-4.45C617.74 176 489.43 89.32 342.26 89.32zm-99.24 289.62c-11.06 8.99-24.2 4.08-30.64-4.19-7.45-9.58-6.76-24.09 4.19-32.47 14.85-11.35 27.08-.49 31.16 5.5.28.39 12.13 16.57-4.71 31.16zm2.09-136.43l9.43-17.81 11.78 70.96-12.57 6.02-24.62-28.8 14.14-26.71 3.67 4.45-1.83-8.11zm18.59 117.58l-.26-.26c2.05-4.1-2.5-6.61-17.54-31.69-1.31-2.36-3.14-2.88-4.45-2.62l-.26-.52c7.86-5.76 15.45-10.21 25.4-15.71l.52.26c1.31 1.83 2.09 2.88 3.4 4.71l-.26.52c-1.05-.26-2.36-.79-5.24.26-2.09.79-7.86 3.67-12.31 7.59v1.31c1.57 2.36 3.93 6.55 5.76 9.69h.26c10.05-6.28 7.56-4.55 11.52-7.86h.26c.52 1.83.52 1.83 1.83 5.5l-.26.26c-3.06.61-4.65.34-11.52 5.5v.26c9.46 17.02 11.01 16.75 12.57 15.97l.26.26c-2.34 1.59-6.27 4.21-9.68 6.57zm55.26-32.47c-3.14 1.57-6.02 2.88-9.95 4.98l-.26-.26c1.29-2.59 1.16-2.71-11.78-32.47l-.26-.26c-.15 0-8.9 3.65-9.95 7.33h-.52l-1.05-5.76.26-.52c7.29-4.56 25.53-11.64 27.76-12.57l.52.26 3.14 4.98-.26.52c-3.53-1.76-7.35.76-12.31 2.62v.26c12.31 32.01 12.67 30.64 14.66 30.64v.25zm44.77-16.5c-4.19 1.05-5.24 1.31-9.69 2.88l-.26-.26.52-4.45c-1.05-3.4-3.14-11.52-3.67-13.62l-.26-.26c-3.4.79-8.9 2.62-12.83 3.93l-.26.26c.79 2.62 3.14 9.95 4.19 13.88.79 2.36 1.83 2.88 2.88 3.14v.52c-3.67 1.05-7.07 2.62-10.21 3.93l-.26-.26c1.05-1.31 1.05-2.88.26-4.98-1.05-3.14-8.12-23.83-9.17-27.23-.52-1.83-1.57-3.14-2.62-3.14v-.52c3.14-1.05 6.02-2.09 10.74-3.4l.26.26-.26 4.71c1.31 3.93 2.36 7.59 3.14 9.69h.26c3.93-1.31 9.43-2.88 12.83-3.93l.26-.26-2.62-9.43c-.52-1.83-1.05-3.4-2.62-3.93v-.26c4.45-1.05 7.33-1.83 10.74-2.36l.26.26c-1.05 1.31-1.05 2.88-.52 4.45 1.57 6.28 4.71 20.43 6.28 26.45.54 2.62 1.85 3.41 2.63 3.93zm32.21-6.81l-.26.26c-4.71.52-14.14 2.36-22.52 4.19l-.26-.26.79-4.19c-1.57-7.86-3.4-18.59-4.98-26.19-.26-1.83-.79-2.88-2.62-3.67l.79-.52c9.17-1.57 20.16-2.36 24.88-2.62l.26.26c.52 2.36.79 3.14 1.57 5.5l-.26.26c-1.14-1.14-3.34-3.2-16.24-.79l-.26.26c.26 1.57 1.05 6.55 1.57 9.95l.26.26c9.52-1.68 4.76-.06 10.74-2.36h.26c0 1.57-.26 1.83-.26 5.24h-.26c-4.81-1.03-2.15-.9-10.21 0l-.26.26c.26 2.09 1.57 9.43 2.09 12.57l.26.26c1.15.38 14.21-.65 16.24-4.71h.26c-.53 2.38-1.05 4.21-1.58 6.04zm10.74-44.51c-4.45 2.36-8.12 2.88-11 2.88-.25.02-11.41 1.09-17.54-9.95-6.74-10.79-.98-25.2 5.5-31.69 8.8-8.12 23.35-10.1 28.54-17.02 8.03-10.33-13.04-22.31-29.59-5.76l-2.62-2.88 5.24-16.24c25.59-1.57 45.2-3.04 50.02 16.24.79 3.14 0 9.43-.26 12.05 0 2.62-1.83 18.85-2.09 23.04-.52 4.19-.79 18.33-.79 20.69.26 2.36.52 4.19 1.57 5.5 1.57 1.83 5.76 1.83 5.76 1.83l-.79 4.71c-11.82-1.07-10.28-.59-20.43-1.05-3.22-5.15-2.23-3.28-4.19-7.86 0 .01-4.19 3.94-7.33 5.51zm37.18 21.21c-6.35-10.58-19.82-7.16-21.73 5.5-2.63 17.08 14.3 19.79 20.69 10.21l.26.26c-.52 1.83-1.83 6.02-1.83 6.28l-.52.52c-10.3 6.87-28.5-2.5-25.66-18.59 1.94-10.87 14.44-18.93 28.8-9.95l.26.52c0 1.06-.27 3.41-.27 5.25zm5.77-87.73v-6.55c.69 0 19.65 3.28 27.76 7.33l-1.57 17.54s10.21-9.43 15.45-10.74c5.24-1.57 14.93 7.33 14.93 7.33l-11.26 11.26c-12.07-6.35-19.59-.08-20.69.79-5.29 38.72-8.6 42.17 4.45 46.09l-.52 4.71c-17.55-4.29-18.53-4.5-36.92-7.33l.79-4.71c7.25 0 7.48-5.32 7.59-6.81 0 0 4.98-53.16 4.98-55.25-.02-2.87-4.99-3.66-4.99-3.66zm10.99 114.44c-8.12-2.09-14.14-11-10.74-20.69 3.14-9.43 12.31-12.31 18.85-10.21 9.17 2.62 12.83 11.78 10.74 19.38-2.61 8.9-9.42 13.87-18.85 11.52zm42.16 9.69c-2.36-.52-7.07-2.36-8.64-2.88v-.26l1.57-1.83c.59-8.24.59-7.27.26-7.59-4.82-1.81-6.66-2.36-7.07-2.36-1.31 1.83-2.88 4.45-3.67 5.5l-.79 3.4v.26c-1.31-.26-3.93-1.31-6.02-1.57v-.26l2.62-1.83c3.4-4.71 9.95-14.14 13.88-20.16v-2.09l.52-.26c2.09.79 5.5 2.09 7.59 2.88.48.48.18-1.87-1.05 25.14-.24 1.81.02 2.6.8 3.91zm-4.71-89.82c11.25-18.27 30.76-16.19 34.04-3.4L539.7 198c2.34-6.25-2.82-9.9-4.45-11.26l1.83-3.67c12.22 10.37 16.38 13.97 22.52 20.43-25.91 73.07-30.76 80.81-24.62 84.32l-1.83 4.45c-6.37-3.35-8.9-4.42-17.81-8.64l2.09-6.81c-.26-.26-3.93 3.93-9.69 3.67-19.06-1.3-22.89-31.75-9.67-52.9zm29.33 79.34c0-5.71-6.34-7.89-7.86-5.24-1.31 2.09 1.05 4.98 2.88 8.38 1.57 2.62 2.62 6.28 1.05 9.43-2.64 6.34-12.4 5.31-15.45-.79 0-.7-.27.09 1.83-4.71l.79-.26c-.57 5.66 6.06 9.61 8.38 4.98 1.05-2.09-.52-5.5-2.09-8.38-1.57-2.62-3.67-6.28-1.83-9.69 2.72-5.06 11.25-4.47 14.66 2.36v.52l-2.36 3.4zm21.21 13.36c-1.96-3.27-.91-2.14-4.45-4.71h-.26c-2.36 4.19-5.76 10.47-8.64 16.24-1.31 2.36-1.05 3.4-.79 3.93l-.26.26-5.76-4.45.26-.26 2.09-1.31c3.14-5.76 6.55-12.05 9.17-17.02v-.26c-2.64-1.98-1.22-1.51-6.02-1.83v-.26l3.14-3.4h.26c3.67 2.36 9.95 6.81 12.31 8.9l.26.26-1.31 3.91zm27.23-44.26l-2.88-2.88c.79-2.36 1.83-4.98 2.09-7.59.75-9.74-11.52-11.84-11.52-4.98 0 4.98 7.86 19.38 7.86 27.76 0 10.21-5.76 15.71-13.88 16.5-8.38.79-20.16-10.47-20.16-10.47l4.98-14.4 2.88 2.09c-2.97 17.8 17.68 20.37 13.35 5.24-1.06-4.02-18.75-34.2 2.09-38.23 13.62-2.36 23.04 16.5 23.04 16.5l-7.85 10.46zm35.62-10.21c-11-30.38-60.49-127.53-191.95-129.62-53.42-1.05-94.27 15.45-132.76 37.97l85.63-9.17-91.39 20.69 25.14 19.64-3.93-16.5c7.5-1.71 39.15-8.45 66.77-8.9l-22.26 80.39c13.61-.7 18.97-8.98 19.64-22.78l4.98-1.05.26 26.71c-22.46 3.21-37.3 6.69-49.49 9.95l13.09-43.21-61.54-36.66 2.36 8.12 10.21 4.98c6.28 18.59 19.38 56.56 20.43 58.66 1.95 4.28 3.16 5.78 12.05 4.45l1.05 4.98c-16.08 4.86-23.66 7.61-39.02 14.4l-2.36-4.71c4.4-2.94 8.73-3.94 5.5-12.83-23.7-62.5-21.48-58.14-22.78-59.44l2.36-4.45 33.52 67.3c-3.84-11.87 1.68 1.69-32.99-78.82l-41.9 88.51 4.71-13.88-35.88-42.16 27.76 93.48-11.78 8.38C95 228.58 101.05 231.87 93.23 231.52c-5.5-.26-13.62 5.5-13.62 5.5L74.63 231c30.56-23.53 31.62-24.33 58.4-42.68l4.19 7.07s-5.76 4.19-7.86 7.07c-5.9 9.28 1.67 13.28 61.8 75.68l-18.85-58.92 39.8-10.21 25.66 30.64 4.45-12.31-4.98-24.62 13.09-3.4.52 3.14 3.67-10.47-94.27 29.33 11.26-4.98-13.62-42.42 17.28-9.17 30.11 36.14 28.54-13.09c-1.41-7.47-2.47-14.5-4.71-19.64l17.28 13.88 4.71-2.09-59.18-42.68 23.08 11.5c18.98-6.07 25.23-7.47 32.21-9.69l2.62 11c-12.55 12.55 1.43 16.82 6.55 19.38l-13.62-61.01 12.05 28.28c4.19-1.31 7.33-2.09 7.33-2.09l2.62 8.64s-3.14 1.05-6.28 2.09l8.9 20.95 33.78-65.73-20.69 61.01c42.42-24.09 81.44-36.66 131.98-35.88 67.04 1.05 167.33 40.85 199.8 139.83.78 2.1-.01 2.63-.79.27zM203.48 152.43s1.83-.52 4.19-1.31l9.43 7.59c-.4 0-3.44-.25-11.26 2.36l-2.36-8.64zm143.76 38.5c-1.57-.6-26.46-4.81-33.26 20.69l21.73 17.02 11.53-37.71zM318.43 67.07c-58.4 0-106.05 12.05-114.96 14.4v.79c8.38 2.09 14.4 4.19 21.21 11.78l1.57.26c6.55-1.83 48.97-13.88 110.24-13.88 180.16 0 301.67 116.79 301.67 223.37v9.95c0 1.31.79 2.62 1.05.52.52-2.09.79-8.64.79-19.64.26-83.79-96.63-227.55-321.57-227.55zm211.06 169.68c1.31-5.76 0-12.31-7.33-13.09-9.62-1.13-16.14 23.79-17.02 33.52-.79 5.5-1.31 14.93 6.02 14.93 4.68-.01 9.72-.91 18.33-35.36zm-61.53 42.95c-2.62-.79-9.43-.79-12.57 10.47-1.83 6.81.52 13.35 6.02 14.66 3.67 1.05 8.9.52 11.78-10.74 2.62-9.94-1.83-13.61-5.23-14.39zM491 300.65c1.83.52 3.14 1.05 5.76 1.83 0-1.83.52-8.38.79-12.05-1.05 1.31-5.5 8.12-6.55 9.95v.27z"/></svg>