<svg xmlns="http://www.w3.org/2000/svg" viewBox="0 0 512 512"><path d="M421.78 152.17A23.06 23.06 0 0 0 400.9 112c-.83.43-1.71.9-2.63 1.4-15.25 8.4-118.33 80.62-106.69 88.77s82.04-23.61 130.2-50zm0 217.17c-48.16-26.38-118.64-58.1-130.2-50s91.42 80.35 106.69 88.74c.92.51 1.8 1 2.63 1.41a23.07 23.07 0 0 0 20.88-40.15zM464.21 237c-.95 0-1.95-.06-3-.06-17.4 0-142.52 13.76-136.24 26.51s83.3 18.74 138.21 18.76a23 23 0 0 0 1-45.21zM31 96.65a24.88 24.88 0 0 1 46.14-18.4l81 205.06h1.21l77-203.53a23.52 23.52 0 0 1 44.45 15.27L171.2 368.44C152.65 415.66 134.08 448 77.91 448a139.67 139.67 0 0 1-23.81-1.95 21.31 21.31 0 0 1 6.9-41.77c.66.06 10.91.66 13.86.66 30.47 0 43.74-18.94 58.07-59.41z"/></svg>