<svg xmlns="http://www.w3.org/2000/svg" viewBox="0 0 640 512"><path d="M170.54 148.13v217.54l23.43.01 7.71 26.37 42.01-26.37h49.53V148.13H170.54zm97.75 193.93h-27.94l-27.9 17.51-5.08-17.47-11.9-.04V171.75h72.82v170.31zm-118.46-94.39H97.5c1.74-27.1 2.2-51.59 2.2-73.46h51.16s1.97-22.56-8.58-22.31h-88.5c3.49-13.12 7.87-26.66 13.12-40.67 0 0-24.07 0-32.27 21.57-3.39 8.9-13.21 43.14-30.7 78.12 5.89-.64 25.37-1.18 36.84-22.21 2.11-5.89 2.51-6.66 5.14-14.53h28.87c0 10.5-1.2 66.88-1.68 73.44H20.83c-11.74 0-15.56 23.62-15.56 23.62h65.58C66.45 321.1 42.83 363.12 0 396.34c20.49 5.85 40.91-.93 51-9.9 0 0 22.98-20.9 35.59-69.25l53.96 64.94s7.91-26.89-1.24-39.99c-7.58-8.92-28.06-33.06-36.79-41.81L87.9 311.95c4.36-13.98 6.99-27.55 7.87-40.67h61.65s-.09-23.62-7.59-23.62v.01zm412.02-1.6c20.83-25.64 44.98-58.57 44.98-58.57s-18.65-14.8-27.38-4.06c-6 8.15-36.83 48.2-36.83 48.2l19.23 14.43zm-150.09-59.09c-9.01-8.25-25.91 2.13-25.91 2.13s39.52 55.04 41.12 57.45l19.46-13.73s-25.67-37.61-34.66-45.86h-.01zM640 258.35c-19.78 0-130.91.93-131.06.93v-101c4.81 0 12.42-.4 22.85-1.2 40.88-2.41 70.13-4 87.77-4.81 0 0 12.22-27.19-.59-33.44-3.07-1.18-23.17 4.58-23.17 4.58s-165.22 16.49-232.36 18.05c1.6 8.82 7.62 17.08 15.78 19.55 13.31 3.48 22.69 1.7 49.15.89 24.83-1.6 43.68-2.43 56.51-2.43v99.81H351.41s2.82 22.31 25.51 22.85h107.94v70.92c0 13.97-11.19 21.99-24.48 21.12-14.08.11-26.08-1.15-41.69-1.81 1.99 3.97 6.33 14.39 19.31 21.84 9.88 4.81 16.17 6.57 26.02 6.57 29.56 0 45.67-17.28 44.89-45.31v-73.32h122.36c9.68 0 8.7-23.78 8.7-23.78l.03-.01z"/></svg>