<svg xmlns="http://www.w3.org/2000/svg" viewBox="0 0 640 512"><path d="M633.99 471.02L36 3.51C29.1-2.01 19.03-.9 13.51 6l-10 12.49C-2.02 25.39-.9 35.46 6 40.98l598 467.51c6.9 5.52 16.96 4.4 22.49-2.49l10-12.49c5.52-6.9 4.41-16.97-2.5-22.49zM163.53 368c16.71-22.03 34.48-55.8 41.4-110.58l-45.47-35.55c-3.27 90.73-36.47 120.68-54.84 140.42-6 6.45-8.66 14.16-8.61 21.71.11 16.4 12.98 32 32.1 32h279.66l-61.4-48H163.53zM320 96c61.86 0 112 50.14 112 112 0 .2-.06.38-.06.58.02 16.84 1.16 31.77 2.79 45.73l59.53 46.54c-8.31-22.13-14.34-51.49-14.34-92.85 0-77.7-54.48-139.9-127.94-155.16V32c0-17.67-14.32-32-31.98-32s-31.98 14.33-31.98 32v20.84c-26.02 5.41-49.45 16.94-69.13 32.72l38.17 29.84C275 103.18 296.65 96 320 96zm0 416c35.32 0 63.97-28.65 63.97-64H256.03c0 35.35 28.65 64 63.97 64z"/></svg>