<svg xmlns="http://www.w3.org/2000/svg" viewBox="0 0 496 512"><path d="M248 8C111 8 0 119 0 256s111 248 248 248 248-111 248-248S385 8 248 8zm64 400c0 35.6-29.1 64.5-64.9 64-35.1-.5-63.1-29.8-63.1-65v-42.8l17.7-8.8c15-7.5 31.5 1.7 34.9 16.5l2.8 12.1c2.1 9.2 15.2 9.2 17.3 0l2.8-12.1c3.4-14.8 19.8-24.1 34.9-16.5l17.7 8.8V408zm28.2 25.3c2.2-8.1 3.8-16.5 3.8-25.3v-43.5c14.2-12.4 24.4-27.5 27.3-44.5 1.7-9.9-7.7-18.5-17.7-15.3-25.9 8.3-64.4 13.1-105.6 13.1s-79.6-4.8-105.6-13.1c-9.9-3.1-19.4 5.3-17.7 15.3 2.9 17 13.1 32.1 27.3 44.5V408c0 8.8 1.6 17.2 3.8 25.3C91.8 399.9 48 333 48 256c0-110.3 89.7-200 200-200s200 89.7 200 200c0 77-43.8 143.9-107.8 177.3zm36.9-281.1c-3.8-4.4-10.3-5.5-15.3-2.5l-80 48c-3.6 2.2-5.8 6.1-5.8 10.3s2.2 8.1 5.8 10.3l80 48c5.4 3.2 11.7 1.7 15.3-2.5 3.8-4.5 3.8-11 .1-15.5L343.6 208l33.6-40.3c3.8-4.5 3.7-11.1-.1-15.5zm-162.9 45.5l-80-48c-5-3-11.4-2-15.3 2.5-3.8 4.5-3.8 11-.1 15.5l33.6 40.3-33.6 40.3c-3.8 4.5-3.7 11 .1 15.5 3.6 4.2 9.9 5.7 15.3 2.5l80-48c3.6-2.2 5.8-6.1 5.8-10.3s-2.2-8.1-5.8-10.3z"/></svg>