<svg xmlns="http://www.w3.org/2000/svg" viewBox="0 0 512 512"><path d="M117.1 384.1c-25.8 3.7-84 13.7-100.9 30.6-21.9 21.9-21.5 57.9.9 80.3s58.3 22.8 80.3.9C114.3 479 124.3 420.8 128 395c.8-6.4-4.6-11.8-10.9-10.9zm-41.2-41.7C40.3 268 53 176.1 114.6 114.6 152.4 76.8 202.6 56 256 56c36.2 0 70.8 9.8 101.2 27.7 3.8-20.3 8-36.1 12-48.3C333.8 17.2 294.9 8 256 8 192.5 8 129.1 32.2 80.6 80.6c-74.1 74.1-91.3 183.4-52 274 12.2-4.1 27.7-8.3 47.3-12.2zm352.3-187.6c45 76.6 34.9 176.9-30.8 242.6-37.8 37.8-88 58.6-141.4 58.6-30.5 0-59.8-7-86.4-19.8-3.9 19.5-8 35-12.2 47.2 31.4 13.6 65 20.6 98.7 20.6 63.5 0 126.9-24.2 175.4-72.6 78.1-78.1 93.1-195.4 45.2-288.6-12.3 4-28.2 8.1-48.5 12zm-33.3-26.9c25.8-3.7 84-13.7 100.9-30.6 21.9-21.9 21.5-57.9-.9-80.3s-58.3-22.8-80.3-.9C397.7 33 387.7 91.2 384 117c-.8 6.4 4.6 11.8 10.9 10.9zm-187 108.3c-3-3-7.2-4.2-11.4-3.2L106 255.7c-5.7 1.4-9.5 6.7-9.1 12.6.5 5.8 5.1 10.5 10.9 11l52.3 4.8 4.8 52.3c.5 5.8 5.2 10.4 11 10.9h.9c5.5 0 10.3-3.7 11.7-9.1l22.6-90.5c1-4.2-.2-8.5-3.2-11.5zm39.7-25.1l90.5-22.6c5.7-1.4 9.5-6.7 9.1-12.6-.5-5.8-5.1-10.5-10.9-11l-52.3-4.8-4.8-52.3c-.5-5.8-5.2-10.4-11-10.9-5.6-.1-11.2 3.4-12.6 9.1L233 196.5c-1 4.1.2 8.4 3.2 11.4 5 5 11.3 3.2 11.4 3.2zm52 88.5c-29.1 29.1-59.7 52.9-83.9 65.4-9.2 4.8-10 17.5-1.7 23.4 38.9 27.7 107 6.2 143.7-30.6S416 253 388.3 214.1c-5.8-8.2-18.5-7.6-23.4 1.7-12.3 24.2-36.2 54.7-65.3 83.8z"/></svg>