<svg xmlns="http://www.w3.org/2000/svg" viewBox="0 0 496 512"><path d="M248 8C111 8 0 119 0 256s111 248 248 248 248-111 248-248S385 8 248 8zm0 448c-110.3 0-200-89.7-200-200S137.7 56 248 56s200 89.7 200 200-89.7 200-200 200zm105.6-151.4c-25.9 8.3-64.4 13.1-105.6 13.1s-79.6-4.8-105.6-13.1c-9.9-3.1-19.4 5.4-17.7 15.3 7.9 47.1 71.3 80 123.3 80s115.3-32.9 123.3-80c1.6-9.8-7.7-18.4-17.7-15.3zm-234.7-40.8c3.6 4.2 9.9 5.7 15.3 2.5l80-48c3.6-2.2 5.8-6.1 5.8-10.3s-2.2-8.1-5.8-10.3l-80-48c-5.1-3-11.4-1.9-15.3 2.5-3.8 4.5-3.8 11-.1 15.5l33.6 40.3-33.6 40.3c-3.8 4.5-3.7 11.1.1 15.5zm242.9 2.5c5.4 3.2 11.7 1.7 15.3-2.5 3.8-4.5 3.8-11 .1-15.5L343.6 208l33.6-40.3c3.8-4.5 3.7-11-.1-15.5-3.8-4.4-10.2-5.4-15.3-2.5l-80 48c-3.6 2.2-5.8 6.1-5.8 10.3s2.2 8.1 5.8 10.3l80 48z"/></svg>