<svg xmlns="http://www.w3.org/2000/svg" viewBox="0 0 576 512"><path d="M556.686 290.542L410.328 64.829C397.001 44.272 374.417 32 349.917 32H56C25.121 32 0 57.122 0 88v8c0 44.112 35.888 80 80 80h196.042l-18.333 48H144c-48.523 0-88 39.477-88 88 0 30.879 25.121 56 56 56h131.552c2.987 0 5.914.549 8.697 1.631L352 408.418V480h224V355.829c0-23.225-6.679-45.801-19.314-65.287zM528 432H400v-23.582c0-19.948-12.014-37.508-30.604-44.736l-99.751-38.788A71.733 71.733 0 0 0 243.552 320H112c-4.411 0-8-3.589-8-8 0-22.056 17.944-40 40-40h113.709c19.767 0 37.786-12.407 44.84-30.873l24.552-64.281c8.996-23.553-8.428-48.846-33.63-48.846H80c-17.645 0-32-14.355-32-32v-8c0-4.411 3.589-8 8-8h293.917c8.166 0 15.693 4.09 20.137 10.942l146.358 225.715A71.84 71.84 0 0 1 528 355.829V432z"/></svg>