<svg xmlns="http://www.w3.org/2000/svg" viewBox="0 0 512 512"><path d="M256 480l70-.013c5.114 0 10.231-.583 15.203-1.729l118.999-27.427C490.56 443.835 512 417.02 512 386.277V180.575c0-23.845-13.03-45.951-34.005-57.69l-97.999-54.853c-34.409-19.261-67.263-5.824-92.218 24.733L142.85 37.008c-37.887-14.579-80.612 3.727-95.642 41.201-15.098 37.642 3.635 80.37 41.942 95.112L168 192l-94-9.141c-40.804 0-74 32.811-74 73.14 0 40.33 33.196 73.141 74 73.141h87.635c-3.675 26.245 8.692 51.297 30.341 65.006C178.657 436.737 211.044 480 256 480zm0-48.013c-25.16 0-25.12-36.567 0-36.567 8.837 0 16-7.163 16-16v-6.856c0-8.837-7.163-16-16-16h-28c-25.159 0-25.122-36.567 0-36.567h28c8.837 0 16-7.163 16-16v-6.856c0-8.837-7.163-16-16-16H74c-34.43 0-34.375-50.281 0-50.281h182c8.837 0 16-7.163 16-16v-11.632a16 16 0 0 0-10.254-14.933L106.389 128.51c-31.552-12.14-13.432-59.283 19.222-46.717l166.549 64.091a16.001 16.001 0 0 0 18.139-4.812l21.764-26.647c5.82-7.127 16.348-9.064 24.488-4.508l98 54.854c5.828 3.263 9.449 9.318 9.449 15.805v205.701c0 8.491-5.994 15.804-14.576 17.782l-119.001 27.427a19.743 19.743 0 0 1-4.423.502h-70z"/></svg>