<svg xmlns="http://www.w3.org/2000/svg" viewBox="0 0 496 512"><path d="M168 176c-17.7 0-32 14.3-32 32s14.3 32 32 32 32-14.3 32-32-14.3-32-32-32zm136 132c0-19.2-28.8-41.5-71.5-44-3.8-.4-7.4 2.4-8.2 6.2-.9 3.8 1.1 7.7 4.7 9.2l16.9 7.2c13 5.5 20.8 13.5 20.8 21.5s-7.8 16-20.7 21.5l-17 7.2c-5.7 2.4-6 12.2 0 14.8l16.9 7.2c13 5.5 20.8 13.5 20.8 21.5s-7.8 16-20.7 21.5l-17 7.2c-3.6 1.5-5.6 5.4-4.7 9.2.8 3.6 4.1 6.2 7.8 6.2h.5c42.8-2.5 71.5-24.8 71.5-44 0-13-13.4-27.3-35.2-36C290.6 335.3 304 321 304 308zM248 8C111 8 0 119 0 256s111 248 248 248 248-111 248-248S385 8 248 8zm0 448c-110.3 0-200-89.7-200-200S137.7 56 248 56s200 89.7 200 200-89.7 200-200 200zm80-280c-17.7 0-32 14.3-32 32s14.3 32 32 32 32-14.3 32-32-14.3-32-32-32z"/></svg>