<svg xmlns="http://www.w3.org/2000/svg" viewBox="0 0 496 512"><path d="M248 8C111 8 0 119 0 256s111 248 248 248 248-111 248-248S385 8 248 8zm141.4 389.4c-37.8 37.8-88 58.6-141.4 58.6s-103.6-20.8-141.4-58.6S48 309.4 48 256s20.8-103.6 58.6-141.4S194.6 56 248 56s103.6 20.8 141.4 58.6S448 202.6 448 256s-20.8 103.6-58.6 141.4zM343.6 196l33.6-40.3c8.6-10.3-3.8-24.8-15.4-18l-80 48c-7.8 4.7-7.8 15.9 0 20.6l80 48c11.5 6.8 24-7.6 15.4-18L343.6 196zm-209.4 58.3l80-48c7.8-4.7 7.8-15.9 0-20.6l-80-48c-11.6-6.9-24 7.7-15.4 18l33.6 40.3-33.6 40.3c-8.7 10.4 3.8 24.8 15.4 18zM362.4 288H133.6c-8.2 0-14.5 7-13.5 15 7.5 59.2 58.9 105 121.1 105h13.6c62.2 0 113.6-45.8 121.1-105 1-8-5.3-15-13.5-15z"/></svg>