<svg xmlns="http://www.w3.org/2000/svg" viewBox="0 0 496 512"><path d="M248 8C111 8 0 119 0 256s111 248 248 248 248-111 248-248S385 8 248 8zm0 448c-110.3 0-200-89.7-200-200S137.7 56 248 56s200 89.7 200 200-89.7 200-200 200zm129.1-303.8c-3.8-4.4-10.3-5.4-15.3-2.5l-80 48c-3.6 2.2-5.8 6.1-5.8 10.3s2.2 8.1 5.8 10.3l80 48c5.4 3.2 11.8 1.6 15.3-2.5 3.8-4.5 3.9-11 .1-15.5L343.6 208l33.6-40.3c3.8-4.5 3.7-11.1-.1-15.5zM220 208c0-4.2-2.2-8.1-5.8-10.3l-80-48c-5-3-11.5-1.9-15.3 2.5-3.8 4.5-3.9 11-.1 15.5l33.6 40.3-33.6 40.3c-3.8 4.5-3.7 11 .1 15.5 3.5 4.1 9.9 5.7 15.3 2.5l80-48c3.6-2.2 5.8-6.1 5.8-10.3zm28 64c-45.4 0-100.9 38.3-107.8 93.3-1.5 11.8 6.9 21.6 15.5 17.9C178.4 373.5 212 368 248 368s69.6 5.5 92.3 15.2c8.5 3.7 17-6 15.5-17.9-6.9-55-62.4-93.3-107.8-93.3z"/></svg>