<?xml version="1.0" encoding="utf-8"?> <!-- Generated by Layerhero SVG Exporter: http://www.layerhero.com/photoshop-svg-exporter --><!DOCTYPE svg PUBLIC "-//W3C//DTD SVG 1.1//EN" "http://www.w3.org/Graphics/SVG/1.1/DTD/svg11.dtd"><svg version="1.1" baseProfile="full" xmlns="http://www.w3.org/2000/svg" xmlns:xlink="http://www.w3.org/1999/xlink" xmlns:ev="http://www.w3.org/2001/xml-events" width="40" height="40" viewBox="0 0 40 40"><g transform="scale(NaN)" ><path fill-rule="evenodd"  fill="rgb( 133, 155, 187 )" d="M34.260,25.080 C34.260,25.080 34.260,27.000 34.260,27.000 C34.260,27.000 25.066,27.000 25.066,27.000 C25.066,27.000 25.066,25.349 25.066,25.349 C25.066,25.349 28.564,21.833 28.564,21.833 C29.596,20.775 30.281,20.025 30.618,19.583 C30.956,19.141 31.201,18.725 31.356,18.335 C31.511,17.945 31.588,17.528 31.588,17.083 C31.588,16.470 31.404,15.988 31.036,15.635 C30.668,15.283 30.159,15.106 29.510,15.106 C28.990,15.106 28.488,15.202 28.002,15.394 C27.517,15.586 26.955,15.932 26.318,16.433 C26.318,16.433 25.140,14.995 25.140,14.995 C25.895,14.358 26.628,13.907 27.339,13.641 C28.050,13.375 28.808,13.242 29.612,13.242 C30.874,13.242 31.885,13.571 32.646,14.230 C33.406,14.888 33.787,15.774 33.787,16.888 C33.787,17.500 33.677,18.081 33.457,18.632 C33.238,19.182 32.901,19.750 32.446,20.334 C31.992,20.919 31.235,21.709 30.178,22.705 C30.178,22.705 27.821,24.987 27.821,24.987 C27.821,24.987 27.821,25.080 27.821,25.080 C27.821,25.080 34.260,25.080 34.260,25.080 ZM20.690,18.242 C20.690,17.197 20.714,16.368 20.764,15.756 C20.622,15.904 20.447,16.068 20.240,16.248 C20.032,16.427 19.338,16.996 18.157,17.955 C18.157,17.955 17.062,16.572 17.062,16.572 C17.062,16.572 21.051,13.437 21.051,13.437 C21.051,13.437 22.870,13.437 22.870,13.437 C22.870,13.437 22.870,27.000 22.870,27.000 C22.870,27.000 20.690,27.000 20.690,27.000 C20.690,27.000 20.690,18.242 20.690,18.242 ZM11.467,27.186 C9.413,27.186 7.830,26.578 6.717,25.363 C5.604,24.147 5.047,22.433 5.047,20.218 C5.047,18.035 5.675,16.326 6.930,15.093 C8.186,13.859 9.914,13.242 12.116,13.242 C13.532,13.242 14.875,13.514 16.143,14.058 C16.143,14.058 15.363,15.904 15.363,15.904 C14.262,15.397 13.161,15.144 12.061,15.144 C10.613,15.144 9.469,15.598 8.628,16.507 C7.787,17.417 7.366,18.660 7.366,20.237 C7.366,21.894 7.745,23.155 8.503,24.017 C9.260,24.880 10.350,25.312 11.773,25.312 C12.490,25.312 13.257,25.222 14.074,25.042 C14.074,25.042 14.074,21.545 14.074,21.545 C14.074,21.545 11.263,21.545 11.263,21.545 C11.263,21.545 11.263,19.643 11.263,19.643 C11.263,19.643 16.254,19.643 16.254,19.643 C16.254,19.643 16.254,26.453 16.254,26.453 C15.438,26.719 14.654,26.907 13.902,27.019 C13.151,27.130 12.339,27.186 11.467,27.186 Z"/><path fill-rule="evenodd"  fill="rgb( 133, 155, 187 )" d="M20.000,40.000 C8.955,40.000 0.000,31.046 0.000,20.000 C0.000,8.955 8.955,0.000 20.000,0.000 C31.046,0.000 40.000,8.955 40.000,20.000 C40.000,31.046 31.046,40.000 20.000,40.000 ZM20.000,2.000 C9.915,2.000 2.000,9.915 2.000,20.000 C2.000,30.086 9.915,38.000 20.000,38.000 C30.085,38.000 38.000,30.086 38.000,20.000 C38.000,9.915 30.085,2.000 20.000,2.000 Z"/></g></svg>