<?xml version="1.0" encoding="utf-8"?> <!-- Generated by Layerhero SVG Exporter: http://www.layerhero.com/photoshop-svg-exporter --><!DOCTYPE svg PUBLIC "-//W3C//DTD SVG 1.1//EN" "http://www.w3.org/Graphics/SVG/1.1/DTD/svg11.dtd"><svg version="1.1" baseProfile="full" xmlns="http://www.w3.org/2000/svg" xmlns:xlink="http://www.w3.org/1999/xlink" xmlns:ev="http://www.w3.org/2001/xml-events" width="40" height="40" viewBox="0 0 40 40"><g transform="scale(NaN)" ><path fill-rule="evenodd"  fill="rgb( 133, 155, 187 )" d="M25.105,27.000 C25.105,27.000 22.749,27.000 22.749,27.000 C22.749,27.000 28.111,15.375 28.111,15.375 C28.111,15.375 21.060,15.375 21.060,15.375 C21.060,15.375 21.060,13.455 21.060,13.455 C21.060,13.455 30.440,13.455 30.440,13.455 C30.440,13.455 30.440,14.977 30.440,14.977 C30.440,14.977 25.105,27.000 25.105,27.000 ZM15.324,27.186 C13.270,27.186 11.687,26.578 10.574,25.363 C9.460,24.147 8.904,22.433 8.904,20.218 C8.904,18.035 9.531,16.326 10.787,15.093 C12.043,13.859 13.771,13.242 15.973,13.242 C17.389,13.242 18.732,13.514 20.000,14.058 C20.000,14.058 19.220,15.904 19.220,15.904 C18.119,15.397 17.018,15.144 15.917,15.144 C14.470,15.144 13.326,15.598 12.485,16.507 C11.644,17.417 11.223,18.660 11.223,20.237 C11.223,21.894 11.602,23.155 12.360,24.017 C13.117,24.880 14.207,25.312 15.630,25.312 C16.347,25.312 17.114,25.222 17.931,25.042 C17.931,25.042 17.931,21.545 17.931,21.545 C17.931,21.545 15.120,21.545 15.120,21.545 C15.120,21.545 15.120,19.643 15.120,19.643 C15.120,19.643 20.111,19.643 20.111,19.643 C20.111,19.643 20.111,26.453 20.111,26.453 C19.294,26.719 18.510,26.907 17.759,27.019 C17.008,27.130 16.196,27.186 15.324,27.186 Z"/><path fill-rule="evenodd"  fill="rgb( 133, 155, 187 )" d="M20.000,40.000 C8.955,40.000 0.000,31.046 0.000,20.000 C0.000,8.955 8.955,0.000 20.000,0.000 C31.046,0.000 40.000,8.955 40.000,20.000 C40.000,31.046 31.046,40.000 20.000,40.000 ZM20.000,2.000 C9.915,2.000 2.000,9.915 2.000,20.000 C2.000,30.086 9.915,38.000 20.000,38.000 C30.085,38.000 38.000,30.086 38.000,20.000 C38.000,9.915 30.085,2.000 20.000,2.000 Z"/></g></svg>