<?xml version="1.0" encoding="utf-8"?> <!-- Generated by Layerhero SVG Exporter: http://www.layerhero.com/photoshop-svg-exporter --><!DOCTYPE svg PUBLIC "-//W3C//DTD SVG 1.1//EN" "http://www.w3.org/Graphics/SVG/1.1/DTD/svg11.dtd"><svg version="1.1" baseProfile="full" xmlns="http://www.w3.org/2000/svg" xmlns:xlink="http://www.w3.org/1999/xlink" xmlns:ev="http://www.w3.org/2001/xml-events" width="40" height="40" viewBox="0 0 40 40"><g transform="scale(NaN)" ><path fill-rule="evenodd"  fill="rgb( 133, 155, 187 )" d="M29.142,27.000 C29.142,27.000 29.142,18.242 29.142,18.242 C29.142,17.197 29.167,16.368 29.216,15.756 C29.074,15.904 28.899,16.068 28.692,16.248 C28.485,16.427 27.791,16.996 26.609,17.955 C26.609,17.955 25.515,16.572 25.515,16.572 C25.515,16.572 29.504,13.437 29.504,13.437 C29.504,13.437 31.322,13.437 31.322,13.437 C31.322,13.437 31.322,27.000 31.322,27.000 C31.322,27.000 29.142,27.000 29.142,27.000 ZM20.835,18.242 C20.835,17.197 20.860,16.368 20.909,15.756 C20.767,15.904 20.592,16.068 20.385,16.248 C20.178,16.427 19.484,16.996 18.302,17.955 C18.302,17.955 17.208,16.572 17.208,16.572 C17.208,16.572 21.197,13.437 21.197,13.437 C21.197,13.437 23.015,13.437 23.015,13.437 C23.015,13.437 23.015,27.000 23.015,27.000 C23.015,27.000 20.835,27.000 20.835,27.000 C20.835,27.000 20.835,18.242 20.835,18.242 ZM11.612,27.186 C9.559,27.186 7.976,26.578 6.862,25.363 C5.749,24.147 5.192,22.433 5.192,20.218 C5.192,18.035 5.820,16.326 7.076,15.093 C8.331,13.859 10.060,13.242 12.262,13.242 C13.678,13.242 15.020,13.514 16.288,14.058 C16.288,14.058 15.509,15.904 15.509,15.904 C14.408,15.397 13.307,15.144 12.206,15.144 C10.759,15.144 9.614,15.598 8.773,16.507 C7.932,17.417 7.512,18.660 7.512,20.237 C7.512,21.894 7.890,23.155 8.648,24.017 C9.406,24.880 10.496,25.312 11.918,25.312 C12.636,25.312 13.403,25.222 14.219,25.042 C14.219,25.042 14.219,21.545 14.219,21.545 C14.219,21.545 11.408,21.545 11.408,21.545 C11.408,21.545 11.408,19.643 11.408,19.643 C11.408,19.643 16.399,19.643 16.399,19.643 C16.399,19.643 16.399,26.453 16.399,26.453 C15.583,26.719 14.799,26.907 14.048,27.019 C13.296,27.130 12.484,27.186 11.612,27.186 Z"/><path fill-rule="evenodd"  fill="rgb( 133, 155, 187 )" d="M20.000,40.000 C8.955,40.000 0.000,31.046 0.000,20.000 C0.000,8.955 8.955,0.000 20.000,0.000 C31.046,0.000 40.000,8.955 40.000,20.000 C40.000,31.046 31.046,40.000 20.000,40.000 ZM20.000,2.000 C9.915,2.000 2.000,9.915 2.000,20.000 C2.000,30.086 9.915,38.000 20.000,38.000 C30.085,38.000 38.000,30.086 38.000,20.000 C38.000,9.915 30.085,2.000 20.000,2.000 Z"/></g></svg>