<?xml version="1.0" encoding="utf-8"?> <!-- Generated by Layerhero SVG Exporter: http://www.layerhero.com/photoshop-svg-exporter --><!DOCTYPE svg PUBLIC "-//W3C//DTD SVG 1.1//EN" "http://www.w3.org/Graphics/SVG/1.1/DTD/svg11.dtd"><svg version="1.1" baseProfile="full" xmlns="http://www.w3.org/2000/svg" xmlns:xlink="http://www.w3.org/1999/xlink" xmlns:ev="http://www.w3.org/2001/xml-events" width="40" height="40" viewBox="0 0 40 40"><g transform="scale(NaN)" ><path fill-rule="evenodd"  fill="rgb( 133, 155, 187 )" d="M24.595,16.201 C23.866,16.980 23.470,18.230 23.408,19.949 C23.408,19.949 23.519,19.949 23.519,19.949 C23.810,19.448 24.218,19.060 24.744,18.785 C25.270,18.510 25.888,18.372 26.599,18.372 C27.830,18.372 28.789,18.749 29.475,19.504 C30.162,20.259 30.505,21.282 30.505,22.575 C30.505,23.997 30.108,25.121 29.313,25.947 C28.518,26.773 27.434,27.186 26.061,27.186 C25.090,27.186 24.246,26.952 23.529,26.485 C22.811,26.018 22.259,25.338 21.873,24.444 C21.486,23.550 21.293,22.476 21.293,21.220 C21.293,15.914 23.454,13.260 27.778,13.260 C28.458,13.260 29.033,13.313 29.503,13.418 C29.503,13.418 29.503,15.236 29.503,15.236 C29.033,15.100 28.489,15.032 27.870,15.032 C26.417,15.032 25.325,15.422 24.595,16.201 ZM24.210,24.490 C24.684,25.087 25.288,25.386 26.024,25.386 C26.772,25.386 27.349,25.145 27.754,24.662 C28.159,24.180 28.362,23.490 28.362,22.593 C28.362,21.814 28.172,21.202 27.792,20.756 C27.411,20.311 26.841,20.088 26.080,20.088 C25.610,20.088 25.177,20.189 24.781,20.390 C24.385,20.591 24.073,20.866 23.844,21.216 C23.615,21.565 23.501,21.922 23.501,22.287 C23.501,23.159 23.737,23.894 24.210,24.490 ZM15.277,27.186 C13.224,27.186 11.641,26.578 10.527,25.363 C9.414,24.147 8.857,22.433 8.857,20.218 C8.857,18.035 9.485,16.326 10.741,15.093 C11.996,13.859 13.725,13.242 15.927,13.242 C17.343,13.242 18.685,13.514 19.953,14.058 C19.953,14.058 19.174,15.904 19.174,15.904 C18.073,15.397 16.972,15.144 15.871,15.144 C14.424,15.144 13.280,15.598 12.438,16.507 C11.597,17.417 11.177,18.660 11.177,20.237 C11.177,21.894 11.556,23.155 12.313,24.017 C13.071,24.880 14.161,25.312 15.583,25.312 C16.301,25.312 17.068,25.222 17.884,25.042 C17.884,25.042 17.884,21.545 17.884,21.545 C17.884,21.545 15.073,21.545 15.073,21.545 C15.073,21.545 15.073,19.643 15.073,19.643 C15.073,19.643 20.064,19.643 20.064,19.643 C20.064,19.643 20.064,26.453 20.064,26.453 C19.248,26.719 18.464,26.907 17.713,27.019 C16.961,27.130 16.149,27.186 15.277,27.186 Z"/><path fill-rule="evenodd"  fill="rgb( 133, 155, 187 )" d="M20.000,40.000 C8.955,40.000 0.000,31.046 0.000,20.000 C0.000,8.955 8.955,0.000 20.000,0.000 C31.046,0.000 40.000,8.955 40.000,20.000 C40.000,31.046 31.046,40.000 20.000,40.000 ZM20.000,2.000 C9.915,2.000 2.000,9.915 2.000,20.000 C2.000,30.086 9.915,38.000 20.000,38.000 C30.085,38.000 38.000,30.086 38.000,20.000 C38.000,9.915 30.085,2.000 20.000,2.000 Z"/></g></svg>