<?xml version="1.0" encoding="utf-8"?> <!-- Generated by Layerhero SVG Exporter: http://www.layerhero.com/photoshop-svg-exporter --><!DOCTYPE svg PUBLIC "-//W3C//DTD SVG 1.1//EN" "http://www.w3.org/Graphics/SVG/1.1/DTD/svg11.dtd"><svg version="1.1" baseProfile="full" xmlns="http://www.w3.org/2000/svg" xmlns:xlink="http://www.w3.org/1999/xlink" xmlns:ev="http://www.w3.org/2001/xml-events" width="40" height="40" viewBox="0 0 40 40"><g transform="scale(NaN)" ><path fill-rule="evenodd"  fill="rgb( 133, 155, 187 )" d="M33.311,25.469 C32.553,26.614 31.395,27.186 29.836,27.186 C28.327,27.186 27.183,26.595 26.404,25.414 C25.624,24.232 25.235,22.500 25.235,20.218 C25.235,17.825 25.614,16.061 26.371,14.926 C27.129,13.791 28.284,13.223 29.836,13.223 C31.352,13.223 32.499,13.817 33.278,15.004 C34.057,16.192 34.447,17.930 34.447,20.218 C34.447,22.575 34.068,24.325 33.311,25.469 ZM31.669,16.271 C31.282,15.458 30.671,15.051 29.836,15.051 C29.001,15.051 28.394,15.450 28.013,16.248 C27.633,17.045 27.443,18.369 27.443,20.218 C27.443,22.068 27.633,23.388 28.013,24.180 C28.394,24.971 29.001,25.367 29.836,25.367 C30.671,25.367 31.282,24.965 31.669,24.161 C32.055,23.357 32.248,22.043 32.248,20.218 C32.248,18.400 32.055,17.084 31.669,16.271 ZM20.503,18.242 C20.503,17.197 20.527,16.368 20.577,15.756 C20.435,15.904 20.260,16.068 20.053,16.248 C19.845,16.427 19.151,16.996 17.970,17.955 C17.970,17.955 16.875,16.572 16.875,16.572 C16.875,16.572 20.864,13.437 20.864,13.437 C20.864,13.437 22.683,13.437 22.683,13.437 C22.683,13.437 22.683,27.000 22.683,27.000 C22.683,27.000 20.503,27.000 20.503,27.000 C20.503,27.000 20.503,18.242 20.503,18.242 ZM11.280,27.186 C9.226,27.186 7.643,26.578 6.530,25.363 C5.417,24.147 4.860,22.433 4.860,20.218 C4.860,18.035 5.488,16.326 6.743,15.093 C7.999,13.859 9.727,13.242 11.929,13.242 C13.345,13.242 14.688,13.514 15.956,14.058 C15.956,14.058 15.176,15.904 15.176,15.904 C14.075,15.397 12.974,15.144 11.874,15.144 C10.426,15.144 9.282,15.598 8.441,16.507 C7.600,17.417 7.179,18.660 7.179,20.237 C7.179,21.894 7.558,23.155 8.316,24.017 C9.073,24.880 10.163,25.312 11.586,25.312 C12.303,25.312 13.070,25.222 13.887,25.042 C13.887,25.042 13.887,21.545 13.887,21.545 C13.887,21.545 11.076,21.545 11.076,21.545 C11.076,21.545 11.076,19.643 11.076,19.643 C11.076,19.643 16.067,19.643 16.067,19.643 C16.067,19.643 16.067,26.453 16.067,26.453 C15.250,26.719 14.467,26.907 13.715,27.019 C12.964,27.130 12.152,27.186 11.280,27.186 Z"/><path fill-rule="evenodd"  fill="rgb( 133, 155, 187 )" d="M20.000,40.000 C8.955,40.000 0.000,31.046 0.000,20.000 C0.000,8.955 8.955,0.000 20.000,0.000 C31.046,0.000 40.000,8.955 40.000,20.000 C40.000,31.046 31.046,40.000 20.000,40.000 ZM20.000,2.000 C9.915,2.000 2.000,9.915 2.000,20.000 C2.000,30.086 9.915,38.000 20.000,38.000 C30.085,38.000 38.000,30.086 38.000,20.000 C38.000,9.915 30.085,2.000 20.000,2.000 Z"/></g></svg>