<?xml version="1.0" encoding="utf-8"?> <!-- Generated by Layerhero SVG Exporter: http://www.layerhero.com/photoshop-svg-exporter --><!DOCTYPE svg PUBLIC "-//W3C//DTD SVG 1.1//EN" "http://www.w3.org/Graphics/SVG/1.1/DTD/svg11.dtd"><svg version="1.1" baseProfile="full" xmlns="http://www.w3.org/2000/svg" xmlns:xlink="http://www.w3.org/1999/xlink" xmlns:ev="http://www.w3.org/2001/xml-events" width="40" height="40" viewBox="0 0 40 40"><g transform="scale(NaN)" ><path fill-rule="evenodd"  fill="rgb( 133, 155, 187 )" d="M27.026,19.856 C27.026,19.856 27.026,19.931 27.026,19.931 C28.114,20.067 28.931,20.405 29.475,20.947 C30.019,21.488 30.291,22.207 30.291,23.104 C30.291,24.409 29.831,25.415 28.909,26.123 C27.987,26.832 26.676,27.186 24.976,27.186 C23.473,27.186 22.205,26.941 21.172,26.453 C21.172,26.453 21.172,24.514 21.172,24.514 C21.747,24.798 22.356,25.018 22.999,25.172 C23.643,25.327 24.261,25.404 24.855,25.404 C25.906,25.404 26.692,25.209 27.211,24.820 C27.731,24.430 27.991,23.827 27.991,23.011 C27.991,22.287 27.703,21.755 27.128,21.415 C26.553,21.075 25.650,20.905 24.419,20.905 C24.419,20.905 23.241,20.905 23.241,20.905 C23.241,20.905 23.241,19.133 23.241,19.133 C23.241,19.133 24.437,19.133 24.437,19.133 C26.602,19.133 27.685,18.385 27.685,16.888 C27.685,16.306 27.496,15.858 27.119,15.542 C26.741,15.227 26.185,15.069 25.449,15.069 C24.935,15.069 24.440,15.142 23.964,15.287 C23.488,15.433 22.925,15.716 22.276,16.136 C22.276,16.136 21.209,14.615 21.209,14.615 C22.452,13.699 23.896,13.242 25.541,13.242 C26.908,13.242 27.975,13.536 28.742,14.123 C29.509,14.711 29.893,15.521 29.893,16.554 C29.893,17.413 29.642,18.129 29.141,18.701 C28.640,19.274 27.935,19.659 27.026,19.856 ZM15.324,27.186 C13.270,27.186 11.687,26.578 10.574,25.363 C9.460,24.147 8.904,22.433 8.904,20.218 C8.904,18.035 9.531,16.326 10.787,15.093 C12.043,13.859 13.771,13.242 15.973,13.242 C17.389,13.242 18.732,13.514 20.000,14.058 C20.000,14.058 19.220,15.904 19.220,15.904 C18.119,15.397 17.018,15.144 15.917,15.144 C14.470,15.144 13.326,15.598 12.485,16.507 C11.644,17.417 11.223,18.660 11.223,20.237 C11.223,21.894 11.602,23.155 12.360,24.017 C13.117,24.880 14.207,25.312 15.630,25.312 C16.347,25.312 17.114,25.222 17.931,25.042 C17.931,25.042 17.931,21.545 17.931,21.545 C17.931,21.545 15.120,21.545 15.120,21.545 C15.120,21.545 15.120,19.643 15.120,19.643 C15.120,19.643 20.111,19.643 20.111,19.643 C20.111,19.643 20.111,26.453 20.111,26.453 C19.294,26.719 18.510,26.907 17.759,27.019 C17.008,27.130 16.196,27.186 15.324,27.186 Z"/><path fill-rule="evenodd"  fill="rgb( 133, 155, 187 )" d="M20.000,40.000 C8.955,40.000 0.000,31.046 0.000,20.000 C0.000,8.955 8.955,0.000 20.000,0.000 C31.046,0.000 40.000,8.955 40.000,20.000 C40.000,31.046 31.046,40.000 20.000,40.000 ZM20.000,2.000 C9.915,2.000 2.000,9.915 2.000,20.000 C2.000,30.086 9.915,38.000 20.000,38.000 C30.085,38.000 38.000,30.086 38.000,20.000 C38.000,9.915 30.085,2.000 20.000,2.000 Z"/></g></svg>