<?xml version="1.0" encoding="utf-8"?> <!-- Generated by Layerhero SVG Exporter: http://www.layerhero.com/photoshop-svg-exporter --><!DOCTYPE svg PUBLIC "-//W3C//DTD SVG 1.1//EN" "http://www.w3.org/Graphics/SVG/1.1/DTD/svg11.dtd"><svg version="1.1" baseProfile="full" xmlns="http://www.w3.org/2000/svg" xmlns:xlink="http://www.w3.org/1999/xlink" xmlns:ev="http://www.w3.org/2001/xml-events" width="40" height="40" viewBox="0 0 40 40"><g transform="scale(NaN)" ><path fill-rule="evenodd"  fill="rgb( 133, 155, 187 )" d="M30.394,25.080 C30.394,25.080 30.394,27.000 30.394,27.000 C30.394,27.000 21.201,27.000 21.201,27.000 C21.201,27.000 21.201,25.349 21.201,25.349 C21.201,25.349 24.698,21.833 24.698,21.833 C25.731,20.775 26.416,20.025 26.753,19.583 C27.090,19.141 27.336,18.725 27.491,18.335 C27.645,17.945 27.723,17.528 27.723,17.083 C27.723,16.470 27.538,15.988 27.171,15.635 C26.803,15.283 26.294,15.106 25.644,15.106 C25.125,15.106 24.622,15.202 24.137,15.394 C23.651,15.586 23.090,15.932 22.453,16.433 C22.453,16.433 21.275,14.995 21.275,14.995 C22.029,14.358 22.762,13.907 23.474,13.641 C24.185,13.375 24.942,13.242 25.747,13.242 C27.008,13.242 28.019,13.571 28.780,14.230 C29.541,14.888 29.921,15.774 29.921,16.888 C29.921,17.500 29.811,18.081 29.592,18.632 C29.372,19.182 29.035,19.750 28.581,20.334 C28.126,20.919 27.370,21.709 26.312,22.705 C26.312,22.705 23.956,24.987 23.956,24.987 C23.956,24.987 23.956,25.080 23.956,25.080 C23.956,25.080 30.394,25.080 30.394,25.080 ZM15.333,27.186 C13.279,27.186 11.696,26.578 10.583,25.363 C9.469,24.147 8.913,22.433 8.913,20.218 C8.913,18.035 9.540,16.326 10.796,15.093 C12.051,13.859 13.780,13.242 15.982,13.242 C17.398,13.242 18.740,13.514 20.008,14.058 C20.008,14.058 19.229,15.904 19.229,15.904 C18.128,15.397 17.027,15.144 15.926,15.144 C14.479,15.144 13.335,15.598 12.494,16.507 C11.652,17.417 11.232,18.660 11.232,20.237 C11.232,21.894 11.611,23.155 12.368,24.017 C13.126,24.880 14.216,25.312 15.639,25.312 C16.356,25.312 17.123,25.222 17.939,25.042 C17.939,25.042 17.939,21.545 17.939,21.545 C17.939,21.545 15.128,21.545 15.128,21.545 C15.128,21.545 15.128,19.643 15.128,19.643 C15.128,19.643 20.120,19.643 20.120,19.643 C20.120,19.643 20.120,26.453 20.120,26.453 C19.303,26.719 18.519,26.907 17.768,27.019 C17.016,27.130 16.205,27.186 15.333,27.186 Z"/><path fill-rule="evenodd"  fill="rgb( 133, 155, 187 )" d="M20.000,40.000 C8.955,40.000 0.000,31.046 0.000,20.000 C0.000,8.955 8.955,0.000 20.000,0.000 C31.046,0.000 40.000,8.955 40.000,20.000 C40.000,31.046 31.046,40.000 20.000,40.000 ZM20.000,2.000 C9.915,2.000 2.000,9.915 2.000,20.000 C2.000,30.086 9.915,38.000 20.000,38.000 C30.085,38.000 38.000,30.086 38.000,20.000 C38.000,9.915 30.085,2.000 20.000,2.000 Z"/></g></svg>