<?xml version="1.0" encoding="utf-8"?> <!-- Generated by Layerhero SVG Exporter: http://www.layerhero.com/photoshop-svg-exporter --><!DOCTYPE svg PUBLIC "-//W3C//DTD SVG 1.1//EN" "http://www.w3.org/Graphics/SVG/1.1/DTD/svg11.dtd"><svg version="1.1" baseProfile="full" xmlns="http://www.w3.org/2000/svg" xmlns:xlink="http://www.w3.org/1999/xlink" xmlns:ev="http://www.w3.org/2001/xml-events" width="40" height="40" viewBox="0 0 40 40"><g transform="scale(NaN)" ><path fill-rule="evenodd"  fill="rgb( 133, 155, 187 )" d="M23.883,18.734 C24.100,18.697 24.364,18.654 24.676,18.604 C24.989,18.555 25.371,18.530 25.822,18.530 C27.189,18.530 28.271,18.892 29.069,19.615 C29.867,20.339 30.266,21.325 30.266,22.575 C30.266,24.022 29.813,25.152 28.907,25.966 C28.001,26.779 26.713,27.186 25.043,27.186 C23.527,27.186 22.337,26.941 21.471,26.453 C21.471,26.453 21.471,24.477 21.471,24.477 C21.972,24.761 22.547,24.981 23.197,25.135 C23.846,25.290 24.449,25.367 25.006,25.367 C25.989,25.367 26.737,25.148 27.251,24.708 C27.764,24.269 28.021,23.626 28.021,22.779 C28.021,21.158 26.988,20.348 24.922,20.348 C24.631,20.348 24.273,20.378 23.846,20.436 C23.419,20.495 23.045,20.562 22.723,20.636 C22.723,20.636 21.749,20.061 21.749,20.061 C21.749,20.061 22.269,13.437 22.269,13.437 C22.269,13.437 29.320,13.437 29.320,13.437 C29.320,13.437 29.320,15.375 29.320,15.375 C29.320,15.375 24.189,15.375 24.189,15.375 C24.189,15.375 23.883,18.734 23.883,18.734 ZM15.313,27.186 C13.259,27.186 11.676,26.578 10.562,25.363 C9.449,24.147 8.893,22.433 8.893,20.218 C8.893,18.035 9.520,16.326 10.776,15.093 C12.031,13.859 13.760,13.242 15.962,13.242 C17.378,13.242 18.720,13.514 19.988,14.058 C19.988,14.058 19.209,15.904 19.209,15.904 C18.108,15.397 17.007,15.144 15.906,15.144 C14.459,15.144 13.315,15.598 12.474,16.507 C11.632,17.417 11.212,18.660 11.212,20.237 C11.212,21.894 11.591,23.155 12.348,24.017 C13.106,24.880 14.196,25.312 15.619,25.312 C16.336,25.312 17.103,25.222 17.919,25.042 C17.919,25.042 17.919,21.545 17.919,21.545 C17.919,21.545 15.108,21.545 15.108,21.545 C15.108,21.545 15.108,19.643 15.108,19.643 C15.108,19.643 20.100,19.643 20.100,19.643 C20.100,19.643 20.100,26.453 20.100,26.453 C19.283,26.719 18.499,26.907 17.748,27.019 C16.996,27.130 16.185,27.186 15.313,27.186 Z"/><path fill-rule="evenodd"  fill="rgb( 133, 155, 187 )" d="M20.000,40.000 C8.955,40.000 0.000,31.046 0.000,20.000 C0.000,8.955 8.955,0.000 20.000,0.000 C31.046,0.000 40.000,8.955 40.000,20.000 C40.000,31.046 31.046,40.000 20.000,40.000 ZM20.000,2.000 C9.915,2.000 2.000,9.915 2.000,20.000 C2.000,30.086 9.915,38.000 20.000,38.000 C30.085,38.000 38.000,30.086 38.000,20.000 C38.000,9.915 30.085,2.000 20.000,2.000 Z"/></g></svg>