<?xml version="1.0" encoding="utf-8"?> <!-- Generated by Layerhero SVG Exporter: http://www.layerhero.com/photoshop-svg-exporter --><!DOCTYPE svg PUBLIC "-//W3C//DTD SVG 1.1//EN" "http://www.w3.org/Graphics/SVG/1.1/DTD/svg11.dtd"><svg version="1.1" baseProfile="full" xmlns="http://www.w3.org/2000/svg" xmlns:xlink="http://www.w3.org/1999/xlink" xmlns:ev="http://www.w3.org/2001/xml-events" width="40" height="40" viewBox="0 0 40 40"><g transform="scale(NaN)" ><path fill-rule="evenodd"  fill="rgb( 133, 155, 187 )" d="M28.724,25.209 C27.648,26.527 26.028,27.186 23.863,27.186 C23.040,27.186 22.450,27.136 22.091,27.037 C22.091,27.037 22.091,25.209 22.091,25.209 C22.641,25.364 23.195,25.441 23.752,25.441 C25.223,25.441 26.321,25.046 27.045,24.254 C27.769,23.462 28.164,22.219 28.232,20.524 C28.232,20.524 28.121,20.524 28.121,20.524 C27.756,21.081 27.315,21.483 26.799,21.730 C26.283,21.978 25.678,22.102 24.985,22.102 C23.785,22.102 22.842,21.727 22.156,20.979 C21.469,20.231 21.126,19.204 21.126,17.899 C21.126,16.483 21.523,15.355 22.318,14.517 C23.113,13.679 24.197,13.260 25.570,13.260 C26.535,13.260 27.376,13.495 28.093,13.965 C28.811,14.435 29.364,15.117 29.754,16.011 C30.144,16.905 30.338,17.976 30.338,19.226 C30.338,21.897 29.800,23.892 28.724,25.209 ZM27.820,16.623 C27.606,16.144 27.308,15.765 26.924,15.487 C26.541,15.208 26.102,15.069 25.607,15.069 C24.852,15.069 24.274,15.315 23.872,15.807 C23.470,16.299 23.269,16.990 23.269,17.880 C23.269,18.654 23.456,19.261 23.830,19.703 C24.205,20.146 24.772,20.367 25.533,20.367 C26.269,20.367 26.887,20.147 27.388,19.708 C27.889,19.269 28.140,18.756 28.140,18.168 C28.140,17.618 28.033,17.103 27.820,16.623 ZM15.369,27.186 C13.316,27.186 11.732,26.578 10.619,25.363 C9.506,24.147 8.949,22.433 8.949,20.218 C8.949,18.035 9.577,16.326 10.833,15.093 C12.088,13.859 13.817,13.242 16.019,13.242 C17.435,13.242 18.777,13.514 20.045,14.058 C20.045,14.058 19.266,15.904 19.266,15.904 C18.165,15.397 17.064,15.144 15.963,15.144 C14.516,15.144 13.371,15.598 12.530,16.507 C11.689,17.417 11.269,18.660 11.269,20.237 C11.269,21.894 11.647,23.155 12.405,24.017 C13.163,24.880 14.253,25.312 15.675,25.312 C16.393,25.312 17.160,25.222 17.976,25.042 C17.976,25.042 17.976,21.545 17.976,21.545 C17.976,21.545 15.165,21.545 15.165,21.545 C15.165,21.545 15.165,19.643 15.165,19.643 C15.165,19.643 20.156,19.643 20.156,19.643 C20.156,19.643 20.156,26.453 20.156,26.453 C19.340,26.719 18.556,26.907 17.804,27.019 C17.053,27.130 16.241,27.186 15.369,27.186 Z"/><path fill-rule="evenodd"  fill="rgb( 133, 155, 187 )" d="M20.000,40.000 C8.955,40.000 0.000,31.046 0.000,20.000 C0.000,8.955 8.955,0.000 20.000,0.000 C31.046,0.000 40.000,8.955 40.000,20.000 C40.000,31.046 31.046,40.000 20.000,40.000 ZM20.000,2.000 C9.915,2.000 2.000,9.915 2.000,20.000 C2.000,30.086 9.915,38.000 20.000,38.000 C30.085,38.000 38.000,30.086 38.000,20.000 C38.000,9.915 30.085,2.000 20.000,2.000 Z"/></g></svg>