<?xml version="1.0" encoding="utf-8"?> <!-- Generated by Layerhero SVG Exporter: http://www.layerhero.com/photoshop-svg-exporter --><!DOCTYPE svg PUBLIC "-//W3C//DTD SVG 1.1//EN" "http://www.w3.org/Graphics/SVG/1.1/DTD/svg11.dtd"><svg version="1.1" baseProfile="full" xmlns="http://www.w3.org/2000/svg" xmlns:xlink="http://www.w3.org/1999/xlink" xmlns:ev="http://www.w3.org/2001/xml-events" width="40" height="40" viewBox="0 0 40 40"><g transform="scale(NaN)" ><path fill-rule="evenodd"  fill="rgb( 133, 155, 187 )" d="M29.158,24.041 C29.158,24.041 29.158,27.000 29.158,27.000 C29.158,27.000 27.034,27.000 27.034,27.000 C27.034,27.000 27.034,24.041 27.034,24.041 C27.034,24.041 20.837,24.041 20.837,24.041 C20.837,24.041 20.837,22.361 20.837,22.361 C20.837,22.361 27.034,13.399 27.034,13.399 C27.034,13.399 29.158,13.399 29.158,13.399 C29.158,13.399 29.158,22.231 29.158,22.231 C29.158,22.231 30.986,22.231 30.986,22.231 C30.986,22.231 30.986,24.041 30.986,24.041 C30.986,24.041 29.158,24.041 29.158,24.041 ZM27.052,15.849 C26.879,16.257 26.607,16.752 26.236,17.333 C26.236,17.333 22.868,22.231 22.868,22.231 C22.868,22.231 27.034,22.231 27.034,22.231 C27.034,22.231 27.034,18.827 27.034,18.827 C27.034,17.615 27.065,16.622 27.127,15.849 C27.127,15.849 27.052,15.849 27.052,15.849 ZM15.223,27.186 C13.170,27.186 11.586,26.578 10.473,25.363 C9.360,24.147 8.803,22.433 8.803,20.218 C8.803,18.035 9.431,16.326 10.687,15.093 C11.942,13.859 13.671,13.242 15.873,13.242 C17.289,13.242 18.631,13.514 19.899,14.058 C19.899,14.058 19.120,15.904 19.120,15.904 C18.019,15.397 16.918,15.144 15.817,15.144 C14.370,15.144 13.225,15.598 12.384,16.507 C11.543,17.417 11.123,18.660 11.123,20.237 C11.123,21.894 11.501,23.155 12.259,24.017 C13.017,24.880 14.107,25.312 15.529,25.312 C16.247,25.312 17.014,25.222 17.830,25.042 C17.830,25.042 17.830,21.545 17.830,21.545 C17.830,21.545 15.019,21.545 15.019,21.545 C15.019,21.545 15.019,19.643 15.019,19.643 C15.019,19.643 20.010,19.643 20.010,19.643 C20.010,19.643 20.010,26.453 20.010,26.453 C19.194,26.719 18.410,26.907 17.658,27.019 C16.907,27.130 16.095,27.186 15.223,27.186 Z"/><path fill-rule="evenodd"  fill="rgb( 133, 155, 187 )" d="M20.000,40.000 C8.955,40.000 0.000,31.046 0.000,20.000 C0.000,8.955 8.955,0.000 20.000,0.000 C31.046,0.000 40.000,8.955 40.000,20.000 C40.000,31.046 31.046,40.000 20.000,40.000 ZM20.000,2.000 C9.915,2.000 2.000,9.915 2.000,20.000 C2.000,30.086 9.915,38.000 20.000,38.000 C30.085,38.000 38.000,30.086 38.000,20.000 C38.000,9.915 30.085,2.000 20.000,2.000 Z"/></g></svg>