<?xml version="1.0" encoding="utf-8"?> <!-- Generated by Layerhero SVG Exporter: http://www.layerhero.com/photoshop-svg-exporter --><!DOCTYPE svg PUBLIC "-//W3C//DTD SVG 1.1//EN" "http://www.w3.org/Graphics/SVG/1.1/DTD/svg11.dtd"><svg version="1.1" baseProfile="full" xmlns="http://www.w3.org/2000/svg" xmlns:xlink="http://www.w3.org/1999/xlink" xmlns:ev="http://www.w3.org/2001/xml-events" width="40" height="40" viewBox="0 0 40 40"><g transform="scale(NaN)" ><path fill-rule="evenodd"  fill="rgb( 133, 155, 187 )" d="M27.502,19.838 C28.565,20.370 29.321,20.930 29.770,21.517 C30.218,22.105 30.443,22.760 30.443,23.484 C30.443,24.603 30.031,25.500 29.209,26.174 C28.386,26.849 27.273,27.186 25.869,27.186 C24.397,27.186 23.256,26.870 22.445,26.239 C21.635,25.608 21.230,24.715 21.230,23.558 C21.230,22.804 21.442,22.125 21.866,21.522 C22.289,20.919 22.984,20.382 23.948,19.912 C23.120,19.417 22.529,18.895 22.176,18.344 C21.824,17.794 21.648,17.175 21.648,16.489 C21.648,15.505 22.034,14.721 22.807,14.137 C23.580,13.552 24.589,13.260 25.832,13.260 C27.118,13.260 28.136,13.556 28.884,14.146 C29.632,14.737 30.007,15.527 30.007,16.517 C30.007,17.908 29.172,19.015 27.502,19.838 ZM23.856,22.004 C23.497,22.434 23.318,22.927 23.318,23.484 C23.318,24.127 23.543,24.627 23.995,24.982 C24.446,25.338 25.058,25.516 25.832,25.516 C26.630,25.516 27.250,25.332 27.692,24.964 C28.134,24.596 28.355,24.096 28.355,23.465 C28.355,22.964 28.151,22.507 27.743,22.092 C27.335,21.678 26.716,21.294 25.887,20.942 C25.887,20.942 25.618,20.821 25.618,20.821 C24.802,21.180 24.214,21.574 23.856,22.004 ZM27.330,15.399 C26.950,15.093 26.444,14.939 25.813,14.939 C25.195,14.939 24.697,15.093 24.319,15.399 C23.942,15.705 23.754,16.121 23.754,16.646 C23.754,16.968 23.822,17.256 23.958,17.509 C24.094,17.763 24.292,17.993 24.551,18.200 C24.811,18.408 25.250,18.657 25.869,18.947 C26.611,18.620 27.135,18.275 27.441,17.913 C27.747,17.551 27.901,17.129 27.901,16.646 C27.901,16.121 27.710,15.705 27.330,15.399 ZM15.284,27.186 C13.230,27.186 11.647,26.578 10.534,25.363 C9.420,24.147 8.864,22.433 8.864,20.218 C8.864,18.035 9.491,16.326 10.747,15.093 C12.003,13.859 13.731,13.242 15.933,13.242 C17.349,13.242 18.692,13.514 19.959,14.058 C19.959,14.058 19.180,15.904 19.180,15.904 C18.079,15.397 16.978,15.144 15.877,15.144 C14.430,15.144 13.286,15.598 12.445,16.507 C11.604,17.417 11.183,18.660 11.183,20.237 C11.183,21.894 11.562,23.155 12.320,24.017 C13.077,24.880 14.167,25.312 15.590,25.312 C16.307,25.312 17.074,25.222 17.891,25.042 C17.891,25.042 17.891,21.545 17.891,21.545 C17.891,21.545 15.080,21.545 15.080,21.545 C15.080,21.545 15.080,19.643 15.080,19.643 C15.080,19.643 20.071,19.643 20.071,19.643 C20.071,19.643 20.071,26.453 20.071,26.453 C19.254,26.719 18.470,26.907 17.719,27.019 C16.968,27.130 16.156,27.186 15.284,27.186 Z"/><path fill-rule="evenodd"  fill="rgb( 133, 155, 187 )" d="M20.000,40.000 C8.955,40.000 0.000,31.046 0.000,20.000 C0.000,8.955 8.955,0.000 20.000,0.000 C31.046,0.000 40.000,8.955 40.000,20.000 C40.000,31.046 31.046,40.000 20.000,40.000 ZM20.000,2.000 C9.915,2.000 2.000,9.915 2.000,20.000 C2.000,30.086 9.915,38.000 20.000,38.000 C30.085,38.000 38.000,30.086 38.000,20.000 C38.000,9.915 30.085,2.000 20.000,2.000 Z"/></g></svg>