<?xml version="1.0" encoding="utf-8"?> <!-- Generated by Layerhero SVG Exporter: http://www.layerhero.com/photoshop-svg-exporter --><!DOCTYPE svg PUBLIC "-//W3C//DTD SVG 1.1//EN" "http://www.w3.org/Graphics/SVG/1.1/DTD/svg11.dtd"><svg version="1.1" baseProfile="full" xmlns="http://www.w3.org/2000/svg" xmlns:xlink="http://www.w3.org/1999/xlink" xmlns:ev="http://www.w3.org/2001/xml-events" width="40" height="40" viewBox="0 0 40 40"><g transform="scale(NaN)" ><path fill-rule="evenodd"  fill="rgb( 133, 155, 187 )" d="M24.988,27.000 C24.988,27.000 24.988,18.242 24.988,18.242 C24.988,17.197 25.013,16.368 25.063,15.756 C24.920,15.904 24.746,16.068 24.539,16.248 C24.331,16.427 23.637,16.996 22.456,17.955 C22.456,17.955 21.361,16.572 21.361,16.572 C21.361,16.572 25.350,13.437 25.350,13.437 C25.350,13.437 27.169,13.437 27.169,13.437 C27.169,13.437 27.169,27.000 27.169,27.000 C27.169,27.000 24.988,27.000 24.988,27.000 ZM15.766,27.186 C13.712,27.186 12.129,26.578 11.016,25.363 C9.902,24.147 9.346,22.433 9.346,20.218 C9.346,18.035 9.973,16.326 11.229,15.093 C12.484,13.859 14.213,13.242 16.415,13.242 C17.831,13.242 19.173,13.514 20.441,14.058 C20.441,14.058 19.662,15.904 19.662,15.904 C18.561,15.397 17.460,15.144 16.359,15.144 C14.912,15.144 13.768,15.598 12.927,16.507 C12.086,17.417 11.665,18.660 11.665,20.237 C11.665,21.894 12.044,23.155 12.802,24.017 C13.559,24.880 14.649,25.312 16.072,25.312 C16.789,25.312 17.556,25.222 18.373,25.042 C18.373,25.042 18.373,21.545 18.373,21.545 C18.373,21.545 15.562,21.545 15.562,21.545 C15.562,21.545 15.562,19.643 15.562,19.643 C15.562,19.643 20.553,19.643 20.553,19.643 C20.553,19.643 20.553,26.453 20.553,26.453 C19.736,26.719 18.952,26.907 18.201,27.019 C17.449,27.130 16.638,27.186 15.766,27.186 Z"/><path fill-rule="evenodd"  fill="rgb( 133, 155, 187 )" d="M20.000,40.000 C8.955,40.000 0.000,31.046 0.000,20.000 C0.000,8.955 8.955,0.000 20.000,0.000 C31.046,0.000 40.000,8.955 40.000,20.000 C40.000,31.046 31.046,40.000 20.000,40.000 ZM20.000,2.000 C9.915,2.000 2.000,9.915 2.000,20.000 C2.000,30.086 9.915,38.000 20.000,38.000 C30.085,38.000 38.000,30.086 38.000,20.000 C38.000,9.915 30.085,2.000 20.000,2.000 Z"/></g></svg>