<?xml version="1.0" encoding="utf-8"?>
<!-- Generator: Adobe Illustrator 17.0.0, SVG Export Plug-In . SVG Version: 6.00 Build 0)  -->
<!DOCTYPE svg PUBLIC "-//W3C//DTD SVG 1.1//EN" "http://www.w3.org/Graphics/SVG/1.1/DTD/svg11.dtd">
<svg version="1.1" id="Layer_1" xmlns="http://www.w3.org/2000/svg" xmlns:xlink="http://www.w3.org/1999/xlink" x="0px" y="0px"
	 width="90px" height="90px" viewBox="0 0 90 90" enable-background="new 0 0 90 90" xml:space="preserve">
<g>
	<path fill="#DD4B39" d="M45,1C20.701,1,1,20.701,1,45c0,24.305,19.701,44,44,44c24.302,0,44-19.695,44-44C89,20.701,69.302,1,45,1z
		"/>
</g>
<g>
	<path fill-rule="evenodd" clip-rule="evenodd" fill="#FFFFFF" d="M35.909,42.727v5.455h9.023c-0.364,2.341-2.727,6.864-9.023,6.864
		c-5.432,0-9.864-4.5-9.864-10.045s4.432-10.045,9.864-10.045c3.091,0,5.159,1.318,6.341,2.455l4.318-4.159
		c-2.773-2.591-6.364-4.159-10.659-4.159C27.114,29.091,20,36.205,20,45s7.114,15.909,15.909,15.909
		c9.182,0,15.273-6.455,15.273-15.545c0-1.045-0.114-1.841-0.25-2.636H35.909z"/>
	<polygon fill-rule="evenodd" clip-rule="evenodd" fill="#FFFFFF" points="70,47.273 65.455,47.273 65.455,51.818 60.909,51.818 
		60.909,47.273 56.364,47.273 56.364,42.727 60.909,42.727 60.909,38.182 65.455,38.182 65.455,42.727 70,42.727 	"/>
</g>
</svg>
