<?xml version="1.0" encoding="utf-8"?>
<!-- Generator: Adobe Illustrator 17.0.0, SVG Export Plug-In . SVG Version: 6.00 Build 0)  -->
<!DOCTYPE svg PUBLIC "-//W3C//DTD SVG 1.1//EN" "http://www.w3.org/Graphics/SVG/1.1/DTD/svg11.dtd">
<svg version="1.1" id="Layer_1" xmlns="http://www.w3.org/2000/svg" xmlns:xlink="http://www.w3.org/1999/xlink" x="0px" y="0px"
	 width="90px" height="90px" viewBox="0 0 90 90" enable-background="new 0 0 90 90" xml:space="preserve">
<g>
	<path fill="#333333" d="M44.92,1.001c12.308,0,22.786,4.297,31.428,12.886c4.136,4.137,7.281,8.866,9.428,14.182
		c2.146,5.317,3.223,10.96,3.223,16.932c0,6.024-1.063,11.668-3.182,16.93c-2.122,5.263-5.252,9.914-9.388,13.947
		c-4.294,4.242-9.166,7.491-14.615,9.743c-5.446,2.252-11.078,3.378-16.892,3.378s-11.379-1.111-16.697-3.34
		c-5.316-2.225-10.083-5.446-14.3-9.662c-4.217-4.216-7.425-8.97-9.625-14.261s-3.3-10.868-3.3-16.735
		c0-5.815,1.112-11.406,3.338-16.775s5.461-10.175,9.703-14.418C22.423,5.272,32.715,1.001,44.92,1.001z M45.079,8.937
		c-10.057,0-18.517,3.51-25.38,10.528c-3.458,3.51-6.116,7.451-7.975,11.825c-1.862,4.374-2.79,8.944-2.79,13.711
		c0,4.715,0.928,9.259,2.79,13.63c1.86,4.377,4.517,8.279,7.975,11.709c3.457,3.432,7.358,6.049,11.708,7.858
		c4.346,1.807,8.904,2.71,13.672,2.71c4.713,0,9.281-0.914,13.713-2.749c4.426-1.836,8.416-4.478,11.98-7.935
		c6.861-6.704,10.29-15.111,10.29-25.223c0-4.872-0.891-9.481-2.672-13.828c-1.778-4.348-4.372-8.222-7.774-11.63
		C63.541,12.474,55.031,8.937,45.079,8.937z M44.528,37.695l-5.895,3.065c-0.63-1.308-1.401-2.226-2.317-2.75
		c-0.917-0.522-1.768-0.785-2.555-0.785c-3.927,0-5.893,2.592-5.893,7.778c0,2.357,0.498,4.24,1.492,5.655
		c0.995,1.415,2.463,2.123,4.401,2.123c2.567,0,4.374-1.258,5.423-3.772l5.42,2.75c-1.152,2.149-2.75,3.838-4.793,5.068
		c-2.04,1.232-4.294,1.847-6.757,1.847c-3.928,0-7.099-1.203-9.508-3.615c-2.409-2.409-3.613-5.761-3.613-10.055
		c0-4.191,1.218-7.516,3.653-9.978c2.435-2.461,5.512-3.693,9.233-3.693C38.269,31.331,42.17,33.452,44.528,37.695z M69.906,37.695
		l-5.815,3.065c-0.628-1.308-1.402-2.226-2.318-2.75c-0.918-0.522-1.797-0.785-2.632-0.785c-3.928,0-5.895,2.592-5.895,7.778
		c0,2.357,0.499,4.24,1.493,5.655c0.994,1.415,2.46,2.123,4.401,2.123c2.564,0,4.372-1.258,5.419-3.772l5.5,2.75
		c-1.203,2.149-2.828,3.838-4.869,5.068c-2.043,1.232-4.269,1.847-6.678,1.847c-3.982,0-7.162-1.203-9.544-3.615
		c-2.387-2.409-3.578-5.761-3.578-10.055c0-4.191,1.217-7.516,3.655-9.978c2.434-2.461,5.511-3.693,9.23-3.693
		C63.724,31.331,67.603,33.452,69.906,37.695z"/>
</g>
</svg>
