<svg xmlns="http://www.w3.org/2000/svg" viewBox="0 0 512 512"><path d="M157.52 272h36.96L176 218.78 157.52 272zM352 256c-13.23 0-24 10.77-24 24s10.77 24 24 24 24-10.77 24-24-10.77-24-24-24zM464 64H48C21.5 64 0 85.5 0 112v288c0 26.5 21.5 48 48 48h416c26.5 0 48-21.5 48-48V112c0-26.5-21.5-48-48-48zM250.58 352h-16.94c-6.81 0-12.88-4.32-15.12-10.75L211.15 320h-70.29l-7.38 21.25A16 16 0 0 1 118.36 352h-16.94c-11.01 0-18.73-10.85-15.12-21.25L140 176.12A23.995 23.995 0 0 1 162.67 160h26.66A23.99 23.99 0 0 1 212 176.13l53.69 154.62c3.61 10.4-4.11 21.25-15.11 21.25zM424 336c0 8.84-7.16 16-16 16h-16c-4.85 0-9.04-2.27-11.98-5.68-8.62 3.66-18.09 5.68-28.02 5.68-39.7 0-72-32.3-72-72s32.3-72 72-72c8.46 0 16.46 1.73 24 4.42V176c0-8.84 7.16-16 16-16h16c8.84 0 16 7.16 16 16v160z"/></svg>