<svg xmlns="http://www.w3.org/2000/svg" viewBox="0 0 384 512"><path d="M378.94 321.41L284.7 224h49.22c15.3 0 23.66-16.6 13.86-27.53L234.45 69.96c3.43-6.61 5.55-14 5.55-21.96 0-26.51-21.49-48-48-48s-48 21.49-48 48c0 7.96 2.12 15.35 5.55 21.96L36.22 196.47C26.42 207.4 34.78 224 50.08 224H99.3L5.06 321.41C-6.69 333.56 3.34 352 21.7 352H160v32H48c-8.84 0-16 7.16-16 16v96c0 8.84 7.16 16 16 16h288c8.84 0 16-7.16 16-16v-96c0-8.84-7.16-16-16-16H224v-32h138.3c18.36 0 28.39-18.44 16.64-30.59zM192 31.98c8.85 0 16.02 7.17 16.02 16.02 0 8.84-7.17 16.02-16.02 16.02S175.98 56.84 175.98 48c0-8.85 7.17-16.02 16.02-16.02zM304 432v32H80v-32h224z"/></svg>