<svg xmlns="http://www.w3.org/2000/svg" viewBox="0 0 640 512"><path d="M290.547 189.039c-20.295-10.149-44.147-11.199-64.739-3.89 42.606 0 71.208 20.475 85.578 50.576 8.576 17.899-5.148 38.071-23.617 38.071 18.429 0 32.211 20.136 23.617 38.071-14.725 30.846-46.123 50.854-80.298 50.854-.557 0-94.471-8.615-94.471-8.615l-66.406 33.347c-9.384 4.693-19.815.379-23.895-7.781L1.86 290.747c-4.167-8.615-1.111-18.897 6.946-23.621l58.072-33.069L108 159.861c6.39-57.245 34.731-109.767 79.743-146.726 11.391-9.448 28.341-7.781 37.51 3.613 9.446 11.394 7.78 28.067-3.612 37.516-12.503 10.559-23.618 22.509-32.509 35.57 21.672-14.729 46.679-24.732 74.186-28.067 14.725-1.945 28.063 8.336 29.73 23.065 1.945 14.728-8.336 28.067-23.062 29.734-16.116 1.945-31.12 7.503-44.178 15.284 26.114-5.713 58.712-3.138 88.079 11.115 13.336 6.669 18.893 22.509 12.224 35.848-6.389 13.06-22.504 18.617-35.564 12.226zm-27.229 69.472c-6.112-12.505-18.338-20.286-32.231-20.286a35.46 35.46 0 0 0-35.565 35.57c0 21.428 17.808 35.57 35.565 35.57 13.893 0 26.119-7.781 32.231-20.286 4.446-9.449 13.614-15.006 23.339-15.284-9.725-.277-18.893-5.835-23.339-15.284zm374.821-37.237c4.168 8.615 1.111 18.897-6.946 23.621l-58.071 33.069L532 352.16c-6.39 57.245-34.731 109.767-79.743 146.726-10.932 9.112-27.799 8.144-37.51-3.613-9.446-11.394-7.78-28.067 3.613-37.516 12.503-10.559 23.617-22.509 32.508-35.57-21.672 14.729-46.679 24.732-74.186 28.067-10.021 2.506-27.552-5.643-29.73-23.065-1.945-14.728 8.336-28.067 23.062-29.734 16.116-1.946 31.12-7.503 44.178-15.284-26.114 5.713-58.712 3.138-88.079-11.115-13.336-6.669-18.893-22.509-12.224-35.848 6.389-13.061 22.505-18.619 35.565-12.227 20.295 10.149 44.147 11.199 64.739 3.89-42.606 0-71.208-20.475-85.578-50.576-8.576-17.899 5.148-38.071 23.617-38.071-18.429 0-32.211-20.136-23.617-38.071 14.033-29.396 44.039-50.887 81.966-50.854l92.803 8.615 66.406-33.347c9.408-4.704 19.828-.354 23.894 7.781l44.455 88.926zm-229.227-18.618c-13.893 0-26.119 7.781-32.231 20.286-4.446 9.449-13.614 15.006-23.339 15.284 9.725.278 18.893 5.836 23.339 15.284 6.112 12.505 18.338 20.286 32.231 20.286a35.46 35.46 0 0 0 35.565-35.57c0-21.429-17.808-35.57-35.565-35.57z"/></svg>