<svg xmlns="http://www.w3.org/2000/svg" viewBox="0 0 512 512"><path d="M216 260c0 15.464-12.536 28-28 28s-28-12.536-28-28c0-44.112 35.888-80 80-80s80 35.888 80 80c0 15.464-12.536 28-28 28s-28-12.536-28-28c0-13.234-10.767-24-24-24s-24 10.766-24 24zm24-176c-97.047 0-176 78.953-176 176 0 15.464 12.536 28 28 28s28-12.536 28-28c0-66.168 53.832-120 120-120s120 53.832 120 120c0 75.164-71.009 70.311-71.997 143.622L288 404c0 28.673-23.327 52-52 52-15.464 0-28 12.536-28 28s12.536 28 28 28c59.475 0 107.876-48.328 108-107.774.595-34.428 72-48.24 72-144.226 0-97.047-78.953-176-176-176zm-80 236c-17.673 0-32 14.327-32 32s14.327 32 32 32 32-14.327 32-32-14.327-32-32-32zM32 448c-17.673 0-32 14.327-32 32s14.327 32 32 32 32-14.327 32-32-14.327-32-32-32zm480-187.993c0-1.518-.012-3.025-.045-4.531C510.076 140.525 436.157 38.47 327.994 1.511c-14.633-4.998-30.549 2.809-35.55 17.442-5 14.633 2.81 30.549 17.442 35.55 85.906 29.354 144.61 110.513 146.077 201.953l.003.188c.026 1.118.033 2.236.033 3.363 0 15.464 12.536 28 28 28s28.001-12.536 28.001-28zM152.971 439.029l-80-80L39.03 392.97l80 80 33.941-33.941z"/></svg>