<svg xmlns="http://www.w3.org/2000/svg" viewBox="0 0 512 512"><path d="M162.925 238.709l8.822 30.655h-25.606l9.041-30.652c1.277-4.421 2.651-9.994 3.872-15.245 1.22 5.251 2.594 10.823 3.871 15.242zm166.474-32.099h-14.523v98.781h14.523c29.776 0 46.175-17.678 46.175-49.776 0-32.239-17.49-49.005-46.175-49.005zM512 112v288c0 26.51-21.49 48-48 48H48c-26.51 0-48-21.49-48-48V112c0-26.51 21.49-48 48-48h416c26.51 0 48 21.49 48 48zM245.459 336.139l-57.097-168A12.001 12.001 0 0 0 177 160h-35.894a12.001 12.001 0 0 0-11.362 8.139l-57.097 168C70.003 343.922 75.789 352 84.009 352h29.133a12 12 0 0 0 11.535-8.693l8.574-29.906h51.367l8.793 29.977A12 12 0 0 0 204.926 352h29.172c8.22 0 14.006-8.078 11.361-15.861zm184.701-80.525c0-58.977-37.919-95.614-98.96-95.614h-57.366c-6.627 0-12 5.373-12 12v168c0 6.627 5.373 12 12 12H331.2c61.041 0 98.96-36.933 98.96-96.386z"/></svg>