<svg xmlns="http://www.w3.org/2000/svg" viewBox="0 0 640 512"><path d="M272.35,226.4A17.71,17.71,0,0,0,281.46,203l-4-9.08a121.29,121.29,0,0,1,12.36-3.08A83.34,83.34,0,0,0,323.57,177l10,9a17.76,17.76,0,1,0,23.92-26.27l-9.72-8.76a83.12,83.12,0,0,0,11.65-48.18l11.85-3.51a17.73,17.73,0,1,0-10.15-34l-11.34,3.36a84,84,0,0,0-36.38-35.57l2.84-10.85a17.8,17.8,0,0,0-34.47-8.93l-2.82,10.78a83.25,83.25,0,0,0-16.74,1.1C250.83,27,240,30.22,229.1,33.39l-3.38-9.46a17.8,17.8,0,0,0-33.56,11.89l3.49,9.8a286.74,286.74,0,0,0-43.94,23.57l-6.32-8.43a17.9,17.9,0,0,0-24.94-3.6A17.69,17.69,0,0,0,116.84,82l6.45,8.61a286.59,286.59,0,0,0-34.95,35.33l-8.82-6.42a17.84,17.84,0,0,0-24.89,3.86,17.66,17.66,0,0,0,3.88,24.77l8.88,6.47a286.6,286.6,0,0,0-23,43.91l-10.48-3.59a17.73,17.73,0,1,0-11.59,33.52L32.67,232c-2.79,10-5.79,19.84-7.52,30.22a83.16,83.16,0,0,0-.82,19l-11.58,3.43a17.73,17.73,0,1,0,10.13,34l11.27-3.33a83.51,83.51,0,0,0,36.39,35.43l-2.88,11.06a17.81,17.81,0,0,0,34.48,8.92l2.87-11c1,0,2.07.26,3.1.26a83.39,83.39,0,0,0,45.65-13.88l8.59,8.8a17.77,17.77,0,0,0,25.56-24.7l-9.14-9.37a83.41,83.41,0,0,0,12.08-31.05,119.08,119.08,0,0,1,3.87-15.53l9,4.22a17.74,17.74,0,1,0,15.15-32.09l-8.8-4.11c.67-1,1.2-2.08,1.9-3.05a119.89,119.89,0,0,1,7.87-9.41,121.73,121.73,0,0,1,11.65-11.4,119.49,119.49,0,0,1,9.94-7.82c1.12-.77,2.32-1.42,3.47-2.15l3.92,8.85a17.86,17.86,0,0,0,16.32,10.58A18.14,18.14,0,0,0,272.35,226.4ZM128,256a32,32,0,1,1,32-32A32,32,0,0,1,128,256Zm80-96a16,16,0,1,1,16-16A16,16,0,0,1,208,160Zm431.26,45.3a17.79,17.79,0,0,0-17.06-12.69,17.55,17.55,0,0,0-5.08.74l-11.27,3.33a83.61,83.61,0,0,0-36.39-35.43l2.88-11.06a17.81,17.81,0,0,0-34.48-8.91l-2.87,11c-1,0-2.07-.26-3.1-.26a83.32,83.32,0,0,0-45.65,13.89l-8.59-8.81a17.77,17.77,0,0,0-25.56,24.7l9.14,9.37a83.28,83.28,0,0,0-12.08,31.06,119.34,119.34,0,0,1-3.87,15.52l-9-4.22a17.74,17.74,0,1,0-15.15,32.09l8.8,4.11c-.67,1-1.2,2.08-1.89,3.05a117.71,117.71,0,0,1-7.94,9.47,119,119,0,0,1-11.57,11.33,121.59,121.59,0,0,1-10,7.83c-1.12.77-2.32,1.42-3.47,2.15l-3.92-8.85a17.86,17.86,0,0,0-16.32-10.58,18.14,18.14,0,0,0-7.18,1.5A17.71,17.71,0,0,0,358.54,309l4,9.08a118.71,118.71,0,0,1-12.36,3.08,83.34,83.34,0,0,0-33.77,13.9l-10-9a17.77,17.77,0,1,0-23.92,26.28l9.72,8.75a83.12,83.12,0,0,0-11.65,48.18l-11.86,3.51a17.73,17.73,0,1,0,10.16,34l11.34-3.36A84,84,0,0,0,326.61,479l-2.84,10.85a17.8,17.8,0,0,0,34.47,8.93L361.06,488a83.3,83.3,0,0,0,16.74-1.1c11.37-1.89,22.24-5.07,33.1-8.24l3.38,9.46a17.8,17.8,0,0,0,33.56-11.89l-3.49-9.79a287.66,287.66,0,0,0,43.94-23.58l6.32,8.43a17.88,17.88,0,0,0,24.93,3.6A17.67,17.67,0,0,0,523.16,430l-6.45-8.61a287.37,287.37,0,0,0,34.95-35.34l8.82,6.42a17.76,17.76,0,1,0,21-28.63l-8.88-6.46a287.17,287.17,0,0,0,23-43.92l10.48,3.59a17.73,17.73,0,1,0,11.59-33.52L607.33,280c2.79-10,5.79-19.84,7.52-30.21a83.27,83.27,0,0,0,.82-19.05l11.58-3.43A17.7,17.7,0,0,0,639.26,205.3ZM416,416a32,32,0,1,1,32-32A32,32,0,0,1,416,416Z"/></svg>