<svg xmlns="http://www.w3.org/2000/svg" viewBox="0 0 512 512"><path d="M416 384H160c-35.35 0-64 28.65-64 64v32c0 17.67 14.33 32 32 32h320c17.67 0 32-14.33 32-32v-32c0-35.35-28.65-64-64-64zm-128 96c-17.67 0-32-14.33-32-32s14.33-32 32-32 32 14.33 32 32-14.33 32-32 32zm40-416h166.54L512 0H48C21.49 0 0 21.49 0 48v160c0 26.51 21.49 48 48 48h103.27l8.73 96h256l17.46-64H328c-4.42 0-8-3.58-8-8v-16c0-4.42 3.58-8 8-8h114.18l17.46-64H328c-4.42 0-8-3.58-8-8v-16c0-4.42 3.58-8 8-8h140.36l17.46-64H328c-4.42 0-8-3.58-8-8V72c0-4.42 3.58-8 8-8zM64 192V64h69.82l11.64 128H64z"/></svg>