<svg xmlns="http://www.w3.org/2000/svg" viewBox="0 0 384 512"><path d="M380.15 510.837a8 8 0 0 1-10.989-2.687l-125.33-206.427a31.923 31.923 0 0 0 12.958-9.485l126.048 207.608a8 8 0 0 1-2.687 10.991zM142.803 314.338l-32.54 89.485 36.12 88.285c6.693 16.36 25.377 24.192 41.733 17.501 16.357-6.692 24.193-25.376 17.501-41.734l-62.814-153.537zM96 88c24.301 0 44-19.699 44-44S120.301 0 96 0 52 19.699 52 44s19.699 44 44 44zm154.837 169.128l-120-152c-4.733-5.995-11.75-9.108-18.837-9.112V96H80v.026c-7.146.003-14.217 3.161-18.944 9.24L0 183.766v95.694c0 13.455 11.011 24.791 24.464 24.536C37.505 303.748 48 293.1 48 280v-79.766l16-20.571v140.698L9.927 469.055c-6.04 16.609 2.528 34.969 19.138 41.009 16.602 6.039 34.968-2.524 41.009-19.138L136 309.638V202.441l-31.406-39.816a4 4 0 1 1 6.269-4.971l102.3 129.217c9.145 11.584 24.368 11.339 33.708 3.965 10.41-8.216 12.159-23.334 3.966-33.708z"/></svg>