<svg xmlns="http://www.w3.org/2000/svg" viewBox="0 0 448 512"><path d="M272 136c8.8 0 16-7.2 16-16s-7.2-16-16-16-16 7.2-16 16 7.2 16 16 16zm176 222.4V25.6c0-16-9.6-25.6-25.6-25.6H96C41.6 0 0 41.6 0 96v320c0 54.4 41.6 96 96 96h326.4c12.8 0 25.6-9.6 25.6-25.6v-16c0-6.4-3.2-12.8-9.6-19.2-3.2-16-3.2-60.8 0-73.6 6.4-3.2 9.6-9.6 9.6-19.2zM240 56c44.2 0 80 28.7 80 64 0 20.9-12.7 39.2-32 50.9V184c0 8.8-7.2 16-16 16h-64c-8.8 0-16-7.2-16-16v-13.1c-19.3-11.7-32-30-32-50.9 0-35.3 35.8-64 80-64zM124.8 223.3l6.3-14.7c1.7-4.1 6.4-5.9 10.5-4.2l98.3 42.1 98.4-42.1c4.1-1.7 8.8.1 10.5 4.2l6.3 14.7c1.7 4.1-.1 8.8-4.2 10.5L280.6 264l70.3 30.1c4.1 1.7 5.9 6.4 4.2 10.5l-6.3 14.7c-1.7 4.1-6.4 5.9-10.5 4.2L240 281.4l-98.3 42.2c-4.1 1.7-8.8-.1-10.5-4.2l-6.3-14.7c-1.7-4.1.1-8.8 4.2-10.5l70.4-30.1-70.5-30.3c-4.1-1.7-5.9-6.4-4.2-10.5zm256 224.7H96c-19.2 0-32-12.8-32-32s16-32 32-32h284.8zM208 136c8.8 0 16-7.2 16-16s-7.2-16-16-16-16 7.2-16 16 7.2 16 16 16z"/></svg>