<svg xmlns="http://www.w3.org/2000/svg" viewBox="0 0 512 512"><path d="M464 64H48C21.5 64 0 85.5 0 112v288c0 26.5 21.5 48 48 48h416c26.5 0 48-21.5 48-48V112c0-26.5-21.5-48-48-48zM218.1 287.7c2.8-2.5 7.1-2.1 9.2.9l19.5 27.7c1.7 2.4 1.5 5.6-.5 7.7-53.6 56.8-172.8 32.1-172.8-67.9 0-97.3 121.7-119.5 172.5-70.1 2.1 2 2.5 3.2 1 5.7l-17.5 30.5c-1.9 3.1-6.2 4-9.1 1.7-40.8-32-94.6-14.9-94.6 31.2.1 48 51.1 70.5 92.3 32.6zm190.4 0c2.8-2.5 7.1-2.1 9.2.9l19.5 27.7c1.7 2.4 1.5 5.6-.5 7.7-53.5 56.9-172.7 32.1-172.7-67.9 0-97.3 121.7-119.5 172.5-70.1 2.1 2 2.5 3.2 1 5.7L420 222.2c-1.9 3.1-6.2 4-9.1 1.7-40.8-32-94.6-14.9-94.6 31.2 0 48 51 70.5 92.2 32.6z"/></svg>