<svg xmlns="http://www.w3.org/2000/svg" viewBox="0 0 512 512"><path d="M416 128c-.6 0-1.1.2-1.6.2 1.1-5.2 1.6-10.6 1.6-16.2 0-44.2-35.8-80-80-80-24.6 0-46.3 11.3-61 28.8C256.4 24.8 219.3 0 176 0 114.1 0 64 50.1 64 112c0 7.3.8 14.3 2.1 21.2C27.8 145.8 0 181.5 0 224c0 53 43 96 96 96h320c53 0 96-43 96-96s-43-96-96-96zM88 374.2c-12.8 44.4-40 56.4-40 87.7 0 27.7 21.5 50.1 48 50.1s48-22.4 48-50.1c0-31.4-27.2-43.1-40-87.7-2.2-8.1-13.5-8.5-16 0zm160 0c-12.8 44.4-40 56.4-40 87.7 0 27.7 21.5 50.1 48 50.1s48-22.4 48-50.1c0-31.4-27.2-43.1-40-87.7-2.2-8.1-13.5-8.5-16 0zm160 0c-12.8 44.4-40 56.4-40 87.7 0 27.7 21.5 50.1 48 50.1s48-22.4 48-50.1c0-31.4-27.2-43.1-40-87.7-2.2-8.1-13.5-8.5-16 0z"/></svg>