<svg xmlns="http://www.w3.org/2000/svg" viewBox="0 0 640 512"><path d="M637.3 256.9l-19.6-29.4c-28.2-42.3-75.3-67.5-126.1-67.5H256l-81.2-81.2c20.1-20.1 22.6-51.1 7.5-73.9-3.4-5.2-10.8-5.9-15.2-1.5l-41.8 41.8L82.4 2.4c-3.6-3.6-9.6-3-12.4 1.2-12.3 18.6-10.3 44 6.1 60.4 3.3 3.3 7.3 5.3 11.3 7.5-2.2 1.7-4.7 3.1-6.4 5.4L6.4 176.2c-7.3 9.7-8.4 22.7-3 33.5l14.3 28.6c5.4 10.8 16.5 17.7 28.6 17.7h31c8.5 0 16.6-3.4 22.6-9.4L138 212l54 108h352v-77.8c16.2 12.2 18.3 17.6 40.1 50.3 4.9 7.4 14.8 9.3 22.2 4.4l26.6-17.7c7.3-5 9.3-14.9 4.4-22.3zm-341.1-13.6l-16.5 16.1 3.9 22.7c.7 4.1-3.6 7.2-7.2 5.3L256 276.7l-20.4 10.7c-3.6 1.9-7.9-1.2-7.2-5.3l3.9-22.7-16.5-16.1c-3-2.9-1.3-7.9 2.8-8.5l22.8-3.3 10.2-20.7c1.8-3.7 7.1-3.7 9 0l10.2 20.7 22.8 3.3c4 .6 5.6 5.6 2.6 8.5zm112 0l-16.5 16.1 3.9 22.7c.7 4.1-3.6 7.2-7.2 5.3L368 276.7l-20.4 10.7c-3.6 1.9-7.9-1.2-7.2-5.3l3.9-22.7-16.5-16.1c-3-2.9-1.3-7.9 2.8-8.5l22.8-3.3 10.2-20.7c1.8-3.7 7.1-3.7 9 0l10.2 20.7 22.8 3.3c4 .6 5.6 5.6 2.6 8.5zm112 0l-16.5 16.1 3.9 22.7c.7 4.1-3.6 7.2-7.2 5.3L480 276.7l-20.4 10.7c-3.6 1.9-7.9-1.2-7.2-5.3l3.9-22.7-16.5-16.1c-3-2.9-1.3-7.9 2.8-8.5l22.8-3.3 10.2-20.7c1.8-3.7 7.1-3.7 9 0l10.2 20.7 22.8 3.3c4 .6 5.6 5.6 2.6 8.5zM192 496c0 8.8 7.2 16 16 16h64c8.8 0 16-7.2 16-16v-80h160v80c0 8.8 7.2 16 16 16h64c8.8 0 16-7.2 16-16V352H192v144z"/></svg>