<svg xmlns="http://www.w3.org/2000/svg" viewBox="0 0 512 512"><path d="M495 225.06l-17.22 1.08c-5.27-39.49-20.79-75.64-43.86-105.84l12.95-11.43c6.92-6.11 7.25-16.79.73-23.31L426.44 64.4c-6.53-6.53-17.21-6.19-23.31.73L391.7 78.07c-30.2-23.06-66.35-38.58-105.83-43.86L286.94 17c.58-9.21-6.74-17-15.97-17h-29.94c-9.23 0-16.54 7.79-15.97 17l1.08 17.22c-39.49 5.27-75.64 20.79-105.83 43.86l-11.43-12.95c-6.11-6.92-16.79-7.25-23.31-.73L64.4 85.56c-6.53 6.53-6.19 17.21.73 23.31l12.95 11.43c-23.06 30.2-38.58 66.35-43.86 105.84L17 225.06c-9.21-.58-17 6.74-17 15.97v29.94c0 9.23 7.79 16.54 17 15.97l17.22-1.08c5.27 39.49 20.79 75.64 43.86 105.83l-12.95 11.43c-6.92 6.11-7.25 16.79-.73 23.31l21.17 21.17c6.53 6.53 17.21 6.19 23.31-.73l11.43-12.95c30.2 23.06 66.35 38.58 105.84 43.86L225.06 495c-.58 9.21 6.74 17 15.97 17h29.94c9.23 0 16.54-7.79 15.97-17l-1.08-17.22c39.49-5.27 75.64-20.79 105.84-43.86l11.43 12.95c6.11 6.92 16.79 7.25 23.31.73l21.17-21.17c6.53-6.53 6.19-17.21-.73-23.31l-12.95-11.43c23.06-30.2 38.58-66.35 43.86-105.83l17.22 1.08c9.21.58 17-6.74 17-15.97v-29.94c-.01-9.23-7.8-16.54-17.01-15.97zM281.84 98.61c24.81 4.07 47.63 13.66 67.23 27.78l-42.62 48.29c-8.73-5.44-18.32-9.54-28.62-11.95l4.01-64.12zm-51.68 0l4.01 64.12c-10.29 2.41-19.89 6.52-28.62 11.95l-42.62-48.29c19.6-14.12 42.42-23.71 67.23-27.78zm-103.77 64.33l48.3 42.61c-5.44 8.73-9.54 18.33-11.96 28.62l-64.12-4.01c4.07-24.81 13.66-47.62 27.78-67.22zm-27.78 118.9l64.12-4.01c2.41 10.29 6.52 19.89 11.95 28.62l-48.29 42.62c-14.12-19.6-23.71-42.42-27.78-67.23zm131.55 131.55c-24.81-4.07-47.63-13.66-67.23-27.78l42.61-48.3c8.73 5.44 18.33 9.54 28.62 11.96l-4 64.12zM256 288c-17.67 0-32-14.33-32-32s14.33-32 32-32 32 14.33 32 32-14.33 32-32 32zm25.84 125.39l-4.01-64.12c10.29-2.41 19.89-6.52 28.62-11.96l42.61 48.3c-19.6 14.12-42.41 23.71-67.22 27.78zm103.77-64.33l-48.29-42.62c5.44-8.73 9.54-18.32 11.95-28.62l64.12 4.01c-4.07 24.82-13.66 47.64-27.78 67.23zm-36.34-114.89c-2.41-10.29-6.52-19.89-11.96-28.62l48.3-42.61c14.12 19.6 23.71 42.42 27.78 67.23l-64.12 4z"/></svg>