<svg xmlns="http://www.w3.org/2000/svg" viewBox="0 0 512 512"><path d="M128.73 195.32l-82.81-51.76c-8.04-5.02-18.99-2.17-22.93 6.45A254.19 254.19 0 0 0 .54 239.28C-.05 248.37 7.59 256 16.69 256h97.13c7.96 0 14.08-6.25 15.01-14.16 1.09-9.33 3.24-18.33 6.24-26.94 2.56-7.34.25-15.46-6.34-19.58zM319.03 8C298.86 2.82 277.77 0 256 0s-42.86 2.82-63.03 8c-9.17 2.35-13.91 12.6-10.39 21.39l37.47 104.03A16.003 16.003 0 0 0 235.1 144h41.8c6.75 0 12.77-4.23 15.05-10.58l37.47-104.03c3.52-8.79-1.22-19.03-10.39-21.39zM112 288H16c-8.84 0-16 7.16-16 16v64c0 8.84 7.16 16 16 16h96c8.84 0 16-7.16 16-16v-64c0-8.84-7.16-16-16-16zm0 128H16c-8.84 0-16 7.16-16 16v64c0 8.84 7.16 16 16 16h96c8.84 0 16-7.16 16-16v-64c0-8.84-7.16-16-16-16zm77.31-283.67l-36.32-90.8c-3.53-8.83-14.13-12.99-22.42-8.31a257.308 257.308 0 0 0-71.61 59.89c-6.06 7.32-3.85 18.48 4.22 23.52l82.93 51.83c6.51 4.07 14.66 2.62 20.11-2.79 5.18-5.15 10.79-9.85 16.79-14.05 6.28-4.41 9.15-12.17 6.3-19.29zM398.18 256h97.13c9.1 0 16.74-7.63 16.15-16.72a254.135 254.135 0 0 0-22.45-89.27c-3.94-8.62-14.89-11.47-22.93-6.45l-82.81 51.76c-6.59 4.12-8.9 12.24-6.34 19.58 3.01 8.61 5.15 17.62 6.24 26.94.93 7.91 7.05 14.16 15.01 14.16zm54.85-162.89a257.308 257.308 0 0 0-71.61-59.89c-8.28-4.68-18.88-.52-22.42 8.31l-36.32 90.8c-2.85 7.12.02 14.88 6.3 19.28 6 4.2 11.61 8.9 16.79 14.05 5.44 5.41 13.6 6.86 20.11 2.79l82.93-51.83c8.07-5.03 10.29-16.19 4.22-23.51zM496 288h-96c-8.84 0-16 7.16-16 16v64c0 8.84 7.16 16 16 16h96c8.84 0 16-7.16 16-16v-64c0-8.84-7.16-16-16-16zm0 128h-96c-8.84 0-16 7.16-16 16v64c0 8.84 7.16 16 16 16h96c8.84 0 16-7.16 16-16v-64c0-8.84-7.16-16-16-16zM240 177.62V472c0 4.42 3.58 8 8 8h16c4.42 0 8-3.58 8-8V177.62c-5.23-.89-10.52-1.62-16-1.62s-10.77.73-16 1.62zm-64 41.51V472c0 4.42 3.58 8 8 8h16c4.42 0 8-3.58 8-8V189.36c-12.78 7.45-23.84 17.47-32 29.77zm128-29.77V472c0 4.42 3.58 8 8 8h16c4.42 0 8-3.58 8-8V219.13c-8.16-12.3-19.22-22.32-32-29.77z"/></svg>