<svg xmlns="http://www.w3.org/2000/svg" viewBox="0 0 3992 512"><path d="M454.6 0H57.4C25.9 0 0 25.9 0 57.4v397.3C0 486.1 25.9 512 57.4 512h397.3c31.4 0 57.4-25.9 57.4-57.4V57.4C512 25.9 486.1 0 454.6 0zm-58.9 324.9c0 4.8-4.1 6.9-8.9 8.9-19.2 8.1-39.7 15.7-61.5 15.7-40.5 0-68.7-44.8-163.2 2.5v51.8c0 30.3-45.7 30.2-45.7 0v-250c-9-7-15-17.9-15-30.3 0-21 17.1-38.2 38.2-38.2 21 0 38.2 17.1 38.2 38.2 0 12.2-5.8 23.2-14.9 30.2v21c37.1-12 65.5-34.4 146.1-3.4 26.6 11.4 68.7-15.7 76.5-15.7 5.5 0 10.3 4.1 10.3 8.9v160.4zm432.9-174.2h-137v70.1H825c39.8 0 40.4 62.2 0 62.2H691.6v105.6c0 45.5-70.7 46.4-70.7 0V128.3c0-22 18-39.8 39.8-39.8h167.8c39.6 0 40.5 62.2.1 62.2zm191.1 23.4c-169.3 0-169.1 252.4 0 252.4 169.9 0 169.9-252.4 0-252.4zm0 196.1c-81.6 0-82.1-139.8 0-139.8 82.5 0 82.4 139.8 0 139.8zm372.4 53.4c-17.5 0-31.4-13.9-31.4-31.4v-117c0-62.4-72.6-52.5-99.1-16.4v133.4c0 41.5-63.3 41.8-63.3 0V208c0-40 63.1-41.6 63.1 0v3.4c43.3-51.6 162.4-60.4 162.4 39.3v141.5c.3 30.4-31.5 31.4-31.7 31.4zm179.7 2.9c-44.3 0-68.3-22.9-68.3-65.8V235.2H1488c-35.6 0-36.7-55.3 0-55.3h15.5v-37.3c0-41.3 63.8-42.1 63.8 0v37.5h24.9c35.4 0 35.7 55.3 0 55.3h-24.9v108.5c0 29.6 26.1 26.3 27.4 26.3 31.4 0 52.6 56.3-22.9 56.3zM1992 123c-19.5-50.2-95.5-50-114.5 0-107.3 275.7-99.5 252.7-99.5 262.8 0 42.8 58.3 51.2 72.1 14.4l13.5-35.9H2006l13 35.9c14.2 37.7 72.1 27.2 72.1-14.4 0-10.1 5.3 6.8-99.1-262.8zm-108.9 179.1l51.7-142.9 51.8 142.9h-103.5zm591.3-85.6l-53.7 176.3c-12.4 41.2-72 41-84 0l-42.3-135.9-42.3 135.9c-12.4 40.9-72 41.2-84.5 0l-54.2-176.3c-12.5-39.4 49.8-56.1 60.2-16.9L2213 342l45.3-139.5c10.9-32.7 59.6-34.7 71.2 0l45.3 139.5 39.3-142.4c10.3-38.3 72.6-23.8 60.3 16.9zm275.4 75.1c0-42.4-33.9-117.5-119.5-117.5-73.2 0-124.4 56.3-124.4 126 0 77.2 55.3 126.4 128.5 126.4 31.7 0 93-11.5 93-39.8 0-18.3-21.1-31.5-39.3-22.4-49.4 26.2-109 8.4-115.9-43.8h148.3c16.3 0 29.3-13.4 29.3-28.9zM2571 277.7c9.5-73.4 113.9-68.6 118.6 0H2571zm316.7 148.8c-31.4 0-81.6-10.5-96.6-31.9-12.4-17 2.5-39.8 21.8-39.8 16.3 0 36.8 22.9 77.7 22.9 27.4 0 40.4-11 40.4-25.8 0-39.8-142.9-7.4-142.9-102 0-40.4 35.3-75.7 98.6-75.7 31.4 0 74.1 9.9 87.6 29.4 10.8 14.8-1.4 36.2-20.9 36.2-15.1 0-26.7-17.3-66.2-17.3-22.9 0-37.8 10.5-37.8 23.8 0 35.9 142.4 6 142.4 103.1-.1 43.7-37.4 77.1-104.1 77.1zm266.8-252.4c-169.3 0-169.1 252.4 0 252.4 170.1 0 169.6-252.4 0-252.4zm0 196.1c-81.8 0-82-139.8 0-139.8 82.5 0 82.4 139.8 0 139.8zm476.9 22V268.7c0-53.8-61.4-45.8-85.7-10.5v134c0 41.3-63.8 42.1-63.8 0V268.7c0-52.1-59.5-47.4-85.7-10.1v133.6c0 41.5-63.3 41.8-63.3 0V208c0-40 63.1-41.6 63.1 0v3.4c9.9-14.4 41.8-37.3 78.6-37.3 35.3 0 57.7 16.4 66.7 43.8 13.9-21.8 45.8-43.8 82.6-43.8 44.3 0 70.7 23.4 70.7 72.7v145.3c.5 17.3-13.5 31.4-31.9 31.4 3.5.1-31.3 1.1-31.3-31.3zM3992 291.6c0-42.4-32.4-117.5-117.9-117.5-73.2 0-127.5 56.3-127.5 126 0 77.2 58.3 126.4 131.6 126.4 31.7 0 91.5-11.5 91.5-39.8 0-18.3-21.1-31.5-39.3-22.4-49.4 26.2-110.5 8.4-117.5-43.8h149.8c16.3 0 29.1-13.4 29.3-28.9zm-180.5-13.9c9.7-74.4 115.9-68.3 120.1 0h-120.1z"/></svg>