<svg xmlns="http://www.w3.org/2000/svg" viewBox="0 0 640 512"><path d="M102.4 256.1c-22.6 3.2-73.5 12-88.3 26.8-19.1 19.1-18.8 50.6.8 70.2s51 19.9 70.2.7c14.8-14.8 23.5-65.7 26.8-88.3.8-5.5-3.9-10.2-9.5-9.4zm523.4 26.8c-14.8-14.8-65.7-23.5-88.3-26.8-5.5-.8-10.3 3.9-9.5 9.5 3.2 22.6 12 73.5 26.8 88.3 19.2 19.2 50.6 18.9 70.2-.7s20-51.2.8-70.3zm-129.4-12.8c-3.8-26.6 19.1-49.5 45.7-45.7 8.9 1.3 16.8 2.7 24.3 4.1C552.7 104.5 447.7 8 320 8S87.3 104.5 73.6 228.5c7.5-1.4 15.4-2.8 24.3-4.1 33.2-3.9 48.6 25.3 45.7 45.7-11.8 82.3-29.9 100.4-35.8 106.4-.9.9-2 1.6-3 2.5 42.7 74.6 123 125 215.2 125s172.5-50.4 215.2-125.1c-1-.9-2.1-1.5-3-2.5-5.9-5.9-24-24-35.8-106.3zM400 152c23.8 0 52.7 29.3 56 71.4.7 8.6-10.8 12-14.9 4.5l-9.5-17c-7.7-13.7-19.2-21.6-31.5-21.6s-23.8 7.9-31.5 21.6l-9.5 17c-4.2 7.4-15.6 4-14.9-4.5 3.1-42.1 32-71.4 55.8-71.4zm-160 0c23.8 0 52.7 29.3 56 71.4.7 8.6-10.8 12-14.9 4.5l-9.5-17c-7.7-13.7-19.2-21.6-31.5-21.6s-23.8 7.9-31.5 21.6l-9.5 17c-4.2 7.4-15.6 4-14.9-4.5 3.1-42.1 32-71.4 55.8-71.4zm80 280c-60.6 0-134.5-38.3-143.8-93.3-2-11.7 9.2-21.6 20.7-17.9C227.1 330.5 272 336 320 336s92.9-5.5 123.1-15.2c11.4-3.7 22.6 6.1 20.7 17.9-9.3 55-83.2 93.3-143.8 93.3z"/></svg>