<svg xmlns="http://www.w3.org/2000/svg" viewBox="0 0 496 512"><path d="M248 8C111 8 0 119 0 256s111 248 248 248 248-111 248-248S385 8 248 8zM90.4 183.6c6.7-17.6 26.7-26.7 44.9-21.9l7.1 1.9 2-7.1c5-18.1 22.8-30.9 41.5-27.9 21.4 3.4 34.4 24.2 28.8 44.5L195.3 243c-1.2 4.5-5.9 7.2-10.5 6l-70.2-18.2c-20.4-5.4-31.9-27-24.2-47.2zM248 432c-60.6 0-134.5-38.3-143.8-93.3-2-11.8 9.2-21.5 20.7-17.9C155.1 330.5 200 336 248 336s92.9-5.5 123.1-15.2c11.4-3.6 22.6 6.1 20.7 17.9-9.3 55-83.2 93.3-143.8 93.3zm133.4-201.3l-70.2 18.2c-4.5 1.2-9.2-1.5-10.5-6L281.3 173c-5.6-20.3 7.4-41.1 28.8-44.5 18.6-3 36.4 9.8 41.5 27.9l2 7.1 7.1-1.9c18.2-4.7 38.2 4.3 44.9 21.9 7.7 20.3-3.8 41.9-24.2 47.2z"/></svg>