<svg xmlns="http://www.w3.org/2000/svg" viewBox="0 0 504 512"><path d="M456 128c26.5 0 48-21 48-47 0-20-28.5-60.4-41.6-77.8-3.2-4.3-9.6-4.3-12.8 0C436.5 20.6 408 61 408 81c0 26 21.5 47 48 47zm0 32c-44.1 0-80-35.4-80-79 0-4.4.3-14.2 8.1-32.2C345 23.1 298.3 8 248 8 111 8 0 119 0 256s111 248 248 248 248-111 248-248c0-35.1-7.4-68.4-20.5-98.6-6.3 1.5-12.7 2.6-19.5 2.6zm-128-8c23.8 0 52.7 29.3 56 71.4.7 8.6-10.8 12-14.9 4.5l-9.5-17c-7.7-13.7-19.2-21.6-31.5-21.6s-23.8 7.9-31.5 21.6l-9.5 17c-4.1 7.4-15.6 4-14.9-4.5 3.1-42.1 32-71.4 55.8-71.4zm-160 0c23.8 0 52.7 29.3 56 71.4.7 8.6-10.8 12-14.9 4.5l-9.5-17c-7.7-13.7-19.2-21.6-31.5-21.6s-23.8 7.9-31.5 21.6l-9.5 17c-4.2 7.4-15.6 4-14.9-4.5 3.1-42.1 32-71.4 55.8-71.4zm80 280c-60.6 0-134.5-38.3-143.8-93.3-2-11.8 9.3-21.6 20.7-17.9C155.1 330.5 200 336 248 336s92.9-5.5 123.1-15.2c11.5-3.7 22.6 6.2 20.7 17.9-9.3 55-83.2 93.3-143.8 93.3z"/></svg>