<svg xmlns="http://www.w3.org/2000/svg" viewBox="0 0 496 512"><path d="M248 8C111 8 0 119 0 256s111 248 248 248 248-111 248-248S385 8 248 8zm33.8 189.7l80-48c11.6-6.9 24 7.7 15.4 18L343.6 208l33.6 40.3c8.7 10.4-3.9 24.8-15.4 18l-80-48c-7.7-4.7-7.7-15.9 0-20.6zm-163-30c-8.6-10.3 3.8-24.9 15.4-18l80 48c7.8 4.7 7.8 15.9 0 20.6l-80 48c-11.5 6.8-24-7.6-15.4-18l33.6-40.3-33.6-40.3zM248 432c-60.6 0-134.5-38.3-143.8-93.3-2-11.9 9.4-21.6 20.7-17.9C155.1 330.5 200 336 248 336s92.9-5.5 123.1-15.2c11.5-3.7 22.6 6.2 20.7 17.9-9.3 55-83.2 93.3-143.8 93.3z"/></svg>