<svg xmlns="http://www.w3.org/2000/svg" viewBox="0 0 640 512"><path d="M0,128.21V384H64a32,32,0,0,0,32-32V184L23.83,128.21ZM48,320.1a16,16,0,1,1-16,16A16,16,0,0,1,48,320.1Zm80,31.81h18.3l90.5,81.89a64,64,0,0,0,90-9.3l.2-.2,17.91,15.5a37.16,37.16,0,0,0,52.29-5.39l8.8-10.82L128,208.72Zm416-223.7V352.1a32,32,0,0,0,32,32h64V128.21ZM592,352.1a16,16,0,1,1,16-16A16,16,0,0,1,592,352.1ZM303.33,202.67l59.58-54.57a16,16,0,0,1,21.59,23.61L358.41,195.6,504,313.8a73.08,73.08,0,0,1,7.91,7.7V128L457.3,73.41A31.76,31.76,0,0,0,434.7,64H348.8a31.93,31.93,0,0,0-21.6,8.41l-88.07,80.64-25.64-19.81L289.09,64H205.3a32,32,0,0,0-22.6,9.41L162.36,93.72,45.47,3.38A16,16,0,0,0,23,6.19L3.38,31.46A16,16,0,0,0,6.19,53.91L594.53,508.63A16,16,0,0,0,617,505.82l19.65-25.27a16,16,0,0,0-2.82-22.45Z"/></svg>