<svg xmlns="http://www.w3.org/2000/svg" viewBox="0 0 512 512"><path d="M464.8 80c-26.9-.4-48.8 21.2-48.8 48h-8V96.8c0-26.3-20.9-48.3-47.2-48.8-26.9-.4-48.8 21.2-48.8 48v32h-8V80.8c0-26.3-20.9-48.3-47.2-48.8-26.9-.4-48.8 21.2-48.8 48v48h-8V96.8c0-26.3-20.9-48.3-47.2-48.8-26.9-.4-48.8 21.2-48.8 48v136l-8-7.1v-48.1c0-26.3-20.9-48.3-47.2-48.8C21.9 127.6 0 149.2 0 176v66.4c0 27.4 11.7 53.5 32.2 71.8l111.7 99.3c10.2 9.1 16.1 22.2 16.1 35.9v6.7c0 13.3 10.7 24 24 24h240c13.3 0 24-10.7 24-24v-2.9c0-12.8 2.6-25.5 7.5-37.3l49-116.3c5-11.8 7.5-24.5 7.5-37.3V128.8c0-26.3-20.9-48.4-47.2-48.8z"/></svg>