<svg xmlns="http://www.w3.org/2000/svg" viewBox="0 0 512 512"><path d="M510.9005,145.27027,442.604,432.09391A103.99507,103.99507,0,0,1,341.43745,512H214.074a135.96968,135.96968,0,0,1-93.18489-36.95291L12.59072,373.12723a39.992,39.992,0,0,1,54.8122-58.24988l60.59342,57.02528v0a283.24849,283.24849,0,0,0-11.6703-80.46734L73.63726,147.36011a40.00575,40.00575,0,1,1,76.71833-22.7187l37.15458,125.39477a8.33113,8.33113,0,0,0,16.05656-4.4414L153.26183,49.95406A39.99638,39.99638,0,1,1,230.73015,30.0166l56.09491,218.15825a10.42047,10.42047,0,0,0,20.30018-.501L344.80766,63.96966a40.052,40.052,0,0,1,51.30245-30.0893c19.86073,6.2998,30.86262,27.67378,26.67564,48.08487l-33.83869,164.966a7.55172,7.55172,0,0,0,14.74406,3.2666l29.3973-123.45874a39.99414,39.99414,0,1,1,77.81208,18.53121Z"/></svg>