<svg xmlns="http://www.w3.org/2000/svg" viewBox="0 0 512 512"><path d="M44.8 155.826h149.234c-5.841-8.248-10.57-16.558-14.153-24.918C166.248 99.098 189.778 63.986 224 64c18.616.008 32.203 10.897 40 29.092 12.122 28.286 78.648 64.329 107.534 77.323 17.857 7.956 28.453 25.479 28.464 43.845l.002.001v171.526c0 11.812-8.596 21.897-20.269 23.703-46.837 7.25-61.76 38.483-123.731 38.315-2.724-.007-13.254.195-16 .195-50.654 0-81.574-22.122-72.6-71.263-18.597-9.297-30.738-39.486-16.45-62.315-24.645-21.177-22.639-53.896-6.299-70.944H44.8c-24.15 0-44.8-20.201-44.8-43.826 0-23.283 21.35-43.826 44.8-43.826zM440 176h48c13.255 0 24 10.745 24 24v192c0 13.255-10.745 24-24 24h-48c-13.255 0-24-10.745-24-24V200c0-13.255 10.745-24 24-24zm24 212c11.046 0 20-8.954 20-20s-8.954-20-20-20-20 8.954-20 20 8.954 20 20 20z"/></svg>