<svg xmlns="http://www.w3.org/2000/svg" viewBox="0 0 640 512"><path d="M232 160c-4.42 0-8 3.58-8 8v120h32V168c0-4.42-3.58-8-8-8h-16zm-64 0c-4.42 0-8 3.58-8 8v120h32V168c0-4.42-3.58-8-8-8h-16zm224 0c-4.42 0-8 3.58-8 8v120h32V168c0-4.42-3.58-8-8-8h-16zm64 0c-4.42 0-8 3.58-8 8v120h32V168c0-4.42-3.58-8-8-8h-16zm88 8c0-4.42-3.58-8-8-8h-16c-4.42 0-8 3.58-8 8v120h32V168zm-440-8c-4.42 0-8 3.58-8 8v120h32V168c0-4.42-3.58-8-8-8h-16zm520 0h-32c-8.84 0-16 7.16-16 16v112c0 17.67-14.33 32-32 32H352V128c0-8.84-7.16-16-16-16h-32c-8.84 0-16 7.16-16 16v192H96c-17.67 0-32-14.33-32-32V176c0-8.84-7.16-16-16-16H16c-8.84 0-16 7.16-16 16v112c0 53.02 42.98 96 96 96h192v64H112c-8.84 0-16 7.16-16 16v32c0 8.84 7.16 16 16 16h416c8.84 0 16-7.16 16-16v-32c0-8.84-7.16-16-16-16H352v-64h192c53.02 0 96-42.98 96-96V176c0-8.84-7.16-16-16-16zm-16-32c13.25 0 24-11.94 24-26.67S608 48 608 48s-24 38.61-24 53.33S594.75 128 608 128zm-576 0c13.25 0 24-11.94 24-26.67S32 48 32 48 8 86.61 8 101.33 18.75 128 32 128zm288-48c13.25 0 24-11.94 24-26.67S320 0 320 0s-24 38.61-24 53.33S306.75 80 320 80zm-208 48c13.25 0 24-11.94 24-26.67S112 48 112 48s-24 38.61-24 53.33S98.75 128 112 128zm64 0c13.25 0 24-11.94 24-26.67S176 48 176 48s-24 38.61-24 53.33S162.75 128 176 128zm64 0c13.25 0 24-11.94 24-26.67S240 48 240 48s-24 38.61-24 53.33S226.75 128 240 128zm160 0c13.25 0 24-11.94 24-26.67S400 48 400 48s-24 38.61-24 53.33S386.75 128 400 128zm64 0c13.25 0 24-11.94 24-26.67S464 48 464 48s-24 38.61-24 53.33S450.75 128 464 128zm64 0c13.25 0 24-11.94 24-26.67S528 48 528 48s-24 38.61-24 53.33S514.75 128 528 128z"/></svg>