<svg xmlns="http://www.w3.org/2000/svg" viewBox="0 0 576 512"><path d="M535.95308,352c-42.64069,94.17188-137.64086,160-247.9848,160q-6.39844,0-12.84377-.29688C171.15558,506.9375,81.26481,442.23438,40.01474,352H79.93668L21.3272,293.40625a264.82522,264.82522,0,0,1-5.10938-39.42187,273.6653,273.6653,0,0,1,.5-29.98438H63.93665L22.546,182.625A269.79782,269.79782,0,0,1,130.51489,20.54688a16.06393,16.06393,0,0,1,9.28127-3,16.36332,16.36332,0,0,1,13.5,7.25,16.02739,16.02739,0,0,1,1.625,15.09374,138.387,138.387,0,0,0-9.84376,51.26563c0,45.10937,21.04691,86.57813,57.71884,113.73437a16.29989,16.29989,0,0,1,1.20313,25.39063c-26.54692,23.98437-41.17194,56.5-41.17194,91.57813,0,60.03124,42.95319,110.28124,99.89079,121.92187l2.5-65.26563L238.062,397a8.33911,8.33911,0,0,1-10-.75,8.025,8.025,0,0,1-1.39063-9.9375l20.125-33.76562-42.06257-8.73438a7.9898,7.9898,0,0,1,0-15.65625l42.06257-8.71875-20.10941-33.73438a7.99122,7.99122,0,0,1,11.35939-10.71874L268.437,295.64062,279.95265,7.67188a7.97138,7.97138,0,0,1,8-7.67188h.04687a8.02064,8.02064,0,0,1,7.95314,7.70312L307.48394,295.625l30.39068-20.67188a8.08327,8.08327,0,0,1,10,.8125,7.99866,7.99866,0,0,1,1.39062,9.90626L329.12461,319.4375l42.07819,8.73438a7.99373,7.99373,0,0,1,0,15.65624l-42.07819,8.71876,20.1094,33.73437a7.97791,7.97791,0,0,1-1.32812,9.92187A8.25739,8.25739,0,0,1,337.87462,397L310.7027,378.53125l2.5,65.34375c48.48446-9.40625,87.57828-48.15625,97.31267-96.5A123.52652,123.52652,0,0,0,371.9528,230.29688a16.30634,16.30634,0,0,1,1.20313-25.42188c36.65631-27.17188,57.6876-68.60938,57.6876-113.73438a138.01689,138.01689,0,0,0-9.85939-51.3125,15.98132,15.98132,0,0,1,1.60937-15.09374,16.36914,16.36914,0,0,1,13.5-7.23438,16.02453,16.02453,0,0,1,9.25,2.98438A271.26947,271.26947,0,0,1,553.25,182.76562L511.99992,224h46.9532C559.3125,229.76562,560,235.45312,560,241.26562a270.092,270.092,0,0,1-5.125,51.85938L495.98427,352Z"/></svg>