<svg xmlns="http://www.w3.org/2000/svg" viewBox="0 0 640 512"><path d="M444.34 181.1c22.38 15.68 35.66 41.16 35.66 68.59V280c0 4.42 3.58 8 8 8h48c4.42 0 8-3.58 8-8v-30.31c0-43.24-21.01-83.41-56.34-108.06C463.85 125.02 448 99.34 448 70.31V8c0-4.42-3.58-8-8-8h-48c-4.42 0-8 3.58-8 8v66.4c0 43.69 24.56 81.63 60.34 106.7zM194.97 358.98C126.03 370.07 59.69 394.69 0 432c83.65 52.28 180.3 80 278.94 80h88.57L254.79 380.49c-14.74-17.2-37.45-25.11-59.82-21.51zM553.28 87.09c-5.67-3.8-9.28-9.96-9.28-16.78V8c0-4.42-3.58-8-8-8h-48c-4.42 0-8 3.58-8 8v62.31c0 22.02 10.17 43.41 28.64 55.39C550.79 153.04 576 199.54 576 249.69V280c0 4.42 3.58 8 8 8h48c4.42 0 8-3.58 8-8v-30.31c0-65.44-32.41-126.19-86.72-162.6zM360.89 352.05c-34.4.06-86.81.15-88.21.17l117.8 137.43A63.987 63.987 0 0 0 439.07 512h88.45L409.57 374.4a63.955 63.955 0 0 0-48.68-22.35zM616 352H432l117.99 137.65A63.987 63.987 0 0 0 598.58 512H616c13.25 0 24-10.75 24-24V376c0-13.26-10.75-24-24-24z"/></svg>