<svg xmlns="http://www.w3.org/2000/svg" viewBox="0 0 448 512"><path d="M438.40625,377.59375c-3.20313,12.8125-3.20313,57.60937,0,73.60937Q447.9922,460.78907,448,470.40625v16c0,16-12.79688,25.59375-25.59375,25.59375H96c-54.40625,0-96-41.59375-96-96V96C0,41.59375,41.59375,0,96,0H422.40625C438.40625,0,448,9.59375,448,25.59375v332.8125Q448,372.79688,438.40625,377.59375ZM380.79688,384H96c-16,0-32,12.79688-32,32s12.79688,32,32,32H380.79688ZM128.01562,176.01562c0,.51563.14063.98438.14063,1.5l37.10937,32.46876A7.99954,7.99954,0,0,1,160,224h-.01562a9.17678,9.17678,0,0,1-5.25-1.98438L131.14062,201.375C142.6875,250.95312,186.90625,288,240,288s97.3125-37.04688,108.875-86.625l-23.59375,20.64062a8.02516,8.02516,0,0,1-5.26563,1.96876H320a9.14641,9.14641,0,0,1-6.01562-2.71876A9.26508,9.26508,0,0,1,312,216a9.097,9.097,0,0,1,2.73438-6.01562l37.10937-32.46876c.01563-.53124.15625-1,.15625-1.51562,0-11.04688-2.09375-21.51562-5.06251-31.59375l-21.26562,21.25a8.00467,8.00467,0,0,1-11.32812-11.3125l26.42187-26.40625a111.81517,111.81517,0,0,0-46.35937-49.26562,63.02336,63.02336,0,0,1-14.0625,82.64062A55.83846,55.83846,0,0,1,251.625,254.73438l-1.42188-34.28126,12.67188,8.625a3.967,3.967,0,0,0,2.25.6875,3.98059,3.98059,0,0,0,3.43749-6.03124l-8.53124-14.3125,17.90625-3.71876a4.00647,4.00647,0,0,0,0-7.84374l-17.90625-3.71876,8.53124-14.3125a3.98059,3.98059,0,0,0-3.43749-6.03124,4.726,4.726,0,0,0-2.25.67187L248.6875,184.125,244,71.82812a4.00386,4.00386,0,0,0-8,0l-4.625,110.8125-12-8.15624a4.003,4.003,0,0,0-5.68751,5.35937l8.53126,14.3125L204.3125,197.875a3.99686,3.99686,0,0,0,0,7.82812l17.90625,3.73438-8.53126,14.29688a4.72469,4.72469,0,0,0-.56249,2.04687,4.59547,4.59547,0,0,0,1.25,2.90625,4.01059,4.01059,0,0,0,2.75,1.09375,4.09016,4.09016,0,0,0,2.25-.6875l10.35937-7.04687L228.375,254.76562a55.86414,55.86414,0,0,1-28.71875-93.45312,63.01119,63.01119,0,0,1-14.04688-82.65625,111.93158,111.93158,0,0,0-46.375,49.26563l26.42187,26.42187a7.99917,7.99917,0,0,1-11.3125,11.3125l-21.26563-21.26563C130.09375,154.48438,128,164.95312,128.01562,176.01562Z"/></svg>