<svg xmlns="http://www.w3.org/2000/svg" viewBox="0 0 512 512"><path d="M415.81 66c-6.37-3.5-14.37-2.33-19.36 3.02a15.974 15.974 0 0 0-1.91 19.52c16.49 26.16 25.2 56.39 25.2 87.41-.19 53.25-26.77 102.69-71.27 132.41l-76.63 53.35v-20.1l44.05-36.09c3.92-4.2 5-10.09 2.81-15.28L310.85 273c33.84-19.26 56.94-55.25 56.94-96.99 0-40.79-22.02-76.13-54.59-95.71l5.22-11.44c2.34-5.53.93-11.83-3.57-16.04L255.86 0l-58.99 52.81c-4.5 4.21-5.9 10.51-3.57 16.04l5.22 11.44c-32.57 19.58-54.59 54.93-54.59 95.72 0 41.75 23.09 77.73 56.94 96.99l-7.85 17.24c-2.19 5.18-1.1 11.07 2.81 15.28l44.05 36.09v19.9l-76.59-53.33C119.02 278.62 92.44 229.19 92.26 176c0-31.08 8.71-61.31 25.2-87.47 3.87-6.16 2.4-13.77-2.59-19.08-5-5.34-13.68-6.2-20.02-2.7C16.32 109.6-22.3 205.3 13.36 295.99c7.07 17.99 17.89 34.38 30.46 49.06l55.97 65.36c4.87 5.69 13.04 7.24 19.65 3.72l79.35-42.23L228 392.23l-47.08 32.78c-1.67-.37-3.23-1.01-5.01-1.01-13.25 0-23.99 10.74-23.99 24 0 13.25 10.74 24 23.99 24 12.1 0 21.69-9.11 23.33-20.76l40.63-28.28v29.95c-9.39 5.57-15.99 15.38-15.99 27.1 0 17.67 14.32 32 31.98 32s31.98-14.33 31.98-32c0-11.71-6.61-21.52-15.99-27.1v-30.15l40.91 28.48C314.41 462.89 324 472 336.09 472c13.25 0 23.99-10.75 23.99-24 0-13.26-10.74-24-23.99-24-1.78 0-3.34.64-5.01 1.01L284 392.23l29.21-20.34 79.35 42.23c6.61 3.52 14.78 1.97 19.65-3.71l52.51-61.31c18.87-22.02 34-47.5 41.25-75.59 21.62-83.66-16.45-167.27-90.16-207.51zm-95.99 110c0 22.3-11.49 41.92-28.83 53.38l-5.65-12.41c-8.75-24.52-8.75-51.04 0-75.56l7.83-17.18c16.07 11.65 26.65 30.45 26.65 51.77zm-127.93 0c0-21.32 10.58-40.12 26.66-51.76l7.83 17.18c8.75 24.52 8.75 51.03 0 75.56l-5.65 12.41c-17.34-11.46-28.84-31.09-28.84-53.39z"/></svg>