<svg xmlns="http://www.w3.org/2000/svg" viewBox="0 0 496 512"><path d="M248 8C111 8 0 119 0 256s111 248 248 248 248-111 248-248S385 8 248 8zm-39 219.9l-9.5-17c-7.7-13.7-19.2-21.6-31.5-21.6s-23.8 7.9-31.5 21.6l-9.5 17c-4.2 7.4-15.6 4-14.9-4.5 3.3-42.1 32.2-71.4 56-71.4s52.7 29.3 56 71.4c.5 8.5-10.9 12-15.1 4.5zM304 396c0 19.2-28.7 41.5-71.5 44-8.5.8-12.1-11.8-3.6-15.4l17-7.2c13-5.5 20.8-13.5 20.8-21.5s-7.8-16-20.8-21.5l-17-7.2c-6-2.5-6.1-12.2 0-14.8l17-7.2c13-5.5 20.8-13.5 20.8-21.5s-7.8-16-20.8-21.5l-17-7.2c-8.6-3.6-4.8-16.5 3.6-15.4 42.8 2.5 71.5 24.8 71.5 44 0 13-13.4 27.3-35.2 36C290.6 368.7 304 383 304 396zm65-168.1l-9.5-17c-7.7-13.7-19.2-21.6-31.5-21.6s-23.8 7.9-31.5 21.6l-9.5 17c-4.1 7.3-15.6 4-14.9-4.5 3.3-42.1 32.2-71.4 56-71.4s52.7 29.3 56 71.4c.5 8.5-10.9 12-15.1 4.5z"/></svg>