<svg xmlns="http://www.w3.org/2000/svg" viewBox="0 0 640 512"><path d="M640 130.94V96c0-17.67-14.33-32-32-32H32C14.33 64 0 78.33 0 96v34.94c18.6 6.61 32 24.19 32 45.06s-13.4 38.45-32 45.06V320h640v-98.94c-18.6-6.61-32-24.19-32-45.06s13.4-38.45 32-45.06zM224 256h-64V128h64v128zm128 0h-64V128h64v128zm128 0h-64V128h64v128zM0 448h64v-26.67c0-8.84 7.16-16 16-16s16 7.16 16 16V448h128v-26.67c0-8.84 7.16-16 16-16s16 7.16 16 16V448h128v-26.67c0-8.84 7.16-16 16-16s16 7.16 16 16V448h128v-26.67c0-8.84 7.16-16 16-16s16 7.16 16 16V448h64v-96H0v96z"/></svg>