<svg xmlns="http://www.w3.org/2000/svg" viewBox="0 0 640 512"><path d="M633.82 458.1l-157.8-121.96C488.61 312.13 496 285.01 496 256v-48c0-8.84-7.16-16-16-16h-16c-8.84 0-16 7.16-16 16v48c0 17.92-3.96 34.8-10.72 50.2l-26.55-20.52c3.1-9.4 5.28-19.22 5.28-29.67V96c0-53.02-42.98-96-96-96s-96 42.98-96 96v45.36L45.47 3.37C38.49-2.05 28.43-.8 23.01 6.18L3.37 31.45C-2.05 38.42-.8 48.47 6.18 53.9l588.36 454.73c6.98 5.43 17.03 4.17 22.46-2.81l19.64-25.27c5.41-6.97 4.16-17.02-2.82-22.45zM400 464h-56v-33.77c11.66-1.6 22.85-4.54 33.67-8.31l-50.11-38.73c-6.71.4-13.41.87-20.35.2-55.85-5.45-98.74-48.63-111.18-101.85L144 241.31v6.85c0 89.64 63.97 169.55 152 181.69V464h-56c-8.84 0-16 7.16-16 16v16c0 8.84 7.16 16 16 16h160c8.84 0 16-7.16 16-16v-16c0-8.84-7.16-16-16-16z"/></svg>