<svg xmlns="http://www.w3.org/2000/svg" viewBox="0 0 448 512"><path d="M416 208c17.67 0 32-14.33 32-32v-32c0-17.67-14.33-32-32-32h-23.88l51.87-66.81c5.37-7.02 4.04-17.06-2.97-22.43L415.61 3.3c-7.02-5.38-17.06-4.04-22.44 2.97L311.09 112H32c-17.67 0-32 14.33-32 32v32c0 17.67 14.33 32 32 32h204.56l-74.53 96H32c-17.67 0-32 14.33-32 32v32c0 17.67 14.33 32 32 32h55.49l-51.87 66.81c-5.37 7.01-4.04 17.05 2.97 22.43L64 508.7c7.02 5.38 17.06 4.04 22.43-2.97L168.52 400H416c17.67 0 32-14.33 32-32v-32c0-17.67-14.33-32-32-32H243.05l74.53-96H416z"/></svg>