<svg xmlns="http://www.w3.org/2000/svg" viewBox="0 0 640 512"><path d="M268.2 381.4l-49.6-60.6c-6.8-8.3-18.2-11.1-28-6.9l-112 48c-10.7 4.6-16.5 16.1-13.9 27.5l24 104c2.5 10.8 12.1 18.6 23.4 18.6 100.7 0 193.7-32.4 269.7-86.9l-80-61.8c-10.9 6.5-22.1 12.7-33.6 18.1zm365.6 76.7L475.1 335.5C537.9 256.4 576 156.9 576 48c0-11.2-7.7-20.9-18.6-23.4l-104-24c-11.3-2.6-22.9 3.3-27.5 13.9l-48 112c-4.2 9.8-1.4 21.3 6.9 28l60.6 49.6c-12.2 26.1-27.9 50.3-46 72.8L45.5 3.4C38.5-2 28.5-.8 23 6.2L3.4 31.4c-5.4 7-4.2 17 2.8 22.4l588.4 454.7c7 5.4 17 4.2 22.5-2.8l19.6-25.3c5.4-6.8 4.1-16.9-2.9-22.3z"/></svg>