<svg xmlns="http://www.w3.org/2000/svg" viewBox="0 0 448 512"><path d="M448 358.4V25.6c0-16-9.6-25.6-25.6-25.6H96C41.6 0 0 41.6 0 96v320c0 54.4 41.6 96 96 96h326.4c12.8 0 25.6-9.6 25.6-25.6v-16c0-6.4-3.2-12.8-9.6-19.2-3.2-16-3.2-60.8 0-73.6 6.4-3.2 9.6-9.6 9.6-19.2zM301.08 145.82c.6-1.21 1.76-1.82 2.92-1.82s2.32.61 2.92 1.82l11.18 22.65 25 3.63c2.67.39 3.74 3.67 1.81 5.56l-18.09 17.63 4.27 24.89c.36 2.11-1.31 3.82-3.21 3.82-.5 0-1.02-.12-1.52-.38L304 211.87l-22.36 11.75c-.5.26-1.02.38-1.52.38-1.9 0-3.57-1.71-3.21-3.82l4.27-24.89-18.09-17.63c-1.94-1.89-.87-5.17 1.81-5.56l24.99-3.63 11.19-22.65zm-57.89-69.01c13.67 0 27.26 2.49 40.38 7.41a6.775 6.775 0 1 1-2.38 13.12c-.67 0-3.09-.21-4.13-.21-52.31 0-94.86 42.55-94.86 94.86 0 52.3 42.55 94.86 94.86 94.86 1.03 0 3.48-.21 4.13-.21 3.93 0 6.8 3.14 6.8 6.78 0 2.98-1.94 5.51-4.62 6.42-13.07 4.87-26.59 7.34-40.19 7.34C179.67 307.19 128 255.51 128 192c0-63.52 51.67-115.19 115.19-115.19zM380.8 448H96c-19.2 0-32-12.8-32-32s16-32 32-32h284.8v64z"/></svg>