<svg xmlns="http://www.w3.org/2000/svg" viewBox="0 0 640 512"><path d="M128 128c35.3 0 64-28.7 64-64S163.3 0 128 0 64 28.7 64 64s28.7 64 64 64zm384 0c35.3 0 64-28.7 64-64S547.3 0 512 0s-64 28.7-64 64 28.7 64 64 64zm127.3 226.5l-45.6-185.8c-3.3-13.5-15.5-23-29.8-24.2-15 9.7-32.8 15.5-52 15.5-19.2 0-37-5.8-52-15.5-14.3 1.2-26.5 10.7-29.8 24.2l-45.6 185.8C381 369.6 393 384 409.2 384H464v104c0 13.3 10.7 24 24 24h48c13.3 0 24-10.7 24-24V384h54.8c16.2 0 28.2-14.4 24.5-29.5zM336 0h-32c-8.8 0-16 7.2-16 16v480c0 8.8 7.2 16 16 16h32c8.8 0 16-7.2 16-16V16c0-8.8-7.2-16-16-16zM180.1 144.4c-15 9.8-32.9 15.6-52.1 15.6-19.2 0-37.1-5.8-52.1-15.6C51.3 146.5 32 166.9 32 192v136c0 13.3 10.7 24 24 24h8v136c0 13.3 10.7 24 24 24h80c13.3 0 24-10.7 24-24V352h8c13.3 0 24-10.7 24-24V192c0-25.1-19.3-45.5-43.9-47.6z"/></svg>