<svg xmlns="http://www.w3.org/2000/svg" viewBox="0 0 496 512"><path d="M248 8C111 8 0 119 0 256c0 90.1 48.2 168.7 120 212.1V288c0-8.8 7.2-16 16-16s16 7.2 16 16v196.7c29.5 12.4 62 19.3 96 19.3s66.5-6.9 96-19.3V288c0-8.8 7.2-16 16-16s16 7.2 16 16v180.1C447.8 424.7 496 346 496 256 496 119 385 8 248 8zm-65.5 216.5c-14.8-13.2-46.2-13.2-61 0L112 233c-3.8 3.3-9.3 4-13.7 1.6-4.4-2.4-6.9-7.4-6.1-12.4 4-25.2 34.2-42.1 59.9-42.1S208 197 212 222.2c.8 5-1.7 10-6.1 12.4-5.8 3.1-11.2.7-13.7-1.6l-9.7-8.5zM248 416c-26.5 0-48-28.7-48-64s21.5-64 48-64 48 28.7 48 64-21.5 64-48 64zm149.8-181.5c-5.8 3.1-11.2.7-13.7-1.6l-9.5-8.5c-14.8-13.2-46.2-13.2-61 0L304 233c-3.8 3.3-9.3 4-13.7 1.6-4.4-2.4-6.9-7.4-6.1-12.4 4-25.2 34.2-42.1 59.9-42.1S400 197 404 222.2c.6 4.9-1.8 9.9-6.2 12.3z"/></svg>