<svg xmlns="http://www.w3.org/2000/svg" viewBox="0 0 640 512"><path d="M592.604 208.244C559.735 192.836 515.777 184 472 184H186.327c-4.952-6.555-10.585-11.978-16.72-16H376C229.157 137.747 219.403 32 96.003 32H96v128H80V32c-26.51 0-48 28.654-48 64v64c-23.197 0-32 10.032-32 24v40c0 13.983 8.819 24 32 24v16c-23.197 0-32 10.032-32 24v40c0 13.983 8.819 24 32 24v64c0 35.346 21.49 64 48 64V352h16v128h.003c123.4 0 133.154-105.747 279.997-136H169.606c6.135-4.022 11.768-9.445 16.72-16H472c43.777 0 87.735-8.836 120.604-24.244C622.282 289.845 640 271.992 640 256s-17.718-33.845-47.396-47.756zM488 296a8 8 0 0 1-8-8v-64a8 8 0 0 1 8-8c31.909 0 31.942 80 0 80z"/></svg>