<svg xmlns="http://www.w3.org/2000/svg" viewBox="0 0 576 512"><path d="M272 256h91.36c43.2 0 82-32.2 84.51-75.34a79.82 79.82 0 0 0-25.26-63.07 79.81 79.81 0 0 0 9.06-44.91C427.9 30.57 389.3 0 347 0h-75a16 16 0 0 0-16 16v224a16 16 0 0 0 16 16zm40-200h40a24 24 0 0 1 0 48h-40zm0 96h56a24 24 0 0 1 0 48h-56zM155.12 22.25A32 32 0 0 0 124.64 0H99.36a32 32 0 0 0-30.48 22.25L.59 235.73A16 16 0 0 0 16 256h24.93a16 16 0 0 0 15.42-11.73L68.29 208h87.42l11.94 36.27A16 16 0 0 0 183.07 256H208a16 16 0 0 0 15.42-20.27zM89.37 144L112 75.3l22.63 68.7zm482 132.48l-45.21-45.3a15.88 15.88 0 0 0-22.59 0l-151.5 151.5-55.41-55.5a15.88 15.88 0 0 0-22.59 0l-45.3 45.3a16 16 0 0 0 0 22.59l112 112.21a15.89 15.89 0 0 0 22.6 0l208-208.21a16 16 0 0 0-.02-22.59z"/></svg>