<svg xmlns="http://www.w3.org/2000/svg" viewBox="0 0 640 512"><path d="M121.51,384V284.2a119.43,119.43,0,0,1-28,3.8,123.46,123.46,0,0,1-17.1-1.2,114.88,114.88,0,0,1-15.58-3.6V480c0,17.7,13.59,32,30.4,32H505.75L348.42,384Zm-28-128.09c25.1,0,47.29-10.72,64-27.24L24,120.05c-30.52,53.39-2.45,126.53,56.49,135A95.68,95.68,0,0,0,93.48,255.91ZM602.13,458.09,547.2,413.41V283.2a93.5,93.5,0,0,1-15.57,3.6,127.31,127.31,0,0,1-17.29,1.2,114.89,114.89,0,0,1-28-3.8v79.68L348.52,251.77a88.06,88.06,0,0,0,25.41,4.14c28.11,0,53-13,70.11-33.11,17.19,20.11,42.08,33.11,70.11,33.11a94.31,94.31,0,0,0,13-.91c59.66-8.41,88-82.8,56.06-136.4L521.55,15A30.1,30.1,0,0,0,495.81,0H112A30.11,30.11,0,0,0,86.27,15L76.88,30.78,43.19,3.38A14.68,14.68,0,0,0,21.86,6.19L3.2,31.45A16.58,16.58,0,0,0,5.87,53.91L564.81,508.63a14.69,14.69,0,0,0,21.33-2.82l18.66-25.26A16.58,16.58,0,0,0,602.13,458.09Z"/></svg>