<svg xmlns="http://www.w3.org/2000/svg" viewBox="0 0 640 512"><path d="M544 0H96C42.98 0 0 42.98 0 96v64c0 35.35 28.66 64 64 64h512c35.34 0 64-28.65 64-64V96c0-53.02-42.98-96-96-96zM160 176c0 8.84-7.16 16-16 16H80c-8.84 0-16-7.16-16-16v-32c0-26.51 21.49-48 48-48s48 21.49 48 48v32zm144 0c0 8.84-7.16 16-16 16h-80c-8.84 0-16-7.16-16-16v-56c0-30.93 25.07-56 56-56s56 25.07 56 56v56zm144 0c0 8.84-7.16 16-16 16h-80c-8.84 0-16-7.16-16-16v-56c0-30.93 25.07-56 56-56s56 25.07 56 56v56zm128 0c0 8.84-7.16 16-16 16h-64c-8.84 0-16-7.16-16-16v-32c0-26.51 21.49-48 48-48s48 21.49 48 48v32zm0 144H64c-35.34 0-64 28.65-64 64v32c0 53.02 42.98 96 96 96h448c53.02 0 96-42.98 96-96v-32c0-35.35-28.66-64-64-64zm-416 80c0 26.51-21.49 48-48 48s-48-21.49-48-48v-32c0-8.84 7.16-16 16-16h64c8.84 0 16 7.16 16 16v32zm144-8c0 30.93-25.07 56-56 56s-56-25.07-56-56v-24c0-8.84 7.16-16 16-16h80c8.84 0 16 7.16 16 16v24zm144 0c0 30.93-25.07 56-56 56s-56-25.07-56-56v-24c0-8.84 7.16-16 16-16h80c8.84 0 16 7.16 16 16v24zm128 8c0 26.51-21.49 48-48 48s-48-21.49-48-48v-32c0-8.84 7.16-16 16-16h64c8.84 0 16 7.16 16 16v32z"/></svg>