<svg xmlns="http://www.w3.org/2000/svg" viewBox="0 0 496 512"><path d="M248 8C111 8 0 119 0 256s111 248 248 248 248-111 248-248S385 8 248 8zm33.8 189.7l80-48c11.6-6.9 24 7.7 15.4 18L343.6 208l33.6 40.3c8.7 10.4-3.9 24.8-15.4 18l-80-48c-7.7-4.7-7.7-15.9 0-20.6zm-163-30c-8.6-10.3 3.8-24.9 15.4-18l80 48c7.8 4.7 7.8 15.9 0 20.6l-80 48c-11.5 6.8-24-7.6-15.4-18l33.6-40.3-33.6-40.3zM248 288c51.9 0 115.3 43.8 123.2 106.7 1.7 13.6-8 24.6-17.7 20.4-25.9-11.1-64.4-17.4-105.5-17.4s-79.6 6.3-105.5 17.4c-9.8 4.2-19.4-7-17.7-20.4C132.7 331.8 196.1 288 248 288z"/></svg>