<svg xmlns="http://www.w3.org/2000/svg" viewBox="0 0 640 512"><path d="M260.6 96H12c-6.6 0-12 5.4-12 12v43.1c0 6.6 5.4 12 12 12h85.1V404c0 6.6 5.4 12 12 12h54.3c6.6 0 12-5.4 12-12V163.1h85.1c6.6 0 12-5.4 12-12V108c.1-6.6-5.3-12-11.9-12zM640 403l-24-296c-.5-6.2-5.7-11-12-11h-65.4c-5.1 0-9.7 3.3-11.3 8.1l-43.8 127.1c-7.2 20.6-16.1 52.8-16.1 52.8h-.9s-8.9-32.2-16.1-52.8l-43.8-127.1c-1.7-4.8-6.2-8.1-11.3-8.1h-65.4c-6.2 0-11.4 4.8-12 11l-24.4 296c-.6 7 4.9 13 12 13H360c6.3 0 11.5-4.9 12-11.2l9.1-132.9c1.8-24.2 0-53.7 0-53.7h.9s10.7 33.6 17.9 53.7l30.7 84.7c1.7 4.7 6.2 7.9 11.3 7.9h50.3c5.1 0 9.6-3.2 11.3-7.9l30.7-84.7c7.2-20.1 17.9-53.7 17.9-53.7h.9s-1.8 29.5 0 53.7l9.1 132.9c.4 6.3 5.7 11.2 12 11.2H628c7 0 12.5-6 12-13z"/></svg>