<svg xmlns="http://www.w3.org/2000/svg" viewBox="0 0 384 512"><path d="M372 0h-79c-10.7 0-16 12.9-8.5 20.5l16.9 16.9-80.7 80.7C198.5 104.1 172.2 96 144 96 64.5 96 0 160.5 0 240c0 68.5 47.9 125.9 112 140.4V408H76c-6.6 0-12 5.4-12 12v40c0 6.6 5.4 12 12 12h36v28c0 6.6 5.4 12 12 12h40c6.6 0 12-5.4 12-12v-28h36c6.6 0 12-5.4 12-12v-40c0-6.6-5.4-12-12-12h-36v-27.6c64.1-14.6 112-71.9 112-140.4 0-28.2-8.1-54.5-22.1-76.7l80.7-80.7 16.9 16.9c7.6 7.6 20.5 2.2 20.5-8.5V12c0-6.6-5.4-12-12-12zM144 320c-44.1 0-80-35.9-80-80s35.9-80 80-80 80 35.9 80 80-35.9 80-80 80z"/></svg>