<svg xmlns="http://www.w3.org/2000/svg" viewBox="0 0 576 512"><path d="M564 0h-79c-10.7 0-16 12.9-8.5 20.5l16.9 16.9-48.7 48.7C422.5 72.1 396.2 64 368 64c-33.7 0-64.6 11.6-89.2 30.9 14 16.7 25 36 32.1 57.1 14.5-14.8 34.7-24 57.1-24 44.1 0 80 35.9 80 80s-35.9 80-80 80c-22.3 0-42.6-9.2-57.1-24-7.1 21.1-18 40.4-32.1 57.1 24.5 19.4 55.5 30.9 89.2 30.9 79.5 0 144-64.5 144-144 0-28.2-8.1-54.5-22.1-76.7l48.7-48.7 16.9 16.9c2.4 2.4 5.4 3.5 8.4 3.5 6.2 0 12.1-4.8 12.1-12V12c0-6.6-5.4-12-12-12zM144 64C64.5 64 0 128.5 0 208c0 68.5 47.9 125.9 112 140.4V400H76c-6.6 0-12 5.4-12 12v40c0 6.6 5.4 12 12 12h36v36c0 6.6 5.4 12 12 12h40c6.6 0 12-5.4 12-12v-36h36c6.6 0 12-5.4 12-12v-40c0-6.6-5.4-12-12-12h-36v-51.6c64.1-14.6 112-71.9 112-140.4 0-79.5-64.5-144-144-144zm0 224c-44.1 0-80-35.9-80-80s35.9-80 80-80 80 35.9 80 80-35.9 80-80 80z"/></svg>