<svg xmlns="http://www.w3.org/2000/svg" viewBox="0 0 640 512"><path d="M114,227.6H92.4C76.7,227.6,64,240.3,64,256s12.7,28.4,28.4,28.4H114c50.7,0,76.1,61.3,40.2,97.1L139,396.8 c-11.5,10.7-12.2,28.7-1.6,40.2s28.7,12.2,40.2,1.6c0.5-0.5,1.1-1,1.6-1.6l15.2-15.2c35.8-35.8,97.1-10.5,97.1,40.2v21.5 c0,15.7,12.8,28.4,28.5,28.4c15.7,0,28.4-12.7,28.4-28.4V462c0-26.6,17-45.9,38.2-53.4l-244.5-189 C133.7,224.7,123.9,227.5,114,227.6z M617,505.8l19.6-25.3c5.4-7,4.2-17-2.8-22.5L470.6,332c4.2-25.4,24.9-47.5,55.4-47.5h21.5 c15.7,0,28.4-12.7,28.4-28.4s-12.7-28.4-28.4-28.4H526c-50.7,0-76.1-61.3-40.2-97.1l15.2-15.3c10.7-11.5,10-29.5-1.6-40.2 c-10.9-10.1-27.7-10.1-38.6,0l-15.2,15.2c-35.8,35.8-97.1,10.5-97.1-40.2V28.5C348.4,12.7,335.7,0,320,0 c-15.7,0-28.4,12.7-28.4,28.4V50c0,50.7-61.3,76.1-97.1,40.2L179.2,75c-11.1-11.1-29.4-10.6-40.5,0.5L45.5,3.4 c-7-5.4-17-4.2-22.5,2.8L3.4,31.5c-5.4,7-4.2,17,2.8,22.5l588.4,454.7C601.5,514.1,611.6,512.8,617,505.8z M335.4,227.5l-62.9-48.6 c4.9-1.8,10.2-2.8,15.4-2.9c26.5,0,48,21.5,48,48C336,225.2,335.5,226.3,335.4,227.5z"/></svg>
