<svg xmlns="http://www.w3.org/2000/svg" viewBox="0 0 576 512"><path d="M564 192c6.6 0 12-5.4 12-12v-40c0-6.6-5.4-12-12-12h-48l18.6-80.6c1.7-7.5-4-14.7-11.7-14.7h-46.1c-5.7 0-10.6 4-11.7 9.5L450.7 128H340.8l-19.7-86c-1.3-5.5-6.1-9.3-11.7-9.3h-44c-5.6 0-10.4 3.8-11.7 9.3l-20 86H125l-17.5-85.7c-1.1-5.6-6.1-9.6-11.8-9.6H53.6c-7.7 0-13.4 7.1-11.7 14.6L60 128H12c-6.6 0-12 5.4-12 12v40c0 6.6 5.4 12 12 12h62.3l7.2 32H12c-6.6 0-12 5.4-12 12v40c0 6.6 5.4 12 12 12h83.9l40.9 182.6c1.2 5.5 6.1 9.4 11.7 9.4h56.8c5.6 0 10.4-3.9 11.7-9.3L259.3 288h55.1l42.4 182.7c1.3 5.4 6.1 9.3 11.7 9.3h56.8c5.6 0 10.4-3.9 11.7-9.3L479.1 288H564c6.6 0 12-5.4 12-12v-40c0-6.6-5.4-12-12-12h-70.1l7.4-32zM183.8 342c-6.2 25.8-6.8 47.2-7.3 47.2h-1.1s-1.7-22-6.8-47.2l-11-54h38.8zm27.5-118h-66.8l-6.5-32h80.8zm62.9 0l2-8.6c1.9-8 3.5-16 4.8-23.4h11.8c1.3 7.4 2.9 15.4 4.8 23.4l2 8.6zm130.9 118c-5.1 25.2-6.8 47.2-6.8 47.2h-1.1c-.6 0-1.1-21.4-7.3-47.2l-12.4-54h39.1zm25.2-118h-67.4l-7.3-32h81.6z"/></svg>