<?xml version="1.0" encoding="utf-8"?>
<!-- Generator: Adobe Illustrator 17.0.0, SVG Export Plug-In . SVG Version: 6.00 Build 0)  -->
<!DOCTYPE svg PUBLIC "-//W3C//DTD SVG 1.1//EN" "http://www.w3.org/Graphics/SVG/1.1/DTD/svg11.dtd">
<svg version="1.1" id="Слой_1" xmlns="http://www.w3.org/2000/svg" xmlns:xlink="http://www.w3.org/1999/xlink" x="0px" y="0px"
	 width="40px" height="40px" viewBox="0 0 40 40" enable-background="new 0 0 40 40" xml:space="preserve">
<g id="Bookmark__x28_alt_x29_">
	<g>
		<path fill-rule="evenodd" clip-rule="evenodd" fill="#FFFFFF" d="M7.715,0C4.38,0,1.058,1.777,0,4v31h0.051
			c0.428,2.809,3.701,5,7.665,5H40V0H7.715z M10,2h8v14l-4-4l-4,4V2z M38,38H8c-2.779,0-6-2.335-6-4s3.222-4,6-4h30V38z M38,28H8
			c-2.012,0-4.625,1.077-6,2V5c0.285-1.323,3.268-2.929,6-3v18h1l5-5l5,5h1V2h18V28z"/>
	</g>
</g>
</svg>
