<?xml version="1.0" encoding="utf-8"?>
<!-- Generator: Adobe Illustrator 17.0.0, SVG Export Plug-In . SVG Version: 6.00 Build 0)  -->
<!DOCTYPE svg PUBLIC "-//W3C//DTD SVG 1.1//EN" "http://www.w3.org/Graphics/SVG/1.1/DTD/svg11.dtd">
<svg version="1.1" id="Слой_1" xmlns="http://www.w3.org/2000/svg" xmlns:xlink="http://www.w3.org/1999/xlink" x="0px" y="0px"
	 width="40px" height="40px" viewBox="0 0 40 40" enable-background="new 0 0 40 40" xml:space="preserve">
<g id="calendar_-_updated">
	<g>
		<path fill-rule="evenodd" clip-rule="evenodd" fill="#FFFFFF" d="M30,24c1.431,0,3-1.59,3-3s-1.569-3-3-3s-3,1.59-3,3
			S28.569,24,30,24z M30,20c0.477,0,1,0.53,1,1c0,0.47-0.523,1-1,1s-1-0.53-1-1C29,20.53,29.523,20,30,20z M10,33
			c1.431,0,3-1.59,3-3s-1.569-3-3-3s-3,1.59-3,3S8.569,33,10,33z M10,29c0.477,0,1,0.53,1,1c0,0.47-0.523,1-1,1s-1-0.53-1-1
			C9,29.53,9.523,29,10,29z M10,24c1.431,0,3-1.59,3-3s-1.569-3-3-3s-3,1.59-3,3S8.569,24,10,24z M10,20c0.477,0,1,0.53,1,1
			c0,0.47-0.523,1-1,1s-1-0.53-1-1C9,20.53,9.523,20,10,20z M30,33c1.431,0,3-1.59,3-3s-1.569-3-3-3s-3,1.59-3,3S28.569,33,30,33z
			 M30,29c0.477,0,1,0.53,1,1c0,0.47-0.523,1-1,1s-1-0.53-1-1C29,29.53,29.523,29,30,29z M36,3h-3c0-1.41-1.569-3-3-3s-3,1.59-3,3
			h-4c0-1.41-1.569-3-3-3c-1.431,0-3,1.59-3,3h-4c0-1.41-1.569-3-3-3S7,1.59,7,3H4C2.092,3,0,5.077,0,6.958v29.638
			C0,38.476,1.547,40,3.455,40h33.091C38.453,40,40,38.476,40,36.596V6.958C40,5.077,37.908,3,36,3z M29,3c0-0.47,0.523-1,1-1
			s1,0.53,1,1v2c0,0.47-0.523,1-1,1s-1-0.53-1-1V3z M19,3c0-0.47,0.523-1,1-1c0.477,0,1,0.53,1,1v2c0,0.47-0.523,1.106-1,1.106
			S19,5.47,19,5V3z M9,3c0-0.47,0.523-1,1-1s1,0.53,1,1v2c0,0.47-0.523,1-1,1S9,5.47,9,5V3z M38,36c0,0.94-1.046,2-2,2H4
			c-0.954,0-2-1.06-2-2V13h36V36z M38,11H2V7c0-0.94,1.046-2,2-2h3c0,1.41,1.569,3,3,3s3-1.59,3-3h4c0,1.41,1.569,2.809,3,2.809
			c1.431,0,3-1.399,3-2.809l4.045,0.255C27.045,6.666,28.569,8,30,8c1.431,0,3-1.59,3-3h3c0.954,0,2,1.06,2,2V11z M20,33
			c1.431,0,3-1.59,3-3s-1.569-3-3-3c-1.431,0-3,1.59-3,3S18.569,33,20,33z M20,29c0.477,0,1,0.53,1,1c0,0.47-0.523,1-1,1
			c-0.477,0-1-0.53-1-1C19,29.53,19.523,29,20,29z M20,24c1.431,0,3-1.59,3-3s-1.569-3.128-3-3.128c-1.431,0-3,1.718-3,3.128
			S18.569,24,20,24z M20,20c0.477,0,1,0.53,1,1c0,0.47-0.523,1-1,1c-0.477,0-1-0.53-1-1C19,20.53,19.523,20,20,20z"/>
	</g>
</g>
</svg>
