<?xml version="1.0" encoding="utf-8"?>
<!-- Generator: Adobe Illustrator 17.0.0, SVG Export Plug-In . SVG Version: 6.00 Build 0)  -->
<!DOCTYPE svg PUBLIC "-//W3C//DTD SVG 1.1//EN" "http://www.w3.org/Graphics/SVG/1.1/DTD/svg11.dtd">
<svg version="1.1" id="Слой_1" xmlns="http://www.w3.org/2000/svg" xmlns:xlink="http://www.w3.org/1999/xlink" x="0px" y="0px"
	 width="40px" height="40px" viewBox="0 0 40 40" enable-background="new 0 0 40 40" xml:space="preserve">
<g>
	<path fill-rule="evenodd" clip-rule="evenodd" fill="#FFFFFF" d="M36.522,12H9.478C7.557,12,6,13.542,6,15.445v19.111
		C6,36.458,7.557,38,9.478,38h27.043C38.443,38,40,36.458,40,34.556V15.445C40,13.542,38.443,12,36.522,12z M38,34
		c0,0.951-1.04,2-2,2H10c-0.96,0-2-1.049-2-2V16c0-0.951,1.04-2,2-2h26c0.96,0,2,1.049,2,2V34z"/>
	<path fill-rule="evenodd" clip-rule="evenodd" fill="#FFFFFF" d="M23,18c-3.866,0-7,3.134-7,7s3.134,7,7,7s7-3.134,7-7
		S26.866,18,23,18z M23,30c-2.761,0-5-2.239-5-5s2.239-5,5-5c2.761,0,5,2.239,5,5S25.761,30,23,30z"/>
	<path fill-rule="evenodd" clip-rule="evenodd" fill="#FFFFFF" d="M4,4h26c0,0,2,0.117,2,2s0,4,0,4h2c0,0,0,0,0-4s-4-4-4-4H4
		c0,0-4-0.08-4,4s0,13.997,0,18s4,4,4,4v-2c0,0-2,0-2-2S2,7.924,2,6S4,4,4,4z"/>
</g>
</svg>
