<?xml version="1.0" encoding="utf-8"?> <!-- Generated by Layerhero SVG Exporter: http://www.layerhero.com/photoshop-svg-exporter --><!DOCTYPE svg PUBLIC "-//W3C//DTD SVG 1.1//EN" "http://www.w3.org/Graphics/SVG/1.1/DTD/svg11.dtd"><svg version="1.1" baseProfile="full" xmlns="http://www.w3.org/2000/svg" xmlns:xlink="http://www.w3.org/1999/xlink" xmlns:ev="http://www.w3.org/2001/xml-events" width="17" height="30" viewBox="0 0 17 30"><g transform="scale(NaN)" ><path fill-rule="evenodd"  fill="rgb( 133, 155, 187 )" d="M2.135,21.392 C2.135,21.392 8.497,27.286 8.497,27.286 C8.497,27.286 14.943,21.315 14.943,21.315 C14.943,21.315 14.943,21.316 14.943,21.316 C15.161,21.120 15.458,21.000 15.786,21.000 C16.456,21.000 17.000,21.504 17.000,22.125 C17.000,22.428 16.870,22.703 16.659,22.906 C16.659,22.906 16.660,22.906 16.660,22.906 C16.660,22.906 9.374,29.656 9.374,29.656 C9.374,29.656 9.374,29.656 9.374,29.656 C9.153,29.868 8.843,30.000 8.500,30.000 C8.499,30.000 8.498,30.000 8.497,30.000 C8.497,30.000 8.496,30.000 8.495,30.000 C8.152,30.000 7.842,29.868 7.621,29.656 C7.621,29.656 7.620,29.656 7.620,29.656 C7.620,29.656 0.335,22.906 0.335,22.906 C0.335,22.906 0.338,22.903 0.338,22.903 C0.129,22.701 -0.000,22.427 -0.000,22.125 C-0.000,21.504 0.544,21.000 1.214,21.000 C1.583,21.000 1.913,21.152 2.135,21.392 Z"/><path fill-rule="evenodd"  fill="rgb( 133, 155, 187 )" d="M2.135,8.608 C2.135,8.608 8.497,2.713 8.497,2.713 C8.497,2.713 14.943,8.685 14.943,8.685 C14.943,8.685 14.943,8.684 14.943,8.684 C15.161,8.880 15.458,9.000 15.786,9.000 C16.456,9.000 17.000,8.496 17.000,7.875 C17.000,7.572 16.870,7.296 16.659,7.094 C16.659,7.094 16.660,7.094 16.660,7.094 C16.660,7.094 9.374,0.344 9.374,0.344 C9.374,0.344 9.374,0.344 9.374,0.344 C9.153,0.132 8.843,-0.000 8.500,-0.000 C8.499,-0.000 8.498,-0.000 8.497,-0.000 C8.497,-0.000 8.496,-0.000 8.495,-0.000 C8.152,-0.000 7.842,0.132 7.621,0.344 C7.621,0.344 7.620,0.344 7.620,0.344 C7.620,0.344 0.335,7.094 0.335,7.094 C0.335,7.094 0.338,7.097 0.338,7.097 C0.129,7.299 -0.000,7.573 -0.000,7.875 C-0.000,8.496 0.544,9.000 1.214,9.000 C1.583,9.000 1.913,8.848 2.135,8.608 Z"/></g></svg>