<?xml version="1.0" encoding="utf-8"?>
<!-- Generator: Adobe Illustrator 17.0.0, SVG Export Plug-In . SVG Version: 6.00 Build 0)  -->
<!DOCTYPE svg PUBLIC "-//W3C//DTD SVG 1.1//EN" "http://www.w3.org/Graphics/SVG/1.1/DTD/svg11.dtd">
<svg version="1.1" id="Слой_1" xmlns="http://www.w3.org/2000/svg" xmlns:xlink="http://www.w3.org/1999/xlink" x="0px" y="0px"
	 width="40px" height="40px" viewBox="0 0 40 40" enable-background="new 0 0 40 40" xml:space="preserve">
<g>
	<path fill-rule="evenodd" clip-rule="evenodd" fill="#FFFFFF" d="M36,21h2v-2h-6v2h2v13h-8V21h2v-2h-6v2h2v13h-8V21h2v-2h-6v2h2v13
		H6V21h2v-2H2v2h2v13H0v6h40v-6h-4V21z M38,36v2H2v-2H38z"/>
	<path fill-rule="evenodd" clip-rule="evenodd" fill="#FFFFFF" d="M20,0L0,11v4v2h40v-2v-4L20,0z M38,15H2v-3L20,2l18,10V15z"/>
	<path fill-rule="evenodd" clip-rule="evenodd" fill="#FFFFFF" d="M16,9c0,2.209,1.791,4,4,4s4-1.791,4-4s-1.791-4-4-4
		S16,6.791,16,9z M22,9c0,1.105-0.895,2-2,2c-1.105,0-2-0.895-2-2s0.895-2,2-2C21.105,7,22,7.895,22,9z"/>
</g>
</svg>
