<?xml version="1.0" encoding="utf-8"?>
<!-- Generator: Adobe Illustrator 17.0.0, SVG Export Plug-In . SVG Version: 6.00 Build 0)  -->
<!DOCTYPE svg PUBLIC "-//W3C//DTD SVG 1.1//EN" "http://www.w3.org/Graphics/SVG/1.1/DTD/svg11.dtd">
<svg version="1.1" id="Слой_1" xmlns="http://www.w3.org/2000/svg" xmlns:xlink="http://www.w3.org/1999/xlink" x="0px" y="0px"
	 width="40px" height="40px" viewBox="0 0 40 40" enable-background="new 0 0 40 40" xml:space="preserve">
<g>
	<path fill="#FFFFFF" d="M29,2c3.515,0,6,3.979,6,9c0,5.021-2.485,9-6,9c-0.947,0-1.752-0.304-2.56-0.834
		c-0.192,0.587-0.417,1.156-0.666,1.71C26.789,21.477,27.818,22,29,22c4.519,0,8.095-4.649,8-11c-0.09-6.024-3.481-11-8-11
		c-2.161,0-4.03,1.126-5.493,2.951c0.389,0.48,0.746,0.996,1.083,1.532C25.742,2.837,27.242,2,29,2z"/>
	<path fill="#FFFFFF" d="M14,28c6.276,0,11.073-7.218,11-15C24.917,4.146,19,0,14,0C9,0,3.083,4.519,3,13
		C2.924,20.782,7.724,28,14,28z M14,2c3.755,0,9,3.997,9,11c0,6.767-3.737,13-9,13c-5.263,0-9-6.233-9-13C5,5.997,10.245,2,14,2z"/>
	<path fill="#FFFFFF" d="M23,22c-0.363,0.502-1.586,1.912-1,2c2.096,1.164,4,5.437,4,8c0,3.76-3.24,6-7,6H9c-3.76,0-7-2.24-7-6
		c0-2.563,1.904-6.836,4-8c0.497-0.284-0.637-1.498-1-2c-2.507,1.511-5,6.859-5,10c0,4.77,3.867,8,8.636,8h10.909
		C24.315,40,28,36.77,28,32C28,28.859,25.507,23.511,23,22z"/>
	<path fill="#FFFFFF" d="M35.481,18.461c-0.252-0.379-1.214,1.11-1.286,1.513C35.892,20.282,38,23.214,38,25c0,2.008-1.992,3-4,3h-5
		c0.187,0.585,0.82,1.376,0.901,2h4.644C37.558,30,40,28.012,40,25C40,22.672,37.535,19.244,35.481,18.461z"/>
</g>
</svg>
