<svg{% if include.class %} class="{{ include.class }}"{% endif %} xmlns="http://www.w3.org/2000/svg" viewbox="0 0 612 612"{% if include.width %} width="{{ include.width }}"{% endif %}{% if include.height %} height="{{ include.height }}"{% endif %}><path fill="currentColor" d="M510 5c53.5.2 96.8 43.5 97 97v408c-.2 53.5-43.5 96.8-97 97H102c-53.5-.2-96.8-43.5-97-97V102c.2-53.5 43.5-96.8 97-97h408m0-5H102C45.9 0 0 45.9 0 102v408c0 56.1 45.9 102 102 102h408c56.1 0 102-45.9 102-102V102C612 45.9 566.1 0 510 0z"/><path fill="currentColor" d="M202.8 471.5V154.4H327c54.3 0 91 31.6 91 79.1 0 33-24.2 63.7-54.7 69.2v1.8c43.1 5.5 70.8 35.8 70.8 78 0 55.8-40 89-107.5 89H202.8zm39.5-180.4h63.3c46.8 0 72.3-18.7 72.3-53 0-31.4-21.5-48.8-60-48.8h-75.6v101.8zm78.2 145.5c47.7 0 72.7-19.3 72.7-56s-25.9-55.4-76.5-55.4h-74.5v111.4h78.3z"/></svg>
