<?xml version="1.0" encoding="utf-8"?>
<!-- Generator: Adobe Illustrator 16.0.0, SVG Export Plug-In . SVG Version: 6.00 Build 0)  -->
<!DOCTYPE svg PUBLIC "-//W3C//DTD SVG 1.1//EN" "http://www.w3.org/Graphics/SVG/1.1/DTD/svg11.dtd">
<svg version="1.1" id="Layer_1" xmlns="http://www.w3.org/2000/svg" xmlns:xlink="http://www.w3.org/1999/xlink" x="0px" y="0px"
	 width="204px" height="36px" viewBox="0 0 204 36" enable-background="new 0 0 204 36" xml:space="preserve">
<g>
	<g>
		<path fill="#292202" d="M37.489,12.309h5.237c1.333,0,2.384,0.369,3.053,1.037c0.52,0.518,0.786,1.151,0.786,1.935v0.033
			c0,1.4-0.802,2.154-1.67,2.606c1.369,0.463,2.32,1.248,2.32,2.831v0.034c0,2.089-1.719,3.203-4.321,3.203h-5.407v-11.68H37.489z
			 M42.31,17.233c1.319,0,2.199-0.521,2.199-1.588v-0.03c0-0.917-0.732-1.485-2.051-1.485h-2.954v3.104L42.31,17.233L42.31,17.233z
			 M42.909,22.176c1.401,0,2.254-0.553,2.254-1.605v-0.034c0-0.983-0.785-1.562-2.404-1.562h-3.255v3.201H42.909z"/>
		<path fill="#292202" d="M48.871,20.785v-5.604h2.021v5.005c0,1.367,0.684,2.15,1.883,2.15c1.171,0,1.987-0.815,1.987-2.188v-4.968
			h2.019v8.807h-2.019v-1.367c-0.566,0.835-1.385,1.554-2.752,1.554C50.024,24.175,48.871,22.844,48.871,20.785"/>
		<path fill="#292202" d="M58.503,19.621v-0.037c0-2.518,1.786-4.587,4.307-4.587c2.803,0,4.219,2.2,4.219,4.738
			c0,0.186-0.015,0.368-0.032,0.568h-6.473c0.217,1.435,1.233,2.236,2.534,2.236c0.986,0,1.686-0.364,2.389-1.052l1.184,1.052
			c-0.834,1.003-1.988,1.651-3.604,1.651C60.473,24.19,58.503,22.337,58.503,19.621 M65.026,18.975
			c-0.13-1.31-0.9-2.327-2.234-2.327c-1.233,0-2.103,0.949-2.285,2.327H65.026z"/>
		<path fill="#292202" d="M68.738,15.182h2.019v1.366c0.566-0.833,1.386-1.551,2.752-1.551c1.986,0,3.14,1.334,3.14,3.386v5.605
			h-2.022v-5.001c0-1.37-0.685-2.152-1.883-2.152c-1.171,0-1.988,0.814-1.988,2.185v4.97h-2.018L68.738,15.182L68.738,15.182z"/>
		<path fill="#292202" d="M78.269,19.639v-0.04c0-2.517,2.003-4.602,4.704-4.602c2.704,0,4.69,2.054,4.69,4.575v0.026
			c0,2.507-2,4.592-4.721,4.592C80.255,24.19,78.269,22.144,78.269,19.639 M85.646,19.639v-0.04c0-1.551-1.119-2.833-2.702-2.833
			c-1.62,0-2.653,1.267-2.653,2.804v0.027c0,1.54,1.118,2.841,2.684,2.841C84.611,22.438,85.646,21.155,85.646,19.639"/>
		<path fill="#292202" d="M88.67,22.844l0.9-1.371c0.95,0.718,1.987,1.085,2.887,1.085c0.867,0,1.368-0.368,1.368-0.957v-0.027
			c0-0.687-0.932-0.924-1.969-1.241c-1.301-0.363-2.751-0.893-2.751-2.583v-0.032c0-1.671,1.384-2.688,3.138-2.688
			c1.099,0,2.3,0.385,3.234,1.001l-0.801,1.437c-0.852-0.52-1.751-0.836-2.485-0.836c-0.784,0-1.235,0.366-1.235,0.886v0.028
			c0,0.637,0.95,0.904,1.986,1.239c1.283,0.401,2.734,0.983,2.734,2.567v0.035c0,1.854-1.436,2.77-3.269,2.77
			C91.153,24.156,89.771,23.707,88.67,22.844"/>
		<path fill="#292202" d="M106.444,12.23h1.906l5.14,11.758h-2.172l-1.183-2.818h-5.524l-1.203,2.818h-2.101L106.444,12.23z
			 M109.383,19.348l-2.017-4.669l-2.001,4.669H109.383z"/>
		<path fill="#292202" d="M114.967,11.912h2.168v1.922h-2.168V11.912z M115.045,15.182h2.021v8.807h-2.021V15.182z"/>
		<path fill="#292202" d="M119.369,15.182h2.021v1.985c0.547-1.316,1.566-2.219,3.118-2.154v2.136h-0.116
			c-1.769,0-3.002,1.157-3.002,3.489v3.351h-2.021V15.182z"/>
		<path fill="#292202" d="M125.146,19.621v-0.037c0-2.518,1.783-4.587,4.306-4.587c2.805,0,4.222,2.2,4.222,4.738
			c0,0.186-0.018,0.368-0.034,0.568h-6.472c0.213,1.435,1.232,2.236,2.533,2.236c0.984,0,1.687-0.364,2.388-1.052l1.185,1.052
			c-0.833,1.003-1.99,1.651-3.607,1.651C127.113,24.19,125.146,22.337,125.146,19.621 M131.67,18.975
			c-0.131-1.31-0.903-2.327-2.235-2.327c-1.234,0-2.099,0.949-2.285,2.327H131.67z"/>
		<path fill="#292202" d="M134.664,22.844l0.899-1.371c0.951,0.718,1.985,1.085,2.887,1.085c0.866,0,1.366-0.368,1.366-0.957v-0.027
			c0-0.687-0.936-0.924-1.965-1.241c-1.302-0.363-2.757-0.893-2.757-2.583v-0.032c0-1.671,1.387-2.688,3.138-2.688
			c1.103,0,2.303,0.385,3.236,1.001l-0.802,1.437c-0.851-0.52-1.751-0.836-2.484-0.836c-0.784,0-1.233,0.366-1.233,0.886v0.028
			c0,0.637,0.951,0.904,1.987,1.239c1.282,0.401,2.735,0.983,2.735,2.567v0.035c0,1.854-1.436,2.77-3.272,2.77
			C137.147,24.156,135.762,23.707,134.664,22.844"/>
		<path fill="#292202" d="M147.782,18.183v-0.034c0-3.317,2.485-6.037,6.024-6.037c2.153,0,3.454,0.75,4.571,1.816l-1.314,1.519
			c-0.936-0.866-1.94-1.45-3.272-1.45c-2.239,0-3.856,1.832-3.856,4.121v0.03c0,2.284,1.617,4.152,3.856,4.152
			c1.436,0,2.353-0.579,3.353-1.517l1.319,1.336c-1.221,1.268-2.554,2.07-4.739,2.07C150.315,24.19,147.782,21.539,147.782,18.183"
			/>
		<path fill="#292202" d="M160.087,11.912h2.168v1.922h-2.168V11.912z M160.169,15.182h2.02v8.807h-2.02V15.182z"/>
		<path fill="#292202" d="M164.393,20.785v-5.604h2.018v5.005c0,1.367,0.686,2.15,1.888,2.15c1.169,0,1.984-0.815,1.984-2.188
			v-4.968h2.021v8.807h-2.021v-1.367c-0.564,0.835-1.383,1.554-2.752,1.554C165.545,24.175,164.393,22.844,164.393,20.785"/>
		<path fill="#292202" d="M174.056,19.599v-0.026c0-2.925,1.988-4.575,4.09-4.575c1.454,0,2.369,0.735,3.003,1.551V11.81h2.019
			v12.179h-2.019v-1.466c-0.649,0.919-1.569,1.652-3.003,1.652C176.078,24.175,174.056,22.522,174.056,19.599 M181.184,19.599
			v-0.026c0-1.705-1.201-2.823-2.554-2.823c-1.384,0-2.538,1.069-2.538,2.823v0.026c0,1.706,1.172,2.825,2.538,2.825
			C179.982,22.424,181.184,21.284,181.184,19.599"/>
		<path fill="#292202" d="M190.751,23.988v-1.086c-0.603,0.721-1.52,1.272-2.853,1.272c-1.671,0-3.142-0.949-3.142-2.72V21.42
			c0-1.949,1.521-2.886,3.573-2.886c1.068,0,1.752,0.147,2.436,0.368v-0.165c0-1.22-0.767-1.888-2.167-1.888
			c-0.984,0-1.721,0.218-2.521,0.552l-0.551-1.619c0.969-0.434,1.92-0.734,3.354-0.734c2.603,0,3.872,1.369,3.872,3.724v5.218
			L190.751,23.988L190.751,23.988z M190.799,20.301c-0.519-0.197-1.235-0.352-2.021-0.352c-1.266,0-2.019,0.52-2.019,1.371v0.03
			c0,0.839,0.751,1.303,1.7,1.303c1.34,0,2.339-0.749,2.339-1.851V20.301L190.799,20.301z"/>
		<path fill="#292202" d="M194.375,19.599v-0.026c0-2.925,1.986-4.575,4.087-4.575c1.45,0,2.373,0.735,3.004,1.551V11.81h2.018
			v12.179h-2.018v-1.466c-0.652,0.919-1.568,1.652-3.004,1.652C196.395,24.175,194.375,22.522,194.375,19.599 M201.502,19.599
			v-0.026c0-1.705-1.204-2.823-2.555-2.823c-1.384,0-2.533,1.069-2.533,2.823v0.026c0,1.706,1.165,2.825,2.533,2.825
			C200.298,22.424,201.502,21.284,201.502,19.599"/>
		<path fill="#292202" d="M14.815,5.821c-0.094,0-0.17,0.075-0.17,0.17c0,0.092,0.076,0.169,0.17,0.169s0.167-0.076,0.167-0.169
			C14.981,5.896,14.908,5.821,14.815,5.821"/>
		<path fill="#292202" d="M23.462,8.468l-0.028-0.006c-0.891-0.036-1.741-0.356-2.564-0.669c-0.334-0.125-0.678-0.255-1.022-0.362
			c-0.674-0.218-1.277-0.333-1.841-0.362c-0.148-0.006-0.284-0.012-0.427-0.012c-0.38,0-0.914,0.035-1.247,0.361
			c-0.095-0.42-0.209-0.892-0.384-1.338c-0.168-0.423-0.417-0.928-0.87-1.065c-0.076-0.023-0.152-0.028-0.223-0.028
			c-0.451,0-0.789,0.397-0.955,0.638l-0.076,0.107c-0.193,0.282-0.291,0.422-0.265,0.557c0.032,0.131,0.191,0.232,0.558,0.442
			c0.155,0.09,0.186,0.319,0.207,0.492l0.002,0.017c0.033,0.254,0.051,0.501,0.047,0.739c-0.519-0.532-1.311-0.742-2.028-0.877
			c-0.191-0.035-0.391-0.055-0.595-0.055c-0.823,0-1.628,0.312-2.164,0.542C9.286,7.718,8.984,7.86,8.696,8.003
			C8.133,8.276,7.548,8.549,6.945,8.737C6.763,8.793,6.566,8.841,6.324,8.879H6.315C6.313,8.883,6.307,8.883,6.298,8.883
			L6.282,8.888C6.189,8.903,6.034,8.952,6.006,9.095C5.973,9.237,5.991,9.331,6.184,9.479C6.625,9.728,7.162,9.85,7.822,9.85
			c0.137,0,0.277-0.004,0.426-0.011c0.201-0.013,0.399-0.04,0.61-0.065c0.304-0.039,0.615-0.08,0.915-0.08
			c0.207,0,0.386,0.018,0.55,0.057c0.49,0.111,0.786,0.6,1.038,1.028c0.067,0.109,0.128,0.209,0.189,0.302l0.003,0.008
			c0.121,0.179,0.317,0.479,0.308,0.705c-0.014,0.216-0.315,0.399-0.535,0.53c-0.057,0.037-0.114,0.071-0.156,0.101
			c-0.071,0.045-0.151,0.098-0.238,0.153c-0.492,0.312-1.162,0.744-1.086,1.32c0.035,0.284,0.274,0.511,0.561,0.547
			c0.024,0.003,0.053,0.003,0.078,0.003c0.207,0,0.392-0.092,0.569-0.188c0.074-0.037,0.15-0.076,0.226-0.107
			c0.236-0.093,0.471-0.143,0.707-0.143c0.394,0,0.776,0.134,1.131,0.399c0.117,0.089,0.219,0.195,0.321,0.293
			c0.109,0.111,0.221,0.226,0.35,0.317c0.104,0.076,0.295,0.151,0.457,0.151c0.16,0,0.271-0.077,0.298-0.224
			c0.061-0.285,0.059-0.585,0.059-0.875c-0.007-0.231-0.007-0.47,0.022-0.698c0.017-0.141,0.055-0.425,0.236-0.513
			c0.062-0.027,0.129-0.042,0.212-0.042c0.094,0,0.191,0.017,0.282,0.03c0.13,0.022,0.27,0.041,0.378,0.026
			c0.517-0.073,0.951-0.497,1.159-1.138c0.097-0.216,0.211-0.313,0.432-0.364c0.26-0.065,0.426-0.276,0.583-0.486
			c0.039-0.052,0.078-0.099,0.119-0.148c0.327-0.389,0.727-0.562,1.285-0.562c0.104,0,0.215,0.004,0.339,0.018
			c0.114,0.012,0.229,0.023,0.345,0.037c0.3,0.035,0.587,0.069,0.876,0.069c0.314,0,0.596-0.043,0.856-0.125
			c0.673-0.226,1.268-0.664,1.812-1.103l0.078-0.066c0.153-0.126,0.188-0.206,0.149-0.354C23.727,8.508,23.534,8.473,23.462,8.468
			 M11.833,10.473c-0.128-0.224-0.268-0.452-0.438-0.652c-0.393-0.48-0.915-0.691-1.691-0.691c-0.324,0-0.668,0.035-1.001,0.071
			c-0.33,0.037-0.668,0.07-0.987,0.07c-0.17,0-0.32-0.009-0.461-0.026C7.818,9.055,8.356,8.8,8.876,8.546
			c0.561-0.27,1.142-0.55,1.745-0.736c0.375-0.111,0.767-0.175,1.16-0.175c0.725,0,1.396,0.192,1.942,0.554
			c0.451,0.3,0.586,0.616,0.431,1.062c-0.161,0.472-0.444,0.94-0.84,1.385c-0.024,0.028-0.054,0.061-0.085,0.101
			c-0.172,0.203-0.459,0.546-0.7,0.546c-0.077,0-0.14-0.034-0.199-0.096C12.133,10.972,11.982,10.719,11.833,10.473 M16.396,11.133
			c-0.054,0.396-0.209,0.732-0.451,0.95c-0.213,0.2-0.447,0.237-0.759,0.237c-0.05,0-0.105-0.002-0.156-0.002
			c-0.056,0-0.111,0-0.175,0c-0.196,0-0.364,0.063-0.492,0.195c-0.373,0.378-0.367,1.21-0.359,1.76v0.176l-0.04-0.034
			c-0.474-0.437-0.917-0.856-1.584-0.956c-0.104-0.019-0.211-0.027-0.321-0.027c-0.2,0-0.416,0.029-0.632,0.082
			c-0.19,0.042-0.35,0.114-0.521,0.195c-0.066,0.03-0.131,0.056-0.199,0.087c-0.081,0.035-0.189,0.066-0.251,0.066
			c-0.018,0-0.035,0-0.044-0.007c-0.002-0.008-0.002-0.023,0.003-0.039c0.065-0.226,0.308-0.385,0.501-0.515l0.052-0.034
			c0.497-0.335,0.962-0.669,1.421-1.028c0.84-0.653,1.764-1.466,2.221-2.574c0.263-0.624,0.373-1.336,0.33-2.068l-0.004-0.041
			c-0.025-0.302-0.04-0.615-0.166-0.89c-0.096-0.229-0.279-0.335-0.463-0.445c-0.036-0.021-0.071-0.039-0.104-0.059
			c0.088-0.168,0.335-0.604,0.619-0.604c0.11,0,0.214,0.068,0.314,0.203c0.335,0.458,0.486,1.004,0.621,1.487
			c0.023,0.084,0.048,0.175,0.076,0.272C16.1,8.455,16.542,10.023,16.396,11.133 M22.139,9.358c-0.459,0.26-0.866,0.384-1.255,0.384
			h-0.037c-0.253-0.006-0.507-0.038-0.755-0.074c-0.216-0.024-0.437-0.056-0.653-0.068c-0.538-0.021-0.952,0.063-1.286,0.261
			c-0.234,0.142-0.396,0.337-0.553,0.534c-0.109,0.136-0.231,0.279-0.373,0.4c-0.042,0.032-0.099,0.073-0.15,0.073h-0.005
			c-0.059-0.002-0.066-0.041-0.059-0.131c0-0.025,0.001-0.044,0-0.06c-0.012-0.2-0.043-0.4-0.068-0.594l-0.017-0.112
			c-0.048-0.339-0.099-0.697-0.179-1.052c-0.015-0.058-0.038-0.129-0.063-0.21c-0.095-0.307-0.215-0.696,0.024-0.891
			c0.147-0.121,0.394-0.142,0.558-0.16c0,0,0.189-0.016,0.395-0.017h0.074c0.227,0,0.459,0.011,0.688,0.041
			c0.426,0.057,0.875,0.171,1.417,0.351c0.289,0.094,0.581,0.207,0.866,0.311c0.654,0.242,1.332,0.497,2.039,0.617
			C22.524,9.125,22.329,9.253,22.139,9.358"/>
		<path fill="#292202" d="M29.428,14.581c-0.194-1.245-0.505-2.473-0.921-3.663c-0.403-1.139-0.91-2.24-1.516-3.287
			c-0.471-0.81-1.003-1.583-1.6-2.311c-0.76-0.929-1.622-1.776-2.57-2.511c-0.922-0.716-1.935-1.318-3.006-1.778
			c-1.072-0.458-2.203-0.773-3.357-0.926c-1.169-0.154-2.373-0.139-3.539,0.04c-1.148,0.184-2.268,0.526-3.325,1.013
			c-1.064,0.49-2.065,1.114-2.972,1.85C5.692,3.76,4.852,4.624,4.114,5.561C3.385,6.484,2.753,7.478,2.217,8.528
			c-0.554,1.089-1.006,2.229-1.354,3.402c-0.36,1.223-0.611,2.48-0.743,3.75c-0.137,1.319-0.158,2.649-0.057,3.974
			c0.097,1.28,0.303,2.56,0.633,3.8c0.31,1.191,0.727,2.355,1.253,3.471c0.507,1.067,1.106,2.092,1.808,3.041
			c0.783,1.076,2.784,2.968,2.797,2.968C8.91,34.859,11.768,36,14.849,36h0.003c1.173,0,2.346-0.166,3.47-0.496
			c1.122-0.323,2.188-0.805,3.18-1.409c1.013-0.614,1.944-1.355,2.78-2.193c0.836-0.832,1.581-1.761,2.226-2.754
			c0.654-0.998,1.205-2.069,1.657-3.173c0.472-1.154,0.829-2.352,1.083-3.577c0.265-1.272,0.41-2.573,0.443-3.876
			C29.723,17.202,29.637,15.881,29.428,14.581 M3.144,23.182h-0.38l0.341-1.283c0.03-0.096,0.049-0.093,0.062-0.055
			C3.158,22.313,3.149,22.758,3.144,23.182 M3.327,19.68l-0.759-0.35c-0.043-0.022-0.039-0.035,0.004-0.035h1.633
			c0.048,0,0.05,0.014,0.009,0.035l-0.732,0.35C3.441,19.698,3.372,19.698,3.327,19.68 M2.375,18.959l0.849-0.604
			c-0.004,0.201-0.006,0.399-0.007,0.604H2.375z M2.659,16.922h1.455c0.039,0,0.045,0.016,0.004,0.029L3.468,17.26
			c-0.039,0.017-0.099,0.017-0.142,0.002l-0.675-0.314C2.615,16.932,2.618,16.922,2.659,16.922 M2.477,16.623l0.779-0.517
			c0,0.163-0.004,0.338-0.008,0.517H2.477z M3.534,16.118l0.774,0.503H3.541C3.538,16.453,3.536,16.283,3.534,16.118 M3.568,18.357
			l0.858,0.602H3.58C3.574,18.761,3.57,18.557,3.568,18.357 M3.65,23.182c-0.009-0.424-0.016-0.87-0.026-1.336
			c0.007-0.026,0.031-0.051,0.056,0.037l0.344,1.299H3.65z M14.849,34.7c-2.265,0-4.401-0.678-6.284-1.9
			c1.459-0.01,2.91,0.183,4.351,0.397c1.444,0.212,2.889,0.455,4.345,0.601c0.559,0.059,1.121,0.099,1.683,0.126
			C17.649,34.426,16.275,34.7,14.849,34.7 M21.487,32.559c-1.433,0.148-2.883,0.081-4.314-0.071
			c-1.433-0.154-2.851-0.398-4.274-0.603c-1.472-0.213-2.945-0.4-4.428-0.386c-0.508,0.005-1.011,0.032-1.509,0.079
			c-0.472-0.419-0.919-0.874-1.345-1.359c1.485-0.221,2.999-0.215,4.498-0.109c1.505,0.116,2.997,0.335,4.49,0.553
			c0.749,0.111,1.497,0.229,2.248,0.322c0.373,0.055,1.854,0.165,2.222,0.165c1.494,0,3-0.109,4.48-0.354
			C22.909,31.459,22.22,32.045,21.487,32.559 M24.896,29.195c-1.437,0.349-2.908,0.536-4.384,0.613
			c-0.735,0.037-1.476,0.055-2.214,0.018c-0.747-0.033-1.487-0.152-2.226-0.26c-1.483-0.212-2.97-0.451-4.465-0.623
			c-1.486-0.161-2.986-0.252-4.485-0.178c-0.81,0.042-1.624,0.133-2.426,0.285c-0.271-0.377-0.531-0.777-0.777-1.193
			c1.319-0.269,2.656-0.445,4.006-0.494c1.364-0.049,2.727,0.047,4.081,0.224c1.307,0.166,2.604,0.409,3.912,0.585
			c1.197,0.164,2.4,0.27,3.604,0.27h0.009c1.251,0,2.504-0.111,3.744-0.313c0.899-0.146,1.799-0.332,2.679-0.563
			C25.627,28.136,25.275,28.684,24.896,29.195 M4.963,24.607c-0.626-0.416-0.712-1.088-0.675-1.22l1.934-4.557
			c0.045-0.086,0.063-0.058,0.05,0L4.963,24.607z M6.244,20.301c-0.028,2.047-0.056,3.951-0.063,4.861
			c-0.357-0.102-0.703-0.212-1.008-0.425L6.2,20.211C6.225,20.17,6.241,20.23,6.244,20.301 M5.73,16.3h1.455
			c0.039,0,0.043,0.018,0.006,0.033L6.54,16.646c-0.037,0.02-0.102,0.02-0.137,0l-0.676-0.313C5.684,16.318,5.691,16.3,5.73,16.3
			 M5.551,16.008l0.765-0.506c-0.001,0.163-0.003,0.332-0.004,0.506H5.551z M6.623,15.51l0.758,0.498H6.628
			C6.626,15.837,6.625,15.67,6.623,15.51 M8.175,22.208c-0.024,0.974-0.05,1.954-0.066,2.712c-0.005,0.006-0.012,0.01-0.024,0.014
			l-0.649-2.82l0.348-0.821L8.175,22.208z M7.916,20.98l0.26-0.615c0.029-0.035,0.042-0.022,0.05,0.004
			c-0.01,0.398-0.021,0.821-0.032,1.252L7.916,20.98z M7.275,22.497l0.624,2.567c-0.217,0.088-0.491,0.142-0.727,0.175
			c-0.086,0.01-0.172,0.014-0.257,0.019c-0.048,0.009-0.107,0.018-0.154,0.014c-0.004-0.348-0.011-0.869-0.016-1.508L7.275,22.497z
			 M6.734,23.157c-0.015-0.853-0.026-1.843-0.042-2.869c0.006-0.082,0.026-0.144,0.07-0.022l0.417,1.825L6.734,23.157z
			 M7.346,21.707l-0.667-2.871c-0.004-0.059,0.006-0.09,0.052-0.005l0.92,2.149L7.346,21.707z M8.615,22.605v-0.419
			c-0.018-0.747-0.037-1.096-0.054-1.79c0.004-0.047,0.022-0.078,0.056-0.027l1.156,2.885c-0.19,0.377-0.224,0.51-0.514,0.817
			L8.615,22.605z M9.07,24.258c-0.116,0.133-0.268,0.256-0.401,0.363c-0.013-0.393-0.024-0.901-0.036-1.358L9.07,24.258z
			 M10.244,23.155l1.322-2.837c-0.025,0.811-0.05,1.978-0.074,2.837h-0.54C10.753,23.155,10.44,23.166,10.244,23.155 M19.701,19.518
			h1.907c0.051,0,0.06,0.021,0.026,0.034c-0.007,0.005-0.872,0.415-0.872,0.415c-0.056,0.032-0.134,0.027-0.177,0.002l-0.895-0.41
			C19.639,19.537,19.643,19.518,19.701,19.518 M19.481,19.136l1-0.711c-0.004,0.208-0.009,0.688-0.009,0.711H19.481z M19.841,16.325
			c0,0,0.021-0.007,0.031-0.007h1.599c0.014,0,0.023,0.001,0.029,0.007h0.002H21.5c0.011,0.005,0.004,0.016-0.023,0.026
			l-0.716,0.334c-0.039,0.021-0.106,0.021-0.151,0.004l-0.742-0.338C19.844,16.341,19.833,16.33,19.841,16.325 M19.671,15.982
			l0.85-0.612c-0.002,0.2-0.006,0.4-0.006,0.612H19.671z M20.82,15.383l0.859,0.599h-0.848
			C20.827,15.779,20.824,15.576,20.82,15.383 M20.864,18.425l0.994,0.711h-0.984C20.872,18.906,20.868,18.66,20.864,18.425
			 M23.752,17.656h1.633c0.045,0,0.049,0.018,0.007,0.035l-0.735,0.35c-0.043,0.023-0.109,0.023-0.15,0l-0.762-0.35
			C23.702,17.675,23.705,17.656,23.752,17.656 M23.549,17.326l0.854-0.608c-0.004,0.204-0.006,0.401-0.008,0.608H23.549z
			 M24.738,16.718l0.869,0.608h-0.858C24.749,17.121,24.744,16.922,24.738,16.718 M24.365,20.227
			c-0.029,1.98-0.062,4.104-0.083,5.601c-0.479,0.16-0.897,0.204-1.263,0.169l0.812-3.625l0.478-2.128
			C24.331,20.188,24.354,20.158,24.365,20.227 M24.252,19.379l-1.417,6.285l-0.612-1.688l0.004-0.011l1.937-4.651
			C24.219,19.225,24.274,19.16,24.252,19.379 M22.685,25.947c-0.442-0.1-0.794-0.314-1.065-0.552l0.462-1.099L22.685,25.947z
			 M21.444,25.223c-0.276-0.288-0.431-0.577-0.492-0.696c-0.013-0.949-0.033-2.374-0.056-3.894l1.075,3.315L21.444,25.223z
			 M19.108,24.459H16.77l3.482-3.932L19.108,24.459z M20.443,20.631c-0.014,0.885-0.046,3.713-0.046,3.827h-1.042L20.443,20.631z
			 M24.786,20.225c-0.002-0.064,0.028-0.043,0.054,0.019l0.974,4.215c-0.211,0.497-0.644,0.86-0.956,1.073
			C24.85,24.762,24.79,20.246,24.786,20.225 M26.066,24.434l-1.195-5.002c-0.035-0.307,0.042-0.199,0.101-0.087l2.182,5.089H26.066z
			 M28.009,21.996c-0.16,0.795-0.369,1.583-0.624,2.351l-2.615-6.2l1.149-0.511c0.12-0.057,0.12-0.23,0.003-0.292
			c0,0-1.125-0.799-1.188-0.846l-0.028-1.901c0.141-0.017,0.274-0.078,0.412-0.099c0.151-0.026,0.295,0.002,0.444,0.027
			c0.136,0.024,0.273,0.035,0.404-0.003c0.127-0.036,0.241-0.106,0.341-0.189c-0.297-0.006-0.539-0.197-0.803-0.313
			c-0.132-0.064-0.275-0.096-0.42-0.115c-0.142-0.015-0.313-0.023-0.451,0.019c-0.011-0.111-0.026-0.226-0.049-0.352h-0.058
			c-0.089,0.524-0.084,1.092-0.091,1.619c-0.004,0.369-0.007,0.741-0.015,1.109c0,0.068,0,0.133-0.002,0.2l-1.181,0.843
			c-0.116,0.062-0.12,0.232,0,0.295l0,0l1.114,0.51L22.1,23.625l-1.16-3.523l1.285-0.603c0.133-0.067,0.137-0.269,0.006-0.339
			c0,0-1.209-0.848-1.368-0.96c-0.01-0.446-0.017-0.93-0.019-1.347l1.171-0.555l0,0c0.116-0.054,0.124-0.229,0.006-0.29
			c0,0-1.048-0.748-1.204-0.855c-0.012-0.864-0.021-1.726-0.03-2.585c0.064,0,0.131-0.027,0.197-0.045
			c0.075-0.022,0.149-0.044,0.225-0.056c0.15-0.027,0.294-0.004,0.445,0.02c0.141,0.026,0.288,0.043,0.426,0
			c0.127-0.039,0.24-0.106,0.341-0.188c-0.3-0.006-0.54-0.198-0.8-0.313c-0.135-0.064-0.277-0.097-0.424-0.114
			c-0.143-0.018-0.311-0.024-0.448,0.017c-0.012-0.113-0.025-0.23-0.049-0.353h-0.057v0.001c-0.081,0.48-0.087,0.96-0.091,1.441
			c-0.003,0.439-0.005,0.877-0.014,1.317c-0.004,0.286-0.006,0.574-0.012,0.856l-1.192,0.85c-0.12,0.063-0.12,0.236,0,0.295
			l1.167,0.551h0.002c-0.002,0.419-0.008,0.912-0.016,1.352l-1.366,0.959c-0.137,0.069-0.137,0.266,0,0.341l1.257,0.6l-3.928,4.36
			c-0.075,0-0.565,0.006-0.635,0.093c-0.104,0.083-0.106,0.207-0.064,0.313c0.059,0.141,0.18,0.24,0.31,0.316
			c0.064,0.039,0.139,0.072,0.211,0.1c0.006,0.006,0.017,0.014,0.023,0.022c0,0,0.353,1.177,1.868,1.728l0,0
			c0,0,0.038,0.01,0.029,0.043c0,0.008-0.007,0.008-0.012,0.013c-0.008,0.008-0.023,0.013-0.038,0.015
			c-1.445-0.093-2.869-0.332-4.3-0.554c-0.545-0.086-1.09-0.171-1.638-0.243c-0.37-0.045-0.738-0.089-1.106-0.154
			c-0.036-0.014-0.056-0.025-0.06-0.04v-0.007c-0.002,0-0.002-0.004-0.002-0.004V26.09c0-0.004,0.002-0.004,0.002-0.004
			c0-0.006,0.011-0.02,0.018-0.027c0.006-0.005,0.012-0.006,0.012-0.006c2.01-0.6,2.434-2.067,2.434-2.067
			c0.027-0.011,0.052-0.028,0.075-0.038c0.055-0.027,0.112-0.049,0.159-0.08c0.131-0.072,0.254-0.172,0.31-0.314
			c0.046-0.108,0.038-0.232-0.064-0.313c-0.074-0.1-0.642-0.098-0.642-0.098l-0.003,0.004h-0.099
			c-0.002-0.314-0.013-1.127-0.03-1.653c0.061,0.028,0.132,0.003,0.188-0.009c0.076-0.025,0.152-0.045,0.226-0.064
			c0.156-0.037,0.306-0.029,0.463,0c0.151,0.027,0.3,0.055,0.451,0.018c0.132-0.033,0.255-0.107,0.358-0.196
			c-0.302-0.007-0.548-0.208-0.817-0.323c-0.142-0.063-0.293-0.096-0.446-0.108c-0.144-0.01-0.322-0.026-0.452,0.038
			c-0.01-0.127-0.023-0.236-0.035-0.313h-0.059c-0.076,0.449-0.078,2.008-0.082,2.611l-1.009,0.002
			c-0.029-1.1-0.079-2.57-0.105-3.506l0.875-1.878c0.12,0.056,0.261,0.063,0.382,0.106c0.136,0.05,0.248,0.129,0.357,0.227
			c0.106,0.082,0.213,0.171,0.345,0.212c0.145,0.046,0.293,0.039,0.436,0.015c-0.249-0.149-0.367-0.426-0.526-0.65
			c-0.084-0.12-0.188-0.22-0.305-0.307c-0.123-0.091-0.263-0.183-0.409-0.22c0.035-0.101,0.077-0.239,0.084-0.306
			c-0.008-0.012,0-0.031-0.028-0.046c-0.004,0-0.007-0.004-0.015-0.004c-0.039,0.004-0.049,0.031-0.076,0.063
			c-0.077,0.096-0.181,0.28-0.197,0.314l-0.944,2.001c-0.007-0.314-0.017-0.63-0.021-0.946c0-0.396-0.019-0.79-0.086-1.182h-0.056
			c-0.084,0.475-0.085,0.956-0.09,1.441c-0.007,0.431-0.02,0.862-0.032,1.302l-1.608,3.324l-1.437-3.527
			c-0.013-0.435-0.025-0.873-0.029-1.309C8.5,17.778,8.5,17.281,8.418,16.79H8.366c-0.087,0.48-0.087,0.97-0.093,1.456
			c-0.006,0.447-0.018,0.889-0.027,1.332L7.783,20.67L6.66,18.046c-0.009-0.436-0.013-0.863-0.021-1.279l1.024-0.482
			c0.105-0.053,0.105-0.203,0.002-0.259c0,0-0.867-0.624-1.046-0.751c-0.015-0.904-0.023-1.804-0.035-2.706
			c0.066,0,0.13-0.027,0.195-0.045c0.073-0.022,0.146-0.044,0.223-0.056c0.154-0.027,0.296-0.004,0.445,0.02
			c0.144,0.026,0.287,0.043,0.427,0c0.125-0.039,0.24-0.106,0.34-0.188c-0.289-0.006-0.532-0.186-0.782-0.306
			c-0.134-0.062-0.276-0.099-0.421-0.121c-0.146-0.019-0.318-0.027-0.467,0.016c-0.01-0.122-0.026-0.238-0.047-0.357H6.438
			c-0.095,0.58-0.086,1.161-0.091,1.743c-0.004,0.563-0.016,1.124-0.024,1.686c0,0.107,0,0.21-0.003,0.313l-1.046,0.75
			c-0.105,0.052-0.106,0.204,0,0.261l1.024,0.482c-0.005,0.468-0.018,1.23-0.018,1.279l-2.084,4.903l-0.308-1.125h0.271v-0.005
			h0.132c0.058,0,0.123-0.022,0.175-0.042c0.039-0.012,0.132-0.043,0.132-0.097s-0.083-0.085-0.121-0.097
			c-0.056-0.023-0.123-0.041-0.188-0.041H3.816l-0.208-0.775c-0.004-0.318-0.008-0.645-0.017-0.958l1.152-0.538
			c0.118-0.063,0.121-0.226,0.006-0.289c0,0-1.106-0.782-1.184-0.837c-0.002-0.226-0.009-0.551-0.013-0.753l1.038-0.493
			c0.104-0.052,0.107-0.201,0.002-0.258c0,0-0.92-0.66-1.063-0.765c-0.013-0.752-0.017-1.257-0.021-1.315
			c0.123,0.013,0.25-0.056,0.362-0.077c0.134-0.025,0.261-0.014,0.389,0.006c0.127,0.028,0.254,0.043,0.38,0.015
			c0.12-0.033,0.227-0.095,0.32-0.174c-0.263-0.006-0.48-0.174-0.711-0.279c-0.119-0.055-0.247-0.088-0.379-0.098
			c-0.125-0.012-0.279-0.027-0.401,0.024c-0.01-0.104-0.024-0.2-0.047-0.314H3.37c-0.083,0.414-0.085,0.833-0.089,1.253
			c-0.007,0.356-0.011,0.604-0.018,0.961l-1.062,0.762c-0.108,0.055-0.108,0.209,0,0.26l1.036,0.494
			c-0.002,0.211-0.004,0.529-0.008,0.753l-1.167,0.835c-0.118,0.059-0.118,0.228-0.004,0.287l1.142,0.546
			c-0.004,0.31-0.013,0.626-0.019,0.94l-0.205,0.789H2.496c-0.057,0-0.123,0.016-0.174,0.037c-0.039,0.012-0.131,0.045-0.131,0.102
			c0,0.049,0.08,0.079,0.117,0.092c0.062,0.023,0.128,0.046,0.188,0.046H2.63c0,0,0,0.005,0.002,0.005h0.269l-0.357,1.355H1.967
			c-0.352-1.313-0.561-2.658-0.636-4.016c-0.079-1.36-0.019-2.724,0.172-4.067c0.172-1.249,0.47-2.483,0.885-3.673
			c0.399-1.135,0.899-2.233,1.514-3.264c0.321-0.542,0.671-1.065,1.059-1.57c1.561,0.523,3.581,0.042,3.581,0.042
			c1.818-0.327,2.953-0.274,3.611-0.174l0.353,0.063c0.039-0.223,0.064-0.382,0.134-0.593C10.736,5.326,8.592,5.62,8.592,5.62
			C7.293,5.735,6.505,5.471,6.099,5.249c0,0,0.819-0.874,1.485-1.353C8.172,4.32,8.911,4.525,9.604,4.647
			c0.461,0.083,0.926,0.122,1.381,0.223c0.459,0.104,0.92,0.244,1.368,0.399c0.157,0.054,0.369,0.156,0.46,0.199
			c0.084-0.185,0.2-0.356,0.318-0.525L12.837,4.76c-0.587-0.335-1.141-0.511-1.76-0.697c-0.417-0.127-0.815-0.27-1.202-0.471
			c-0.528-0.271-0.855-0.625-0.885-0.65c0,0,0.905-0.553,1.756-0.869c0.396,0.559,1.126,0.874,1.627,1.301
			c0.706,0.6,1.081,1.164,1.113,1.228c0.168-0.125,0.321-0.219,0.536-0.298c-0.281-0.619-0.685-1.33-1.171-1.778
			c-0.218-0.205-0.546-0.559-0.639-0.915c0,0,1.133-0.289,2.008-0.298l0.323,2.868c0.123-0.026,0.306-0.021,0.306-0.021
			s0.115-0.005,0.307,0.021l0.325-2.868c0,0,0.769,0.036,1.398,0.162c0.347,0.069,0.611,0.136,0.611,0.136
			c-0.101,0.354-0.419,0.712-0.637,0.915c-0.492,0.46-0.874,1.159-1.156,1.783c0.163,0.074,0.354,0.149,0.529,0.294
			c0.329-0.49,0.735-0.909,1.107-1.228c0.49-0.424,1.225-0.755,1.62-1.301c0.101,0.037,0.542,0.207,1.243,0.566l0.527,0.3
			c-0.017,0.016-0.6,0.492-0.891,0.653c-0.376,0.218-0.785,0.344-1.197,0.471c-0.621,0.186-1.176,0.361-1.764,0.697L16.57,4.943
			c0.116,0.148,0.228,0.324,0.325,0.526c0.104-0.052,0.308-0.146,0.457-0.198c0.451-0.155,0.906-0.295,1.372-0.399
			c0.453-0.102,0.919-0.14,1.375-0.22c0.691-0.12,1.434-0.343,2.019-0.754c0.737,0.571,1.487,1.353,1.487,1.353
			c-0.411,0.223-1.204,0.485-2.492,0.372c0,0-2.143-0.296-4.043,0.302c0.058,0.177,0.082,0.303,0.125,0.58l0.375-0.061
			c0.674-0.096,1.778-0.135,3.594,0.191c0,0,2.01,0.482,3.574-0.04c0.155,0.2,0.306,0.407,0.448,0.618
			c0.671,0.974,1.235,2.017,1.693,3.103c0.485,1.145,0.849,2.335,1.103,3.551c0.263,1.284,0.4,2.588,0.414,3.896
			C28.414,19.177,28.285,20.6,28.009,21.996"/>
	</g>
</g>
</svg>
