<?xml version="1.0" encoding="utf-8"?>
<!-- Generator: Adobe Illustrator 16.0.4, SVG Export Plug-In . SVG Version: 6.00 Build 0)  -->
<!DOCTYPE svg PUBLIC "-//W3C//DTD SVG 1.1//EN" "http://www.w3.org/Graphics/SVG/1.1/DTD/svg11.dtd">
<svg version="1.1" id="Layer_1" xmlns="http://www.w3.org/2000/svg" xmlns:xlink="http://www.w3.org/1999/xlink" x="0px" y="0px"
	 width="234px" height="60px" viewBox="0 0 234 60" enable-background="new 0 0 234 60" xml:space="preserve">
<g>
	<path fill="#FFFFFF" d="M49.233,59.451c-0.733,0.732-1.92,0.732-2.653,0c-0.365-0.366-0.548-0.846-0.548-1.327v-7.012
		c0-0.871-0.707-1.577-1.577-1.577c-0.279,0-0.539,0.072-0.766,0.197l0.001,0.002c-0.343,0.207-0.695,0.401-1.056,0.578l-1.385,0.67
		c-3.645,1.568-7.66,2.437-11.88,2.437H7.513C3.365,53.42,0,50.057,0,45.908V8.29c0-4.148,3.365-7.513,7.513-7.513h20.221
		c4.42,0,8.588,1.088,12.25,3.012l0.002-0.002c4.148,2.147,6.983,6.476,6.983,11.47c0,4.311-2.113,8.126-5.36,10.471v-0.001
		c3.28,1.279,5.931,3.81,7.372,7.005L63.055,5.549C64.706,2.259,68.108,0,72.042,0c3.933,0,7.338,2.259,8.988,5.551l-0.002,0.001
		l19.207,37.085h0.001c0.619,1.091,0.971,2.353,0.971,3.695c0,4.15-3.363,7.513-7.513,7.513c-3.043,0-5.666-1.812-6.845-4.414V49.43
		c-0.608-1.432-2.027-2.435-3.679-2.435H62.337c-0.402,0-0.806,0.155-1.114,0.462L49.233,59.451z"/>
	<path fill="#FFFFFF" d="M112.941,10.438h11.785v2.497h-8.992v4.133h7.97v2.498h-7.97v4.27h9.106v2.497h-11.899V10.438z"/>
	<path fill="#FFFFFF" d="M126.722,10.438h2.589l8.515,10.989V10.438h2.748v15.894h-2.338l-8.764-11.308v11.308h-2.749V10.438z"/>
	<path fill="#FFFFFF" d="M152.491,13.024h-5.042v-2.587h12.898v2.587h-5.04v13.307h-2.816V13.024z"/>
	<path fill="#FFFFFF" d="M161.141,18.429v-0.044c0-4.474,3.451-8.221,8.333-8.221c4.882,0,8.289,3.702,8.289,8.174v0.047
		c0,4.473-3.452,8.218-8.334,8.218C164.547,26.604,161.141,22.903,161.141,18.429z M174.833,18.429v-0.044
		c0-3.089-2.249-5.655-5.405-5.655s-5.359,2.521-5.359,5.608v0.047c0,3.087,2.249,5.653,5.405,5.653S174.833,21.518,174.833,18.429z
		"/>
	<path fill="#FFFFFF" d="M179.712,10.438h5.927c4.996,0,8.447,3.428,8.447,7.901v0.047c0,4.473-3.451,7.946-8.447,7.946h-5.927
		V10.438z M185.639,23.789c3.339,0,5.519-2.249,5.519-5.359v-0.044c0-3.112-2.18-5.405-5.519-5.405h-3.134v10.808H185.639z"/>
	<path fill="#FFFFFF" d="M195.333,18.429v-0.044c0-4.474,3.45-8.221,8.333-8.221c4.881,0,8.288,3.702,8.288,8.174v0.047
		c0,4.473-3.452,8.218-8.333,8.218C198.738,26.604,195.333,22.903,195.333,18.429z M209.025,18.429v-0.044
		c0-3.089-2.249-5.655-5.405-5.655c-3.156,0-5.359,2.521-5.359,5.608v0.047c0,3.087,2.249,5.653,5.405,5.653
		S209.025,21.518,209.025,18.429z"/>
	<path fill="#FFFFFF" d="M112.941,32.459h11.785v2.499h-8.992v4.131h7.97v2.497h-7.97v4.271h9.106v2.497h-11.899V32.459z"/>
	<path fill="#FFFFFF" d="M125.655,46.038l1.68-1.999c1.522,1.318,3.043,2.066,5.019,2.066c1.727,0,2.816-0.794,2.816-1.999v-0.044
		c0-1.135-0.637-1.749-3.589-2.43c-3.383-0.817-5.29-1.817-5.29-4.746v-0.045c0-2.725,2.271-4.609,5.427-4.609
		c2.316,0,4.155,0.703,5.768,1.998l-1.499,2.112c-1.431-1.068-2.862-1.634-4.315-1.634c-1.635,0-2.588,0.839-2.588,1.884v0.045
		c0,1.227,0.727,1.771,3.77,2.498c3.36,0.818,5.109,2.021,5.109,4.655v0.046c0,2.975-2.339,4.746-5.677,4.746
		C129.856,48.581,127.563,47.741,125.655,46.038z"/>
	<path fill="#FFFFFF" d="M143.706,35.048h-5.042v-2.589h12.898v2.589h-5.042v13.307h-2.815V35.048z"/>
	<path fill="#FFFFFF" d="M158.69,32.346h2.589l6.993,16.009h-2.952l-1.612-3.838h-7.516l-1.635,3.838h-2.861L158.69,32.346z
		 M162.686,42.042l-2.747-6.358l-2.726,6.358H162.686z M161.255,27.417l2.499,1.113l-2.771,2.612h-2.134L161.255,27.417z"/>
	<path fill="#FFFFFF" d="M168.474,46.038l1.68-1.999c1.522,1.318,3.043,2.066,5.019,2.066c1.726,0,2.816-0.794,2.816-1.999v-0.044
		c0-1.135-0.637-1.749-3.587-2.43c-3.384-0.817-5.292-1.817-5.292-4.746v-0.045c0-2.725,2.271-4.609,5.427-4.609
		c2.316,0,4.156,0.703,5.768,1.998l-1.5,2.112c-1.43-1.068-2.859-1.634-4.313-1.634c-1.634,0-2.588,0.839-2.588,1.884v0.045
		c0,1.227,0.727,1.771,3.77,2.498c3.36,0.818,5.109,2.021,5.109,4.655v0.046c0,2.975-2.338,4.746-5.677,4.746
		C172.674,48.581,170.381,47.741,168.474,46.038z"/>
	<path fill="#FFFFFF" d="M186.66,32.459h3.087l4.792,12.216l4.768-12.216h3.021l-6.608,16.009h-2.453L186.66,32.459z"/>
	<path fill="#FFFFFF" d="M202.893,40.453v-0.046c0-4.474,3.452-8.22,8.333-8.22c4.883,0,8.289,3.7,8.289,8.174v0.045
		c0,4.474-3.452,8.22-8.334,8.22C206.299,48.627,202.893,44.925,202.893,40.453z M216.585,40.453v-0.046
		c0-3.088-2.249-5.655-5.405-5.655s-5.358,2.521-5.358,5.609v0.045c0,3.089,2.247,5.654,5.403,5.654S216.585,43.54,216.585,40.453z"
		/>
	<path fill="#FFFFFF" d="M220.306,46.041l1.68-1.999c1.522,1.317,3.043,2.066,5.018,2.066c1.727,0,2.816-0.794,2.816-1.997v-0.045
		c0-1.136-0.637-1.749-3.587-2.43c-3.384-0.818-5.292-1.816-5.292-4.746v-0.046c0-2.725,2.271-4.609,5.427-4.609
		c2.316,0,4.156,0.703,5.768,1.997l-1.5,2.112c-1.43-1.066-2.859-1.634-4.313-1.634c-1.634,0-2.588,0.84-2.588,1.884v0.046
		c0,1.227,0.727,1.771,3.769,2.497c3.361,0.818,5.109,2.022,5.109,4.656v0.044c0,2.975-2.338,4.746-5.677,4.746
		C224.507,48.584,222.214,47.744,220.306,46.041z"/>
</g>
</svg>
