<?xml version="1.0" encoding="utf-8"?>
<!-- Generator: Adobe Illustrator 16.0.4, SVG Export Plug-In . SVG Version: 6.00 Build 0)  -->
<!DOCTYPE svg PUBLIC "-//W3C//DTD SVG 1.1//EN" "http://www.w3.org/Graphics/SVG/1.1/DTD/svg11.dtd">
<svg version="1.1" id="Layer_1" xmlns="http://www.w3.org/2000/svg" xmlns:xlink="http://www.w3.org/1999/xlink" x="0px" y="0px"
	 width="90px" height="89.999px" viewBox="0 0 90 89.999" enable-background="new 0 0 90 89.999" xml:space="preserve">
<g>
	<path fill="#2AA9E0" d="M45.001,1C20.703,1,1,20.702,1,45c0,24.303,19.703,43.998,44.001,43.998
		C69.3,88.998,89.002,69.303,89.002,45C89.002,20.702,69.3,1,45.001,1z"/>
	<path fill="#FFFFFF" d="M62.497,36.031c0.018,0.387,0.029,0.773,0.029,1.166c0,11.928-9.081,25.683-25.688,25.683
		c-5.102,0-9.842-1.493-13.838-4.055c0.71,0.082,1.427,0.125,2.15,0.125c4.235,0,8.123-1.44,11.213-3.863
		c-3.949-0.075-7.282-2.685-8.432-6.268c0.55,0.103,1.115,0.162,1.699,0.162c0.825,0,1.621-0.113,2.374-0.316
		c-4.125-0.831-7.239-4.479-7.239-8.851c0-0.039,0-0.075,0-0.113c1.222,0.676,2.61,1.08,4.094,1.129
		c-2.425-1.617-4.021-4.383-4.021-7.514c0-1.654,0.45-3.208,1.227-4.54c4.445,5.464,11.106,9.058,18.605,9.433
		c-0.154-0.66-0.235-1.348-0.235-2.058c0-4.983,4.042-9.024,9.028-9.024c2.594,0,4.943,1.096,6.59,2.847
		c2.052-0.403,3.985-1.155,5.733-2.191c-0.676,2.11-2.104,3.879-3.972,4.996c1.828-0.215,3.567-0.704,5.187-1.418
		C65.792,33.167,64.261,34.757,62.497,36.031z"/>
</g>
</svg>
