<?xml version="1.0" encoding="utf-8"?>
<!-- Generator: Adobe Illustrator 16.0.0, SVG Export Plug-In . SVG Version: 6.00 Build 0)  -->
<!DOCTYPE svg PUBLIC "-//W3C//DTD SVG 1.1//EN" "http://www.w3.org/Graphics/SVG/1.1/DTD/svg11.dtd">
<svg version="1.1" id="Layer_1" xmlns="http://www.w3.org/2000/svg" xmlns:xlink="http://www.w3.org/1999/xlink" x="0px" y="0px"
	 width="90px" height="90px" viewBox="0 0 90 90" enable-background="new 0 0 90 90" xml:space="preserve">
<path fill="#D7A721" d="M45.001,1C20.703,1,1,20.702,1,45c0,24.302,19.703,43.998,44.001,43.998
	C69.3,88.998,89.002,69.302,89.002,45C89.002,20.702,69.3,1,45.001,1z"/>
<g>
	<path fill="#FFFFFF" d="M25,65v-4.766l13.333-8.568v-3.332c-0.822,0-1.583-0.827-2.283-2.484S35,42.799,35,41.667V35
		c0-2.754,0.978-5.11,2.933-7.067C39.89,25.979,42.246,25,45,25c2.755,0,5.11,0.98,7.067,2.933C54.023,29.889,55,32.246,55,35v6.667
		c0,1.133-0.352,2.525-1.048,4.183c-0.703,1.657-1.466,2.484-2.286,2.484v3.332L65,60.234V65H25z"/>
</g>
</svg>
