<?xml version="1.0" encoding="utf-8"?>
<!-- Generator: Adobe Illustrator 16.0.4, SVG Export Plug-In . SVG Version: 6.00 Build 0)  -->
<!DOCTYPE svg PUBLIC "-//W3C//DTD SVG 1.1//EN" "http://www.w3.org/Graphics/SVG/1.1/DTD/svg11.dtd">
<svg version="1.1" id="Layer_1" xmlns="http://www.w3.org/2000/svg" xmlns:xlink="http://www.w3.org/1999/xlink" x="0px" y="0px"
	 width="90px" height="89.999px" viewBox="0 0 90 89.999" enable-background="new 0 0 90 89.999" xml:space="preserve">
<g>
	<path fill="#F48020" d="M44.999,1C20.698,1,1,20.701,1,44.998c0,24.302,19.698,43.997,43.999,43.997
		c24.3,0,44.003-19.695,44.003-43.997C89.002,20.701,69.299,1,44.999,1z"/>
	<path fill="#FFFFFF" d="M28.926,66.946c-3.221,0-5.837-2.614-5.837-5.843c0-3.227,2.616-5.837,5.837-5.837
		c3.231,0,5.849,2.61,5.849,5.837C34.774,64.332,32.157,66.946,28.926,66.946z"/>
	<path fill="#FFFFFF" d="M43.585,66.986c0-5.511-2.135-10.688-6.009-14.578c-3.865-3.888-9.008-6.023-14.483-6.023v-8.433
		c15.946,0,28.924,13.022,28.924,29.034H43.585z"/>
	<path fill="#FFFFFF" d="M58.479,66.996c0-19.607-15.864-35.564-35.37-35.564v-8.433c24.15,0,43.804,19.739,43.804,43.998H58.479z"
		/>
</g>
</svg>
