<?xml version="1.0" encoding="utf-8"?>
<!-- Generator: Adobe Illustrator 16.0.4, SVG Export Plug-In . SVG Version: 6.00 Build 0)  -->
<!DOCTYPE svg PUBLIC "-//W3C//DTD SVG 1.1//EN" "http://www.w3.org/Graphics/SVG/1.1/DTD/svg11.dtd">
<svg version="1.1" id="Layer_1" xmlns="http://www.w3.org/2000/svg" xmlns:xlink="http://www.w3.org/1999/xlink" x="0px" y="0px"
	 width="90px" height="89.999px" viewBox="0 0 90 89.999" enable-background="new 0 0 90 89.999" xml:space="preserve">
<g>
	<path fill="#ED3437" d="M45.001,1C20.703,1,1,20.702,1,45.001C1,69.304,20.703,89,45.001,89c24.303,0,44.001-19.696,44.001-43.999
		C89.002,20.702,69.304,1,45.001,1z"/>
	<path fill="#FFFFFF" d="M50.309,27.845h2.504v9.406c0,0.29,0.059,0.5,0.16,0.629c0.103,0.133,0.274,0.199,0.512,0.199
		c0.183,0,0.418-0.086,0.698-0.258c0.278-0.179,0.536-0.394,0.773-0.661v-9.315h2.504v12.269h-2.504v-1.359
		c-0.463,0.5-0.94,0.886-1.444,1.144c-0.5,0.258-0.984,0.398-1.452,0.398c-0.584,0-1.014-0.188-1.31-0.559
		c-0.296-0.36-0.441-0.909-0.441-1.64V27.845z"/>
	<path fill="#FFFFFF" d="M41,30.649c0-0.951,0.342-1.709,1.012-2.268c0.676-0.563,1.585-0.843,2.725-0.843
		c1.033,0,1.884,0.296,2.549,0.886c0.658,0.59,0.988,1.364,0.988,2.294v6.338c0,1.053-0.321,1.87-0.966,2.471
		c-0.658,0.597-1.547,0.897-2.687,0.897c-1.095,0-1.977-0.312-2.633-0.929C41.335,38.879,41,38.051,41,37.009V30.649z"/>
	<polygon fill="#FFFFFF" points="34.175,23.482 36.007,30.132 36.186,30.132 37.934,23.482 40.797,23.482 37.513,33.217 
		37.513,40.114 34.695,40.114 34.695,33.523 31.332,23.482 	"/>
	<path fill="#FFFFFF" d="M66.999,58.481c0,4.437-3.601,8.04-8.037,8.04H31.036c-4.439,0-8.036-3.603-8.036-8.04v-6.463
		c0-4.434,3.597-8.038,8.036-8.038h27.926c4.437,0,8.037,3.604,8.037,8.038V58.481z"/>
	<path fill="#ED3437" d="M44.609,38.298c0.344,0,0.613-0.09,0.81-0.278c0.202-0.188,0.304-0.452,0.304-0.78v-6.681
		c0-0.269-0.102-0.485-0.306-0.651c-0.206-0.166-0.473-0.248-0.808-0.248c-0.301,0-0.552,0.082-0.744,0.248
		c-0.189,0.167-0.287,0.382-0.287,0.651v6.681c0,0.339,0.093,0.597,0.27,0.78C44.026,38.212,44.279,38.298,44.609,38.298z"/>
	<path fill="#ED3437" d="M50.144,50.64c-0.344,0-0.688,0.086-1.028,0.261c-0.333,0.179-0.651,0.442-0.952,0.773v-4.857H45.91v15.097
		h2.253V61.06c0.291,0.344,0.612,0.59,0.952,0.752c0.341,0.166,0.728,0.241,1.164,0.241c0.658,0,1.163-0.204,1.509-0.626
		c0.353-0.425,0.524-1.027,0.524-1.812v-6.181c0-0.914-0.183-1.607-0.557-2.085C51.39,50.875,50.852,50.64,50.144,50.64z
		 M50.021,59.303c0,0.361-0.065,0.612-0.189,0.768c-0.129,0.16-0.328,0.242-0.604,0.242c-0.188,0-0.364-0.043-0.536-0.125
		c-0.172-0.074-0.348-0.215-0.528-0.391v-6.939c0.153-0.155,0.305-0.268,0.459-0.344c0.155-0.069,0.314-0.109,0.47-0.109
		c0.299,0,0.536,0.099,0.697,0.291c0.158,0.194,0.232,0.479,0.232,0.859V59.303z"/>
	<polygon fill="#ED3437" points="29.206,49.011 31.8,49.011 31.8,61.914 34.309,61.914 34.309,49.011 36.907,49.011 36.907,46.817 
		29.206,46.817 	"/>
	<path fill="#ED3437" d="M42.012,59.234c-0.206,0.241-0.437,0.438-0.688,0.602c-0.251,0.155-0.461,0.23-0.624,0.23
		c-0.203,0-0.354-0.054-0.454-0.179c-0.091-0.117-0.136-0.305-0.136-0.567v-8.548h-2.226v9.314c0,0.667,0.131,1.156,0.389,1.488
		c0.263,0.339,0.645,0.5,1.163,0.5c0.416,0,0.85-0.113,1.293-0.355c0.443-0.235,0.873-0.579,1.283-1.031v1.226h2.228V50.772h-2.228
		V59.234z"/>
	<path fill="#ED3437" d="M56.863,50.5c-0.995,0-1.805,0.301-2.434,0.907c-0.634,0.608-0.945,1.402-0.945,2.363v5
		c0,1.074,0.289,1.918,0.859,2.526c0.569,0.617,1.356,0.918,2.352,0.918c1.108,0,1.945-0.285,2.499-0.859
		c0.563-0.581,0.844-1.44,0.844-2.585v-0.567h-2.293v0.504c0,0.656-0.079,1.079-0.222,1.273c-0.149,0.192-0.407,0.29-0.773,0.29
		c-0.355,0-0.61-0.113-0.756-0.339c-0.146-0.23-0.219-0.638-0.219-1.223v-2.094h4.263v-2.843c0-1.058-0.275-1.864-0.825-2.427
		C58.668,50.779,57.885,50.5,56.863,50.5z M57.745,54.877h-1.97v-1.123c0-0.467,0.074-0.805,0.232-0.999
		c0.156-0.209,0.409-0.311,0.765-0.311c0.337,0,0.591,0.102,0.739,0.311c0.152,0.193,0.233,0.532,0.233,0.999V54.877z"/>
</g>
</svg>
