<svg xmlns="http://www.w3.org/2000/svg" viewBox="0 0 16 16"><title>008-benefit-barrier-free</title><path d="M9.54,10.38v.1a2.29,2.29,0,1,1-3.6-2,2.91,2.91,0,0,1,.26-.16l.93,2.07v0a.44.44,0,0,0,.45.31l.13,0h0ZM16,8A8,8,0,1,1,8,0,8,8,0,0,1,16,8ZM5.79,3.32A1.11,1.11,0,1,0,6.91,2.21,1.11,1.11,0,0,0,5.79,3.32Zm4.92,6.42c0-.23-.2-.39-.35-.36L7.8,9.84,6.18,6.24a.42.42,0,1,0-.76.34l.43,1-.27.19-.14.11h0a3.12,3.12,0,1,0,5.11,2.47v-.12A.39.39,0,0,0,10.71,9.75Zm1.85,1.6L12,7.78a.65.65,0,0,0,0-.08.46.46,0,0,0-.41-.49h-.18l-2.16.56S8.62,6.3,8.56,6.23v0c1.33.07,1.71.06,2.28-.33s1.08-1,.71-1.19-1,.57-1,.57c-.59.48-1.63.23-2.21.16l-.08-.18A.93.93,0,1,0,6.53,6,23.68,23.68,0,0,0,8,9.09c.45.4,1.3,0,1.32,0l1.74-.52.46,2.94a.53.53,0,0,0,1-.16Z"/></svg>