<svg xmlns="http://www.w3.org/2000/svg" viewBox="0 0 16 16"><title>009-benefit-canteen</title><path d="M8,4.86a2.68,2.68,0,1,0,2.68,2.68A2.68,2.68,0,0,0,8,4.86Zm.16.77A2.4,2.4,0,0,0,5.9,8.71a2.4,2.4,0,1,1,4.44-1.77A2.4,2.4,0,0,0,8.21,5.63ZM8,0a8,8,0,1,0,8,8A8,8,0,0,0,8,0ZM3.71,5.91A.83.83,0,0,1,3,6.8c.08,1.68.16,2.52.24,4.2,0,.13-.17.31-.41.31s-.42-.18-.41-.31c.08-1.68.16-2.52.24-4.2a.85.85,0,0,1-.73-.89,20.63,20.63,0,0,1,.29-2.13,18.54,18.54,0,0,1,0,2.09h.19a18.67,18.67,0,0,1,.2-2.09,18.71,18.71,0,0,1,.11,2.09h.19A18.92,18.92,0,0,1,3,3.77a18.67,18.67,0,0,1,.2,2.09h.19a18.38,18.38,0,0,1,0-2.09c.07,0,.29,2.13.29,2.13S3.66,5.46,3.71,5.91ZM8,11.56a4,4,0,1,1,4-4A4,4,0,0,1,8,11.56Zm5.57-5a12.86,12.86,0,0,1-.27,2.15c.05,1.1.1,1.35.16,2.44,0,.13-.17.31-.41.31s-.42-.18-.41-.31c.05-1.14.11-1.43.16-2.56-.1-.16-.22-.07-.28-.52-.11-.81-.08-2-.1-2.57,0-1.14.34-1.53.63-1.74C13.58,3.36,13.64,4.53,13.62,6.52Z"/></svg>