<svg xmlns="http://www.w3.org/2000/svg" viewBox="0 0 16 16"><title>010-benefit-childcare</title><path d="M8,0a8,8,0,1,0,8,8A8,8,0,0,0,8,0ZM7.88,2.4A1.08,1.08,0,1,1,6.8,3.48,1.08,1.08,0,0,1,7.88,2.4ZM11,7.89l-.47.35s-.19-.09-.33-.28l-.57-.78q.29,1.05.59,2.1a.55.55,0,0,1-.48.69l-.23,0q0,1.2-.09,2.39A.66.66,0,0,1,9,13L8.77,13c-.12-.73-.24-1.45-.36-2.18a1.2,1.2,0,0,0-.19-.53.46.46,0,0,0-.68,0,1.18,1.18,0,0,0-.2.53c-.11.73-.23,1.45-.36,2.18L6.71,13a.66.66,0,0,1-.41-.56q0-1.2-.09-2.39L6,10a.56.56,0,0,1-.48-.69c.21-.71.41-1.43.6-2.14L5.51,8c-.13.19-.28.31-.33.28l-.47-.35s0-.21.17-.39L6.54,5.32a1.54,1.54,0,0,1,.4-.39l.07,0a2.23,2.23,0,0,1,1.76,0A.4.4,0,0,1,8.87,5a2,2,0,0,1,.34.35l1.66,2.18C11,7.68,11.08,7.85,11,7.89Z"/></svg>