<svg xmlns="http://www.w3.org/2000/svg" viewBox="0 0 16 16"><title>011-benefit-coaching</title><path d="M8,0a8,8,0,1,0,8,8A8,8,0,0,0,8,0Zm3,3.14.37.34-2.18,2Zm-2.2-.58L8.56,5.48,8.34,2.55Zm-2.89.59L7.67,5.48l-2.1-2Zm7.62,4.79H11.35A2,2,0,0,0,9.55,9.38a2.76,2.76,0,0,1-.17.72h0a2.79,2.79,0,0,1-5.1.24A2.74,2.74,0,0,1,4,9.3c-.5.08-.51,1.77-.51,1.77L3,9.1c-.25-.87,1.15-.9,1.15-.9h0A2.79,2.79,0,0,1,8.2,6.71l.94-.4h4.42V7.94Zm-6.89-1a2.2,2.2,0,1,0,2.2,2.2A2.2,2.2,0,0,0,6.67,6.9Zm0,3.9A1.69,1.69,0,1,1,8.36,9.1,1.69,1.69,0,0,1,6.67,10.8Z"/></svg>