<svg xmlns="http://www.w3.org/2000/svg" viewBox="0 0 16 16"><title>012-benefit-company-car</title><path d="M8,0a8,8,0,1,0,8,8A8,8,0,0,0,8,0Zm4.6,9a.59.59,0,0,1-.34.53v1a.58.58,0,0,1-.59.59h-1a.59.59,0,0,1-.59-.59V9.6H5.51v.91a.58.58,0,0,1-.59.59H4a.59.59,0,0,1-.59-.59v-1A.6.6,0,0,1,3,9V7.71a1.13,1.13,0,0,1,.56-.9l.27-.12-.21-.05a.47.47,0,1,1,.24-.9l.58.15a10.28,10.28,0,0,1,.58-1.14c.19-.33.35-.5.59-.53H10c.24,0,.4.2.59.53a10.28,10.28,0,0,1,.58,1.14l.58-.15a.47.47,0,1,1,.24.9l-.21.05.27.12a1.13,1.13,0,0,1,.56.9Q12.6,8.36,12.6,9ZM5,8.45a.54.54,0,0,1-.57.34l-.71-.15A.49.49,0,0,1,3.41,8c.06-.3.31-.53.56-.45a4.78,4.78,0,0,1,.71.29A.55.55,0,0,1,5,8.45Zm5.85-2.24H4.76v0A10.6,10.6,0,0,1,5.4,5c.16-.28.24-.33.28-.34H9.95s.12.06.28.33a10.76,10.76,0,0,1,.62,1.23ZM12.22,8a.49.49,0,0,1-.33.61l-.71.15a.54.54,0,0,1-.57-.34.55.55,0,0,1,.33-.59,4.75,4.75,0,0,1,.72-.29C11.91,7.5,12.16,7.73,12.22,8Z"/></svg>