<svg xmlns="http://www.w3.org/2000/svg" viewBox="0 0 16 16"><title>014-benefit-dogs-allowed</title><path d="M8,0a8,8,0,1,0,8,8A8,8,0,0,0,8,0Zm4.59,7.39h-1.9v4.49c0,.61-.19.7-.81.72-.39,0-.77,0-.77-.7,0-.49,0-1,0-1.44s-.41-1-1.23-1c-1.17,0-1.68,0-1.68,0v2.35s.1.77-.93.77a.86.86,0,0,1-.84-.78c-.08-.47-.05-2.39-.05-4.37,0,0-1.84-.07-1.84-.75C2.48,5.88,4.69,6,5.35,6H8.26L9,5.91a11.39,11.39,0,0,1,2.25-2.2l.37-.35a2.39,2.39,0,0,0,.07,1.25,2.52,2.52,0,0,0,1,1.16c.41.27.86.55.86,1C13.53,7.13,13.17,7.39,12.59,7.39Z"/></svg>