<svg xmlns="http://www.w3.org/2000/svg" viewBox="0 0 16 16"><title>016-benefit-employee-events</title><path d="M10.1,8.36A3.76,3.76,0,0,0,10.3,5a14.78,14.78,0,0,0-.68-1.84H6.71A15,15,0,0,0,6,5a3.74,3.74,0,0,0,.2,3.36,2.27,2.27,0,0,0,1.94.92A2.27,2.27,0,0,0,10.1,8.36ZM8.16,8.8a1.8,1.8,0,0,1-1.55-.72,2.77,2.77,0,0,1-.36-2h3.82a2.78,2.78,0,0,1-.35,2A1.79,1.79,0,0,1,8.16,8.8ZM8,0a8,8,0,1,0,8,8A8,8,0,0,0,8,0ZM9.47,13.14h.66c.09,0,.16.1.16.23s-.07.23-.16.23H6.19c-.09,0-.16-.1-.16-.23s.07-.23.16-.23h.66a1.88,1.88,0,0,0,1.06-1v-2a.73.73,0,0,1-.52-.48C5.57,9.24,4.75,7.24,5.56,4.84A16.1,16.1,0,0,1,6.4,2.65H9.93a15.92,15.92,0,0,1,.83,2.19c.81,2.4,0,4.4-1.83,4.83a.73.73,0,0,1-.52.48v2A1.88,1.88,0,0,0,9.47,13.14Z"/></svg>