<svg xmlns="http://www.w3.org/2000/svg" viewBox="0 0 16 16"><title>020-benefit-food-allowance</title><path d="M7.83,12.31a.09.09,0,0,1-.1.07.35.35,0,0,1-.26-.14,1.44,1.44,0,0,1-.25.07.09.09,0,0,1-.11-.06.09.09,0,0,1,.06-.11.56.56,0,0,1,.59.06A.09.09,0,0,1,7.83,12.31ZM16,8A8,8,0,1,1,8,0,8,8,0,0,1,16,8ZM7.25,4A1.67,1.67,0,0,1,7.52,5.5a.1.1,0,0,0,.09.11.1.1,0,0,0,.11-.09,1.91,1.91,0,0,0,0-.2,1.23,1.23,0,0,1,.75-.23,4.11,4.11,0,0,0,.76,0,1.77,1.77,0,0,0,.89-.42,1.7,1.7,0,0,0-.06-2.28l0-.11a.1.1,0,0,0-.09-.1.1.1,0,0,0-.11.09v.12h0a1.06,1.06,0,0,1-.23.6c-.33.36-.83.48-1.1.9a2.49,2.49,0,0,0-.33.88c0,.24-.4.37-.4.34A1.77,1.77,0,0,0,7.4,3.88.1.1,0,1,0,7.25,4ZM8.36,5.67l-1,.18h0a2.74,2.74,0,0,0-1.86-.18c-2.2.61-1.51,3.59-.26,5.56A11.83,11.83,0,0,1,6,12.69a1,1,0,0,0,.81.23c.29-.06.48-.4.78-.31s.3.23.49.26a1.23,1.23,0,0,0,1.1-.2,14.33,14.33,0,0,0,2.33-4.36C11.71,6.18,10.41,5.31,8.36,5.67Zm.21-.92a2,2,0,0,1,.23-.17,4.78,4.78,0,0,1,.79.06.06.06,0,0,0,.06-.06.06.06,0,0,0-.06-.06c-.2,0-.4-.06-.6-.07a4.06,4.06,0,0,0,.46-.28,2.07,2.07,0,0,1,.64-.1.06.06,0,0,0,0-.12,2.06,2.06,0,0,0-.4,0s0,0,0-.05a1.09,1.09,0,0,0,.28-.74.06.06,0,0,0-.06-.06.06.06,0,0,0-.06.06,1.05,1.05,0,0,1-.31.73s-.08,0-.08,0a1.88,1.88,0,0,0,0-.44.06.06,0,0,0-.07-.05.06.06,0,0,0-.05.07,4.68,4.68,0,0,1-.07.65l-.38.22a2.11,2.11,0,0,0,0-.32.06.06,0,0,0-.12,0,1.4,1.4,0,0,1,0,.4,1.77,1.77,0,0,0-.25.19C8.17,5,8.26,5.05,8.57,4.75Z"/></svg>