<?xml version="1.0" encoding="utf-8"?>
<!-- Generator: Adobe Illustrator 22.0.1, SVG Export Plug-In . SVG Version: 6.00 Build 0)  -->
<svg version="1.1" id="Layer_1" xmlns="http://www.w3.org/2000/svg" xmlns:xlink="http://www.w3.org/1999/xlink" x="0px" y="0px"
	 viewBox="0 0 16 16" style="enable-background:new 0 0 16 16;" xml:space="preserve">
<path d="M8,0C3.6,0,0,3.6,0,8s3.6,8,8,8s8-3.6,8-8S12.4,0,8,0z M8.4,5.1c1.5-0.8,3.3-0.8,4.8,0c0,1.8,0,3.7,0,5.5
	c-1.5-0.8-3.3-0.8-4.8,0C8.4,8.7,8.4,6.9,8.4,5.1z M3.3,5.1c1.5-0.8,3.3-0.8,4.8,0c0,1.8,0,3.7,0,5.5c-1.5-0.8-3.3-0.8-4.8,0
	C3.3,8.7,3.3,6.9,3.3,5.1z M8,11c-1.5-0.3-3-0.3-4.5,0C4.9,10.2,6.6,10.2,8,11z M12.8,11.8H2.4V5.5h0.4v5.7h10V11.8z M8.8,11
	c1.4-0.7,3.1-0.7,4.5,0C11.8,10.7,10.2,10.7,8.8,11z"/>
</svg>
