<svg xmlns="http://www.w3.org/2000/svg" viewBox="0 0 16 16"><title>024-benefit-internet-use</title><path d="M10.51,5.25a2.9,2.9,0,0,0-1-.64,3.56,3.56,0,0,0-1.28-.22,4.07,4.07,0,0,0-1.06.13,3.56,3.56,0,0,0-.91.38,3.32,3.32,0,0,0-.74.6A3.57,3.57,0,0,0,5,6.28a4,4,0,0,0-.34.93,4.49,4.49,0,0,0-.12,1,4,4,0,0,0,.23,1.4,2.74,2.74,0,0,0,1.71,1.69,4.15,4.15,0,0,0,1.42.23,5.17,5.17,0,0,0,1.07-.11,4.6,4.6,0,0,0,.91-.29v-.84l-.47.16-.5.13-.52.08a4.17,4.17,0,0,1-.51,0,2.94,2.94,0,0,1-1-.16,2,2,0,0,1-.75-.48,2,2,0,0,1-.45-.78,3.41,3.41,0,0,1-.15-1.07A3.87,3.87,0,0,1,5.67,7a2.73,2.73,0,0,1,.52-.95A2.35,2.35,0,0,1,7,5.44a2.91,2.91,0,0,1,1.18-.22,2.44,2.44,0,0,1,.89.16,2,2,0,0,1,.7.46,2.13,2.13,0,0,1,.46.74,2.8,2.8,0,0,1,.17,1,4,4,0,0,1,0,.57,2.39,2.39,0,0,1-.11.47.91.91,0,0,1-.19.32.36.36,0,0,1-.27.12L9.71,9a.25.25,0,0,1-.1-.1.54.54,0,0,1-.08-.19,1.33,1.33,0,0,1,0-.3V8.33q0-.09,0-.19L9.6,6.31l-.29-.09-.37-.08-.41-.06-.41,0a2.13,2.13,0,0,0-.82.15,1.75,1.75,0,0,0-.62.43,1.88,1.88,0,0,0-.39.65,2.42,2.42,0,0,0-.14.83,2.39,2.39,0,0,0,.1.71,1.61,1.61,0,0,0,.29.55A1.3,1.3,0,0,0,7,9.74a1.58,1.58,0,0,0,.65.13,1.32,1.32,0,0,0,.36,0,1.26,1.26,0,0,0,.3-.12,1.29,1.29,0,0,0,.25-.18,1.88,1.88,0,0,0,.19-.21h.07A.76.76,0,0,0,9,9.53a1,1,0,0,0,.21.18,1.07,1.07,0,0,0,.27.12,1.14,1.14,0,0,0,.31,0,1.28,1.28,0,0,0,.72-.2A1.69,1.69,0,0,0,11,9.14a2.46,2.46,0,0,0,.3-.73,3.73,3.73,0,0,0-.14-2.16A2.89,2.89,0,0,0,10.51,5.25Zm-2,2.63a3.2,3.2,0,0,1-.06.49,1.42,1.42,0,0,1-.13.37A.66.66,0,0,1,8.11,9a.57.57,0,0,1-.32.09.53.53,0,0,1-.44-.22,1.18,1.18,0,0,1-.17-.71,2.15,2.15,0,0,1,.05-.47,1.29,1.29,0,0,1,.16-.41A.88.88,0,0,1,7.69,7a.83.83,0,0,1,.44-.11h.24l.21,0ZM8,0a8,8,0,1,0,8,8A8,8,0,0,0,8,0ZM8,13.14A5.14,5.14,0,1,1,13.14,8,5.13,5.13,0,0,1,8,13.14Z"/></svg>