<svg xmlns="http://www.w3.org/2000/svg" viewBox="0 0 16 16"><title>025-benefit-paid-training</title><path d="M11.27,4.92H4.73a.43.43,0,0,0-.44.42V9.7a.43.43,0,0,0,.44.42h6.54a.43.43,0,0,0,.44-.42V5.34A.43.43,0,0,0,11.27,4.92ZM7,9.13a.5.5,0,0,1-1,0v-2a.49.49,0,1,1,1,0Zm1.48,0a.49.49,0,0,1-1,0v-3a.49.49,0,0,1,1,0Zm1.48,0a.49.49,0,1,1-1,0V7.89a.49.49,0,1,1,1,0ZM8,0a8,8,0,1,0,8,8A8,8,0,0,0,8,0Zm4.21,4.92v5.2a.5.5,0,0,1-.49.49H9.19l1.23,1.23a.49.49,0,0,1-.7.7L8,10.82,6.28,12.54a.49.49,0,0,1-.7-.7L6.8,10.61H4.29a.5.5,0,0,1-.49-.49V4.92a.49.49,0,0,1,0-1H5.28a.5.5,0,0,1,.49-.49h4.45a.5.5,0,0,1,.49.49h1.48a.49.49,0,0,1,0,1Z"/></svg>