<svg xmlns="http://www.w3.org/2000/svg" viewBox="0 0 16 16"><title>027-benefit-pension</title><path d="M8.52,4.6a5.5,5.5,0,0,1,1.36.17v.68a5.53,5.53,0,0,0-2.72,0V4.77A5.51,5.51,0,0,1,8.52,4.6ZM5.8,6.47a.85.85,0,1,0,.85.85A.85.85,0,0,0,5.8,6.47ZM16,8A8,8,0,1,1,8,0,8,8,0,0,1,16,8ZM13.28,8c0-2.26-2.13-4.08-4.76-4.08a5.37,5.37,0,0,0-2.1.43,3.35,3.35,0,0,0-1.3-1.11V5.15A4,4,0,0,0,4,6.7c-.75.07-1.61.24-1.61.62v2c0,.45,1.51,1.21,2.72,1.66v1.06a.68.68,0,0,0,.68.68h.68a.68.68,0,0,0,.68-.68v-.17a5.5,5.5,0,0,0,2.72,0v.17a.68.68,0,0,0,.68.68h.68a.68.68,0,0,0,.68-.68V10.86A3.8,3.8,0,0,0,13.28,8Z"/></svg>