<svg xmlns="http://www.w3.org/2000/svg" viewBox="0 0 16 16"><title>028-benefit-ride-cost-refunds</title><path d="M8,0a8,8,0,1,0,8,8A8,8,0,0,0,8,0Zm4.44,11.35a.8.8,0,0,1-.66.32l-.23,0a1.37,1.37,0,0,1-1-1.24l0-.18c-.16-1.14-.18-1.29-.28-1.77a.7.7,0,0,0-.64-.63V10.9h.29a.34.34,0,0,1,.34.34v.34h-7v-.34a.34.34,0,0,1,.34-.34h.29v-7a.28.28,0,0,1,.28-.28H9.36a.28.28,0,0,1,.28.28V7.37a1.16,1.16,0,0,1,1.09,1c.1.5.13.67.28,1.8l0,.18a.93.93,0,0,0,.61.85.38.38,0,0,0,.41-.12c.13-.18.06-.49-.16-.85a2.92,2.92,0,0,1-.53-2.44,1.92,1.92,0,0,0-.1-1.3c-.12,0-.55.14-.64.05s-.07-.93-.07-.93a.73.73,0,0,1,.07-.23s0-.12,0-.12l-.33-.39-.44-.14V4.36l.54.19.45.45.12-.11L11,5l.53.28.05.49-.05.1.19.59a2.38,2.38,0,0,1,.09,1.45A2.48,2.48,0,0,0,12.29,10C12.77,10.74,12.56,11.19,12.44,11.35Zm-7.87-7H8.95V6.9H4.57Z"/></svg>