<svg xmlns="http://www.w3.org/2000/svg" viewBox="0 0 16 16"><title>029-benefit-traffic-connections</title><path d="M13.15,8.43a.57.57,0,0,1-.39.72l-.83.18a.63.63,0,0,1-.66-.39.64.64,0,0,1,.38-.68,5.71,5.71,0,0,1,.83-.34C12.78,7.82,13.07,8.09,13.15,8.43Zm-1.6-2.16a12.74,12.74,0,0,0-.73-1.43c-.18-.32-.27-.37-.33-.39h-5c-.05,0-.14.07-.33.4a12.55,12.55,0,0,0-.72,1.43l0,0h7.12Zm-7.2,2a5.64,5.64,0,0,0-.83-.34c-.29-.09-.59.18-.66.52a.57.57,0,0,0,.39.72l.83.18a.63.63,0,0,0,.66-.39A.64.64,0,0,0,4.35,8.25ZM16,8A8,8,0,1,1,8,0,8,8,0,0,1,16,8Zm-2.41.06a1.31,1.31,0,0,0-.66-1l-.31-.14.24-.06a.54.54,0,0,0-.28-1.05l-.68.18a12,12,0,0,0-.68-1.33C11,4.22,10.81,4,10.53,4H5.47c-.28,0-.46.23-.69.62A12.17,12.17,0,0,0,4.1,5.94l-.68-.18a.54.54,0,1,0-.28,1l.24.06L3.07,7a1.32,1.32,0,0,0-.66,1V9.58a.69.69,0,0,0,.39.62v1.14a.68.68,0,0,0,.68.68H4.63a.68.68,0,0,0,.68-.68V10.27h5.38v1.06a.68.68,0,0,0,.68.68h1.14a.68.68,0,0,0,.68-.68V10.19a.69.69,0,0,0,.39-.62Z"/></svg>