<svg xmlns="http://www.w3.org/2000/svg" viewBox="0 0 16 16"><title>030-benefit-work-clothes</title><path d="M8,0a8,8,0,1,0,8,8A8,8,0,0,0,8,0Zm5.41,6.74-1,1.38a.65.65,0,0,1-.54.28.64.64,0,0,1-.31-.08l-.68-.48v4.23a.72.72,0,0,1-.72.65H5.75a.67.67,0,0,1-.67-.65V7.84l-.7.49a.65.65,0,0,1-.86-.2L2.59,6.76a.65.65,0,0,1,0-.79L4.75,3.84a.66.66,0,0,1,.33-.2l1.19-.31.16,0a.55.55,0,0,1,.47.2A1.22,1.22,0,0,0,8,4.28a1.08,1.08,0,0,0,1-.76.57.57,0,0,1,.49-.23l.16,0,1.24.32a.65.65,0,0,1,.33.2l2.13,2.11A.65.65,0,0,1,13.41,6.74Z"/></svg>