<svg xmlns="http://www.w3.org/2000/svg" viewBox="0 0 16 16"><title>041-swipe</title><path d="M6.57,14a.36.36,0,0,0,.29.14h5.46a.36.36,0,0,0,.34-.23l.13-.36c.09-.28.19-.59.28-.91a12.53,12.53,0,0,0,.34-1.58,4,4,0,0,0-.21-2.36,3.32,3.32,0,0,0-2-1.43A8.89,8.89,0,0,0,9.71,7l-.31,0V3.09A1.27,1.27,0,0,0,8.13,1.82H7.95A1.27,1.27,0,0,0,6.67,3.09V9.43l-1-.8A1.63,1.63,0,0,0,3.23,9l-.14.22a.36.36,0,0,0,0,.42ZM3.84,9.43a.9.9,0,0,1,1.37-.23l1.59,1.27a.36.36,0,0,0,.59-.28V3.09a.55.55,0,0,1,.55-.55h.18a.55.55,0,0,1,.55.55V7.27A.36.36,0,0,0,9,7.64h.16l.43.05a8.18,8.18,0,0,1,1.31.3,2.69,2.69,0,0,1,1.61,1.08A3.39,3.39,0,0,1,12.67,11a11.82,11.82,0,0,1-.32,1.49c-.08.31-.17.6-.26.87,0,.09,0,.1,0,.1H7Z"/><path d="M2.73,5.59c0,.14-.09.18-.2.1l-1.34-1a.17.17,0,0,1,0-.29l1.34-1c.12-.08.2,0,.2.1v.5h2A.25.25,0,0,1,5,4.34v.5a.25.25,0,0,1-.25.25h-2Z"/><path d="M13.37,5.59c0,.14.09.18.2.1l1.34-1a.17.17,0,0,0,0-.29l-1.34-1c-.12-.08-.2,0-.2.1v.5h-2a.25.25,0,0,0-.25.25v.5a.25.25,0,0,0,.25.25h2Z"/></svg>