<svg xmlns="http://www.w3.org/2000/svg" width="512" height="408" fill="none"><defs><linearGradient id="paint0_linear" x1="76.079" x2="523.48" y1="10.798" y2="365.945" gradientUnits="userSpaceOnUse"><stop stop-color="#9013fe"/><stop offset=".995" stop-color="#6610f2"/></linearGradient><linearGradient id="paint1_linear" x1="193.508" x2="293.514" y1="109.74" y2="278.872" gradientUnits="userSpaceOnUse"><stop stop-color="#fff"/><stop offset="1" stop-color="#f1e5fc"/></linearGradient><filter id="filter0_d" width="197" height="249" x="161.901" y="83.457" color-interpolation-filters="sRGB" filterUnits="userSpaceOnUse"><feFlood flood-opacity="0" result="BackgroundImageFix"/><feColorMatrix in="SourceAlpha" values="0 0 0 0 0 0 0 0 0 0 0 0 0 0 0 0 0 0 127 0"/><feOffset dy="4"/><feGaussianBlur stdDeviation="8"/><feColorMatrix values="0 0 0 0 0 0 0 0 0 0 0 0 0 0 0 0 0 0 0.15 0"/><feBlend in2="BackgroundImageFix" result="effect1_dropShadow"/><feBlend in="SourceGraphic" in2="effect1_dropShadow" result="shape"/></filter><filter id="filter1_d" width="197" height="249" x="161.901" y="83.457" color-interpolation-filters="sRGB" filterUnits="userSpaceOnUse"><feFlood flood-opacity="0" result="BackgroundImageFix"/><feColorMatrix in="SourceAlpha" values="0 0 0 0 0 0 0 0 0 0 0 0 0 0 0 0 0 0 127 0"/><feOffset dy="4"/><feGaussianBlur stdDeviation="8"/><feColorMatrix values="0 0 0 0 0 0 0 0 0 0 0 0 0 0 0 0 0 0 0.15 0"/><feBlend in2="BackgroundImageFix" result="effect1_dropShadow"/><feBlend in="SourceGraphic" in2="effect1_dropShadow" result="shape"/></filter><clipPath id="clip0"><path fill="#fff" d="M0 0h512v408H0z"/></clipPath></defs><g clip-path="url(#clip0)"><path fill="url(#paint0_linear)" fill-rule="evenodd" d="M56.481 53.32C55.515 25.58 77.128 0 106.342 0h299.353c29.214 0 50.827 25.58 49.861 53.32-.928 26.647.277 61.165 8.964 89.31 8.715 28.232 23.411 46.077 47.48 48.37v26c-24.069 2.293-38.765 20.138-47.48 48.37-8.687 28.145-9.892 62.663-8.964 89.311.966 27.739-20.647 53.319-49.861 53.319H106.342c-29.214 0-50.827-25.58-49.86-53.319.927-26.648-.278-61.166-8.966-89.311C38.802 237.138 24.07 219.293 0 217v-26c24.069-2.293 38.802-20.138 47.516-48.37 8.688-28.145 9.893-62.663 8.965-89.31z" clip-rule="evenodd"/><path fill="url(#paint1_linear)" d="M267.103 312.457c47.297 0 75.798-23.158 75.798-61.355 0-28.873-20.336-49.776-50.532-53.085v-1.203c22.185-3.609 39.594-24.211 39.594-47.219 0-32.783-25.882-54.138-65.322-54.138h-88.74v217h89.202zm-54.692-189.48h45.911c24.958 0 39.131 11.128 39.131 31.279 0 21.505-16.484 33.535-46.372 33.535h-38.67v-64.814zm0 161.961v-71.431h45.602c32.661 0 49.608 12.03 49.608 35.49 0 23.459-16.484 35.941-47.605 35.941h-47.605z" filter="url(#filter0_d)"/><path fill="#fff" fill-rule="evenodd" d="M291.369 198.914v-2.95l.84-.137c21.69-3.529 38.754-23.704 38.754-46.232 0-16.106-6.347-29.354-17.509-38.592-11.18-9.254-27.266-14.546-46.813-14.546h-87.74v215h88.202c23.498 0 42.199-5.753 55.006-16.131 12.78-10.356 19.792-25.397 19.792-44.224 0-28.305-19.892-48.831-49.641-52.091l-.891-.097zM177.901 312.457v-217h88.74c39.44 0 65.322 21.355 65.322 54.138 0 23.008-17.409 43.61-39.594 47.219v1.203c30.196 3.309 50.532 24.212 50.532 53.085 0 38.197-28.501 61.355-75.798 61.355h-89.202zm33.51-190.48h46.911c12.609 0 22.644 2.809 29.547 8.301 6.938 5.519 10.584 13.647 10.584 23.978 0 11.042-4.25 19.74-12.391 25.642-8.094 5.867-19.926 8.893-34.981 8.893h-39.67v-66.814zm0 163.961v-73.431h46.602c16.426 0 29.071 3.02 37.633 9.133 8.621 6.156 12.975 15.354 12.975 27.357 0 11.989-4.228 21.293-12.529 27.565-8.255 6.237-20.406 9.376-36.076 9.376h-48.605zm1-162.961v64.814h38.67c29.888 0 46.372-12.03 46.372-33.535 0-20.151-14.173-31.279-39.131-31.279h-45.911zm0 161.961h47.605c31.121 0 47.605-12.482 47.605-35.941 0-23.46-16.947-35.49-49.608-35.49h-45.602v71.431z" clip-rule="evenodd" filter="url(#filter1_d)"/></g></svg>