<svg xmlns="http://www.w3.org/2000/svg" width="180" height="180" fill="none" role="img">
  <title>Bootstrap</title>
  <defs>
    <linearGradient id="paint0_linear" x1="26.747" x2="209.873" y1="4.764" y2="120.602" gradientUnits="userSpaceOnUse">
      <stop stop-color="#9013fe"/>
      <stop offset=".995" stop-color="#6610f2"/>
    </linearGradient>
    <filter id="filter0_d" width="115.127" height="144" x="35" y="22" color-interpolation-filters="sRGB" filterUnits="userSpaceOnUse">
      <feFlood flood-opacity="0" result="BackgroundImageFix"/>
      <feColorMatrix in="SourceAlpha" values="0 0 0 0 0 0 0 0 0 0 0 0 0 0 0 0 0 0 127 0"/>
      <feOffset dy="4"/>
      <feGaussianBlur stdDeviation="8"/>
      <feColorMatrix values="0 0 0 0 0 0 0 0 0 0 0 0 0 0 0 0 0 0 0.15 0"/>
      <feBlend in2="BackgroundImageFix" result="effect1_dropShadow"/>
      <feBlend in="SourceGraphic" in2="effect1_dropShadow" result="shape"/>
    </filter>
  </defs>
  <rect width="180" height="180" fill="url(#paint0_linear)" rx="24"/>
  <path fill="#fff" d="M95.94 146c23.828 0 38.187-11.953 38.187-31.667 0-14.903-10.246-25.691-25.458-27.399v-.62c11.176-1.863 19.947-12.497 19.947-24.372 0-16.92-13.039-27.942-32.91-27.942H51.959a.958.958 0 00-.958.958v110.084c0 .529.429.958.958.958H95.94zM68.386 48.204h23.13c12.573 0 19.714 5.743 19.714 16.144 0 11.099-8.305 17.308-23.362 17.308H68.386V48.204zm0 83.592V94.929H91.36c16.455 0 24.993 6.209 24.993 18.317s-8.305 18.55-23.984 18.55H68.386z" filter="url(#filter0_d)"/>
</svg>
