<svg{% if include.class %} class="{{ include.class }}"{% endif %}{% if include.width %} width="{{ include.width }}"{% endif %}{% if include.height %} height="{{ include.height }}"{% endif %} xmlns="http://www.w3.org/2000/svg" focusable="false" role="img"><title>Bootstrap</title><path d="M9.8 7.8H20c1.9 0 3.4.5 4.5 1.3 1.2.9 1.7 2.2 1.7 4 0 1-.2 1.9-.8 2.6a5 5 0 0 1-2.2 1.8c1.3.3 2.3 1 3 1.9.6 1 1 2.1 1 3.6a6 6 0 0 1-.5 2.3c-.3.7-.7 1.3-1.4 1.8a7 7 0 0 1-2.4 1.3c-1 .3-2.1.4-3.5.4H9.8v-21zm3.7 8.8h6c.8 0 1.6-.2 2.2-.7.6-.5.8-1.3.8-2.2 0-1-.2-1.8-.7-2.2-.6-.5-1.3-.7-2.3-.7h-6v5.8zm0 9.2H20c1 0 2-.3 2.6-.8.6-.6.9-1.4.9-2.5 0-1-.3-1.8-1-2.4-.6-.6-1.4-.8-2.5-.8h-6.5v6.5z" fill="currentColor"/><rect fill="none" stroke="currentColor" x=".5" y=".5" width="35" height="35" rx="6"/></svg>
