<?xml version="1.0" encoding="utf-8"?>
<!-- Generator: Adobe Illustrator 17.0.0, SVG Export Plug-In . SVG Version: 6.00 Build 0)  -->
<!DOCTYPE svg PUBLIC "-//W3C//DTD SVG 1.1//EN" "http://www.w3.org/Graphics/SVG/1.1/DTD/svg11.dtd">
<svg version="1.1" id="Слой_1" xmlns="http://www.w3.org/2000/svg" xmlns:xlink="http://www.w3.org/1999/xlink" x="0px" y="0px"
	 width="40px" height="40px" viewBox="0 0 40 40" enable-background="new 0 0 40 40" xml:space="preserve">
<path fill-rule="evenodd" clip-rule="evenodd" fill="#FFFFFF" d="M33.522,14H32c0-5.942-2-14-12-14S7,8.005,7,14H6.478
	C4.557,14,3,15.542,3,17.445V23l0,0v2l0,0v6l0,0v2l0,0v3.556C3,38.458,4.557,40,6.478,40h27.043C35.443,40,37,38.458,37,36.556V33
	v-2v-6v-2v-5.555C37,15.542,35.443,14,33.522,14z M20,2c10,0,10,9.448,10,12h-3c0-4-0.979-9-7-9s-8,5-8,9H9C9,11.561,10,2,20,2z
	 M25,14H14c0-1.439,0.304-7,6-7S25,12.567,25,14z M22.499,31l6-6h5.003l-6,6H22.499z M19.501,31h-5.003l6-6h5.003L19.501,31z
	 M11.501,31H6.498l6-6h5.003L11.501,31z M5,29.502V25h4.501L5,29.502z M35,36c0,0.951-1.04,2-2,2H7c-0.96,0-2-1.049-2-2v-3h30V36z
	 M30.499,31L35,26.498V31H30.499z M5,23v-5c0-0.951,1.04-2,2-2h26c0.96,0,2,1.049,2,2v5H5z"/>
</svg>
