<?xml version="1.0" encoding="utf-8"?>
<!-- Generator: Adobe Illustrator 17.0.0, SVG Export Plug-In . SVG Version: 6.00 Build 0)  -->
<!DOCTYPE svg PUBLIC "-//W3C//DTD SVG 1.1//EN" "http://www.w3.org/Graphics/SVG/1.1/DTD/svg11.dtd">
<svg version="1.1" id="Слой_1" xmlns="http://www.w3.org/2000/svg" xmlns:xlink="http://www.w3.org/1999/xlink" x="0px" y="0px"
	 width="40px" height="40px" viewBox="0 0 40 40" enable-background="new 0 0 40 40" xml:space="preserve">
<g>
	<path fill="#FFFFFF" d="M26.915,13.88c-7.203,0-13.042,5.848-13.042,13.061c0,7.214,5.839,13.061,13.042,13.061
		s13.042-5.848,13.042-13.061C39.957,19.728,34.118,13.88,26.915,13.88z M26.915,38.006c-6.079,0-11.007-4.935-11.007-11.023
		S20.836,15.96,26.915,15.96c6.079,0,11.007,4.935,11.007,11.023S32.994,38.006,26.915,38.006z"/>
	<path fill="#FFFFFF" d="M5.453,34C3.52,34,2,32.451,2,30.51V8.398c0-1.787,1.31-3.247,3.03-3.469
		c0.013,0.224,0.32,2.814,2.984,2.901C10.693,7.709,11,4.907,11,4.907V5h3V4.907c0,0,0.216,2.832,3,2.923
		c2.679-0.122,3-2.923,3-2.923V5h3V4.907c0,0,0.12,2.832,2.904,2.923c2.561-0.116,2.944-2.676,2.966-2.901
		C30.589,5.153,32,6.612,32,8.398v5.095c1.156,0.179,2,0.732,2,0.732v-7.27C34,4.761,32.038,3,29.852,3H29V2.959
		c0,0-0.321-2.801-3-2.923c-2.784,0.091-3,2.923-3,2.923V3h-3V2.959c0,0-0.321-2.801-3-2.923c-2.784,0.091-3,2.923-3,2.923V3h-3
		V2.959c0,0-0.321-2.801-3-2.923C5.216,0.127,5,2.959,5,2.959V3H3.958C1.772,3,0,4.761,0,6.955v24.998C0,34.147,1.772,36,3.958,36
		h11.269c0,0-0.681-0.719-1.047-2H5.453z M25,3.933V2.959c0-0.868,1-0.974,1-0.974s1,0.107,1,0.974v0.974v0.974
		c0,0.868-1,0.974-1,0.974s-1-0.107-1-0.974V3.933z M16,3.933V2.959c0-0.868,1-0.974,1-0.974s1,0.107,1,0.974v0.974v0.974
		c0,0.868-1,0.974-1,0.974s-1-0.107-1-0.974V3.933z M7,3.933V2.959c0-0.868,1-0.974,1-0.974s1,0.107,1,0.974v0.974v0.974
		c0,0.868-1,0.974-1,0.974S7,5.775,7,4.907V3.933z"/>
	<path fill="#FFFFFF" d="M7.996,17.972c1.652,0,2.991-1.341,2.991-2.995s-1.339-2.995-2.991-2.995c-1.651,0-2.991,1.341-2.991,2.995
		S6.344,17.972,7.996,17.972z M8.018,13.168c0.985,0,1.784,0.8,1.784,1.787c0,0.987-0.799,1.787-1.784,1.787s-1.784-0.8-1.784-1.787
		C6.234,13.968,7.033,13.168,8.018,13.168z"/>
	<path fill="#FFFFFF" d="M7.996,26.941c1.652,0,2.991-1.341,2.991-2.995s-1.339-2.995-2.991-2.995c-1.652,0-2.991,1.341-2.991,2.995
		S6.344,26.941,7.996,26.941z M8.018,22.137c0.985,0,1.784,0.8,1.784,1.787s-0.799,1.787-1.784,1.787s-1.784-0.8-1.784-1.787
		S7.033,22.137,8.018,22.137z"/>
	<path fill="#FFFFFF" d="M29.678,26c-0.272-0.565-0.782-1.313-1.678-1.742V18h-2v6.242c-1.521,0.446-2.076,1.507-2.076,2.824
		c0,1.654,1.319,2.97,2.97,2.97c1.306,0,2.384-1.037,2.792-2.037H36v-2H29.678z M26.896,28.83c-0.985,0-1.784-0.8-1.784-1.787
		s0.799-1.787,1.784-1.787s1.784,0.8,1.784,1.787S27.882,28.83,26.896,28.83z"/>
	<path fill="#FFFFFF" d="M19.867,14.402c-0.268-1.378-1.478-2.419-2.933-2.419c-1.651,0-2.991,1.341-2.991,2.995
		c0,1.238,0.75,2.3,1.82,2.756c0.291-0.356,0.599-0.696,0.925-1.019c-0.857-0.13-1.516-0.865-1.516-1.76
		c0-0.987,0.799-1.787,1.784-1.787s1.784,0.8,1.784,1.787c0,0.038-0.009,0.074-0.011,0.111
		C19.096,14.826,19.476,14.605,19.867,14.402z"/>
</g>
</svg>
