<?xml version="1.0" encoding="utf-8"?>
<!-- Generator: Adobe Illustrator 17.0.0, SVG Export Plug-In . SVG Version: 6.00 Build 0)  -->
<!DOCTYPE svg PUBLIC "-//W3C//DTD SVG 1.1//EN" "http://www.w3.org/Graphics/SVG/1.1/DTD/svg11.dtd">
<svg version="1.1" id="Слой_1" xmlns="http://www.w3.org/2000/svg" xmlns:xlink="http://www.w3.org/1999/xlink" x="0px" y="0px"
	 width="40px" height="40px" viewBox="0 0 40 40" enable-background="new 0 0 40 40" xml:space="preserve">
<g>
	<g id="arrow_4_">
		<g>
			<path fill-rule="evenodd" clip-rule="evenodd" fill="#FFFFFF" d="M28.694,19.238l-7.208-7.223c-0.39-0.391-1.021-0.391-1.411,0
				c-0.39,0.391-0.39,1.023,0,1.414L25.634,19H6.952c-0.551,0-0.998,0.448-0.998,1c0,0.552,0.447,1,0.998,1H25.52l-5.444,5.445
				c-0.196,0.195-0.293,0.452-0.293,0.708s0.098,0.511,0.291,0.706c0.39,0.392,1.021,0.392,1.411,0.002l7.207-7.208
				c0.188-0.188,0.293-0.442,0.293-0.707c0-0.001,0-0.001,0-0.001C28.986,19.679,28.881,19.425,28.694,19.238z"/>
		</g>
	</g>
	<path fill-rule="evenodd" clip-rule="evenodd" fill="#FFFFFF" d="M28.128,35.938c-0.555,1.221-1.779,2.074-3.208,2.074H5.509
		c-1.949,0-3.53-1.58-3.53-3.529V11.541c0-1.949,1.58-3.529,3.53-3.529h2.484V6H4c-2.209,0-4,1.791-4,4v26c0,2.209,1.791,4,4,4h22
		c2.209,0,4-1.791,4-4v-0.063H28.128z"/>
	<path fill-rule="evenodd" clip-rule="evenodd" fill="#FFFFFF" d="M38.014,8.213L38.014,8.213L29.658,0H14c-2.209,0-4,1.791-4,4v13
		h1.986V5.498c0-1.955,1.584-3.539,3.539-3.539h12.488v6.958c0,2.625,3.083,3.083,3.083,3.083h6.917v16.502
		c0,1.955-1.584,3.539-3.539,3.539H15.526c-1.955,0-3.539-1.585-3.539-3.539V23H10v7c0,2.209,1.791,4,4,4h22c2.209,0,4-1.791,4-4
		V10.166L38.014,8.213z M35.278,10h-0.327h-3.323c0,0-1.627-0.242-1.627-1.627V5V4.7V3.979L35.972,10H35.278z"/>
</g>
</svg>
