<?xml version="1.0" encoding="utf-8"?>
<!-- Generator: Adobe Illustrator 17.0.0, SVG Export Plug-In . SVG Version: 6.00 Build 0)  -->
<!DOCTYPE svg PUBLIC "-//W3C//DTD SVG 1.1//EN" "http://www.w3.org/Graphics/SVG/1.1/DTD/svg11.dtd">
<svg version="1.1" id="Capa_1" xmlns="http://www.w3.org/2000/svg" xmlns:xlink="http://www.w3.org/1999/xlink" x="0px" y="0px"
	 width="112px" height="112px" viewBox="0 0 112 112" enable-background="new 0 0 112 112" xml:space="preserve">
<g>
	<g>
		<defs>
			<path id="SVGID_53_" d="M2.977,73.966c0.107,0.317,0.218,0.631,0.33,0.946c6.003,16.721,19.136,28.828,34.748,34.122
				c10.006,3.328,20.982,3.939,31.751,1.227c1.71-0.438,3.416-0.958,5.11-1.567c29.099-10.445,44.224-42.507,33.779-71.607
				c-0.113-0.314-0.228-0.63-0.347-0.941L2.977,73.966z"/>
		</defs>
		<clipPath id="SVGID_2_">
			<use xlink:href="#SVGID_53_"  overflow="visible"/>
		</clipPath>
		<g clip-path="url(#SVGID_2_)">
			<polygon fill="#61A0B1" points="112.874,36.146 109.964,36.146 107.053,36.146 104.143,36.146 101.232,36.146 98.321,36.146 
				95.411,36.146 92.5,36.146 89.59,36.146 86.68,36.146 83.769,36.146 80.858,36.146 77.948,36.146 75.037,36.146 72.127,36.146 
				69.216,36.146 66.306,36.146 63.396,36.146 60.485,36.146 57.575,36.146 54.664,36.146 51.753,36.146 48.843,36.146 
				45.932,36.146 43.022,36.146 40.111,36.146 37.201,36.146 34.29,36.146 31.38,36.146 28.469,36.146 25.559,36.146 22.648,36.146 
				19.738,36.146 16.827,36.146 13.917,36.146 11.006,36.146 8.096,36.146 5.185,36.146 2.977,36.146 2.977,112.972 5.185,112.972 
				8.096,112.972 11.006,112.972 13.917,112.972 16.827,112.972 19.738,112.972 22.648,112.972 25.559,112.972 28.469,112.972 
				31.38,112.972 34.29,112.972 37.201,112.972 40.111,112.972 43.022,112.972 45.932,112.972 48.843,112.972 51.753,112.972 
				54.664,112.972 57.575,112.972 60.485,112.972 63.396,112.972 66.306,112.972 69.216,112.972 72.127,112.972 75.037,112.972 
				77.948,112.972 80.858,112.972 83.769,112.972 86.68,112.972 89.59,112.972 92.5,112.972 95.411,112.972 98.321,112.972 
				101.232,112.972 104.143,112.972 107.053,112.972 109.964,112.972 112.874,112.972 119.139,112.972 119.139,36.146 			"/>
		</g>
	</g>
	<g>
		<defs>
			<path id="SVGID_55_" d="M55.996,0c-6.277,0.001-12.663,1.065-18.91,3.306C7.984,13.752-7.138,45.81,3.306,74.912
				c10.446,29.102,42.505,44.227,71.609,33.782c29.099-10.445,44.224-42.507,33.779-71.607C100.491,14.232,78.96,0.001,55.998,0
				H55.996"/>
		</defs>
		<clipPath id="SVGID_4_">
			<use xlink:href="#SVGID_55_"  overflow="visible"/>
		</clipPath>
		<g clip-path="url(#SVGID_4_)">
			<path fill="#82C3CC" d="M2.431,74.669C-8.074,45.402,7.195,12.388,36.829,1.75C66.461-8.887,99.24,6.882,109.747,36.148
				L2.431,74.669z"/>
		</g>
		<g clip-path="url(#SVGID_4_)">
			<path fill="#8AC5BB" d="M2.23,74.27C-8.277,45.004,6.991,11.99,36.628,1.353c29.631-10.636,62.41,5.131,72.916,34.398L2.23,74.27
				z"/>
		</g>
		<g clip-path="url(#SVGID_4_)">
			
				<rect x="37.586" y="-4.625" transform="matrix(-0.3572 -0.934 0.934 -0.3572 85.4846 119.6059)" fill="#61A0B1" width="92.624" height="70.027"/>
		</g>
		<g clip-path="url(#SVGID_4_)">
			<polygon fill="#88C2AC" points="1.114,74.378 55.694,54.988 45.425,27.845 -9.153,47.236 			"/>
		</g>
	</g>
	<g>
		<path fill="#FFFFFF" d="M84.147,45.685C77.898,29.687,59.86,21.782,43.861,28.032c-15.997,6.253-23.9,24.293-17.65,40.291
			C32.462,84.32,50.5,92.223,66.499,85.972C82.498,79.721,90.399,61.683,84.147,45.685"/>
	</g>
	<g>
		<defs>
			<path id="SVGID_57_" d="M11.924,84.062l47.594-19.821L38.786,10.646C-18.849,47.94,11.924,84.062,11.924,84.062"/>
		</defs>
		<clipPath id="SVGID_6_">
			<use xlink:href="#SVGID_57_"  overflow="visible"/>
		</clipPath>
		<g clip-path="url(#SVGID_6_)">
			<path fill="#EFCF32" d="M17.194,68.847c-7.461-20.581,3.215-43.855,24.053-51.407c20.834-7.555,43.945,3.473,51.405,24.052
				L17.194,68.847z"/>
		</g>
	</g>
	<g>
		<defs>
			<path id="SVGID_59_" d="M51.201,54.431l40.56,22.072c16.052-21.356,3.729-44.716,3.729-44.716L51.201,54.431z"/>
		</defs>
		<clipPath id="SVGID_8_">
			<use xlink:href="#SVGID_59_"  overflow="visible"/>
		</clipPath>
		<g clip-path="url(#SVGID_8_)">
			<path fill="#6FBDD4" d="M91.105,41.707c7.692,19.685-2.056,42.404-21.99,50.192c-19.929,7.787-42.498-2.305-50.192-21.991
				L91.105,41.707z"/>
		</g>
	</g>
	<g>
		<path fill="#ECCB6D" d="M87.399,45.196c-6.795-17.4-26.414-25.996-43.813-19.199c-17.399,6.8-25.995,26.418-19.197,43.819
			c6.799,17.397,26.417,25.995,43.816,19.196C85.604,82.211,94.198,62.593,87.399,45.196"/>
	</g>
	<g>
		<path fill="#F1C930" d="M77.971,48.096C73.052,35.509,58.862,29.295,46.277,34.21C33.69,39.128,27.472,53.316,32.39,65.907
			c4.918,12.585,19.108,18.805,31.694,13.885C76.67,74.876,82.887,60.682,77.971,48.096"/>
	</g>
	<g>
		<defs>
			<path id="SVGID_61_" d="M53.018,2.179l5.059,53.236l38.891-31.07c0,0,5.881,1.399-7.388-11.278
				C79.231,3.18,62.79,2.092,56.051,2.092C54.148,2.092,53.018,2.179,53.018,2.179"/>
		</defs>
		<clipPath id="SVGID_10_">
			<use xlink:href="#SVGID_61_"  overflow="visible"/>
		</clipPath>
		<g clip-path="url(#SVGID_10_)">
			<path fill="#EFCF32" d="M56.691,11.482c-5.68,0-11.255,1.053-16.569,3.13c-11.411,4.457-20.415,13.158-25.352,24.5
				c-4.645,10.674-5.143,22.39-1.448,33.21L98.944,38.87C91.644,22.408,74.917,11.482,56.691,11.482 M11.005,77.537l-0.73-1.869
				C5.457,63.339,5.747,49.788,11.09,37.51c5.367-12.326,15.159-21.786,27.572-26.636C44.444,8.615,50.51,7.47,56.691,7.47
				c20.539,0,39.332,12.774,46.763,31.792l0.73,1.869L11.005,77.537z"/>
		</g>
	</g>
	<g>
		<path fill="#63A8AB" d="M60.87,71.622c-0.25,0.55-0.894,0.795-1.454,0.554c-0.271-0.126-0.475-0.349-0.571-0.608l-1.466-3.827
			c-0.177-0.466-0.719-0.706-1.193-0.525c-0.148,0.053-0.278,0.152-0.377,0.268h0.009c-0.148,0.182-0.304,0.362-0.468,0.543
			l-0.609,0.643c-1.655,1.615-3.666,2.937-5.967,3.809l-7.927,3.049l-3.984,1.52c-2.261,0.875-4.801-0.262-5.658-2.511
			l-7.878-20.506c-0.864-2.269,0.267-4.808,2.525-5.675l11.026-4.229c2.409-0.921,4.913-1.195,7.303-0.92
			c2.714,0.306,5.164,2.075,6.214,4.797c0.901,2.351,0.541,4.866-0.735,6.828c2.055,0.01,4.023,0.833,5.487,2.279l1.983-17.764
			c0.211-2.137,1.596-4.086,3.744-4.899c2.137-0.826,4.47-0.301,6.054,1.141l18.226,16.203c0.569,0.46,1.019,1.078,1.301,1.809
			c0.864,2.266-0.265,4.795-2.529,5.668c-1.656,0.629-3.462,0.199-4.646-0.975l0,0c-0.636-0.653-1.613-0.906-2.521-0.563
			l-11.354,4.354c-0.222,0.098-0.408,0.259-0.509,0.489L60.87,71.622z"/>
	</g>
	<g>
		<polygon fill="#EFCF32" points="20.619,78.717 27.102,86.234 24.803,88.216 20.532,83.262 19.055,84.536 22.924,89.021 
			20.793,90.86 16.924,86.372 15.378,87.706 19.707,92.727 17.409,94.708 10.869,87.124 		"/>
	</g>
	<g>
		<polygon fill="#EFCF32" points="27.882,87.188 31.141,89.191 29.264,97.599 35.918,92.127 39.117,94.094 28.064,102.519 
			25.36,100.857 		"/>
	</g>
	<g>
		<path fill="#EFCF32" d="M46.468,102.574l0.009-0.034c0.46-1.8-0.387-3.686-2.214-4.155c-1.811-0.461-3.415,0.761-3.874,2.561
			l-0.009,0.035c-0.46,1.799,0.386,3.685,2.197,4.15C44.404,105.597,46.008,104.375,46.468,102.574 M36.971,100.148l0.01-0.036
			c0.914-3.58,4.423-5.778,8.113-4.835c3.69,0.941,5.689,4.509,4.775,8.092l-0.01,0.035c-0.915,3.581-4.424,5.78-8.113,4.837
			C38.056,107.297,36.055,103.73,36.971,100.148"/>
	</g>
	<g>
		<polygon fill="#EFCF32" points="51.978,96.91 55.397,96.813 55.672,106.557 61.646,106.388 61.734,109.514 52.341,109.779 		"/>
	</g>
	<g>
		<path fill="#EFCF32" d="M63.187,103.701l-2.043-6.934l3.331-0.982l2.023,6.863c0.525,1.781,1.637,2.373,2.956,1.986
			c1.32-0.389,1.942-1.455,1.432-3.184L68.838,94.5l3.332-0.981l2.017,6.845c1.176,3.987-0.491,6.377-3.856,7.368
			C66.965,108.723,64.325,107.565,63.187,103.701"/>
	</g>
	<g>
		<path fill="#EFCF32" d="M75.941,98.853l-0.02-0.031c-2.027-3.157-1.289-7.13,1.857-9.148c2.121-1.362,4.082-1.311,5.856-0.571
			l-1.042,3.14c-1.091-0.393-2.09-0.451-3.085,0.189c-1.453,0.934-1.653,2.875-0.638,4.454l0.019,0.031
			c1.044,1.624,2.883,2.236,4.336,1.303c1.083-0.696,1.383-1.632,1.499-2.822l3.199,0.22c-0.074,2.036-0.729,3.92-3.026,5.398
			C81.927,102.922,78.018,102.086,75.941,98.853"/>
	</g>
	<g>
		
			<rect x="86.573" y="83.265" transform="matrix(-0.7134 0.7008 -0.7008 -0.7134 214.14 91.8263)" fill="#EFCF32" width="3.439" height="12.875"/>
	</g>
	<g>
		<path fill="#EFCF32" d="M96.676,78.904l-0.031-0.02c-1.562-1.006-3.619-0.8-4.641,0.786c-1.011,1.57-0.359,3.479,1.202,4.486
			l0.031,0.021c1.562,1.005,3.619,0.798,4.631-0.773C98.89,81.818,98.238,79.909,96.676,78.904 M91.37,87.146l-0.031-0.02
			c-3.109-2.001-4.083-6.026-2.023-9.227c2.062-3.204,6.079-3.971,9.187-1.97l0.032,0.02c3.107,2.001,4.082,6.026,2.021,9.227
			C98.495,88.379,94.479,89.146,91.37,87.146"/>
	</g>
	<g>
		<polygon fill="#EFCF32" points="93.164,72.059 94.004,68.979 101.906,65.874 95.342,64.082 96.233,60.816 108.655,64.207 
			107.864,67.098 99.663,70.323 106.475,72.184 105.584,75.449 		"/>
	</g>
	<g>
		<path fill="#EFCF32" d="M103.97,53.997l-3.658,1.382l3.662,1.385L103.97,53.997z M96.085,57.009l-0.007-3.297l12.958-5.276
			l0.006,3.666l-2.297,0.904l0.009,4.759l2.3,0.879l0.007,3.596L96.085,57.009z"/>
	</g>
</g>
</svg>
