<?xml version="1.0" encoding="utf-8"?>
<!-- Generator: Adobe Illustrator 17.0.0, SVG Export Plug-In . SVG Version: 6.00 Build 0)  -->
<!DOCTYPE svg PUBLIC "-//W3C//DTD SVG 1.1//EN" "http://www.w3.org/Graphics/SVG/1.1/DTD/svg11.dtd">
<svg version="1.1" id="Layer_1" xmlns="http://www.w3.org/2000/svg" xmlns:xlink="http://www.w3.org/1999/xlink" x="0px" y="0px"
	 width="72px" height="72px" viewBox="0 0 72 72" enable-background="new 0 0 72 72" xml:space="preserve">
<g>
	<g>
		<path fill="#FFFFFF" d="M25.748,2.162C7.298,7.75-3.113,27.48,2.538,46.14c5.658,18.658,25.265,29.291,43.716,23.696
			c18.45-5.586,28.859-25.311,23.208-43.974C63.807,7.205,44.197-3.429,25.748,2.162"/>
	</g>
	<path fill="#FCE70C" d="M36.003,4.432c-17.435,0-31.568,14.133-31.568,31.564c0,17.439,14.134,31.568,31.568,31.568
		c17.433,0,31.565-14.129,31.565-31.562C67.568,18.565,53.435,4.432,36.003,4.432 M36.003,66.212
		c-16.688,0-30.215-13.528-30.215-30.216c0-16.683,13.527-30.208,30.215-30.208c16.684,0,30.209,13.525,30.209,30.208
		C66.212,52.684,52.687,66.212,36.003,66.212"/>
	<path fill="#FBE810" d="M35.981,37.455c0,0,0.004,0,0.008-0.004c1.064-2.508,4.541-8.587,9.378-12.553
		c-3.409-5.154-7.571-8.162-9.806-7.406l-0.003-0.005l-0.044,0.022c-0.112,0.039-0.217,0.089-0.317,0.151
		c-3.17,1.531-6.172,3.858-8.64,7.206C31.417,28.837,34.908,34.942,35.981,37.455"/>
	<path fill="#FBE810" d="M21.794,59.898l-0.012-0.009c-9.101-8.257-9.509-20.419-7.179-28.757c-2.1-0.002-4.117,0.282-5.917,0.983
		c-5.943,3.234,3.046,32.561,27.164,33.168c-0.117-0.016-0.239-0.035-0.355-0.063C30.924,65.052,26.162,63.538,21.794,59.898"/>
	<path fill="#FBE810" d="M63.247,32.114c-1.79-0.699-3.798-0.985-5.886-0.983c2.331,8.338,1.921,20.5-7.177,28.757l-0.014,0.009
		c-4.204,3.503-8.774,5.035-13.182,5.297c-0.004,0-0.004,0-0.007,0.002v-0.002c-0.003,0-0.008,0-0.012,0
		c-0.076,0.026-0.155,0.045-0.235,0.064C60.363,64.153,69.137,35.319,63.247,32.114"/>
	<g enable-background="new    ">
		<g>
			<defs>
				<rect id="SVGID_1_" x="34.382" y="36.946" width="1.856" height="1.857"/>
			</defs>
			<clipPath id="SVGID_2_">
				<use xlink:href="#SVGID_1_"  overflow="visible"/>
			</clipPath>
			<g clip-path="url(#SVGID_2_)">
				<defs>
					<rect id="SVGID_3_" x="35.981" y="37.451" width="0.007" height="0.014"/>
				</defs>
				<clipPath id="SVGID_4_">
					<use xlink:href="#SVGID_3_"  overflow="visible"/>
				</clipPath>
				<path clip-path="url(#SVGID_4_)" fill="#FCE70C" d="M35.989,37.452c-0.004,0.002-0.008,0.002-0.008,0.002
					c0,0.002,0,0.006,0.004,0.01C35.984,37.458,35.984,37.455,35.989,37.452"/>
			</g>
		</g>
	</g>
	<path fill="#FBE810" d="M57.361,31.131c-1.616-5.779-4.55-9.721-6.817-9.253c-1.854,0.646-3.585,1.717-5.177,3.02
		c1.421,2.148,2.715,4.665,3.683,7.441C51.769,31.628,54.636,31.138,57.361,31.131"/>
	<path fill="#FBE810" d="M22.864,32.333c0.384-1.297,0.872-2.599,1.48-3.899l0.009-0.016c0.67-1.295,1.41-2.476,2.202-3.552
		c-1.581-1.286-3.302-2.346-5.131-2.989c-2.273-0.466-5.206,3.474-6.821,9.255C17.31,31.14,20.159,31.626,22.864,32.333"/>
	<path fill="#FDD908" d="M24.344,28.434c-0.608,1.3-1.096,2.602-1.48,3.899c6.686,1.739,12.492,4.8,13.102,5.13
		c0.002-0.002,0.009-0.006,0.014-0.008c-1.073-2.513-4.564-8.618-9.425-12.589c-0.793,1.076-1.532,2.257-2.202,3.552L24.344,28.434z
		"/>
	<path fill="#FDD908" d="M35.989,37.452c0.687-0.367,6.436-3.386,13.062-5.112c-0.969-2.778-2.262-5.294-3.683-7.442
		C40.53,28.864,37.053,34.943,35.989,37.452"/>
	<path fill="#FDD908" d="M49.05,32.339c2.241,6.416,2.755,14.203-0.856,21.909l-0.007,0.016c-2.759,5.325-6.655,8.737-10.845,10.761
		c-0.098,0.061-0.202,0.109-0.311,0.15c-0.014,0.006-0.03,0.012-0.044,0.02c4.409-0.262,8.978-1.795,13.182-5.295l0.012-0.008
		c9.1-8.26,9.51-20.423,7.179-28.761C54.636,31.138,51.769,31.628,49.05,32.339"/>
	<path fill="#FDD908" d="M21.782,59.892l0.012,0.008c4.368,3.637,9.13,5.152,13.701,5.318C29.666,63.935,18.057,48.5,22.862,32.333
		c-2.703-0.707-5.552-1.193-8.259-1.202C12.273,39.47,12.682,51.632,21.782,59.892"/>
	<path fill="#FCCB13" d="M37.343,65.025c4.19-2.022,8.086-5.438,10.846-10.761l0.006-0.016c3.607-7.706,3.097-15.493,0.856-21.908
		c-6.626,1.726-12.375,4.745-13.062,5.112c-0.004,0.002-0.004,0.006-0.004,0.008c-0.004,0-0.004-0.004-0.004-0.006
		c-0.005,0.002-0.013,0.006-0.014,0.006c-0.61-0.328-6.416-3.386-13.102-5.128C18.053,48.5,29.665,63.935,35.495,65.219
		c0.145,0.008,0.289,0.012,0.439,0.012v0.002c0.014,0,0.033,0,0.051,0c0.014,0,0.031,0,0.046,0v-0.002
		c0.313-0.004,0.624-0.018,0.939-0.036c0.004,0,0.008,0,0.011,0h0.006c0.016-0.008,0.03-0.014,0.044-0.022
		C37.14,65.134,37.244,65.086,37.343,65.025"/>
	<g enable-background="new    ">
		<g>
			<defs>
				<rect id="SVGID_5_" x="34.382" y="36.946" width="1.856" height="1.857"/>
			</defs>
			<clipPath id="SVGID_6_">
				<use xlink:href="#SVGID_5_"  overflow="visible"/>
			</clipPath>
			<g clip-path="url(#SVGID_6_)">
				<defs>
					<rect id="SVGID_7_" x="35.981" y="37.451" width="0.007" height="0.014"/>
				</defs>
				<clipPath id="SVGID_8_">
					<use xlink:href="#SVGID_7_"  overflow="visible"/>
				</clipPath>
				<g clip-path="url(#SVGID_8_)" enable-background="new    ">
					<g>
						<defs>
							<rect id="SVGID_9_" x="34.382" y="36.946" width="1.856" height="1.857"/>
						</defs>
						<clipPath id="SVGID_10_">
							<use xlink:href="#SVGID_9_"  overflow="visible"/>
						</clipPath>
						<g clip-path="url(#SVGID_10_)">
							<defs>
								<rect id="SVGID_11_" x="35.981" y="37.451" width="0.007" height="0.014"/>
							</defs>
							<clipPath id="SVGID_12_">
								<use xlink:href="#SVGID_11_"  overflow="visible"/>
							</clipPath>
							<path clip-path="url(#SVGID_12_)" fill="#FCE70C" d="M35.989,37.452c-0.004,0.002-0.008,0.002-0.008,0.002
								c0,0.002,0,0.006,0.004,0.01C35.984,37.458,35.984,37.455,35.989,37.452"/>
						</g>
					</g>
				</g>
			</g>
		</g>
	</g>
	<path fill="#656561" d="M14.458,22.53c0.01,0.486-0.376,0.887-0.863,0.894c-0.486,0.012-0.889-0.374-0.894-0.86
		c-0.011-0.486,0.377-0.889,0.862-0.897C14.044,21.658,14.449,22.042,14.458,22.53"/>
	<path fill="#656561" d="M59.362,23.228c0.007,0.486-0.381,0.887-0.867,0.899c-0.485,0.01-0.883-0.378-0.894-0.864
		c-0.012-0.486,0.377-0.887,0.862-0.899C58.949,22.359,59.352,22.742,59.362,23.228"/>
	<polygon fill="#656561" points="13.319,19.003 15.671,16.246 16.24,16.732 14.446,18.835 15.385,19.637 16.977,17.773 
		17.549,18.259 15.958,20.123 16.93,20.955 18.746,18.823 19.314,19.307 16.941,22.093 	"/>
	<path fill="#656561" d="M17.572,16.044l0.652-0.536l0.355,0.431c-0.033-0.413,0.044-0.858,0.486-1.221
		c0.643-0.53,1.363-0.415,1.892,0.232l1.454,1.764l-0.656,0.537l-1.294-1.574c-0.356-0.431-0.781-0.496-1.167-0.177
		c-0.376,0.312-0.429,0.788-0.076,1.217l1.286,1.564l-0.653,0.536L17.572,16.044z"/>
	<path fill="#656561" d="M24.571,14.279l-0.827-1.699l-0.422,0.206l-0.31-0.637l0.423-0.204L23,11.059l0.762-0.371l0.431,0.886
		l0.892-0.433l0.308,0.633l-0.892,0.435l0.771,1.586c0.143,0.286,0.349,0.33,0.606,0.202c0.17-0.083,0.305-0.192,0.415-0.339
		l0.294,0.606c-0.134,0.196-0.318,0.359-0.601,0.498C25.429,15.033,24.918,14.987,24.571,14.279"/>
	<path fill="#656561" d="M26.456,12.472l-0.004-0.012c-0.301-0.983,0.246-2.041,1.325-2.374c1.081-0.338,2.12,0.218,2.426,1.197
		l0.003,0.014c0.301,0.973-0.246,2.033-1.332,2.371C27.8,13.999,26.758,13.447,26.456,12.472 M29.404,11.558l-0.003-0.012
		c-0.188-0.605-0.789-0.967-1.424-0.769c-0.649,0.201-0.907,0.82-0.721,1.416l0.004,0.016c0.184,0.597,0.789,0.963,1.416,0.772
		C29.329,12.778,29.586,12.148,29.404,11.558"/>
	<path fill="#656561" d="M30.993,11.132L30.99,11.12c-0.135-1.183,0.619-1.944,1.49-2.043c0.605-0.067,1.022,0.183,1.324,0.486
		l-0.22-1.92l0.842-0.095l0.555,4.931l-0.838,0.095l-0.068-0.594c-0.228,0.403-0.577,0.742-1.171,0.812
		C32.04,12.891,31.127,12.313,30.993,11.132 M33.954,10.8l-0.004-0.015c-0.076-0.687-0.627-1.086-1.188-1.023
		c-0.576,0.068-1.008,0.552-0.924,1.263v0.014c0.079,0.689,0.615,1.088,1.185,1.021C33.583,11.995,34.034,11.479,33.954,10.8"/>
	<path fill="#656561" d="M35.749,10.682v-0.013c0.061-1.026,0.948-1.822,2.076-1.755c1.132,0.068,1.911,0.953,1.849,1.978v0.014
		c-0.063,1.017-0.951,1.814-2.084,1.745C36.465,12.585,35.688,11.7,35.749,10.682 M38.83,10.868v-0.014
		c0.036-0.631-0.401-1.183-1.064-1.222c-0.674-0.04-1.137,0.452-1.174,1.074v0.014c-0.04,0.624,0.395,1.184,1.051,1.223
		C38.329,11.982,38.789,11.485,38.83,10.868"/>
	<path fill="#656561" d="M42.548,11.483l0.004-0.014c0.33-0.973,1.308-1.531,2.308-1.193c1.109,0.377,1.385,1.419,1.052,2.398
		c-0.023,0.068-0.054,0.142-0.087,0.215l-2.566-0.871c-0.101,0.584,0.199,1.028,0.714,1.203c0.388,0.133,0.717,0.086,1.084-0.083
		l0.33,0.564c-0.462,0.274-1.002,0.373-1.642,0.153C42.729,13.512,42.191,12.531,42.548,11.483 M45.22,12.109
		c0.115-0.524-0.054-1.019-0.583-1.197c-0.49-0.167-0.959,0.085-1.212,0.588L45.22,12.109z"/>
	<path fill="#656561" d="M45.905,14.068l0.597-0.313c0.214,0.449,0.523,0.782,0.856,0.963c0.319,0.171,0.577,0.137,0.687-0.074
		l0.008-0.01c0.13-0.247-0.17-0.516-0.493-0.833c-0.408-0.392-0.841-0.868-0.516-1.475l0.008-0.012
		c0.318-0.597,1.026-0.691,1.674-0.342c0.406,0.215,0.773,0.594,1.001,0.999l-0.573,0.358c-0.213-0.358-0.485-0.648-0.758-0.792
		c-0.289-0.156-0.524-0.113-0.623,0.073l-0.006,0.012c-0.125,0.227,0.176,0.512,0.491,0.836c0.4,0.397,0.823,0.895,0.518,1.463
		l-0.007,0.016c-0.355,0.663-1.062,0.709-1.745,0.345C46.568,15.033,46.144,14.598,45.905,14.068"/>
	<path fill="#656561" d="M49.518,15.534l1.102-1.537l-0.38-0.274l0.412-0.574l0.38,0.276l0.573-0.803l0.688,0.494l-0.575,0.8
		l0.804,0.577l-0.409,0.576l-0.809-0.578l-1.025,1.43c-0.189,0.262-0.126,0.462,0.106,0.629c0.155,0.109,0.316,0.177,0.496,0.205
		l-0.391,0.548c-0.236-0.03-0.468-0.113-0.726-0.293C49.26,16.647,49.058,16.175,49.518,15.534"/>
	<path fill="#656561" d="M52.609,19.39l0.309-0.319c-0.385,0.035-0.818-0.066-1.222-0.451c-0.507-0.484-0.68-1.187-0.185-1.709
		l0.01-0.01c0.552-0.574,1.272-0.409,1.891,0.182c0.325,0.31,0.491,0.552,0.635,0.814l0.048-0.051
		c0.343-0.36,0.301-0.776-0.123-1.182c-0.301-0.288-0.583-0.434-0.921-0.566l0.29-0.637c0.417,0.15,0.789,0.339,1.225,0.752
		c0.783,0.755,0.783,1.523,0.12,2.218L53.22,19.97L52.609,19.39z M53.664,18.319c-0.097-0.208-0.274-0.459-0.511-0.687
		c-0.384-0.365-0.758-0.431-0.997-0.183l-0.01,0.012c-0.232,0.246-0.138,0.602,0.151,0.873c0.404,0.387,0.918,0.457,1.226,0.131
		L53.664,18.319z M55.93,15.424l0.326,0.77l-1.163-0.03l-0.456-0.437L55.93,15.424z"/>
	<path fill="#656561" d="M53.946,20.084l0.672-0.042c0.011,0.492,0.156,0.929,0.388,1.227c0.221,0.288,0.467,0.361,0.654,0.216
		l0.013-0.008c0.222-0.169,0.058-0.536-0.105-0.961c-0.213-0.522-0.414-1.134,0.13-1.554l0.015-0.008
		c0.536-0.414,1.218-0.208,1.668,0.374c0.278,0.363,0.464,0.859,0.503,1.32l-0.667,0.094c-0.052-0.413-0.18-0.79-0.366-1.033
		c-0.2-0.26-0.433-0.32-0.601-0.191l-0.011,0.01c-0.206,0.155-0.05,0.541,0.109,0.963c0.196,0.527,0.381,1.154-0.135,1.549
		l-0.006,0.008c-0.598,0.46-1.263,0.214-1.73-0.397C54.153,21.237,53.946,20.665,53.946,20.084"/>
	<path fill="#656561" d="M59.424,43.76c-1.124-2.032-3.743-2.833-5.821-3.391c-0.838-0.222-1.667-0.446-2.48-0.74
		c-1.024-0.375-1.522-1.388,0.609-1.532c2.015-0.137,3.429,1.689,5.43,1.499c2.769-0.27,2.938-3.828,1.025-5.22
		c-4.553-3.309-12.457-2.076-13.687,3.466c-3.468-5.934-11.931-6.948-17.01-2.325c-0.007-1.354-0.649-2.613-2.334-2.773
		c-2.084-0.201-3.056,1.116-3.719,2.833c-1.152,2.982-2.304,5.966-3.458,8.948c-1.253-3.246-2.508-6.492-3.758-9.739
		c-1.114-2.874-5.114-2.654-5.914,0.29c-0.393,1.462,1.023,3.759,1.563,5.047c1.089,2.605,2.179,5.211,3.27,7.818
		c0.562,1.342,1.04,3.381,2.044,4.501c1.823,2.025,5.041,1.446,6.089-1.056c0.844-2.028,1.693-4.054,2.54-6.079
		c0.164-0.391,0.328-0.782,0.49-1.177c0.493,4.804,3.959,8.688,9.098,9.455c4.25,0.637,8.104-1.2,10.362-4.282
		c0.258,1.604,2.088,2.664,3.741,3.369c3.882,1.66,10.424,1.534,12.211-3.147C60.431,47.653,60.398,45.529,59.424,43.76
		 M39.718,43.166c0,2.926-2.24,4.959-5.112,4.842c-2.565-0.103-4.236-2.565-4.236-4.947c0.119-2.917,2.153-4.961,5.114-4.84
		C38.046,38.326,39.718,40.784,39.718,43.166 M45.85,43.317c1.12,1.141,2.686,1.738,4.292,2.211c1.287,0.379,2.69,0.575,3.86,1.27
		c0.632,0.375-0.07,1.066-0.562,1.237c-1.153,0.397-2.664-0.074-3.719-0.536c-1.146-0.501-1.867-1.286-3.15-1.413
		c-0.404-0.04-0.862,0.071-1.279,0.277C45.614,45.402,45.81,44.38,45.85,43.317"/>
	<path fill="#FFFFFF" d="M20.359,51.058c-0.425,1.012-1.198,1.628-2.313,1.628h-0.269c-1.117,0-1.887-0.616-2.316-1.628
		L9.419,36.605C9.286,36.287,9.18,35.968,9.18,35.62c0-1.142,0.905-2.023,2.049-2.023c1.064,0,1.757,0.615,2.077,1.439l4.66,12.059
		l4.709-12.193c0.269-0.667,0.985-1.305,1.972-1.305c1.116,0,2.023,0.851,2.023,1.969c0,0.322-0.106,0.666-0.213,0.906
		L20.359,51.058z"/>
	<path fill="#FFFFFF" d="M35.051,33.438c-5.746,0-9.928,4.338-9.928,9.637v0.053c0,5.297,4.129,9.583,9.878,9.583
		c5.747,0,9.929-4.342,9.929-9.636v-0.054C44.93,37.725,40.804,33.438,35.051,33.438 M40.644,43.128
		c0,3.193-2.291,5.802-5.593,5.802c-3.297,0-5.642-2.661-5.642-5.855v-0.054c0-3.194,2.289-5.803,5.592-5.803
		c3.298,0,5.642,2.66,5.642,5.857V43.128z"/>
	<path fill="#FFFFFF" d="M59.25,46.881c0,3.702-2.819,5.78-6.841,5.78c-2.45,0-4.924-0.749-7.001-2.237
		c-0.454-0.322-0.769-0.906-0.769-1.547c0-1.064,0.847-1.888,1.912-1.888c0.533,0,0.907,0.187,1.175,0.373
		c1.407,1.038,2.955,1.678,4.763,1.678c1.678,0,2.689-0.67,2.689-1.757v-0.056c0-1.036-0.642-1.57-3.75-2.368
		c-3.756-0.961-6.177-1.997-6.177-5.698v-0.05c0-3.38,2.71-5.618,6.52-5.618c2.263,0,4.229,0.583,5.908,1.649
		c0.452,0.264,0.906,0.824,0.906,1.624c0,1.066-0.852,1.892-1.916,1.892c-0.399,0-0.719-0.109-1.038-0.293
		c-1.359-0.8-2.634-1.25-3.914-1.25c-1.569,0-2.397,0.718-2.397,1.621v0.053c0,1.225,0.799,1.625,4.02,2.449
		c3.781,0.985,5.909,2.343,5.909,5.59V46.881z"/>
</g>
</svg>
