<?xml version="1.0" encoding="utf-8"?>
<!-- Generator: Adobe Illustrator 17.0.0, SVG Export Plug-In . SVG Version: 6.00 Build 0)  -->
<!DOCTYPE svg PUBLIC "-//W3C//DTD SVG 1.1//EN" "http://www.w3.org/Graphics/SVG/1.1/DTD/svg11.dtd">
<svg version="1.1" id="Capa_1" xmlns="http://www.w3.org/2000/svg" xmlns:xlink="http://www.w3.org/1999/xlink" x="0px" y="0px"
	 width="112px" height="112px" viewBox="0 0 112 112" enable-background="new 0 0 112 112" xml:space="preserve">
<g>
	<path fill="#9BC12B" d="M109.089,40.637c-8.849-29.233-39.736-45.75-68.97-36.894C10.886,12.596-5.633,43.481,3.227,72.717
		c8.859,29.235,39.736,45.749,68.978,36.893C101.439,100.751,117.956,69.876,109.089,40.637"/>
	<path fill="#FFD300" d="M94.382,40.706c-4.6,1.396-9.771-0.187-12.758-4.287C73.614,25.4,59.472,20.647,46.444,24.598
		C33.4,28.548,24.28,40.344,23.727,53.958c-0.255,6.407-5.653,11.392-12.061,11.137c-6.409-0.259-11.402-5.663-11.14-12.069
		C1.466,29.542,17.211,9.187,39.704,2.372c22.49-6.815,46.884,1.38,60.707,20.389c3.771,5.191,2.618,12.449-2.569,16.218
		C96.764,39.772,95.592,40.342,94.382,40.706"/>
	<path fill="#80A23E" d="M16.533,42.378l-0.037-0.018c-3.338-1.226-5.156-4.761-3.823-8.379c0.823-2.224,2.049-3.278,3.528-3.97
		l1.291,2.34c-1.155,0.608-2.002,1.348-2.439,2.527c-0.731,1.987,0.39,4.023,2.411,4.765l0.027,0.013
		c2.024,0.743,4.218-0.033,4.963-2.05c0.493-1.346,0.257-2.37-0.237-3.604l2.269-1.035c0.847,1.688,1.16,3.334,0.324,5.604
		C23.532,42.033,19.916,43.62,16.533,42.378"/>
	<polygon fill="#80A23E" points="18.098,24.363 19.771,22.17 29.763,29.749 28.097,31.951 	"/>
	<path fill="#80A23E" d="M28.312,22.892l-4.157-5.838l2.254-1.599l4.105,5.781c1.187,1.666,2.633,1.94,4.005,0.962
		c1.366-0.979,1.609-2.405,0.462-4.023l-4.169-5.862l2.249-1.593l4.102,5.77c2.211,3.088,1.547,5.848-1.194,7.804
		C33.22,26.244,30.446,25.909,28.312,22.892"/>
	<path fill="#80A23E" d="M40.106,7.646l4.789-0.988c3.867-0.797,7.079,1.301,7.796,4.756l0.007,0.037
		c0.717,3.458-1.394,6.697-5.253,7.49l-4.793,0.997L40.106,7.646z M46.941,16.506c2.209-0.462,3.39-2.264,2.941-4.434l-0.006-0.043
		c-0.45-2.171-2.257-3.384-4.469-2.925l-2.084,0.429l1.525,7.401L46.941,16.506z"/>
	<path fill="#80A23E" d="M61.991,6.131l2.499,0.501l2.805,13.44l-2.83-0.566l-0.573-2.98l-5.207-1.036l-1.672,2.536l-2.76-0.553
		L61.991,6.131z M63.395,13.939l-0.839-4.317l-2.43,3.669L63.395,13.939z"/>
	<path fill="#80A23E" d="M75.995,10.737l3.987,2.837c3.208,2.283,3.857,6.073,1.805,8.949l-0.019,0.031
		c-2.044,2.873-5.849,3.522-9.065,1.236l-3.985-2.843L75.995,10.737z M74.145,21.76c1.842,1.311,3.969,0.953,5.253-0.854
		l0.023-0.035c1.291-1.804,0.952-3.958-0.886-5.272l-1.737-1.232l-4.388,6.157L74.145,21.76z"/>
	<polygon fill="#FFFFFF" points="37.703,87.713 40.511,88.887 40.156,98.298 46.576,91.402 49.321,92.541 39.786,102.262 
		37.529,101.33 	"/>
	<polygon fill="#FFFFFF" points="50.669,92.543 60.121,93.013 60.001,95.475 53.285,95.129 53.163,97.674 59.065,97.974 
		58.94,100.425 53.038,100.128 52.898,102.76 59.708,103.101 59.583,105.559 50.041,105.077 	"/>
	<path fill="#FFFFFF" d="M62.248,92.664l5.516-1.572c1.541-0.438,2.852-0.344,3.875,0.225c0.854,0.477,1.49,1.32,1.816,2.458
		l0.015,0.035c0.553,1.945-0.153,3.474-1.521,4.48l4.178,3.466l-3.108,0.883l-3.68-3.12l-2.091,0.594l1.101,3.868l-2.648,0.753
		L62.248,92.664z M69.271,97.001c1.292-0.366,1.836-1.267,1.547-2.282l-0.015-0.038c-0.318-1.139-1.278-1.492-2.574-1.13
		l-2.64,0.758l0.985,3.466L69.271,97.001z"/>
	<path fill="#FFFFFF" d="M73.675,89.021l3.903-2.959c3.133-2.384,6.937-1.875,9.078,0.933l0.022,0.033
		c2.134,2.808,1.627,6.645-1.516,9.027l-3.892,2.958L73.675,89.021z M83.66,94.066c1.796-1.361,2.086-3.495,0.745-5.267l-0.026-0.03
		c-1.34-1.763-3.496-2.085-5.297-0.718l-1.698,1.285l4.577,6.022L83.66,94.066z"/>
	<polygon fill="#FFFFFF" points="83.896,80.526 88.997,72.551 91.06,73.877 87.436,79.539 89.585,80.913 92.774,75.934 
		94.837,77.256 91.648,82.237 93.866,83.654 97.538,77.923 99.607,79.249 94.458,87.285 	"/>
	<path fill="#80A23E" d="M15.077,53.197c0.64,2.103-0.553,4.323-2.659,4.965c-2.107,0.635-4.323-0.557-4.963-2.658
		c-0.642-2.105,0.551-4.331,2.656-4.966C12.216,49.896,14.441,51.091,15.077,53.197"/>
	<path fill="#80A23E" d="M94.638,29.086c0.642,2.101-0.545,4.329-2.651,4.964c-2.098,0.642-4.332-0.548-4.964-2.659
		c-0.643-2.101,0.549-4.329,2.656-4.964C91.779,25.789,94.004,26.979,94.638,29.086"/>
	<path fill="#FFD300" d="M65.535,77.619c-0.296,0.547-0.981,0.756-1.532,0.458c-0.286-0.147-0.464-0.399-0.545-0.672l-1.217-4.065
		c-0.144-0.501-0.684-0.793-1.183-0.638c-0.157,0.048-0.301,0.131-0.411,0.248c-0.161,0.174-0.331,0.353-0.511,0.512l-0.683,0.631
		c-1.846,1.537-4.019,2.729-6.457,3.458l-8.428,2.511l-4.234,1.262c-2.404,0.715-4.93-0.651-5.642-3.054l-6.498-21.784
		c-0.711-2.401,0.649-4.937,3.057-5.652l11.705-3.49c2.57-0.757,5.166-0.844,7.616-0.367c2.767,0.529,5.164,2.55,6.027,5.439
		c0.739,2.491,0.18,5.067-1.298,6.987c2.118,0.176,4.089,1.182,5.476,2.781l3.466-18.164c0.387-2.189,1.967-4.093,4.238-4.774
		c2.287-0.674,4.647,0.051,6.167,1.666v0.008l17.523,18.163c0.547,0.516,0.969,1.197,1.204,1.97
		c0.708,2.402-0.657,4.928-3.059,5.649c-1.762,0.516-3.591-0.072-4.725-1.374v-0.007c-0.592-0.719-1.593-1.056-2.553-0.769
		l-12.064,3.59c-0.232,0.068-0.441,0.231-0.564,0.459L65.535,77.619z"/>
</g>
<g>
	<g>
		<defs>
			<path id="SVGID_55_" d="M55.996,120c-6.277,0.001-12.663,1.065-18.91,3.306C7.984,133.752-7.138,165.81,3.306,194.912
				c10.446,29.102,42.505,44.227,71.609,33.782c29.099-10.445,44.224-42.507,33.779-71.607
				C100.491,134.232,78.96,120.001,55.998,120H55.996"/>
		</defs>
		<clipPath id="SVGID_2_">
			<use xlink:href="#SVGID_55_"  overflow="visible"/>
		</clipPath>
		<g clip-path="url(#SVGID_2_)">
			
				<rect x="37.586" y="115.375" transform="matrix(-0.3572 -0.934 0.934 -0.3572 -26.5974 282.4733)" fill="#61A0B1" width="92.624" height="70.027"/>
		</g>
	</g>
</g>
</svg>
