<?xml version="1.0" encoding="utf-8"?>
<!-- Generator: Adobe Illustrator 17.0.0, SVG Export Plug-In . SVG Version: 6.00 Build 0)  -->
<!DOCTYPE svg PUBLIC "-//W3C//DTD SVG 1.1//EN" "http://www.w3.org/Graphics/SVG/1.1/DTD/svg11.dtd">
<svg version="1.1" id="Capa_1" xmlns="http://www.w3.org/2000/svg" xmlns:xlink="http://www.w3.org/1999/xlink" x="0px" y="0px"
	 width="112px" height="112px" viewBox="0 0 112 112" enable-background="new 0 0 112 112" xml:space="preserve">
<g>
	<path fill="#FFFFFF" d="M56.003,0.001C25.073,0.001,0,25.073,0,55.997c0,30.937,25.073,56.002,56.003,56.002
		c30.926,0,55.997-25.065,55.997-55.992C112,25.073,86.929,0.001,56.003,0.001"/>
	<path fill="#FCE70C" d="M56.003,0.001C25.073,0.001,0,25.073,0,55.997c0,30.937,25.073,56.002,56.003,56.002
		c30.926,0,55.997-25.065,55.997-55.992C112,25.073,86.929,0.001,56.003,0.001 M56.003,109.6C26.398,109.6,2.4,85.602,2.4,55.997
		c0-29.596,23.998-53.59,53.603-53.59c29.598,0,53.591,23.994,53.591,53.59C109.594,85.602,85.6,109.6,56.003,109.6"/>
	<path fill="#FBE810" d="M55.964,58.584c0,0,0.007,0,0.014-0.006c1.888-4.449,8.056-15.233,16.636-22.269
		c-6.048-9.143-13.43-14.479-17.397-13.139l-0.006-0.009l-0.078,0.039c-0.199,0.07-0.384,0.157-0.562,0.268
		c-5.624,2.715-10.949,6.843-15.327,12.784C47.867,43.297,54.06,54.126,55.964,58.584"/>
	<path fill="#FBE810" d="M30.796,98.399l-0.02-0.017C14.631,83.735,13.906,62.159,18.04,47.367
		c-3.726-0.004-7.304,0.501-10.497,1.743c-10.543,5.738,5.404,57.763,48.189,58.84c-0.208-0.028-0.424-0.062-0.631-0.112
		C46.993,107.543,38.545,104.857,30.796,98.399"/>
	<path fill="#FBE810" d="M104.335,49.11c-3.176-1.24-6.737-1.747-10.442-1.743c4.135,14.792,3.408,36.368-12.732,51.016
		l-0.025,0.017c-7.458,6.214-15.565,8.932-23.385,9.398c-0.007,0-0.007,0-0.012,0.003v-0.003c-0.005,0-0.014,0-0.02,0
		c-0.134,0.046-0.274,0.08-0.416,0.113C99.218,105.947,114.784,54.795,104.335,49.11"/>
	<g enable-background="new    ">
		<g>
			<defs>
				<rect id="SVGID_25_" x="53.128" y="57.682" width="3.293" height="3.294"/>
			</defs>
			<clipPath id="SVGID_2_">
				<use xlink:href="#SVGID_25_"  overflow="visible"/>
			</clipPath>
			<g clip-path="url(#SVGID_2_)">
				<defs>
					<rect id="SVGID_27_" x="55.963" y="58.578" width="0.012" height="0.024"/>
				</defs>
				<clipPath id="SVGID_4_">
					<use xlink:href="#SVGID_27_"  overflow="visible"/>
				</clipPath>
				<path clip-path="url(#SVGID_4_)" fill="#FCE70C" d="M55.978,58.581c-0.007,0.004-0.014,0.004-0.014,0.004
					c0,0.004,0,0.011,0.007,0.018C55.97,58.591,55.97,58.584,55.978,58.581"/>
			</g>
		</g>
	</g>
	<path fill="#FBE810" d="M93.893,47.367C91.026,37.115,85.821,30.122,81.8,30.951c-3.288,1.145-6.36,3.047-9.184,5.357
		c2.522,3.811,4.816,8.275,6.534,13.2C83.971,48.247,89.059,47.378,93.893,47.367"/>
	<path fill="#FBE810" d="M32.694,49.498c0.681-2.3,1.548-4.61,2.626-6.917l0.017-0.028c1.189-2.297,2.501-4.392,3.907-6.301
		c-2.805-2.282-5.858-4.162-9.103-5.303c-4.032-0.826-9.235,6.163-12.101,16.418C22.842,47.382,27.896,48.245,32.694,49.498"/>
	<path fill="#FDD908" d="M35.321,42.581c-1.079,2.307-1.945,4.617-2.626,6.917c11.861,3.085,22.162,8.516,23.244,9.1
		c0.004-0.003,0.015-0.01,0.025-0.014c-1.903-4.458-8.096-15.288-16.719-22.333c-1.406,1.91-2.719,4.005-3.907,6.301L35.321,42.581z
		"/>
	<path fill="#FDD908" d="M55.978,58.581c1.219-0.651,11.418-6.008,23.172-9.069c-1.718-4.928-4.012-9.392-6.534-13.203
		C64.034,43.345,57.866,54.129,55.978,58.581"/>
	<path fill="#FDD908" d="M79.15,49.509c3.975,11.383,4.888,25.196-1.519,38.867l-0.013,0.029c-4.895,9.446-11.806,15.5-19.239,19.09
		c-0.174,0.108-0.359,0.193-0.551,0.267c-0.025,0.011-0.053,0.021-0.077,0.035c7.821-0.465,15.927-3.184,23.385-9.393l0.021-0.015
		C97.3,83.735,98.028,62.159,93.893,47.367C89.059,47.378,83.971,48.247,79.15,49.509"/>
	<path fill="#FDD908" d="M30.776,98.389l0.02,0.015c7.749,6.453,16.197,9.139,24.306,9.435
		c-10.34-2.278-30.936-29.659-22.411-58.341c-4.796-1.254-9.85-2.117-14.651-2.132C13.906,62.159,14.631,83.735,30.776,98.389"/>
	<path fill="#FCCB13" d="M58.381,107.495c7.433-3.587,14.344-9.646,19.24-19.09l0.01-0.029c6.398-13.671,5.494-27.485,1.519-38.864
		c-11.754,3.062-21.953,8.418-23.172,9.069c-0.007,0.004-0.007,0.01-0.007,0.015c-0.007,0-0.007-0.007-0.007-0.011
		c-0.009,0.004-0.022,0.011-0.025,0.011c-1.082-0.581-11.383-6.007-23.244-9.097c-8.534,28.682,12.065,56.063,22.408,58.341
		c0.257,0.014,0.513,0.022,0.778,0.022v0.003c0.024,0,0.058,0,0.09,0c0.024,0,0.056,0,0.082,0v-0.003
		c0.555-0.008,1.106-0.032,1.666-0.064c0.007,0,0.015,0,0.02,0h0.01c0.028-0.014,0.054-0.024,0.078-0.038
		C58.02,107.688,58.205,107.603,58.381,107.495"/>
	<path fill="#656561" d="M17.782,32.107c0.018,0.863-0.668,1.574-1.532,1.586c-0.862,0.02-1.576-0.663-1.587-1.526
		c-0.019-0.863,0.67-1.577,1.53-1.591C17.048,30.562,17.767,31.242,17.782,32.107"/>
	<path fill="#656561" d="M97.443,33.347c0.013,0.863-0.675,1.574-1.537,1.595c-0.861,0.018-1.567-0.67-1.586-1.533
		c-0.02-0.862,0.669-1.573,1.53-1.595C96.711,31.804,97.425,32.484,97.443,33.347"/>
	<polygon fill="#656561" points="15.761,25.851 19.934,20.96 20.944,21.823 17.76,25.554 19.427,26.976 22.251,23.669 
		23.266,24.532 20.442,27.838 22.168,29.313 25.388,25.532 26.398,26.391 22.187,31.332 	"/>
	<path fill="#656561" d="M23.306,20.601l1.157-0.951l0.629,0.765c-0.058-0.733,0.079-1.521,0.862-2.166
		c1.14-0.94,2.417-0.736,3.356,0.411l2.579,3.129l-1.164,0.953l-2.296-2.793c-0.631-0.765-1.385-0.881-2.071-0.313
		c-0.668,0.553-0.76,1.398-0.134,2.159l2.282,2.775l-1.158,0.95L23.306,20.601z"/>
	<path fill="#656561" d="M35.723,17.47l-1.467-3.014l-0.749,0.365l-0.549-1.13l0.751-0.362l-0.772-1.571l1.352-0.659l0.765,1.571
		l1.583-0.768l0.547,1.122l-1.583,0.772l1.368,2.814c0.254,0.507,0.618,0.585,1.076,0.359c0.302-0.147,0.541-0.341,0.737-0.602
		l0.522,1.075c-0.237,0.347-0.564,0.637-1.065,0.883C37.245,18.808,36.339,18.728,35.723,17.47"/>
	<path fill="#656561" d="M39.067,14.266l-0.007-0.021c-0.535-1.743,0.437-3.62,2.351-4.212c1.918-0.599,3.761,0.387,4.304,2.123
		l0.005,0.024c0.535,1.726-0.437,3.607-2.363,4.206C41.45,16.974,39.603,15.994,39.067,14.266 M44.297,12.644l-0.005-0.021
		c-0.333-1.074-1.4-1.715-2.526-1.364c-1.152,0.357-1.608,1.455-1.279,2.511l0.008,0.029c0.325,1.06,1.4,1.708,2.511,1.37
		C44.164,14.807,44.62,13.691,44.297,12.644"/>
	<path fill="#656561" d="M47.116,11.888l-0.006-0.021c-0.239-2.099,1.098-3.45,2.643-3.625c1.074-0.119,1.812,0.325,2.348,0.863
		l-0.39-3.406l1.494-0.168l0.984,8.748l-1.486,0.169l-0.121-1.053c-0.405,0.715-1.024,1.317-2.076,1.441
		C48.973,15.008,47.353,13.984,47.116,11.888 M52.368,11.299l-0.007-0.027c-0.134-1.219-1.113-1.927-2.107-1.815
		c-1.022,0.121-1.787,0.979-1.639,2.241v0.024c0.14,1.223,1.09,1.931,2.102,1.811C51.711,13.419,52.51,12.504,52.368,11.299"/>
	<path fill="#656561" d="M55.552,11.089v-0.022c0.107-1.82,1.682-3.232,3.683-3.114c2.007,0.121,3.39,1.691,3.281,3.51v0.024
		c-0.111,1.803-1.687,3.218-3.697,3.096C56.824,14.466,55.444,12.895,55.552,11.089 M61.019,11.419v-0.025
		c0.063-1.119-0.711-2.098-1.887-2.168c-1.195-0.072-2.018,0.802-2.082,1.905v0.024c-0.071,1.106,0.701,2.1,1.865,2.17
		C60.13,13.395,60.946,12.514,61.019,11.419"/>
	<path fill="#656561" d="M67.614,12.511l0.007-0.024c0.585-1.726,2.32-2.715,4.094-2.117c1.967,0.67,2.457,2.517,1.866,4.253
		c-0.04,0.121-0.096,0.251-0.155,0.381l-4.552-1.546c-0.18,1.035,0.354,1.824,1.267,2.134c0.688,0.236,1.272,0.152,1.924-0.148
		l0.585,1c-0.819,0.486-1.777,0.661-2.913,0.271C67.935,16.111,66.981,14.37,67.614,12.511 M72.354,13.621
		c0.205-0.93-0.096-1.807-1.034-2.124c-0.869-0.296-1.701,0.151-2.149,1.043L72.354,13.621z"/>
	<path fill="#656561" d="M73.569,17.097l1.06-0.556c0.38,0.796,0.927,1.387,1.518,1.708c0.565,0.303,1.023,0.243,1.219-0.131
		l0.015-0.018c0.232-0.437-0.301-0.916-0.874-1.478c-0.724-0.695-1.492-1.54-0.915-2.618l0.015-0.02
		c0.564-1.06,1.82-1.226,2.969-0.606c0.721,0.38,1.372,1.053,1.776,1.771l-1.017,0.634c-0.379-0.634-0.861-1.149-1.344-1.405
		c-0.513-0.276-0.93-0.201-1.105,0.13l-0.01,0.022c-0.221,0.402,0.312,0.908,0.871,1.482c0.71,0.705,1.461,1.589,0.92,2.596
		l-0.012,0.028c-0.631,1.176-1.883,1.257-3.095,0.613C74.746,18.808,73.994,18.037,73.569,17.097"/>
	<path fill="#656561" d="M79.979,19.697l1.954-2.727l-0.673-0.486l0.732-1.018l0.674,0.489l1.016-1.425l1.22,0.877l-1.02,1.42
		l1.426,1.024l-0.725,1.021l-1.436-1.025l-1.819,2.537c-0.336,0.464-0.224,0.82,0.187,1.116c0.275,0.194,0.561,0.313,0.88,0.363
		l-0.693,0.972c-0.419-0.052-0.83-0.2-1.287-0.521C79.521,21.673,79.163,20.834,79.979,19.697"/>
	<path fill="#656561" d="M85.463,26.538l0.549-0.565c-0.684,0.063-1.451-0.117-2.168-0.8c-0.9-0.859-1.207-2.106-0.328-3.032
		l0.018-0.018c0.979-1.019,2.257-0.726,3.354,0.324c0.576,0.55,0.871,0.979,1.126,1.443l0.086-0.09
		c0.609-0.638,0.535-1.377-0.218-2.096c-0.534-0.51-1.035-0.771-1.634-1.004l0.514-1.13c0.739,0.267,1.4,0.602,2.174,1.334
		c1.389,1.339,1.389,2.702,0.213,3.935l-2.602,2.729L85.463,26.538z M87.334,24.637c-0.173-0.369-0.486-0.813-0.906-1.218
		c-0.681-0.647-1.345-0.764-1.768-0.325l-0.018,0.021c-0.412,0.437-0.245,1.067,0.268,1.55c0.716,0.687,1.629,0.81,2.176,0.233
		L87.334,24.637z M91.353,19.503l0.578,1.367l-2.062-0.053l-0.81-0.775L91.353,19.503z"/>
	<path fill="#656561" d="M87.834,27.768l1.192-0.075c0.02,0.873,0.277,1.649,0.688,2.177c0.393,0.51,0.829,0.641,1.161,0.383
		l0.022-0.014c0.393-0.299,0.103-0.951-0.187-1.704c-0.379-0.925-0.734-2.011,0.23-2.757l0.026-0.015
		c0.952-0.735,2.161-0.37,2.959,0.663c0.493,0.645,0.824,1.524,0.892,2.341l-1.184,0.166c-0.092-0.732-0.319-1.401-0.649-1.832
		c-0.355-0.461-0.769-0.567-1.066-0.339L91.9,26.782c-0.366,0.275-0.088,0.959,0.193,1.708c0.348,0.935,0.676,2.047-0.24,2.748
		l-0.01,0.014c-1.061,0.816-2.24,0.38-3.069-0.705C88.202,29.814,87.834,28.8,87.834,27.768"/>
	<path fill="#656561" d="M97.552,69.77c-1.993-3.605-6.64-5.026-10.326-6.016c-1.487-0.394-2.957-0.792-4.399-1.313
		c-1.817-0.666-2.701-2.462,1.081-2.718c3.575-0.243,6.083,2.997,9.634,2.659c4.912-0.479,5.213-6.79,1.818-9.259
		c-8.078-5.871-22.1-3.683-24.281,6.149c-6.153-10.527-21.166-12.326-30.175-4.124c-0.012-2.401-1.151-4.635-4.14-4.92
		c-3.698-0.356-5.422,1.979-6.598,5.026c-2.043,5.289-4.088,10.583-6.134,15.874c-2.223-5.758-4.45-11.517-6.666-17.277
		c-1.977-5.099-9.073-4.708-10.491,0.514c-0.698,2.593,1.814,6.668,2.772,8.953c1.932,4.622,3.866,9.245,5.801,13.87
		c0.997,2.381,1.845,5.998,3.627,7.984c3.233,3.592,8.943,2.564,10.802-1.873c1.496-3.597,3.004-7.191,4.507-10.785
		c0.29-0.693,0.581-1.387,0.868-2.089c0.875,8.523,7.022,15.413,16.14,16.773c7.54,1.13,14.377-2.129,18.383-7.597
		c0.457,2.845,3.703,4.726,6.636,5.977c6.886,2.944,18.493,2.721,21.663-5.583C99.338,76.677,99.281,72.908,97.552,69.77
		 M62.593,68.717c0,5.191-3.974,8.798-9.069,8.59c-4.551-0.183-7.515-4.55-7.515-8.776c0.212-5.175,3.82-8.801,9.073-8.586
		C59.627,60.13,62.593,64.49,62.593,68.717 M73.472,68.984c1.987,2.023,4.765,3.083,7.614,3.922c2.283,0.673,4.772,1.02,6.847,2.254
		c1.12,0.666-0.124,1.891-0.996,2.194c-2.046,0.704-4.727-0.131-6.597-0.951c-2.034-0.888-3.312-2.282-5.589-2.507
		c-0.716-0.072-1.53,0.126-2.27,0.492C73.053,72.684,73.401,70.87,73.472,68.984"/>
	<path fill="#FFFFFF" d="M28.25,82.717c-0.755,1.796-2.125,2.888-4.103,2.888h-0.477c-1.981,0-3.347-1.092-4.108-2.888L8.844,57.077
		c-0.237-0.563-0.425-1.13-0.425-1.746c0-2.026,1.606-3.589,3.634-3.589c1.888,0,3.118,1.092,3.685,2.553l8.267,21.393l8.354-21.631
		c0.478-1.184,1.748-2.315,3.498-2.315c1.98,0,3.589,1.51,3.589,3.493c0,0.571-0.188,1.181-0.379,1.607L28.25,82.717z"/>
	<path fill="#FFFFFF" d="M54.315,51.459c-10.194,0-17.612,7.696-17.612,17.096v0.094c0,9.398,7.325,17,17.525,17
		c10.195,0,17.613-7.703,17.613-17.095V68.46C71.841,59.064,64.521,51.459,54.315,51.459 M64.237,68.65
		c0,5.664-4.064,10.292-9.922,10.292c-5.849,0-10.008-4.72-10.008-10.386V68.46c0-5.666,4.061-10.294,9.921-10.294
		c5.851,0,10.009,4.719,10.009,10.39V68.65z"/>
	<path fill="#FFFFFF" d="M97.244,75.307c0,6.568-5.001,10.253-12.136,10.253c-4.347,0-8.736-1.328-12.42-3.969
		c-0.805-0.571-1.364-1.607-1.364-2.745c0-1.887,1.502-3.349,3.393-3.349c0.946,0,1.608,0.331,2.084,0.662
		c2.495,1.842,5.242,2.977,8.45,2.977c2.977,0,4.771-1.188,4.771-3.117v-0.1c0-1.839-1.139-2.785-6.653-4.201
		c-6.664-1.705-10.958-3.543-10.958-10.108v-0.089c0-5.996,4.808-9.966,11.567-9.966c4.014,0,7.503,1.034,10.481,2.925
		c0.802,0.469,1.607,1.462,1.607,2.882c0,1.891-1.512,3.355-3.399,3.355c-0.707,0-1.275-0.193-1.841-0.521
		c-2.411-1.42-4.674-2.218-6.943-2.218c-2.784,0-4.252,1.274-4.252,2.876v0.093c0,2.173,1.418,2.883,7.132,4.345
		c6.707,1.747,10.482,4.156,10.482,9.917V75.307z"/>
</g>
</svg>
