<?xml version="1.0" encoding="utf-8"?>
<!-- Generator: Adobe Illustrator 17.0.0, SVG Export Plug-In . SVG Version: 6.00 Build 0)  -->
<!DOCTYPE svg PUBLIC "-//W3C//DTD SVG 1.1//EN" "http://www.w3.org/Graphics/SVG/1.1/DTD/svg11.dtd">
<svg version="1.1" id="Layer_1" xmlns="http://www.w3.org/2000/svg" xmlns:xlink="http://www.w3.org/1999/xlink" x="0px" y="0px"
	 width="72px" height="72px" viewBox="0 0 72 72" enable-background="new 0 0 72 72" xml:space="preserve">
<g>
	<path fill="#FFFFFF" d="M25.748,2.162C7.298,7.75-3.113,27.48,2.538,46.14c5.658,18.658,25.265,29.291,43.716,23.696
		c18.45-5.586,28.859-25.311,23.208-43.974C63.807,7.205,44.197-3.429,25.748,2.162"/>
	<path fill="#9BC12B" d="M65.92,27.311C60.938,10.852,43.548,1.553,27.088,6.539C10.63,11.524,1.329,28.912,6.318,45.373
		c4.988,16.46,22.372,25.758,38.836,20.771C61.613,61.157,70.912,43.773,65.92,27.311"/>
	<path fill="#FFD300" d="M57.64,27.35c-2.59,0.786-5.501-0.105-7.183-2.414c-4.51-6.204-12.472-8.88-19.807-6.656
		c-7.344,2.224-12.479,8.865-12.79,16.53c-0.144,3.607-3.183,6.414-6.791,6.27c-3.608-0.146-6.419-3.188-6.272-6.795
		c0.53-13.222,9.394-24.682,22.058-28.519c12.662-3.837,26.397,0.777,34.179,11.48c2.123,2.923,1.474,7.009-1.447,9.131
		C58.981,26.824,58.321,27.145,57.64,27.35"/>
	<path fill="#80A23E" d="M13.809,28.291l-0.021-0.01c-1.879-0.69-2.903-2.68-2.152-4.717c0.463-1.252,1.154-1.846,1.987-2.235
		l0.727,1.317c-0.65,0.342-1.127,0.759-1.373,1.423c-0.412,1.118,0.219,2.265,1.358,2.683l0.015,0.007
		c1.139,0.418,2.375-0.019,2.794-1.154c0.278-0.758,0.145-1.334-0.134-2.029l1.278-0.583c0.477,0.95,0.653,1.877,0.183,3.155
		C17.75,28.097,15.714,28.991,13.809,28.291"/>
	
		<rect x="17.198" y="16.134" transform="matrix(-0.6065 0.7951 -0.7951 -0.6065 44.5107 17.2999)" fill="#80A23E" width="1.553" height="7.061"/>
	<path fill="#80A23E" d="M20.441,17.321l-2.34-3.287l1.269-0.9l2.311,3.255c0.668,0.938,1.482,1.092,2.255,0.542
		c0.769-0.551,0.906-1.354,0.26-2.265l-2.347-3.3l1.266-0.897l2.309,3.249c1.245,1.738,0.871,3.293-0.672,4.394
		C23.204,19.208,21.642,19.019,20.441,17.321"/>
	<path fill="#80A23E" d="M27.081,8.737l2.697-0.556c2.177-0.449,3.985,0.732,4.389,2.678l0.004,0.021
		c0.404,1.947-0.785,3.771-2.957,4.217l-2.699,0.561L27.081,8.737z M30.929,13.725c1.244-0.26,1.909-1.275,1.656-2.496l-0.003-0.024
		c-0.254-1.222-1.271-1.905-2.516-1.647l-1.173,0.241l0.859,4.167L30.929,13.725z"/>
	<path fill="#80A23E" d="M39.403,7.884l1.407,0.282l1.579,7.567l-1.593-0.319l-0.323-1.678l-2.932-0.583L36.6,14.58l-1.554-0.311
		L39.403,7.884z M40.194,12.28l-0.472-2.43l-1.368,2.066L40.194,12.28z"/>
	<path fill="#80A23E" d="M47.287,10.477l2.245,1.598c1.806,1.285,2.172,3.419,1.017,5.039l-0.011,0.017
		c-1.151,1.618-3.293,1.983-5.104,0.696l-2.243-1.601L47.287,10.477z M46.246,16.683c1.037,0.738,2.235,0.536,2.958-0.481
		l0.013-0.019c0.727-1.016,0.536-2.228-0.499-2.968l-0.978-0.694l-2.47,3.466L46.246,16.683z"/>
	<polygon fill="#FFFFFF" points="25.728,53.816 27.309,54.477 27.109,59.775 30.724,55.893 32.27,56.534 26.901,62.007 
		25.63,61.482 	"/>
	<polygon fill="#FFFFFF" points="33.028,56.535 38.35,56.8 38.283,58.186 34.501,57.991 34.432,59.424 37.755,59.593 37.685,60.973 
		34.362,60.806 34.283,62.288 38.118,62.48 38.047,63.864 32.675,63.592 	"/>
	<path fill="#FFFFFF" d="M39.548,56.604l3.106-0.885c0.868-0.247,1.606-0.194,2.182,0.127c0.481,0.269,0.839,0.743,1.022,1.384
		l0.008,0.02c0.311,1.095-0.086,1.956-0.856,2.522l2.352,1.951l-1.75,0.497l-2.072-1.757l-1.177,0.334l0.62,2.178L41.492,63.4
		L39.548,56.604z M43.502,59.045c0.727-0.206,1.034-0.714,0.871-1.285l-0.008-0.022c-0.179-0.642-0.719-0.84-1.449-0.636
		l-1.486,0.427l0.554,1.951L43.502,59.045z"/>
	<path fill="#FFFFFF" d="M45.981,54.552l2.197-1.666c1.764-1.342,3.906-1.056,5.111,0.525l0.013,0.018
		c1.202,1.581,0.916,3.741-0.853,5.082l-2.191,1.665L45.981,54.552z M51.603,57.393c1.011-0.766,1.174-1.968,0.42-2.965
		l-0.015-0.017c-0.755-0.993-1.968-1.174-2.982-0.404L48.07,54.73l2.577,3.391L51.603,57.393z"/>
	<polygon fill="#FFFFFF" points="51.736,49.77 54.608,45.28 55.77,46.026 53.729,49.214 54.939,49.987 56.735,47.184 57.896,47.929 
		56.1,50.733 57.349,51.531 59.417,48.304 60.582,49.05 57.683,53.575 	"/>
	<path fill="#80A23E" d="M12.989,34.382c0.36,1.184-0.311,2.434-1.497,2.795c-1.186,0.358-2.434-0.313-2.794-1.496
		c-0.361-1.185,0.31-2.438,1.496-2.796C11.379,32.524,12.631,33.197,12.989,34.382"/>
	<path fill="#80A23E" d="M57.784,20.808c0.361,1.183-0.307,2.437-1.493,2.795c-1.181,0.361-2.439-0.309-2.795-1.497
		c-0.362-1.183,0.309-2.437,1.496-2.795C56.174,18.952,57.427,19.622,57.784,20.808"/>
	<path fill="#FFD300" d="M41.398,48.133c-0.167,0.308-0.552,0.426-0.862,0.258c-0.161-0.083-0.261-0.224-0.307-0.379l-0.685-2.288
		c-0.081-0.282-0.385-0.446-0.666-0.359c-0.088,0.027-0.169,0.074-0.231,0.14c-0.09,0.098-0.186,0.199-0.288,0.288l-0.384,0.355
		c-1.039,0.866-2.263,1.537-3.636,1.947l-4.745,1.414l-2.384,0.71c-1.353,0.403-2.776-0.366-3.177-1.72l-3.658-12.265
		c-0.4-1.352,0.366-2.78,1.721-3.182l6.59-1.965c1.447-0.426,2.908-0.475,4.288-0.207c1.558,0.298,2.907,1.436,3.393,3.062
		c0.416,1.402,0.101,2.853-0.731,3.934c1.193,0.099,2.302,0.665,3.083,1.566l1.951-10.227c0.218-1.233,1.107-2.304,2.386-2.688
		c1.288-0.379,2.617,0.029,3.472,0.938v0.004l9.866,10.226c0.308,0.291,0.546,0.674,0.678,1.109c0.399,1.353-0.37,2.774-1.722,3.18
		c-0.992,0.291-2.022-0.04-2.66-0.774v-0.004c-0.333-0.405-0.897-0.595-1.438-0.433l-6.792,2.021
		c-0.131,0.038-0.248,0.13-0.318,0.258L41.398,48.133z"/>
</g>
</svg>
