<?xml version="1.0" encoding="utf-8"?>
<!-- Generator: Adobe Illustrator 16.0.4, SVG Export Plug-In . SVG Version: 6.00 Build 0)  -->
<!DOCTYPE svg PUBLIC "-//W3C//DTD SVG 1.1//EN" "http://www.w3.org/Graphics/SVG/1.1/DTD/svg11.dtd">
<svg version="1.1" id="Layer_1" xmlns="http://www.w3.org/2000/svg" xmlns:xlink="http://www.w3.org/1999/xlink" x="0px" y="0px"
	 width="255px" height="45px" viewBox="0 0 255 45" enable-background="new 0 0 255 45" xml:space="preserve">
<g>
	<g>
		<path fill="#FFFFFF" d="M46.861,15.387h6.548c1.667,0,2.981,0.46,3.817,1.296c0.647,0.646,0.981,1.438,0.981,2.42v0.04
			c0,1.75-1.002,2.691-2.087,3.256c1.711,0.581,2.898,1.563,2.898,3.543v0.041c0,2.608-2.147,4.005-5.399,4.005h-6.759V15.387z
			 M52.89,21.542c1.647,0,2.749-0.649,2.749-1.986v-0.038c0-1.146-0.915-1.856-2.563-1.856h-3.692v3.881H52.89z M53.638,27.717
			c1.752,0,2.818-0.69,2.818-2.004v-0.044c0-1.228-0.981-1.954-3.004-1.954h-4.069v4.002H53.638z"/>
		<path fill="#FFFFFF" d="M61.091,25.982v-7.007h2.525v6.258c0,1.71,0.855,2.69,2.355,2.69c1.462,0,2.483-1.021,2.483-2.737v-6.211
			h2.524v11.012h-2.524v-1.708c-0.708,1.043-1.731,1.938-3.441,1.938C62.532,30.218,61.091,28.552,61.091,25.982"/>
		<path fill="#FFFFFF" d="M73.132,24.526v-0.045c0-3.146,2.232-5.734,5.383-5.734c3.504,0,5.275,2.752,5.275,5.924
			c0,0.228-0.018,0.456-0.039,0.709h-8.093c0.271,1.795,1.543,2.794,3.169,2.794c1.232,0,2.106-0.457,2.984-1.314l1.481,1.314
			c-1.044,1.251-2.485,2.065-4.507,2.065C75.592,30.239,73.132,27.924,73.132,24.526 M81.286,23.715
			c-0.163-1.633-1.125-2.904-2.793-2.904c-1.541,0-2.628,1.186-2.856,2.904H81.286z"/>
		<path fill="#FFFFFF" d="M85.926,18.976h2.522v1.71c0.708-1.042,1.732-1.938,3.441-1.938c2.482,0,3.924,1.669,3.924,4.232v7.008
			h-2.527v-6.253c0-1.713-0.856-2.691-2.355-2.691c-1.462,0-2.483,1.019-2.483,2.73v6.214h-2.522V18.976z"/>
		<path fill="#FFFFFF" d="M97.84,24.546V24.5c0-3.147,2.503-5.753,5.881-5.753c3.379,0,5.861,2.565,5.861,5.715V24.5
			c0,3.131-2.5,5.739-5.901,5.739C100.323,30.239,97.84,27.677,97.84,24.546 M107.06,24.546V24.5c0-1.937-1.397-3.543-3.378-3.543
			c-2.024,0-3.316,1.583-3.316,3.505V24.5c0,1.924,1.397,3.549,3.355,3.549C105.768,28.049,107.06,26.442,107.06,24.546"/>
		<path fill="#FFFFFF" d="M110.841,28.552l1.125-1.712c1.189,0.899,2.485,1.355,3.61,1.355c1.084,0,1.71-0.456,1.71-1.19v-0.039
			c0-0.857-1.167-1.15-2.461-1.546c-1.626-0.46-3.44-1.121-3.44-3.234v-0.041c0-2.086,1.73-3.358,3.922-3.358
			c1.373,0,2.876,0.481,4.045,1.252l-1.002,1.796c-1.063-0.648-2.188-1.044-3.107-1.044c-0.979,0-1.544,0.46-1.544,1.108v0.034
			c0,0.796,1.188,1.129,2.483,1.551c1.606,0.498,3.419,1.228,3.419,3.208v0.044c0,2.314-1.795,3.462-4.085,3.462
			C113.946,30.197,112.215,29.636,110.841,28.552"/>
		<path fill="#FFFFFF" d="M133.06,15.285h2.382l6.423,14.702h-2.711l-1.481-3.523h-6.904l-1.503,3.523h-2.629L133.06,15.285z
			 M136.733,24.188l-2.522-5.84l-2.503,5.84H136.733z"/>
		<path fill="#FFFFFF" d="M143.71,14.889h2.711v2.402h-2.711V14.889z M143.812,18.976h2.525v11.012h-2.525V18.976z"/>
		<path fill="#FFFFFF" d="M149.216,18.976h2.526v2.483c0.686-1.648,1.96-2.773,3.899-2.693v2.668h-0.146
			c-2.21,0-3.753,1.445-3.753,4.363v4.19h-2.526V18.976z"/>
		<path fill="#FFFFFF" d="M156.44,24.526v-0.045c0-3.146,2.23-5.734,5.38-5.734c3.507,0,5.276,2.752,5.276,5.924
			c0,0.228-0.02,0.456-0.042,0.709h-8.091c0.269,1.795,1.542,2.794,3.169,2.794c1.23,0,2.107-0.457,2.983-1.314l1.481,1.314
			c-1.041,1.251-2.487,2.065-4.508,2.065C158.898,30.239,156.44,27.924,156.44,24.526 M164.592,23.715
			c-0.163-1.633-1.126-2.904-2.793-2.904c-1.543,0-2.625,1.186-2.857,2.904H164.592z"/>
		<path fill="#FFFFFF" d="M168.336,28.552l1.123-1.712c1.189,0.899,2.483,1.355,3.609,1.355c1.085,0,1.708-0.456,1.708-1.19v-0.039
			c0-0.857-1.167-1.15-2.456-1.546c-1.628-0.46-3.445-1.121-3.445-3.234v-0.041c0-2.086,1.734-3.358,3.923-3.358
			c1.377,0,2.878,0.481,4.045,1.252l-1.002,1.796c-1.065-0.648-2.19-1.044-3.105-1.044c-0.983,0-1.543,0.46-1.543,1.108v0.034
			c0,0.796,1.187,1.129,2.482,1.551c1.604,0.498,3.42,1.228,3.42,3.208v0.044c0,2.314-1.796,3.462-4.09,3.462
			C171.44,30.197,169.709,29.636,168.336,28.552"/>
		<path fill="#FFFFFF" d="M184.735,22.729v-0.042c0-4.148,3.105-7.548,7.53-7.548c2.691,0,4.317,0.938,5.715,2.272l-1.646,1.896
			c-1.169-1.081-2.424-1.811-4.091-1.811c-2.797,0-4.819,2.292-4.819,5.152v0.038c0,2.856,2.021,5.193,4.819,5.193
			c1.794,0,2.942-0.729,4.194-1.897l1.648,1.67c-1.525,1.585-3.192,2.587-5.924,2.587C187.902,30.239,184.735,26.922,184.735,22.729
			"/>
		<path fill="#FFFFFF" d="M200.115,14.889h2.711v2.402h-2.711V14.889z M200.218,18.976h2.523v11.012h-2.523V18.976z"/>
		<path fill="#FFFFFF" d="M205.499,25.982v-7.007h2.521v6.258c0,1.71,0.858,2.69,2.36,2.69c1.46,0,2.48-1.021,2.48-2.737v-6.211
			h2.527v11.012h-2.527v-1.708c-0.706,1.043-1.729,1.938-3.438,1.938C206.938,30.218,205.499,28.552,205.499,25.982"/>
		<path fill="#FFFFFF" d="M217.579,24.5v-0.038c0-3.651,2.484-5.715,5.112-5.715c1.816,0,2.96,0.92,3.753,1.938v-5.925h2.522v15.227
			h-2.522v-1.835c-0.812,1.146-1.96,2.065-3.753,2.065C220.104,30.218,217.579,28.152,217.579,24.5 M226.487,24.5v-0.038
			c0-2.127-1.501-3.525-3.192-3.525c-1.73,0-3.173,1.334-3.173,3.525V24.5c0,2.131,1.465,3.528,3.173,3.528
			C224.985,28.028,226.487,26.608,226.487,24.5"/>
		<path fill="#FFFFFF" d="M238.447,29.987v-1.356c-0.754,0.896-1.9,1.587-3.567,1.587c-2.087,0-3.924-1.188-3.924-3.397v-0.044
			c0-2.441,1.899-3.609,4.465-3.609c1.336,0,2.188,0.189,3.043,0.459V23.42c0-1.521-0.957-2.358-2.709-2.358
			c-1.23,0-2.15,0.273-3.149,0.688l-0.688-2.022c1.21-0.541,2.399-0.918,4.192-0.918c3.254,0,4.84,1.71,4.84,4.652v6.525H238.447z
			 M238.509,25.38c-0.648-0.253-1.545-0.439-2.525-0.439c-1.584,0-2.522,0.648-2.522,1.713v0.038c0,1.048,0.938,1.629,2.123,1.629
			c1.674,0,2.925-0.938,2.925-2.318V25.38z"/>
		<path fill="#FFFFFF" d="M242.978,24.5v-0.038c0-3.651,2.483-5.715,5.108-5.715c1.815,0,2.965,0.92,3.754,1.938v-5.925h2.524
			v15.227h-2.524v-1.835c-0.814,1.146-1.958,2.065-3.754,2.065C245.502,30.218,242.978,28.152,242.978,24.5 M251.886,24.5v-0.038
			c0-2.127-1.503-3.525-3.193-3.525c-1.732,0-3.168,1.334-3.168,3.525V24.5c0,2.131,1.457,3.528,3.168,3.528
			C250.383,28.028,251.886,26.608,251.886,24.5"/>
		<path fill="#FFFFFF" d="M18.518,7.275c-0.116,0-0.212,0.096-0.212,0.211c0,0.118,0.097,0.215,0.212,0.215
			c0.119,0,0.211-0.097,0.211-0.215C18.729,7.371,18.636,7.275,18.518,7.275"/>
		<path fill="#FFFFFF" d="M29.328,10.583l-0.035-0.004c-1.113-0.046-2.177-0.446-3.205-0.837c-0.417-0.157-0.85-0.32-1.277-0.454
			c-0.844-0.27-1.597-0.416-2.3-0.45c-0.188-0.01-0.356-0.014-0.536-0.014c-0.475,0-1.143,0.044-1.559,0.449
			c-0.12-0.524-0.261-1.112-0.48-1.671c-0.211-0.53-0.521-1.16-1.089-1.33c-0.092-0.031-0.189-0.038-0.276-0.038
			c-0.562,0-0.986,0.5-1.195,0.798l-0.094,0.135c-0.242,0.354-0.365,0.528-0.33,0.696c0.04,0.165,0.239,0.29,0.696,0.553
			c0.193,0.112,0.231,0.399,0.258,0.614l0.002,0.022c0.042,0.319,0.063,0.629,0.059,0.923C17.32,9.31,16.329,9.047,15.433,8.88
			c-0.237-0.046-0.487-0.07-0.742-0.07c-1.03,0-2.037,0.388-2.705,0.675c-0.376,0.163-0.754,0.342-1.116,0.521
			c-0.703,0.339-1.433,0.683-2.187,0.917c-0.23,0.07-0.477,0.129-0.779,0.179H7.894c-0.002,0.005-0.011,0.005-0.02,0.005
			l-0.02,0.002c-0.118,0.022-0.311,0.084-0.349,0.263c-0.04,0.176-0.018,0.293,0.224,0.479c0.552,0.312,1.224,0.464,2.048,0.464
			c0.171,0,0.345-0.006,0.534-0.017c0.248-0.016,0.498-0.047,0.762-0.08c0.381-0.05,0.768-0.099,1.143-0.099
			c0.258,0,0.483,0.022,0.688,0.068c0.612,0.143,0.98,0.75,1.298,1.288c0.082,0.138,0.157,0.261,0.235,0.378l0.005,0.009
			c0.149,0.224,0.396,0.601,0.382,0.882c-0.016,0.271-0.394,0.498-0.665,0.662c-0.071,0.047-0.144,0.088-0.194,0.126
			c-0.088,0.058-0.19,0.124-0.299,0.194c-0.615,0.39-1.454,0.928-1.357,1.648c0.044,0.354,0.341,0.64,0.701,0.684
			c0.031,0.004,0.065,0.004,0.099,0.004c0.258,0,0.487-0.116,0.71-0.232c0.094-0.047,0.19-0.097,0.281-0.136
			c0.295-0.117,0.591-0.178,0.883-0.178c0.494,0,0.972,0.166,1.415,0.498c0.146,0.11,0.273,0.242,0.402,0.369
			c0.136,0.137,0.276,0.281,0.438,0.396c0.129,0.093,0.369,0.188,0.571,0.188c0.199,0,0.335-0.099,0.371-0.279
			c0.073-0.357,0.073-0.731,0.073-1.095c-0.007-0.288-0.007-0.589,0.028-0.874c0.021-0.175,0.069-0.53,0.297-0.641
			c0.075-0.034,0.16-0.052,0.264-0.052c0.116,0,0.238,0.021,0.354,0.036c0.161,0.029,0.334,0.054,0.47,0.036
			c0.649-0.091,1.191-0.623,1.449-1.425c0.123-0.269,0.264-0.39,0.542-0.454c0.326-0.081,0.531-0.345,0.728-0.606
			c0.049-0.065,0.099-0.128,0.149-0.188c0.406-0.487,0.905-0.702,1.607-0.702c0.129,0,0.267,0.006,0.422,0.021
			c0.144,0.015,0.288,0.03,0.434,0.048c0.374,0.044,0.732,0.086,1.095,0.086c0.393,0,0.745-0.053,1.07-0.158
			c0.844-0.281,1.584-0.829,2.265-1.378l0.1-0.081c0.19-0.158,0.234-0.26,0.185-0.442C29.659,10.635,29.419,10.591,29.328,10.583
			 M14.794,13.09c-0.163-0.279-0.337-0.564-0.548-0.815c-0.492-0.599-1.143-0.86-2.116-0.86c-0.407,0-0.834,0.043-1.25,0.088
			c-0.41,0.044-0.835,0.086-1.234,0.086c-0.211,0-0.4-0.013-0.578-0.033c0.703-0.236,1.38-0.556,2.028-0.871
			c0.701-0.339,1.426-0.688,2.183-0.92c0.467-0.143,0.957-0.219,1.451-0.219c0.905,0,1.743,0.239,2.424,0.689
			c0.567,0.375,0.734,0.771,0.541,1.329c-0.202,0.589-0.557,1.173-1.05,1.731c-0.032,0.035-0.066,0.076-0.108,0.126
			c-0.216,0.255-0.573,0.683-0.876,0.683c-0.093,0-0.175-0.042-0.245-0.118C15.169,13.715,14.979,13.397,14.794,13.09
			 M20.495,13.917c-0.067,0.492-0.261,0.914-0.562,1.188c-0.268,0.246-0.56,0.294-0.949,0.294c-0.062,0-0.132-0.004-0.195-0.004
			c-0.07,0-0.14,0-0.218,0c-0.246,0-0.454,0.082-0.615,0.243c-0.467,0.476-0.457,1.513-0.45,2.201v0.221l-0.048-0.042
			c-0.592-0.546-1.146-1.068-1.98-1.195c-0.129-0.023-0.265-0.032-0.402-0.032c-0.25,0-0.518,0.034-0.791,0.101
			c-0.237,0.059-0.438,0.147-0.65,0.247c-0.086,0.036-0.167,0.071-0.251,0.108c-0.101,0.044-0.235,0.082-0.315,0.082
			c-0.022,0-0.043,0-0.053-0.009c-0.003-0.011-0.003-0.028,0.003-0.049c0.082-0.281,0.384-0.48,0.626-0.646l0.065-0.042
			c0.622-0.419,1.202-0.837,1.775-1.283c1.051-0.817,2.206-1.834,2.777-3.221c0.328-0.777,0.466-1.67,0.411-2.582l-0.004-0.053
			c-0.029-0.378-0.048-0.769-0.205-1.111c-0.122-0.286-0.349-0.42-0.58-0.559c-0.046-0.026-0.088-0.05-0.129-0.074
			c0.109-0.209,0.419-0.752,0.773-0.752c0.138,0,0.268,0.083,0.393,0.252c0.417,0.572,0.606,1.255,0.776,1.86
			c0.027,0.105,0.059,0.22,0.092,0.339C20.124,10.569,20.678,12.529,20.495,13.917 M27.674,11.7
			c-0.573,0.323-1.083,0.479-1.569,0.479h-0.047c-0.316-0.009-0.634-0.049-0.944-0.092c-0.27-0.033-0.545-0.07-0.817-0.084
			c-0.67-0.028-1.189,0.076-1.606,0.325c-0.291,0.176-0.493,0.422-0.69,0.668c-0.139,0.17-0.29,0.349-0.466,0.499
			c-0.053,0.04-0.123,0.091-0.188,0.091h-0.005c-0.075-0.002-0.082-0.051-0.075-0.165c0-0.029,0.002-0.053,0-0.073
			c-0.013-0.252-0.053-0.503-0.083-0.744l-0.021-0.139c-0.059-0.424-0.123-0.872-0.226-1.314c-0.018-0.075-0.047-0.164-0.078-0.264
			c-0.12-0.386-0.27-0.872,0.029-1.116c0.185-0.149,0.493-0.178,0.699-0.199c0,0,0.237-0.019,0.492-0.021h0.094
			c0.284,0,0.574,0.017,0.861,0.053c0.533,0.073,1.093,0.214,1.77,0.438c0.363,0.119,0.727,0.257,1.083,0.388
			c0.817,0.305,1.665,0.622,2.549,0.771C28.156,11.405,27.912,11.567,27.674,11.7"/>
		<path fill="#FFFFFF" d="M36.787,18.229c-0.242-1.558-0.63-3.094-1.151-4.579c-0.503-1.422-1.136-2.802-1.894-4.108
			c-0.59-1.013-1.255-1.98-2-2.891c-0.949-1.162-2.027-2.221-3.212-3.139c-1.154-0.894-2.418-1.648-3.757-2.224
			c-1.338-0.573-2.753-0.966-4.195-1.156c-1.464-0.191-2.965-0.175-4.425,0.052c-1.436,0.229-2.835,0.657-4.157,1.264
			c-1.33,0.61-2.58,1.394-3.718,2.313C7.114,4.699,6.064,5.78,5.141,6.952c-0.912,1.151-1.702,2.396-2.37,3.709
			c-0.694,1.359-1.258,2.784-1.692,4.25c-0.451,1.53-0.763,3.102-0.93,4.688c-0.169,1.65-0.196,3.315-0.072,4.968
			c0.122,1.603,0.379,3.196,0.79,4.749c0.389,1.488,0.911,2.946,1.567,4.338c0.633,1.336,1.384,2.617,2.259,3.806
			c0.982,1.34,3.483,3.704,3.497,3.704C11.138,43.577,14.71,45,18.562,45h0.004c1.466,0,2.934-0.206,4.34-0.619
			c1.4-0.406,2.733-1.007,3.975-1.762c1.265-0.766,2.428-1.692,3.476-2.738c1.045-1.043,1.977-2.202,2.782-3.445
			c0.817-1.25,1.507-2.584,2.072-3.969c0.589-1.441,1.037-2.939,1.354-4.469c0.332-1.591,0.512-3.217,0.554-4.846
			C37.153,21.504,37.048,19.853,36.787,18.229 M3.928,28.979H3.454l0.425-1.607c0.041-0.117,0.065-0.112,0.079-0.064
			C3.946,27.89,3.937,28.45,3.928,28.979 M4.16,24.6L3.21,24.162c-0.056-0.023-0.048-0.044,0.006-0.044h2.042
			c0.059,0,0.062,0.021,0.009,0.044L4.353,24.6C4.3,24.624,4.212,24.624,4.16,24.6 M2.968,23.701l1.062-0.756
			c-0.007,0.248-0.01,0.502-0.011,0.756H2.968z M3.325,21.152h1.816c0.05,0,0.056,0.018,0.007,0.038l-0.812,0.384
			c-0.05,0.022-0.127,0.022-0.177,0.005l-0.847-0.394C3.267,21.166,3.271,21.152,3.325,21.152 M3.096,20.776l0.976-0.643
			c0,0.201-0.005,0.42-0.012,0.643H3.096z M4.418,20.147l0.967,0.629H4.427C4.423,20.565,4.42,20.354,4.418,20.147 M4.46,22.949
			l1.073,0.752h-1.06C4.467,23.448,4.462,23.193,4.46,22.949 M4.561,28.979c-0.009-0.529-0.019-1.09-0.029-1.668
			c0.005-0.038,0.038-0.069,0.07,0.045l0.427,1.623H4.561z M18.562,43.374c-2.83,0-5.499-0.85-7.854-2.377
			c1.824-0.013,3.636,0.231,5.436,0.499c1.807,0.266,3.614,0.569,5.434,0.752c0.697,0.072,1.4,0.123,2.104,0.155
			C22.062,43.036,20.342,43.374,18.562,43.374 M26.861,40.698c-1.793,0.188-3.604,0.105-5.395-0.09
			c-1.789-0.193-3.564-0.499-5.343-0.754c-1.839-0.269-3.68-0.498-5.535-0.483c-0.635,0.009-1.261,0.039-1.885,0.101
			c-0.589-0.522-1.151-1.09-1.684-1.7c1.859-0.272,3.751-0.264,5.625-0.134c1.881,0.141,3.746,0.415,5.612,0.69
			c0.936,0.141,1.872,0.281,2.808,0.401c0.466,0.065,2.32,0.205,2.777,0.205c1.868,0,3.749-0.14,5.6-0.442
			C28.638,39.323,27.775,40.06,26.861,40.698 M31.121,36.497c-1.796,0.436-3.636,0.668-5.481,0.763
			c-0.92,0.046-1.846,0.072-2.769,0.026c-0.932-0.042-1.857-0.193-2.78-0.328c-1.856-0.265-3.713-0.562-5.581-0.777
			c-1.86-0.202-3.732-0.316-5.607-0.222c-1.013,0.055-2.032,0.164-3.034,0.358c-0.34-0.476-0.666-0.972-0.973-1.49
			c1.65-0.34,3.322-0.561,5.007-0.62c1.707-0.062,3.41,0.055,5.103,0.276c1.634,0.212,3.256,0.515,4.891,0.735
			c1.496,0.201,2.999,0.333,4.505,0.333h0.01c1.564,0,3.133-0.14,4.68-0.388c1.125-0.185,2.249-0.419,3.352-0.704
			C32.035,35.173,31.594,35.854,31.121,36.497 M6.205,30.76C5.42,30.241,5.312,29.4,5.359,29.237l2.418-5.701
			c0.056-0.103,0.077-0.07,0.062,0L6.205,30.76z M7.807,25.38c-0.038,2.554-0.071,4.933-0.082,6.072
			c-0.444-0.128-0.879-0.265-1.256-0.533l1.282-5.657C7.783,25.211,7.802,25.293,7.807,25.38 M7.163,20.377h1.819
			c0.049,0,0.056,0.021,0.009,0.042l-0.814,0.39c-0.047,0.023-0.126,0.023-0.17,0l-0.849-0.39
			C7.107,20.398,7.113,20.377,7.163,20.377 M6.938,20.011l0.958-0.634c-0.002,0.206-0.005,0.417-0.007,0.634H6.938z M8.277,19.389
			l0.948,0.622H8.287C8.283,19.796,8.281,19.588,8.277,19.389 M10.221,27.758c-0.032,1.225-0.062,2.446-0.081,3.392
			c-0.007,0.007-0.018,0.013-0.03,0.019l-0.812-3.526l0.434-1.028L10.221,27.758z M9.896,26.223l0.324-0.763
			c0.034-0.046,0.052-0.034,0.061,0.006c-0.011,0.492-0.026,1.019-0.039,1.561L9.896,26.223z M9.092,28.121l0.782,3.208
			c-0.272,0.114-0.613,0.178-0.91,0.217c-0.107,0.015-0.215,0.021-0.32,0.029C8.58,31.58,8.51,31.59,8.448,31.584
			c-0.003-0.432-0.014-1.083-0.021-1.881L9.092,28.121z M8.418,28.946c-0.018-1.062-0.034-2.302-0.054-3.587
			c0.01-0.104,0.035-0.18,0.088-0.023l0.523,2.279L8.418,28.946z M9.182,27.137l-0.833-3.595c-0.006-0.07,0.009-0.108,0.064-0.006
			l1.152,2.687L9.182,27.137z M10.769,28.256v-0.521c-0.022-0.937-0.047-1.371-0.068-2.238c0.007-0.062,0.028-0.099,0.07-0.03
			l1.445,3.606c-0.237,0.467-0.278,0.633-0.644,1.017L10.769,28.256z M11.337,30.322c-0.143,0.163-0.336,0.323-0.501,0.456
			c-0.015-0.49-0.032-1.129-0.046-1.701L11.337,30.322z M12.805,28.942l1.652-3.545c-0.032,1.013-0.062,2.475-0.094,3.545H13.69
			C13.44,28.942,13.05,28.958,12.805,28.942 M24.626,24.397h2.385c0.063,0,0.073,0.021,0.031,0.044
			c-0.008,0.007-1.088,0.516-1.088,0.516c-0.07,0.039-0.167,0.032-0.223,0.003l-1.119-0.51
			C24.55,24.418,24.556,24.397,24.626,24.397 M24.352,23.923l1.25-0.892c-0.006,0.262-0.012,0.859-0.012,0.892H24.352z
			 M24.802,20.405c0,0,0.026-0.007,0.041-0.007h1.997c0.018,0,0.028,0.002,0.037,0.007h0.003h-0.003
			c0.013,0.008,0.005,0.02-0.03,0.035l-0.895,0.418c-0.048,0.026-0.134,0.026-0.188,0.004l-0.927-0.422
			C24.805,20.425,24.793,20.413,24.802,20.405 M24.589,19.979l1.065-0.765c-0.004,0.247-0.009,0.499-0.01,0.765H24.589z
			 M26.026,19.229l1.074,0.75H26.04C26.035,19.724,26.029,19.471,26.026,19.229 M26.079,23.031l1.244,0.892h-1.229
			C26.09,23.631,26.085,23.323,26.079,23.031 M29.691,22.073h2.042c0.055,0,0.062,0.019,0.009,0.043l-0.919,0.436
			c-0.053,0.026-0.135,0.026-0.186,0l-0.954-0.436C29.63,22.092,29.632,22.073,29.691,22.073 M29.437,21.656l1.069-0.759
			c-0.006,0.255-0.009,0.501-0.012,0.759H29.437z M30.924,20.897l1.084,0.759h-1.072C30.937,21.401,30.931,21.152,30.924,20.897
			 M30.456,25.285c-0.035,2.473-0.077,5.128-0.103,6.997c-0.6,0.203-1.122,0.26-1.58,0.216l1.015-4.529l0.598-2.666
			C30.414,25.237,30.444,25.201,30.456,25.285 M30.315,24.227l-1.77,7.854l-0.765-2.109l0.005-0.016l2.42-5.809
			C30.273,24.028,30.344,23.951,30.315,24.227 M28.358,32.434c-0.554-0.121-0.993-0.391-1.333-0.688l0.579-1.375L28.358,32.434z
			 M26.806,31.531c-0.343-0.363-0.538-0.725-0.615-0.875c-0.015-1.188-0.041-2.966-0.07-4.865l1.343,4.146L26.806,31.531z
			 M23.886,30.573h-2.922l4.353-4.914L23.886,30.573z M25.553,25.786c-0.017,1.109-0.054,4.648-0.054,4.787h-1.304L25.553,25.786z
			 M30.983,25.283c-0.003-0.08,0.035-0.055,0.067,0.02l1.218,5.269c-0.265,0.621-0.805,1.078-1.196,1.344
			C31.062,30.955,30.988,25.306,30.983,25.283 M32.583,30.543l-1.494-6.256c-0.044-0.38,0.053-0.245,0.125-0.104l2.728,6.36H32.583z
			 M35.013,27.492c-0.2,0.998-0.461,1.979-0.781,2.942l-3.269-7.751l1.436-0.642c0.15-0.07,0.15-0.285,0.004-0.362
			c0,0-1.408-0.998-1.485-1.057l-0.035-2.377c0.176-0.021,0.341-0.099,0.513-0.126c0.19-0.031,0.369,0.003,0.556,0.035
			c0.17,0.029,0.34,0.044,0.505-0.004c0.16-0.046,0.301-0.133,0.426-0.235c-0.372-0.01-0.675-0.247-1.004-0.394
			c-0.165-0.08-0.343-0.12-0.525-0.143c-0.178-0.018-0.391-0.03-0.562,0.022c-0.016-0.139-0.035-0.281-0.062-0.438h-0.073
			c-0.112,0.653-0.105,1.364-0.114,2.022c-0.006,0.461-0.009,0.927-0.018,1.387c0,0.086,0,0.168-0.003,0.25l-1.477,1.055
			c-0.144,0.076-0.149,0.288,0,0.364l0,0l1.393,0.642l-2.814,6.844l-1.45-4.402l1.606-0.752c0.166-0.086,0.171-0.333,0.006-0.422
			c0,0-1.512-1.061-1.709-1.203c-0.012-0.556-0.021-1.158-0.024-1.682l1.465-0.693l0,0c0.143-0.068,0.154-0.286,0.006-0.362
			c0,0-1.31-0.936-1.503-1.07c-0.015-1.081-0.026-2.159-0.039-3.232c0.081,0,0.165-0.031,0.245-0.054
			c0.095-0.028,0.188-0.057,0.281-0.07c0.188-0.036,0.368-0.006,0.555,0.025c0.176,0.031,0.359,0.053,0.534,0
			c0.161-0.049,0.299-0.132,0.426-0.237c-0.374-0.005-0.677-0.244-1.002-0.391c-0.167-0.08-0.346-0.119-0.529-0.141
			c-0.178-0.022-0.387-0.032-0.558,0.021c-0.016-0.144-0.033-0.288-0.062-0.442h-0.072v0.003c-0.101,0.598-0.108,1.199-0.114,1.802
			c-0.004,0.549-0.007,1.096-0.016,1.646c-0.006,0.358-0.009,0.715-0.017,1.07l-1.49,1.064c-0.149,0.076-0.149,0.293,0,0.368
			l1.459,0.688h0.003c-0.004,0.523-0.012,1.141-0.021,1.687l-1.708,1.199c-0.171,0.087-0.171,0.334,0,0.426l1.573,0.748
			l-4.913,5.452c-0.093,0-0.706,0.006-0.794,0.118c-0.129,0.101-0.133,0.258-0.079,0.392c0.075,0.175,0.227,0.299,0.387,0.393
			c0.082,0.052,0.174,0.091,0.264,0.126c0.008,0.008,0.021,0.02,0.029,0.024c0,0,0.441,1.474,2.335,2.159H22.7
			c0,0,0.048,0.016,0.035,0.058c0,0.009-0.007,0.012-0.013,0.018c-0.012,0.005-0.029,0.011-0.048,0.013
			c-1.807-0.112-3.586-0.411-5.375-0.689c-0.682-0.111-1.363-0.214-2.048-0.303c-0.462-0.059-0.923-0.114-1.383-0.198
			c-0.046-0.012-0.07-0.028-0.076-0.049v-0.002c-0.004,0-0.004-0.006-0.004-0.006v-0.012c0-0.006,0.004-0.006,0.004-0.006
			c0-0.009,0.013-0.022,0.021-0.031s0.014-0.01,0.014-0.01c2.514-0.751,3.043-2.583,3.043-2.583
			c0.033-0.016,0.065-0.035,0.095-0.048c0.068-0.032,0.138-0.064,0.199-0.103c0.161-0.092,0.315-0.215,0.385-0.395
			c0.057-0.136,0.048-0.286-0.078-0.39c-0.093-0.123-0.805-0.12-0.805-0.12l-0.004,0.007H16.54
			c-0.004-0.394-0.015-1.408-0.036-2.066c0.074,0.032,0.162,0.003,0.232-0.015c0.097-0.026,0.188-0.058,0.281-0.079
			c0.195-0.044,0.384-0.033,0.58,0c0.187,0.033,0.375,0.067,0.562,0.018c0.167-0.04,0.32-0.132,0.448-0.24
			c-0.378-0.011-0.686-0.261-1.022-0.405c-0.177-0.076-0.366-0.119-0.556-0.137c-0.18-0.015-0.402-0.031-0.566,0.047
			c-0.013-0.153-0.026-0.293-0.044-0.39h-0.07c-0.097,0.561-0.1,2.511-0.105,3.268l-1.26,0.004
			c-0.039-1.378-0.101-3.215-0.132-4.389l1.093-2.344c0.149,0.066,0.325,0.076,0.477,0.133c0.17,0.059,0.311,0.159,0.448,0.279
			c0.134,0.106,0.266,0.215,0.429,0.266c0.18,0.06,0.369,0.05,0.546,0.021c-0.309-0.188-0.458-0.532-0.659-0.815
			c-0.105-0.148-0.235-0.271-0.379-0.382c-0.152-0.113-0.329-0.23-0.514-0.276c0.043-0.125,0.098-0.298,0.104-0.38
			c-0.007-0.015,0-0.037-0.033-0.058c-0.006,0-0.011-0.003-0.019-0.003c-0.049,0.003-0.064,0.038-0.096,0.078
			c-0.098,0.119-0.229,0.352-0.248,0.394l-1.167,2.501c-0.011-0.394-0.021-0.789-0.026-1.184c0-0.498-0.023-0.99-0.106-1.481h-0.07
			c-0.104,0.598-0.106,1.196-0.113,1.802c-0.006,0.54-0.023,1.082-0.039,1.627l-2.009,4.161l-1.799-4.414
			c-0.015-0.543-0.029-1.089-0.035-1.636c-0.012-0.62-0.012-1.238-0.114-1.854h-0.066c-0.107,0.603-0.107,1.215-0.116,1.821
			c-0.007,0.557-0.022,1.111-0.033,1.665l-0.578,1.362L8.325,22.56c-0.009-0.548-0.016-1.082-0.026-1.603l1.28-0.603
			c0.132-0.064,0.132-0.255,0.003-0.325c0,0-1.084-0.777-1.31-0.938c-0.017-1.129-0.026-2.254-0.043-3.383
			c0.085,0,0.164-0.031,0.243-0.054c0.091-0.028,0.184-0.057,0.281-0.07c0.191-0.036,0.368-0.006,0.553,0.025
			c0.18,0.031,0.359,0.053,0.535,0c0.158-0.049,0.299-0.132,0.427-0.237c-0.363-0.005-0.666-0.231-0.979-0.381
			c-0.167-0.08-0.344-0.128-0.526-0.15c-0.182-0.022-0.397-0.036-0.58,0.021c-0.015-0.152-0.035-0.302-0.062-0.448H8.05
			c-0.12,0.725-0.107,1.451-0.114,2.18c-0.006,0.703-0.02,1.403-0.032,2.106c0,0.135,0,0.264-0.005,0.391l-1.307,0.937
			c-0.132,0.066-0.133,0.257,0,0.327l1.281,0.603C7.865,21.542,7.85,22.495,7.85,22.56l-2.609,6.124L4.86,27.278h0.337v-0.005h0.167
			c0.074,0,0.153-0.026,0.22-0.049c0.05-0.016,0.164-0.054,0.164-0.124c0-0.064-0.103-0.104-0.149-0.122
			c-0.07-0.024-0.152-0.053-0.234-0.053H4.77l-0.258-0.97c-0.005-0.396-0.012-0.798-0.021-1.191l1.439-0.673
			c0.146-0.076,0.149-0.287,0.009-0.363c0,0-1.383-0.98-1.483-1.045c-0.002-0.285-0.009-0.688-0.015-0.945l1.298-0.614
			c0.129-0.063,0.135-0.253,0.004-0.323c0,0-1.153-0.822-1.332-0.953c-0.015-0.941-0.02-1.574-0.026-1.645
			c0.152,0.015,0.314-0.071,0.455-0.099c0.167-0.03,0.325-0.016,0.488,0.01c0.156,0.033,0.314,0.053,0.473,0.018
			c0.149-0.041,0.284-0.119,0.403-0.216c-0.33-0.01-0.602-0.217-0.891-0.35c-0.147-0.068-0.309-0.11-0.473-0.124
			c-0.158-0.014-0.349-0.031-0.501,0.03c-0.015-0.129-0.033-0.252-0.062-0.393H4.209c-0.103,0.517-0.105,1.04-0.111,1.564
			c-0.005,0.446-0.012,0.756-0.022,1.203L2.75,20.797c-0.136,0.069-0.136,0.264,0,0.325l1.295,0.616
			c-0.003,0.265-0.005,0.661-0.012,0.945l-1.456,1.041c-0.15,0.07-0.15,0.289-0.005,0.361l1.426,0.679
			c-0.006,0.394-0.015,0.789-0.023,1.18L3.72,26.926H3.12c-0.072,0-0.152,0.024-0.217,0.047c-0.049,0.02-0.167,0.062-0.167,0.128
			c0,0.064,0.103,0.103,0.151,0.119c0.075,0.027,0.157,0.054,0.233,0.054h0.167c0,0,0,0.005,0.003,0.005h0.337l-0.448,1.701h-0.72
			c-0.439-1.641-0.702-3.328-0.795-5.021c-0.097-1.697-0.023-3.404,0.215-5.084c0.217-1.562,0.59-3.106,1.106-4.592
			c0.498-1.418,1.125-2.793,1.892-4.079c0.402-0.679,0.84-1.337,1.326-1.966c1.95,0.654,4.475,0.054,4.475,0.054
			c2.275-0.411,3.691-0.346,4.516-0.217l0.441,0.076c0.047-0.278,0.079-0.478,0.166-0.74c-2.382-0.754-5.062-0.388-5.062-0.388
			C9.116,7.169,8.132,6.84,7.623,6.559c0,0,1.023-1.091,1.86-1.691c0.732,0.53,1.657,0.79,2.525,0.942
			c0.573,0.104,1.156,0.15,1.725,0.278c0.575,0.131,1.151,0.304,1.709,0.498c0.196,0.067,0.46,0.195,0.576,0.25
			c0.105-0.232,0.253-0.444,0.399-0.654l-0.369-0.232c-0.735-0.421-1.426-0.639-2.201-0.871c-0.521-0.159-1.02-0.338-1.505-0.587
			c-0.659-0.341-1.067-0.783-1.104-0.814c0,0,1.13-0.693,2.195-1.087c0.492,0.697,1.408,1.09,2.032,1.626
			c0.884,0.75,1.354,1.455,1.394,1.533c0.208-0.157,0.401-0.271,0.668-0.371c-0.352-0.773-0.855-1.661-1.462-2.224
			c-0.272-0.255-0.683-0.697-0.8-1.143c0,0,1.418-0.359,2.509-0.372l0.404,3.584c0.154-0.029,0.382-0.026,0.382-0.026
			s0.145-0.003,0.385,0.026l0.404-3.584c0,0,0.963,0.045,1.749,0.203c0.431,0.085,0.762,0.169,0.762,0.169
			c-0.125,0.441-0.523,0.892-0.795,1.143c-0.615,0.575-1.092,1.448-1.446,2.23c0.205,0.093,0.444,0.184,0.662,0.364
			c0.411-0.612,0.919-1.135,1.385-1.533c0.612-0.531,1.529-0.945,2.024-1.626c0.125,0.048,0.677,0.259,1.553,0.709l0.659,0.375
			c-0.022,0.019-0.751,0.613-1.114,0.817c-0.471,0.27-0.981,0.428-1.497,0.587c-0.778,0.232-1.471,0.45-2.206,0.871l-0.374,0.229
			c0.146,0.182,0.286,0.401,0.408,0.656c0.129-0.065,0.384-0.185,0.572-0.249c0.562-0.194,1.131-0.367,1.714-0.498
			c0.565-0.128,1.148-0.174,1.718-0.278c0.861-0.147,1.791-0.425,2.522-0.942c0.921,0.715,1.859,1.691,1.859,1.691
			c-0.513,0.281-1.503,0.608-3.116,0.464c0,0-2.676-0.369-5.052,0.378c0.073,0.223,0.101,0.379,0.156,0.725l0.47-0.074
			c0.841-0.121,2.222-0.171,4.492,0.24c0,0,2.514,0.599,4.467-0.052c0.193,0.251,0.381,0.51,0.56,0.773
			c0.839,1.215,1.542,2.521,2.116,3.876c0.605,1.432,1.061,2.921,1.379,4.44c0.328,1.604,0.501,3.236,0.52,4.873
			C35.519,23.974,35.357,25.748,35.013,27.492"/>
	</g>
</g>
</svg>
