<?xml version="1.0" encoding="utf-8"?>
<!-- Generator: Adobe Illustrator 17.1.0, SVG Export Plug-In . SVG Version: 6.00 Build 0)  -->
<!DOCTYPE svg PUBLIC "-//W3C//DTD SVG 1.1//EN" "http://www.w3.org/Graphics/SVG/1.1/DTD/svg11.dtd">
<svg version="1.1" xmlns="http://www.w3.org/2000/svg" xmlns:xlink="http://www.w3.org/1999/xlink" x="0px" y="0px"
	 viewBox="0 90 612 612" enable-background="new 0 90 612 612" xml:space="preserve">
<g id="solid" inkscape:version="0.48.1 r9760" sodipodi:docname="twitter_bootstrap_logo.svg" xmlns:dc="http://purl.org/dc/elements/1.1/" xmlns:cc="http://creativecommons.org/ns#" xmlns:inkscape="http://www.inkscape.org/namespaces/inkscape" xmlns:sodipodi="http://sodipodi.sourceforge.net/DTD/sodipodi-0.dtd" xmlns:svg="http://www.w3.org/2000/svg" xmlns:rdf="http://www.w3.org/1999/02/22-rdf-syntax-ns#" display="none">
	<path id="bg" display="inline" fill="#563D7C" d="M612,600c0,56.1-45.9,102-102,102H102C45.9,702,0,656.1,0,600V192
		C0,135.9,45.9,90,102,90h408c56.1,0,102,45.9,102,102V600z"/>
	<g id="B" display="inline" enable-background="new    ">
		<path fill="#FFFFFF" d="M166.3,223h173.5c32,0,57.7,7.3,77,22c19.3,14.7,29,36.8,29,66.5c0,18-4.4,33.4-13.2,46.2
			c-8.8,12.8-21.4,22.8-37.8,29.8v1c22,4.7,38.7,15.1,50,31.2c11.3,16.2,17,36.4,17,60.8c0,14-2.5,27.1-7.5,39.2
			c-5,12.2-12.8,22.7-23.5,31.5c-10.7,8.8-24.3,15.8-41,21c-16.7,5.2-36.5,7.8-59.5,7.8h-164V223z M228.8,372.5h102
			c15,0,27.5-4.2,37.5-12.8s15-20.8,15-36.8c0-18-4.5-30.7-13.5-38c-9-7.3-22-11-39-11h-102V372.5z M228.8,529h110.5
			c19,0,33.8-4.9,44.2-14.8c10.5-9.8,15.8-23.8,15.8-41.8c0-17.7-5.2-31.2-15.8-40.8s-25.2-14.2-44.2-14.2H228.8V529z"/>
	</g>
</g>
<g id="outline" inkscape:version="0.48.1 r9760" sodipodi:docname="twitter_bootstrap_logo.svg" xmlns:dc="http://purl.org/dc/elements/1.1/" xmlns:cc="http://creativecommons.org/ns#" xmlns:inkscape="http://www.inkscape.org/namespaces/inkscape" xmlns:sodipodi="http://sodipodi.sourceforge.net/DTD/sodipodi-0.dtd" xmlns:svg="http://www.w3.org/2000/svg" xmlns:rdf="http://www.w3.org/1999/02/22-rdf-syntax-ns#">
	<g id="bg_1_">
		<path fill="#FFFFFF" d="M510,96c25.5,0,49.6,10,67.8,28.2S606,166.5,606,192v408c0,25.5-10,49.6-28.2,67.8S535.5,696,510,696H102
			c-25.5,0-49.6-10-67.8-28.2S6,625.5,6,600V192c0-25.5,10-49.6,28.2-67.8S76.5,96,102,96H510 M510,90H102C45.9,90,0,135.9,0,192
			v408c0,56.1,45.9,102,102,102h408c56.1,0,102-45.9,102-102V192C612,135.9,566.1,90,510,90L510,90z"/>
	</g>
	<g id="B_2_" enable-background="new    ">
		<path fill="#FFFFFF" d="M166.3,223h173.5c32,0,57.7,7.3,77,22c19.3,14.7,29,36.8,29,66.5c0,18-4.4,33.4-13.2,46.2
			c-8.8,12.8-21.4,22.8-37.8,29.8v1c22,4.7,38.7,15.1,50,31.2c11.3,16.2,17,36.4,17,60.8c0,14-2.5,27.1-7.5,39.2
			c-5,12.2-12.8,22.7-23.5,31.5c-10.7,8.8-24.3,15.8-41,21c-16.7,5.2-36.5,7.8-59.5,7.8h-164V223z M228.8,372.5h102
			c15,0,27.5-4.2,37.5-12.8s15-20.8,15-36.8c0-18-4.5-30.7-13.5-38c-9-7.3-22-11-39-11h-102V372.5z M228.8,529h110.5
			c19,0,33.8-4.9,44.2-14.8c10.5-9.8,15.8-23.8,15.8-41.8c0-17.7-5.2-31.2-15.8-40.8s-25.2-14.2-44.2-14.2H228.8V529z"/>
	</g>
</g>
<g id="punchout" inkscape:version="0.48.1 r9760" sodipodi:docname="twitter_bootstrap_logo.svg" xmlns:dc="http://purl.org/dc/elements/1.1/" xmlns:cc="http://creativecommons.org/ns#" xmlns:inkscape="http://www.inkscape.org/namespaces/inkscape" xmlns:sodipodi="http://sodipodi.sourceforge.net/DTD/sodipodi-0.dtd" xmlns:svg="http://www.w3.org/2000/svg" xmlns:rdf="http://www.w3.org/1999/02/22-rdf-syntax-ns#" display="none">
	<g display="inline">
		<path fill="#FFFFFF" d="M373.5,431.8c-10.5-9.5-25.2-14.2-44.2-14.2H218.8V529h110.5c19,0,33.8-4.9,44.2-14.8
			c10.5-9.8,15.8-23.8,15.8-41.8C389.2,454.8,384,441.2,373.5,431.8z"/>
		<path fill="#FFFFFF" d="M358.2,359.8c10-8.5,15-20.8,15-36.8c0-18-4.5-30.7-13.5-38c-9-7.3-22-11-39-11h-102v98.5h102
			C335.7,372.5,348.2,368.2,358.2,359.8z"/>
		<path fill="#FFFFFF" d="M510,90H102C45.9,90,0,135.9,0,192v408c0,56.1,45.9,102,102,102h408c56.1,0,102-45.9,102-102V192
			C612,135.9,566.1,90,510,90z M454.2,519.8c-5,12.2-12.8,22.7-23.5,31.5c-10.7,8.8-24.3,15.8-41,21c-16.7,5.2-36.5,7.8-59.5,7.8
			h-164V223h173.5c32,0,57.7,7.3,77,22c19.3,14.7,29,36.8,29,66.5c0,18-4.4,33.4-13.2,46.2c-8.8,12.8-21.4,22.8-37.8,29.8v1
			c22,4.7,38.7,15.1,50,31.2c11.3,16.2,17,36.4,17,60.8C461.7,494.5,459.2,507.6,454.2,519.8z"/>
	</g>
</g>
</svg>
