<?xml version="1.0" encoding="utf-8"?>
<!-- Generator: Adobe Illustrator 17.1.0, SVG Export Plug-In . SVG Version: 6.00 Build 0)  -->
<!DOCTYPE svg PUBLIC "-//W3C//DTD SVG 1.1//EN" "http://www.w3.org/Graphics/SVG/1.1/DTD/svg11.dtd">
<svg version="1.1" id="Layer_1" xmlns="http://www.w3.org/2000/svg" xmlns:xlink="http://www.w3.org/1999/xlink" x="0px" y="0px"
	 viewBox="0 0 612 612" enable-background="new 0 0 612 612" xml:space="preserve">
<g id="solid" sodipodi:docname="twitter_bootstrap_logo.svg" inkscape:version="0.48.1 r9760" xmlns:svg="http://www.w3.org/2000/svg" xmlns:sodipodi="http://sodipodi.sourceforge.net/DTD/sodipodi-0.dtd" xmlns:rdf="http://www.w3.org/1999/02/22-rdf-syntax-ns#" xmlns:dc="http://purl.org/dc/elements/1.1/" xmlns:cc="http://creativecommons.org/ns#" xmlns:inkscape="http://www.inkscape.org/namespaces/inkscape">
	<path id="bg" fill="#563D7C" d="M612,510c0,56.1-45.9,102-102,102H102C45.9,612,0,566.1,0,510V102C0,45.9,45.9,0,102,0h408
		c56.1,0,102,45.9,102,102V510z"/>
	<g id="B" enable-background="new    ">
		<path fill="#FFFFFF" d="M166.3,133h173.5c32,0,57.7,7.3,77,22s29,36.8,29,66.5c0,18-4.4,33.4-13.2,46.2
			c-8.8,12.8-21.4,22.8-37.8,29.8v1c22,4.7,38.7,15.1,50,31.2c11.3,16.2,17,36.4,17,60.8c0,14-2.5,27.1-7.5,39.2
			c-5,12.2-12.8,22.7-23.5,31.5s-24.3,15.8-41,21s-36.5,7.8-59.5,7.8h-164L166.3,133L166.3,133z M228.8,282.5h102
			c15,0,27.5-4.2,37.5-12.8s15-20.8,15-36.8c0-18-4.5-30.7-13.5-38s-22-11-39-11h-102L228.8,282.5L228.8,282.5z M228.8,439h110.5
			c19,0,33.8-4.9,44.2-14.8c10.5-9.8,15.8-23.8,15.8-41.8c0-17.7-5.2-31.2-15.8-40.8s-25.2-14.2-44.2-14.2H228.8V439z"/>
	</g>
</g>
</svg>
