<?xml version="1.0" encoding="utf-8"?>
<!-- Generator: Adobe Illustrator 17.0.0, SVG Export Plug-In . SVG Version: 6.00 Build 0)  -->
<!DOCTYPE svg PUBLIC "-//W3C//DTD SVG 1.1//EN" "http://www.w3.org/Graphics/SVG/1.1/DTD/svg11.dtd">
<svg version="1.1" id="Layer_1" xmlns="http://www.w3.org/2000/svg" xmlns:xlink="http://www.w3.org/1999/xlink" x="0px" y="0px"
	 width="100px" height="100px" viewBox="0 0 100 100" enable-background="new 0 0 100 100" xml:space="preserve">
<g>
	<path d="M50.868,78.016l36.418-26.055c0.66-0.471,1.049-1.233,1.051-2.043c0-0.006,0-0.006,0-0.006
		c-0.002-0.815-0.396-1.575-1.059-2.048L50.86,21.977c-0.767-0.546-1.776-0.616-2.612-0.183c-0.835,0.426-1.361,1.292-1.361,2.236
		v12.183l-32.709-0.001c-1.39,0-2.515,1.125-2.515,2.516l0.001,22.541c-0.001,1.389,1.124,2.515,2.516,2.516l32.706,0v12.187
		c0,0.94,0.53,1.803,1.366,2.237C49.089,78.641,50.1,78.567,50.868,78.016z"/>
</g>
</svg>
