<svg class="bi bi-bootstrap-fill" xmlns="http://www.w3.org/2000/svg" width="20" height="20" viewBox="0 0 20 20"><path fill-rule="evenodd" d="M6.002 2h8a4 4 0 014 4v8a4 4 0 01-4 4h-8a4 4 0 01-4-4V6a4 4 0 014-4zm4.535 12c1.804 0 2.888-.908 2.888-2.396 0-1.102-.761-1.916-1.904-2.034v-.1c.832-.14 1.482-.93 1.482-1.816 0-1.3-.955-2.11-2.542-2.11H7.062V14h3.475zM8.375 6.658h1.78c.973 0 1.542.457 1.542 1.237 0 .802-.604 1.23-1.764 1.23H8.375V6.658zm0 6.229v-2.725h1.822c1.236 0 1.887.463 1.887 1.348 0 .896-.627 1.377-1.811 1.377H8.375z"/></svg>
