<svg class="bi bi-calendar" xmlns="http://www.w3.org/2000/svg" width="20" height="20" viewBox="0 0 20 20"><g transform="translate(2 2)" fill-rule="evenodd"><path d="M2 0h12a2 2 0 0 1 2 2v12a2 2 0 0 1-2 2H2a2 2 0 0 1-2-2V2a2 2 0 0 1 2-2zm0 3c-.552 0-1 .384-1 .857v10.286c0 .473.448.857 1 .857h12c.552 0 1-.384 1-.857V3.857C15 3.384 14.552 3 14 3H2z" fill-rule="nonzero"/><circle cx="6.5" cy="6" r="1"/><circle cx="9.5" cy="6" r="1"/><circle cx="12.5" cy="6" r="1"/><circle cx="3.5" cy="9" r="1"/><circle cx="6.5" cy="9" r="1"/><circle cx="9.5" cy="9" r="1"/><circle cx="12.5" cy="9" r="1"/><circle cx="3.5" cy="12" r="1"/><circle cx="6.5" cy="12" r="1"/><circle cx="9.5" cy="12" r="1"/></g></svg>
