<svg xmlns="http://www.w3.org/2000/svg" width="20" height="20" class="bi bi-gear" viewBox="0 0 20 20">
  <g fill="none" fill-rule="evenodd" stroke="currentColor" transform="translate(3 3)">
    <path stroke-linejoin="round" d="M11.34 9.486l1.317 1.757-1.414 1.414-1.757-1.318a4.97 4.97 0 0 1-1.175.487L8 14H6l-.31-2.174a4.97 4.97 0 0 1-1.176-.487l-1.757 1.318-1.414-1.414 1.318-1.757a4.97 4.97 0 0 1-.487-1.175L0 8V6l2.174-.31a4.97 4.97 0 0 1 .487-1.176L1.343 2.757l1.414-1.414 1.757 1.318a4.97 4.97 0 0 1 1.175-.487L6 0h2l.31 2.174c.416.112.81.277 1.176.487l1.757-1.318 1.414 1.414-1.318 1.757c.21.365.375.76.487 1.175L14 6v2l-2.174.31a4.97 4.97 0 0 1-.487 1.176h0z"/>
    <circle cx="7" cy="7" r="2"/>
  </g>
</svg>
