<svg xmlns="http://www.w3.org/2000/svg" width="20" height="20" class="bi bi-gear-fill" viewBox="0 0 20 20">
  <path fill-rule="evenodd" stroke="currentColor" stroke-linejoin="round" d="M14.34 12.486l1.317 1.757-1.414 1.414-1.757-1.318a4.97 4.97 0 0 1-1.175.487L11 17H9l-.31-2.174a4.97 4.97 0 0 1-1.176-.487l-1.757 1.318-1.414-1.414 1.318-1.757a4.97 4.97 0 0 1-.487-1.175L3 11V9l2.174-.31a4.97 4.97 0 0 1 .487-1.176L4.343 5.757l1.414-1.414 1.757 1.318a4.97 4.97 0 0 1 1.175-.487L9 3h2l.31 2.174c.416.112.81.277 1.176.487l1.757-1.318 1.414 1.414-1.318 1.757c.21.365.375.76.487 1.175L17 9v2l-2.174.31a4.97 4.97 0 0 1-.487 1.176h0zM10 13a3 3 0 1 0 0-6 3 3 0 0 0 0 6z"/>
</svg>
