<svg xmlns="http://www.w3.org/2000/svg" width="20" height="20" class="bi bi-list-numbered" viewBox="0 0 20 20">
  <g fill="none" fill-rule="evenodd">
    <path stroke="currentColor" stroke-linecap="round" d="M6.5 13.5h10m-10-4h10m-10-4h10"/>
    <path fill="currentColor" fill-rule="nonzero" d="M3.213 13.865v-.474H3.5c.217 0 .363-.137.363-.317 0-.185-.158-.31-.361-.31-.223 0-.367.152-.373.31h-.59c.016-.467.373-.787.986-.787.588-.002.954.291.957.703a.595.595 0 0 1-.492.594v.033a.615.615 0 0 1 .569.631c.003.533-.502.8-1.051.8-.656 0-1-.37-1.008-.794h.582c.008.178.186.307.422.308.254 0 .424-.144.422-.35-.002-.194-.155-.347-.414-.347h-.3zm-.004-4.699h-.604v-.035c0-.408.295-.844.958-.844.583 0 .96.326.96.756 0 .389-.257.617-.476.848l-.537.572v.03h1.054V11H2.643v-.395l.957-.99c.138-.142.293-.304.293-.508 0-.18-.147-.32-.342-.32a.33.33 0 0 0-.342.338v.041zM4.064 7h-.635V4.924h-.031l-.598.42v-.567l.629-.443h.635z"/>
  </g>
</svg>
