<svg class="bi bi-reboot" xmlns="http://www.w3.org/2000/svg" width="20" height="20" viewBox="0 0 20 20"><path fill-rule="evenodd" d="M3.447 5.412l-.663-.577a.58.58 0 01.227-.997l2.52-.69a.58.58 0 01.728.633l-.332 2.592a.58.58 0 01-.956.364l-.643-.56a6.84 6.84 0 105.675-3.018.58.58 0 110-1.159 8 8 0 11-6.556 3.412zm4.942 1.865V9.92h1.6c.882 0 1.386-.484 1.386-1.325 0-.82-.535-1.32-1.416-1.32h-1.57zm0 3.566v2.828H7.248V6.32h2.848c1.513 0 2.456.876 2.456 2.247 0 .993-.53 1.798-1.427 2.099l1.646 3.006h-1.315L9.96 10.843H8.39z"/></svg>
