<svg class="bi bi-wifi" xmlns="http://www.w3.org/2000/svg" width="20" height="20" viewBox="0 0 20 20"><g stroke="currentColor" fill="none" fill-rule="evenodd"><path d="M8.858 13.858A1.99 1.99 0 0 1 10 13.5c.425 0 .818.132 1.142.358L10 15l-1.142-1.142h0z" fill="currentColor" stroke-linejoin="round"/><path d="M7 12c.835-.628 1.874-1 3-1h0c1.126 0 2.165.372 3 1M4.865 9.865A7.968 7.968 0 0 1 10 8h0c1.955 0 3.745.7 5.135 1.865M2.738 7.738A10.958 10.958 0 0 1 10 5c2.783 0 5.325 1.034 7.262 2.738" stroke-linecap="round"/></g></svg>
