<?xml version="1.0" encoding="utf-8"?>
<!-- Generator: Adobe Illustrator 22.0.1, SVG Export Plug-In . SVG Version: 6.00 Build 0)  -->
<svg version="1.1" id="Layer_1" xmlns="http://www.w3.org/2000/svg" xmlns:xlink="http://www.w3.org/1999/xlink" x="0px" y="0px"
	 viewBox="0 0 1280 697" style="enable-background:new 0 0 1280 697;" xml:space="preserve">
<style type="text/css">
	.st0{fill:#FFFFFF;}
	.st1{fill:#2E4369;}
	.st2{fill:#4A5860;}
	.st3{fill:none;stroke:#ED1C24;stroke-miterlimit:10;}
	.st4{fill:#ED1C24;}
	.st5{fill:#F7931E;}
	.st6{fill:#666666;}
</style>
<g>
	<rect x="104.5" y="117.5" class="st0" width="1072" height="158"/>
	<path class="st1" d="M1176,118v157H105V118H1176 M1177,117H104v159h1073V117L1177,117z"/>
</g>
<g>
	<rect x="146.5" y="166.5" class="st0" width="589" height="67"/>
	<path class="st1" d="M735,167v66H147v-66H735 M736,166H146v68h590V166L736,166z"/>
</g>
<g>
	<path class="st1" d="M100.9,48.6h5.6c5.4,0,8.9,3.5,8.9,8.5c0,5-3.3,8.5-8.8,8.5h-5.7V48.6z M106.4,62.7c3.3,0,5.5-2.4,5.5-5.5
		c0-3.2-2.2-5.5-5.3-5.5h-2.4v11H106.4z"/>
	<path class="st1" d="M129,60.8h-8.2c0.4,1.4,1.5,2.3,3,2.3c1.2,0,2.2-0.5,2.8-1.3l2,1.9c-1,1.3-2.7,2.2-5.1,2.2c-3.4,0-6-2.4-6-6.1
		c0-3.6,2.5-6,5.8-6c3.4,0,5.7,2.5,5.7,5.9C129,60.1,129,60.6,129,60.8z M120.7,58.6h5.2c-0.3-1.2-1.2-2-2.5-2
		C122.1,56.5,121.1,57.2,120.7,58.6z"/>
	<path class="st1" d="M132,56.5h-1.2V54h1.2v-2c0-2.7,1.4-4.2,3.7-4.2c1.4,0,2.5,0.5,3,0.9l-0.6,2.4c-0.7-0.3-1.3-0.5-1.8-0.5
		c-0.7,0-1.2,0.4-1.2,1.6V54h2.6v2.6h-2.6v9.1H132V56.5z"/>
	<path class="st1" d="M149.4,58.7v7h-2.9l-0.1-1h0c-0.8,0.6-1.9,1.2-3.3,1.2c-2.6,0-3.9-1.6-3.9-3.7c0-2.4,1.5-3.8,4.7-3.8h2.4
		c-0.1-1.3-0.8-1.9-2-1.9c-1,0-2.3,0.3-3.3,0.8l-1.1-2.4c0.8-0.4,2.5-1.1,4.7-1.1C147.6,53.8,149.4,55.2,149.4,58.7z M146.3,61.8
		v-1.3l-2.1,0c-1.2,0-1.9,0.4-1.9,1.4c0,0.8,0.6,1.3,1.6,1.3C145.4,63.3,146.3,62.3,146.3,61.8z"/>
	<path class="st1" d="M163.1,54v11.7h-3.1v-1.4h0c-0.9,1.1-2.2,1.6-3.5,1.6c-2.5,0-4.3-1.3-4.3-4.8V54h3.1v6.2
		c0,2.2,0.6,2.9,2.1,2.9c1.4,0,2.6-1.2,2.6-3.4V54H163.1z"/>
	<path class="st1" d="M166.3,48h3.1v17.7h-3.1V48z"/>
	<path class="st1" d="M173,62v-5.4h-1.4V54h1.4v-3.8l3.1-0.3V54h3.2v2.6h-3.2v5c0,1,0.3,1.5,1,1.5c0.4,0,1-0.1,1.5-0.4l0.8,2.5
		c-0.8,0.4-1.5,0.7-3.1,0.7C174.3,65.9,173,64.6,173,62z"/>
</g>
<g>
	<path class="st1" d="M99.8,351.2l2-2.5c1.3,1.5,2.9,2.1,4.2,2.1c1.6,0,2.4-0.7,2.4-1.8c0-1.2-0.9-1.7-3-2.4
		c-2.6-0.9-5.1-2.1-5.1-5.3c0-2.7,2.4-4.8,5.5-4.9c2.1,0,4.1,0.8,5.7,2.2l-1.9,2.5c-1.4-1.2-2.7-1.7-3.7-1.7c-1.2,0-2,0.6-2,1.7
		c0,1.1,0.9,1.5,2.9,2.3c3,1.2,5.3,1.9,5.3,5.2c0,3.7-3.2,5.2-6,5.2C103.8,353.9,101.6,353,99.8,351.2z"/>
	<path class="st1" d="M125.4,348.8h-8.2c0.4,1.4,1.5,2.3,3,2.3c1.2,0,2.2-0.5,2.8-1.3l2,1.9c-1,1.3-2.7,2.2-5.1,2.2
		c-3.4,0-6-2.4-6-6.1c0-3.6,2.5-6,5.8-6c3.4,0,5.7,2.5,5.7,5.9C125.5,348.1,125.5,348.6,125.4,348.8z M117.2,346.6h5.2
		c-0.3-1.2-1.2-2-2.5-2C118.6,344.5,117.6,345.2,117.2,346.6z"/>
	<path class="st1" d="M127.4,347.8c0-3.6,2.5-6,6.2-6c1.9,0,3.8,0.7,5,2.2l-2.1,1.8c-0.6-0.7-1.5-1.2-2.7-1.2
		c-1.9,0-3.1,1.3-3.1,3.2c0,1.9,1.3,3.3,3.1,3.3c1.2,0,2.2-0.6,2.7-1.2l2.1,1.9c-1,1.2-2.8,2.1-5.2,2.1
		C130,353.9,127.4,351.4,127.4,347.8z"/>
	<path class="st1" d="M140.2,347.8c0-3.5,2.5-6,6.2-6c3.6,0,6.2,2.4,6.2,6s-2.6,6-6.2,6C142.7,353.9,140.2,351.3,140.2,347.8z
		 M149.4,347.8c0-1.9-1.3-3.2-3-3.2c-1.8,0-3,1.4-3,3.2c0,1.8,1.3,3.2,3,3.2C148.1,351.1,149.4,349.7,149.4,347.8z"/>
	<path class="st1" d="M166.3,346.7v7h-3.1v-6.2c0-2.2-0.8-2.9-2.3-2.9c-1.6,0-2.7,1.1-2.7,3.2v5.9h-3.1V342h3.1v1.5h0
		c1-1.1,2.3-1.7,3.7-1.7C164.6,341.8,166.3,343.1,166.3,346.7z"/>
	<path class="st1" d="M181,336v17.7h-3v-1.4h0c-0.8,1-2,1.6-3.6,1.6c-3.2,0-5.6-2.4-5.6-6c0-3.6,2.4-6.1,5.5-6.1
		c1.4,0,2.7,0.5,3.5,1.5h0.1V336H181z M178,347.9c0-1.9-1.3-3.3-3.1-3.3c-1.7,0-3,1.3-3,3.3c0,1.9,1.2,3.2,3,3.2
		C176.6,351.1,178,349.8,178,347.9z"/>
	<path class="st1" d="M193.7,346.7v7h-2.9l-0.1-1h0c-0.8,0.6-1.9,1.2-3.3,1.2c-2.6,0-3.9-1.6-3.9-3.7c0-2.4,1.5-3.8,4.7-3.8h2.4
		c-0.1-1.3-0.8-1.9-2-1.9c-1,0-2.3,0.3-3.3,0.8l-1.1-2.4c0.8-0.4,2.5-1.1,4.7-1.1C191.8,341.8,193.7,343.2,193.7,346.7z
		 M190.6,349.8v-1.3l-2.1,0c-1.2,0-1.9,0.4-1.9,1.4c0,0.8,0.6,1.3,1.6,1.3C189.7,351.3,190.6,350.3,190.6,349.8z"/>
	<path class="st1" d="M203.5,341.8v3.4c-0.3,0-0.6,0-0.8,0c-1.9,0-3,1.3-3,3v5.4h-3.1V342h3.1v1.7h0c0.9-1.2,2.2-1.9,3.6-1.9
		C203.4,341.8,203.4,341.8,203.5,341.8z"/>
	<path class="st1" d="M216.5,342l-6.3,16.5H207l2.1-5.5l-4.7-11h3.3l2.9,7.2h0l2.7-7.2H216.5z"/>
	<path class="st1" d="M236,346.7v7h-3.1v-6.2c0-2.2-0.8-2.9-2.3-2.9c-1.6,0-2.7,1.1-2.7,3.2v5.9h-3.1V342h3.1v1.5h0
		c1-1.1,2.3-1.7,3.7-1.7C234.2,341.8,236,343.1,236,346.7z"/>
	<path class="st1" d="M248.5,346.7v7h-2.9l-0.1-1h0c-0.8,0.6-1.9,1.2-3.3,1.2c-2.6,0-3.9-1.6-3.9-3.7c0-2.4,1.5-3.8,4.7-3.8h2.4
		c-0.1-1.3-0.8-1.9-2-1.9c-1,0-2.3,0.3-3.3,0.8l-1.1-2.4c0.8-0.4,2.5-1.1,4.7-1.1C246.7,341.8,248.5,343.2,248.5,346.7z
		 M245.4,349.8v-1.3l-2.1,0c-1.2,0-1.9,0.4-1.9,1.4c0,0.8,0.6,1.3,1.6,1.3C244.5,351.3,245.4,350.3,245.4,349.8z"/>
	<path class="st1" d="M261.9,342l-4.6,11.7h-3l-4.6-11.7h3.3l2.8,7.9h0l2.7-7.9H261.9z"/>
	<path class="st1" d="M263.7,338.4c0-1.1,0.9-1.9,1.9-1.9c1.1,0,2,0.9,2,1.9c0,1.1-0.9,1.9-2,1.9
		C264.6,340.3,263.7,339.4,263.7,338.4z M264,342h3.1v11.7H264V342z"/>
	<path class="st1" d="M281.9,342v10.4c0,3.6-1.6,6.3-6.1,6.3c-1.8,0-3.4-0.4-4.8-1.2l0.7-2.7c1.2,0.6,2.3,1.1,3.8,1.1
		c2.2,0,3.3-1.2,3.3-2.6v-1.2h-0.1c-0.8,0.9-2,1.4-3.4,1.4c-3.2,0-5.6-2.4-5.6-5.8c0-3.5,2.3-5.9,5.4-5.9c1.3,0,2.6,0.5,3.5,1.4h0.1
		V342H281.9z M278.9,347.6c0-1.8-1.3-3-3-3c-1.8,0-3,1.2-3,3c0,1.8,1.3,3,3,3C277.7,350.6,278.9,349.3,278.9,347.6z"/>
	<path class="st1" d="M294.5,346.7v7h-2.9l-0.1-1h0c-0.8,0.6-1.9,1.2-3.3,1.2c-2.6,0-3.9-1.6-3.9-3.7c0-2.4,1.5-3.8,4.7-3.8h2.4
		c-0.1-1.3-0.8-1.9-2-1.9c-1,0-2.3,0.3-3.3,0.8l-1.1-2.4c0.8-0.4,2.5-1.1,4.7-1.1C292.7,341.8,294.5,343.2,294.5,346.7z
		 M291.4,349.8v-1.3l-2.1,0c-1.2,0-1.9,0.4-1.9,1.4c0,0.8,0.6,1.3,1.6,1.3C290.5,351.3,291.4,350.3,291.4,349.8z"/>
	<path class="st1" d="M297.7,350v-5.4h-1.4V342h1.4v-3.8l3.1-0.3v4.2h3.2v2.6h-3.2v5c0,1,0.3,1.5,1,1.5c0.4,0,1-0.1,1.5-0.4l0.8,2.5
		c-0.8,0.4-1.5,0.7-3.1,0.7C299,353.9,297.7,352.6,297.7,350z"/>
	<path class="st1" d="M306.1,338.4c0-1.1,0.9-1.9,1.9-1.9c1.1,0,2,0.9,2,1.9c0,1.1-0.9,1.9-2,1.9C307,340.3,306.1,339.4,306.1,338.4
		z M306.5,342h3.1v11.7h-3.1V342z"/>
	<path class="st1" d="M312.3,347.8c0-3.5,2.5-6,6.2-6c3.6,0,6.2,2.4,6.2,6s-2.6,6-6.2,6C314.8,353.9,312.3,351.3,312.3,347.8z
		 M321.6,347.8c0-1.9-1.3-3.2-3-3.2c-1.8,0-3,1.4-3,3.2c0,1.8,1.3,3.2,3,3.2C320.3,351.1,321.6,349.7,321.6,347.8z"/>
	<path class="st1" d="M338.5,346.7v7h-3.1v-6.2c0-2.2-0.8-2.9-2.3-2.9c-1.6,0-2.7,1.1-2.7,3.2v5.9h-3.1V342h3.1v1.5h0
		c1-1.1,2.3-1.7,3.7-1.7C336.8,341.8,338.5,343.1,338.5,346.7z"/>
</g>
<line class="st3" x1="64.5" y1="116.5" x2="64.5" y2="275.5"/>
<g>
	<path class="st4" d="M38.4,197.4c0,1.5-1.2,2.7-2.8,2.7c-1.6,0-2.9-1.3-2.9-3.2c0-3,2-5,4.2-5.4l0.3,0.9c-1.5,0.3-2.9,1.4-3.3,3.2
		h0c0.5-0.5,1.2-0.7,2-0.7C37.3,194.8,38.4,195.8,38.4,197.4z M37.4,197.4c0-1-0.7-1.7-1.8-1.7c-0.9,0-1.6,0.5-2,1.1v0.1
		c0,1.3,0.8,2.2,1.9,2.2C36.7,199.1,37.4,198.3,37.4,197.4z"/>
	<path class="st4" d="M43.2,198.6h-3.8v-0.7l4-6.1h0.9v5.9h1.2v0.9h-1.2v1.5h-1V198.6z M43.2,197.7v-4.1l-2.6,4.1H43.2z"/>
	<path class="st4" d="M52.6,197.1c0,1.8-1.2,3-2.9,3c-0.8,0-1.5-0.3-2-0.9h0v3.2h-1v-8.2h1v0.9h0c0.5-0.6,1.2-0.9,2-0.9
		C51.4,194.1,52.6,195.4,52.6,197.1z M51.6,197.1c0-1.3-0.9-2.1-2-2.1c-1.1,0-1.9,0.9-1.9,2.1c0,1.2,0.9,2.1,1.9,2.1
		C50.8,199.2,51.6,198.3,51.6,197.1z"/>
	<path class="st4" d="M56.2,197.9L56.2,197.9l-1.6,2.1h-1.1l2.1-3l-2.1-2.9h1.1l1.5,2.1h0l1.5-2.1h1.1l-2.1,2.9l2.1,3h-1.1
		L56.2,197.9z"/>
</g>
<g>
	<path class="st4" d="M30.4,520l-1.6,1.2l-0.5-0.8l2.3-1.7h0.8v8.2h-1V520z"/>
	<path class="st4" d="M38.2,526.1v0.9H33l0-0.7l2.8-2.9c0.7-0.7,1.3-1.4,1.3-2.2c0-0.9-0.6-1.6-1.5-1.6c-0.8,0-1.4,0.4-1.8,1.1
		l-0.7-0.5c0.5-0.9,1.3-1.6,2.6-1.6c1.3,0,2.5,0.9,2.5,2.4c0,0.9-0.4,1.7-1.4,2.8l-2.1,2.2v0H38.2z"/>
	<path class="st4" d="M45.1,524.7c0,1.4-1.3,2.3-2.9,2.3c-1.7,0-2.9-1-2.9-2.3c0-1.1,0.7-1.9,1.6-2.2v0c-0.6-0.2-1.2-0.9-1.2-1.7
		c0-1.3,1.1-2.1,2.5-2.1c1.5,0,2.5,0.8,2.5,2.1c0,0.9-0.6,1.6-1.2,1.7v0C44.4,522.8,45.1,523.6,45.1,524.7z M44.1,524.6
		c0-0.9-0.7-1.6-1.9-1.6c-1.1,0-1.9,0.6-1.9,1.6c0,0.9,0.8,1.5,1.9,1.5C43.3,526.2,44.1,525.4,44.1,524.6z M40.7,520.9
		c0,0.8,0.6,1.2,1.5,1.2c0.9,0,1.5-0.5,1.5-1.2c0-0.7-0.7-1.3-1.5-1.3C41.3,519.6,40.7,520.2,40.7,520.9z"/>
	<path class="st4" d="M52.4,524.1c0,1.8-1.2,3-2.9,3c-0.8,0-1.5-0.3-2-0.9h0v3.2h-1v-8.2h1v0.9h0c0.5-0.6,1.2-0.9,2-0.9
		C51.2,521.1,52.4,522.4,52.4,524.1z M51.4,524.1c0-1.3-0.9-2.1-2-2.1c-1.1,0-1.9,0.9-1.9,2.1c0,1.2,0.9,2.1,1.9,2.1
		C50.7,526.2,51.4,525.3,51.4,524.1z"/>
	<path class="st4" d="M56.1,524.9L56.1,524.9l-1.6,2.1h-1.1l2.1-3l-2.1-2.9h1.1l1.5,2.1h0l1.5-2.1h1.1l-2.1,2.9l2.1,3h-1.1
		L56.1,524.9z"/>
</g>
<line class="st3" x1="64.5" y1="408" x2="64.5" y2="649.5"/>
<g>
	<path class="st1" d="M107.6,101.1l-6.6-3.9v-1.1l6.6-3.9v1.3l-5.3,3.2l5.3,3.1V101.1z"/>
	<path class="st1" d="M118.7,103h-1.4v-5.9c0-0.8-0.1-1.4-0.4-1.8s-0.7-0.5-1.2-0.5c-0.8,0-1.7,0.5-2.7,1.6v6.6h-1.4V90.6h1.4v4.6
		c1-1,2-1.6,3.1-1.6c1.7,0,2.6,1,2.6,3.1V103z"/>
	<path class="st1" d="M129.8,98.5h-6.3c0,1,0.3,1.9,0.9,2.6s1.3,1,2.2,1c0.8,0,1.7-0.1,2.6-0.4l0.2,1.1c-0.8,0.4-1.8,0.5-2.8,0.5
		c-1.4,0-2.5-0.4-3.3-1.3s-1.2-2.1-1.2-3.5c0-1.5,0.4-2.6,1.1-3.5s1.7-1.3,2.9-1.3c1.1,0,1.9,0.4,2.6,1.2s1.1,1.9,1.1,3.2V98.5z
		 M128.3,97.4c0-0.7-0.2-1.3-0.7-1.8s-0.9-0.7-1.5-0.7c-0.7,0-1.3,0.2-1.8,0.7s-0.7,1.1-0.8,1.8H128.3z"/>
	<path class="st1" d="M140.6,103h-1.4c-0.1-0.4-0.2-0.9-0.2-1.5c-0.8,1.1-1.8,1.7-3.2,1.7c-0.7,0-1.3-0.2-1.8-0.7s-0.8-1.1-0.8-1.9
		c0-0.5,0.1-0.8,0.3-1.2s0.4-0.6,0.8-0.9s0.8-0.4,1.3-0.6s1.1-0.2,1.8-0.3l1.5-0.1v-0.4c0-1.6-0.7-2.4-2.2-2.4
		c-0.3,0-0.8,0.1-1.3,0.2s-1,0.3-1.4,0.5l-0.4-1c1.2-0.6,2.4-1,3.5-1c2.1,0,3.1,1.1,3.1,3.3v3.9C140.4,101.7,140.4,102.4,140.6,103z
		 M139,100.3v-1.7c-1.2,0.1-2.1,0.2-2.5,0.3s-0.9,0.3-1.2,0.5s-0.5,0.6-0.5,1.1c0,0.4,0.1,0.7,0.4,1s0.7,0.4,1.1,0.4
		c0.5,0,1-0.1,1.5-0.4S138.6,100.8,139,100.3z"/>
	<path class="st1" d="M151.1,103h-1.4v-1.3c-0.3,0.5-0.7,0.8-1.2,1.1s-1.1,0.4-1.7,0.4c-1,0-1.9-0.5-2.5-1.4s-0.9-2.1-0.9-3.6
		c0-1.3,0.3-2.5,1-3.3s1.5-1.3,2.5-1.3c1.2,0,2.1,0.5,2.8,1.4v-4.4h1.4V103z M149.7,100.2v-3.8c-0.7-1.1-1.4-1.6-2.4-1.6
		c-0.8,0-1.4,0.3-1.8,1s-0.7,1.5-0.7,2.5c0,1.1,0.2,1.9,0.6,2.6s1,1,1.7,1c0.3,0,0.7-0.1,1-0.3s0.7-0.5,1-0.8
		S149.7,100.3,149.7,100.2z"/>
	<path class="st1" d="M162.2,98.5h-6.3c0,1,0.3,1.9,0.9,2.6s1.3,1,2.2,1c0.8,0,1.7-0.1,2.6-0.4l0.2,1.1c-0.8,0.4-1.8,0.5-2.8,0.5
		c-1.4,0-2.5-0.4-3.3-1.3s-1.2-2.1-1.2-3.5c0-1.5,0.4-2.6,1.1-3.5s1.7-1.3,2.9-1.3c1.1,0,1.9,0.4,2.6,1.2s1.1,1.9,1.1,3.2V98.5z
		 M160.7,97.4c0-0.7-0.2-1.3-0.7-1.8s-0.9-0.7-1.5-0.7c-0.7,0-1.3,0.2-1.8,0.7s-0.7,1.1-0.8,1.8H160.7z"/>
	<path class="st1" d="M172.9,94.1l-0.6,1.3c-0.6-0.3-1.1-0.4-1.6-0.4c-0.4,0-0.8,0.1-1.2,0.3s-0.7,0.6-1.1,1S168,97,168,97.1v5.9
		h-1.4v-9.2h1.4v1.9c0.7-1.4,1.7-2.1,2.8-2.1C171.6,93.6,172.2,93.8,172.9,94.1z"/>
	<path class="st1" d="M183.5,97.2l-6.6,3.9v-1.3l5.3-3.1l-5.3-3.2v-1.3l6.6,3.9V97.2z"/>
</g>
<g>
	<path class="st1" d="M154.6,152.1l-6.6-3.9v-1.1l6.6-3.9v1.3l-5.3,3.2l5.3,3.1V152.1z"/>
	<path class="st1" d="M165.7,154h-1.4v-1.4c-1,1-2,1.6-3.1,1.6c-1.7,0-2.6-1-2.6-3.1v-6.3h1.4v5.9c0,0.8,0.1,1.4,0.4,1.7
		s0.7,0.6,1.2,0.6c0.8,0,1.7-0.5,2.7-1.6v-6.6h1.4V154z"/>
	<path class="st1" d="M175.9,154h-3.7v-11.2h-2.4v-1.2h3.8v11.2h2.4V154z"/>
	<path class="st1" d="M187.3,148.2l-6.6,3.9v-1.3l5.3-3.1l-5.3-3.2v-1.3l6.6,3.9V148.2z"/>
	<path class="st1" d="M205.4,152c0.3,0,0.6,0.1,0.8,0.3s0.3,0.5,0.3,0.8c0,0.3-0.1,0.6-0.3,0.8s-0.5,0.3-0.8,0.3
		c-0.3,0-0.6-0.1-0.8-0.3s-0.3-0.5-0.3-0.8s0.1-0.6,0.3-0.8S205,152,205.4,152z"/>
	<path class="st1" d="M219.8,154h-1.4v-5.9c0-0.8-0.1-1.4-0.4-1.8s-0.7-0.5-1.2-0.5c-0.8,0-1.7,0.5-2.7,1.6v6.6h-1.4v-9.2h1.4v1.3
		c1-1,2-1.6,3.1-1.6c1.7,0,2.6,1,2.6,3.1V154z"/>
	<path class="st1" d="M230.8,154h-1.4c-0.1-0.4-0.2-0.9-0.2-1.5c-0.8,1.1-1.8,1.7-3.2,1.7c-0.7,0-1.3-0.2-1.8-0.7s-0.8-1.1-0.8-1.9
		c0-0.5,0.1-0.8,0.3-1.2s0.4-0.6,0.8-0.9s0.8-0.4,1.3-0.6s1.1-0.2,1.8-0.3l1.5-0.1v-0.4c0-1.6-0.7-2.4-2.2-2.4
		c-0.3,0-0.8,0.1-1.3,0.2s-1,0.3-1.4,0.5l-0.4-1c1.2-0.6,2.4-1,3.5-1c2.1,0,3.1,1.1,3.1,3.3v3.9C230.6,152.7,230.6,153.4,230.8,154z
		 M229.2,151.3v-1.7c-1.2,0.1-2.1,0.2-2.5,0.3s-0.9,0.3-1.2,0.5s-0.5,0.6-0.5,1.1c0,0.4,0.1,0.7,0.4,1s0.7,0.4,1.1,0.4
		c0.5,0,1-0.1,1.5-0.4S228.8,151.8,229.2,151.3z"/>
	<path class="st1" d="M241.8,144.8l-3.5,9.2h-1.2l-3.5-9.2h1.5l2.6,7.3l2.6-7.3H241.8z"/>
	<path class="st1" d="M259.4,152c0.3,0,0.6,0.1,0.8,0.3s0.3,0.5,0.3,0.8c0,0.3-0.1,0.6-0.3,0.8s-0.5,0.3-0.8,0.3
		c-0.3,0-0.6-0.1-0.8-0.3s-0.3-0.5-0.3-0.8s0.1-0.6,0.3-0.8S259.1,152,259.4,152z"/>
	<path class="st1" d="M273.8,154h-1.4v-5.9c0-0.8-0.1-1.4-0.4-1.8s-0.7-0.5-1.2-0.5c-0.8,0-1.7,0.5-2.7,1.6v6.6h-1.4v-9.2h1.4v1.3
		c1-1,2-1.6,3.1-1.6c1.7,0,2.6,1,2.6,3.1V154z"/>
	<path class="st1" d="M284.8,154h-1.4c-0.1-0.4-0.2-0.9-0.2-1.5c-0.8,1.1-1.8,1.7-3.2,1.7c-0.7,0-1.3-0.2-1.8-0.7s-0.8-1.1-0.8-1.9
		c0-0.5,0.1-0.8,0.3-1.2s0.4-0.6,0.8-0.9s0.8-0.4,1.3-0.6s1.1-0.2,1.8-0.3l1.5-0.1v-0.4c0-1.6-0.7-2.4-2.2-2.4
		c-0.3,0-0.8,0.1-1.3,0.2s-1,0.3-1.4,0.5l-0.4-1c1.2-0.6,2.4-1,3.5-1c2.1,0,3.1,1.1,3.1,3.3v3.9C284.6,152.7,284.6,153.4,284.8,154z
		 M283.2,151.3v-1.7c-1.2,0.1-2.1,0.2-2.5,0.3s-0.9,0.3-1.2,0.5s-0.5,0.6-0.5,1.1c0,0.4,0.1,0.7,0.4,1s0.7,0.4,1.1,0.4
		c0.5,0,1-0.1,1.5-0.4S282.8,151.8,283.2,151.3z"/>
	<path class="st1" d="M295.8,144.8l-3.5,9.2h-1.2l-3.5-9.2h1.5l2.6,7.3l2.6-7.3H295.8z"/>
	<path class="st1" d="M300.5,146c0.3-0.4,0.7-0.8,1.2-1s1.1-0.4,1.6-0.4c1.1,0,1.9,0.4,2.5,1.3s0.9,2,0.9,3.4c0,1.4-0.3,2.6-0.9,3.5
		s-1.5,1.4-2.5,1.4c-0.6,0-1.1-0.1-1.6-0.4s-0.9-0.7-1.2-1.1v1.3h-1.4v-12.4h1.4V146z M300.5,147.4v3.8c0.3,0.5,0.6,0.9,1,1.3
		s0.9,0.5,1.4,0.5c0.7,0,1.3-0.4,1.8-1.1s0.7-1.6,0.7-2.6c0-1.1-0.2-1.9-0.6-2.6s-1-1-1.7-1C302,145.8,301.2,146.3,300.5,147.4z"/>
	<path class="st1" d="M317.2,154h-1.4c-0.1-0.4-0.2-0.9-0.2-1.5c-0.8,1.1-1.8,1.7-3.2,1.7c-0.7,0-1.3-0.2-1.8-0.7s-0.8-1.1-0.8-1.9
		c0-0.5,0.1-0.8,0.3-1.2s0.4-0.6,0.8-0.9s0.8-0.4,1.3-0.6s1.1-0.2,1.8-0.3l1.5-0.1v-0.4c0-1.6-0.7-2.4-2.2-2.4
		c-0.3,0-0.8,0.1-1.3,0.2s-1,0.3-1.4,0.5l-0.4-1c1.2-0.6,2.4-1,3.5-1c2.1,0,3.1,1.1,3.1,3.3v3.9C317,152.7,317,153.4,317.2,154z
		 M315.6,151.3v-1.7c-1.2,0.1-2.1,0.2-2.5,0.3s-0.9,0.3-1.2,0.5s-0.5,0.6-0.5,1.1c0,0.4,0.1,0.7,0.4,1s0.7,0.4,1.1,0.4
		c0.5,0,1-0.1,1.5-0.4S315.2,151.8,315.6,151.3z"/>
	<path class="st1" d="M327.9,145.1l-0.6,1.3c-0.6-0.3-1.1-0.4-1.6-0.4c-0.4,0-0.8,0.1-1.2,0.3s-0.7,0.6-1.1,1s-0.5,0.7-0.5,0.7v5.9
		h-1.4v-9.2h1.4v1.9c0.7-1.4,1.7-2.1,2.8-2.1C326.6,144.6,327.3,144.8,327.9,145.1z"/>
	<path class="st1" d="M337.5,149.7h-5.2v-1.3h5.2V149.7z"/>
	<path class="st1" d="M349.4,154H348v-5.9c0-0.8-0.1-1.4-0.4-1.8s-0.7-0.5-1.2-0.5c-0.8,0-1.7,0.5-2.7,1.6v6.6h-1.4v-9.2h1.4v1.3
		c1-1,2-1.6,3.1-1.6c1.7,0,2.6,1,2.6,3.1V154z"/>
	<path class="st1" d="M360.4,154H359c-0.1-0.4-0.2-0.9-0.2-1.5c-0.8,1.1-1.8,1.7-3.2,1.7c-0.7,0-1.3-0.2-1.8-0.7s-0.8-1.1-0.8-1.9
		c0-0.5,0.1-0.8,0.3-1.2s0.4-0.6,0.8-0.9s0.8-0.4,1.3-0.6s1.1-0.2,1.8-0.3l1.5-0.1v-0.4c0-1.6-0.7-2.4-2.2-2.4
		c-0.3,0-0.8,0.1-1.3,0.2s-1,0.3-1.4,0.5l-0.4-1c1.2-0.6,2.4-1,3.5-1c2.1,0,3.1,1.1,3.1,3.3v3.9C360.2,152.7,360.3,153.4,360.4,154z
		 M358.8,151.3v-1.7c-1.2,0.1-2.1,0.2-2.5,0.3s-0.9,0.3-1.2,0.5s-0.5,0.6-0.5,1.1c0,0.4,0.1,0.7,0.4,1s0.7,0.4,1.1,0.4
		c0.5,0,1-0.1,1.5-0.4S358.4,151.8,358.8,151.3z"/>
	<path class="st1" d="M371.4,144.8l-3.5,9.2h-1.2l-3.5-9.2h1.5l2.6,7.3l2.6-7.3H371.4z"/>
</g>
<g>
	<rect x="104.5" y="407.5" class="st0" width="1072" height="158"/>
	<path class="st1" d="M1176,408v157H105V408H1176 M1177,407H104v159h1073V407L1177,407z"/>
</g>
<g>
	<rect x="104.5" y="522.5" class="st0" width="1072" height="127"/>
	<path class="st1" d="M1176,523v126H105V523H1176 M1177,522H104v128h1073V522L1177,522z"/>
</g>
<g>
	<path class="st1" d="M107.6,391.1l-6.6-3.9v-1.1l6.6-3.9v1.3l-5.3,3.2l5.3,3.1V391.1z"/>
	<path class="st1" d="M118.7,393h-1.4v-5.9c0-0.8-0.1-1.4-0.4-1.8c-0.3-0.4-0.7-0.5-1.2-0.5c-0.8,0-1.7,0.5-2.7,1.6v6.6h-1.4v-12.4
		h1.4v4.6c1-1,2-1.6,3.1-1.6c1.7,0,2.6,1,2.6,3.1V393z"/>
	<path class="st1" d="M129.8,388.5h-6.3c0,1,0.3,1.9,0.9,2.6s1.3,1,2.2,1c0.8,0,1.7-0.1,2.6-0.4l0.2,1.1c-0.8,0.4-1.8,0.5-2.8,0.5
		c-1.4,0-2.5-0.4-3.3-1.3s-1.2-2.1-1.2-3.5c0-1.5,0.4-2.6,1.1-3.5c0.7-0.9,1.7-1.3,2.9-1.3c1.1,0,1.9,0.4,2.6,1.2s1.1,1.9,1.1,3.2
		V388.5z M128.3,387.4c0-0.7-0.2-1.3-0.7-1.8c-0.4-0.5-0.9-0.7-1.5-0.7c-0.7,0-1.3,0.2-1.8,0.7s-0.7,1.1-0.8,1.8H128.3z"/>
	<path class="st1" d="M140.6,393h-1.4c-0.1-0.4-0.2-0.9-0.2-1.5c-0.8,1.1-1.8,1.7-3.2,1.7c-0.7,0-1.3-0.2-1.8-0.7
		c-0.5-0.5-0.8-1.1-0.8-1.9c0-0.5,0.1-0.8,0.3-1.2s0.4-0.6,0.8-0.9c0.4-0.2,0.8-0.4,1.3-0.6c0.5-0.1,1.1-0.2,1.8-0.3l1.5-0.1v-0.4
		c0-1.6-0.7-2.4-2.2-2.4c-0.3,0-0.8,0.1-1.3,0.2c-0.5,0.1-1,0.3-1.4,0.5l-0.4-1c1.2-0.6,2.4-1,3.5-1c2.1,0,3.1,1.1,3.1,3.3v3.9
		C140.4,391.7,140.4,392.4,140.6,393z M139,390.3v-1.7c-1.2,0.1-2.1,0.2-2.5,0.3c-0.5,0.1-0.9,0.3-1.2,0.5s-0.5,0.6-0.5,1.1
		c0,0.4,0.1,0.7,0.4,1s0.7,0.4,1.1,0.4c0.5,0,1-0.1,1.5-0.4C138.2,391.2,138.6,390.8,139,390.3z"/>
	<path class="st1" d="M151.1,393h-1.4v-1.3c-0.3,0.5-0.7,0.8-1.2,1.1s-1.1,0.4-1.7,0.4c-1,0-1.9-0.5-2.5-1.4
		c-0.6-0.9-0.9-2.1-0.9-3.6c0-1.3,0.3-2.5,1-3.3c0.6-0.9,1.5-1.3,2.5-1.3c1.2,0,2.1,0.5,2.8,1.4v-4.4h1.4V393z M149.7,390.2v-3.8
		c-0.7-1.1-1.4-1.6-2.4-1.6c-0.8,0-1.4,0.3-1.8,1c-0.4,0.7-0.7,1.5-0.7,2.5c0,1.1,0.2,1.9,0.6,2.6c0.4,0.7,1,1,1.7,1
		c0.3,0,0.7-0.1,1-0.3s0.7-0.5,1-0.8S149.7,390.3,149.7,390.2z"/>
	<path class="st1" d="M162.2,388.5h-6.3c0,1,0.3,1.9,0.9,2.6s1.3,1,2.2,1c0.8,0,1.7-0.1,2.6-0.4l0.2,1.1c-0.8,0.4-1.8,0.5-2.8,0.5
		c-1.4,0-2.5-0.4-3.3-1.3s-1.2-2.1-1.2-3.5c0-1.5,0.4-2.6,1.1-3.5c0.7-0.9,1.7-1.3,2.9-1.3c1.1,0,1.9,0.4,2.6,1.2s1.1,1.9,1.1,3.2
		V388.5z M160.7,387.4c0-0.7-0.2-1.3-0.7-1.8c-0.4-0.5-0.9-0.7-1.5-0.7c-0.7,0-1.3,0.2-1.8,0.7s-0.7,1.1-0.8,1.8H160.7z"/>
	<path class="st1" d="M172.9,384.1l-0.6,1.3c-0.6-0.3-1.1-0.4-1.6-0.4c-0.4,0-0.8,0.1-1.2,0.3c-0.4,0.2-0.7,0.6-1.1,1
		c-0.3,0.4-0.5,0.7-0.5,0.7v5.9h-1.4v-9.2h1.4v1.9c0.7-1.4,1.7-2.1,2.8-2.1C171.6,383.6,172.2,383.8,172.9,384.1z"/>
	<path class="st1" d="M183.5,387.2l-6.6,3.9v-1.3l5.3-3.1l-5.3-3.2v-1.3l6.6,3.9V387.2z"/>
</g>
<g>
	<path class="st1" d="M154.6,589.1l-6.6-3.9v-1.1l6.6-3.9v1.3l-5.3,3.2l5.3,3.1V589.1z"/>
	<path class="st1" d="M165.7,591h-1.4v-1.4c-1,1-2,1.6-3.1,1.6c-1.7,0-2.6-1-2.6-3.1v-6.3h1.4v5.9c0,0.8,0.1,1.4,0.4,1.7
		c0.2,0.4,0.7,0.6,1.2,0.6c0.8,0,1.7-0.5,2.7-1.6v-6.6h1.4V591z"/>
	<path class="st1" d="M175.9,591h-3.7v-11.2h-2.4v-1.2h3.8v11.2h2.4V591z"/>
	<path class="st1" d="M187.3,585.2l-6.6,3.9v-1.3l5.3-3.1l-5.3-3.2v-1.3l6.6,3.9V585.2z"/>
	<path class="st1" d="M205.4,589c0.3,0,0.6,0.1,0.8,0.3s0.3,0.5,0.3,0.8c0,0.3-0.1,0.6-0.3,0.8c-0.2,0.2-0.5,0.3-0.8,0.3
		c-0.3,0-0.6-0.1-0.8-0.3c-0.2-0.2-0.3-0.5-0.3-0.8s0.1-0.6,0.3-0.8C204.8,589.1,205,589,205.4,589z"/>
	<path class="st1" d="M219.8,591h-1.4v-5.9c0-0.8-0.1-1.4-0.4-1.8c-0.3-0.4-0.7-0.5-1.2-0.5c-0.8,0-1.7,0.5-2.7,1.6v6.6h-1.4v-9.2
		h1.4v1.3c1-1,2-1.6,3.1-1.6c1.7,0,2.6,1,2.6,3.1V591z"/>
	<path class="st1" d="M230.8,591h-1.4c-0.1-0.4-0.2-0.9-0.2-1.5c-0.8,1.1-1.8,1.7-3.2,1.7c-0.7,0-1.3-0.2-1.8-0.7
		c-0.5-0.5-0.8-1.1-0.8-1.9c0-0.5,0.1-0.8,0.3-1.2s0.4-0.6,0.8-0.9c0.4-0.2,0.8-0.4,1.3-0.6c0.5-0.1,1.1-0.2,1.8-0.3l1.5-0.1v-0.4
		c0-1.6-0.7-2.4-2.2-2.4c-0.3,0-0.8,0.1-1.3,0.2c-0.5,0.1-1,0.3-1.4,0.5l-0.4-1c1.2-0.6,2.4-1,3.5-1c2.1,0,3.1,1.1,3.1,3.3v3.9
		C230.6,589.7,230.6,590.4,230.8,591z M229.2,588.3v-1.7c-1.2,0.1-2.1,0.2-2.5,0.3c-0.5,0.1-0.9,0.3-1.2,0.5s-0.5,0.6-0.5,1.1
		c0,0.4,0.1,0.7,0.4,1s0.7,0.4,1.1,0.4c0.5,0,1-0.1,1.5-0.4C228.4,589.2,228.8,588.8,229.2,588.3z"/>
	<path class="st1" d="M241.8,581.8l-3.5,9.2h-1.2l-3.5-9.2h1.5l2.6,7.3l2.6-7.3H241.8z"/>
	<path class="st1" d="M259.4,589c0.3,0,0.6,0.1,0.8,0.3s0.3,0.5,0.3,0.8c0,0.3-0.1,0.6-0.3,0.8c-0.2,0.2-0.5,0.3-0.8,0.3
		c-0.3,0-0.6-0.1-0.8-0.3c-0.2-0.2-0.3-0.5-0.3-0.8s0.1-0.6,0.3-0.8C258.8,589.1,259.1,589,259.4,589z"/>
	<path class="st1" d="M273.8,591h-1.4v-5.9c0-0.8-0.1-1.4-0.4-1.8c-0.3-0.4-0.7-0.5-1.2-0.5c-0.8,0-1.7,0.5-2.7,1.6v6.6h-1.4v-9.2
		h1.4v1.3c1-1,2-1.6,3.1-1.6c1.7,0,2.6,1,2.6,3.1V591z"/>
	<path class="st1" d="M284.8,591h-1.4c-0.1-0.4-0.2-0.9-0.2-1.5c-0.8,1.1-1.8,1.7-3.2,1.7c-0.7,0-1.3-0.2-1.8-0.7
		c-0.5-0.5-0.8-1.1-0.8-1.9c0-0.5,0.1-0.8,0.3-1.2s0.4-0.6,0.8-0.9c0.4-0.2,0.8-0.4,1.3-0.6c0.5-0.1,1.1-0.2,1.8-0.3l1.5-0.1v-0.4
		c0-1.6-0.7-2.4-2.2-2.4c-0.3,0-0.8,0.1-1.3,0.2c-0.5,0.1-1,0.3-1.4,0.5l-0.4-1c1.2-0.6,2.4-1,3.5-1c2.1,0,3.1,1.1,3.1,3.3v3.9
		C284.6,589.7,284.6,590.4,284.8,591z M283.2,588.3v-1.7c-1.2,0.1-2.1,0.2-2.5,0.3c-0.5,0.1-0.9,0.3-1.2,0.5s-0.5,0.6-0.5,1.1
		c0,0.4,0.1,0.7,0.4,1s0.7,0.4,1.1,0.4c0.5,0,1-0.1,1.5-0.4C282.4,589.2,282.8,588.8,283.2,588.3z"/>
	<path class="st1" d="M295.8,581.8l-3.5,9.2h-1.2l-3.5-9.2h1.5l2.6,7.3l2.6-7.3H295.8z"/>
	<path class="st1" d="M300.5,583c0.3-0.4,0.7-0.8,1.2-1s1.1-0.4,1.6-0.4c1.1,0,1.9,0.4,2.5,1.3s0.9,2,0.9,3.4c0,1.4-0.3,2.6-0.9,3.5
		c-0.6,0.9-1.5,1.4-2.5,1.4c-0.6,0-1.1-0.1-1.6-0.4c-0.5-0.3-0.9-0.7-1.2-1.1v1.3h-1.4v-12.4h1.4V583z M300.5,584.4v3.8
		c0.3,0.5,0.6,0.9,1,1.3s0.9,0.5,1.4,0.5c0.7,0,1.3-0.4,1.8-1.1s0.7-1.6,0.7-2.6c0-1.1-0.2-1.9-0.6-2.6s-1-1-1.7-1
		C302,582.8,301.2,583.3,300.5,584.4z"/>
	<path class="st1" d="M317.2,591h-1.4c-0.1-0.4-0.2-0.9-0.2-1.5c-0.8,1.1-1.8,1.7-3.2,1.7c-0.7,0-1.3-0.2-1.8-0.7
		c-0.5-0.5-0.8-1.1-0.8-1.9c0-0.5,0.1-0.8,0.3-1.2s0.4-0.6,0.8-0.9c0.4-0.2,0.8-0.4,1.3-0.6c0.5-0.1,1.1-0.2,1.8-0.3l1.5-0.1v-0.4
		c0-1.6-0.7-2.4-2.2-2.4c-0.3,0-0.8,0.1-1.3,0.2c-0.5,0.1-1,0.3-1.4,0.5l-0.4-1c1.2-0.6,2.4-1,3.5-1c2.1,0,3.1,1.1,3.1,3.3v3.9
		C317,589.7,317,590.4,317.2,591z M315.6,588.3v-1.7c-1.2,0.1-2.1,0.2-2.5,0.3c-0.5,0.1-0.9,0.3-1.2,0.5s-0.5,0.6-0.5,1.1
		c0,0.4,0.1,0.7,0.4,1s0.7,0.4,1.1,0.4c0.5,0,1-0.1,1.5-0.4C314.8,589.2,315.2,588.8,315.6,588.3z"/>
	<path class="st1" d="M327.9,582.1l-0.6,1.3c-0.6-0.3-1.1-0.4-1.6-0.4c-0.4,0-0.8,0.1-1.2,0.3c-0.4,0.2-0.7,0.6-1.1,1
		c-0.3,0.4-0.5,0.7-0.5,0.7v5.9h-1.4v-9.2h1.4v1.9c0.7-1.4,1.7-2.1,2.8-2.1C326.6,581.6,327.3,581.8,327.9,582.1z"/>
	<path class="st1" d="M337.5,586.7h-5.2v-1.3h5.2V586.7z"/>
	<path class="st1" d="M349.4,591H348v-5.9c0-0.8-0.1-1.4-0.4-1.8c-0.3-0.4-0.7-0.5-1.2-0.5c-0.8,0-1.7,0.5-2.7,1.6v6.6h-1.4v-9.2
		h1.4v1.3c1-1,2-1.6,3.1-1.6c1.7,0,2.6,1,2.6,3.1V591z"/>
	<path class="st1" d="M360.4,591H359c-0.1-0.4-0.2-0.9-0.2-1.5c-0.8,1.1-1.8,1.7-3.2,1.7c-0.7,0-1.3-0.2-1.8-0.7
		c-0.5-0.5-0.8-1.1-0.8-1.9c0-0.5,0.1-0.8,0.3-1.2s0.4-0.6,0.8-0.9c0.4-0.2,0.8-0.4,1.3-0.6c0.5-0.1,1.1-0.2,1.8-0.3l1.5-0.1v-0.4
		c0-1.6-0.7-2.4-2.2-2.4c-0.3,0-0.8,0.1-1.3,0.2c-0.5,0.1-1,0.3-1.4,0.5l-0.4-1c1.2-0.6,2.4-1,3.5-1c2.1,0,3.1,1.1,3.1,3.3v3.9
		C360.2,589.7,360.3,590.4,360.4,591z M358.8,588.3v-1.7c-1.2,0.1-2.1,0.2-2.5,0.3c-0.5,0.1-0.9,0.3-1.2,0.5s-0.5,0.6-0.5,1.1
		c0,0.4,0.1,0.7,0.4,1s0.7,0.4,1.1,0.4c0.5,0,1-0.1,1.5-0.4C358,589.2,358.4,588.8,358.8,588.3z"/>
	<path class="st1" d="M371.4,581.8l-3.5,9.2h-1.2l-3.5-9.2h1.5l2.6,7.3l2.6-7.3H371.4z"/>
</g>
<g>
	<path class="st5" d="M209.6,387.2H206v3.6h-1.2v-3.6h-3.6v-1.2h3.6v-3.6h1.2v3.6h3.6V387.2z"/>
	<path class="st5" d="M226.9,391c0.3,0,0.6,0.1,0.8,0.3s0.3,0.5,0.3,0.8c0,0.3-0.1,0.6-0.3,0.8c-0.2,0.2-0.5,0.3-0.8,0.3
		c-0.3,0-0.6-0.1-0.8-0.3c-0.2-0.2-0.3-0.5-0.3-0.8s0.1-0.6,0.3-0.8C226.4,391.1,226.6,391,226.9,391z"/>
	<path class="st5" d="M240.4,385.2c-0.8-0.3-1.5-0.4-2.2-0.4c-0.7,0-1.3,0.1-1.8,0.4c-0.4,0.2-0.7,0.6-0.7,1c0,0.3,0.1,0.5,0.3,0.7
		c0.2,0.2,0.6,0.4,1.2,0.5l1.3,0.4c0.6,0.2,1.1,0.4,1.5,0.6c0.4,0.2,0.7,0.5,0.9,0.9c0.2,0.3,0.3,0.7,0.3,1.2c0,0.9-0.4,1.6-1.1,2.1
		c-0.7,0.5-1.7,0.8-2.8,0.8c-1.1,0-2.1-0.2-2.8-0.5l0.3-1.2c0.8,0.4,1.6,0.5,2.5,0.5c0.8,0,1.4-0.1,1.9-0.4c0.5-0.3,0.7-0.7,0.7-1.1
		c0-0.3-0.1-0.6-0.4-0.8c-0.2-0.2-0.8-0.5-1.7-0.8c-0.7-0.2-1.2-0.4-1.6-0.5c-0.3-0.1-0.6-0.3-0.9-0.5s-0.5-0.5-0.7-0.8
		s-0.2-0.6-0.2-1c0-0.8,0.3-1.4,1-1.9s1.6-0.7,2.8-0.7c0.7,0,1.6,0.1,2.5,0.4L240.4,385.2z"/>
	<path class="st5" d="M252.1,393h-1.4v-1.4c-1,1-2,1.6-3.1,1.6c-1.7,0-2.6-1-2.6-3.1v-6.3h1.4v5.9c0,0.8,0.1,1.4,0.4,1.7
		c0.2,0.4,0.7,0.6,1.2,0.6c0.8,0,1.7-0.5,2.7-1.6v-6.6h1.4V393z"/>
	<path class="st5" d="M257.3,385c0.3-0.4,0.7-0.8,1.2-1s1.1-0.4,1.6-0.4c1.1,0,1.9,0.4,2.5,1.3s0.9,2,0.9,3.4c0,1.4-0.3,2.6-0.9,3.5
		c-0.6,0.9-1.5,1.4-2.5,1.4c-0.6,0-1.1-0.1-1.6-0.4c-0.5-0.3-0.9-0.7-1.2-1.1v1.3h-1.4v-12.4h1.4V385z M257.3,386.4v3.8
		c0.3,0.5,0.6,0.9,1,1.3s0.9,0.5,1.4,0.5c0.7,0,1.3-0.4,1.8-1.1s0.7-1.6,0.7-2.6c0-1.1-0.2-1.9-0.6-2.6s-1-1-1.7-1
		C258.8,384.8,257.9,385.3,257.3,386.4z"/>
	<path class="st5" d="M273.8,393h-1.4v-5.9c0-0.8-0.1-1.4-0.4-1.8c-0.3-0.4-0.7-0.5-1.2-0.5c-0.8,0-1.7,0.5-2.7,1.6v6.6h-1.4v-9.2
		h1.4v1.3c1-1,2-1.6,3.1-1.6c1.7,0,2.6,1,2.6,3.1V393z"/>
	<path class="st5" d="M284.8,393h-1.4c-0.1-0.4-0.2-0.9-0.2-1.5c-0.8,1.1-1.8,1.7-3.2,1.7c-0.7,0-1.3-0.2-1.8-0.7
		c-0.5-0.5-0.8-1.1-0.8-1.9c0-0.5,0.1-0.8,0.3-1.2s0.4-0.6,0.8-0.9c0.4-0.2,0.8-0.4,1.3-0.6c0.5-0.1,1.1-0.2,1.8-0.3l1.5-0.1v-0.4
		c0-1.6-0.7-2.4-2.2-2.4c-0.3,0-0.8,0.1-1.3,0.2c-0.5,0.1-1,0.3-1.4,0.5l-0.4-1c1.2-0.6,2.4-1,3.5-1c2.1,0,3.1,1.1,3.1,3.3v3.9
		C284.6,391.7,284.6,392.4,284.8,393z M283.2,390.3v-1.7c-1.2,0.1-2.1,0.2-2.5,0.3c-0.5,0.1-0.9,0.3-1.2,0.5s-0.5,0.6-0.5,1.1
		c0,0.4,0.1,0.7,0.4,1s0.7,0.4,1.1,0.4c0.5,0,1-0.1,1.5-0.4C282.4,391.2,282.8,390.8,283.2,390.3z"/>
	<path class="st5" d="M295.8,383.8l-3.5,9.2h-1.2l-3.5-9.2h1.5l2.6,7.3l2.6-7.3H295.8z"/>
</g>
<g>
	<path class="st5" d="M404.6,585.2H401v3.6h-1.2v-3.6h-3.6v-1.2h3.6v-3.6h1.2v3.6h3.6V585.2z"/>
	<path class="st5" d="M421.9,589c0.3,0,0.6,0.1,0.8,0.3s0.3,0.5,0.3,0.8c0,0.3-0.1,0.6-0.3,0.8c-0.2,0.2-0.5,0.3-0.8,0.3
		c-0.3,0-0.6-0.1-0.8-0.3c-0.2-0.2-0.3-0.5-0.3-0.8s0.1-0.6,0.3-0.8C421.4,589.1,421.6,589,421.9,589z"/>
	<path class="st5" d="M435.4,583.2c-0.8-0.3-1.5-0.4-2.2-0.4c-0.7,0-1.3,0.1-1.8,0.4c-0.4,0.2-0.7,0.6-0.7,1c0,0.3,0.1,0.5,0.3,0.7
		c0.2,0.2,0.6,0.4,1.2,0.5l1.3,0.4c0.6,0.2,1.1,0.4,1.5,0.6c0.4,0.2,0.7,0.5,0.9,0.9c0.2,0.3,0.3,0.7,0.3,1.2c0,0.9-0.4,1.6-1.1,2.1
		c-0.7,0.5-1.7,0.8-2.8,0.8c-1.1,0-2.1-0.2-2.8-0.5l0.3-1.2c0.8,0.4,1.6,0.5,2.5,0.5c0.8,0,1.4-0.1,1.9-0.4c0.5-0.3,0.7-0.7,0.7-1.1
		c0-0.3-0.1-0.6-0.4-0.8c-0.2-0.2-0.8-0.5-1.7-0.8c-0.7-0.2-1.2-0.4-1.6-0.5c-0.3-0.1-0.6-0.3-0.9-0.5s-0.5-0.5-0.7-0.8
		s-0.2-0.6-0.2-1c0-0.8,0.3-1.4,1-1.9s1.6-0.7,2.8-0.7c0.7,0,1.6,0.1,2.5,0.4L435.4,583.2z"/>
	<path class="st5" d="M447.1,591h-1.4v-1.4c-1,1-2,1.6-3.1,1.6c-1.7,0-2.6-1-2.6-3.1v-6.3h1.4v5.9c0,0.8,0.1,1.4,0.4,1.7
		c0.2,0.4,0.7,0.6,1.2,0.6c0.8,0,1.7-0.5,2.7-1.6v-6.6h1.4V591z"/>
	<path class="st5" d="M452.3,583c0.3-0.4,0.7-0.8,1.2-1s1.1-0.4,1.6-0.4c1.1,0,1.9,0.4,2.5,1.3s0.9,2,0.9,3.4c0,1.4-0.3,2.6-0.9,3.5
		c-0.6,0.9-1.5,1.4-2.5,1.4c-0.6,0-1.1-0.1-1.6-0.4c-0.5-0.3-0.9-0.7-1.2-1.1v1.3h-1.4v-12.4h1.4V583z M452.3,584.4v3.8
		c0.3,0.5,0.6,0.9,1,1.3s0.9,0.5,1.4,0.5c0.7,0,1.3-0.4,1.8-1.1s0.7-1.6,0.7-2.6c0-1.1-0.2-1.9-0.6-2.6s-1-1-1.7-1
		C453.8,582.8,452.9,583.3,452.3,584.4z"/>
	<path class="st5" d="M468.8,591h-1.4v-5.9c0-0.8-0.1-1.4-0.4-1.8c-0.3-0.4-0.7-0.5-1.2-0.5c-0.8,0-1.7,0.5-2.7,1.6v6.6h-1.4v-9.2
		h1.4v1.3c1-1,2-1.6,3.1-1.6c1.7,0,2.6,1,2.6,3.1V591z"/>
	<path class="st5" d="M479.8,591h-1.4c-0.1-0.4-0.2-0.9-0.2-1.5c-0.8,1.1-1.8,1.7-3.2,1.7c-0.7,0-1.3-0.2-1.8-0.7
		c-0.5-0.5-0.8-1.1-0.8-1.9c0-0.5,0.1-0.8,0.3-1.2s0.4-0.6,0.8-0.9c0.4-0.2,0.8-0.4,1.3-0.6c0.5-0.1,1.1-0.2,1.8-0.3l1.5-0.1v-0.4
		c0-1.6-0.7-2.4-2.2-2.4c-0.3,0-0.8,0.1-1.3,0.2c-0.5,0.1-1,0.3-1.4,0.5l-0.4-1c1.2-0.6,2.4-1,3.5-1c2.1,0,3.1,1.1,3.1,3.3v3.9
		C479.6,589.7,479.6,590.4,479.8,591z M478.2,588.3v-1.7c-1.2,0.1-2.1,0.2-2.5,0.3c-0.5,0.1-0.9,0.3-1.2,0.5s-0.5,0.6-0.5,1.1
		c0,0.4,0.1,0.7,0.4,1s0.7,0.4,1.1,0.4c0.5,0,1-0.1,1.5-0.4C477.4,589.2,477.8,588.8,478.2,588.3z"/>
	<path class="st5" d="M490.8,581.8l-3.5,9.2h-1.2l-3.5-9.2h1.5l2.6,7.3l2.6-7.3H490.8z"/>
	<path class="st5" d="M500.1,586.7h-5.2v-1.3h5.2V586.7z"/>
	<path class="st5" d="M512.7,591h-1.4v-6c0-1.5-0.3-2.2-0.8-2.2c-0.3,0-0.6,0.2-0.9,0.8c-0.3,0.5-0.5,0.8-0.5,0.8v6.6h-1.4v-6
		c0-1.5-0.3-2.2-0.8-2.2c-0.3,0-0.6,0.2-0.9,0.8c-0.3,0.5-0.5,0.8-0.5,0.8v6.6h-1.4v-9.2h1.3v1.4c0.3-0.5,0.6-0.9,0.9-1.2
		c0.4-0.3,0.7-0.4,1.1-0.4c0.4,0,0.7,0.1,1,0.4c0.3,0.3,0.5,0.7,0.6,1.2c0.3-0.5,0.6-0.9,0.9-1.2c0.4-0.3,0.7-0.4,1.1-0.4
		c1.1,0,1.7,1,1.7,3V591z"/>
	<path class="st5" d="M523,586.5h-6.3c0,1,0.3,1.9,0.9,2.6s1.3,1,2.2,1c0.8,0,1.7-0.1,2.6-0.4l0.2,1.1c-0.8,0.4-1.8,0.5-2.8,0.5
		c-1.4,0-2.5-0.4-3.3-1.3s-1.2-2.1-1.2-3.5c0-1.5,0.4-2.6,1.1-3.5c0.7-0.9,1.7-1.3,2.9-1.3c1.1,0,1.9,0.4,2.6,1.2s1.1,1.9,1.1,3.2
		V586.5z M521.5,585.4c0-0.7-0.2-1.3-0.7-1.8c-0.4-0.5-0.9-0.7-1.5-0.7c-0.7,0-1.3,0.2-1.8,0.7s-0.7,1.1-0.8,1.8H521.5z"/>
	<path class="st5" d="M533.6,591h-1.4v-5.9c0-0.8-0.1-1.4-0.4-1.8c-0.3-0.4-0.7-0.5-1.2-0.5c-0.8,0-1.7,0.5-2.7,1.6v6.6h-1.4v-9.2
		h1.4v1.3c1-1,2-1.6,3.1-1.6c1.7,0,2.6,1,2.6,3.1V591z"/>
	<path class="st5" d="M544.4,591H543v-1.4c-1,1-2,1.6-3.1,1.6c-1.7,0-2.6-1-2.6-3.1v-6.3h1.4v5.9c0,0.8,0.1,1.4,0.4,1.7
		c0.2,0.4,0.7,0.6,1.2,0.6c0.8,0,1.7-0.5,2.7-1.6v-6.6h1.4V591z"/>
</g>
<g>
	<rect x="1029" y="47.7" transform="matrix(1 -6.550570e-03 6.550570e-03 1 -0.3819 6.8336)" class="st5" width="28" height="28"/>
	<g>
		<path class="st6" d="M1085.5,51.6l0.1,17l-2.1,0l-9.6-13.4l0,0l0.1,13.4l-2.1,0l-0.1-17l2.1,0l9.7,13.5l0,0l-0.1-13.6L1085.5,51.6
			z"/>
		<path class="st6" d="M1099.8,63.3l-9,0.1c0.3,2.2,1.8,3.6,3.9,3.6c1.5,0,2.6-0.7,3.3-1.6l1.4,1.2c-1,1.3-2.6,2.2-4.7,2.2
			c-3.3,0-5.8-2.4-5.8-5.9c0-3.5,2.4-6,5.6-6c3.3,0,5.4,2.4,5.5,5.8C1099.9,62.8,1099.8,63.2,1099.8,63.3z M1090.9,61.7l7.1,0
			c-0.3-1.9-1.6-3.2-3.4-3.2C1092.7,58.5,1091.2,59.7,1090.9,61.7z"/>
		<path class="st6" d="M1118.7,56.7l-4,11.7l-1.8,0l-2.7-8.5h0l-2.6,8.5l-1.8,0l-4.1-11.7l2,0l3,8.7l0,0l2.6-8.8l1.7,0l2.8,8.7l0,0
			l2.9-8.8L1118.7,56.7z"/>
		<path class="st6" d="M1126.9,66.8l1-1.5c0.9,0.8,1.9,1.4,3.6,1.4c1.4,0,2.2-0.7,2.2-1.6c0-1-1.1-1.3-2.8-1.9
			c-1.9-0.7-3.5-1.4-3.5-3.6c0-1.8,1.6-3.2,3.8-3.2c1.4,0,2.7,0.4,4,1.4l-1,1.5c-1-0.9-2.1-1.2-3.1-1.2c-0.9,0-1.8,0.5-1.8,1.4
			c0,0.9,1,1.3,2.2,1.8c2.5,0.9,4.1,1.3,4.1,3.6c0,1.8-1.3,3.3-4.2,3.4C1129.6,68.5,1128,67.8,1126.9,66.8z"/>
		<path class="st6" d="M1138.7,64.8l0-6.5l-1.5,0l0-1.7l1.5,0l0-4l1.9-0.2l0,4.2l3.9,0l0,1.7l-3.9,0l0,6.2c0,1.4,0.3,2.1,1.5,2.1
			c0.7,0,1.4-0.3,2-0.6l0.5,1.7c-0.6,0.4-1.5,0.7-2.8,0.7C1139.7,68.4,1138.7,67.1,1138.7,64.8z"/>
		<path class="st6" d="M1157.1,56.5l0.1,11.7l-1.9,0l0-1.9l0,0c-0.9,1.4-2.3,2.1-3.8,2.1c-2.7,0-4.4-1.5-4.4-4.8l0-7l1.9,0l0,6.4
			c0,2.7,1,3.6,2.9,3.6c1.8,0,3.4-1.6,3.4-4.4l0-5.7L1157.1,56.5z"/>
		<path class="st6" d="M1161.2,58.1l-1.4,0l0-1.7l1.4,0l0-2.4c0-2.5,1.2-3.8,3.2-3.8c1.2,0,2.1,0.3,2.7,0.7l-0.4,1.7
			c-0.7-0.4-1.4-0.6-2-0.6c-1,0-1.6,0.6-1.6,2.1l0,2.2l3.3,0l0,1.7l-3.3,0l0.1,10l-1.9,0L1161.2,58.1z"/>
		<path class="st6" d="M1169.2,58.1l-1.4,0l0-1.7l1.4,0l0-2.4c0-2.5,1.2-3.8,3.2-3.8c1.2,0,2.1,0.3,2.7,0.7l-0.4,1.7
			c-0.7-0.4-1.4-0.6-2-0.6c-1,0-1.6,0.6-1.6,2.1l0,2.2l3.3,0l0,1.7l-3.3,0l0.1,10l-1.9,0L1169.2,58.1z"/>
	</g>
</g>
</svg>
