<?xml version="1.0" standalone="no"?>
<!DOCTYPE svg PUBLIC "-//W3C//DTD SVG 1.1//EN" "http://www.w3.org/Graphics/SVG/1.1/DTD/svg11.dtd" >
<svg xmlns="http://www.w3.org/2000/svg">
<metadata></metadata>
<defs>
<font id="glyphicons_halflingsregular" horiz-adv-x="1200" >
<font-face units-per-em="1200" ascent="960" descent="-240" />
<missing-glyph horiz-adv-x="500" />
<glyph />
<glyph />
<glyph unicode=" " />
<glyph unicode="*" d="M1100 500h-259l183 -183l-141 -141l-183 183v-259h-200v259l-183 -183l-141 141l183 183h-259v200h259l-183 183l141 141l183 -183v259h200v-259l183 183l141 -141l-183 -183h259v-200z" />
<glyph unicode="+" d="M1100 400h-400v-400h-300v400h-400v300h400v400h300v-400h400v-300z" />
<glyph unicode="&#xa0;" />
<glyph unicode="&#x2000;" horiz-adv-x="652" />
<glyph unicode="&#x2001;" horiz-adv-x="1304" />
<glyph unicode="&#x2002;" horiz-adv-x="652" />
<glyph unicode="&#x2003;" horiz-adv-x="1304" />
<glyph unicode="&#x2004;" horiz-adv-x="434" />
<glyph unicode="&#x2005;" horiz-adv-x="326" />
<glyph unicode="&#x2006;" horiz-adv-x="217" />
<glyph unicode="&#x2007;" horiz-adv-x="217" />
<glyph unicode="&#x2008;" horiz-adv-x="163" />
<glyph unicode="&#x2009;" horiz-adv-x="260" />
<glyph unicode="&#x200a;" horiz-adv-x="72" />
<glyph unicode="&#x202f;" horiz-adv-x="260" />
<glyph unicode="&#x205f;" horiz-adv-x="326" />
<glyph unicode="&#x20ac;" d="M800 500h-300q9 -74 33 -132t52.5 -91t62 -54.5t59 -29t46.5 -7.5q29 0 66 13t75 37t63.5 67.5t25.5 96.5h174q-31 -172 -128 -278q-107 -117 -274 -117q-205 0 -324 158q-36 46 -69 131.5t-45 205.5h-217l100 100h113q0 47 5 100h-218l100 100h135q37 167 112 257 q117 141 297 141q242 0 354 -189q60 -103 66 -209h-181q0 55 -25.5 99t-63.5 68t-75 36.5t-67 12.5q-24 0 -52.5 -10t-62.5 -32t-65.5 -67t-50.5 -107h379l-100 -100h-300q-6 -46 -6 -100h406z" />
<glyph unicode="&#x2212;" d="M1100 700h-900v-300h900v300z" />
<glyph unicode="&#x2601;" d="M178 300h750q120 0 205 86t85 208q0 120 -85 206.5t-205 86.5q-46 0 -90 -14q-44 97 -134.5 156.5t-200.5 59.5q-152 0 -260 -107.5t-108 -260.5q0 -25 2 -37q-66 -14 -108.5 -67.5t-42.5 -122.5q0 -80 56.5 -137t135.5 -57z" />
<glyph unicode="&#x2709;" d="M1200 1100h-1200l600 -603zM300 600l-300 -300v600zM1200 900v-600l-300 300zM800 500l400 -400h-1200l400 400l200 -200z" />
<glyph unicode="&#x270f;" d="M1101 889l99 92q13 13 13 32.5t-13 33.5l-153 153q-15 13 -33 13t-33 -13l-94 -97zM401 189l614 614l-214 214l-614 -614zM-13 -13l333 112l-223 223z" />
<glyph unicode="&#xe000;" horiz-adv-x="500" d="M0 0z" />
<glyph unicode="&#xe001;" d="M700 100h300v-100h-800v100h300v550l-500 550h1200l-500 -550v-550z" />
<glyph unicode="&#xe002;" d="M1000 934v-521q-64 16 -138 -7q-79 -26 -122.5 -83t-25.5 -111q17 -55 85.5 -75.5t147.5 4.5q70 23 111.5 63.5t41.5 95.5v881q0 10 -7 15.5t-17 2.5l-752 -193q-10 -3 -17 -12.5t-7 -19.5v-689q-64 17 -138 -7q-79 -25 -122.5 -82t-25.5 -112t86 -75.5t147 5.5 q65 21 109 69t44 90v606z" />
<glyph unicode="&#xe003;" d="M913 432l300 -300q7 -8 7 -18t-7 -18l-109 -109q-8 -7 -18 -7t-18 7l-300 300q-119 -78 -261 -78q-200 0 -342 142t-142 342t142 342t342 142t342 -142t142 -342q0 -142 -78 -261zM176 693q0 -136 97 -233t234 -97t233.5 96.5t96.5 233.5t-96.5 233.5t-233.5 96.5 t-234 -97t-97 -233z" />
<glyph unicode="&#xe005;" d="M649 949q48 69 109.5 105t121.5 38t118.5 -20.5t102.5 -64t71 -100.5t27 -123q0 -57 -33.5 -117.5t-94 -124.5t-126.5 -127.5t-150 -152.5t-146 -174q-62 85 -145.5 174t-149.5 152.5t-126.5 127.5t-94 124.5t-33.5 117.5q0 64 28 123t73 100.5t104.5 64t119 20.5 t120 -38.5t104.5 -104.5z" />
<glyph unicode="&#xe006;" d="M791 522l145 -449l-384 275l-382 -275l146 447l-388 280h479l146 400h2l146 -400h472zM168 71l2 1z" />
<glyph unicode="&#xe007;" d="M791 522l145 -449l-384 275l-382 -275l146 447l-388 280h479l146 400h2l146 -400h472zM747 331l-74 229l193 140h-235l-77 211l-78 -211h-239l196 -142l-73 -226l192 140zM168 71l2 1z" />
<glyph unicode="&#xe008;" d="M1200 143v-143h-1200v143l400 257v100q-37 0 -68.5 74.5t-31.5 125.5v200q0 124 88 212t212 88t212 -88t88 -212v-200q0 -51 -31.5 -125.5t-68.5 -74.5v-100z" />
<glyph unicode="&#xe009;" d="M1200 1100v-1100h-1200v1100h1200zM200 1000h-100v-100h100v100zM900 1000h-600v-400h600v400zM1100 1000h-100v-100h100v100zM200 800h-100v-100h100v100zM1100 800h-100v-100h100v100zM200 600h-100v-100h100v100zM1100 600h-100v-100h100v100zM900 500h-600v-400h600 v400zM200 400h-100v-100h100v100zM1100 400h-100v-100h100v100zM200 200h-100v-100h100v100zM1100 200h-100v-100h100v100z" />
<glyph unicode="&#xe010;" d="M500 1050v-400q0 -21 -14.5 -35.5t-35.5 -14.5h-400q-21 0 -35.5 14.5t-14.5 35.5v400q0 21 14.5 35.5t35.5 14.5h400q21 0 35.5 -14.5t14.5 -35.5zM1100 1050v-400q0 -21 -14.5 -35.5t-35.5 -14.5h-400q-21 0 -35.5 14.5t-14.5 35.5v400q0 21 14.5 35.5t35.5 14.5h400 q21 0 35.5 -14.5t14.5 -35.5zM500 450v-400q0 -21 -14.5 -35.5t-35.5 -14.5h-400q-21 0 -35.5 14.5t-14.5 35.5v400q0 21 14.5 35.5t35.5 14.5h400q21 0 35.5 -14.5t14.5 -35.5zM1100 450v-400q0 -21 -14.5 -35.5t-35.5 -14.5h-400q-21 0 -35.5 14.5t-14.5 35.5v400 q0 21 14.5 35.5t35.5 14.5h400q21 0 35.5 -14.5t14.5 -35.5z" />
<glyph unicode="&#xe011;" d="M300 1050v-200q0 -21 -14.5 -35.5t-35.5 -14.5h-200q-21 0 -35.5 14.5t-14.5 35.5v200q0 21 14.5 35.5t35.5 14.5h200q21 0 35.5 -14.5t14.5 -35.5zM700 1050v-200q0 -21 -14.5 -35.5t-35.5 -14.5h-200q-21 0 -35.5 14.5t-14.5 35.5v200q0 21 14.5 35.5t35.5 14.5h200 q21 0 35.5 -14.5t14.5 -35.5zM1100 1050v-200q0 -21 -14.5 -35.5t-35.5 -14.5h-200q-21 0 -35.5 14.5t-14.5 35.5v200q0 21 14.5 35.5t35.5 14.5h200q21 0 35.5 -14.5t14.5 -35.5zM300 650v-200q0 -21 -14.5 -35.5t-35.5 -14.5h-200q-21 0 -35.5 14.5t-14.5 35.5v200 q0 21 14.5 35.5t35.5 14.5h200q21 0 35.5 -14.5t14.5 -35.5zM700 650v-200q0 -21 -14.5 -35.5t-35.5 -14.5h-200q-21 0 -35.5 14.5t-14.5 35.5v200q0 21 14.5 35.5t35.5 14.5h200q21 0 35.5 -14.5t14.5 -35.5zM1100 650v-200q0 -21 -14.5 -35.5t-35.5 -14.5h-200 q-21 0 -35.5 14.5t-14.5 35.5v200q0 21 14.5 35.5t35.5 14.5h200q21 0 35.5 -14.5t14.5 -35.5zM300 250v-200q0 -21 -14.5 -35.5t-35.5 -14.5h-200q-21 0 -35.5 14.5t-14.5 35.5v200q0 21 14.5 35.5t35.5 14.5h200q21 0 35.5 -14.5t14.5 -35.5zM700 250v-200 q0 -21 -14.5 -35.5t-35.5 -14.5h-200q-21 0 -35.5 14.5t-14.5 35.5v200q0 21 14.5 35.5t35.5 14.5h200q21 0 35.5 -14.5t14.5 -35.5zM1100 250v-200q0 -21 -14.5 -35.5t-35.5 -14.5h-200q-21 0 -35.5 14.5t-14.5 35.5v200q0 21 14.5 35.5t35.5 14.5h200q21 0 35.5 -14.5 t14.5 -35.5z" />
<glyph unicode="&#xe012;" d="M300 1050v-200q0 -21 -14.5 -35.5t-35.5 -14.5h-200q-21 0 -35.5 14.5t-14.5 35.5v200q0 21 14.5 35.5t35.5 14.5h200q21 0 35.5 -14.5t14.5 -35.5zM1200 1050v-200q0 -21 -14.5 -35.5t-35.5 -14.5h-700q-21 0 -35.5 14.5t-14.5 35.5v200q0 21 14.5 35.5t35.5 14.5h700 q21 0 35.5 -14.5t14.5 -35.5zM300 450v200q0 21 -14.5 35.5t-35.5 14.5h-200q-21 0 -35.5 -14.5t-14.5 -35.5v-200q0 -21 14.5 -35.5t35.5 -14.5h200q21 0 35.5 14.5t14.5 35.5zM1200 650v-200q0 -21 -14.5 -35.5t-35.5 -14.5h-700q-21 0 -35.5 14.5t-14.5 35.5v200 q0 21 14.5 35.5t35.5 14.5h700q21 0 35.5 -14.5t14.5 -35.5zM300 250v-200q0 -21 -14.5 -35.5t-35.5 -14.5h-200q-21 0 -35.5 14.5t-14.5 35.5v200q0 21 14.5 35.5t35.5 14.5h200q21 0 35.5 -14.5t14.5 -35.5zM1200 250v-200q0 -21 -14.5 -35.5t-35.5 -14.5h-700 q-21 0 -35.5 14.5t-14.5 35.5v200q0 21 14.5 35.5t35.5 14.5h700q21 0 35.5 -14.5t14.5 -35.5z" />
<glyph unicode="&#xe013;" d="M448 34l818 820l-212 212l-607 -607l-206 207l-212 -212z" />
<glyph unicode="&#xe014;" d="M882 106l-282 282l-282 -282l-212 212l282 282l-282 282l212 212l282 -282l282 282l212 -212l-282 -282l282 -282z" />
<glyph unicode="&#xe015;" d="M913 432l300 -300q7 -8 7 -18t-7 -18l-109 -109q-8 -7 -18 -7t-18 7l-300 300q-119 -78 -261 -78q-200 0 -342 142t-142 342t142 342t342 142t342 -142t142 -342q0 -142 -78 -261zM507 363q137 0 233.5 96.5t96.5 233.5t-96.5 233.5t-233.5 96.5t-234 -97t-97 -233 t97 -233t234 -97zM600 800h100v-200h-100v-100h-200v100h-100v200h100v100h200v-100z" />
<glyph unicode="&#xe016;" d="M913 432l300 -299q7 -7 7 -18t-7 -18l-109 -109q-8 -8 -18 -8t-18 8l-300 299q-120 -77 -261 -77q-200 0 -342 142t-142 342t142 342t342 142t342 -142t142 -342q0 -141 -78 -262zM176 694q0 -136 97 -233t234 -97t233.5 97t96.5 233t-96.5 233t-233.5 97t-234 -97 t-97 -233zM300 801v-200h400v200h-400z" />
<glyph unicode="&#xe017;" d="M700 750v400q0 21 -14.5 35.5t-35.5 14.5h-100q-21 0 -35.5 -14.5t-14.5 -35.5v-400q0 -21 14.5 -35.5t35.5 -14.5h100q21 0 35.5 14.5t14.5 35.5zM800 975v166q167 -62 272 -210t105 -331q0 -118 -45.5 -224.5t-123 -184t-184 -123t-224.5 -45.5t-224.5 45.5t-184 123 t-123 184t-45.5 224.5q0 183 105 331t272 210v-166q-103 -55 -165 -155t-62 -220q0 -177 125 -302t302 -125t302 125t125 302q0 120 -62 220t-165 155z" />
<glyph unicode="&#xe018;" d="M1200 1h-200v1200h200v-1200zM900 1h-200v800h200v-800zM600 1h-200v500h200v-500zM300 301h-200v-300h200v300z" />
<glyph unicode="&#xe019;" d="M488 183l38 -151q40 -5 74 -5q27 0 74 5l38 151l6 2q46 13 93 39l5 3l134 -81q56 44 104 105l-80 134l3 5q24 44 39 93l1 6l152 38q5 40 5 74q0 28 -5 73l-152 38l-1 6q-16 51 -39 93l-3 5l80 134q-44 58 -104 105l-134 -81l-5 3q-45 25 -93 39l-6 1l-38 152q-40 5 -74 5 q-27 0 -74 -5l-38 -152l-5 -1q-50 -14 -94 -39l-5 -3l-133 81q-59 -47 -105 -105l80 -134l-3 -5q-25 -47 -38 -93l-2 -6l-151 -38q-6 -48 -6 -73q0 -33 6 -74l151 -38l2 -6q14 -49 38 -93l3 -5l-80 -134q45 -59 105 -105l133 81l5 -3q45 -26 94 -39zM600 815q89 0 152 -63 t63 -151q0 -89 -63 -152t-152 -63t-152 63t-63 152q0 88 63 151t152 63z" />
<glyph unicode="&#xe020;" d="M900 1100h275q10 0 17.5 -7.5t7.5 -17.5v-50q0 -11 -7 -18t-18 -7h-1050q-11 0 -18 7t-7 18v50q0 10 7.5 17.5t17.5 7.5h275v100q0 41 29.5 70.5t70.5 29.5h300q41 0 70.5 -29.5t29.5 -70.5v-100zM800 1100v100h-300v-100h300zM200 900h900v-800q0 -41 -29.5 -71 t-70.5 -30h-700q-41 0 -70.5 30t-29.5 71v800zM300 100h100v700h-100v-700zM500 100h100v700h-100v-700zM700 100h100v700h-100v-700zM900 100h100v700h-100v-700z" />
<glyph unicode="&#xe021;" d="M1301 601h-200v-600h-300v400h-300v-400h-300v600h-200l656 644z" />
<glyph unicode="&#xe022;" d="M600 700h400v-675q0 -11 -7 -18t-18 -7h-850q-11 0 -18 7t-7 18v1150q0 11 7 18t18 7h475v-500zM1000 800h-300v300z" />
<glyph unicode="&#xe023;" d="M600 1196q162 0 299 -80t217 -217t80 -299t-80 -299t-217 -217t-299 -80t-299 80t-217 217t-80 299t80 299t217 217t299 80zM600 1014q-171 0 -292.5 -121.5t-121.5 -292.5t121.5 -292.5t292.5 -121.5t292.5 121.5t121.5 292.5t-121.5 292.5t-292.5 121.5zM600 600h200 v-100h-300v400h100v-300z" />
<glyph unicode="&#xe024;" d="M721 400h-242l-40 -400h-539l431 1200h209l-21 -300h162l-20 300h208l431 -1200h-538zM712 500l-27 300h-170l-27 -300h224z" />
<glyph unicode="&#xe025;" d="M1100 400v-400h-1100v400h490l-290 300h200v500h300v-500h200l-290 -300h490zM988 300h-175v-100h175v100z" />
<glyph unicode="&#xe026;" d="M600 1199q122 0 233 -47.5t191 -127.5t127.5 -191t47.5 -233t-47.5 -233t-127.5 -191t-191 -127.5t-233 -47.5t-233 47.5t-191 127.5t-127.5 191t-47.5 233t47.5 233t127.5 191t191 127.5t233 47.5zM600 1012q-170 0 -291 -121t-121 -291t121 -291t291 -121t291 121 t121 291t-121 291t-291 121zM700 600h150l-250 -300l-250 300h150v300h200v-300z" />
<glyph unicode="&#xe027;" d="M600 1196q162 0 299 -80t217 -217t80 -299t-80 -299t-217 -217t-299 -80t-299 80t-217 217t-80 299t80 299t217 217t299 80zM600 1014q-171 0 -292.5 -121.5t-121.5 -292.5t121.5 -292.5t292.5 -121.5t292.5 121.5t121.5 292.5t-121.5 292.5t-292.5 121.5zM850 600h-150 v-300h-200v300h-150l250 300z" />
<glyph unicode="&#xe028;" d="M0 500l200 700h800q199 -700 200 -700v-475q0 -11 -7 -18t-18 -7h-1150q-11 0 -18 7t-7 18v475zM903 1000h-606l-97 -500h200l50 -200h300l50 200h200z" />
<glyph unicode="&#xe029;" d="M600 1196q162 0 299 -80t217 -217t80 -299t-80 -299t-217 -217t-299 -80t-299 80t-217 217t-80 299t80 299t217 217t299 80zM600 1014q-171 0 -292.5 -121.5t-121.5 -292.5q0 -172 121.5 -293t292.5 -121t292.5 121t121.5 293q0 171 -121.5 292.5t-292.5 121.5zM797 598 l-297 -201v401z" />
<glyph unicode="&#xe030;" d="M1177 600h-150q0 -177 -125 -302t-302 -125t-302 125t-125 302t125 302t302 125q136 0 246 -81l-146 -146h400v400l-145 -145q-157 122 -355 122q-118 0 -224.5 -45.5t-184 -123t-123 -184t-45.5 -224.5t45.5 -224.5t123 -184t184 -123t224.5 -45.5t224.5 45.5t184 123 t123 184t45.5 224.5z" />
<glyph unicode="&#xe031;" d="M700 800l147 147q-112 80 -247 80q-177 0 -302 -125t-125 -302h-150q0 118 45.5 224.5t123 184t184 123t224.5 45.5q198 0 355 -122l145 145v-400h-400zM500 400l-147 -147q112 -80 247 -80q177 0 302 125t125 302h150q0 -118 -45.5 -224.5t-123 -184t-184 -123 t-224.5 -45.5q-198 0 -355 122l-145 -145v400h400z" />
<glyph unicode="&#xe032;" d="M100 1200v-1200h1100v1200h-1100zM1100 100h-900v900h900v-900zM400 800h-100v100h100v-100zM1000 800h-500v100h500v-100zM400 600h-100v100h100v-100zM1000 600h-500v100h500v-100zM400 400h-100v100h100v-100zM1000 400h-500v100h500v-100zM400 200h-100v100h100v-100 zM1000 300h-500v-100h500v100z" />
<glyph unicode="&#xe034;" d="M200 0h-100v1100h100v-1100zM1100 600v500q-40 -81 -101.5 -115.5t-127.5 -29.5t-138 25t-139.5 40t-125.5 25t-103 -29.5t-65 -115.5v-500q60 60 127.5 84t127.5 17.5t122 -23t119 -30t110 -11t103 42t91 120.5z" />
<glyph unicode="&#xe035;" d="M1200 275v300q0 116 -49.5 227t-131 192.5t-192.5 131t-227 49.5t-227 -49.5t-192.5 -131t-131 -192.5t-49.5 -227v-300q0 -11 7 -18t18 -7h50q11 0 18 7t7 18v300q0 127 70.5 231.5t184.5 161.5t245 57t245 -57t184.5 -161.5t70.5 -231.5v-300q0 -11 7 -18t18 -7h50 q11 0 18 7t7 18zM400 480v-460q0 -8 -6 -14t-14 -6h-160q-8 0 -14 6t-6 14v460q0 8 6 14t14 6h160q8 0 14 -6t6 -14zM1000 480v-460q0 -8 -6 -14t-14 -6h-160q-8 0 -14 6t-6 14v460q0 8 6 14t14 6h160q8 0 14 -6t6 -14z" />
<glyph unicode="&#xe036;" d="M0 800v-400h300l300 -200v800l-300 -200h-300zM971 600l141 -141l-71 -71l-141 141l-141 -141l-71 71l141 141l-141 141l71 71l141 -141l141 141l71 -71z" />
<glyph unicode="&#xe037;" d="M0 800v-400h300l300 -200v800l-300 -200h-300zM700 857l69 53q111 -135 111 -310q0 -169 -106 -302l-67 54q86 110 86 248q0 146 -93 257z" />
<glyph unicode="&#xe038;" d="M974 186l6 8q142 178 142 405q0 230 -144 408l-6 8l-83 -64l7 -8q123 -151 123 -344q0 -189 -119 -339l-7 -8zM300 801l300 200v-800l-300 200h-300v400h300zM702 858l69 53q111 -135 111 -310q0 -170 -106 -303l-67 55q86 110 86 248q0 145 -93 257z" />
<glyph unicode="&#xe039;" d="M100 700h400v100h100v100h-100v300h-500v-600h100v100zM1200 700v500h-600v-200h100v-300h200v-300h300v200h-200v100h200zM100 1100h300v-300h-300v300zM800 800v300h300v-300h-300zM200 900h100v100h-100v-100zM900 1000h100v-100h-100v100zM300 600h-100v-100h-200 v-500h500v500h-200v100zM900 200v-100h-200v100h-100v100h100v200h-200v100h300v-300h200v-100h-100zM400 400v-300h-300v300h300zM300 200h-100v100h100v-100zM1100 300h100v-100h-100v100zM600 100h100v-100h-100v100zM1200 100v-100h-300v100h300z" />
<glyph unicode="&#xe040;" d="M100 1200h-100v-1000h100v1000zM300 200h-100v1000h100v-1000zM700 200h-200v1000h200v-1000zM900 200h-100v1000h100v-1000zM1200 1200v-1000h-200v1000h200zM400 100v-100h-300v100h300zM500 91h100v-91h-100v91zM700 91h100v-91h-100v91zM1100 91v-91h-200v91h200z " />
<glyph unicode="&#xe041;" d="M1200 500l-500 -500l-699 700v475q0 10 7.5 17.5t17.5 7.5h474zM320 882q29 29 29 71t-29 71q-30 30 -71.5 30t-71.5 -30q-29 -29 -29 -71t29 -71q30 -30 71.5 -30t71.5 30z" />
<glyph unicode="&#xe042;" d="M1201 500l-500 -500l-699 700v475q0 11 7 18t18 7h474zM1501 500l-500 -500l-50 50l450 450l-700 700h100zM320 882q30 29 30 71t-30 71q-29 30 -71 30t-71 -30q-30 -29 -30 -71t30 -71q29 -30 71 -30t71 30z" />
<glyph unicode="&#xe043;" d="M1200 1200v-1000l-100 -100v1000h-750l-100 -100h750v-1000h-900v1025l175 175h925z" />
<glyph unicode="&#xe045;" d="M947 829l-94 346q-2 11 -10 18t-18 7h-450q-10 0 -18 -7t-10 -18l-94 -346l40 -124h592zM1200 800v-700h-200v200h-800v-200h-200v700h200l100 -200h600l100 200h200zM881 176l38 -152q2 -10 -3.5 -17t-15.5 -7h-600q-10 0 -15.5 7t-3.5 17l38 152q2 10 11.5 17t19.5 7 h500q10 0 19.5 -7t11.5 -17z" />
<glyph unicode="&#xe047;" d="M1200 0v66q-34 1 -74 43q-18 19 -33 42t-21 37l-6 13l-385 998h-93l-399 -1006q-24 -48 -52 -75q-12 -12 -33 -25t-36 -20l-15 -7v-66h365v66q-41 0 -72 11t-49 38t1 71l92 234h391l82 -222q16 -45 -5.5 -88.5t-74.5 -43.5v-66h417zM416 521l178 457l46 -140l116 -317 h-340z" />
<glyph unicode="&#xe048;" d="M100 1199h471q120 0 213 -88t93 -228q0 -55 -11.5 -101.5t-28 -74t-33.5 -47.5t-28 -28l-12 -7q8 -3 21.5 -9t48 -31.5t60.5 -58t47.5 -91.5t21.5 -129q0 -84 -59 -156.5t-142 -111t-162 -38.5h-500v89q41 7 70.5 32.5t29.5 65.5v827q0 28 -1 39.5t-5.5 26t-15.5 21 t-29 14t-49 14.5v70zM400 1079v-379h139q76 0 130 61.5t54 138.5q0 82 -84 130.5t-239 48.5zM400 200h161q89 0 153 48.5t64 132.5q0 90 -62.5 154.5t-156.5 64.5h-159v-400z" />
<glyph unicode="&#xe049;" d="M877 1200l2 -57q-33 -8 -62 -25.5t-46 -37t-29.5 -38t-17.5 -30.5l-5 -12l-128 -825q-10 -52 14 -82t95 -36v-57h-500v57q77 7 134.5 40.5t65.5 80.5l173 849q10 56 -10 74t-91 37q-6 1 -10.5 2.5t-9.5 2.5v57h425z" />
<glyph unicode="&#xe050;" d="M1150 1200h150v-300h-50q0 29 -8 48.5t-18.5 30t-33.5 15t-39.5 5.5t-50.5 1h-200v-850l100 -50v-100h-400v100l100 50v850h-200q-34 0 -50.5 -1t-40 -5.5t-33.5 -15t-18.5 -30t-8.5 -48.5h-49v300h150h700zM100 1000v-800h75l-125 -167l-125 167h75v800h-75l125 167 l125 -167h-75z" />
<glyph unicode="&#xe051;" d="M950 1201h150v-300h-50q0 29 -8 48.5t-18 30t-33.5 15t-40 5.5t-50.5 1h-200v-650l100 -50v-100h-400v100l100 50v650h-200q-34 0 -50.5 -1t-39.5 -5.5t-33.5 -15t-18.5 -30t-8 -48.5h-50v300h150h700zM200 101h800v75l167 -125l-167 -125v75h-800v-75l-167 125l167 125 v-75z" />
<glyph unicode="&#xe052;" d="M700 950v100q0 21 -14.5 35.5t-35.5 14.5h-600q-21 0 -35.5 -14.5t-14.5 -35.5v-100q0 -20 14.5 -35t35.5 -15h600q21 0 35.5 15t14.5 35zM1100 650v100q0 21 -14.5 35.5t-35.5 14.5h-1000q-21 0 -35.5 -14.5t-14.5 -35.5v-100q0 -20 14.5 -35t35.5 -15h1000 q21 0 35.5 15t14.5 35zM900 350v100q0 21 -14.5 35.5t-35.5 14.5h-800q-21 0 -35.5 -14.5t-14.5 -35.5v-100q0 -20 14.5 -35t35.5 -15h800q21 0 35.5 15t14.5 35zM1200 50v100q0 21 -14.5 35.5t-35.5 14.5h-1100q-21 0 -35.5 -14.5t-14.5 -35.5v-100q0 -20 14.5 -35 t35.5 -15h1100q21 0 35.5 15t14.5 35z" />
<glyph unicode="&#xe053;" d="M1000 950v100q0 21 -14.5 35.5t-35.5 14.5h-700q-21 0 -35.5 -14.5t-14.5 -35.5v-100q0 -20 14.5 -35t35.5 -15h700q21 0 35.5 15t14.5 35zM1200 650v100q0 21 -14.5 35.5t-35.5 14.5h-1100q-21 0 -35.5 -14.5t-14.5 -35.5v-100q0 -20 14.5 -35t35.5 -15h1100 q21 0 35.5 15t14.5 35zM1000 350v100q0 21 -14.5 35.5t-35.5 14.5h-700q-21 0 -35.5 -14.5t-14.5 -35.5v-100q0 -20 14.5 -35t35.5 -15h700q21 0 35.5 15t14.5 35zM1200 50v100q0 21 -14.5 35.5t-35.5 14.5h-1100q-21 0 -35.5 -14.5t-14.5 -35.5v-100q0 -20 14.5 -35 t35.5 -15h1100q21 0 35.5 15t14.5 35z" />
<glyph unicode="&#xe054;" d="M500 950v100q0 21 14.5 35.5t35.5 14.5h600q21 0 35.5 -14.5t14.5 -35.5v-100q0 -20 -14.5 -35t-35.5 -15h-600q-21 0 -35.5 15t-14.5 35zM100 650v100q0 21 14.5 35.5t35.5 14.5h1000q21 0 35.5 -14.5t14.5 -35.5v-100q0 -20 -14.5 -35t-35.5 -15h-1000q-21 0 -35.5 15 t-14.5 35zM300 350v100q0 21 14.5 35.5t35.5 14.5h800q21 0 35.5 -14.5t14.5 -35.5v-100q0 -20 -14.5 -35t-35.5 -15h-800q-21 0 -35.5 15t-14.5 35zM0 50v100q0 21 14.5 35.5t35.5 14.5h1100q21 0 35.5 -14.5t14.5 -35.5v-100q0 -20 -14.5 -35t-35.5 -15h-1100 q-21 0 -35.5 15t-14.5 35z" />
<glyph unicode="&#xe055;" d="M0 950v100q0 21 14.5 35.5t35.5 14.5h1100q21 0 35.5 -14.5t14.5 -35.5v-100q0 -20 -14.5 -35t-35.5 -15h-1100q-21 0 -35.5 15t-14.5 35zM0 650v100q0 21 14.5 35.5t35.5 14.5h1100q21 0 35.5 -14.5t14.5 -35.5v-100q0 -20 -14.5 -35t-35.5 -15h-1100q-21 0 -35.5 15 t-14.5 35zM0 350v100q0 21 14.5 35.5t35.5 14.5h1100q21 0 35.5 -14.5t14.5 -35.5v-100q0 -20 -14.5 -35t-35.5 -15h-1100q-21 0 -35.5 15t-14.5 35zM0 50v100q0 21 14.5 35.5t35.5 14.5h1100q21 0 35.5 -14.5t14.5 -35.5v-100q0 -20 -14.5 -35t-35.5 -15h-1100 q-21 0 -35.5 15t-14.5 35z" />
<glyph unicode="&#xe056;" d="M0 950v100q0 21 14.5 35.5t35.5 14.5h100q21 0 35.5 -14.5t14.5 -35.5v-100q0 -20 -14.5 -35t-35.5 -15h-100q-21 0 -35.5 15t-14.5 35zM300 950v100q0 21 14.5 35.5t35.5 14.5h800q21 0 35.5 -14.5t14.5 -35.5v-100q0 -20 -14.5 -35t-35.5 -15h-800q-21 0 -35.5 15 t-14.5 35zM0 650v100q0 21 14.5 35.5t35.5 14.5h100q21 0 35.5 -14.5t14.5 -35.5v-100q0 -20 -14.5 -35t-35.5 -15h-100q-21 0 -35.5 15t-14.5 35zM300 650v100q0 21 14.5 35.5t35.5 14.5h800q21 0 35.5 -14.5t14.5 -35.5v-100q0 -20 -14.5 -35t-35.5 -15h-800 q-21 0 -35.5 15t-14.5 35zM0 350v100q0 21 14.5 35.5t35.5 14.5h100q21 0 35.5 -14.5t14.5 -35.5v-100q0 -20 -14.5 -35t-35.5 -15h-100q-21 0 -35.5 15t-14.5 35zM300 350v100q0 21 14.5 35.5t35.5 14.5h800q21 0 35.5 -14.5t14.5 -35.5v-100q0 -20 -14.5 -35t-35.5 -15 h-800q-21 0 -35.5 15t-14.5 35zM0 50v100q0 21 14.5 35.5t35.5 14.5h100q21 0 35.5 -14.5t14.5 -35.5v-100q0 -20 -14.5 -35t-35.5 -15h-100q-21 0 -35.5 15t-14.5 35zM300 50v100q0 21 14.5 35.5t35.5 14.5h800q21 0 35.5 -14.5t14.5 -35.5v-100q0 -20 -14.5 -35t-35.5 -15 h-800q-21 0 -35.5 15t-14.5 35z" />
<glyph unicode="&#xe057;" d="M400 1100h-100v-1100h100v1100zM700 950v100q0 21 -15 35.5t-35 14.5h-100q-21 0 -35.5 -14.5t-14.5 -35.5v-100q0 -20 14.5 -35t35.5 -15h100q20 0 35 15t15 35zM1100 650v100q0 21 -15 35.5t-35 14.5h-500q-21 0 -35.5 -14.5t-14.5 -35.5v-100q0 -20 14.5 -35t35.5 -15 h500q20 0 35 15t15 35zM100 425v75h-201v100h201v75l166 -125zM900 350v100q0 21 -15 35.5t-35 14.5h-300q-21 0 -35.5 -14.5t-14.5 -35.5v-100q0 -20 14.5 -35t35.5 -15h300q20 0 35 15t15 35zM1200 50v100q0 21 -15 35.5t-35 14.5h-600q-21 0 -35.5 -14.5t-14.5 -35.5 v-100q0 -20 14.5 -35t35.5 -15h600q20 0 35 15t15 35z" />
<glyph unicode="&#xe058;" d="M201 950v100q0 21 -15 35.5t-35 14.5h-100q-21 0 -35.5 -14.5t-14.5 -35.5v-100q0 -20 14.5 -35t35.5 -15h100q20 0 35 15t15 35zM801 1100h100v-1100h-100v1100zM601 650v100q0 21 -15 35.5t-35 14.5h-500q-21 0 -35.5 -14.5t-14.5 -35.5v-100q0 -20 14.5 -35t35.5 -15 h500q20 0 35 15t15 35zM1101 425v75h200v100h-200v75l-167 -125zM401 350v100q0 21 -15 35.5t-35 14.5h-300q-21 0 -35.5 -14.5t-14.5 -35.5v-100q0 -20 14.5 -35t35.5 -15h300q20 0 35 15t15 35zM701 50v100q0 21 -15 35.5t-35 14.5h-600q-21 0 -35.5 -14.5t-14.5 -35.5 v-100q0 -20 14.5 -35t35.5 -15h600q20 0 35 15t15 35z" />
<glyph unicode="&#xe059;" d="M900 925v-650q0 -31 -22 -53t-53 -22h-750q-31 0 -53 22t-22 53v650q0 31 22 53t53 22h750q31 0 53 -22t22 -53zM1200 300l-300 300l300 300v-600z" />
<glyph unicode="&#xe060;" d="M1200 1056v-1012q0 -18 -12.5 -31t-31.5 -13h-1112q-18 0 -31 13t-13 31v1012q0 18 13 31t31 13h1112q19 0 31.5 -13t12.5 -31zM1100 1000h-1000v-737l247 182l298 -131l-74 156l293 318l236 -288v500zM476 750q0 -56 -39 -95t-95 -39t-95 39t-39 95t39 95t95 39t95 -39 t39 -95z" />
<glyph unicode="&#xe062;" d="M600 1213q123 0 227 -63t164.5 -169.5t60.5 -229.5t-73 -272q-73 -114 -166.5 -237t-150.5 -189l-57 -66q-10 9 -27 26t-66.5 70.5t-96 109t-104 135.5t-100.5 155q-63 139 -63 262q0 124 60.5 231.5t165 172t226.5 64.5zM599 514q107 0 182.5 75.5t75.5 182.5t-75.5 182 t-182.5 75t-182 -75.5t-75 -181.5q0 -107 75.5 -182.5t181.5 -75.5z" />
<glyph unicode="&#xe063;" d="M600 1199q122 0 233 -47.5t191 -127.5t127.5 -191t47.5 -233t-47.5 -233t-127.5 -191t-191 -127.5t-233 -47.5t-233 47.5t-191 127.5t-127.5 191t-47.5 233t47.5 233t127.5 191t191 127.5t233 47.5zM600 173v854q-176 0 -301.5 -125t-125.5 -302t125.5 -302t301.5 -125z " />
<glyph unicode="&#xe064;" d="M554 1295q21 -71 57.5 -142.5t76 -130.5t83 -118.5t82 -117t70 -116t50 -125.5t18.5 -136q0 -89 -39 -165.5t-102 -126.5t-140 -79.5t-156 -33.5q-114 6 -211.5 53t-161.5 138.5t-64 210.5q0 94 34 186t88.5 172.5t112 159t115 177t87.5 194.5zM455 296q-7 6 -18 17 t-34 48t-33 77q-15 73 -14 143.5t10 122.5l9 51q-92 -110 -119.5 -185t-12.5 -156q14 -82 59.5 -136t136.5 -80z" />
<glyph unicode="&#xe065;" d="M1108 902l113 113l-21 85l-92 28l-113 -113zM1100 625v-225q0 -165 -117.5 -282.5t-282.5 -117.5h-300q-165 0 -282.5 117.5t-117.5 282.5v300q0 165 117.5 282.5t282.5 117.5q366 -6 397 -14l-186 -186h-311q-41 0 -70.5 -29.5t-29.5 -70.5v-500q0 -41 29.5 -70.5 t70.5 -29.5h500q41 0 70.5 29.5t29.5 70.5v125zM436 341l161 50l412 412l-114 113l-405 -405z" />
<glyph unicode="&#xe066;" d="M1100 453v-53q0 -165 -117.5 -282.5t-282.5 -117.5h-300q-165 0 -282.5 117.5t-117.5 282.5v300q0 165 117.5 282.5t282.5 117.5h261l2 -80q-133 -32 -218 -120h-145q-41 0 -70.5 -29.5t-29.5 -70.5v-500q0 -41 29.5 -70.5t70.5 -29.5h500q41 0 70.5 29.5t29.5 70.5z M813 431l360 324l-359 318v-216q-7 0 -19 -1t-48 -8t-69.5 -18.5t-76.5 -37t-76.5 -59t-62 -88t-39.5 -121.5q30 38 81.5 64t103 35.5t99 14t77.5 3.5l29 -1v-209z" />
<glyph unicode="&#xe067;" d="M1100 569v-169q0 -165 -117.5 -282.5t-282.5 -117.5h-300q-165 0 -282.5 117.5t-117.5 282.5v300q0 165 117.5 282.5t282.5 117.5h300q60 0 127 -23l-178 -177h-349q-41 0 -70.5 -29.5t-29.5 -70.5v-500q0 -41 29.5 -70.5t70.5 -29.5h500q41 0 70.5 29.5t29.5 70.5v69z M625 348l566 567l-136 137l-430 -431l-147 147l-136 -136z" />
<glyph unicode="&#xe068;" d="M900 303v198h-200v-200h195l-295 -300l-300 300h200v200h-200v-198l-300 300l300 296v-198h200v200h-200l300 300l295 -300h-195v-200h200v198l300 -296z" />
<glyph unicode="&#xe069;" d="M900 0l-500 488v-438q0 -21 -14.5 -35.5t-35.5 -14.5h-100q-21 0 -35.5 14.5t-14.5 35.5v1000q0 21 14.5 35.5t35.5 14.5h100q21 0 35.5 -14.5t14.5 -35.5v-437l500 487v-1100z" />
<glyph unicode="&#xe070;" d="M1200 0l-500 488v-488l-500 488v-438q0 -21 -14.5 -35.5t-35.5 -14.5h-100q-21 0 -35.5 14.5t-14.5 35.5v1000q0 21 14.5 35.5t35.5 14.5h100q21 0 35.5 -14.5t14.5 -35.5v-437l500 487v-487l500 487v-1100z" />
<glyph unicode="&#xe071;" d="M1200 0l-500 488v-488l-564 550l564 550v-487l500 487v-1100z" />
<glyph unicode="&#xe072;" d="M1100 550l-900 550v-1100z" />
<glyph unicode="&#xe073;" d="M500 150v800q0 21 -14.5 35.5t-35.5 14.5h-200q-21 0 -35.5 -14.5t-14.5 -35.5v-800q0 -21 14.5 -35.5t35.5 -14.5h200q21 0 35.5 14.5t14.5 35.5zM900 150v800q0 21 -14.5 35.5t-35.5 14.5h-200q-21 0 -35.5 -14.5t-14.5 -35.5v-800q0 -21 14.5 -35.5t35.5 -14.5h200 q21 0 35.5 14.5t14.5 35.5z" />
<glyph unicode="&#xe074;" d="M1100 150v800q0 21 -14.5 35.5t-35.5 14.5h-800q-21 0 -35.5 -14.5t-14.5 -35.5v-800q0 -20 14.5 -35t35.5 -15h800q21 0 35.5 15t14.5 35z" />
<glyph unicode="&#xe075;" d="M500 0v488l-500 -488v1100l500 -487v487l564 -550z" />
<glyph unicode="&#xe076;" d="M1050 1100h100q21 0 35.5 -14.5t14.5 -35.5v-1000q0 -21 -14.5 -35.5t-35.5 -14.5h-100q-21 0 -35.5 14.5t-14.5 35.5v438l-500 -488v488l-500 -488v1100l500 -487v487l500 -487v437q0 21 14.5 35.5t35.5 14.5z" />
<glyph unicode="&#xe077;" d="M850 1100h100q21 0 35.5 -14.5t14.5 -35.5v-1000q0 -21 -14.5 -35.5t-35.5 -14.5h-100q-21 0 -35.5 14.5t-14.5 35.5v438l-500 -488v1100l500 -487v437q0 21 14.5 35.5t35.5 14.5z" />
<glyph unicode="&#xe078;" d="M650 1064l-550 -564h1100zM1200 350v-100q0 -21 -14.5 -35.5t-35.5 -14.5h-1000q-21 0 -35.5 14.5t-14.5 35.5v100q0 21 14.5 35.5t35.5 14.5h1000q21 0 35.5 -14.5t14.5 -35.5z" />
<glyph unicode="&#xe079;" d="M777 7l240 240l-353 353l353 353l-240 240l-592 -594z" />
<glyph unicode="&#xe080;" d="M513 -46l-241 240l353 353l-353 353l241 240l572 -571l21 -22l-1 -1v-1z" />
<glyph unicode="&#xe081;" d="M600 1197q162 0 299.5 -80t217.5 -217.5t80 -299.5t-80 -299.5t-217.5 -217.5t-299.5 -80t-299.5 80t-217.5 217.5t-80 299.5t80 299.5t217.5 217.5t299.5 80zM500 900v-200h-200v-200h200v-200h200v200h200v200h-200v200h-200z" />
<glyph unicode="&#xe082;" d="M600 1197q162 0 299.5 -80t217.5 -217.5t80 -299.5t-80 -299.5t-217.5 -217.5t-299.5 -80t-299.5 80t-217.5 217.5t-80 299.5t80 299.5t217.5 217.5t299.5 80zM300 700v-200h600v200h-600z" />
<glyph unicode="&#xe083;" d="M600 1197q162 0 299.5 -80t217.5 -217.5t80 -299.5t-80 -299.5t-217.5 -217.5t-299.5 -80t-299.5 80t-217.5 217.5t-80 299.5t80 299.5t217.5 217.5t299.5 80zM247 741l141 -141l-142 -141l213 -213l141 142l141 -142l213 213l-142 141l142 141l-213 212l-141 -141 l-141 142z" />
<glyph unicode="&#xe084;" d="M600 1197q162 0 299.5 -80t217.5 -217.5t80 -299.5t-80 -299.5t-217.5 -217.5t-299.5 -80t-299.5 80t-217.5 217.5t-80 299.5t80 299.5t217.5 217.5t299.5 80zM546 623l-102 102l-174 -174l276 -277l411 411l-175 174z" />
<glyph unicode="&#xe085;" d="M600 1197q162 0 299.5 -80t217.5 -217.5t80 -299.5t-80 -299.5t-217.5 -217.5t-299.5 -80t-299.5 80t-217.5 217.5t-80 299.5t80 299.5t217.5 217.5t299.5 80zM500 500h200q5 3 14 8t31.5 25.5t39.5 45.5t31 69t14 94q0 51 -17.5 89t-42 58t-58.5 32t-58.5 15t-51.5 3 q-105 0 -172 -56t-67 -183h144q4 0 11.5 -1t11 -1t6.5 3t3 9t1 11t3.5 8.5t3.5 6t5.5 4t6.5 2.5t9 1.5t9 0.5h11.5h12.5q19 0 30 -10t11 -26q0 -22 -4 -28t-27 -22q-5 -1 -12.5 -3t-27 -13.5t-34 -27t-26.5 -46t-11 -68.5zM500 400v-100h200v100h-200z" />
<glyph unicode="&#xe086;" d="M600 1197q162 0 299.5 -80t217.5 -217.5t80 -299.5t-80 -299.5t-217.5 -217.5t-299.5 -80t-299.5 80t-217.5 217.5t-80 299.5t80 299.5t217.5 217.5t299.5 80zM500 900v-100h200v100h-200zM400 700v-100h100v-200h-100v-100h400v100h-100v300h-300z" />
<glyph unicode="&#xe087;" d="M1200 700v-200h-203q-25 -102 -116.5 -186t-180.5 -117v-197h-200v197q-140 27 -208 102.5t-98 200.5h-194v200h194q15 60 36 104.5t55.5 86t88 69t126.5 40.5v200h200v-200q54 -20 113 -60t112.5 -105.5t71.5 -134.5h203zM700 500v-206q149 48 201 206h-201v200h200 q-25 74 -76 127.5t-124 76.5v-204h-200v203q-75 -24 -130 -77.5t-79 -125.5h209v-200h-210q24 -73 79.5 -127.5t130.5 -78.5v206h200z" />
<glyph unicode="&#xe088;" d="M600 1196q162 0 299 -80t217 -217t80 -299t-80 -299t-217 -217t-299 -80t-299 80t-217 217t-80 299t80 299t217 217t299 80zM600 1014q-171 0 -292.5 -121.5t-121.5 -292.5t121.5 -292.5t292.5 -121.5t292.5 121.5t121.5 292.5t-121.5 292.5t-292.5 121.5zM844 735 l-135 -135l135 -135l-109 -109l-135 135l-135 -135l-109 109l135 135l-135 135l109 109l135 -135l135 135z" />
<glyph unicode="&#xe089;" d="M600 1196q162 0 299 -80t217 -217t80 -299t-80 -299t-217 -217t-299 -80t-299 80t-217 217t-80 299t80 299t217 217t299 80zM600 1014q-171 0 -292.5 -121.5t-121.5 -292.5t121.5 -292.5t292.5 -121.5t292.5 121.5t121.5 292.5t-121.5 292.5t-292.5 121.5zM896 654 l-346 -345l-228 228l141 141l87 -87l204 205z" />
<glyph unicode="&#xe090;" d="M600 1196q162 0 299 -80t217 -217t80 -299t-80 -299t-217 -217t-299 -80t-299 80t-217 217t-80 299t80 299t217 217t299 80zM248 385l568 567q-100 62 -216 62q-171 0 -292.5 -121.5t-121.5 -292.5q0 -115 62 -215zM955 809l-564 -564q97 -59 209 -59q171 0 292.5 121.5 t121.5 292.5q0 112 -59 209z" />
<glyph unicode="&#xe091;" d="M1200 400h-600v-301l-600 448l600 453v-300h600v-300z" />
<glyph unicode="&#xe092;" d="M600 400h-600v300h600v300l600 -453l-600 -448v301z" />
<glyph unicode="&#xe093;" d="M1098 600h-298v-600h-300v600h-296l450 600z" />
<glyph unicode="&#xe094;" d="M998 600l-449 -600l-445 600h296v600h300v-600h298z" />
<glyph unicode="&#xe095;" d="M600 199v301q-95 -2 -183 -20t-170 -52t-147 -92.5t-100 -135.5q6 132 41 238.5t103.5 193t184 138t271.5 59.5v271l600 -453z" />
<glyph unicode="&#xe096;" d="M1200 1200h-400l129 -129l-294 -294l142 -142l294 294l129 -129v400zM565 423l-294 -294l129 -129h-400v400l129 -129l294 294z" />
<glyph unicode="&#xe097;" d="M871 730l129 -130h-400v400l129 -129l295 295l142 -141zM200 600h400v-400l-129 130l-295 -295l-142 141l295 295z" />
<glyph unicode="&#xe101;" d="M600 1177q118 0 224.5 -45.5t184 -123t123 -184t45.5 -224.5t-45.5 -224.5t-123 -184t-184 -123t-224.5 -45.5t-224.5 45.5t-184 123t-123 184t-45.5 224.5t45.5 224.5t123 184t184 123t224.5 45.5zM686 549l58 302q4 20 -8 34.5t-33 14.5h-207q-20 0 -32 -14.5t-8 -34.5 l58 -302q4 -20 21.5 -34.5t37.5 -14.5h54q20 0 37.5 14.5t21.5 34.5zM700 400h-200v-100h200v100z" />
<glyph unicode="&#xe102;" d="M1200 900h-111v6t-1 15t-3 18l-34 172q-11 39 -41.5 63t-69.5 24q-32 0 -61 -17l-239 -144q-22 -13 -40 -35q-19 24 -40 36l-238 144q-33 18 -62 18q-39 0 -69.5 -23t-40.5 -61l-35 -177q-2 -8 -3 -18t-1 -15v-6h-111v-100h100v-200h400v300h200v-300h400v200h100v100z M731 900l202 197q5 -12 12 -32.5t23 -64t25 -72t7 -28.5h-269zM481 900h-281q-3 0 14 48t35 96l18 47zM100 0h400v400h-400v-400zM700 400h400v-400h-400v400z" />
<glyph unicode="&#xe103;" d="M0 121l216 193q-9 53 -13 83t-5.5 94t9 113t38.5 114t74 124q47 60 99.5 102.5t103 68t127.5 48t145.5 37.5t184.5 43.5t220 58.5q0 -189 -22 -343t-59 -258t-89 -181.5t-108.5 -120t-122 -68t-125.5 -30t-121.5 -1.5t-107.5 12.5t-87.5 17t-56.5 7.5l-99 -55l-201 -202 v143zM692 611q70 38 118.5 69.5t102 79t99 111.5t86.5 148q22 50 24 60t-6 19q-7 5 -17 5t-26.5 -14.5t-33.5 -39.5q-35 -51 -113.5 -108.5t-139.5 -89.5l-61 -32q-369 -197 -458 -401q-48 -111 -28.5 -117.5t86.5 76.5q55 66 367 234z" />
<glyph unicode="&#xe105;" d="M1261 600l-26 -40q-6 -10 -20 -30t-49 -63.5t-74.5 -85.5t-97 -90t-116.5 -83.5t-132.5 -59t-145.5 -23.5t-145.5 23.5t-132.5 59t-116.5 83.5t-97 90t-74.5 85.5t-49 63.5t-20 30l-26 40l26 40q6 10 20 30t49 63.5t74.5 85.5t97 90t116.5 83.5t132.5 59t145.5 23.5 t145.5 -23.5t132.5 -59t116.5 -83.5t97 -90t74.5 -85.5t49 -63.5t20 -30zM600 240q64 0 123.5 20t100.5 45.5t85.5 71.5t66.5 75.5t58 81.5t47 66q-1 1 -28.5 37.5t-42 55t-43.5 53t-57.5 63.5t-58.5 54q49 -74 49 -163q0 -124 -88 -212t-212 -88t-212 88t-88 212 q0 85 46 158q-102 -87 -226 -258q7 -10 40.5 -58t56 -78.5t68 -77.5t87.5 -75t103 -49.5t125 -21.5zM484 762l-107 -106q49 -124 154 -191l105 105q-37 24 -75 72t-57 84z" />
<glyph unicode="&#xe106;" d="M906 1200l-314 -1200h-148l37 143q-82 21 -165 71.5t-140 102t-109.5 112t-72 88.5t-29.5 43l-26 40l26 40q6 10 20 30t49 63.5t74.5 85.5t97 90t116.5 83.5t132.5 59t145.5 23.5q61 0 121 -17l37 142h148zM1261 600l-26 -40q-7 -12 -25.5 -38t-63.5 -79.5t-95.5 -102.5 t-124 -100t-146.5 -79l38 145q22 15 44.5 34t46 44t40.5 44t41 50.5t33.5 43.5t33 44t24.5 34q-97 127 -140 175l39 146q67 -54 131.5 -125.5t87.5 -103.5t36 -52zM513 264l37 141q-107 18 -178.5 101.5t-71.5 193.5q0 85 46 158q-102 -87 -226 -258q210 -282 393 -336z M484 762l-107 -106q49 -124 154 -191l47 47l23 87q-30 28 -59 69t-44 68z" />
<glyph unicode="&#xe107;" d="M-47 0h1294q37 0 50.5 35.5t-7.5 67.5l-642 1056q-20 33 -48 36t-48 -29l-642 -1066q-21 -32 -7.5 -66t50.5 -34zM700 200v100h-200v-100h-345l445 723l445 -723h-345zM700 700h-200v-100l100 -300l100 300v100z" />
<glyph unicode="&#xe108;" d="M800 711l363 -325q15 -14 26 -38.5t11 -44.5v-41q0 -20 -12 -26.5t-29 5.5l-359 249v-263q100 -91 100 -113v-64q0 -21 -13 -29t-32 1l-94 78h-222l-94 -78q-19 -9 -32 -1t-13 29v64q0 22 100 113v263l-359 -249q-17 -12 -29 -5.5t-12 26.5v41q0 20 11 44.5t26 38.5 l363 325v339q0 62 44 106t106 44t106 -44t44 -106v-339z" />
<glyph unicode="&#xe110;" d="M941 800l-600 -600h-341v200h259l600 600h241v198l300 -295l-300 -300v197h-159zM381 678l141 142l-181 180h-341v-200h259zM1100 598l300 -295l-300 -300v197h-241l-181 181l141 142l122 -123h159v198z" />
<glyph unicode="&#xe111;" d="M100 1100h1000q41 0 70.5 -29.5t29.5 -70.5v-600q0 -41 -29.5 -70.5t-70.5 -29.5h-596l-304 -300v300h-100q-41 0 -70.5 29.5t-29.5 70.5v600q0 41 29.5 70.5t70.5 29.5z" />
<glyph unicode="&#xe112;" d="M400 900h-300v300h300v-300zM1100 900h-300v300h300v-300zM1100 800v-200q0 -42 -3 -83t-15 -104t-31.5 -116t-58 -109.5t-89 -96.5t-129 -65.5t-174.5 -25.5t-174.5 25.5t-129 65.5t-89 96.5t-58 109.5t-31.5 116t-15 104t-3 83v200h300v-250q0 -113 6 -145 q17 -92 102 -117q39 -11 92 -11q37 0 66.5 5.5t50 15.5t36 24t24 31.5t14 37.5t7 42t2.5 45t0 47v25v250h300z" />
<glyph unicode="&#xe113;" d="M902 184l226 227l-578 579l-580 -579l227 -227l352 353z" />
<glyph unicode="&#xe114;" d="M650 218l578 579l-226 227l-353 -353l-352 353l-227 -227z" />
<glyph unicode="&#xe115;" d="M1198 400v600h-796l215 -200h381v-400h-198l299 -283l299 283h-200zM-198 700l299 283l300 -283h-203v-400h385l215 -200h-800v600h-196z" />
<glyph unicode="&#xe116;" d="M1050 1200h94q20 0 35 -14.5t15 -35.5t-15 -35.5t-35 -14.5h-54l-201 -961q-2 -4 -6 -10.5t-19 -17.5t-33 -11h-31v-50q0 -20 -14.5 -35t-35.5 -15t-35.5 15t-14.5 35v50h-300v-50q0 -20 -14.5 -35t-35.5 -15t-35.5 15t-14.5 35v50h-50q-21 0 -35.5 15t-14.5 35 q0 21 14.5 35.5t35.5 14.5h535l48 200h-633q-32 0 -54.5 21t-27.5 43l-100 475q-5 24 10 42q14 19 39 19h896l38 162q5 17 18.5 27.5t30.5 10.5z" />
<glyph unicode="&#xe117;" d="M1200 1000v-100h-1200v100h200q0 41 29.5 70.5t70.5 29.5h300q41 0 70.5 -29.5t29.5 -70.5h500zM0 800h1200v-800h-1200v800z" />
<glyph unicode="&#xe118;" d="M201 800l-200 -400v600h200q0 41 29.5 70.5t70.5 29.5h300q41 0 70.5 -29.5t29.5 -70.5h500v-200h-1000zM1501 700l-300 -700h-1200l300 700h1200z" />
<glyph unicode="&#xe119;" d="M302 300h198v600h-198l298 300l298 -300h-198v-600h198l-298 -300z" />
<glyph unicode="&#xe120;" d="M900 303v197h-600v-197l-300 297l300 298v-198h600v198l300 -298z" />
<glyph unicode="&#xe121;" d="M31 400l172 739q5 22 23 41.5t38 19.5h672q19 0 37.5 -22.5t23.5 -45.5l172 -732h-1138zM100 300h1000q41 0 70.5 -29.5t29.5 -70.5v-100q0 -41 -29.5 -70.5t-70.5 -29.5h-1000q-41 0 -70.5 29.5t-29.5 70.5v100q0 41 29.5 70.5t70.5 29.5zM900 200h-100v-100h100v100z M1100 200h-100v-100h100v100z" />
<glyph unicode="&#xe122;" d="M1100 200v850q0 21 14.5 35.5t35.5 14.5q20 0 35 -14.5t15 -35.5v-850q0 -20 -15 -35t-35 -15q-21 0 -35.5 15t-14.5 35zM325 800l675 250v-850l-675 200h-38l47 -276q2 -12 -3 -17.5t-11 -6t-21 -0.5h-8h-83q-20 0 -34.5 14t-18.5 35q-56 337 -56 351v250v5 q0 13 0.5 18.5t2.5 13t8 10.5t15 3h200zM-101 600v50q0 24 25 49t50 38l25 13v-250l-11 5.5t-24 14t-30 21.5t-24 27.5t-11 31.5z" />
<glyph unicode="&#xe124;" d="M445 1180l-45 -233l-224 78l78 -225l-233 -44l179 -156l-179 -155l233 -45l-78 -224l224 78l45 -233l155 179l155 -179l45 233l224 -78l-78 224l234 45l-180 155l180 156l-234 44l78 225l-224 -78l-45 233l-155 -180z" />
<glyph unicode="&#xe125;" d="M700 1200h-50q-27 0 -51 -20t-38 -48l-96 -198l-145 -196q-20 -26 -20 -63v-400q0 -75 100 -75h61q123 -100 139 -100h250q46 0 83 57l238 344q29 31 29 74v100q0 44 -30.5 84.5t-69.5 40.5h-328q28 118 28 125v150q0 44 -30.5 84.5t-69.5 40.5zM700 925l-50 -225h450 v-125l-250 -375h-214l-136 100h-100v375l150 212l100 213h50v-175zM0 800v-600h200v600h-200z" />
<glyph unicode="&#xe126;" d="M700 0h-50q-27 0 -51 20t-38 48l-96 198l-145 196q-20 26 -20 63v400q0 75 100 75h61q123 100 139 100h250q46 0 83 -57l238 -344q29 -31 29 -74v-100q0 -44 -30.5 -84.5t-69.5 -40.5h-328q28 -118 28 -125v-150q0 -44 -30.5 -84.5t-69.5 -40.5zM200 400h-200v600h200 v-600zM700 275l-50 225h450v125l-250 375h-214l-136 -100h-100v-375l150 -212l100 -213h50v175z" />
<glyph unicode="&#xe127;" d="M364 873l362 230q14 6 25 6q17 0 29 -12l109 -112q14 -14 14 -34q0 -18 -11 -32l-85 -121h302q85 0 138.5 -38t53.5 -110t-54.5 -111t-138.5 -39h-107l-130 -339q-7 -22 -20.5 -41.5t-28.5 -19.5h-341q-7 0 -90 81t-83 94v525q0 17 14 35.5t28 28.5zM408 792v-503 l100 -89h293l131 339q6 21 19.5 41t28.5 20h203q16 0 25 15t9 36q0 20 -9 34.5t-25 14.5h-457h-6.5h-7.5t-6.5 0.5t-6 1t-5 1.5t-5.5 2.5t-4 4t-4 5.5q-5 12 -5 20q0 14 10 27l147 183l-86 83zM208 200h-200v600h200v-600z" />
<glyph unicode="&#xe128;" d="M475 1104l365 -230q7 -4 16.5 -10.5t26 -26t16.5 -36.5v-526q0 -13 -85.5 -93.5t-93.5 -80.5h-342q-15 0 -28.5 20t-19.5 41l-131 339h-106q-84 0 -139 39t-55 111t54 110t139 37h302l-85 121q-11 16 -11 32q0 21 14 34l109 113q13 12 29 12q11 0 25 -6zM370 946 l145 -184q10 -11 10 -26q0 -11 -5 -20q-1 -3 -3.5 -5.5l-4 -4t-5 -2.5t-5.5 -1.5t-6.5 -1t-6.5 -0.5h-7.5h-6.5h-476v-100h222q15 0 28.5 -20.5t19.5 -40.5l131 -339h293l106 89v502l-342 237zM1199 201h-200v600h200v-600z" />
<glyph unicode="&#xe129;" d="M1100 473v342q0 15 -20 28.5t-41 19.5l-339 131v106q0 84 -39 139t-111 55t-110 -53.5t-38 -138.5v-302l-121 84q-15 12 -33.5 11.5t-32.5 -13.5l-112 -110q-22 -22 -6 -53l230 -363q4 -6 10.5 -15.5t26 -25t36.5 -15.5h525q13 0 94 83t81 90zM911 400h-503l-236 339 l83 86l183 -146q22 -18 47 -5q3 1 5.5 3.5l4 4t2.5 5t1.5 5.5t1 6.5t0.5 6v7.5v7v456q0 22 25 31t50 -0.5t25 -30.5v-202q0 -16 20 -29.5t41 -19.5l339 -130v-294zM1000 200v-200h-600v200h600z" />
<glyph unicode="&#xe130;" d="M305 1104v200h600v-200h-600zM605 310l339 131q20 6 40.5 19.5t20.5 28.5v342q0 7 -81 90t-94 83h-525q-17 0 -35.5 -14t-28.5 -28l-10 -15l-230 -362q-15 -31 7 -53l112 -110q13 -13 32 -13.5t34 10.5l121 85l-1 -302q0 -84 38.5 -138t110.5 -54t111 55t39 139v106z M905 804v-294l-340 -130q-20 -6 -40 -20t-20 -29v-202q0 -22 -25 -31t-50 0t-25 31v456v14.5t-1.5 11.5t-5 12t-9.5 7q-24 13 -46 -5l-184 -146l-83 86l237 339h503z" />
<glyph unicode="&#xe131;" d="M603 1195q162 0 299.5 -80t217.5 -218t80 -300t-80 -299.5t-217.5 -217.5t-299.5 -80t-300 80t-218 217.5t-80 299.5q0 122 47.5 232.5t127.5 190.5t190.5 127.5t232.5 47.5zM598 701h-298v-201h300l-2 -194l402 294l-402 298v-197z" />
<glyph unicode="&#xe132;" d="M597 1195q122 0 232.5 -47.5t190.5 -127.5t127.5 -190.5t47.5 -232.5q0 -162 -80 -299.5t-218 -217.5t-300 -80t-299.5 80t-217.5 217.5t-80 299.5q0 122 47.5 232.5t127.5 190.5t190.5 127.5t231.5 47.5zM200 600l400 -294v194h302v201h-300v197z" />
<glyph unicode="&#xe133;" d="M603 1195q121 0 231.5 -47.5t190.5 -127.5t127.5 -190.5t47.5 -232.5q0 -162 -80 -299.5t-217.5 -217.5t-299.5 -80t-300 80t-218 217.5t-80 299.5q0 122 47.5 232.5t127.5 190.5t190.5 127.5t232.5 47.5zM300 600h200v-300h200v300h200l-300 400z" />
<glyph unicode="&#xe134;" d="M603 1195q121 0 231.5 -47.5t190.5 -127.5t127.5 -190.5t47.5 -232.5q0 -162 -80 -299.5t-217.5 -217.5t-299.5 -80t-300 80t-218 217.5t-80 299.5q0 122 47.5 232.5t127.5 190.5t190.5 127.5t232.5 47.5zM500 900v-300h-200l300 -400l300 400h-200v300h-200z" />
<glyph unicode="&#xe135;" d="M603 1195q121 0 231.5 -47.5t190.5 -127.5t127.5 -190.5t47.5 -232.5q0 -162 -80 -299.5t-217.5 -217.5t-299.5 -80t-300 80t-218 217.5t-80 299.5q0 122 47.5 232.5t127.5 190.5t190.5 127.5t232.5 47.5zM627 1101q-15 -12 -36.5 -21t-34.5 -12t-44 -8t-39 -6 q-15 -3 -45.5 0.5t-45.5 -2.5q-21 -7 -52 -26.5t-34 -34.5q-3 -11 6.5 -22.5t8.5 -18.5q-3 -34 -27.5 -90.5t-29.5 -79.5q-8 -33 5.5 -92.5t7.5 -87.5q0 -9 17 -44t16 -60q12 0 23 -5.5t23 -15t20 -13.5q24 -12 108 -42q22 -8 53 -31.5t59.5 -38.5t57.5 -11q8 -18 -15 -55 t-20 -57q42 -71 87 -80q0 -6 -3 -15.5t-3.5 -14.5t4.5 -17q102 -2 221 112q30 29 47 47t34.5 49t20.5 62q-14 9 -37 9.5t-36 7.5q-14 7 -49 15t-52 19q-9 0 -39.5 -0.5t-46.5 -1.5t-39 -6.5t-39 -16.5q-50 -35 -66 -12q-4 2 -3.5 25.5t0.5 25.5q-6 13 -26.5 17t-24.5 7 q2 22 -2 41t-16.5 28t-38.5 -20q-23 -25 -42 4q-19 28 -8 58q6 16 22 22q6 -1 26 -1.5t33.5 -4t19.5 -13.5q12 -19 32 -37.5t34 -27.5l14 -8q0 3 9.5 39.5t5.5 57.5q-4 23 14.5 44.5t22.5 31.5q5 14 10 35t8.5 31t15.5 22.5t34 21.5q-6 18 10 37q8 0 23.5 -1.5t24.5 -1.5 t20.5 4.5t20.5 15.5q-10 23 -30.5 42.5t-38 30t-49 26.5t-43.5 23q11 41 1 44q31 -13 58.5 -14.5t39.5 3.5l11 4q6 36 -17 53.5t-64 28.5t-56 23q-19 -3 -37 0zM613 994q0 -18 8 -42.5t16.5 -44t9.5 -23.5q-9 2 -31 5t-36 5t-32 8t-30 14q3 12 16 30t16 25q10 -10 18.5 -10 t14 6t14.5 14.5t16 12.5z" />
<glyph unicode="&#xe137;" horiz-adv-x="1220" d="M100 1196h1000q41 0 70.5 -29.5t29.5 -70.5v-100q0 -41 -29.5 -70.5t-70.5 -29.5h-1000q-41 0 -70.5 29.5t-29.5 70.5v100q0 41 29.5 70.5t70.5 29.5zM1100 1096h-200v-100h200v100zM100 796h1000q41 0 70.5 -29.5t29.5 -70.5v-100q0 -41 -29.5 -70.5t-70.5 -29.5h-1000 q-41 0 -70.5 29.5t-29.5 70.5v100q0 41 29.5 70.5t70.5 29.5zM1100 696h-500v-100h500v100zM100 396h1000q41 0 70.5 -29.5t29.5 -70.5v-100q0 -41 -29.5 -70.5t-70.5 -29.5h-1000q-41 0 -70.5 29.5t-29.5 70.5v100q0 41 29.5 70.5t70.5 29.5zM1100 296h-300v-100h300v100z " />
<glyph unicode="&#xe138;" d="M1100 1200v-100h-1000v100h1000zM150 1000h900l-350 -500v-300l-200 -200v500z" />
<glyph unicode="&#xe140;" d="M329 729l142 142l-200 200l129 129h-400v-400l129 129zM1200 1200v-400l-129 129l-200 -200l-142 142l200 200l-129 129h400zM271 129l129 -129h-400v400l129 -129l200 200l142 -142zM1071 271l129 129v-400h-400l129 129l-200 200l142 142z" />
<glyph unicode="&#xe141;" d="M596 1192q162 0 299 -80t217 -217t80 -299t-80 -299t-217 -217t-299 -80t-299 80t-217 217t-80 299t80 299t217 217t299 80zM596 1010q-171 0 -292.5 -121.5t-121.5 -292.5q0 -172 121.5 -293t292.5 -121t292.5 121t121.5 293q0 171 -121.5 292.5t-292.5 121.5zM455 905 q22 0 38 -16t16 -39t-16 -39t-38 -16q-23 0 -39 16.5t-16 38.5t16 38.5t39 16.5zM708 821l1 1q-9 14 -9 28q0 22 16 38.5t39 16.5q22 0 38 -16t16 -39t-16 -39t-38 -16q-14 0 -29 10l-55 -145q17 -22 17 -51q0 -36 -25.5 -61.5t-61.5 -25.5t-61.5 25.5t-25.5 61.5 q0 32 20.5 56.5t51.5 29.5zM855 709q23 0 38.5 -15.5t15.5 -38.5t-16 -39t-38 -16q-23 0 -39 16t-16 39q0 22 16 38t39 16zM345 709q23 0 39 -16t16 -38q0 -23 -16 -39t-39 -16q-22 0 -38 16t-16 39t15.5 38.5t38.5 15.5z" />
<glyph unicode="&#xe143;" d="M649 54l-16 22q-90 125 -293 323q-71 70 -104.5 105.5t-77 89.5t-61 99t-17.5 91q0 131 98.5 229.5t230.5 98.5q143 0 241 -129q103 129 246 129q129 0 226 -98.5t97 -229.5q0 -46 -17.5 -91t-61 -99t-77 -89.5t-104.5 -105.5q-203 -198 -293 -323zM844 524l12 12 q64 62 97.5 97t64.5 79t31 72q0 71 -48 119t-105 48q-74 0 -132 -82l-118 -171l-114 174q-51 79 -123 79q-60 0 -109.5 -49t-49.5 -118q0 -27 30.5 -70t61.5 -75.5t95 -94.5l22 -22q93 -90 190 -201q82 92 195 203z" />
<glyph unicode="&#xe144;" d="M476 406l19 -17l105 105l-212 212l389 389l247 -247l-95 -96l18 -18q46 -46 77 -99l29 29q35 35 62.5 88t27.5 96q0 93 -66 159l-141 141q-66 66 -159 66q-95 0 -159 -66l-283 -283q-66 -64 -66 -159q0 -93 66 -159zM123 193l141 -141q66 -66 159 -66q95 0 159 66 l283 283q66 66 66 159t-66 159l-141 141q-12 12 -19 17l-105 -105l212 -212l-389 -389l-247 248l95 95l-18 18q-46 45 -75 101l-55 -55q-66 -66 -66 -159q0 -94 66 -160z" />
<glyph unicode="&#xe145;" d="M200 100v953q0 21 30 46t81 48t129 38t163 15t162 -15t127 -38t79 -48t29 -46v-953q0 -41 -29.5 -70.5t-70.5 -29.5h-600q-41 0 -70.5 29.5t-29.5 70.5zM900 1000h-600v-700h600v700zM600 46q43 0 73.5 30.5t30.5 73.5t-30.5 73.5t-73.5 30.5t-73.5 -30.5t-30.5 -73.5 t30.5 -73.5t73.5 -30.5z" />
<glyph unicode="&#xe148;" d="M700 1029v-307l64 -14q34 -7 64 -16.5t70 -31.5t67.5 -52t47.5 -80.5t20 -112.5q0 -139 -89 -224t-244 -96v-77h-100v78q-152 17 -237 104q-40 40 -52.5 93.5t-15.5 139.5h139q5 -77 48.5 -126.5t117.5 -64.5v335l-27 7q-46 14 -79 26.5t-72 36t-62.5 52t-40 72.5 t-16.5 99q0 92 44 159.5t109 101t144 40.5v78h100v-79q38 -4 72.5 -13.5t75.5 -31.5t71 -53.5t51.5 -84t24.5 -118.5h-159q-8 72 -35 109.5t-101 50.5zM600 755v274q-61 -8 -97.5 -37.5t-36.5 -102.5q0 -29 8 -51t16.5 -34t29.5 -22.5t31 -13.5t38 -10q7 -2 11 -3zM700 548 v-311q170 18 170 151q0 64 -44 99.5t-126 60.5z" />
<glyph unicode="&#xe149;" d="M866 300l50 -147q-41 -25 -80.5 -36.5t-59 -13t-61.5 -1.5q-23 0 -128 33t-155 29q-39 -4 -82 -17t-66 -25l-24 -11l-55 145l16.5 11t15.5 10t13.5 9.5t14.5 12t14.5 14t17.5 18.5q48 55 54 126.5t-30 142.5h-221v100h166q-24 49 -44 104q-10 26 -14.5 55.5t-3 72.5 t25 90t68.5 87q97 88 263 88q129 0 230 -89t101 -208h-153q0 52 -34 89.5t-74 51.5t-76 14q-37 0 -79 -14.5t-62 -35.5q-41 -44 -41 -101q0 -11 2.5 -24.5t5.5 -24t9.5 -26.5t10.5 -25t14 -27.5t14 -25.5t15.5 -27t13.5 -24h242v-100h-197q8 -50 -2.5 -115t-31.5 -94 q-41 -59 -99 -113q35 11 84 18t70 7q32 1 102 -16t104 -17q76 0 136 30z" />
<glyph unicode="&#xe150;" d="M300 0l298 300h-198v900h-200v-900h-198zM900 1200l298 -300h-198v-900h-200v900h-198z" />
<glyph unicode="&#xe151;" d="M400 300h198l-298 -300l-298 300h198v900h200v-900zM1000 1200v-500h-100v100h-100v-100h-100v500h300zM901 1100h-100v-200h100v200zM700 500h300v-200h-99v-100h-100v100h99v100h-200v100zM800 100h200v-100h-300v200h100v-100z" />
<glyph unicode="&#xe152;" d="M400 300h198l-298 -300l-298 300h198v900h200v-900zM1000 1200v-200h-99v-100h-100v100h99v100h-200v100h300zM800 800h200v-100h-300v200h100v-100zM700 500h300v-500h-100v100h-100v-100h-100v500zM801 200h100v200h-100v-200z" />
<glyph unicode="&#xe153;" d="M300 0l298 300h-198v900h-200v-900h-198zM900 1100h-100v100h200v-500h-100v400zM1100 500v-500h-100v100h-200v400h300zM1001 400h-100v-200h100v200z" />
<glyph unicode="&#xe154;" d="M300 0l298 300h-198v900h-200v-900h-198zM1100 1200v-500h-100v100h-200v400h300zM1001 1100h-100v-200h100v200zM900 400h-100v100h200v-500h-100v400z" />
<glyph unicode="&#xe155;" d="M300 0l298 300h-198v900h-200v-900h-198zM900 1000h-200v200h200v-200zM1000 700h-300v200h300v-200zM1100 400h-400v200h400v-200zM1200 100h-500v200h500v-200z" />
<glyph unicode="&#xe156;" d="M300 0l298 300h-198v900h-200v-900h-198zM1200 1000h-500v200h500v-200zM1100 700h-400v200h400v-200zM1000 400h-300v200h300v-200zM900 100h-200v200h200v-200z" />
<glyph unicode="&#xe157;" d="M400 1100h300q162 0 281 -118.5t119 -281.5v-300q0 -165 -118.5 -282.5t-281.5 -117.5h-300q-165 0 -282.5 117.5t-117.5 282.5v300q0 165 117.5 282.5t282.5 117.5zM800 900h-500q-41 0 -70.5 -29.5t-29.5 -70.5v-500q0 -41 29.5 -70.5t70.5 -29.5h500q41 0 70.5 29.5 t29.5 70.5v500q0 41 -29.5 70.5t-70.5 29.5z" />
<glyph unicode="&#xe158;" d="M700 0h-300q-163 0 -281.5 117.5t-118.5 282.5v300q0 163 119 281.5t281 118.5h300q165 0 282.5 -117.5t117.5 -282.5v-300q0 -165 -117.5 -282.5t-282.5 -117.5zM800 900h-500q-41 0 -70.5 -29.5t-29.5 -70.5v-500q0 -41 29.5 -70.5t70.5 -29.5h500q41 0 70.5 29.5 t29.5 70.5v500q0 41 -29.5 70.5t-70.5 29.5zM400 800v-500l333 250z" />
<glyph unicode="&#xe159;" d="M0 400v300q0 163 117.5 281.5t282.5 118.5h300q163 0 281.5 -119t118.5 -281v-300q0 -165 -117.5 -282.5t-282.5 -117.5h-300q-165 0 -282.5 117.5t-117.5 282.5zM900 300v500q0 41 -29.5 70.5t-70.5 29.5h-500q-41 0 -70.5 -29.5t-29.5 -70.5v-500q0 -41 29.5 -70.5 t70.5 -29.5h500q41 0 70.5 29.5t29.5 70.5zM800 700h-500l250 -333z" />
<glyph unicode="&#xe160;" d="M1100 700v-300q0 -162 -118.5 -281t-281.5 -119h-300q-165 0 -282.5 118.5t-117.5 281.5v300q0 165 117.5 282.5t282.5 117.5h300q165 0 282.5 -117.5t117.5 -282.5zM900 300v500q0 41 -29.5 70.5t-70.5 29.5h-500q-41 0 -70.5 -29.5t-29.5 -70.5v-500q0 -41 29.5 -70.5 t70.5 -29.5h500q41 0 70.5 29.5t29.5 70.5zM550 733l-250 -333h500z" />
<glyph unicode="&#xe161;" d="M500 1100h400q165 0 282.5 -117.5t117.5 -282.5v-300q0 -165 -117.5 -282.5t-282.5 -117.5h-400v200h500q41 0 70.5 29.5t29.5 70.5v500q0 41 -29.5 70.5t-70.5 29.5h-500v200zM700 550l-400 -350v200h-300v300h300v200z" />
<glyph unicode="&#xe162;" d="M403 2l9 -1q13 0 26 16l538 630q15 19 6 36q-8 18 -32 16h-300q1 4 78 219.5t79 227.5q2 17 -6 27l-8 8h-9q-16 0 -25 -15q-4 -5 -98.5 -111.5t-228 -257t-209.5 -238.5q-17 -19 -7 -40q10 -19 32 -19h302q-155 -438 -160 -458q-5 -21 4 -32z" />
<glyph unicode="&#xe163;" d="M800 200h-500q-41 0 -70.5 29.5t-29.5 70.5v500q0 41 29.5 70.5t70.5 29.5h500v185q-14 4 -114 7.5t-193 5.5l-93 2q-165 0 -282.5 -117.5t-117.5 -282.5v-300q0 -165 117.5 -282.5t282.5 -117.5h300q47 0 100 15v185zM900 200v200h-300v300h300v200l400 -350z" />
<glyph unicode="&#xe164;" d="M1200 700l-149 149l-342 -353l-213 213l353 342l-149 149h500v-500zM1022 571l-122 -123v-148q0 -41 -29.5 -70.5t-70.5 -29.5h-500q-41 0 -70.5 29.5t-29.5 70.5v500q0 41 29.5 70.5t70.5 29.5h156l118 122l-74 78h-100q-165 0 -282.5 -117.5t-117.5 -282.5v-300 q0 -165 117.5 -282.5t282.5 -117.5h300q163 0 281.5 117.5t118.5 282.5v98z" />
<glyph unicode="&#xe165;" d="M600 1196q162 0 299 -80t217 -217t80 -299t-80 -299t-217 -217t-299 -80t-299 80t-217 217t-80 299t80 299t217 217t299 80zM600 1014q-171 0 -292.5 -121.5t-121.5 -292.5t121.5 -292.5t292.5 -121.5t292.5 121.5t121.5 292.5t-121.5 292.5t-292.5 121.5zM600 794 q80 0 137 -57t57 -137t-57 -137t-137 -57t-137 57t-57 137t57 137t137 57z" />
<glyph unicode="&#xe166;" d="M700 800v400h-300v-400h-300l445 -500l450 500h-295zM25 300h1048q11 0 19 -7.5t8 -17.5v-275h-1100v275q0 11 7 18t18 7zM1000 200h-100v-50h100v50z" />
<glyph unicode="&#xe167;" d="M400 700v-300h300v300h295l-445 500l-450 -500h300zM25 300h1048q11 0 19 -7.5t8 -17.5v-275h-1100v275q0 11 7 18t18 7zM1000 200h-100v-50h100v50z" />
<glyph unicode="&#xe168;" d="M405 400l596 596l-154 155l-442 -442l-150 151l-155 -155zM25 300h1048q11 0 19 -7.5t8 -17.5v-275h-1100v275q0 11 7 18t18 7zM1000 200h-100v-50h100v50z" />
<glyph unicode="&#xe169;" d="M409 1103l-97 97l-212 -212l97 -98zM650 861l-149 149l-212 -212l149 -149l-238 -248h700v699zM25 300h1048q11 0 19 -7.5t8 -17.5v-275h-1100v275q0 11 7 18t18 7zM1000 200h-100v-50h100v50z" />
<glyph unicode="&#xe170;" d="M539 950l-149 -149l212 -212l149 148l248 -237v700h-699zM297 709l-97 -97l212 -212l98 97zM25 300h1048q11 0 19 -7.5t8 -17.5v-275h-1100v275q0 11 7 18t18 7zM1000 200h-100v-50h100v50z" />
<glyph unicode="&#xe171;" d="M1200 1199v-1079l-475 272l-310 -393v416h-392zM1166 1148l-672 -712v-226z" />
<glyph unicode="&#xe172;" d="M1100 1000v-850q0 -21 -15 -35.5t-35 -14.5h-150v400h-700v-400h-150q-21 0 -35.5 14.5t-14.5 35.5v1000q0 20 14.5 35t35.5 15h250v-300h500v300h100zM700 1200h-100v-200h100v200z" />
<glyph unicode="&#xe173;" d="M578 500h-378v-400h-150q-21 0 -35.5 14.5t-14.5 35.5v1000q0 20 14.5 35t35.5 15h250v-300h500v300h100l200 -200v-218l-276 -275l-120 120zM700 1200h-100v-200h100v200zM1300 538l-475 -476l-244 244l123 123l120 -120l353 352z" />
<glyph unicode="&#xe174;" d="M529 500h-329v-400h-150q-21 0 -35.5 14.5t-14.5 35.5v1000q0 20 14.5 35t35.5 15h250v-300h500v300h100l200 -200v-269l-103 -103l-170 170zM700 1200h-100v-200h100v200zM1167 6l-170 170l-170 -170l-127 127l170 170l-170 170l127 127l170 -170l170 170l127 -128 l-170 -169l170 -170z" />
<glyph unicode="&#xe175;" d="M700 500h-500v-400h-150q-21 0 -35.5 14.5t-14.5 35.5v1000q0 20 14.5 35t35.5 15h250v-300h500v300h100l200 -200v-300h-400v-200zM700 1000h-100v200h100v-200zM1000 600h-200v-300h-200l300 -300l300 300h-200v300z" />
<glyph unicode="&#xe176;" d="M602 500h-402v-400h-150q-21 0 -35.5 14.5t-14.5 35.5v1000q0 20 14.5 35t35.5 15h250v-300h500v300h100l200 -200v-402l-200 200zM700 1000h-100v200h100v-200zM1000 300h200l-300 300l-300 -300h200v-300h200v300z" />
<glyph unicode="&#xe177;" d="M1200 900v150q0 21 -14.5 35.5t-35.5 14.5h-1100q-21 0 -35.5 -14.5t-14.5 -35.5v-150h1200zM0 800v-550q0 -21 14.5 -35.5t35.5 -14.5h1100q21 0 35.5 14.5t14.5 35.5v550h-1200zM100 500h400v-200h-400v200z" />
<glyph unicode="&#xe178;" d="M500 1000h400v198l300 -298l-300 -298v198h-400v200zM100 800v200h100v-200h-100zM400 800h-100v200h100v-200zM700 300h-400v-198l-300 298l300 298v-198h400v-200zM800 500h100v-200h-100v200zM1000 500v-200h100v200h-100z" />
<glyph unicode="&#xe179;" d="M1200 50v1106q0 31 -18 40.5t-44 -7.5l-276 -117q-25 -16 -43.5 -50.5t-18.5 -65.5v-359q0 -29 10.5 -55.5t25 -43t29 -28.5t25.5 -18l10 -5v-397q0 -21 14.5 -35.5t35.5 -14.5h200q21 0 35.5 14.5t14.5 35.5zM550 1200l50 -100v-400l-100 -203v-447q0 -21 -14.5 -35.5 t-35.5 -14.5h-200q-21 0 -35.5 14.5t-14.5 35.5v447l-100 203v400l50 100l50 -100v-300h100v300l50 100l50 -100v-300h100v300z" />
<glyph unicode="&#xe180;" d="M1100 106v888q0 22 25 34.5t50 13.5l25 2v56h-400v-56q75 0 87.5 -6t12.5 -44v-394h-500v394q0 38 12.5 44t87.5 6v56h-400v-56q4 0 11 -0.5t24 -3t30 -7t24 -15t11 -24.5v-888q0 -22 -25 -34.5t-50 -13.5l-25 -2v-56h400v56q-75 0 -87.5 6t-12.5 44v394h500v-394 q0 -38 -12.5 -44t-87.5 -6v-56h400v56q-4 0 -11 0.5t-24 3t-30 7t-24 15t-11 24.5z" />
<glyph unicode="&#xe181;" d="M675 1000l-100 100h-375l-100 -100h400l200 -200v-98l295 98h105v200h-425zM500 300v500q0 41 -29.5 70.5t-70.5 29.5h-300q-41 0 -70.5 -29.5t-29.5 -70.5v-500q0 -41 29.5 -70.5t70.5 -29.5h300q41 0 70.5 29.5t29.5 70.5zM100 800h300v-200h-300v200zM700 565l400 133 v-163l-400 -133v163zM100 500h300v-200h-300v200zM805 300l295 98v-298h-425l-100 -100h-375l-100 100h400l200 200h105z" />
<glyph unicode="&#xe182;" d="M179 1169l-162 -162q-1 -11 -0.5 -32.5t16 -90t46.5 -140t104 -177.5t175 -208q103 -103 207.5 -176t180 -103.5t137 -47t92.5 -16.5l31 1l163 162q16 17 13 40.5t-22 37.5l-192 136q-19 14 -45 12t-42 -19l-119 -118q-143 103 -267 227q-126 126 -227 268l118 118 q17 17 20 41.5t-11 44.5l-139 194q-14 19 -36.5 22t-40.5 -14z" />
<glyph unicode="&#xe183;" d="M1200 712v200q-6 8 -19 20.5t-63 45t-112 57t-171 45t-235 20.5q-92 0 -175 -10.5t-141.5 -27t-108.5 -36.5t-81.5 -40t-53.5 -36.5t-31 -27.5l-9 -10v-200q0 -21 14.5 -33.5t34.5 -8.5l202 33q20 4 34.5 21t14.5 38v146q141 24 300 24t300 -24v-146q0 -21 14.5 -38 t34.5 -21l202 -33q20 -4 34.5 8.5t14.5 33.5zM800 650l365 -303q14 -14 24.5 -39.5t10.5 -45.5v-212q0 -21 -15 -35.5t-35 -14.5h-1100q-21 0 -35.5 14.5t-14.5 35.5v212q0 20 10.5 45.5t24.5 39.5l365 303v50q0 4 1 10.5t12 22.5t30 28.5t60 23t97 10.5t97 -10t60 -23.5 t30 -27.5t12 -24l1 -10v-50z" />
<glyph unicode="&#xe184;" d="M175 200h950l-125 150v250l100 100v400h-100v-200h-100v200h-200v-200h-100v200h-200v-200h-100v200h-100v-400l100 -100v-250zM1200 100v-100h-1100v100h1100z" />
<glyph unicode="&#xe185;" d="M600 1100h100q41 0 70.5 -29.5t29.5 -70.5v-1000h-300v1000q0 41 29.5 70.5t70.5 29.5zM1000 800h100q41 0 70.5 -29.5t29.5 -70.5v-700h-300v700q0 41 29.5 70.5t70.5 29.5zM400 0v400q0 41 -29.5 70.5t-70.5 29.5h-100q-41 0 -70.5 -29.5t-29.5 -70.5v-400h300z" />
<glyph unicode="&#xe186;" d="M1200 800v-500q0 -124 -88 -212t-212 -88h-700q-124 0 -212 88t-88 212v500q0 124 88 212t212 88h700q124 0 212 -88t88 -212zM1000 900h-900v-700h900v700zM200 800v-300h200v-100h-200v-100h300v300h-200v100h200v100h-300zM800 800h-200v-500h200v100h100v300h-100 v100zM800 700v-300h-100v300h100z" />
<glyph unicode="&#xe187;" d="M1200 800v-500q0 -124 -88 -212t-212 -88h-700q-124 0 -212 88t-88 212v500q0 124 88 212t212 88h700q124 0 212 -88t88 -212zM1000 900h-900v-700h900v700zM400 600h-100v200h-100v-500h100v200h100v-200h100v500h-100v-200zM800 800h-200v-500h200v100h100v300h-100 v100zM800 700v-300h-100v300h100z" />
<glyph unicode="&#xe188;" d="M1200 800v-500q0 -124 -88 -212t-212 -88h-700q-124 0 -212 88t-88 212v500q0 124 88 212t212 88h700q124 0 212 -88t88 -212zM1000 900h-900v-700h900v700zM200 800v-500h300v100h-200v300h200v100h-300zM600 800v-500h300v100h-200v300h200v100h-300z" />
<glyph unicode="&#xe189;" d="M1200 800v-500q0 -124 -88 -212t-212 -88h-700q-124 0 -212 88t-88 212v500q0 124 88 212t212 88h700q124 0 212 -88t88 -212zM1000 900h-900v-700h900v700zM500 700l-300 -150l300 -150v300zM600 400l300 150l-300 150v-300z" />
<glyph unicode="&#xe190;" d="M1200 800v-500q0 -124 -88 -212t-212 -88h-700q-124 0 -212 88t-88 212v500q0 124 88 212t212 88h700q124 0 212 -88t88 -212zM1000 900h-900v-700h900v700zM900 800v-500h-700v500h700zM300 400h130q41 0 68 42t27 107t-28.5 108t-66.5 43h-130v-300zM800 700h-130 q-38 0 -66.5 -43t-28.5 -108t27 -107t68 -42h130v300z" />
<glyph unicode="&#xe191;" d="M1200 800v-500q0 -124 -88 -212t-212 -88h-700q-124 0 -212 88t-88 212v500q0 124 88 212t212 88h700q124 0 212 -88t88 -212zM1000 900h-900v-700h900v700zM200 800v-300h200v-100h-200v-100h300v300h-200v100h200v100h-300zM800 300h100v500h-200v-100h100v-400z M601 300h100v100h-100v-100z" />
<glyph unicode="&#xe192;" d="M1200 800v-500q0 -124 -88 -212t-212 -88h-700q-124 0 -212 88t-88 212v500q0 124 88 212t212 88h700q124 0 212 -88t88 -212zM1000 900h-900v-700h900v700zM300 700v100h-100v-500h300v400h-200zM800 300h100v500h-200v-100h100v-400zM401 400h-100v200h100v-200z M601 300h100v100h-100v-100z" />
<glyph unicode="&#xe193;" d="M200 1100h700q124 0 212 -88t88 -212v-500q0 -124 -88 -212t-212 -88h-700q-124 0 -212 88t-88 212v500q0 124 88 212t212 88zM1000 900h-900v-700h900v700zM400 700h-200v100h300v-300h-99v-100h-100v100h99v200zM800 700h-100v100h200v-500h-100v400zM201 400h100v-100 h-100v100zM701 300h-100v100h100v-100z" />
<glyph unicode="&#xe194;" d="M600 1196q162 0 299 -80t217 -217t80 -299t-80 -299t-217 -217t-299 -80t-299 80t-217 217t-80 299t80 299t217 217t299 80zM600 1014q-171 0 -292.5 -121.5t-121.5 -292.5t121.5 -292.5t292.5 -121.5t292.5 121.5t121.5 292.5t-121.5 292.5t-292.5 121.5zM800 700h-300 v-200h300v-100h-300l-100 100v200l100 100h300v-100z" />
<glyph unicode="&#xe195;" d="M596 1196q162 0 299 -80t217 -217t80 -299t-80 -299t-217 -217t-299 -80t-299 80t-217 217t-80 299t80 299t217 217t299 80zM596 1014q-171 0 -292.5 -121.5t-121.5 -292.5t121.5 -292.5t292.5 -121.5t292.5 121.5t121.5 292.5t-121.5 292.5t-292.5 121.5zM800 700v-100 h-100v100h-200v-100h200v-100h-200v-100h-100v400h300zM800 400h-100v100h100v-100z" />
<glyph unicode="&#xe197;" d="M800 300h128q120 0 205 86t85 208q0 120 -85 206.5t-205 86.5q-46 0 -90 -14q-44 97 -134.5 156.5t-200.5 59.5q-152 0 -260 -107.5t-108 -260.5q0 -25 2 -37q-66 -14 -108.5 -67.5t-42.5 -122.5q0 -80 56.5 -137t135.5 -57h222v300h400v-300zM700 200h200l-300 -300 l-300 300h200v300h200v-300z" />
<glyph unicode="&#xe198;" d="M600 714l403 -403q94 26 154.5 104t60.5 178q0 121 -85 207.5t-205 86.5q-46 0 -90 -14q-44 97 -134.5 156.5t-200.5 59.5q-152 0 -260 -107.5t-108 -260.5q0 -25 2 -37q-66 -14 -108.5 -67.5t-42.5 -122.5q0 -80 56.5 -137t135.5 -57h8zM700 -100h-200v300h-200l300 300 l300 -300h-200v-300z" />
<glyph unicode="&#xe199;" d="M700 200h400l-270 300h170l-270 300h170l-300 333l-300 -333h170l-270 -300h170l-270 -300h400v-155l-75 -45h350l-75 45v155z" />
<glyph unicode="&#xe200;" d="M700 45v306q46 -30 100 -30q74 0 126.5 52.5t52.5 126.5q0 24 -9 55q50 32 79.5 83t29.5 112q0 90 -61.5 155.5t-150.5 71.5q-26 89 -99.5 145.5t-167.5 56.5q-116 0 -197.5 -81.5t-81.5 -197.5q0 -4 1 -12t1 -11q-14 2 -23 2q-74 0 -126.5 -52.5t-52.5 -126.5 q0 -53 28.5 -97t75.5 -65q-4 -16 -4 -38q0 -74 52.5 -126.5t126.5 -52.5q56 0 100 30v-306l-75 -45h350z" />
<glyph unicode="&#x1f4bc;" d="M800 1000h300q41 0 70.5 -29.5t29.5 -70.5v-400h-500v100h-200v-100h-500v400q0 41 29.5 70.5t70.5 29.5h300v100q0 41 29.5 70.5t70.5 29.5h200q41 0 70.5 -29.5t29.5 -70.5v-100zM500 1000h200v100h-200v-100zM1200 400v-200q0 -41 -29.5 -70.5t-70.5 -29.5h-1000 q-41 0 -70.5 29.5t-29.5 70.5v200h1200z" />
<glyph unicode="&#x1f4c5;" d="M1100 900v150q0 21 -14.5 35.5t-35.5 14.5h-150v100h-100v-100h-500v100h-100v-100h-150q-21 0 -35.5 -14.5t-14.5 -35.5v-150h1100zM0 800v-750q0 -20 14.5 -35t35.5 -15h1000q21 0 35.5 15t14.5 35v750h-1100zM100 600h100v-100h-100v100zM300 600h100v-100h-100v100z M500 600h100v-100h-100v100zM700 600h100v-100h-100v100zM900 600h100v-100h-100v100zM100 400h100v-100h-100v100zM300 400h100v-100h-100v100zM500 400h100v-100h-100v100zM700 400h100v-100h-100v100zM900 400h100v-100h-100v100zM100 200h100v-100h-100v100zM300 200 h100v-100h-100v100zM500 200h100v-100h-100v100zM700 200h100v-100h-100v100zM900 200h100v-100h-100v100z" />
<glyph unicode="&#x1f4cc;" d="M902 1185l283 -282q15 -15 15 -36t-15 -35q-14 -15 -35 -15t-35 15l-36 35l-279 -267v-300l-212 210l-208 -207l-380 -303l303 380l207 208l-210 212h300l267 279l-35 36q-15 14 -15 35t15 35q14 15 35 15t35 -15z" />
<glyph unicode="&#x1f4ce;" d="M518 119l69 -60l517 511q67 67 95 157t11 183q-16 87 -67 154t-130 103q-69 33 -152 33q-107 0 -197 -55q-40 -24 -111 -95l-512 -512q-68 -68 -81 -163t35 -173q35 -57 94 -89t129 -32q63 0 119 28q33 16 65 40.5t52.5 45.5t59.5 64q40 44 57 61l394 394q35 35 47 84 t-3 96q-27 87 -117 104q-20 2 -29 2q-46 0 -79.5 -17t-67.5 -51l-388 -396l-7 -7l69 -67l377 373q20 22 39 38q23 23 50 23q38 0 53 -36q16 -39 -20 -75l-547 -547q-52 -52 -125 -52q-55 0 -100 33t-54 96q-5 35 2.5 66t31.5 63t42 50t56 54q24 21 44 41l348 348 q52 52 82.5 79.5t84 54t107.5 26.5q25 0 48 -4q95 -17 154 -94.5t51 -175.5q-7 -101 -98 -192l-252 -249l-253 -256z" />
<glyph unicode="&#x1f4f7;" d="M1200 200v600q0 41 -29.5 70.5t-70.5 29.5h-150q-4 8 -11.5 21.5t-33 48t-53 61t-69 48t-83.5 21.5h-200q-41 0 -82 -20.5t-70 -50t-52 -59t-34 -50.5l-12 -20h-150q-41 0 -70.5 -29.5t-29.5 -70.5v-600q0 -41 29.5 -70.5t70.5 -29.5h1000q41 0 70.5 29.5t29.5 70.5z M1000 700h-100v100h100v-100zM844 500q0 -100 -72 -172t-172 -72t-172 72t-72 172t72 172t172 72t172 -72t72 -172zM706 500q0 44 -31 75t-75 31t-75 -31t-31 -75t31 -75t75 -31t75 31t31 75z" />
<glyph unicode="&#x1f512;" d="M900 800h100q41 0 70.5 -29.5t29.5 -70.5v-600q0 -41 -29.5 -70.5t-70.5 -29.5h-900q-41 0 -70.5 29.5t-29.5 70.5v600q0 41 29.5 70.5t70.5 29.5h100v200q0 82 59 141t141 59h300q82 0 141 -59t59 -141v-200zM400 800h300v150q0 21 -14.5 35.5t-35.5 14.5h-200 q-21 0 -35.5 -14.5t-14.5 -35.5v-150z" />
<glyph unicode="&#x1f514;" d="M1062 400h17q20 0 33.5 -14.5t13.5 -35.5q0 -20 -13 -40t-31 -27q-22 -9 -63 -23t-167.5 -37t-251.5 -23t-245.5 20.5t-178.5 41.5l-58 20q-18 7 -31 27.5t-13 40.5q0 21 13.5 35.5t33.5 14.5h17l118 173l63 327q15 77 76 140t144 83l-18 32q-6 19 3 32t29 13h94 q20 0 29 -10.5t3 -29.5l-18 -37q83 -19 144 -82.5t76 -140.5l63 -327zM600 104q-54 0 -103 6q12 -49 40 -79.5t63 -30.5t63 30.5t39 79.5q-48 -6 -102 -6z" />
<glyph unicode="&#x1f516;" d="M200 0l450 444l450 -443v1150q0 20 -14.5 35t-35.5 15h-800q-21 0 -35.5 -15t-14.5 -35v-1151z" />
<glyph unicode="&#x1f525;" d="M400 755q2 -12 8 -41.5t8 -43t6 -39.5t3.5 -39.5t-1 -33.5t-6 -31.5t-13.5 -24t-21 -20.5t-31 -12q-38 -10 -67 13t-40.5 61.5t-15 81.5t10.5 75q-52 -46 -83.5 -101t-39 -107t-7.5 -85t5 -63q9 -56 44 -119.5t105 -108.5q31 -21 64 -16t62 23.5t57 49.5t48 61.5t35 60.5 q32 66 39 184.5t-13 157.5q79 -80 122 -164t26 -184q-5 -33 -20.5 -69.5t-37.5 -80.5q-10 -19 -14.5 -29t-12 -26t-9 -23.5t-3 -19t2.5 -15.5t11 -9.5t19.5 -5t30.5 2.5t42 8q57 20 91 34t87.5 44.5t87 64t65.5 88.5t47 122q38 172 -44.5 341.5t-246.5 278.5q22 -44 43 -129 q39 -159 -32 -154q-15 2 -33 9q-79 33 -120.5 100t-44 175.5t48.5 257.5q-13 -8 -34 -23.5t-72.5 -66.5t-88.5 -105.5t-60 -138t-8 -166.5z" />
<glyph unicode="&#x1f527;" d="M948 778l251 126q13 -175 -151 -267q-123 -70 -253 -23l-596 -596q-15 -16 -36.5 -16t-36.5 16l-111 110q-15 15 -15 36.5t15 37.5l600 599q-33 101 6 201.5t135 154.5q164 92 306 -9l-259 -138z" />
<glyph unicode="&#x3e;" d="M 485.218,294.854c-23.506,0-36.742-3.145-43.426-5.518c-11.17,27.054-31.011,64.040-58.829,72.876l-2.987,0.449c0,0-40.486,8.12-123.965,8.12c-83.487,0-124.004-8.12-124.004-8.12l-2.972-0.449C 101.216,353.376, 81.375,316.39, 70.221,289.337c-6.7,2.373-19.936,5.518-43.458,5.518c-37.94,0-37.372-37.419, 13.511-31.507c0,0-30.498-23.72-19.951-77.346l0-103.903 c0-2.68, 2.175-4.88, 4.887-4.88l 88.264,0c 2.728,0, 4.888,2.2, 4.888,4.88l0,17.208 l 275.275,0 l0-17.208 c0-2.68, 2.16-4.88, 4.872-4.88l 88.279,0c 2.728,0, 4.887,2.2, 4.887,4.88l0,103.903 c 10.563,53.627-19.951,77.346-19.951,77.346C 522.622,257.435, 523.174,294.854, 485.218,294.854 M 133.669,343.018l 244.674,0 c 21.039-7.915, 35.614-47.242, 43.962-74.311l-6.913,0 c-27.282,9.428-88.303,15.995-159.382,15.995c-71.087,0-132.124-6.566-159.406-15.995l-6.897,0C 98.055,295.777, 112.615,335.104, 133.669,343.018 M 145.32,175.588c-3.177,0-74.792-1.293-81.492-1.293c-12.171,0-22.017,9.861-22.017,22.017c0,12.163, 9.924,18.864, 22.079,18.864c 3.862,0, 28.307,1.671, 48.195-3.201c 18.398-4.556, 43.584-15.498, 43.584-26.005C 155.67,180.239, 151.035,175.588, 145.32,175.588 M 312.073,108.332L 199.956,108.332l0,33.549 l 112.117,0 L 312.073,108.332 z M 448.169,174.295c-6.684,0-78.299,1.293-81.476,1.293c-5.731,0-10.35,4.651-10.35,10.381c0,10.508, 25.201,21.449, 43.552,26.005c 19.928,4.872, 44.364,3.201, 48.211,3.201c 12.155,0, 22.096-6.701, 22.096-18.864C 470.202,184.156, 460.324,174.295, 448.169,174.295"  />
<glyph unicode="&#x3d;" d="M 388.955,20.864l-104.496,0 l0,226 L 473.202,480L 38.798,480 L 230.998,247.957l0-227.093 L 128.239,20.864c-35.315,0-35.315-52.864,0-52.864l 260.717,0 C 424.297-32, 423.998,20.864, 388.955,20.864 M 256.962,349.184c0,18.633, 15.075,33.689, 33.698,33.689c 18.605,0, 33.699-15.056, 33.699-33.689c0-18.615-15.094-33.68-33.699-33.68C 272.038,315.504, 256.962,330.569, 256.962,349.184"  />
<glyph unicode="&#x3c;" d="M 416.462-5.898c-11.733,6.366-19.169,20.865-22.904,31.316c 19.81,15.447, 28.863,41.317, 20.616,65.169c-10.529,30.474-45.095,46.207-77.145,35.144c-11.184-3.885-20.58-10.586-27.623-18.933l-39.763,114.891l 94.525,255.901c-26.946-50.15-89.114-175.049-109.609-216.887C 234.526,303.945, 175.195,429.807, 149.589,480l 89.142-257.969l-41.752-113.13c-6.908,8.419-16.075,15.241-27.174,19.354c-31.794,11.741-66.716-3.3-77.901-33.49c-11.164-30.232, 5.639-64.293, 37.446-76.062c 31.815-11.741, 66.695,3.244, 77.859,33.462c 0.37,0.948, 0.585,1.925, 0.905,2.873c0,0, 0.064,0.078, 0.064,0.121l 45.559,123.374l 43.235-125.114c 0.157-0.307, 0.321-0.627, 0.477-0.934c 0.221-0.627, 0.321-1.34, 0.585-2.046c 9.61-27.837, 39.45-43.313, 68.998-37.24c 5.239-13.651, 15.711-33.305, 34.602-43.477c 3.778-2.003, 8.084-2.188, 11.954-0.92c 3.193,1.169, 6.074,3.329, 7.941,6.409C 425.587-18.074, 423.341-9.634, 416.462-5.898 M 179.879,62.308c-5.867-15.897-24.216-23.809-40.918-17.622c-16.759,6.194-25.563,24.123-19.696,39.977c 5.809,15.854, 24.237,23.753, 40.94,17.565C 176.906,96.019, 185.71,78.105, 179.879,62.308 M 254.016,213.163c-3.957,0-7.15,3.215-7.15,7.171c0,3.871, 3.193,7.079, 7.15,7.079c 3.942,0, 7.1-3.208, 7.1-7.079C 261.116,216.378, 257.958,213.163, 254.016,213.163M 366.141,41.536c-16.866-5.824-35.066,2.438-40.555,18.392c-5.567,16.047, 3.679,33.747, 20.48,39.628c 16.873,5.753, 35.066-2.466, 40.569-18.47C 392.168,65.074, 382.943,47.36, 366.141,41.536"  />
<glyph unicode="&#x24;" d="M 350.013,200.657c0-52.053-42.184-94.255-94.197-94.255c-52.055,0-94.255,42.203-94.255,94.255c0,51.996, 42.2,94.216, 94.255,94.216C 307.829,294.873, 350.013,252.653, 350.013,200.657M 511.726,380.375l-173.86,0 l0,19.549 l0,23.192 L 175.731,423.117 l0-23.192 L 175.731,380.375 c0,0-17.428,0.29-32.236,0c-14.805-0.249-31.462-5.802-31.462-5.802L 0.137,338.444c0,0, 0.232-15.694,0-26.913c-0.307-11.221,0-263.275,0-263.275l0-23.424c0,0, 510.971,0.059, 511.589,0c 0.617-0.059,0,10.469,0,23.424L 511.726,356.953 L 511.726,380.375 z M 255.816,62.985c-76.077,0-137.691,61.635-137.691,137.653c0,76.035, 61.614,137.691, 137.691,137.691c 76.016,0, 137.651-61.656, 137.651-137.691C 393.467,124.62, 331.832,62.985, 255.816,62.985M 103.203,392.329L 21.362,364.587L 21.362,402.142L 21.362,409.352L 103.203,409.352L 103.203,402.142 z"  />
<glyph unicode="&#x25;" d="M 470.158,433.925l-428.255-0.31c-23.107,0-41.88-18.758-41.88-41.864l0-281.303c0-23.096, 18.774-41.884, 41.88-41.884l 248.9,0.31l 47.823-54.684l 47.824,54.684l 83.709,0c 23.116,0, 41.864,18.788, 41.864,41.884L 512.023,392.062 C 512.023,415.167, 493.274,433.925, 470.158,433.925z M 340.289,175.899l-274.535-0.31L 65.754,233.857 l 274.535,0.31L 340.289,175.899 z M 446.312,290.636L 65.754,290.325L 65.754,348.595 l 380.558,0.31L 446.312,290.636 z"  />
<glyph unicode="&#x26;" d="M 418.419,259.127l-153.466,0 l0-97.102 l 153.466,0 L 418.419,259.127 z M 289.946,169.073l 39.633,83.505l 20.011,0 l-39.633-83.505L 289.946,169.073 zM 327.722,169.073l-9.729,0 l 39.624,83.505l 9.729,0 L 327.722,169.073zM 510.747,322.548l-24.749,54.235L 485.998,434.081 L 26.389,434.081 l0-57.307 L 1.653,322.548c-5.576-20.337, 5.345-37.549, 24.59-37.549l 0.145,0 l0-271.285 l 459.61,0 L 485.998,284.999 l 0.163,0 C 505.402,284.999, 516.308,302.211, 510.747,322.548z M 54.217,406.252l 403.952,0 L 458.169,378.505L 54.217,378.505 L 54.217,406.252 z M 209.585,320.745l 4.584,43.020l 84.058,0 l 4.583-43.020L 209.585,320.745 z M 302.81,312.737l0-13.008 L 209.585,299.73 l0,13.008 L 302.81,312.737z M 55.358,363.766l 84.048,0 L 125.637,320.745L 32.412,320.745 L 55.358,363.766z M 32.412,312.737l 93.225,0 l0-13.008 L 32.412,299.73 L 32.412,312.737 zM 182.346,150.213c0,7.311, 5.929,13.244, 13.243,13.244c 7.316,0, 13.244-5.934, 13.244-13.244s-5.929-13.244-13.244-13.244C 188.274,136.969, 182.346,142.902, 182.346,150.213z M 458.169,41.543l-236.567,0 L 221.601,252.578 L 101.083,252.578 l0-211.035 L 54.217,41.543 L 54.217,284.999l 403.952,0 L 458.169,41.543 z M 479.983,299.73l-93.225,0 l0,13.008 l 93.225,0 L 479.983,299.73 z M 386.758,320.745l-13.77,43.020l 84.049,0 l 22.945-43.020L 386.758,320.745 z"  />
<glyph unicode="&#x27;" d="M 219.193,342.007c 8.871,12.805, 7.712,65.262-42.399,78.561
	c-39.188,10.45-43.742-14.399-43.742-14.399L 88.396,406.17 L 88.396,480 l 44.657,0 c0,0, 1.572-9.218, 23.69-9.218
	c 30.996,0, 47.291,8.627, 47.291,8.627l 95.388,0.347c0,0, 106.177-21.291, 124.162-98.664
	c 0.546-2.192-10.384,9.926-13.439,12.044c-52.901,35.992-108.258,39.070-129.439-14.192c-8.081-20.391,0-29.107, 4.096-39.764
	C 288.883,328.524, 291.621-32, 291.621-32L 210.972-32 C 210.972-32, 208.293,326.332, 219.193,342.007"  />
<glyph unicode="&#x28;" d="M 348.976,397.132c 22.858,0, 41.392,18.561, 41.392,41.458S 371.833,479.999, 348.976,479.999
		c-22.889,0-41.424-18.511-41.424-41.409S 326.087,397.132, 348.976,397.132M 392.116,387.938l-87.467,0.066c-22.627,0-24.473-8.781-40.998-33.584L 221.27,248.623
		c-3.496-5.22-4.123-10.389-2.936-14.891l-12.797-20.573c0,0-24.406,24.637-43.404,24.637l-58.279,0.017
		c-20.813,0-37.533-16.936-37.533-38.078l0-71.266 c0-17.505, 25.66-17.505, 25.66,0l0,63.564 l 6.068,0 l0-206.722
		c0-23.425, 34.103-22.733, 34.103,0l0,112.122 l 5.936,0 l0-112.122 c0-22.733, 34.303-23.425, 34.303,0l0,206.722 l 5.902,0 l 21.209-12.566
		c0,0, 9.598-5.888, 15.896,3.834c 3.363,5.236, 14.348,22.205, 23.846,36.899c 4.42,0.758, 8.774,3.29, 12.105,8.328
		l 45.086,108.716l0-332.301 c0-33.065, 48.17-32.083, 48.17,0l0,184.831 l 8.328,0 l0-184.831 c0-32.083, 48.449-33.065, 48.449,0
		L 401.384,323.376 l 8.379,0 l0-116.327 c0-24.91, 35.983-24.91, 35.916,0L 445.679,333.477 C 445.679,361, 424.372,387.938, 392.116,387.938M 135.253,244.302c 16.162,0, 29.289,13.135, 29.289,29.354c0,16.211-13.127,29.329-29.289,29.329
		c-16.227,0-29.354-13.118-29.354-29.329C 105.9,257.437, 119.026,244.302, 135.253,244.302"  />
<glyph unicode="&#x29;" d="M 436.682,425.905L 75.457,425.905 c-16.12,0-29.192-13.072-29.192-29.192c0-16.12, 13.071-29.192, 29.192-29.192l 361.224,0
	c 16.12,0, 29.192,13.072, 29.192,29.192C 465.874,412.833, 452.802,425.905, 436.682,425.905z M 213.745,444.135l 84.661,0
	c 9.913,0, 17.948,8.048, 17.948,17.949c0,9.926-8.035,17.973-17.948,17.973L 213.745,480.057 c-9.913,0-17.961-8.047-17.961-17.973
	C 195.784,452.183, 203.832,444.135, 213.745,444.135z M 94.138-0.666c 0.927-17.34, 18.156-31.276, 38.434-31.276l 246.958,0
	c 20.29,0, 37.544,13.937, 38.471,31.276l 18.681,346.69L 75.457,346.024 L 94.138-0.666z M 343.401,281.69
	c 0.391,9.926, 8.73,17.632, 18.632,17.267c 9.926-0.391, 17.645-8.743, 17.267-18.656l-9.926-255.921
	c-0.366-9.926-8.719-17.645-18.632-17.254c-9.901,0.378-17.632,8.718-17.254,18.643L 343.401,281.69z M 238.096,281.154
	c0,9.913, 8.048,17.961, 17.974,17.961c 9.913,0, 17.961-8.048, 17.961-17.961l0-256.116 c0-9.926-8.048-17.974-17.961-17.974
	c-9.926,0-17.974,8.048-17.974,17.974L 238.096,281.154 z M 150.107,298.957c 9.901,0.365, 18.254-7.341, 18.645-17.267l 9.913-255.921
	c 0.366-9.926-7.353-18.265-17.267-18.643c-9.901-0.391-18.265,7.328-18.632,17.254L 132.84,280.301
	C 132.475,290.214, 140.181,298.566, 150.107,298.957z"  />
<glyph unicode="&#x2a;" d="M 259.183,460.358c-43.905,0-103.389,39.933-146.251,5.921C 72.714,434.377, 39.794,374.124, 68.37,301.519
	c 45.68-116.199, 65.131-101.936, 62.177-182.174c-2.892-75.683, 27.073-153.041, 50.062-151.316
	c 22.294,1.663-47.852,145.543, 75.447,159.322c 123.299-13.778, 53.289-157.659, 75.484-159.322
	c 23.051-1.725, 52.929,75.633, 50.124,151.316c-3.054,80.238, 16.422,65.975, 62.078,182.174
	c 27.644,70.296-2.942,128.128-40.777,161.606C 372.85,489.714, 303.089,460.358, 259.183,460.358"  />
<glyph unicode="&#x2b;" d="M 291.276,428.707c-5.021-7.687-12.478-13.43-21.165-16.635c 0.111,7.037, 0.191,12.708, 0.254,16.865
	c 7.901,4.886, 13.438,13.24, 13.438,23.243C 283.804,467.554, 271.358,480, 255.992,480c-15.35,0-27.828-12.446-27.828-27.82
	c0-10.003, 5.553-18.357, 13.47-23.259c 0.064-4.141, 0.159-9.829, 0.254-16.849c-8.726,3.205-16.183,8.948-21.18,16.635
	c-38.91,0-203.418,0.048-211.12,0.079c 5.997-17.753, 39.457-50.769, 60.304-59.146c0,0, 147.334-28.121, 173.139-30.906
	c 0.286-18.356, 0.595-38.323, 0.92-59.249c-4.625,0.151-9.194,0.246-13.612,0.428c-49.873,2.031-77.637,20.173-63.327,32.715
	c 16.413,14.43, 40.584-10.122, 58.289-6.561c 25.154,5.069-0.5,22.695-13.827,23.568c-6.703,0.412-11.273-0.952-29.724-1.166
	c-11.423-0.143-22.442-5.347-28.55-12.367c-2.919-3.324-4.387-6.671-4.387-9.972c0-21.489, 28.431-32.928, 56.925-39.188
	c-8.345-5.117-15.334-12.216-19.554-22.838c-11.050-27.717, 23.996-42.043, 54.228-56.195
	c-17.595-10.336-30.882-24.337-16.849-48.239c 5.735-9.765, 13.969-16.064, 22.648-21.934
	c-20.57-15.381-38.585-31.921-11.003-56.711c 3.856-3.498, 8.21-6.925, 12.351-10.495c 0.032-0.492, 0.032-1.055, 0.032-1.563
	c-2.308-2.903-4.276-6.005-5.243-9.646c-3.348-12.557-0.293-25.139, 5.973-36.133c 0.103-6.092, 0.182-11.439, 0.23-15.627
	c-1.206-1.952-2.403-3.887-3.641-5.838c 1.27,0.96, 2.467,2.118, 3.689,3.189c 0.095-5.862, 0.142-9.424, 0.142-9.67
	c0-4.022, 3.268-7.243, 7.25-7.243c 3.998,0, 7.243,3.221, 7.243,7.243c0,0.246, 0.055,3.808, 0.15,9.67
	c 1.214-1.071, 2.42-2.189, 3.704-3.189c-1.253,1.952-2.459,3.903-3.657,5.87c 0.047,4.189, 0.127,9.535, 0.246,15.596
	c 6.251,10.995, 9.305,23.576, 5.957,36.133c-0.976,3.641-2.935,6.743-5.243,9.646c0,0.524,0,1.071, 0.032,1.579
	c 4.141,3.57, 8.48,6.981, 12.343,10.479c 27.605,24.79, 9.59,41.329-10.995,56.711
	c 8.671,5.87, 16.912,12.169, 22.663,21.934c 14.049,23.901, 0.761,37.903-16.865,48.239
	c 30.247,14.152, 65.263,28.479, 54.228,56.195c-4.22,10.622-11.193,17.722-19.546,22.838
	c 28.486,6.259, 56.932,17.698, 56.932,39.188c0,3.3-1.499,6.648-4.402,9.972c-6.124,7.021-17.127,12.224-28.518,12.367
	c-18.467,0.214-23.037,1.579-29.764,1.166c-13.287-0.873-38.973-18.499-13.819-23.568c 17.706-3.562, 41.877,20.99, 58.289,6.561
	c 14.327-12.542-13.438-30.684-63.327-32.715c-4.387-0.182-8.972-0.278-13.597-0.428c 0.318,20.926, 0.642,40.893, 0.92,59.249
	c 25.781,2.784, 173.107,30.906, 173.107,30.906c 20.855,8.377, 54.323,41.393, 60.336,59.146
	C 494.695,428.755, 330.186,428.707, 291.276,428.707 M 207.174,228.668c-3.11,20.696, 20.030,27.439, 37.117,29.946
	c 0.293-18.848, 0.603-38.132, 0.896-57.417c-0.214,0.095-0.468,0.23-0.698,0.325
	C 231.638,207.877, 208.88,217.277, 207.174,228.668 M 239.357,139.671c-12.184,14.604-6.6,25.083, 6.251,34.166
	c 0.245-13.906, 0.46-27.637, 0.666-41.020C 243.712,135.078, 241.3,137.331, 239.357,139.671 M 245.758,66.048
	c-12.415,11.162-17.047,21.458-3.157,34.682c 1.285,1.253, 2.784,2.182, 4.109,3.3c 0.23-13.811, 0.444-27.035, 0.65-39.33
	C 246.83,65.136, 246.243,65.572, 245.758,66.048 M 266.225,66.048c-0.484-0.46-1.087-0.912-1.595-1.333
	c 0.198,12.296, 0.412,25.519, 0.635,39.314c 1.364-1.119, 2.848-2.047, 4.149-3.3
	C 283.288,87.506, 278.64,77.209, 266.225,66.048 M 272.643,139.671c-1.952-2.34-4.355-4.593-6.918-6.87
	c 0.191,13.399, 0.42,27.13, 0.65,41.036C 279.259,164.755, 284.827,154.276, 272.643,139.671 M 267.495,201.523
	c-0.214-0.095-0.476-0.23-0.698-0.325c 0.325,19.285, 0.619,38.569, 0.904,57.417c 17.079-2.506, 40.227-9.249, 37.109-29.946
	C 303.12,217.277, 280.346,207.877, 267.495,201.523"  />
<glyph unicode="&#x2c;" d="M 512,238.043l-12.169,0 L 499.831,282.687 c0,3.304-2.708,6.034-6.056,6.034l-20.495,0 c-3.26,0-6.026-2.729-6.026-6.034
		l0-117.308 c0-3.341, 2.765-6.056, 6.026-6.056l 20.495,0 c 3.348,0, 6.056,2.715, 6.056,6.056l0,44.615 L 512,209.993 L 512,238.043 zM 446.729,317.629l-20.466,0 c-3.348,0-6.056-2.744-6.056-6.085l0-175.089 c0-3.312, 2.708-6.041, 6.056-6.041l 20.466,0
		c 3.319,0, 6.085,2.729, 6.085,6.041L 452.814,311.545 C 452.815,314.885, 450.049,317.629, 446.729,317.629M 399.713,346.494l-20.466,0 c-3.318,0-6.026-2.7-6.026-6.005l0-102.447 l-234.442,0 L 138.779,340.49
		c0,3.304-2.765,6.005-6.026,6.005l-20.553,0 c-3.32,0-5.997-2.7-5.997-6.005l0-232.899
		c0-3.384, 2.678-6.085, 5.997-6.085l 20.553,0 c 3.261,0, 6.026,2.7, 6.026,6.085l0,102.395 l 234.442,0 l0-102.395
		c0-3.384, 2.708-6.085, 6.026-6.085l 20.466,0 c 3.349,0, 6.026,2.7, 6.026,6.085L 405.739,340.49
		C 405.739,343.794, 403.062,346.494, 399.713,346.494M 38.691,288.72L 18.224,288.72 c-3.348,0-6.055-2.729-6.055-6.041l0-44.637 L0,238.043 l0-28.057 l 12.169,0 l0-44.593
		c0-3.355, 2.707-6.070, 6.055-6.070l 20.467,0 c 3.289,0, 5.997,2.715, 5.997,6.070L 44.688,282.68
		C 44.688,285.991, 41.98,288.72, 38.691,288.72M 85.648,317.629l-20.436,0 c-3.349,0-6.026-2.744-6.026-6.085l0-175.089 c0-3.312, 2.678-6.041, 6.026-6.041l 20.436,0
		c 3.348,0, 6.056,2.729, 6.056,6.041L 91.704,311.545 C 91.704,314.885, 88.996,317.629, 85.648,317.629"  />
<glyph unicode="&#x2d;" d="M 495.823,328.582L 512,344.81l-29.671,29.696l-16.247-16.246L 45.917,358.26 l-16.247,16.246L0,344.81l 16.282-16.246L 16.282,41.113
		L0,24.866l 29.671-29.696l 16.247,16.246l 420.166,0 l 16.247-16.246L 512,24.866l-16.177,16.246L 495.823,328.582 z M 468.906,41.113
		l-2.823-2.788L 45.917,38.325 l-2.753,2.788L 43.164,328.564 l 2.753,2.797l 420.166,0 l 2.823-2.797L 468.906,41.113 zM 67.326,64.38l 377.417,0 L 444.744,305.305 L 67.326,305.305 L 67.326,64.38 z M 390.153,270.127c 15.454,0, 27.984-12.529, 27.984-27.983
		c0-15.455-12.53-28.001-27.984-28.001c-15.456,0-28.019,12.546-28.019,28.001
		C 362.134,257.598, 374.697,270.127, 390.153,270.127 M 85.26,107.664c 6.643,3.769, 13.941,10.102, 19.929,20.884
		c 15.007,27.011, 34.007,73.014, 77.997,65.502c 43.988-7.486, 82.951-92.995, 164.494-84.992
		c0,0-34.489,5.533-46.536,22.502c0,0, 10.533,30.488, 56.999,29.498c 36.175-0.792, 43.094-37.466, 68.669-54.435l0-24.352
		L 85.26,82.27 L 85.26,107.664 zM 256.017,436.617L 364.854,366.917L 390.153,366.917L 256.017,452.829L 121.847,366.917L 147.18,366.917 	z"  />
<glyph unicode="&#x2e;" d="M 483.397,210.405l0-191.99 l-175.175,0 l0,173.497 L 203.818,191.912 l0-173.497 L 28.643,18.415 l0,191.99 L 0.008,210.405 l 256.013,219.136l 128.839-110.295
	L 384.859,388.942 l 42.109,0 l0-105.735 l 85.039-72.802L 483.397,210.405 z"  />
<glyph unicode="&#x2f;" d="M 282.185,452.703l0,12.902 c0,7.929-6.401,14.394-14.359,14.394s-14.358-6.465-14.358-14.394l0-11.646
	c-125.985-2.016-229.765-103.969-248.137-236.7c 16.13,12.83, 38.408,20.75, 63.11,20.75c 26.943,0, 51.066-9.512, 67.378-24.476
	c 16.31,14.964, 40.433,24.476, 67.378,24.476c 16.781,0, 32.441-3.698, 45.822-10.090l0-66.031
	c0-33.589, 2.242-88.065, 0.108-121.582c-1.157-18.255-11.32-34.313-32.694-33.743c-17.162,0.47-28.499,16.98-32.333,32.468
	c-1.374,5.443-1.157,11.528-3.761,16.474c-4.015,7.577-12.767,11.61-21.121,9.783c-18.445-4.078-15.552-24.186-11.682-37.812
	c 10.036-35.262, 41.555-63.463, 79.928-59.015c 38.516,4.557, 60.072,38.517, 60.072,75.099
	c0,53.924-0.036,127.957-0.109,181.88c 14.358,7.867, 31.718,12.568, 50.488,12.568c 27.015,0, 51.121-9.512, 67.449-24.476
	c 16.276,14.964, 40.399,24.476, 67.379,24.476c 12.043,0, 23.471-1.944, 33.923-5.353
	C 484.101,350.434, 393.649,440.868, 282.185,452.703"  />
<glyph unicode="&#x30;" d="M 498.659,133.057L 431.988,321.615c 1.81,3.357, 3.051,7.361, 3.051,12.078c0,3.153-0.578,6.009-1.394,8.636
		c 3.689,0.621, 6.808,1.675, 8.738,3.204c 4.139,3.179, 10.234,9.656, 5.661,15.945c-4.564,6.298-12.086,3.774-15.265,1.768
		c-2.456-1.564-6.808-6.052-9.766-6.052s-17.866,9.936-17.866,9.936c-63.57,36.642-113.668,44.479-135.495,46.060l0,23.986
		c 2.456,0.493, 3.986,1.156, 3.986,1.827l0,5.975 c0,0.68-1.53,1.394-3.986,1.861l0,6.877 c 0.867,0.416, 1.393,0.901, 1.393,1.394
		c0,1.445, 3.91,18.691, 3.91,20.629c0,2.38-8.491,4.258-18.972,4.258c-10.429,0-18.903-1.879-18.903-4.258
		c0-1.743, 3.884-19.38, 3.884-20.629c0-0.493, 0.57-0.977, 1.411-1.394l0-6.877 c-2.439-0.467-3.969-1.181-3.969-1.861l0-5.975
		c0-0.671, 1.53-1.335, 3.969-1.827l0-23.986 c-21.794-1.581-71.9-9.418-135.537-46.060c0,0-14.866-9.936-17.824-9.936
		c-2.941,0-7.293,4.488-9.766,6.052c-3.221,2.006-10.726,4.53-15.265-1.768c-4.582-6.29, 1.53-12.767, 5.601-15.945
		c 1.972-1.53, 5.117-2.584, 8.806-3.204c-0.867-2.627-1.386-5.482-1.386-8.636c0-4.717, 1.233-8.721, 3.009-12.078
		L 13.34,133.057c-1.827-2.227-3.119-4.513-3.119-6.893l0-4.862 c0-14.704, 36.353-26.596, 81.224-26.596
		c 44.828,0, 81.207,11.891, 81.207,26.596l0,4.862 c0,2.346-1.3,4.666-3.128,6.859L 102.834,321.582
		c 1.81,3.391, 3.026,7.395, 3.026,12.112c0,3.97-0.935,7.395-2.261,10.446c 1.3,0.451, 2.592,0.867, 3.791,1.394
		c 12.307,5.516, 87.862,31.364, 120.425,31.61c 9.562,0.085, 15.062-1.946, 18.198-4.853l0-186.094 l-1.776,0
		c-1.794,0-3.238-1.462-3.238-3.307l-0.51,0 c-2.38,0-4.335-1.929-4.335-4.301c0-2.397, 1.954-4.352, 4.335-4.352l 3.587,0
		c-4.191-3.442-6.944-8.661-6.944-14.552c0-2.763, 3.519-46.043, 15.164-53.889c-13.684-3.783-17.807-27.369-17.807-28.831
		l0-42.592 c-19.269-1.657-32.758-5.542-32.758-10.047l0-10.633 c-23.416-3.817-38.716-9.962-38.716-16.906l0-7.939
		c0-11.526, 41.64-20.85, 92.97-20.85c 51.407,0, 93.030,9.324, 93.030,20.85l0,7.939 c0,6.944-15.282,13.089-38.733,16.906
		l0,10.633 c0,4.505-13.489,8.389-32.724,10.047l0,42.592 c0,1.462-4.131,25.1-17.832,28.831
		c 11.67,7.845, 15.164,51.126, 15.164,53.889c0,5.891-2.763,11.109-6.979,14.552l 3.638,0 c 2.423,0, 4.352,1.955, 4.352,4.352
		c0,2.371-1.929,4.301-4.352,4.301l-0.501,0 c0,1.845-1.445,3.307-3.272,3.307l-1.726,0 L 266.047,372.308
		c 3.111,2.89, 8.619,4.921, 18.138,4.836c 32.571-0.246, 108.117-26.094, 120.442-31.61c 1.181-0.527, 2.473-0.943, 3.774-1.394
		c-1.301-3.051-2.244-6.477-2.244-10.446c0-4.717, 1.258-8.721, 3.018-12.112l-66.689-188.559
		c-1.845-2.193-3.103-4.513-3.103-6.859l0-4.862 c0-14.704, 36.362-26.596, 81.172-26.596
		c 44.879,0, 81.224,11.891, 81.224,26.596l0,4.862 C 501.779,128.543, 500.47,130.83, 498.659,133.057 M 149.464,144.702
		c-14.755,4.93-35.282,8.041-58.019,8.041c-22.745,0-43.289-3.111-58.020-8.041l 58.020,164.028L 149.464,144.702z
		 M 420.555,152.742c-22.737,0-43.255-3.111-58.002-8.041l 58.053,164.028l 57.985-164.028
		C 463.827,149.631, 443.309,152.742, 420.555,152.742"  />
<glyph unicode="&#x31;" d="M 256.094,275.41c-31.985,0-57.897,24.945-57.897,55.828
	s 25.912,55.849, 57.897,55.849c 31.986,0, 57.92-24.967, 57.92-55.849S 288.080,275.41, 256.094,275.41 M 389.209,404.205
	C 371.305,435.404, 342.805,459.404, 305.063,472.045c-6.547,2.227-13.271,4.004-20.313,5.285
	c-7.377,1.283-15.361,2.228-23.686,2.723l-4.971,0 l-4.947,0 c-8.322-0.494-16.33-1.44-23.686-2.723
	c-7.041-1.281-13.765-3.058-20.313-5.285C 169.541,459.404, 140.906,435.404, 122.981,404.205
	c-12.326-21.436-20.469-48.135-18.58-80.817c 0.832-15.025, 4.836-28.455, 9.447-40.623
	c 4.791-11.943, 142.246-314.713, 142.246-314.713s 137.434,302.724, 142.248,314.713c 4.633,12.168, 8.637,25.598, 9.447,40.623
	C 409.678,356.070, 401.535,382.769, 389.209,404.205"  />
<glyph unicode="&#x32;" d="M 170.472,357.733L 133.917,357.733L 169.611,401.594L 169.611,409.768L 123.010,409.768L 123.010,400.475L 155.965,400.475L 120.264,357.203L 120.264,348.454L 170.472,348.454 	zM 38.61,329.175c0,10.649-8.646,19.287-19.287,19.287c-10.678,0-19.324-8.638-19.324-19.287l0-290.943 L 38.61,38.232 l0,81.212
		l 434.765,0 l0-81.212 l 38.625,0 l0,119.793 L 38.61,158.025 L 38.61,329.175 zM 106.588,233.736c 21.385,0, 38.794,17.401, 38.794,38.809c0,21.43-17.409,38.787-38.794,38.787
		c-21.43,0-38.809-17.357-38.809-38.787C 67.779,251.137, 85.159,233.736, 106.588,233.736M 460.525,246.91C 415.095,253.589, 231.279,279.172, 196.91,283.937c-1.797,0.449-3.623,0.766-5.567,0.766
		c-12.467,0-22.593-10.118-22.593-22.586l0-49.458 L 77.766,212.659 c-10.664,0-19.309-8.623-19.309-19.287s 8.646-19.309, 19.309-19.309
		l 434.235,0 l0,19.309 l0,19.287 l0,1.753 C 512,240.879, 503.582,240.591, 460.525,246.91"  />
<glyph unicode="&#x33;" d="M 487.858,48.906L 48.213,48.906 L 48.213,423.209 c0,13.31-10.796,24.097-24.107,24.097C 10.797,447.307,0,436.52,0,423.209l0-422.516
		l 487.858,0 c 13.347,0, 24.142,10.787, 24.142,24.152C 512,38.138, 501.204,48.906, 487.858,48.906M 279.33,150.868L 446.669,320.314L 485.047,281.899L 485.047,413.070L 353.942,413.070L 391.284,375.7L 282.473,267.591L 214.887,333.070L 72.356,193.858L 72.356,75.258L 214.887,219.055 	z"  />
<glyph unicode="&#x34;" d="M 256.11,209.382L 512.13,354.161L 512.13,410.532L 0.13,410.532L 0.13,354.17 	zM 256.11,164.053L 0.13,308.841L 0.13,37.572L 512.13,37.572L 512.13,308.841 	z"  />
<glyph unicode="&#x35;" d="M 436.263,460.814c0,10.626-8.61,19.236-19.236,19.236s-19.237-8.61-19.237-19.236c0-1.002, 0.965-7.769, 2.614-18.541
	c-102.339-29.288-158.718-106.748-181.74-144.122c-60.923-98.859-139.859-109.313-218.517-84.886
	c 12.104-37.935, 97.674-97.978, 214.046-71.109c 66.345,15.316, 117.447,57.967, 227.249,45.094
	c 16.806-103.377, 32.049-197.179, 32.049-199.964c0-10.626, 8.623-19.236, 19.249-19.236s 19.236,8.61, 19.236,19.236
	C 511.976-5.728, 436.263,455.085, 436.263,460.814z M 401.894,224.221c-61.313,0-105.282-14.449-142.534-30.998
	c-52.703-23.439-114.834-25.173-142.682-19.395c 51.97,13.447, 96,49.063, 131.274,106.296
	c 27.726,44.995, 76.678,102.277, 154.59,127.047c 7.279-45.862, 18.504-115.077, 29.765-184.329
	C 422.046,223.695, 411.957,224.208, 401.894,224.221z"  />
<glyph unicode="&#x36;" d="M 512.024,383.281c0,17.167-13.896,31.083-31.082,31.083L 187.11,414.364 c-17.152,0-31.064-13.916-31.064-31.083l 0.005-31.063
		l 141.101,0 c 17.157,0, 31.064-13.896, 31.064-31.063l 0.010-107.461l 40.28,0 l 66.536-102.267l-1.001,102.267l 46.941,0
		c 17.148,0, 31.064,13.916, 31.064,31.072L 512.024,383.281zM 312.685,305.625c0,17.156-13.916,31.072-31.073,31.072L 140.52,336.697 L 31.112,336.697 C 13.955,336.697, 0.045,322.781, 0.045,305.625
		l 0.019-138.524c0-17.167, 13.911-31.073, 31.067-31.073l 135.422,0 l 66.531-102.266l-1.007,102.266l 49.543,0
		c 17.167,0, 31.083,13.906, 31.083,31.073l-0.019,31.063L 312.685,305.625 z"  />
<glyph unicode="&#x37;" d="M 0.003-32l 37.245,5.549L 5.551,5.239L 0.003-32z M 7.922,21.155l 45.223-45.235l 84.794,12.622L 20.55,105.937
	L 7.922,21.155z M 503.481,387.037L 419.315,471.204c-9.176,9.175-21.965,11.276-28.564,4.689l-34.51-34.548
	l 117.381-117.394l 34.549,34.535C 514.745,365.073, 512.643,377.862, 503.481,387.037z M 34.941,120.315l 117.452-117.317
	L 456.195,306.818l-117.382,117.382L 34.941,120.315z M 400.682,306.485l-248.026-248.040l-14.122,14.122l 248.027,248.039
	L 400.682,306.485z M 104.569,106.526l-14.108,14.121l 248.046,248.039l 14.096-14.121L 104.569,106.526z"  />
<glyph unicode="&#x38;" d="M 414.578,95.37l0,61.823 c0,7.223-0.301,11.802-0.735,13.829c-0.433,2.035-1.501,3.52-3.136,4.463
			c-1.636,0.993-4.738,1.418-9.176,1.418l0-104.595 c 5.905,0, 9.575,1.193, 10.976,3.587
			C 413.844,78.305, 414.578,84.794, 414.578,95.37M 214.028,68.679c 2.836,0, 4.638,1.251, 5.405,3.737c 0.801,2.477, 1.167,8.391, 1.167,17.766l0,73.1
			c0,7.415-0.366,12.127-1.167,14.162c-0.835,2.077-2.503,3.087-5.139,3.087c-2.102,0-3.769-0.801-4.904-2.478
			c-1.168-1.668-1.734-6.606-1.734-14.771l0-74.309 c0-9.191, 0.433-14.914, 1.134-17.032
			C 209.558,69.755, 211.292,68.679, 214.028,68.679M0,39.594c0-19.918, 16.182-36.074, 36.032-36.074l 439.935,0 c 19.885,0, 36.033,16.156, 36.033,36.074L 512,334.772 L0,334.772
			L0,39.594 z M 360.095,204.128l 30.995,0 c 19.951,0, 33.397-0.901, 40.503-2.769c 7.040-1.793, 12.412-4.829, 16.082-9
			c 3.637-4.204, 5.972-8.866, 6.873-13.987c 0.933-5.18, 1.367-15.256, 1.367-30.319l0-55.693 c0-14.28-0.667-23.847-2.001-28.643
			c-1.335-4.804-3.737-8.557-7.007-11.293c-3.37-2.719-7.474-4.613-12.444-5.689c-4.871-1.060-12.312-1.66-22.188-1.66
			l-52.181,0 L 360.095,204.128 z M 277.219,204.128l 41.338,0 l0-127.208 l 25.156,0 l0-31.846 l-66.494,0 L 277.219,204.128 z M 166.318,138.226
			c0,15.989, 0.333,27.283, 1.134,33.906c 0.701,6.681, 3.103,12.762, 7.073,18.267c 3.971,5.48, 9.275,9.701, 16.015,12.653
			c 6.739,2.92, 14.681,4.429, 23.588,4.429c 8.542,0, 16.182-1.385, 22.921-4.188c 6.84-2.786, 12.312-6.939, 16.382-12.486
			c 4.138-5.605, 6.573-11.652, 7.34-18.192c 0.834-6.564, 1.234-18.025, 1.234-34.39l0-27.225 c0-15.956-0.401-27.266-1.167-33.931
			c-0.735-6.622-3.069-12.712-7.040-18.209s-9.309-9.734-16.048-12.695c-6.774-2.936-14.646-4.387-23.622-4.387
			c-8.541,0-16.114,1.385-22.921,4.154c-6.806,2.794-12.211,6.948-16.348,12.536c-4.138,5.555-6.573,11.594-7.374,18.158
			c-0.766,6.556-1.167,18.025-1.167,34.373L 166.319,138.226 z M 60.789,189.489c 3.103,5.639, 8.14,10.043, 15.047,13.221
			c 6.973,3.144, 15.347,4.771, 25.156,4.771c 10.709,0, 19.918-1.76, 27.425-5.213c 7.606-3.453, 12.578-7.84, 15.047-13.12
			c 2.469-5.263, 3.67-14.229, 3.67-26.849l0-6.272 L 108.766,156.026 l0,11.769 c0,5.497-0.5,9-1.468,10.493
			c-1.067,1.535-2.603,2.252-4.939,2.252c-2.469,0-4.37-1.009-5.638-3.045c-1.302-1.994-1.902-5.088-1.902-9.258
			c0-5.271, 0.701-9.275, 2.136-11.953c 1.368-2.703, 5.271-5.931, 11.643-9.717c 18.45-10.935, 30.061-19.901, 34.799-26.924
			c 4.771-7.007, 7.206-18.3, 7.206-33.856c0-11.36-1.367-19.702-4.003-25.098c-2.636-5.313-7.774-9.842-15.381-13.462
			c-7.574-3.653-16.448-5.447-26.524-5.447c-11.043,0-20.518,2.068-28.293,6.256c-7.84,4.212-13.012,9.542-15.414,16.040
			c-2.469,6.472-3.603,15.681-3.603,27.584l0,10.418 l 38.401,0 l0-19.368 c0-5.947, 0.501-9.792, 1.568-11.46
			c 1.134-1.693, 3.069-2.561, 5.805-2.561c 2.736,0, 4.805,1.076, 6.173,3.261c 1.334,2.119, 1.935,5.33, 1.935,9.584
			c0,9.375-1.234,15.489-3.803,18.392c-2.603,2.869-9.108,7.674-19.352,14.421c-10.275,6.832-17.082,11.769-20.452,14.847
			c-3.336,3.086-6.106,7.323-8.274,12.77c-2.202,5.438-3.304,12.37-3.304,20.811
			C 56.084,174.951, 57.652,183.851, 60.789,189.489M 18.75,377.794l 79.439,0 l0-15.581 c0-7.548, 6.205-13.713, 13.746-13.713c 7.573,0, 13.779,6.164, 13.779,13.713l0,15.581 l 260.603,0
			l0-15.581 c0-7.548, 6.173-13.713, 13.746-13.713c 7.607,0, 13.713,6.164, 13.713,13.713l0,15.581 l 79.472,0
			c 10.377,0, 18.751,8.374, 18.751,18.701c0,10.326-8.374,18.709-18.751,18.709l-79.472,0 l0,15.564
			c0,7.582-6.106,13.713-13.713,13.713c-7.573,0-13.746-6.13-13.746-13.713l0-15.564 L 125.715,415.204 l0,15.564
			c0,7.582-6.206,13.713-13.779,13.713c-7.541,0-13.746-6.13-13.746-13.713l0-15.564 L 18.75,415.204 c-10.376,0-18.75-8.383-18.75-18.709
			C0,386.168, 8.374,377.794, 18.75,377.794"  />
<glyph unicode="&#x39;" d="M 245.75,470.25c-0.005,5.38-4.369,9.75-9.75,9.75s-9.75-4.37-9.75-9.75l0-115.25 l-15.5,0 L 210.75,470.25 c-0.005,5.38-4.369,9.75-9.75,9.75s-9.75-4.37-9.75-9.75l0-115.25 l-15.5,0
	L 175.75,470.25 c-0.005,5.38-4.369,9.75-9.75,9.75s-9.75-4.37-9.75-9.75l0-115.25 l-15.75,0 L 140.5,470.25 c-0.005,5.38-4.369,9.75-9.75,9.75s-9.75-4.37-9.75-9.75l0-157
	c0-19.192, 15.558-34.75, 34.75-34.75c 0.162,0, 0.33,0, 0.5,0l0-283.5 c0-14.912, 12.144-27, 27.125-27S 210.5-19.911, 210.5-5L 210.5,278.5
	c 0.258,0, 0.51,0, 0.75,0c 19.192,0, 34.5,15.558, 34.5,34.75L 245.75,470.25 zM 390.739,439.25C 390.273,461.835, 371.821,480, 349.125,480s-41.148-18.165-41.614-40.75L 307.5,439.25 l0-268 l 28.75,0 l0-176
	c0-15.050, 12.2-27.25, 27.25-27.25s 27.25,12.2, 27.25,27.25l0,176 L 390.75,439.25 L 390.739,439.25 z"  />
<glyph unicode="&#x3a;" d="M 512.25,17.943l-179.659,165.632c 54.751,72.406, 49.338,176.165-16.653,242.144
		c-72.108,72.113-189.477,72.113-261.597,0c-72.119-72.112-72.119-189.482,0-261.596
		c 65.98-65.991, 169.72-71.392, 242.144-16.666l 165.633-179.648L 512.25,17.943z M 291.721,188.341
		c-58.783-58.77-154.38-58.746-213.144,0c-58.764,58.77-58.782,154.367,0,213.138c 58.746,58.77, 154.38,58.795, 213.144,0
		C 350.467,342.721, 350.454,247.111, 291.721,188.341z"  />
<glyph unicode="&#x3b;" d="M 408.894,5.335c0-20.634, 16.692-37.335, 37.318-37.335c 20.659,0, 37.319,16.701, 37.319,37.335
		c0,20.61-16.66,37.368-37.319,37.368C 425.587,42.704, 408.894,25.945, 408.894,5.335 M 114.245,5.335
		c0-20.634, 16.692-37.335, 37.385-37.335c 20.594,0, 37.253,16.701, 37.253,37.335c0,20.61-16.659,37.368-37.253,37.368
		C 130.938,42.704, 114.245,25.945, 114.245,5.335 M 12.999,465.935c0-7.785, 6.314-14.081, 14.114-14.081l 47.434,0
		c 3.504-21.866, 50.458-316.846, 51.532-323.514c-2.083-5.842-23.403-66.547-23.403-66.547l 372.593,0
		c 7.801,0, 14.048,6.313, 14.048,14.098c0,7.752-6.247,14.081-14.048,14.081L 142.441,89.972 c 4.032,11.544, 9.222,26.353, 11.47,32.699
		l 345.090,0 L 499.001,342.038 L 108.659,416.775L 98.577,480L 27.113,480 C 19.313,480, 12.999,473.72, 12.999,465.935 M 417.158,198.284l 53.648,0 l0-47.474
		l-53.648,0 L 417.158,198.284 z M 417.158,274.375l 53.648,0 l0-66.374 l-53.648,0 L 417.158,274.375 z M 417.158,329.023
		c 28.857-5.537, 49.053-9.38, 53.648-10.272l0-34.699 l-53.648,0 L 417.158,329.023 z M 346.619,198.284l 60.853,0 l0-47.474 l-60.853,0 L 346.619,198.284 z
		 M 346.619,274.375l 60.853,0 l0-66.374 l-60.853,0 L 346.619,274.375 z M 346.619,342.526c 22.081-4.214, 42.806-8.206, 60.853-11.643l0-46.83
		l-60.853,0 L 346.619,342.526 z M 271.916,198.284l 64.985,0 l0-47.474 l-64.985,0 L 271.916,198.284 z M 271.916,274.375l 64.985,0 l0-66.374 l-64.985,0 L 271.916,274.375 z
		 M 271.916,356.847c 21.915-4.214, 43.93-8.412, 64.985-12.453l0-60.341 l-64.985,0 L 271.916,356.847 z M 201.41,198.284l 60.821,0 l0-47.474
		L 201.41,150.809 L 201.41,198.284 z M 201.41,274.375l 60.821,0 l0-66.374 L 201.41,208.001 L 201.41,274.375 z M 201.41,370.317
		c 19.271-3.652, 39.864-7.611, 60.821-11.61l0-74.654 L 201.41,284.052 L 201.41,370.317 z M 143.466,198.284l 48.26,0 l0-47.474 L 151.002,150.809
		L 143.466,198.284z M 131.335,274.375l 60.391,0 l0-66.374 L 141.879,208.001 L 131.335,274.375z M 113.386,387.191
		c 17.916-3.405, 45.748-8.768, 78.34-14.998l0-88.141 L 129.781,284.052 L 113.386,387.191z"  />
<glyph unicode="&#x3f;" d="M 69.345,263.852l 414.287,109.332L 455.451,480L 13.2,363.282L 41.416,256.475L 41.416-32 l 457.384,0 L 498.8,263.852 L 69.345,263.852 z
	 M 435.467,445.674l 13.839-52.505l-45.65-12.032l-64.985,38.99L 435.467,445.674z M 260.601,399.54l 64.986-39.017
	l-83.965-22.16L 176.637,377.363L 260.601,399.54z M 98.53,356.767L 163.517,317.75L 61.401,290.792l-13.838,52.505L 98.53,356.767z
	 M 253.232,235.772l 86.804,0 l-52.873-54.311L 200.323,181.461 L 253.232,235.772z M 69.525,235.772l 102.906,0 L 119.558,181.461L 69.525,181.461 L 69.525,235.772 z
	 M 470.692-3.901L 69.525-3.901 l0,157.281 l 401.167,0 L 470.691-3.901 z M 470.692,181.461l-102.763,0 l 52.873,54.311l 49.89,0 L 470.692,181.461 z"  />
<glyph unicode="&#x21;" d="M 103.291,373.522c0-28.5-23.104-51.584-51.582-51.584c-28.49,0-51.563,23.084-51.563,51.584
			c0,28.459, 23.072,51.541, 51.563,51.541C 80.188,425.062, 103.291,401.981, 103.291,373.522zM 156.303,407.897L 512.147,407.897L 512.147,339.125L 156.303,339.125zM 103.291,223.959c0-28.459-23.104-51.563-51.582-51.563c-28.49,0-51.563,23.104-51.563,51.563
			c0,28.479, 23.072,51.563, 51.563,51.563C 80.188,275.522, 103.291,252.437, 103.291,223.959zM 156.303,258.375L 512.147,258.375L 512.147,189.562L 156.303,189.562zM 103.291,74.397c0-28.459-23.104-51.541-51.582-51.541c-28.49,0-51.563,23.082-51.563,51.541
			c0,28.5, 23.072,51.584, 51.563,51.584C 80.188,125.981, 103.291,102.897, 103.291,74.397zM 156.303,108.812L 512.147,108.812L 512.147,40.043L 156.303,40.043z"  />
<glyph unicode="&#x40;" d="M 277.026-32.172l 232.397,512L 2.576,230.209l 191.955-50.020L 277.026-32.172
	z"  />
<glyph unicode="&#x22;" d="M 0.106,370.223l 511.787,0 L 255.985,77.777L 0.106,370.223z"  />
<glyph unicode="&#x23;" d="M 402.224,479.893l0-511.787 L 109.777,224.015L 402.224,479.893z"  />
<glyph unicode="&#x41;" d="M 109.777-31.894L 109.777,479.893 l 292.446-255.909L 109.777-31.894z"  />
<glyph unicode="&#x42;" d="M 511.894,77.777L 0.106,77.777 L 256.015,370.223L 511.894,77.777z"  />
<glyph unicode="&#x43;" d="M 404.308,64.57L 220.209,223.983L 404.308,383.416L 404.308,479.994L 108.693,223.983L 404.308-32.006 z"  />
<glyph unicode="&#x44;" d="M 108.397,64.57L 292.494,223.983L 108.397,383.416L 108.397,479.994L 403.988,223.983L 108.397-32.006 z"  />
<glyph unicode="&#x45;" d="M 473.831,79.027c 47.073,40.151, 56.589,215.154-5.735,267.4c-42.682,35.782-193.854,65.675-307.365,65.682
	c-52.184,0-96.4-6.318-118.476-21.286C-27.9,343.341-5.574,112.645, 71.531,70.434
	c 56.082-30.704, 209.334-41.157, 313.482-23.533c 32.397-8.85, 73.706-16.368, 97.468-5.951c0,0-18.747,8.725-36.608,22.056
	C 457.241,67.66, 466.75,72.973, 473.831,79.027z M 427.397,127.182c-5.292,0-9.571,0.104-12.97,0.388
	c-3.363,0.264-6.027,0.659-8.038,1.179c-2.005,0.583-3.392,1.207-4.238,1.901c-0.888,0.749-1.276,1.651-1.276,2.719L 400.875,240.97
	c0,7.588-1.054,14.53-3.162,20.794c-2.115,6.284-5.451,11.721-10.070,16.223c-4.675,4.557-10.57,8.052-17.7,10.424
	c-7.074,2.386-15.426,3.565-24.962,3.593c-9.613-0.028-17.908-1.207-24.983-3.593c-7.172-2.372-13.046-5.868-17.7-10.424
	c-4.626-4.502-7.976-9.939-10.099-16.223c-2.102-6.263-3.169-13.206-3.169-20.794l0-107.601 c0-1.068-0.416-1.97-1.263-2.719
	c-0.825-0.693-2.233-1.318-4.237-1.901c-2.012-0.52-4.675-0.915-8.073-1.179c-3.378-0.284-7.637-0.388-12.915-0.388l-0.617,0
	l-0.658,0 c-5.271,0-9.571,0.104-12.928,0.388c-3.378,0.264-6.061,0.659-8.053,1.179c-2.011,0.583-3.419,1.207-4.279,1.901
	c-0.846,0.749-1.255,1.651-1.255,2.719L 234.75,240.97 c0,7.588-1.033,14.53-3.156,20.794c-2.122,6.284-5.465,11.721-10.119,16.223
	c-4.598,4.557-10.486,8.052-17.658,10.424c-7.074,2.386-15.411,3.565-24.983,3.593c-9.536-0.028-17.887-1.207-25.003-3.593
	c-7.13-2.372-13.025-5.868-17.658-10.424c-4.585-4.502-7.997-9.939-10.12-16.223c-2.067-6.263-3.135-13.206-3.135-20.794
	l0-107.601 c0-1.068-0.436-1.97-1.276-2.719c-0.783-0.693-2.232-1.318-4.237-1.901c-1.99-0.52-4.682-0.915-8.053-1.179
	c-3.343-0.284-7.678-0.388-12.97-0.388c-5.015,0-9.238,0.104-12.595,0.388c-3.343,0.264-6.007,0.659-7.901,1.179
	c-1.935,0.583-3.232,1.207-4.078,1.901c-0.839,0.749-1.276,1.651-1.276,2.719L 70.533,245.367 c0,0, 0.188,44.763, 0.021,65.439
	c-0.056,7.844, 6.097,9.939, 10.021,9.994c 16.008,0.312, 57.512,0, 87.557,0.167c 3.268,0.028, 18.075-0.167, 21.702-0.167
	c 18.276,0, 33.465-2.178, 45.831-6.284c 10.515-3.405, 19.142-7.879, 26.259-13.226c 7.075,5.348, 15.751,9.821, 26.162,13.226
	c 12.429,4.106, 27.784,6.145, 46.102,6.145l 21.549,0 c 18.276,0, 33.666-2.039, 46.054-6.145
	c 12.449-4.050, 22.527-9.488, 30.163-16.285c 7.679-6.825, 13.179-14.815, 16.424-23.928c 3.267-9.141, 4.897-18.803, 4.897-28.936
	l0-111.999 c0-1.068-0.41-1.97-1.235-2.719c-0.881-0.693-2.233-1.318-4.112-1.901c-1.893-0.52-4.522-0.915-7.907-1.179
	C 436.67,127.286, 432.447,127.182, 427.397,127.182z"  />
</font>
</defs>
</svg>
