<?xml version="1.0" standalone="no"?><!DOCTYPE svg PUBLIC "-//W3C//DTD SVG 1.1//EN" "http://www.w3.org/Graphics/SVG/1.1/DTD/svg11.dtd" ><svg version="1.1" xmlns="http://www.w3.org/2000/svg"><defs><font horiz-adv-x="0" id="font"><font-face ascent="750" bbox="-82 -281 1330 1070" cap-height="730" descent="-250" font-family="Sharp Sans Frontieres Light" font-stretch="normal" font-style="normal" font-weight="600" units-per-em="1000" x-height="500" /><missing-glyph horiz-adv-x="257" /><glyph glyph-name=".notdef.001" horiz-adv-x="0" /><glyph glyph-name=".null" horiz-adv-x="0" /><glyph d="M234 258H510L346 679L81 0H41L326 730H365L650 0H611L523 224H221Z" glyph-name="A" horiz-adv-x="691" unicode="A" /><glyph d="M266 251H535L443 680L77 0H35L428 730H975V695H477L543 383H975V348H551L617 36H975V0H589L542 217H248Z" glyph-name="AE" horiz-adv-x="1049" unicode="&#198;" /><glyph d="M698 950H748L613 803H575ZM280 251H549L457 680L91 0H49L442 730H989V695H491L557 383H989V348H565L631 36H989V0H603L556 217H262Z" glyph-name="AEacute" horiz-adv-x="1075" unicode="&#508;" /><glyph d="M234 258H510L346 679L81 0H41L326 730H365L650 0H611L523 224H221ZM446 950H496L361 803H323Z" glyph-name="Aacute" horiz-adv-x="691" unicode="&#193;" /><glyph d="M234 258H510L346 679L81 0H41L326 730H365L650 0H611L523 224H221ZM344 798Q303 798 272.5 811Q242 824 222 845Q202 866 192 893.5Q182 921 182 949H215Q215 926 223 904Q231 882 247 865Q263 848 287 837.5Q311 827 344 827Q374 827 398 837.5Q422 848 438.5 865Q455 882 463.5 904Q472 926 472 949H505Q505 921 494 893.5Q483 866 462 845Q441 824 411.5 811Q382 798 344 798Z" glyph-name="Abreve" horiz-adv-x="691" unicode="&#258;" /><glyph d="M234 258H510L346 679L81 0H41L326 730H365L650 0H611L523 224H221ZM326 950H358L477 803H437L342 920L248 803H207Z" glyph-name="Acircumflex" horiz-adv-x="691" unicode="&#194;" /><glyph d="M234 258H510L346 679L81 0H41L326 730H365L650 0H611L523 224H221ZM376 945H412V805H376ZM276 945H312V805H276Z" glyph-name="Adieresis" horiz-adv-x="691" unicode="&#196;" /><glyph d="M234 258H510L346 679L81 0H41L326 730H365L650 0H611L523 224H221ZM189 950H239L362 803H324Z" glyph-name="Agrave" horiz-adv-x="691" unicode="&#192;" /><glyph d="M234 258H510L346 679L81 0H41L326 730H365L650 0H611L523 224H221ZM213 835H477V803H213Z" glyph-name="Amacron" horiz-adv-x="691" unicode="&#256;" /><glyph d="M326 730H365L650 0H611L346 679L81 0H41Z" glyph-name="Anocross" horiz-adv-x="691" unicode="&#59185;" /><glyph d="M617 -201Q562 -201 528.5 -175Q495 -149 495 -110Q495 -78 519.5 -48Q544 -18 606 11L523 224H221L234 258H510L346 679L81 0H41L326 730H365L650 0H648L650 -1Q584 -33 558 -58Q532 -83 532 -110Q532 -137 555.5 -153Q579 -169 617 -169Q649 -169 672 -156.5Q695 -144 715 -125L745 -146Q722 -168 689 -184.5Q656 -201 617 -201Z" glyph-name="Aogonek" horiz-adv-x="691" unicode="&#260;" /><glyph d="M234 258H510L346 679L81 0H41L316 705Q288 713 270 737.5Q252 762 252 792Q252 832 279 858.5Q306 885 343 885Q382 885 409 858.5Q436 832 436 792Q436 763 418.5 739.5Q401 716 374 706L650 0H611L523 224H221ZM343 732Q369 732 387 750Q405 768 405 792Q405 818 387 836.5Q369 855 343 855Q319 855 301 836.5Q283 818 283 792Q283 768 301 750Q319 732 343 732Z" glyph-name="Aring" horiz-adv-x="691" unicode="&#197;" /><glyph d="M234 258H510L346 679L81 0H41L316 705Q288 713 270 737.5Q252 762 252 792Q252 832 279 858.5Q306 885 343 885Q382 885 409 858.5Q436 832 436 792Q436 763 418.5 739.5Q401 716 374 706L650 0H611L523 224H221ZM343 732Q369 732 387 750Q405 768 405 792Q405 818 387 836.5Q369 855 343 855Q319 855 301 836.5Q283 818 283 792Q283 768 301 750Q319 732 343 732ZM446 1070H496L361 923H323Z" glyph-name="Aringacute" horiz-adv-x="691" unicode="&#506;" /><glyph d="M234 258H510L346 679L81 0H41L326 730H365L650 0H611L523 224H221ZM167 803Q167 847 191.5 873Q216 899 255 899Q280 899 301.5 888.5Q323 878 344 865Q365 852 385.5 841.5Q406 831 427 831Q453 831 469.5 846.5Q486 862 486 896H518Q518 849 493.5 824Q469 799 426 799Q399 799 375.5 810Q352 821 331 834Q311 847 292.5 856.5Q274 866 255 866Q231 866 214.5 850.5Q198 835 198 803Z" glyph-name="Atilde" horiz-adv-x="691" unicode="&#195;" /><glyph d="M489 730H525V590H489ZM166 730H202V590H166ZM234 258H510L346 679L81 0H41L326 730H365L650 0H611L523 224H221Z" glyph-name="Aumlaut" horiz-adv-x="691" unicode="&#61814;" /><glyph d="M79 730H370Q413 730 450 716Q487 702 514.5 677.5Q542 653 557.5 619Q573 585 573 545Q573 486 541.5 442Q510 398 456 379Q517 360 553 311Q589 262 589 196Q589 154 573.5 118Q558 82 530.5 55.5Q503 29 465.5 14.5Q428 0 383 0H79ZM116 360V34H381Q418 34 449 46.5Q480 59 502.5 81Q525 103 537.5 133Q550 163 550 197Q550 231 537.5 261Q525 291 503 313Q481 335 450 347.5Q419 360 382 360ZM116 696V394H379Q413 394 441.5 406Q470 418 490.5 438Q511 458 522.5 486Q534 514 534 545Q534 577 521 604.5Q508 632 485.5 652.5Q463 673 433 684.5Q403 696 368 696Z" glyph-name="B" horiz-adv-x="647" unicode="B" /><glyph d="M430 -10Q352 -10 284 19.5Q216 49 165 100Q114 151 84.5 219Q55 287 55 365Q55 443 84.5 511Q114 579 165 630Q216 681 284 710.5Q352 740 430 740Q481 740 528 727Q575 714 616 690Q657 666 691 633Q725 600 749 560L718 542Q673 615 598.5 660Q524 705 430 705Q360 705 298.5 678Q237 651 191.5 605Q146 559 120 497Q94 435 94 365Q94 295 120 233Q146 171 191.5 125Q237 79 298.5 52Q360 25 430 25Q529 25 606.5 73Q684 121 728 199L761 182Q737 139 702.5 103.5Q668 68 625.5 43Q583 18 533.5 4Q484 -10 430 -10Z" glyph-name="C" horiz-adv-x="805" unicode="C" /><glyph d="M530 950H580L445 803H407ZM430 -10Q352 -10 284 19.5Q216 49 165 100Q114 151 84.5 219Q55 287 55 365Q55 443 84.5 511Q114 579 165 630Q216 681 284 710.5Q352 740 430 740Q481 740 528 727Q575 714 616 690Q657 666 691 633Q725 600 749 560L718 542Q673 615 598.5 660Q524 705 430 705Q360 705 298.5 678Q237 651 191.5 605Q146 559 120 497Q94 435 94 365Q94 295 120 233Q146 171 191.5 125Q237 79 298.5 52Q360 25 430 25Q529 25 606.5 73Q684 121 728 199L761 182Q737 139 702.5 103.5Q668 68 625.5 43Q583 18 533.5 4Q484 -10 430 -10Z" glyph-name="Cacute" horiz-adv-x="805" unicode="&#262;" /><glyph d="M288 950H328L422 832L517 950H558L439 803H407ZM430 -10Q352 -10 284 19.5Q216 49 165 100Q114 151 84.5 219Q55 287 55 365Q55 443 84.5 511Q114 579 165 630Q216 681 284 710.5Q352 740 430 740Q481 740 528 727Q575 714 616 690Q657 666 691 633Q725 600 749 560L718 542Q673 615 598.5 660Q524 705 430 705Q360 705 298.5 678Q237 651 191.5 605Q146 559 120 497Q94 435 94 365Q94 295 120 233Q146 171 191.5 125Q237 79 298.5 52Q360 25 430 25Q529 25 606.5 73Q684 121 728 199L761 182Q737 139 702.5 103.5Q668 68 625.5 43Q583 18 533.5 4Q484 -10 430 -10Z" glyph-name="Ccaron" horiz-adv-x="805" unicode="&#268;" /><glyph d="M435 -221Q390 -221 358.5 -206.5Q327 -192 304 -169L334 -150Q355 -169 377 -180.5Q399 -192 435 -192Q477 -192 503 -175Q529 -158 529 -132Q529 -109 503 -94Q477 -79 432 -79H409V-9Q335 -5 270.5 25.5Q206 56 158 106.5Q110 157 82.5 223.5Q55 290 55 365Q55 443 84.5 511Q114 579 165 630Q216 681 284 710.5Q352 740 430 740Q481 740 528 727Q575 714 616 690Q657 666 691 633Q725 600 749 560L718 542Q673 615 598.5 660Q524 705 430 705Q360 705 298.5 678Q237 651 191.5 605Q146 559 120 497Q94 435 94 365Q94 295 120 233Q146 171 191.5 125Q237 79 298.5 52Q360 25 430 25Q529 25 606.5 73Q684 121 728 199L761 182Q713 97 629 45Q545 -7 440 -10V-55Q497 -55 531 -75.5Q565 -96 565 -131Q565 -170 528.5 -195.5Q492 -221 435 -221Z" glyph-name="Ccedilla" horiz-adv-x="805" unicode="&#199;" /><glyph d="M413 950H445L564 803H524L429 920L335 803H294ZM430 -10Q352 -10 284 19.5Q216 49 165 100Q114 151 84.5 219Q55 287 55 365Q55 443 84.5 511Q114 579 165 630Q216 681 284 710.5Q352 740 430 740Q481 740 528 727Q575 714 616 690Q657 666 691 633Q725 600 749 560L718 542Q673 615 598.5 660Q524 705 430 705Q360 705 298.5 678Q237 651 191.5 605Q146 559 120 497Q94 435 94 365Q94 295 120 233Q146 171 191.5 125Q237 79 298.5 52Q360 25 430 25Q529 25 606.5 73Q684 121 728 199L761 182Q737 139 702.5 103.5Q668 68 625.5 43Q583 18 533.5 4Q484 -10 430 -10Z" glyph-name="Ccircumflex" horiz-adv-x="805" unicode="&#264;" /><glyph d="M430 -10Q352 -10 284 19.5Q216 49 165 100Q114 151 84.5 219Q55 287 55 365Q55 443 84.5 511Q114 579 165 630Q216 681 284 710.5Q352 740 430 740Q481 740 528 727Q575 714 616 690Q657 666 691 633Q725 600 749 560L718 542Q673 615 598.5 660Q524 705 430 705Q360 705 298.5 678Q237 651 191.5 605Q146 559 120 497Q94 435 94 365Q94 295 120 233Q146 171 191.5 125Q237 79 298.5 52Q360 25 430 25Q529 25 606.5 73Q684 121 728 199L761 182Q737 139 702.5 103.5Q668 68 625.5 43Q583 18 533.5 4Q484 -10 430 -10ZM418 945H455V805H418Z" glyph-name="Cdotaccent" horiz-adv-x="805" unicode="&#266;" /><glyph d="M79 730H283Q363 730 432 702Q501 674 551.5 624.5Q602 575 631 508.5Q660 442 660 364Q660 286 631 219.5Q602 153 551 104.5Q500 56 431.5 28Q363 0 284 0H79ZM116 695V35H282Q354 35 415.5 60.5Q477 86 523 130Q569 174 595 234Q621 294 621 364Q621 434 595 494.5Q569 555 523.5 599.5Q478 644 416 669.5Q354 695 281 695Z" glyph-name="D" horiz-adv-x="715" unicode="D" /><glyph d="M168 950H208L302 832L397 950H438L319 803H287ZM79 730H283Q363 730 432 702Q501 674 551.5 624.5Q602 575 631 508.5Q660 442 660 364Q660 286 631 219.5Q602 153 551 104.5Q500 56 431.5 28Q363 0 284 0H79ZM116 695V35H282Q354 35 415.5 60.5Q477 86 523 130Q569 174 595 234Q621 294 621 364Q621 434 595 494.5Q569 555 523.5 599.5Q478 644 416 669.5Q354 695 281 695Z" glyph-name="Dcaron" horiz-adv-x="715" unicode="&#270;" /><glyph d="M22 390H95V730H299Q379 730 447.5 702Q516 674 566.5 624.5Q617 575 646 508.5Q675 442 675 364Q675 286 646 219.5Q617 153 566 104.5Q515 56 446.5 28Q378 0 300 0H95V355H22ZM132 695V390H380V355H132V35H297Q368 35 430 60.5Q492 86 538 130Q584 174 610.5 234Q637 294 637 364Q637 434 611 494.5Q585 555 539.5 599.5Q494 644 431.5 669.5Q369 695 296 695Z" glyph-name="Dcroat" horiz-adv-x="731" unicode="&#272;" /><glyph d="M20 0 449 742 877 0ZM83 36H814L448 670Z" glyph-name="Delta" horiz-adv-x="897" unicode="&#8710;" /><glyph d="M116 36H528V0H79V730H528V695H116V383H528V348H116Z" glyph-name="E" horiz-adv-x="592" unicode="E" /><glyph d="M392 950H442L307 803H269ZM116 36H528V0H79V730H528V695H116V383H528V348H116Z" glyph-name="Eacute" horiz-adv-x="598" unicode="&#201;" /><glyph d="M306 798Q265 798 234.5 811Q204 824 184 845Q164 866 154 893.5Q144 921 144 949H177Q177 926 185 904Q193 882 209 865Q225 848 249 837.5Q273 827 306 827Q336 827 360 837.5Q384 848 400.5 865Q417 882 425.5 904Q434 926 434 949H467Q467 921 456 893.5Q445 866 424 845Q403 824 373.5 811Q344 798 306 798ZM116 36H528V0H79V730H528V695H116V383H528V348H116Z" glyph-name="Ebreve" horiz-adv-x="598" unicode="&#276;" /><glyph d="M166 950H206L300 832L395 950H436L317 803H285ZM116 36H528V0H79V730H528V695H116V383H528V348H116Z" glyph-name="Ecaron" horiz-adv-x="599" unicode="&#282;" /><glyph d="M285 950H317L436 803H396L301 920L207 803H166ZM116 36H528V0H79V730H528V695H116V383H528V348H116Z" glyph-name="Ecircumflex" horiz-adv-x="598" unicode="&#202;" /><glyph d="M335 945H371V805H335ZM235 945H271V805H235ZM116 36H528V0H79V730H528V695H116V383H528V348H116Z" glyph-name="Edieresis" horiz-adv-x="598" unicode="&#203;" /><glyph d="M292 945H329V805H292ZM116 36H528V0H79V730H528V695H116V383H528V348H116Z" glyph-name="Edotaccent" horiz-adv-x="598" unicode="&#278;" /><glyph d="M160 950H210L333 803H295ZM116 36H528V0H79V730H528V695H116V383H528V348H116Z" glyph-name="Egrave" horiz-adv-x="598" unicode="&#200;" /><glyph d="M170 835H434V803H170ZM116 36H528V0H79V730H528V695H116V383H528V348H116Z" glyph-name="Emacron" horiz-adv-x="598" unicode="&#274;" /><glyph d="M447 -171H522Q576 -171 603 -141.5Q630 -112 629 -60V0L116 673V0H79V730H119L629 62V730H666V-61Q666 -129 631.5 -167.5Q597 -206 525 -206H447Z" glyph-name="Eng" horiz-adv-x="745" unicode="&#330;" /><glyph d="M495 -200Q440 -200 406.5 -174Q373 -148 373 -109Q373 -80 392.5 -53Q412 -26 461 0H79V730H528V695H116V383H528V348H116V36H528V0Q462 -32 436 -57Q410 -82 410 -109Q410 -136 433.5 -152Q457 -168 495 -168Q527 -168 550 -155.5Q573 -143 593 -124L623 -145Q600 -167 567 -183.5Q534 -200 495 -200Z" glyph-name="Eogonek" horiz-adv-x="598" unicode="&#280;" /><glyph d="M22 390H95V730H299Q379 730 447.5 702Q516 674 566.5 624.5Q617 575 646 508.5Q675 442 675 364Q675 286 646 219.5Q617 153 566 104.5Q515 56 446.5 28Q378 0 300 0H95V355H22ZM132 695V390H380V355H132V35H297Q368 35 430 60.5Q492 86 538 130Q584 174 610.5 234Q637 294 637 364Q637 434 611 494.5Q585 555 539.5 599.5Q494 644 431.5 669.5Q369 695 296 695Z" glyph-name="Eth" horiz-adv-x="731" unicode="&#208;" /><glyph d="M328 -10Q283 -10 244 4Q205 18 175 51.5Q145 85 125 140Q105 195 98 277H34V308H96Q95 322 95 336.5Q95 351 95 367Q95 381 95 394.5Q95 408 96 422H34V453H98Q105 533 125.5 587.5Q146 642 176 676Q206 710 245 725Q284 740 328 740Q384 740 426.5 719.5Q469 699 497 667L470 643Q445 673 409.5 689.5Q374 706 328 706Q286 706 250 689.5Q214 673 188 633.5Q162 594 147 529Q132 464 132 367Q132 267 146.5 200.5Q161 134 187.5 95Q214 56 250 40Q286 24 328 24Q377 24 415.5 42Q454 60 479 93L507 68Q447 -10 328 -10ZM190 453H411V422H190ZM190 308H411V277H190Z" glyph-name="Euro" horiz-adv-x="588" unicode="&#8364;" /><glyph d="M126 453Q141 515 175 567.5Q209 620 257 658Q305 696 365 718Q425 740 491 740Q542 740 589 727Q636 714 677 690Q718 666 752 633Q786 600 810 560L779 542Q734 615 659.5 660Q585 705 491 705Q421 705 359.5 678Q298 651 252.5 605Q207 559 181 497Q155 435 155 365Q155 295 181 233Q207 171 252.5 125Q298 79 359.5 52Q421 25 491 25Q590 25 667.5 73Q745 121 789 199L822 182Q798 139 763.5 103.5Q729 68 686.5 43Q644 18 594.5 4Q545 -10 491 -10Q425 -10 365 11.5Q305 33 257 71.5Q209 110 175 162.5Q141 215 126 277H34V308H120Q118 322 117 336Q116 350 116 365Q116 379 117 393.5Q118 408 120 422H34V453ZM230 453H598V422H230ZM230 308H598V277H230Z" glyph-name="Euro.LP" horiz-adv-x="850" unicode="&#58657;" /><glyph d="M328 -10Q283 -10 244 4Q205 18 175 51.5Q145 85 125 140Q105 195 98 277H34V308H96Q95 322 95 336.5Q95 351 95 367Q95 381 95 394.5Q95 408 96 422H34V453H98Q105 533 125.5 587.5Q146 642 176 676Q206 710 245 725Q284 740 328 740Q384 740 426.5 719.5Q469 699 497 667L470 643Q445 673 409.5 689.5Q374 706 328 706Q286 706 250 689.5Q214 673 188 633.5Q162 594 147 529Q132 464 132 367Q132 267 146.5 200.5Q161 134 187.5 95Q214 56 250 40Q286 24 328 24Q377 24 415.5 42Q454 60 479 93L507 68Q447 -10 328 -10ZM190 453H411V422H190ZM190 308H411V277H190Z" glyph-name="Euro.LT" horiz-adv-x="588" unicode="&#62567;" /><glyph d="M79 730H492V695H116V382H492V348H116V0H79Z" glyph-name="F" horiz-adv-x="548" unicode="F" /><glyph d="M433 -10Q352 -10 283 19.5Q214 49 163 100Q112 151 83.5 219Q55 287 55 365Q55 443 84.5 511Q114 579 165.5 630Q217 681 286.5 710.5Q356 740 436 740Q542 740 624.5 692Q707 644 755 562L724 543Q681 618 606.5 661.5Q532 705 435 705Q362 705 299.5 678Q237 651 191.5 605Q146 559 120 497Q94 435 94 365Q94 295 119.5 233Q145 171 190 125Q235 79 297 52Q359 25 433 25Q505 25 564.5 49Q624 73 667 115.5Q710 158 735.5 215.5Q761 273 765 339H427V374H803V364Q803 287 777 219Q751 151 702.5 100Q654 49 585.5 19.5Q517 -10 433 -10Z" glyph-name="G" horiz-adv-x="854" unicode="G" /><glyph d="M433 -10Q352 -10 283 19.5Q214 49 163 100Q112 151 83.5 219Q55 287 55 365Q55 443 84.5 511Q114 579 165.5 630Q217 681 286.5 710.5Q356 740 436 740Q542 740 624.5 692Q707 644 755 562L724 543Q681 618 606.5 661.5Q532 705 435 705Q362 705 299.5 678Q237 651 191.5 605Q146 559 120 497Q94 435 94 365Q94 295 119.5 233Q145 171 190 125Q235 79 297 52Q359 25 433 25Q505 25 564.5 49Q624 73 667 115.5Q710 158 735.5 215.5Q761 273 765 339H427V374H803V364Q803 287 777 219Q751 151 702.5 100Q654 49 585.5 19.5Q517 -10 433 -10ZM428 798Q387 798 356.5 811Q326 824 306 845Q286 866 276 893.5Q266 921 266 949H299Q299 926 307 904Q315 882 331 865Q347 848 371 837.5Q395 827 428 827Q458 827 482 837.5Q506 848 522.5 865Q539 882 547.5 904Q556 926 556 949H589Q589 921 578 893.5Q567 866 546 845Q525 824 495.5 811Q466 798 428 798Z" glyph-name="Gbreve" horiz-adv-x="854" unicode="&#286;" /><glyph d="M412 950H444L563 803H523L428 920L334 803H293ZM433 -10Q352 -10 283 19.5Q214 49 163 100Q112 151 83.5 219Q55 287 55 365Q55 443 84.5 511Q114 579 165.5 630Q217 681 286.5 710.5Q356 740 436 740Q542 740 624.5 692Q707 644 755 562L724 543Q681 618 606.5 661.5Q532 705 435 705Q362 705 299.5 678Q237 651 191.5 605Q146 559 120 497Q94 435 94 365Q94 295 119.5 233Q145 171 190 125Q235 79 297 52Q359 25 433 25Q505 25 564.5 49Q624 73 667 115.5Q710 158 735.5 215.5Q761 273 765 339H427V374H803V364Q803 287 777 219Q751 151 702.5 100Q654 49 585.5 19.5Q517 -10 433 -10Z" glyph-name="Gcircumflex" horiz-adv-x="854" unicode="&#284;" /><glyph d="M369 -274 416 -70H453L397 -274ZM433 -10Q352 -10 283 19.5Q214 49 163 100Q112 151 83.5 219Q55 287 55 365Q55 443 84.5 511Q114 579 165.5 630Q217 681 286.5 710.5Q356 740 436 740Q542 740 624.5 692Q707 644 755 562L724 543Q681 618 606.5 661.5Q532 705 435 705Q362 705 299.5 678Q237 651 191.5 605Q146 559 120 497Q94 435 94 365Q94 295 119.5 233Q145 171 190 125Q235 79 297 52Q359 25 433 25Q505 25 564.5 49Q624 73 667 115.5Q710 158 735.5 215.5Q761 273 765 339H427V374H803V364Q803 287 777 219Q751 151 702.5 100Q654 49 585.5 19.5Q517 -10 433 -10Z" glyph-name="Gcommaaccent" horiz-adv-x="854" unicode="&#290;" /><glyph d="M433 -10Q352 -10 283 19.5Q214 49 163 100Q112 151 83.5 219Q55 287 55 365Q55 443 84.5 511Q114 579 165.5 630Q217 681 286.5 710.5Q356 740 436 740Q542 740 624.5 692Q707 644 755 562L724 543Q681 618 606.5 661.5Q532 705 435 705Q362 705 299.5 678Q237 651 191.5 605Q146 559 120 497Q94 435 94 365Q94 295 119.5 233Q145 171 190 125Q235 79 297 52Q359 25 433 25Q505 25 564.5 49Q624 73 667 115.5Q710 158 735.5 215.5Q761 273 765 339H427V374H803V364Q803 287 777 219Q751 151 702.5 100Q654 49 585.5 19.5Q517 -10 433 -10ZM408 945H445V805H408Z" glyph-name="Gdotaccent" horiz-adv-x="854" unicode="&#288;" /><glyph d="M575 348H116V0H79V730H116V383H575V730H612V0H575Z" glyph-name="H" horiz-adv-x="691" unicode="H" /><glyph d="M17 572H91V730H128V572H587V730H624V572H690V542H624V0H587V348H128V0H91V542H17ZM587 383V542H128V383Z" glyph-name="Hbar" horiz-adv-x="718" unicode="&#294;" /><glyph d="M328 950H360L479 803H439L344 920L250 803H209ZM573 348H114V0H77V730H114V383H573V730H610V0H573Z" glyph-name="Hcircumflex" horiz-adv-x="691" unicode="&#292;" /><glyph d="M88 730H126V0H88Z" glyph-name="I" horiz-adv-x="214" unicode="I" /><glyph d="M213 35H276Q344 35 382 76Q420 117 420 185V730H457V184Q457 100 411 50Q365 0 278 0H213ZM71 730H108V0H71Z" glyph-name="IJ" horiz-adv-x="528" unicode="&#306;" /><glyph d="M88 730H126V0H88ZM210 950H260L125 803H87Z" glyph-name="Iacute" horiz-adv-x="214" unicode="&#205;" /><glyph d="M88 730H126V0H88ZM106 798Q65 798 34.5 811Q4 824 -16 845Q-36 866 -46 893.5Q-56 921 -56 949H-23Q-23 926 -15 904Q-7 882 9 865Q25 848 49 837.5Q73 827 106 827Q136 827 160 837.5Q184 848 200.5 865Q217 882 225.5 904Q234 926 234 949H267Q267 921 256 893.5Q245 866 224 845Q203 824 173.5 811Q144 798 106 798Z" glyph-name="Ibreve" horiz-adv-x="214" unicode="&#300;" /><glyph d="M88 730H126V0H88ZM90 950H122L241 803H201L106 920L12 803H-29Z" glyph-name="Icircumflex" horiz-adv-x="214" unicode="&#206;" /><glyph d="M190 945H225V805H190ZM-11 945H24V805H-11ZM88 730H126V0H88Z" glyph-name="Idieresis" horiz-adv-x="214" unicode="&#207;" /><glyph d="M88 730H126V0H88ZM89 945H126V805H89Z" glyph-name="Idotaccent" horiz-adv-x="214" unicode="&#304;" /><glyph d="M88 730H126V0H88ZM-46 950H4L127 803H89Z" glyph-name="Igrave" horiz-adv-x="214" unicode="&#204;" /><glyph d="M88 730H126V0H88ZM-25 835H239V803H-25Z" glyph-name="Imacron" horiz-adv-x="214" unicode="&#298;" /><glyph d="M109 -220Q58 -220 32 -192.5Q6 -165 6 -127Q6 -92 29 -57.5Q52 -23 88 9V730H126V0H124L126 -1Q86 -33 63 -65Q40 -97 40 -125Q40 -153 59 -170.5Q78 -188 109 -188Q136 -188 155.5 -177Q175 -166 192 -149L215 -174Q194 -192 168.5 -206Q143 -220 109 -220Z" glyph-name="Iogonek" horiz-adv-x="214" unicode="&#302;" /><glyph d="M85 730H123V0H85ZM-62 803Q-62 847 -37.5 873Q-13 899 26 899Q51 899 72.5 888.5Q94 878 115 865Q136 852 156.5 841.5Q177 831 198 831Q224 831 240.5 846.5Q257 862 257 896H289Q289 849 264.5 824Q240 799 197 799Q170 799 146.5 810Q123 821 102 834Q82 847 63.5 856.5Q45 866 26 866Q2 866 -14.5 850.5Q-31 835 -31 803Z" glyph-name="Itilde" horiz-adv-x="207" unicode="&#296;" /><glyph d="M221 -10Q155 -10 109.5 17Q64 44 42 94L75 114Q92 73 128 48.5Q164 24 220 24Q292 24 331 69Q370 114 370 186V730H407V187Q407 98 358 44Q309 -10 221 -10Z" glyph-name="J" horiz-adv-x="483" unicode="J" /><glyph d="M372 950H404L523 803H483L388 920L294 803H253ZM221 -10Q155 -10 109.5 17Q64 44 42 94L75 114Q92 73 128 48.5Q164 24 220 24Q292 24 331 69Q370 114 370 186V730H407V187Q407 98 358 44Q309 -10 221 -10Z" glyph-name="Jcircumflex" horiz-adv-x="483" unicode="&#308;" /><glyph d="M512 730H569L201 384L595 0H538L149 384ZM117 0H79V730H117Z" glyph-name="K" horiz-adv-x="625" unicode="K" /><glyph d="M267 -274 314 -70H351L295 -274ZM512 730H569L201 384L595 0H538L149 384ZM117 0H79V730H117Z" glyph-name="Kcommaaccent" horiz-adv-x="653" unicode="&#310;" /><glyph d="M79 730H116V36H483V0H79Z" glyph-name="L" horiz-adv-x="532" unicode="L" /><glyph d="M199 950H249L114 803H76ZM79 730H116V36H483V0H79Z" glyph-name="Lacute" horiz-adv-x="532" unicode="&#313;" /><glyph d="M329 730H366L300 568H271ZM79 730H116V36H483V0H79Z" glyph-name="Lcaron" horiz-adv-x="532" unicode="&#317;" /><glyph d="M211 -274 258 -70H295L239 -274ZM79 730H116V36H483V0H79Z" glyph-name="Lcommaaccent" horiz-adv-x="532" unicode="&#315;" /><glyph d="M79 730H116V36H483V0H79ZM446 428H483V288H446Z" glyph-name="Ldot" horiz-adv-x="547" unicode="&#319;" /><glyph d="M10 364 108 393V730H145V404L338 461V432L145 375V36H512V0H108V364L10 336Z" glyph-name="Lslash" horiz-adv-x="562" unicode="&#321;" /><glyph d="M79 730H116L431 293L758 730H794V0H756V668L431 231L116 665V0H79Z" glyph-name="M" horiz-adv-x="872" unicode="M" /><glyph d="M79 730H119L629 58V730H666V0H627L116 672V0H79Z" glyph-name="N" horiz-adv-x="745" unicode="N" /><glyph d="M482 950H532L397 803H359ZM79 730H119L629 58V730H666V0H627L116 672V0H79Z" glyph-name="Nacute" horiz-adv-x="745" unicode="&#323;" /><glyph d="M240 950H280L374 832L469 950H510L391 803H359ZM79 730H119L629 58V730H666V0H627L116 672V0H79Z" glyph-name="Ncaron" horiz-adv-x="745" unicode="&#327;" /><glyph d="M302 -274 349 -70H386L330 -274ZM79 730H119L629 58V730H666V0H627L116 672V0H79Z" glyph-name="Ncommaaccent" horiz-adv-x="745" unicode="&#325;" /><glyph d="M79 730H119L629 58V730H666V0H627L116 672V0H79ZM199 803Q199 847 223.5 873Q248 899 287 899Q312 899 333.5 888.5Q355 878 376 865Q397 852 417.5 841.5Q438 831 459 831Q485 831 501.5 846.5Q518 862 518 896H550Q550 849 525.5 824Q501 799 458 799Q431 799 407.5 810Q384 821 363 834Q343 847 324.5 856.5Q306 866 287 866Q263 866 246.5 850.5Q230 835 230 803Z" glyph-name="Ntilde" horiz-adv-x="745" unicode="&#209;" /><glyph d="M430 -10Q352 -10 284 19.5Q216 49 165 100Q114 151 84.5 219Q55 287 55 365Q55 443 84.5 511Q114 579 165 630Q216 681 284 710.5Q352 740 430 740Q508 740 576 710.5Q644 681 695 630Q746 579 775.5 511Q805 443 805 365Q805 287 775.5 219Q746 151 695 100Q644 49 576 19.5Q508 -10 430 -10ZM430 25Q501 25 562 52Q623 79 669 125Q715 171 741 233Q767 295 767 365Q767 435 741 497Q715 559 669 605Q623 651 562 678Q501 705 430 705Q360 705 298.5 678Q237 651 191.5 605Q146 559 120 497Q94 435 94 365Q94 295 120 233Q146 171 191.5 125Q237 79 298.5 52Q360 25 430 25Z" glyph-name="O" horiz-adv-x="861" unicode="O" /><glyph d="M767 209Q746 161 712.5 120.5Q679 80 635.5 51Q592 22 540 6Q488 -10 430 -10Q352 -10 284 19.5Q216 49 165 100Q114 151 84.5 219Q55 287 55 365Q55 443 84.5 511Q114 579 165 630Q216 681 284 710.5Q352 740 430 740Q488 740 540 724Q592 708 635.5 679Q679 650 712.5 609.5Q746 569 767 520V730H1217V695H804V383H1217V348H804V36H1217V0H767ZM430 26Q500 26 561.5 52.5Q623 79 668.5 125Q714 171 740.5 233Q767 295 767 365Q767 435 740.5 497Q714 559 668.5 605Q623 651 561.5 677.5Q500 704 430 704Q360 704 298.5 677.5Q237 651 191.5 605Q146 559 119.5 497Q93 435 93 365Q93 295 119.5 233Q146 171 191.5 125Q237 79 298.5 52.5Q360 26 430 26Z" glyph-name="OE" horiz-adv-x="1287" unicode="&#338;" /><glyph d="M523 950H573L438 803H400ZM430 -10Q352 -10 284 19.5Q216 49 165 100Q114 151 84.5 219Q55 287 55 365Q55 443 84.5 511Q114 579 165 630Q216 681 284 710.5Q352 740 430 740Q508 740 576 710.5Q644 681 695 630Q746 579 775.5 511Q805 443 805 365Q805 287 775.5 219Q746 151 695 100Q644 49 576 19.5Q508 -10 430 -10ZM430 25Q501 25 562 52Q623 79 669 125Q715 171 741 233Q767 295 767 365Q767 435 741 497Q715 559 669 605Q623 651 562 678Q501 705 430 705Q360 705 298.5 678Q237 651 191.5 605Q146 559 120 497Q94 435 94 365Q94 295 120 233Q146 171 191.5 125Q237 79 298.5 52Q360 25 430 25Z" glyph-name="Oacute" horiz-adv-x="861" unicode="&#211;" /><glyph d="M430 -10Q352 -10 284 19.5Q216 49 165 100Q114 151 84.5 219Q55 287 55 365Q55 443 84.5 511Q114 579 165 630Q216 681 284 710.5Q352 740 430 740Q508 740 576 710.5Q644 681 695 630Q746 579 775.5 511Q805 443 805 365Q805 287 775.5 219Q746 151 695 100Q644 49 576 19.5Q508 -10 430 -10ZM430 25Q501 25 562 52Q623 79 669 125Q715 171 741 233Q767 295 767 365Q767 435 741 497Q715 559 669 605Q623 651 562 678Q501 705 430 705Q360 705 298.5 678Q237 651 191.5 605Q146 559 120 497Q94 435 94 365Q94 295 120 233Q146 171 191.5 125Q237 79 298.5 52Q360 25 430 25ZM427 799Q386 799 355.5 812Q325 825 305 846Q285 867 275 894.5Q265 922 265 950H298Q298 927 306 905Q314 883 330 866Q346 849 370 838.5Q394 828 427 828Q457 828 481 838.5Q505 849 521.5 866Q538 883 546.5 905Q555 927 555 950H588Q588 922 577 894.5Q566 867 545 846Q524 825 494.5 812Q465 799 427 799Z" glyph-name="Obreve" horiz-adv-x="861" unicode="&#334;" /><glyph d="M410 950H442L561 803H521L426 920L332 803H291ZM430 -10Q352 -10 284 19.5Q216 49 165 100Q114 151 84.5 219Q55 287 55 365Q55 443 84.5 511Q114 579 165 630Q216 681 284 710.5Q352 740 430 740Q508 740 576 710.5Q644 681 695 630Q746 579 775.5 511Q805 443 805 365Q805 287 775.5 219Q746 151 695 100Q644 49 576 19.5Q508 -10 430 -10ZM430 25Q501 25 562 52Q623 79 669 125Q715 171 741 233Q767 295 767 365Q767 435 741 497Q715 559 669 605Q623 651 562 678Q501 705 430 705Q360 705 298.5 678Q237 651 191.5 605Q146 559 120 497Q94 435 94 365Q94 295 120 233Q146 171 191.5 125Q237 79 298.5 52Q360 25 430 25Z" glyph-name="Ocircumflex" horiz-adv-x="861" unicode="&#212;" /><glyph d="M460 945H496V805H460ZM360 945H396V805H360ZM430 -10Q352 -10 284 19.5Q216 49 165 100Q114 151 84.5 219Q55 287 55 365Q55 443 84.5 511Q114 579 165 630Q216 681 284 710.5Q352 740 430 740Q508 740 576 710.5Q644 681 695 630Q746 579 775.5 511Q805 443 805 365Q805 287 775.5 219Q746 151 695 100Q644 49 576 19.5Q508 -10 430 -10ZM430 25Q501 25 562 52Q623 79 669 125Q715 171 741 233Q767 295 767 365Q767 435 741 497Q715 559 669 605Q623 651 562 678Q501 705 430 705Q360 705 298.5 678Q237 651 191.5 605Q146 559 120 497Q94 435 94 365Q94 295 120 233Q146 171 191.5 125Q237 79 298.5 52Q360 25 430 25Z" glyph-name="Odieresis" horiz-adv-x="861" unicode="&#214;" /><glyph d="M430 -10Q352 -10 284 19.5Q216 49 165 100Q114 151 84.5 219Q55 287 55 365Q55 443 84.5 511Q114 579 165 630Q216 681 284 710.5Q352 740 430 740Q508 740 576 710.5Q644 681 695 630Q746 579 775.5 511Q805 443 805 365Q805 287 775.5 219Q746 151 695 100Q644 49 576 19.5Q508 -10 430 -10ZM430 25Q501 25 562 52Q623 79 669 125Q715 171 741 233Q767 295 767 365Q767 435 741 497Q715 559 669 605Q623 651 562 678Q501 705 430 705Q360 705 298.5 678Q237 651 191.5 605Q146 559 120 497Q94 435 94 365Q94 295 120 233Q146 171 191.5 125Q237 79 298.5 52Q360 25 430 25ZM274 950H324L447 803H409Z" glyph-name="Ograve" horiz-adv-x="861" unicode="&#210;" /><glyph d="M472 950H520L385 803H349ZM573 950H621L486 803H450ZM430 -10Q352 -10 284 19.5Q216 49 165 100Q114 151 84.5 219Q55 287 55 365Q55 443 84.5 511Q114 579 165 630Q216 681 284 710.5Q352 740 430 740Q508 740 576 710.5Q644 681 695 630Q746 579 775.5 511Q805 443 805 365Q805 287 775.5 219Q746 151 695 100Q644 49 576 19.5Q508 -10 430 -10ZM430 25Q501 25 562 52Q623 79 669 125Q715 171 741 233Q767 295 767 365Q767 435 741 497Q715 559 669 605Q623 651 562 678Q501 705 430 705Q360 705 298.5 678Q237 651 191.5 605Q146 559 120 497Q94 435 94 365Q94 295 120 233Q146 171 191.5 125Q237 79 298.5 52Q360 25 430 25Z" glyph-name="Ohungarumlaut" horiz-adv-x="861" unicode="&#336;" /><glyph d="M295 835H559V803H295ZM430 -10Q352 -10 284 19.5Q216 49 165 100Q114 151 84.5 219Q55 287 55 365Q55 443 84.5 511Q114 579 165 630Q216 681 284 710.5Q352 740 430 740Q508 740 576 710.5Q644 681 695 630Q746 579 775.5 511Q805 443 805 365Q805 287 775.5 219Q746 151 695 100Q644 49 576 19.5Q508 -10 430 -10ZM430 25Q501 25 562 52Q623 79 669 125Q715 171 741 233Q767 295 767 365Q767 435 741 497Q715 559 669 605Q623 651 562 678Q501 705 430 705Q360 705 298.5 678Q237 651 191.5 605Q146 559 120 497Q94 435 94 365Q94 295 120 233Q146 171 191.5 125Q237 79 298.5 52Q360 25 430 25Z" glyph-name="Omacron" horiz-adv-x="861" unicode="&#332;" /><glyph d="M194 73Q130 125 92.5 200.5Q55 276 55 365Q55 443 84.5 511Q114 579 165 630Q216 681 284 710.5Q352 740 430 740Q488 740 540.5 723.5Q593 707 638 677L677 730H722L667 655Q730 603 767.5 528Q805 453 805 365Q805 287 775.5 219Q746 151 695 100Q644 49 576 19.5Q508 -10 430 -10Q372 -10 320 6.5Q268 23 223 52L185 0H140ZM94 365Q94 286 126.5 218Q159 150 215 103L617 648Q576 675 529 690Q482 705 430 705Q360 705 298.5 678Q237 651 191.5 605Q146 559 120 497Q94 435 94 365ZM430 25Q501 25 562 52Q623 79 669 125Q715 171 741 233Q767 295 767 365Q767 444 734.5 511.5Q702 579 646 626L245 81Q285 55 331.5 40Q378 25 430 25Z" glyph-name="Oslash" horiz-adv-x="861" unicode="&#216;" /><glyph d="M194 73Q130 125 92.5 200.5Q55 276 55 365Q55 443 84.5 511Q114 579 165 630Q216 681 284 710.5Q352 740 430 740Q488 740 540.5 723.5Q593 707 638 677L677 730H722L667 655Q730 603 767.5 528Q805 453 805 365Q805 287 775.5 219Q746 151 695 100Q644 49 576 19.5Q508 -10 430 -10Q372 -10 320 6.5Q268 23 223 52L185 0H140ZM94 365Q94 286 126.5 218Q159 150 215 103L617 648Q576 675 529 690Q482 705 430 705Q360 705 298.5 678Q237 651 191.5 605Q146 559 120 497Q94 435 94 365ZM430 25Q501 25 562 52Q623 79 669 125Q715 171 741 233Q767 295 767 365Q767 444 734.5 511.5Q702 579 646 626L245 81Q285 55 331.5 40Q378 25 430 25ZM528 950H578L443 803H405Z" glyph-name="Oslashacute" horiz-adv-x="861" unicode="&#510;" /><glyph d="M430 -10Q352 -10 284 19.5Q216 49 165 100Q114 151 84.5 219Q55 287 55 365Q55 443 84.5 511Q114 579 165 630Q216 681 284 710.5Q352 740 430 740Q508 740 576 710.5Q644 681 695 630Q746 579 775.5 511Q805 443 805 365Q805 287 775.5 219Q746 151 695 100Q644 49 576 19.5Q508 -10 430 -10ZM430 25Q501 25 562 52Q623 79 669 125Q715 171 741 233Q767 295 767 365Q767 435 741 497Q715 559 669 605Q623 651 562 678Q501 705 430 705Q360 705 298.5 678Q237 651 191.5 605Q146 559 120 497Q94 435 94 365Q94 295 120 233Q146 171 191.5 125Q237 79 298.5 52Q360 25 430 25ZM250 803Q250 847 274.5 873Q299 899 338 899Q363 899 384.5 888.5Q406 878 427 865Q448 852 468.5 841.5Q489 831 510 831Q536 831 552.5 846.5Q569 862 569 896H601Q601 849 576.5 824Q552 799 509 799Q482 799 458.5 810Q435 821 414 834Q394 847 375.5 856.5Q357 866 338 866Q314 866 297.5 850.5Q281 835 281 803Z" glyph-name="Otilde" horiz-adv-x="861" unicode="&#213;" /><glyph d="M78 730H114V654Q108 649 101 638Q94 627 90 620H78ZM763 620Q758 627 751 638Q744 649 738 654V730H774V620ZM430 -10Q352 -10 284 19.5Q216 49 165 100Q114 151 84.5 219Q55 287 55 365Q55 443 84.5 511Q114 579 165 630Q216 681 284 710.5Q352 740 430 740Q508 740 576 710.5Q644 681 695 630Q746 579 775.5 511Q805 443 805 365Q805 287 775.5 219Q746 151 695 100Q644 49 576 19.5Q508 -10 430 -10ZM430 25Q501 25 562 52Q623 79 669 125Q715 171 741 233Q767 295 767 365Q767 435 741 497Q715 559 669 605Q623 651 562 678Q501 705 430 705Q360 705 298.5 678Q237 651 191.5 605Q146 559 120 497Q94 435 94 365Q94 295 120 233Q146 171 191.5 125Q237 79 298.5 52Q360 25 430 25Z" glyph-name="Oumlaut" horiz-adv-x="861" unicode="&#61815;" /><glyph d="M79 730H292Q354 730 403.5 711.5Q453 693 487.5 660.5Q522 628 541 583.5Q560 539 560 486Q560 434 541 389Q522 344 487.5 311Q453 278 403.5 259Q354 240 292 240H168V275H290Q344 275 387 291Q430 307 460 335Q490 363 506 402Q522 441 522 486Q522 531 506 569.5Q490 608 460 635.5Q430 663 387 679Q344 695 290 695H116V0H79Z" glyph-name="P" horiz-adv-x="615" unicode="P" /><glyph d="M477 286H524L667 124Q713 171 740 232Q767 293 767 365Q767 435 741 497Q715 559 669 605Q623 651 562 678Q501 705 430 705Q360 705 298.5 678Q237 651 191.5 605Q146 559 120 497Q94 435 94 365Q94 295 120 233Q146 171 191.5 125Q237 79 298.5 52Q360 25 430 25Q478 25 519.5 38Q561 51 598 74L623 46Q581 20 532.5 5Q484 -10 430 -10Q352 -10 284 19.5Q216 49 165 100Q114 151 84.5 219Q55 287 55 365Q55 443 84.5 511Q114 579 165 630Q216 681 284 710.5Q352 740 430 740Q508 740 576 710.5Q644 681 695 630Q746 579 775.5 511Q805 443 805 365Q805 285 774 216.5Q743 148 690 97L776 0H728Z" glyph-name="Q" horiz-adv-x="861" unicode="Q" /><glyph d="M79 730H300Q349 730 391 712.5Q433 695 464.5 664.5Q496 634 514 593.5Q532 553 532 506Q532 464 517 426Q502 388 475.5 358.5Q449 329 412.5 310Q376 291 332 286L535 0H490L269 315H297Q339 315 375 330.5Q411 346 437.5 372.5Q464 399 479 433.5Q494 468 494 506Q494 545 479 579.5Q464 614 438 639.5Q412 665 376 680Q340 695 298 695H116V0H79Z" glyph-name="R" horiz-adv-x="587" unicode="R" /><glyph d="M354 950H404L269 803H231ZM79 730H300Q349 730 391 712.5Q433 695 464.5 664.5Q496 634 514 593.5Q532 553 532 506Q532 464 517 426Q502 388 475.5 358.5Q449 329 412.5 310Q376 291 332 286L535 0H490L269 315H297Q339 315 375 330.5Q411 346 437.5 372.5Q464 399 479 433.5Q494 468 494 506Q494 545 479 579.5Q464 614 438 639.5Q412 665 376 680Q340 695 298 695H116V0H79Z" glyph-name="Racute" horiz-adv-x="586" unicode="&#340;" /><glyph d="M138 950H178L272 832L367 950H408L289 803H257ZM79 730H300Q349 730 391 712.5Q433 695 464.5 664.5Q496 634 514 593.5Q532 553 532 506Q532 464 517 426Q502 388 475.5 358.5Q449 329 412.5 310Q376 291 332 286L535 0H490L269 315H297Q339 315 375 330.5Q411 346 437.5 372.5Q464 399 479 433.5Q494 468 494 506Q494 545 479 579.5Q464 614 438 639.5Q412 665 376 680Q340 695 298 695H116V0H79Z" glyph-name="Rcaron" horiz-adv-x="586" unicode="&#344;" /><glyph d="M231 -274 278 -70H315L259 -274ZM79 730H300Q349 730 391 712.5Q433 695 464.5 664.5Q496 634 514 593.5Q532 553 532 506Q532 464 517 426Q502 388 475.5 358.5Q449 329 412.5 310Q376 291 332 286L535 0H490L269 315H297Q339 315 375 330.5Q411 346 437.5 372.5Q464 399 479 433.5Q494 468 494 506Q494 545 479 579.5Q464 614 438 639.5Q412 665 376 680Q340 695 298 695H116V0H79Z" glyph-name="Rcommaaccent" horiz-adv-x="586" unicode="&#342;" /><glyph d="M266 -10Q192 -10 132.5 19Q73 48 36 95L67 119Q100 77 151.5 50.5Q203 24 266 24Q305 24 340 35.5Q375 47 401.5 69Q428 91 443.5 123Q459 155 459 195Q459 236 442.5 263.5Q426 291 399 310Q372 329 337.5 342Q303 355 267 367Q228 379 191 393.5Q154 408 125 429Q96 450 78.5 481.5Q61 513 61 560Q61 601 77 634Q93 667 121.5 690.5Q150 714 188.5 727Q227 740 271 740Q341 740 391 715.5Q441 691 475 649L445 627Q417 665 373.5 685.5Q330 706 270 706Q235 706 203.5 695.5Q172 685 148.5 666Q125 647 111.5 620Q98 593 98 560Q98 521 114 495Q130 469 157 451Q184 433 218.5 421Q253 409 289 397Q328 385 365 369.5Q402 354 431.5 331.5Q461 309 479 276Q497 243 497 195Q497 150 479.5 112Q462 74 431 47Q400 20 357.5 5Q315 -10 266 -10Z" glyph-name="S" horiz-adv-x="552" unicode="S" /><glyph d="M374 949H424L289 802H251ZM266 -10Q192 -10 132.5 19Q73 48 36 95L67 119Q100 77 151.5 50.5Q203 24 266 24Q305 24 340 35.5Q375 47 401.5 69Q428 91 443.5 123Q459 155 459 195Q459 236 442.5 263.5Q426 291 399 310Q372 329 337.5 342Q303 355 267 367Q228 379 191 393.5Q154 408 125 429Q96 450 78.5 481.5Q61 513 61 560Q61 601 77 634Q93 667 121.5 690.5Q150 714 188.5 727Q227 740 271 740Q341 740 391 715.5Q441 691 475 649L445 627Q417 665 373.5 685.5Q330 706 270 706Q235 706 203.5 695.5Q172 685 148.5 666Q125 647 111.5 620Q98 593 98 560Q98 521 114 495Q130 469 157 451Q184 433 218.5 421Q253 409 289 397Q328 385 365 369.5Q402 354 431.5 331.5Q461 309 479 276Q497 243 497 195Q497 150 479.5 112Q462 74 431 47Q400 20 357.5 5Q315 -10 266 -10Z" glyph-name="Sacute" horiz-adv-x="552" unicode="&#346;" /><glyph d="M136 950H176L270 832L365 950H406L287 803H255ZM266 -10Q192 -10 132.5 19Q73 48 36 95L67 119Q100 77 151.5 50.5Q203 24 266 24Q305 24 340 35.5Q375 47 401.5 69Q428 91 443.5 123Q459 155 459 195Q459 236 442.5 263.5Q426 291 399 310Q372 329 337.5 342Q303 355 267 367Q228 379 191 393.5Q154 408 125 429Q96 450 78.5 481.5Q61 513 61 560Q61 601 77 634Q93 667 121.5 690.5Q150 714 188.5 727Q227 740 271 740Q341 740 391 715.5Q441 691 475 649L445 627Q417 665 373.5 685.5Q330 706 270 706Q235 706 203.5 695.5Q172 685 148.5 666Q125 647 111.5 620Q98 593 98 560Q98 521 114 495Q130 469 157 451Q184 433 218.5 421Q253 409 289 397Q328 385 365 369.5Q402 354 431.5 331.5Q461 309 479 276Q497 243 497 195Q497 150 479.5 112Q462 74 431 47Q400 20 357.5 5Q315 -10 266 -10Z" glyph-name="Scaron" horiz-adv-x="552" unicode="&#352;" /><glyph d="M274 -221Q229 -221 197.5 -206.5Q166 -192 143 -169L173 -150Q194 -169 216 -180.5Q238 -192 274 -192Q316 -192 342 -175Q368 -158 368 -132Q368 -109 342 -94Q316 -79 271 -79H248V-9Q180 -5 125.5 23Q71 51 36 95L67 119Q100 77 151.5 50.5Q203 24 266 24Q305 24 340 35.5Q375 47 401.5 69Q428 91 443.5 123Q459 155 459 195Q459 236 442.5 263.5Q426 291 399 310Q372 329 337.5 342Q303 355 267 367Q228 379 191 393.5Q154 408 125 429Q96 450 78.5 481.5Q61 513 61 560Q61 601 77 634Q93 667 121.5 690.5Q150 714 188.5 727Q227 740 271 740Q341 740 391 715.5Q441 691 475 649L445 627Q417 665 373.5 685.5Q330 706 270 706Q235 706 203.5 695.5Q172 685 148.5 666Q125 647 111.5 620Q98 593 98 560Q98 521 114 495Q130 469 157 451Q184 433 218.5 421Q253 409 289 397Q328 385 365 369.5Q402 354 431.5 331.5Q461 309 479 276Q497 243 497 195Q497 151 480.5 114.5Q464 78 434.5 51Q405 24 365.5 8Q326 -8 279 -10V-55Q336 -55 370 -75.5Q404 -96 404 -131Q404 -170 367.5 -195.5Q331 -221 274 -221Z" glyph-name="Scedilla" horiz-adv-x="552" unicode="&#350;" /><glyph d="M254 950H286L405 803H365L270 920L176 803H135ZM266 -10Q192 -10 132.5 19Q73 48 36 95L67 119Q100 77 151.5 50.5Q203 24 266 24Q305 24 340 35.5Q375 47 401.5 69Q428 91 443.5 123Q459 155 459 195Q459 236 442.5 263.5Q426 291 399 310Q372 329 337.5 342Q303 355 267 367Q228 379 191 393.5Q154 408 125 429Q96 450 78.5 481.5Q61 513 61 560Q61 601 77 634Q93 667 121.5 690.5Q150 714 188.5 727Q227 740 271 740Q341 740 391 715.5Q441 691 475 649L445 627Q417 665 373.5 685.5Q330 706 270 706Q235 706 203.5 695.5Q172 685 148.5 666Q125 647 111.5 620Q98 593 98 560Q98 521 114 495Q130 469 157 451Q184 433 218.5 421Q253 409 289 397Q328 385 365 369.5Q402 354 431.5 331.5Q461 309 479 276Q497 243 497 195Q497 150 479.5 112Q462 74 431 47Q400 20 357.5 5Q315 -10 266 -10Z" glyph-name="Scircumflex" horiz-adv-x="552" unicode="&#348;" /><glyph d="M210 -258 257 -54H294L238 -258ZM266 -10Q192 -10 132.5 19Q73 48 36 95L67 119Q100 77 151.5 50.5Q203 24 266 24Q305 24 340 35.5Q375 47 401.5 69Q428 91 443.5 123Q459 155 459 195Q459 236 442.5 263.5Q426 291 399 310Q372 329 337.5 342Q303 355 267 367Q228 379 191 393.5Q154 408 125 429Q96 450 78.5 481.5Q61 513 61 560Q61 601 77 634Q93 667 121.5 690.5Q150 714 188.5 727Q227 740 271 740Q341 740 391 715.5Q441 691 475 649L445 627Q417 665 373.5 685.5Q330 706 270 706Q235 706 203.5 695.5Q172 685 148.5 666Q125 647 111.5 620Q98 593 98 560Q98 521 114 495Q130 469 157 451Q184 433 218.5 421Q253 409 289 397Q328 385 365 369.5Q402 354 431.5 331.5Q461 309 479 276Q497 243 497 195Q497 150 479.5 112Q462 74 431 47Q400 20 357.5 5Q315 -10 266 -10Z" glyph-name="Scommaaccent" horiz-adv-x="552" unicode="&#536;" /><glyph d="M286 695H50V730H560V695H323V0H286Z" glyph-name="T" horiz-adv-x="610" unicode="T" /><glyph d="M159 400H286V695H50V730H560V695H323V400H463V366H323V0H286V366H159Z" glyph-name="Tbar" horiz-adv-x="610" unicode="&#358;" /><glyph d="M167 950H207L301 832L396 950H437L318 803H286ZM286 695H50V730H560V695H323V0H286Z" glyph-name="Tcaron" horiz-adv-x="610" unicode="&#356;" /><glyph d="M247 -274 294 -70H331L275 -274ZM286 695H50V730H560V695H323V0H286Z" glyph-name="Tcommaaccent" horiz-adv-x="610" unicode="&#354;" /><glyph d="M74 730H111V576H280Q332 576 374.5 561Q417 546 447 518.5Q477 491 493 453.5Q509 416 509 371Q509 326 493 288Q477 250 447.5 222.5Q418 195 375.5 179.5Q333 164 280 164H111V0H74ZM111 541V199H278Q323 199 358.5 212Q394 225 418.5 247.5Q443 270 456.5 302Q470 334 470 371Q470 408 456.5 439.5Q443 471 418.5 493.5Q394 516 358.5 528.5Q323 541 278 541Z" glyph-name="Thorn" horiz-adv-x="573" unicode="&#222;" /><glyph d="M324 -10Q271 -10 225.5 9.5Q180 29 147 62.5Q114 96 95 141Q76 186 76 237V730H113V237Q113 193 129.5 154Q146 115 174.5 86.5Q203 58 241.5 41.5Q280 25 324 25Q368 25 407 41.5Q446 58 474.5 86.5Q503 115 519.5 154Q536 193 536 237V730H573V238Q573 186 554 141Q535 96 501.5 62.5Q468 29 422.5 9.5Q377 -10 324 -10Z" glyph-name="U" horiz-adv-x="649" unicode="U" /><glyph d="M416 950H466L331 803H293ZM324 -10Q271 -10 225.5 9.5Q180 29 147 62.5Q114 96 95 141Q76 186 76 237V730H113V237Q113 193 129.5 154Q146 115 174.5 86.5Q203 58 241.5 41.5Q280 25 324 25Q368 25 407 41.5Q446 58 474.5 86.5Q503 115 519.5 154Q536 193 536 237V730H573V238Q573 186 554 141Q535 96 501.5 62.5Q468 29 422.5 9.5Q377 -10 324 -10Z" glyph-name="Uacute" horiz-adv-x="649" unicode="&#218;" /><glyph d="M324 -10Q271 -10 225.5 9.5Q180 29 147 62.5Q114 96 95 141Q76 186 76 237V730H113V237Q113 193 129.5 154Q146 115 174.5 86.5Q203 58 241.5 41.5Q280 25 324 25Q368 25 407 41.5Q446 58 474.5 86.5Q503 115 519.5 154Q536 193 536 237V730H573V238Q573 186 554 141Q535 96 501.5 62.5Q468 29 422.5 9.5Q377 -10 324 -10ZM323 798Q282 798 251.5 811Q221 824 201 845Q181 866 171 893.5Q161 921 161 949H194Q194 926 202 904Q210 882 226 865Q242 848 266 837.5Q290 827 323 827Q353 827 377 837.5Q401 848 417.5 865Q434 882 442.5 904Q451 926 451 949H484Q484 921 473 893.5Q462 866 441 845Q420 824 390.5 811Q361 798 323 798Z" glyph-name="Ubreve" horiz-adv-x="649" unicode="&#364;" /><glyph d="M306 950H338L457 803H417L322 920L228 803H187ZM324 -10Q271 -10 225.5 9.5Q180 29 147 62.5Q114 96 95 141Q76 186 76 237V730H113V237Q113 193 129.5 154Q146 115 174.5 86.5Q203 58 241.5 41.5Q280 25 324 25Q368 25 407 41.5Q446 58 474.5 86.5Q503 115 519.5 154Q536 193 536 237V730H573V238Q573 186 554 141Q535 96 501.5 62.5Q468 29 422.5 9.5Q377 -10 324 -10Z" glyph-name="Ucircumflex" horiz-adv-x="649" unicode="&#219;" /><glyph d="M356 945H392V805H356ZM256 945H292V805H256ZM324 -10Q271 -10 225.5 9.5Q180 29 147 62.5Q114 96 95 141Q76 186 76 237V730H113V237Q113 193 129.5 154Q146 115 174.5 86.5Q203 58 241.5 41.5Q280 25 324 25Q368 25 407 41.5Q446 58 474.5 86.5Q503 115 519.5 154Q536 193 536 237V730H573V238Q573 186 554 141Q535 96 501.5 62.5Q468 29 422.5 9.5Q377 -10 324 -10Z" glyph-name="Udieresis" horiz-adv-x="649" unicode="&#220;" /><glyph d="M324 -10Q271 -10 225.5 9.5Q180 29 147 62.5Q114 96 95 141Q76 186 76 237V730H113V237Q113 193 129.5 154Q146 115 174.5 86.5Q203 58 241.5 41.5Q280 25 324 25Q368 25 407 41.5Q446 58 474.5 86.5Q503 115 519.5 154Q536 193 536 237V730H573V238Q573 186 554 141Q535 96 501.5 62.5Q468 29 422.5 9.5Q377 -10 324 -10ZM175 950H225L348 803H310Z" glyph-name="Ugrave" horiz-adv-x="649" unicode="&#217;" /><glyph d="M324 -10Q271 -10 225.5 9.5Q180 29 147 62.5Q114 96 95 141Q76 186 76 237V730H113V237Q113 193 129.5 154Q146 115 174.5 86.5Q203 58 241.5 41.5Q280 25 324 25Q368 25 407 41.5Q446 58 474.5 86.5Q503 115 519.5 154Q536 193 536 237V730H573V238Q573 186 554 141Q535 96 501.5 62.5Q468 29 422.5 9.5Q377 -10 324 -10ZM364 950H412L277 803H241ZM465 950H513L378 803H342Z" glyph-name="Uhungarumlaut" horiz-adv-x="649" unicode="&#368;" /><glyph d="M324 -10Q271 -10 225.5 9.5Q180 29 147 62.5Q114 96 95 141Q76 186 76 237V730H113V237Q113 193 129.5 154Q146 115 174.5 86.5Q203 58 241.5 41.5Q280 25 324 25Q368 25 407 41.5Q446 58 474.5 86.5Q503 115 519.5 154Q536 193 536 237V730H573V238Q573 186 554 141Q535 96 501.5 62.5Q468 29 422.5 9.5Q377 -10 324 -10ZM192 835H456V803H192Z" glyph-name="Umacron" horiz-adv-x="649" unicode="&#362;" /><glyph d="M325 -206Q270 -206 236.5 -180Q203 -154 203 -115Q203 -87 222 -60Q241 -33 288 -7Q242 -1 203 20.5Q164 42 136 74.5Q108 107 92 148.5Q76 190 76 237V730H113V237Q113 193 129.5 154Q146 115 174.5 86.5Q203 58 241.5 41.5Q280 25 324 25Q368 25 407 41.5Q446 58 474.5 86.5Q503 115 519.5 154Q536 193 536 237V730H573V238Q573 190 556.5 147.5Q540 105 510.5 72Q481 39 440.5 18Q400 -3 353 -8Q290 -40 265 -64Q240 -88 240 -115Q240 -142 263.5 -158Q287 -174 325 -174Q357 -174 380 -161.5Q403 -149 423 -130L453 -151Q430 -173 397 -189.5Q364 -206 325 -206Z" glyph-name="Uogonek" horiz-adv-x="649" unicode="&#370;" /><glyph d="M319 797Q301 797 284.5 804.5Q268 812 255.5 824.5Q243 837 235.5 853.5Q228 870 228 888Q228 928 255 954.5Q282 981 319 981Q358 981 385 954.5Q412 928 412 888Q412 851 385 824Q358 797 319 797ZM319 828Q345 828 363 846Q381 864 381 888Q381 914 363 932.5Q345 951 319 951Q295 951 277 932.5Q259 914 259 888Q259 864 277 846Q295 828 319 828ZM324 -10Q271 -10 225.5 9.5Q180 29 147 62.5Q114 96 95 141Q76 186 76 237V730H113V237Q113 193 129.5 154Q146 115 174.5 86.5Q203 58 241.5 41.5Q280 25 324 25Q368 25 407 41.5Q446 58 474.5 86.5Q503 115 519.5 154Q536 193 536 237V730H573V238Q573 186 554 141Q535 96 501.5 62.5Q468 29 422.5 9.5Q377 -10 324 -10Z" glyph-name="Uring" horiz-adv-x="649" unicode="&#366;" /><glyph d="M324 -10Q271 -10 225.5 9.5Q180 29 147 62.5Q114 96 95 141Q76 186 76 237V730H113V237Q113 193 129.5 154Q146 115 174.5 86.5Q203 58 241.5 41.5Q280 25 324 25Q368 25 407 41.5Q446 58 474.5 86.5Q503 115 519.5 154Q536 193 536 237V730H573V238Q573 186 554 141Q535 96 501.5 62.5Q468 29 422.5 9.5Q377 -10 324 -10ZM153 803Q153 847 177.5 873Q202 899 241 899Q266 899 287.5 888.5Q309 878 330 865Q351 852 371.5 841.5Q392 831 413 831Q439 831 455.5 846.5Q472 862 472 896H504Q504 849 479.5 824Q455 799 412 799Q385 799 361.5 810Q338 821 317 834Q297 847 278.5 856.5Q260 866 241 866Q217 866 200.5 850.5Q184 835 184 803Z" glyph-name="Utilde" horiz-adv-x="649" unicode="&#360;" /><glyph d="M399 730H433V590H399ZM221 730H255V590H221ZM326 -9Q273 -9 227 9.5Q181 28 147.5 61.5Q114 95 95 140.5Q76 186 76 240V730H113V239Q113 193 129.5 153.5Q146 114 174.5 85.5Q203 57 242.5 41Q282 25 327 25Q372 25 411 41Q450 57 479 86Q508 115 524.5 154.5Q541 194 541 240V730H578V240Q578 186 558.5 140.5Q539 95 505.5 61.5Q472 28 426 9.5Q380 -9 326 -9Z" glyph-name="Uumlaut" horiz-adv-x="654" unicode="&#61816;" /><glyph d="M601 730H641L361 0H321L40 730H80L340 54Z" glyph-name="V" horiz-adv-x="681" unicode="V" /><glyph d="M47 730H88L285 59L518 730H554L787 58L988 730H1027L806 0H768L536 670L303 0H265Z" glyph-name="W" horiz-adv-x="1075" unicode="W" /><glyph d="M638 950H688L553 803H515ZM47 730H88L285 59L518 730H554L787 58L988 730H1027L806 0H768L536 670L303 0H265Z" glyph-name="Wacute" horiz-adv-x="1075" unicode="&#7810;" /><glyph d="M519 950H551L670 803H630L535 920L441 803H400ZM47 730H88L285 59L518 730H554L787 58L988 730H1027L806 0H768L536 670L303 0H265Z" glyph-name="Wcircumflex" horiz-adv-x="1075" unicode="&#372;" /><glyph d="M568 945H604V805H568ZM468 945H504V805H468ZM47 730H88L285 59L518 730H554L787 58L988 730H1027L806 0H768L536 670L303 0H265Z" glyph-name="Wdieresis" horiz-adv-x="1075" unicode="&#7812;" /><glyph d="M47 730H88L285 59L518 730H554L787 58L988 730H1027L806 0H768L536 670L303 0H265ZM381 950H431L554 803H516Z" glyph-name="Wgrave" horiz-adv-x="1075" unicode="&#7808;" /><glyph d="M61 730H103L326 409L546 730H590L347 380L611 0H568ZM297 314 82 0H39L277 344Z" glyph-name="X" horiz-adv-x="650" unicode="X" /><glyph d="M285 348 37 730H80L303 384L526 730H569L322 348V0H285Z" glyph-name="Y" horiz-adv-x="606" unicode="Y" /><glyph d="M285 348 37 730H80L303 384L526 730H569L322 348V0H285ZM402 950H452L317 803H279Z" glyph-name="Yacute" horiz-adv-x="606" unicode="&#221;" /><glyph d="M285 348 37 730H80L303 384L526 730H569L322 348V0H285ZM285 950H317L436 803H396L301 920L207 803H166Z" glyph-name="Ycircumflex" horiz-adv-x="606" unicode="&#374;" /><glyph d="M285 348 37 730H80L303 384L526 730H569L322 348V0H285ZM334 945H370V805H334ZM234 945H270V805H234Z" glyph-name="Ydieresis" horiz-adv-x="606" unicode="&#376;" /><glyph d="M285 348 37 730H80L303 384L526 730H569L322 348V0H285ZM150 950H200L323 803H285Z" glyph-name="Ygrave" horiz-adv-x="606" unicode="&#7922;" /><glyph d="M55 35 495 695H76V730H540V696L99 36H543V0H55Z" glyph-name="Z" horiz-adv-x="598" unicode="Z" /><glyph d="M402 950H452L317 803H279ZM55 35 495 695H76V730H540V696L99 36H543V0H55Z" glyph-name="Zacute" horiz-adv-x="598" unicode="&#377;" /><glyph d="M169 950H209L303 832L398 950H439L320 803H288ZM55 35 495 695H76V730H540V696L99 36H543V0H55Z" glyph-name="Zcaron" horiz-adv-x="598" unicode="&#381;" /><glyph d="M55 35 495 695H76V730H540V696L99 36H543V0H55ZM287 945H324V805H287Z" glyph-name="Zdotaccent" horiz-adv-x="598" unicode="&#379;" /><glyph d="M310 -10Q256 -10 208.5 10.5Q161 31 126 66Q91 101 71 148.5Q51 196 51 250Q51 304 71 351.5Q91 399 126 434Q161 469 208 489.5Q255 510 310 510Q345 510 378.5 500.5Q412 491 441 472.5Q470 454 493.5 427.5Q517 401 531 367V500H567V0H531V133Q517 99 493.5 72.5Q470 46 441 27.5Q412 9 378.5 -0.5Q345 -10 310 -10ZM311 24Q358 24 399 41.5Q440 59 470 90Q500 121 517 162Q534 203 534 250Q534 297 517 338Q500 379 470 410Q440 441 399 458.5Q358 476 311 476Q265 476 224.5 458.5Q184 441 154 410Q124 379 106.5 338Q89 297 89 250Q89 203 106.5 162Q124 121 154 90Q184 59 224.5 41.5Q265 24 311 24Z" glyph-name="a" horiz-adv-x="641" unicode="a" /><glyph d="M222 -10Q177 -10 145.5 0Q114 10 94 28Q74 46 64.5 69.5Q55 93 55 120Q55 156 69.5 182Q84 208 110.5 226Q137 244 174.5 256Q212 268 257 277Q290 283 321.5 289.5Q353 296 377.5 306Q402 316 417 331.5Q432 347 432 371Q432 419 395 449Q358 479 273 479Q193 479 149 442.5Q105 406 105 343V340H69V342Q69 420 124 465Q179 510 273 510Q375 510 422.5 468Q470 426 470 361V0H435V96Q421 77 400.5 58Q380 39 353.5 24Q327 9 294 -0.5Q261 -10 222 -10ZM221 20Q262 20 295.5 31.5Q329 43 356 61.5Q383 80 402.5 103Q422 126 435 149V310Q419 284 371.5 270.5Q324 257 258 245Q222 238 191.5 229Q161 220 139 206.5Q117 193 104.5 172.5Q92 152 92 122Q92 79 121.5 49.5Q151 20 221 20Z" glyph-name="a.alt" horiz-adv-x="544" unicode="&#58560;" /><glyph d="M266 596H304L536 0H498L431 170H139L74 0H35ZM152 204H418L285 547Z" glyph-name="a.smcp" horiz-adv-x="571" unicode="&#57857;" /><glyph d="M310 -10Q256 -10 208.5 10.5Q161 31 126 66Q91 101 71 148.5Q51 196 51 250Q51 304 71 351.5Q91 399 126 434Q161 469 208 489.5Q255 510 310 510Q345 510 378.5 500.5Q412 491 441 472.5Q470 454 493.5 427.5Q517 401 531 367V500H567V0H531V133Q517 99 493.5 72.5Q470 46 441 27.5Q412 9 378.5 -0.5Q345 -10 310 -10ZM311 24Q358 24 399 41.5Q440 59 470 90Q500 121 517 162Q534 203 534 250Q534 297 517 338Q500 379 470 410Q440 441 399 458.5Q358 476 311 476Q265 476 224.5 458.5Q184 441 154 410Q124 379 106.5 338Q89 297 89 250Q89 203 106.5 162Q124 121 154 90Q184 59 224.5 41.5Q265 24 311 24ZM408 720H458L323 573H285Z" glyph-name="aacute" horiz-adv-x="641" unicode="&#225;" /><glyph d="M361 720H411L276 573H238ZM222 -10Q177 -10 145.5 0Q114 10 94 28Q74 46 64.5 69.5Q55 93 55 120Q55 156 69.5 182Q84 208 110.5 226Q137 244 174.5 256Q212 268 257 277Q290 283 321.5 289.5Q353 296 377.5 306Q402 316 417 331.5Q432 347 432 371Q432 419 395 449Q358 479 273 479Q193 479 149 442.5Q105 406 105 343V340H69V342Q69 420 124 465Q179 510 273 510Q375 510 422.5 468Q470 426 470 361V0H435V96Q421 77 400.5 58Q380 39 353.5 24Q327 9 294 -0.5Q261 -10 222 -10ZM221 20Q262 20 295.5 31.5Q329 43 356 61.5Q383 80 402.5 103Q422 126 435 149V310Q419 284 371.5 270.5Q324 257 258 245Q222 238 191.5 229Q161 220 139 206.5Q117 193 104.5 172.5Q92 152 92 122Q92 79 121.5 49.5Q151 20 221 20Z" glyph-name="aacute.alt" horiz-adv-x="544" unicode="&#59537;" /><glyph d="M389 816H439L304 669H266ZM266 596H304L536 0H498L431 170H139L74 0H35ZM152 204H418L285 547Z" glyph-name="aacute.smcp" horiz-adv-x="571" unicode="&#57889;" /><glyph d="M310 -10Q256 -10 208.5 10.5Q161 31 126 66Q91 101 71 148.5Q51 196 51 250Q51 304 71 351.5Q91 399 126 434Q161 469 208 489.5Q255 510 310 510Q345 510 378.5 500.5Q412 491 441 472.5Q470 454 493.5 427.5Q517 401 531 367V500H567V0H531V133Q517 99 493.5 72.5Q470 46 441 27.5Q412 9 378.5 -0.5Q345 -10 310 -10ZM311 24Q358 24 399 41.5Q440 59 470 90Q500 121 517 162Q534 203 534 250Q534 297 517 338Q500 379 470 410Q440 441 399 458.5Q358 476 311 476Q265 476 224.5 458.5Q184 441 154 410Q124 379 106.5 338Q89 297 89 250Q89 203 106.5 162Q124 121 154 90Q184 59 224.5 41.5Q265 24 311 24ZM317 564Q276 564 245.5 577Q215 590 195 611Q175 632 165 659.5Q155 687 155 715H188Q188 692 196 670Q204 648 220 631Q236 614 260 603.5Q284 593 317 593Q347 593 371 603.5Q395 614 411.5 631Q428 648 436.5 670Q445 692 445 715H478Q478 687 467 659.5Q456 632 435 611Q414 590 384.5 577Q355 564 317 564Z" glyph-name="abreve" horiz-adv-x="641" unicode="&#259;" /><glyph d="M222 -10Q177 -10 145.5 0Q114 10 94 28Q74 46 64.5 69.5Q55 93 55 120Q55 156 69.5 182Q84 208 110.5 226Q137 244 174.5 256Q212 268 257 277Q290 283 321.5 289.5Q353 296 377.5 306Q402 316 417 331.5Q432 347 432 371Q432 419 395 449Q358 479 273 479Q193 479 149 442.5Q105 406 105 343V340H69V342Q69 420 124 465Q179 510 273 510Q375 510 422.5 468Q470 426 470 361V0H435V96Q421 77 400.5 58Q380 39 353.5 24Q327 9 294 -0.5Q261 -10 222 -10ZM221 20Q262 20 295.5 31.5Q329 43 356 61.5Q383 80 402.5 103Q422 126 435 149V310Q419 284 371.5 270.5Q324 257 258 245Q222 238 191.5 229Q161 220 139 206.5Q117 193 104.5 172.5Q92 152 92 122Q92 79 121.5 49.5Q151 20 221 20ZM272 564Q231 564 200.5 577Q170 590 150 611Q130 632 120 659.5Q110 687 110 715H143Q143 692 151 670Q159 648 175 631Q191 614 215 603.5Q239 593 272 593Q302 593 326 603.5Q350 614 366.5 631Q383 648 391.5 670Q400 692 400 715H433Q433 687 422 659.5Q411 632 390 611Q369 590 339.5 577Q310 564 272 564Z" glyph-name="abreve.alt" horiz-adv-x="544" unicode="&#59542;" /><glyph d="M266 596H304L536 0H498L431 170H139L74 0H35ZM152 204H418L285 547ZM285 661Q244 661 213.5 674Q183 687 163 708Q143 729 133 756.5Q123 784 123 812H156Q156 789 164 767Q172 745 188 728Q204 711 228 700.5Q252 690 285 690Q315 690 339 700.5Q363 711 379.5 728Q396 745 404.5 767Q413 789 413 812H446Q446 784 435 756.5Q424 729 403 708Q382 687 352.5 674Q323 661 285 661Z" glyph-name="abreve.smcp" horiz-adv-x="571" unicode="&#57897;" /><glyph d="M310 -10Q256 -10 208.5 10.5Q161 31 126 66Q91 101 71 148.5Q51 196 51 250Q51 304 71 351.5Q91 399 126 434Q161 469 208 489.5Q255 510 310 510Q345 510 378.5 500.5Q412 491 441 472.5Q470 454 493.5 427.5Q517 401 531 367V500H567V0H531V133Q517 99 493.5 72.5Q470 46 441 27.5Q412 9 378.5 -0.5Q345 -10 310 -10ZM311 24Q358 24 399 41.5Q440 59 470 90Q500 121 517 162Q534 203 534 250Q534 297 517 338Q500 379 470 410Q440 441 399 458.5Q358 476 311 476Q265 476 224.5 458.5Q184 441 154 410Q124 379 106.5 338Q89 297 89 250Q89 203 106.5 162Q124 121 154 90Q184 59 224.5 41.5Q265 24 311 24ZM302 720H334L453 573H413L318 690L224 573H183Z" glyph-name="acircumflex" horiz-adv-x="641" unicode="&#226;" /><glyph d="M252 720H284L403 573H363L268 690L174 573H133ZM222 -10Q177 -10 145.5 0Q114 10 94 28Q74 46 64.5 69.5Q55 93 55 120Q55 156 69.5 182Q84 208 110.5 226Q137 244 174.5 256Q212 268 257 277Q290 283 321.5 289.5Q353 296 377.5 306Q402 316 417 331.5Q432 347 432 371Q432 419 395 449Q358 479 273 479Q193 479 149 442.5Q105 406 105 343V340H69V342Q69 420 124 465Q179 510 273 510Q375 510 422.5 468Q470 426 470 361V0H435V96Q421 77 400.5 58Q380 39 353.5 24Q327 9 294 -0.5Q261 -10 222 -10ZM221 20Q262 20 295.5 31.5Q329 43 356 61.5Q383 80 402.5 103Q422 126 435 149V310Q419 284 371.5 270.5Q324 257 258 245Q222 238 191.5 229Q161 220 139 206.5Q117 193 104.5 172.5Q92 152 92 122Q92 79 121.5 49.5Q151 20 221 20Z" glyph-name="acircumflex.alt" horiz-adv-x="544" unicode="&#59539;" /><glyph d="M268 808H300L419 661H379L284 778L190 661H149ZM266 596H304L536 0H498L431 170H139L74 0H35ZM152 204H418L285 547Z" glyph-name="acircumflex.smcp" horiz-adv-x="571" unicode="&#57891;" /><glyph d="M284 720H334L199 573H161Z" glyph-name="acute" horiz-adv-x="507" unicode="&#180;" /><glyph d="M310 -10Q256 -10 208.5 10.5Q161 31 126 66Q91 101 71 148.5Q51 196 51 250Q51 304 71 351.5Q91 399 126 434Q161 469 208 489.5Q255 510 310 510Q345 510 378.5 500.5Q412 491 441 472.5Q470 454 493.5 427.5Q517 401 531 367V500H567V0H531V133Q517 99 493.5 72.5Q470 46 441 27.5Q412 9 378.5 -0.5Q345 -10 310 -10ZM311 24Q358 24 399 41.5Q440 59 470 90Q500 121 517 162Q534 203 534 250Q534 297 517 338Q500 379 470 410Q440 441 399 458.5Q358 476 311 476Q265 476 224.5 458.5Q184 441 154 410Q124 379 106.5 338Q89 297 89 250Q89 203 106.5 162Q124 121 154 90Q184 59 224.5 41.5Q265 24 311 24ZM349 715H385V575H349ZM249 715H285V575H249Z" glyph-name="adieresis" horiz-adv-x="641" unicode="&#228;" /><glyph d="M297 715H333V575H297ZM197 715H233V575H197ZM222 -10Q177 -10 145.5 0Q114 10 94 28Q74 46 64.5 69.5Q55 93 55 120Q55 156 69.5 182Q84 208 110.5 226Q137 244 174.5 256Q212 268 257 277Q290 283 321.5 289.5Q353 296 377.5 306Q402 316 417 331.5Q432 347 432 371Q432 419 395 449Q358 479 273 479Q193 479 149 442.5Q105 406 105 343V340H69V342Q69 420 124 465Q179 510 273 510Q375 510 422.5 468Q470 426 470 361V0H435V96Q421 77 400.5 58Q380 39 353.5 24Q327 9 294 -0.5Q261 -10 222 -10ZM221 20Q262 20 295.5 31.5Q329 43 356 61.5Q383 80 402.5 103Q422 126 435 149V310Q419 284 371.5 270.5Q324 257 258 245Q222 238 191.5 229Q161 220 139 206.5Q117 193 104.5 172.5Q92 152 92 122Q92 79 121.5 49.5Q151 20 221 20Z" glyph-name="adieresis.alt" horiz-adv-x="544" unicode="&#59540;" /><glyph d="M317 811H353V671H317ZM217 811H253V671H217ZM266 596H304L536 0H498L431 170H139L74 0H35ZM152 204H418L285 547Z" glyph-name="adieresis.smcp" horiz-adv-x="571" unicode="&#57892;" /><glyph d="M680 -10Q602 -10 542 25.5Q482 61 450 121Q438 99 418 75.5Q398 52 369.5 33Q341 14 305 2Q269 -10 225 -10Q178 -10 146 1Q114 12 93.5 30Q73 48 64 72Q55 96 55 122Q54 159 69.5 185Q85 211 111 228.5Q137 246 172.5 257Q208 268 247 275Q282 282 315 288.5Q348 295 373.5 305Q399 315 415 330.5Q431 346 431 371Q431 419 392 449Q353 479 272 479Q191 479 145 440Q99 401 99 337V334H64V336Q64 375 79 407.5Q94 440 121 462.5Q148 485 186 497.5Q224 510 271 510Q356 510 403.5 479.5Q451 449 462 396Q497 448 553 479Q609 510 679 510Q734 510 781 490.5Q828 471 862.5 436.5Q897 402 916.5 355Q936 308 936 253V242H454Q455 196 472.5 155.5Q490 115 520.5 86Q551 57 591.5 40Q632 23 680 23Q721 23 756 35Q791 47 819 68.5Q847 90 866.5 119.5Q886 149 895 185L929 172Q918 132 895 98.5Q872 65 840 41Q808 17 767.5 3.5Q727 -10 680 -10ZM679 477Q634 477 595.5 461.5Q557 446 527.5 418.5Q498 391 479 354Q460 317 455 275H898Q894 319 876.5 356Q859 393 830 420Q801 447 762.5 462Q724 477 679 477ZM226 21Q267 21 301 33.5Q335 46 361.5 65.5Q388 85 406.5 109Q425 133 435 156Q419 198 419 249Q419 263 420 276Q421 289 424 302Q405 279 364 268.5Q323 258 259 246Q223 239 192.5 230.5Q162 222 139.5 208.5Q117 195 104.5 174.5Q92 154 92 123Q92 102 99 83.5Q106 65 122 51Q138 37 163.5 29Q189 21 226 21Z" glyph-name="ae" horiz-adv-x="989" unicode="&#230;" /><glyph d="M361 596H832V561H409L459 316H832V281H466L517 35H832V0H486L451 172H172L79 0H38ZM190 205H444L374 546Z" glyph-name="ae.smcp" horiz-adv-x="889" unicode="&#57905;" /><glyph d="M583 720H633L498 573H460ZM680 -10Q602 -10 542 25.5Q482 61 450 121Q438 99 418 75.5Q398 52 369.5 33Q341 14 305 2Q269 -10 225 -10Q178 -10 146 1Q114 12 93.5 30Q73 48 64 72Q55 96 55 122Q54 159 69.5 185Q85 211 111 228.5Q137 246 172.5 257Q208 268 247 275Q282 282 315 288.5Q348 295 373.5 305Q399 315 415 330.5Q431 346 431 371Q431 419 392 449Q353 479 272 479Q191 479 145 440Q99 401 99 337V334H64V336Q64 375 79 407.5Q94 440 121 462.5Q148 485 186 497.5Q224 510 271 510Q356 510 403.5 479.5Q451 449 462 396Q497 448 553 479Q609 510 679 510Q734 510 781 490.5Q828 471 862.5 436.5Q897 402 916.5 355Q936 308 936 253V242H454Q455 196 472.5 155.5Q490 115 520.5 86Q551 57 591.5 40Q632 23 680 23Q721 23 756 35Q791 47 819 68.5Q847 90 866.5 119.5Q886 149 895 185L929 172Q918 132 895 98.5Q872 65 840 41Q808 17 767.5 3.5Q727 -10 680 -10ZM679 477Q634 477 595.5 461.5Q557 446 527.5 418.5Q498 391 479 354Q460 317 455 275H898Q894 319 876.5 356Q859 393 830 420Q801 447 762.5 462Q724 477 679 477ZM226 21Q267 21 301 33.5Q335 46 361.5 65.5Q388 85 406.5 109Q425 133 435 156Q419 198 419 249Q419 263 420 276Q421 289 424 302Q405 279 364 268.5Q323 258 259 246Q223 239 192.5 230.5Q162 222 139.5 208.5Q117 195 104.5 174.5Q92 154 92 123Q92 102 99 83.5Q106 65 122 51Q138 37 163.5 29Q189 21 226 21Z" glyph-name="aeacute" horiz-adv-x="989" unicode="&#509;" /><glyph d="M641 816H691L556 669H518ZM361 596H832V561H409L459 316H832V281H466L517 35H832V0H486L451 172H172L79 0H38ZM190 205H444L374 546Z" glyph-name="aeacute.smcp" horiz-adv-x="892" unicode="&#57906;" /><glyph d="M310 -10Q256 -10 208.5 10.5Q161 31 126 66Q91 101 71 148.5Q51 196 51 250Q51 304 71 351.5Q91 399 126 434Q161 469 208 489.5Q255 510 310 510Q345 510 378.5 500.5Q412 491 441 472.5Q470 454 493.5 427.5Q517 401 531 367V500H567V0H531V133Q517 99 493.5 72.5Q470 46 441 27.5Q412 9 378.5 -0.5Q345 -10 310 -10ZM311 24Q358 24 399 41.5Q440 59 470 90Q500 121 517 162Q534 203 534 250Q534 297 517 338Q500 379 470 410Q440 441 399 458.5Q358 476 311 476Q265 476 224.5 458.5Q184 441 154 410Q124 379 106.5 338Q89 297 89 250Q89 203 106.5 162Q124 121 154 90Q184 59 224.5 41.5Q265 24 311 24ZM161 720H211L334 573H296Z" glyph-name="agrave" horiz-adv-x="641" unicode="&#224;" /><glyph d="M222 -10Q177 -10 145.5 0Q114 10 94 28Q74 46 64.5 69.5Q55 93 55 120Q55 156 69.5 182Q84 208 110.5 226Q137 244 174.5 256Q212 268 257 277Q290 283 321.5 289.5Q353 296 377.5 306Q402 316 417 331.5Q432 347 432 371Q432 419 395 449Q358 479 273 479Q193 479 149 442.5Q105 406 105 343V340H69V342Q69 420 124 465Q179 510 273 510Q375 510 422.5 468Q470 426 470 361V0H435V96Q421 77 400.5 58Q380 39 353.5 24Q327 9 294 -0.5Q261 -10 222 -10ZM221 20Q262 20 295.5 31.5Q329 43 356 61.5Q383 80 402.5 103Q422 126 435 149V310Q419 284 371.5 270.5Q324 257 258 245Q222 238 191.5 229Q161 220 139 206.5Q117 193 104.5 172.5Q92 152 92 122Q92 79 121.5 49.5Q151 20 221 20ZM130 720H180L303 573H265Z" glyph-name="agrave.alt" horiz-adv-x="544" unicode="&#59538;" /><glyph d="M266 596H304L536 0H498L431 170H139L74 0H35ZM152 204H418L285 547ZM131 816H181L304 669H266Z" glyph-name="agrave.smcp" horiz-adv-x="571" unicode="&#57890;" /><glyph d="M254 -221Q209 -221 178 -207Q147 -193 124 -170L154 -150Q174 -169 196 -180Q218 -191 254 -191Q296 -191 322 -174.5Q348 -158 348 -132Q348 -109 325.5 -94Q303 -79 257 -79H241V-55H259Q317 -54 350.5 -75.5Q384 -97 384 -131Q384 -170 348.5 -195.5Q313 -221 254 -221Z" glyph-name="altcedilla" horiz-adv-x="507" unicode="&#58390;" /><glyph d="M310 -10Q256 -10 208.5 10.5Q161 31 126 66Q91 101 71 148.5Q51 196 51 250Q51 304 71 351.5Q91 399 126 434Q161 469 208 489.5Q255 510 310 510Q345 510 378.5 500.5Q412 491 441 472.5Q470 454 493.5 427.5Q517 401 531 367V500H567V0H531V133Q517 99 493.5 72.5Q470 46 441 27.5Q412 9 378.5 -0.5Q345 -10 310 -10ZM311 24Q358 24 399 41.5Q440 59 470 90Q500 121 517 162Q534 203 534 250Q534 297 517 338Q500 379 470 410Q440 441 399 458.5Q358 476 311 476Q265 476 224.5 458.5Q184 441 154 410Q124 379 106.5 338Q89 297 89 250Q89 203 106.5 162Q124 121 154 90Q184 59 224.5 41.5Q265 24 311 24ZM197 605H461V573H197Z" glyph-name="amacron" horiz-adv-x="641" unicode="&#257;" /><glyph d="M222 -10Q177 -10 145.5 0Q114 10 94 28Q74 46 64.5 69.5Q55 93 55 120Q55 156 69.5 182Q84 208 110.5 226Q137 244 174.5 256Q212 268 257 277Q290 283 321.5 289.5Q353 296 377.5 306Q402 316 417 331.5Q432 347 432 371Q432 419 395 449Q358 479 273 479Q193 479 149 442.5Q105 406 105 343V340H69V342Q69 420 124 465Q179 510 273 510Q375 510 422.5 468Q470 426 470 361V0H435V96Q421 77 400.5 58Q380 39 353.5 24Q327 9 294 -0.5Q261 -10 222 -10ZM221 20Q262 20 295.5 31.5Q329 43 356 61.5Q383 80 402.5 103Q422 126 435 149V310Q419 284 371.5 270.5Q324 257 258 245Q222 238 191.5 229Q161 220 139 206.5Q117 193 104.5 172.5Q92 152 92 122Q92 79 121.5 49.5Q151 20 221 20ZM142 605H406V573H142Z" glyph-name="amacron.alt" horiz-adv-x="544" unicode="&#59541;" /><glyph d="M152 701H416V669H152ZM266 596H304L536 0H498L431 170H139L74 0H35ZM152 204H418L285 547Z" glyph-name="amacron.smcp" horiz-adv-x="571" unicode="&#57896;" /><glyph d="M450 596Q450 568 442.5 543.5Q435 519 418.5 496Q402 473 374.5 451Q347 429 306 406L485 222L461 196L274 388Q183 339 141 291Q99 243 99 179Q99 146 113.5 118Q128 90 152 69.5Q176 49 206.5 37Q237 25 269 25Q310 25 341 37Q372 49 399 70Q426 91 451 119.5Q476 148 504 182L655 363H702L539 168L702 0H651L515 140Q486 107 459 79Q432 51 402.5 31.5Q373 12 340.5 1Q308 -10 269 -10Q227 -10 189 4Q151 18 122.5 43Q94 68 77 102.5Q60 137 60 179Q60 251 106.5 306Q153 361 250 413Q222 443 202 466.5Q182 490 170 511.5Q158 533 152.5 553.5Q147 574 147 596Q147 626 158.5 652.5Q170 679 190.5 698.5Q211 718 239 729Q267 740 299 740Q332 740 360 728.5Q388 717 408 697.5Q428 678 439 652Q450 626 450 596ZM184 596Q184 578 189 561.5Q194 545 205 525.5Q216 506 235 483.5Q254 461 282 431Q356 472 384.5 511Q413 550 413 596Q413 641 381.5 673Q350 705 298 705Q248 705 216 674.5Q184 644 184 596Z" glyph-name="ampersand" horiz-adv-x="741" unicode="&amp;" /><glyph d="M476 69Q438 34 390.5 12.5Q343 -9 288 -9Q228 -9 184.5 8.5Q141 26 113 54Q85 82 71.5 116.5Q58 151 58 184Q58 247 91.5 295Q125 343 179 369Q159 393 148.5 417.5Q138 442 138 474Q138 500 147.5 523.5Q157 547 175.5 565Q194 583 221 594Q248 605 283 605Q331 605 365.5 584.5Q400 564 418 535L387 518Q373 541 345.5 556.5Q318 572 284 572Q257 572 237 563.5Q217 555 203 541.5Q189 528 182 510.5Q175 493 175 474Q175 454 181 437Q187 420 199 402Q211 384 230 364Q249 344 274 319L477 116Q516 161 538.5 215.5Q561 270 566 323H415V357H601V345Q601 282 574.5 214.5Q548 147 500 93L594 0H545ZM288 25Q336 25 377.5 43Q419 61 452 91L246 298Q233 310 222 321.5Q211 333 201 344Q151 319 123 280.5Q95 242 95 186Q95 158 106 129.5Q117 101 140.5 78Q164 55 200.5 40Q237 25 288 25Z" glyph-name="ampersand.smcp" horiz-adv-x="661" unicode="&#58369;" /><glyph d="M44 250 272 730H312L84 250L312 -230H272Z" glyph-name="anglebracketleft" horiz-adv-x="351" unicode="&#12296;" /><glyph d="M44 360 272 840H312L84 360L312 -120H272Z" glyph-name="anglebracketleft.cap" horiz-adv-x="351" unicode="&#58519;" /><glyph d="M230 -98 44 293 230 686H270L84 293L271 -98Z" glyph-name="anglebracketleft.smcp" horiz-adv-x="341" unicode="&#58527;" /><glyph d="M37 -230 265 250 37 730H77L305 250L77 -230Z" glyph-name="anglebracketright" horiz-adv-x="351" unicode="&#12297;" /><glyph d="M37 -120 265 360 37 840H77L305 360L77 -120Z" glyph-name="anglebracketright.cap" horiz-adv-x="351" unicode="&#58520;" /><glyph d="M71 -98 257 293 71 686H112L298 293L111 -98Z" glyph-name="anglebracketright.smcp" horiz-adv-x="341" unicode="&#58512;" /><glyph d="M266 596H304L536 0H498L285 547L74 0H35Z" glyph-name="anocross.smcp" horiz-adv-x="571" unicode="&#57888;" /><glyph d="M551 -219Q500 -219 474 -191.5Q448 -164 448 -126Q448 -90 471.5 -56Q495 -22 531 11V133Q517 99 493.5 72.5Q470 46 441 27.5Q412 9 378.5 -0.5Q345 -10 310 -10Q256 -10 208.5 10.5Q161 31 126 66Q91 101 71 148.5Q51 196 51 250Q51 304 71 351.5Q91 399 126 434Q161 469 208 489.5Q255 510 310 510Q345 510 378.5 500.5Q412 491 441 472.5Q470 454 493.5 427.5Q517 401 531 367V500H567V0H568Q528 -32 505 -64Q482 -96 482 -124Q482 -152 501 -169.5Q520 -187 551 -187Q578 -187 597.5 -176Q617 -165 634 -148L657 -173Q636 -191 610.5 -205Q585 -219 551 -219ZM311 24Q358 24 399 41.5Q440 59 470 90Q500 121 517 162Q534 203 534 250Q534 297 517 338Q500 379 470 410Q440 441 399 458.5Q358 476 311 476Q265 476 224.5 458.5Q184 441 154 410Q124 379 106.5 338Q89 297 89 250Q89 203 106.5 162Q124 121 154 90Q184 59 224.5 41.5Q265 24 311 24Z" glyph-name="aogonek" horiz-adv-x="641" unicode="&#261;" /><glyph d="M454 -219Q403 -219 377 -191.5Q351 -164 351 -126Q351 -90 374.5 -55.5Q398 -21 435 11V96Q421 77 400.5 58Q380 39 353.5 24Q327 9 294 -0.5Q261 -10 222 -10Q177 -10 145.5 0Q114 10 94 28Q74 46 64.5 69.5Q55 93 55 120Q55 156 69.5 182Q84 208 110.5 226Q137 244 174.5 256Q212 268 257 277Q290 283 321.5 289.5Q353 296 377.5 306Q402 316 417 331.5Q432 347 432 371Q432 419 395 449Q358 479 273 479Q193 479 149 442.5Q105 406 105 343V340H69V342Q69 420 124 465Q179 510 273 510Q375 510 422.5 468Q470 426 470 361V0H471Q431 -32 408 -64Q385 -96 385 -124Q385 -152 404 -169.5Q423 -187 454 -187Q481 -187 500.5 -176Q520 -165 537 -148L560 -173Q539 -191 513.5 -205Q488 -219 454 -219ZM221 20Q262 20 295.5 31.5Q329 43 356 61.5Q383 80 402.5 103Q422 126 435 149V310Q419 284 371.5 270.5Q324 257 258 245Q222 238 191.5 229Q161 220 139 206.5Q117 193 104.5 172.5Q92 152 92 122Q92 79 121.5 49.5Q151 20 221 20Z" glyph-name="aogonek.alt" horiz-adv-x="544" unicode="&#59545;" /><glyph d="M266 596H304L536 0H533L535 -1Q469 -33 443 -58Q417 -83 417 -110Q417 -137 440.5 -153Q464 -169 502 -169Q534 -169 557 -156.5Q580 -144 600 -125L630 -146Q607 -168 574 -184.5Q541 -201 502 -201Q447 -201 413.5 -175Q380 -149 380 -110Q380 -78 405 -48Q430 -18 493 12L431 170H139L74 0H35ZM152 204H418L285 547Z" glyph-name="aogonek.smcp" horiz-adv-x="571" unicode="&#57903;" /><glyph d="M52 452Q74 463 96 470Q118 477 149 477Q172 477 195 471Q218 465 240.5 458Q263 451 285 445Q307 439 326 439Q355 439 375.5 445.5Q396 452 422 465V431Q401 419 380 412.5Q359 406 326 406Q305 406 282 412Q259 418 235.5 425Q212 432 190 438Q168 444 149 444Q119 444 97 436.5Q75 429 52 418ZM52 291Q74 302 95.5 309.5Q117 317 148 317Q171 317 194 311Q217 305 240 298Q263 291 285 285Q307 279 326 279Q355 279 375.5 285Q396 291 422 304V270Q401 258 380 251.5Q359 245 326 245Q305 245 281.5 251Q258 257 235 264Q212 271 189.5 277Q167 283 148 283Q118 283 96.5 275.5Q75 268 52 257Z" glyph-name="approxequal" horiz-adv-x="473" unicode="&#8776;" /><glyph d="M310 -10Q256 -10 208.5 10.5Q161 31 126 66Q91 101 71 148.5Q51 196 51 250Q51 304 71 351.5Q91 399 126 434Q161 469 208 489.5Q255 510 310 510Q345 510 378.5 500.5Q412 491 441 472.5Q470 454 493.5 427.5Q517 401 531 367V500H567V0H531V133Q517 99 493.5 72.5Q470 46 441 27.5Q412 9 378.5 -0.5Q345 -10 310 -10ZM311 24Q358 24 399 41.5Q440 59 470 90Q500 121 517 162Q534 203 534 250Q534 297 517 338Q500 379 470 410Q440 441 399 458.5Q358 476 311 476Q265 476 224.5 458.5Q184 441 154 410Q124 379 106.5 338Q89 297 89 250Q89 203 106.5 162Q124 121 154 90Q184 59 224.5 41.5Q265 24 311 24ZM313 564Q295 564 278.5 571.5Q262 579 249.5 591.5Q237 604 229.5 620.5Q222 637 222 655Q222 695 249 721.5Q276 748 313 748Q352 748 379 721.5Q406 695 406 655Q406 618 379 591Q352 564 313 564ZM313 595Q339 595 357 613Q375 631 375 655Q375 681 357 699.5Q339 718 313 718Q289 718 271 699.5Q253 681 253 655Q253 631 271 613Q289 595 313 595Z" glyph-name="aring" horiz-adv-x="641" unicode="&#229;" /><glyph d="M264 564Q246 564 229.5 571.5Q213 579 200.5 591.5Q188 604 180.5 620.5Q173 637 173 655Q173 695 200 721.5Q227 748 264 748Q303 748 330 721.5Q357 695 357 655Q357 618 330 591Q303 564 264 564ZM264 595Q290 595 308 613Q326 631 326 655Q326 681 308 699.5Q290 718 264 718Q240 718 222 699.5Q204 681 204 655Q204 631 222 613Q240 595 264 595ZM222 -10Q177 -10 145.5 0Q114 10 94 28Q74 46 64.5 69.5Q55 93 55 120Q55 156 69.5 182Q84 208 110.5 226Q137 244 174.5 256Q212 268 257 277Q290 283 321.5 289.5Q353 296 377.5 306Q402 316 417 331.5Q432 347 432 371Q432 419 395 449Q358 479 273 479Q193 479 149 442.5Q105 406 105 343V340H69V342Q69 420 124 465Q179 510 273 510Q375 510 422.5 468Q470 426 470 361V0H435V96Q421 77 400.5 58Q380 39 353.5 24Q327 9 294 -0.5Q261 -10 222 -10ZM221 20Q262 20 295.5 31.5Q329 43 356 61.5Q383 80 402.5 103Q422 126 435 149V310Q419 284 371.5 270.5Q324 257 258 245Q222 238 191.5 229Q161 220 139 206.5Q117 193 104.5 172.5Q92 152 92 122Q92 79 121.5 49.5Q151 20 221 20Z" glyph-name="aring.alt" horiz-adv-x="543" unicode="&#59543;" /><glyph d="M256 571Q228 579 210 603.5Q192 628 192 658Q192 698 219 724.5Q246 751 283 751Q322 751 349 724.5Q376 698 376 658Q376 629 358.5 605Q341 581 313 572L536 0H498L431 170H139L74 0H35ZM152 204H418L285 547ZM283 598Q309 598 327 616Q345 634 345 658Q345 684 327 702.5Q309 721 283 721Q259 721 241 702.5Q223 684 223 658Q223 634 241 616Q259 598 283 598Z" glyph-name="aring.smcp" horiz-adv-x="571" unicode="&#57894;" /><glyph d="M310 -10Q256 -10 208.5 10.5Q161 31 126 66Q91 101 71 148.5Q51 196 51 250Q51 304 71 351.5Q91 399 126 434Q161 469 208 489.5Q255 510 310 510Q345 510 378.5 500.5Q412 491 441 472.5Q470 454 493.5 427.5Q517 401 531 367V500H567V0H531V133Q517 99 493.5 72.5Q470 46 441 27.5Q412 9 378.5 -0.5Q345 -10 310 -10ZM311 24Q358 24 399 41.5Q440 59 470 90Q500 121 517 162Q534 203 534 250Q534 297 517 338Q500 379 470 410Q440 441 399 458.5Q358 476 311 476Q265 476 224.5 458.5Q184 441 154 410Q124 379 106.5 338Q89 297 89 250Q89 203 106.5 162Q124 121 154 90Q184 59 224.5 41.5Q265 24 311 24ZM418 938H468L333 791H295ZM316 564Q298 564 281.5 571.5Q265 579 252.5 591.5Q240 604 232.5 620.5Q225 637 225 655Q225 695 252 721.5Q279 748 316 748Q355 748 382 721.5Q409 695 409 655Q409 618 382 591Q355 564 316 564ZM316 595Q342 595 360 613Q378 631 378 655Q378 681 360 699.5Q342 718 316 718Q292 718 274 699.5Q256 681 256 655Q256 631 274 613Q292 595 316 595Z" glyph-name="aringacute" horiz-adv-x="641" unicode="&#507;" /><glyph d="M376 939H426L291 792H253ZM271 567Q253 567 236.5 574.5Q220 582 207.5 594.5Q195 607 187.5 623.5Q180 640 180 658Q180 698 207 724.5Q234 751 271 751Q310 751 337 724.5Q364 698 364 658Q364 621 337 594Q310 567 271 567ZM271 598Q297 598 315 616Q333 634 333 658Q333 684 315 702.5Q297 721 271 721Q247 721 229 702.5Q211 684 211 658Q211 634 229 616Q247 598 271 598ZM222 -10Q177 -10 145.5 0Q114 10 94 28Q74 46 64.5 69.5Q55 93 55 120Q55 156 69.5 182Q84 208 110.5 226Q137 244 174.5 256Q212 268 257 277Q290 283 321.5 289.5Q353 296 377.5 306Q402 316 417 331.5Q432 347 432 371Q432 419 395 449Q358 479 273 479Q193 479 149 442.5Q105 406 105 343V340H69V342Q69 420 124 465Q179 510 273 510Q375 510 422.5 468Q470 426 470 361V0H435V96Q421 77 400.5 58Q380 39 353.5 24Q327 9 294 -0.5Q261 -10 222 -10ZM221 20Q262 20 295.5 31.5Q329 43 356 61.5Q383 80 402.5 103Q422 126 435 149V310Q419 284 371.5 270.5Q324 257 258 245Q222 238 191.5 229Q161 220 139 206.5Q117 193 104.5 172.5Q92 152 92 122Q92 79 121.5 49.5Q151 20 221 20Z" glyph-name="aringacute.alt" horiz-adv-x="544" unicode="&#62552;" /><glyph d="M256 571Q228 579 210 603.5Q192 628 192 658Q192 698 219 724.5Q246 751 283 751Q322 751 349 724.5Q376 698 376 658Q376 629 358.5 605Q341 581 313 572L536 0H498L431 170H139L74 0H35ZM152 204H418L285 547ZM283 598Q309 598 327 616Q345 634 345 658Q345 684 327 702.5Q309 721 283 721Q259 721 241 702.5Q223 684 223 658Q223 634 241 616Q259 598 283 598ZM388 946H438L303 799H265Z" glyph-name="aringacute.smcp" horiz-adv-x="571" unicode="&#57901;" /><glyph d="M433 -43Q420 -16 397 15Q374 46 345.5 75Q317 104 284 128.5Q251 153 216 167L234 198Q264 186 293 165.5Q322 145 347 120Q372 95 392 69Q412 43 425 20V730H463V18Q476 41 496 67.5Q516 94 541 118.5Q566 143 595 164.5Q624 186 655 198L672 167Q638 153 604.5 128.5Q571 104 542.5 75Q514 46 491.5 15Q469 -16 456 -43Z" glyph-name="arrowdown" horiz-adv-x="896" unicode="&#8595;" /><glyph d="M766 179Q732 165 698.5 140.5Q665 116 636.5 87Q608 58 585.5 27Q563 -4 550 -31H527Q514 -4 491 27Q468 58 439.5 87Q411 116 378 140.5Q345 165 310 179L328 210Q359 198 388 176.5Q417 155 442 129.5Q467 104 487.5 77Q508 50 521 27V730H556V28Q569 51 589 77.5Q609 104 634 129.5Q659 155 688.5 176.5Q718 198 749 210ZM612 510V531L746 628V597ZM612 608V630L746 726V696ZM333 794V824L465 729V707ZM333 695V726L465 630V609ZM612 707V728L746 825V795ZM333 597V627L465 531V510Z" glyph-name="arrowdown.alt" horiz-adv-x="1068" unicode="&#62553;" /><glyph d="M257 138Q244 173 219.5 206Q195 239 165.5 267.5Q136 296 105.5 318.5Q75 341 48 354V377Q75 391 106 413.5Q137 436 166 464.5Q195 493 219.5 526.5Q244 560 257 594L288 576Q276 545 254.5 515.5Q233 486 207.5 461Q182 436 155.5 416Q129 396 106 383H827V348H106Q129 335 156 315Q183 295 208 269.5Q233 244 254.5 215Q276 186 288 155Z" glyph-name="arrowleft" horiz-adv-x="896" unicode="&#8592;" /><glyph d="M261 136Q248 171 223.5 204.5Q199 238 169.5 266.5Q140 295 109.5 317.5Q79 340 52 353V376Q79 389 110 411.5Q141 434 170 462.5Q199 491 223.5 524.5Q248 558 261 593L292 575Q280 544 258.5 515Q237 486 212.5 461Q188 436 161.5 415.5Q135 395 112 382H930V347H108Q131 334 158 314Q185 294 210.5 269Q236 244 258 214.5Q280 185 292 154ZM710 291H731L828 157H797ZM808 291H830L926 157H896ZM994 570H1024L929 437H907ZM895 570H926L830 437H809ZM907 291H928L1025 157H995ZM797 570H827L731 437H710Z" glyph-name="arrowleft.alt" horiz-adv-x="1068" unicode="&#62560;" /><glyph d="M595 155Q607 186 628.5 215Q650 244 675 269Q700 294 727 314.5Q754 335 777 348H56V383H777Q754 396 727 416Q700 436 675 461Q650 486 628.5 515Q607 544 595 575L626 593Q640 559 664.5 525.5Q689 492 718 463.5Q747 435 777.5 412.5Q808 390 835 377V354Q808 341 777 318Q746 295 717 266.5Q688 238 664 205Q640 172 626 137Z" glyph-name="arrowright" horiz-adv-x="896" unicode="&#8594;" /><glyph d="M815 592Q829 558 853.5 524.5Q878 491 907 462.5Q936 434 967 411.5Q998 389 1025 376V353Q998 340 967 317Q936 294 907 265.5Q878 237 853.5 204Q829 171 815 136L784 154Q796 185 817.5 214Q839 243 864.5 268Q890 293 916.5 313.5Q943 334 966 347H147V382H966Q943 395 916 415Q889 435 864 460Q839 485 817.5 514.5Q796 544 784 575ZM170 438H148L52 572H82ZM268 438H247L150 572H181ZM83 159H52L148 291H169ZM280 159H250L345 291H367ZM367 438H346L249 572H279ZM181 159H151L247 291H268Z" glyph-name="arrowright.alt" horiz-adv-x="1068" unicode="&#62561;" /><glyph d="M425 711Q412 688 392 661.5Q372 635 347 610.5Q322 586 293 565Q264 544 234 532L216 563Q251 577 284.5 601.5Q318 626 346.5 655Q375 684 397.5 715Q420 746 433 773H456Q469 746 491.5 715Q514 684 542.5 655Q571 626 604.5 601.5Q638 577 673 563L655 532Q625 544 596 564.5Q567 585 542 609.5Q517 634 496.5 660Q476 686 463 709V0H425Z" glyph-name="arrowup" horiz-adv-x="896" unicode="&#8593;" /><glyph d="M310 551Q345 565 378.5 589.5Q412 614 440.5 643Q469 672 491.5 703Q514 734 527 761H550Q563 734 585.5 703Q608 672 636.5 643Q665 614 698.5 589.5Q732 565 767 551L749 520Q718 532 689 553Q660 574 635 599.5Q610 625 589.5 651.5Q569 678 556 700V0H521V703Q508 680 488 653.5Q468 627 443 601.5Q418 576 388.5 554Q359 532 328 520ZM465 220V199L331 102V133ZM465 122V100L331 4V34ZM744 -64V-94L611 1V23ZM744 35V4L611 100V121ZM465 23V2L331 -95V-65ZM744 133V103L611 199V220Z" glyph-name="arrowup.alt" horiz-adv-x="1068" unicode="&#62562;" /><glyph d="M240 665H264L394 500H354L252 630L154 500H113Z" glyph-name="asciicircum" horiz-adv-x="507" unicode="^" /><glyph d="M65 556Q70 594 92.5 618Q115 642 150 642Q176 642 194 633Q212 624 229 614Q246 603 263 593.5Q280 584 300 584Q347 584 356 636H386Q382 597 360.5 573.5Q339 550 301 550Q272 550 251.5 561.5Q231 573 212 584Q198 593 183.5 600.5Q169 608 150 608Q109 608 100 556Z" glyph-name="asciitilde" horiz-adv-x="437" unicode="~" /><glyph d="M228 540 238 375H202L212 540L74 449L56 481L205 554L56 628L75 659L212 568L202 729H238L228 567L362 657L381 626L236 554L381 482L362 451Z" glyph-name="asterisk" horiz-adv-x="440" unicode="*" /><glyph d="M433 -125Q355 -125 287 -95.5Q219 -66 168.5 -15.5Q118 35 89 103.5Q60 172 60 250Q60 328 90.5 396Q121 464 173.5 515Q226 566 295 595.5Q364 625 442 625Q522 625 588.5 597.5Q655 570 704 523.5Q753 477 780 416Q807 355 807 288Q807 249 797 211Q787 173 768.5 143.5Q750 114 722 95.5Q694 77 658 77Q609 77 583 101.5Q557 126 549 163Q534 129 499.5 102.5Q465 76 410 76Q382 76 353 87.5Q324 99 302.5 121.5Q281 144 269 177.5Q257 211 261 256Q267 301 283.5 335Q300 369 324.5 391.5Q349 414 379 425Q409 436 440 436Q488 436 518.5 411Q549 386 560 351Q563 378 565 393.5Q567 409 568 418Q569 427 569 430H604L584 249Q576 174 596.5 142.5Q617 111 660 111Q685 111 705.5 125Q726 139 740.5 163Q755 187 763 219Q771 251 771 287Q771 347 746.5 402.5Q722 458 678.5 500Q635 542 574.5 567Q514 592 442 592Q372 592 309 565Q246 538 199.5 491.5Q153 445 125.5 383Q98 321 98 250Q98 180 124 117.5Q150 55 195 8.5Q240 -38 301.5 -65Q363 -92 433 -92Q507 -92 569.5 -63.5Q632 -35 678 14L706 -8Q656 -61 585 -93Q514 -125 433 -125ZM417 109Q447 109 470.5 121.5Q494 134 510.5 154.5Q527 175 536 202Q545 229 548 258Q551 287 546.5 313Q542 339 529 359Q516 379 495 391Q474 403 445 403Q418 403 393 393Q368 383 348.5 364Q329 345 316 318Q303 291 299 257Q295 227 302 200Q309 173 324.5 153Q340 133 364 121Q388 109 417 109Z" glyph-name="at" horiz-adv-x="866" unicode="@" /><glyph d="M433 -10Q355 -10 287 19.5Q219 49 168.5 99.5Q118 150 89 218.5Q60 287 60 365Q60 443 90.5 511Q121 579 173.5 630Q226 681 295 710.5Q364 740 442 740Q522 740 588.5 712.5Q655 685 704 638.5Q753 592 780 531Q807 470 807 403Q807 364 797 326Q787 288 768.5 258.5Q750 229 722 210.5Q694 192 658 192Q609 192 583 216Q557 240 549 278Q534 244 499.5 217Q465 190 410 190Q382 190 353 201.5Q324 213 302.5 235.5Q281 258 269 292Q257 326 261 371Q267 416 283.5 449.5Q300 483 324.5 505.5Q349 528 379 539Q409 550 440 550Q487 550 518 526Q549 502 560 467Q563 494 565 509Q567 524 568 532Q569 541 569 544H604L584 363Q576 288 596.5 257Q617 226 660 226Q685 226 705.5 240Q726 254 740.5 278Q755 302 763 334Q771 366 771 402Q771 462 746.5 517Q722 572 678.5 614Q635 656 574.5 681Q514 706 442 706Q372 706 309 679Q246 652 199.5 606Q153 560 125.5 498Q98 436 98 365Q98 295 124 232.5Q150 170 195 123.5Q240 77 301.5 50Q363 23 433 23Q506 23 568.5 51.5Q631 80 678 129L706 106Q655 53 584.5 21.5Q514 -10 433 -10ZM417 224Q447 224 470.5 236Q494 248 510.5 268.5Q527 289 536 316Q545 343 548 372Q551 401 546.5 427Q542 453 529 473Q516 493 495 505Q474 517 445 517Q418 517 393 507Q368 497 348.5 478Q329 459 316 432Q303 405 299 371Q295 341 302 314.5Q309 288 324.5 267.5Q340 247 364 235.5Q388 224 417 224Z" glyph-name="at.cap" horiz-adv-x="866" unicode="&#58643;" /><glyph d="M433 -78Q355 -78 287 -48.5Q219 -19 168.5 31.5Q118 82 89 150.5Q60 219 60 297Q60 375 90.5 443Q121 511 173.5 562Q226 613 295 642.5Q364 672 442 672Q522 672 588.5 644.5Q655 617 704 570.5Q753 524 780 463Q807 402 807 335Q807 296 797 258.5Q787 221 768.5 191.5Q750 162 722 143.5Q694 125 658 125Q609 125 583 149Q557 173 549 211Q534 177 499.5 150Q465 123 410 123Q382 123 353 134.5Q324 146 302.5 168.5Q281 191 269 225Q257 259 261 304Q267 349 283.5 382.5Q300 416 324.5 438.5Q349 461 379 472Q409 483 440 483Q488 483 518.5 458.5Q549 434 560 399Q563 426 565 441.5Q567 457 568 465Q569 474 569 477H604L584 296Q576 221 596.5 189.5Q617 158 660 158Q685 158 705.5 172Q726 186 740.5 210Q755 234 763 266.5Q771 299 771 335Q771 395 746.5 450Q722 505 678.5 547Q635 589 574.5 614Q514 639 442 639Q372 639 309 612Q246 585 199.5 538.5Q153 492 125.5 430Q98 368 98 297Q98 227 124 164.5Q150 102 195 56Q240 10 301.5 -17Q363 -44 433 -44Q506 -44 568.5 -15.5Q631 13 678 62L706 39Q655 -15 584.5 -46.5Q514 -78 433 -78ZM417 157Q447 157 470.5 169Q494 181 510.5 201.5Q527 222 536 249Q545 276 548 305Q551 334 546.5 360Q542 386 529 406Q516 426 495 438Q474 450 445 450Q418 450 393 440Q368 430 348.5 411Q329 392 316 365Q303 338 299 304Q295 274 302 247.5Q309 221 324.5 200.5Q340 180 364 168.5Q388 157 417 157Z" glyph-name="at.smcp" horiz-adv-x="866" unicode="&#62987;" /><glyph d="M310 -10Q256 -10 208.5 10.5Q161 31 126 66Q91 101 71 148.5Q51 196 51 250Q51 304 71 351.5Q91 399 126 434Q161 469 208 489.5Q255 510 310 510Q345 510 378.5 500.5Q412 491 441 472.5Q470 454 493.5 427.5Q517 401 531 367V500H567V0H531V133Q517 99 493.5 72.5Q470 46 441 27.5Q412 9 378.5 -0.5Q345 -10 310 -10ZM311 24Q358 24 399 41.5Q440 59 470 90Q500 121 517 162Q534 203 534 250Q534 297 517 338Q500 379 470 410Q440 441 399 458.5Q358 476 311 476Q265 476 224.5 458.5Q184 441 154 410Q124 379 106.5 338Q89 297 89 250Q89 203 106.5 162Q124 121 154 90Q184 59 224.5 41.5Q265 24 311 24ZM152 573Q152 617 176.5 643Q201 669 240 669Q265 669 286.5 658.5Q308 648 329 635Q350 622 370.5 611.5Q391 601 412 601Q438 601 454.5 616.5Q471 632 471 666H503Q503 619 478.5 594Q454 569 411 569Q384 569 360.5 580Q337 591 316 604Q296 617 277.5 626.5Q259 636 240 636Q216 636 199.5 620.5Q183 605 183 573Z" glyph-name="atilde" horiz-adv-x="641" unicode="&#227;" /><glyph d="M222 -10Q177 -10 145.5 0Q114 10 94 28Q74 46 64.5 69.5Q55 93 55 120Q55 156 69.5 182Q84 208 110.5 226Q137 244 174.5 256Q212 268 257 277Q290 283 321.5 289.5Q353 296 377.5 306Q402 316 417 331.5Q432 347 432 371Q432 419 395 449Q358 479 273 479Q193 479 149 442.5Q105 406 105 343V340H69V342Q69 420 124 465Q179 510 273 510Q375 510 422.5 468Q470 426 470 361V0H435V96Q421 77 400.5 58Q380 39 353.5 24Q327 9 294 -0.5Q261 -10 222 -10ZM221 20Q262 20 295.5 31.5Q329 43 356 61.5Q383 80 402.5 103Q422 126 435 149V310Q419 284 371.5 270.5Q324 257 258 245Q222 238 191.5 229Q161 220 139 206.5Q117 193 104.5 172.5Q92 152 92 122Q92 79 121.5 49.5Q151 20 221 20ZM104 573Q104 617 128.5 643Q153 669 192 669Q217 669 238.5 658.5Q260 648 281 635Q302 622 322.5 611.5Q343 601 364 601Q390 601 406.5 616.5Q423 632 423 666H455Q455 619 430.5 594Q406 569 363 569Q336 569 312.5 580Q289 591 268 604Q248 617 229.5 626.5Q211 636 192 636Q168 636 151.5 620.5Q135 605 135 573Z" glyph-name="atilde.alt" horiz-adv-x="543" unicode="&#59544;" /><glyph d="M266 596H304L536 0H498L431 170H139L74 0H35ZM152 204H418L285 547ZM113 669Q113 713 137.5 739Q162 765 201 765Q226 765 247.5 754.5Q269 744 290 731Q311 718 331.5 707.5Q352 697 373 697Q399 697 415.5 712.5Q432 728 432 762H464Q464 715 439.5 690Q415 665 372 665Q345 665 321.5 676Q298 687 277 700Q257 713 238.5 722.5Q220 732 201 732Q177 732 160.5 716.5Q144 701 144 669Z" glyph-name="atilde.smcp" horiz-adv-x="571" unicode="&#57893;" /><glyph d="M425 596H460V456H425ZM108 596H144V456H108ZM266 596H304L536 0H498L431 170H139L74 0H35ZM152 204H418L285 547Z" glyph-name="aumlaut.smcp" horiz-adv-x="571" unicode="&#61817;" /><glyph d="M333 -10Q299 -10 265.5 -1Q232 8 202.5 26Q173 44 149.5 70.5Q126 97 112 131V0H77V730H112V369Q126 403 149.5 429Q173 455 202.5 473Q232 491 265.5 500.5Q299 510 333 510Q387 510 434.5 489.5Q482 469 516.5 434Q551 399 571 351.5Q591 304 591 250Q591 196 571 148.5Q551 101 516.5 66Q482 31 434.5 10.5Q387 -10 333 -10ZM331 24Q378 24 418.5 41.5Q459 59 489 90Q519 121 536 162Q553 203 553 250Q553 297 536 338Q519 379 489 410Q459 441 418.5 458.5Q378 476 331 476Q284 476 243.5 458.5Q203 441 173 410Q143 379 125.5 338Q108 297 108 250Q108 203 125.5 162Q143 121 173 90Q203 59 243.5 41.5Q284 24 331 24Z" glyph-name="b" horiz-adv-x="643" unicode="b" /><glyph d="M75 596H309Q345 596 376 584.5Q407 573 429.5 553Q452 533 465 504.5Q478 476 478 443Q478 395 453.5 359.5Q429 324 385 308Q434 293 462.5 254.5Q491 216 491 162Q491 126 478.5 96.5Q466 67 443 45.5Q420 24 389 12Q358 0 320 0H75ZM111 290V34H320Q349 34 374 43.5Q399 53 417 70.5Q435 88 445 111.5Q455 135 455 162Q455 217 417.5 253.5Q380 290 319 290ZM111 562V324H317Q345 324 367.5 333.5Q390 343 406.5 359Q423 375 432 396.5Q441 418 441 443Q441 469 431 490.5Q421 512 403 528Q385 544 361 553Q337 562 309 562Z" glyph-name="b.smcp" horiz-adv-x="540" unicode="&#57858;" /><glyph d="M29 730H69L415 0H375Z" glyph-name="backslash" horiz-adv-x="444" unicode="\" /><glyph d="M29 730H69L415 0H375Z" glyph-name="backslash.cap" horiz-adv-x="444" unicode="&#58466;" /><glyph d="M38 596H78L360 0H321Z" glyph-name="backslash.smcp" horiz-adv-x="397" unicode="&#58472;" /><glyph d="M100 500H600V0H100ZM137 35H563V465H137ZM349 270 470 394 492 371 371 248 492 127 470 105 349 225 229 103 207 126 327 248 205 370 227 393Z" glyph-name="ballotboxwithx" horiz-adv-x="700" unicode="&#9746;" /><glyph d="M71 730H108V-230H71Z" glyph-name="bar" horiz-adv-x="178" unicode="|" /><glyph d="M71 840H108V-120H71Z" glyph-name="bar.cap" horiz-adv-x="178" unicode="&#58467;" /><glyph d="M71 686H108V-98H71Z" glyph-name="bar.smcp" horiz-adv-x="179" unicode="&#58473;" /><glyph d="M464 -10Q386 -10 318 19.5Q250 49 199 100Q148 151 118.5 219Q89 287 89 365Q89 443 118.5 511Q148 579 199 630Q250 681 318 710.5Q386 740 464 740Q542 740 610 710.5Q678 681 729 630Q780 579 809.5 511Q839 443 839 365Q839 287 809.5 219Q780 151 729 100Q678 49 610 19.5Q542 -10 464 -10Z" glyph-name="blackcircle" horiz-adv-x="927" unicode="&#9679;" /><glyph d="M100 500H600V0H100Z" glyph-name="blacksmallsquare" horiz-adv-x="700" unicode="&#9642;" /><glyph d="M100 730H826V0H100Z" glyph-name="blacksquare" horiz-adv-x="926" unicode="&#9632;" /><glyph d="M353 -230Q290 -230 248 -219Q206 -208 180.5 -182.5Q155 -157 144 -115.5Q133 -74 133 -13V122Q133 151 130 172Q127 193 117.5 206Q108 219 89.5 225Q71 231 39 231V268Q71 268 89.5 274Q108 280 117.5 293Q127 306 130 326.5Q133 347 133 376V513Q133 574 144 615.5Q155 657 180.5 682.5Q206 708 248 719Q290 730 353 730H364V696Q305 696 267.5 687.5Q230 679 208 658Q186 637 178 601.5Q170 566 170 512V375Q170 322 157 291.5Q144 261 107 249Q145 237 157.5 205.5Q170 174 170 123V-12Q170 -66 178 -101.5Q186 -137 208 -158Q230 -179 267.5 -187.5Q305 -196 364 -196V-230Z" glyph-name="braceleft" horiz-adv-x="408" unicode="{" /><glyph d="M353 -120Q290 -120 248 -109Q206 -98 180.5 -72.5Q155 -47 144 -5.5Q133 36 133 97V232Q133 261 130 282Q127 303 117.5 316Q108 329 89.5 335Q71 341 39 341V378Q71 378 89.5 384Q108 390 117.5 403Q127 416 130 436.5Q133 457 133 486V623Q133 684 144 725.5Q155 767 180.5 792.5Q206 818 248 829Q290 840 353 840H364V806Q305 806 267.5 797.5Q230 789 208 768Q186 747 178 711.5Q170 676 170 622V485Q170 432 157 401.5Q144 371 107 359Q145 347 157.5 315.5Q170 284 170 233V98Q170 44 178 8.5Q186 -27 208 -48Q230 -69 267.5 -77.5Q305 -86 364 -86V-120Z" glyph-name="braceleft.cap" horiz-adv-x="408" unicode="&#58517;" /><glyph d="M314 -98Q263 -98 228.5 -89Q194 -80 173 -59.5Q152 -39 143 -5Q134 29 134 79V187Q134 211 131.5 228Q129 245 121 255.5Q113 266 98 270.5Q83 275 57 275V311Q83 311 98 316Q113 321 121 331.5Q129 342 131.5 358.5Q134 375 134 399V509Q134 559 143 593Q152 627 173 647.5Q194 668 228.5 677Q263 686 314 686H323V653Q277 653 247.5 646Q218 639 201 622.5Q184 606 177.5 578Q171 550 171 508V398Q171 355 160 329.5Q149 304 119 293Q151 282 161 256.5Q171 231 171 188V80Q171 38 177.5 10Q184 -18 201 -34.5Q218 -51 247.5 -58Q277 -65 323 -65V-98Z" glyph-name="braceleft.smcp" horiz-adv-x="381" unicode="&#58525;" /><glyph d="M44 -195Q103 -195 140.5 -186.5Q178 -178 199.5 -157Q221 -136 229.5 -101Q238 -66 238 -12V123Q238 174 250 205.5Q262 237 301 249Q264 261 251 291.5Q238 322 238 375V512Q238 566 229.5 601Q221 636 199.5 657Q178 678 140.5 686.5Q103 695 44 695V730H55Q118 730 160 719Q202 708 227.5 682.5Q253 657 264 615.5Q275 574 275 513V376Q275 347 278 326.5Q281 306 290.5 293Q300 280 319 274Q338 268 369 268V231Q338 231 319 225Q300 219 290.5 206Q281 193 278 172Q275 151 275 122V-13Q275 -74 264 -115.5Q253 -157 227.5 -182.5Q202 -208 160 -219Q118 -230 55 -230H44Z" glyph-name="braceright" horiz-adv-x="408" unicode="}" /><glyph d="M44 -85Q103 -85 140.5 -76.5Q178 -68 199.5 -47Q221 -26 229.5 9Q238 44 238 98V233Q238 284 250 315.5Q262 347 301 359Q264 371 251 401.5Q238 432 238 485V622Q238 676 229.5 711Q221 746 199.5 767Q178 788 140.5 796.5Q103 805 44 805V840H55Q118 840 160 829Q202 818 227.5 792.5Q253 767 264 725.5Q275 684 275 623V486Q275 457 278 436.5Q281 416 290.5 403Q300 390 319 384Q338 378 369 378V341Q338 341 319 335Q300 329 290.5 316Q281 303 278 282Q275 261 275 232V97Q275 36 264 -5.5Q253 -47 227.5 -72.5Q202 -98 160 -109Q118 -120 55 -120H44Z" glyph-name="braceright.cap" horiz-adv-x="408" unicode="&#58518;" /><glyph d="M57 -64Q104 -64 133.5 -57.5Q163 -51 180 -34.5Q197 -18 203.5 10Q210 38 210 80V188Q210 231 220 256.5Q230 282 261 293Q231 304 220.5 329.5Q210 355 210 398V508Q210 550 203.5 578Q197 606 180 622.5Q163 639 133.5 645.5Q104 652 57 652V686H66Q117 686 151.5 677Q186 668 207 647.5Q228 627 237 593Q246 559 246 509V399Q246 375 248.5 358.5Q251 342 259 331.5Q267 321 282 316Q297 311 323 311V275Q297 275 282 270.5Q267 266 259 255.5Q251 245 248.5 228Q246 211 246 187V79Q246 29 237 -5Q228 -39 207 -59.5Q186 -80 151.5 -89Q117 -98 66 -98H57Z" glyph-name="braceright.smcp" horiz-adv-x="381" unicode="&#58526;" /><glyph d="M54 730H327V695H91V-195H327V-230H54Z" glyph-name="bracketleft" horiz-adv-x="381" unicode="[" /><glyph d="M54 840H327V805H91V-85H327V-120H54Z" glyph-name="bracketleft.cap" horiz-adv-x="381" unicode="&#58515;" /><glyph d="M71 686H293V651H107V-63H293V-98H71Z" glyph-name="bracketleft.smcp" horiz-adv-x="350" unicode="&#58523;" /><glyph d="M54 -196H290V695H54V730H327V-230H54Z" glyph-name="bracketright" horiz-adv-x="381" unicode="]" /><glyph d="M54 -86H290V805H54V840H327V-120H54Z" glyph-name="bracketright.cap" horiz-adv-x="381" unicode="&#58516;" /><glyph d="M57 -64H243V651H57V686H280V-98H57Z" glyph-name="bracketright.smcp" horiz-adv-x="351" unicode="&#58524;" /><glyph d="M253 564Q212 564 181.5 577Q151 590 131 611Q111 632 101 659.5Q91 687 91 715H124Q124 692 132 670Q140 648 156 631Q172 614 196 603.5Q220 593 253 593Q283 593 307 603.5Q331 614 347.5 631Q364 648 372.5 670Q381 692 381 715H414Q414 687 403 659.5Q392 632 371 611Q350 590 320.5 577Q291 564 253 564Z" glyph-name="breve" horiz-adv-x="507" unicode="&#728;" /><glyph d="M71 730H108V310H71ZM71 190H108V-230H71Z" glyph-name="brokenbar" horiz-adv-x="192" unicode="&#166;" /><glyph d="M71 840H108V420H71ZM71 300H108V-120H71Z" glyph-name="brokenbar.cap" horiz-adv-x="191" unicode="&#58469;" /><glyph d="M138 206Q119 206 105.5 219.5Q92 233 92 252Q92 271 105.5 284.5Q119 298 138 298Q157 298 170.5 284.5Q184 271 184 252Q184 233 170.5 219.5Q157 206 138 206Z" glyph-name="bullet" horiz-adv-x="276" unicode="&#8226;" /><glyph d="M138 317Q119 317 105.5 330.5Q92 344 92 363Q92 382 105.5 395.5Q119 409 138 409Q157 409 170.5 395.5Q184 382 184 363Q184 344 170.5 330.5Q157 317 138 317Z" glyph-name="bullet.cap" horiz-adv-x="276" unicode="&#58470;" /><glyph d="M464 -10Q386 -10 318 19.5Q250 49 199 100Q148 151 118.5 219Q89 287 89 365Q89 443 118.5 511Q148 579 199 630Q250 681 318 710.5Q386 740 464 740Q542 740 610 710.5Q678 681 729 630Q780 579 809.5 511Q839 443 839 365Q839 287 809.5 219Q780 151 729 100Q678 49 610 19.5Q542 -10 464 -10ZM464 25Q535 25 596 52Q657 79 702.5 125Q748 171 774 233Q800 295 800 365Q800 435 774 497Q748 559 702.5 605Q657 651 596 678Q535 705 464 705Q394 705 332.5 678Q271 651 225.5 605Q180 559 154 497Q128 435 128 365Q128 295 154 233Q180 171 225.5 125Q271 79 332.5 52Q394 25 464 25ZM465 160Q423 160 385.5 176Q348 192 320.5 219.5Q293 247 277 284Q261 321 261 364Q261 407 277 444Q293 481 320.5 508.5Q348 536 385.5 552Q423 568 465 568Q507 568 544 552Q581 536 609 508.5Q637 481 653 444Q669 407 669 364Q669 321 653 284Q637 247 609 219.5Q581 192 544 176Q507 160 465 160ZM465 195Q500 195 530 208Q560 221 582.5 244Q605 267 618 298Q631 329 631 364Q631 399 618 430Q605 461 582.5 484Q560 507 530 520Q500 533 465 533Q430 533 399.5 520Q369 507 346.5 484Q324 461 311 430Q298 399 298 364Q298 329 311 298Q324 267 346.5 244Q369 221 399.5 208Q430 195 465 195ZM464 332Q450 332 441 341Q432 350 432 364Q432 378 441 387Q450 396 464 396Q478 396 487 387Q496 378 496 364Q496 350 487 341Q478 332 464 332Z" glyph-name="bullseye" horiz-adv-x="927" unicode="&#9678;" /><glyph d="M312 -10Q257 -10 209.5 10.5Q162 31 126.5 66Q91 101 71 148.5Q51 196 51 250Q51 305 71.5 352.5Q92 400 127 435Q162 470 210 490Q258 510 312 510Q353 510 389.5 498.5Q426 487 457 466.5Q488 446 511.5 417.5Q535 389 550 355L515 340Q489 402 435.5 439Q382 476 312 476Q265 476 224.5 458.5Q184 441 154 410Q124 379 106.5 338Q89 297 89 250Q89 203 106.5 162Q124 121 154 90Q184 59 225 41.5Q266 24 313 24Q385 24 438 62.5Q491 101 517 162L552 147Q522 78 459.5 34Q397 -10 312 -10Z" glyph-name="c" horiz-adv-x="600" unicode="c" /><glyph d="M358 -9Q294 -9 238 15Q182 39 141 80.5Q100 122 76 178Q52 234 52 298Q52 363 76 419Q100 475 141.5 516Q183 557 239 581Q295 605 358 605Q443 605 512.5 563.5Q582 522 622 455L590 437Q555 497 494.5 533.5Q434 570 358 570Q302 570 253 548.5Q204 527 168 490Q132 453 111 403.5Q90 354 90 298Q90 241 111 191.5Q132 142 168 105Q204 68 253 46.5Q302 25 358 25Q437 25 499 64.5Q561 104 595 168L628 153Q589 80 517.5 35.5Q446 -9 358 -9Z" glyph-name="c.smcp" horiz-adv-x="662" unicode="&#57859;" /><glyph d="M407 720H457L322 573H284ZM312 -10Q257 -10 209.5 10.5Q162 31 126.5 66Q91 101 71 148.5Q51 196 51 250Q51 305 71.5 352.5Q92 400 127 435Q162 470 210 490Q258 510 312 510Q353 510 389.5 498.5Q426 487 457 466.5Q488 446 511.5 417.5Q535 389 550 355L515 340Q489 402 435.5 439Q382 476 312 476Q265 476 224.5 458.5Q184 441 154 410Q124 379 106.5 338Q89 297 89 250Q89 203 106.5 162Q124 121 154 90Q184 59 225 41.5Q266 24 313 24Q385 24 438 62.5Q491 101 517 162L552 147Q522 78 459.5 34Q397 -10 312 -10Z" glyph-name="cacute" horiz-adv-x="600" unicode="&#263;" /><glyph d="M463 816H513L378 669H340ZM358 -9Q294 -9 238 15Q182 39 141 80.5Q100 122 76 178Q52 234 52 298Q52 363 76 419Q100 475 141.5 516Q183 557 239 581Q295 605 358 605Q443 605 512.5 563.5Q582 522 622 455L590 437Q555 497 494.5 533.5Q434 570 358 570Q302 570 253 548.5Q204 527 168 490Q132 453 111 403.5Q90 354 90 298Q90 241 111 191.5Q132 142 168 105Q204 68 253 46.5Q302 25 358 25Q437 25 499 64.5Q561 104 595 168L628 153Q589 80 517.5 35.5Q446 -9 358 -9Z" glyph-name="cacute.smcp" horiz-adv-x="662" unicode="&#57908;" /><glyph d="M118 720H158L252 602L347 720H388L269 573H237Z" glyph-name="caron" horiz-adv-x="507" unicode="&#711;" /><glyph d="M271 727H308L242 565H213Z" glyph-name="caronSlovak" horiz-adv-x="507" unicode="&#58387;" /><glyph d="M172 720H212L306 602L401 720H442L323 573H291ZM312 -10Q257 -10 209.5 10.5Q162 31 126.5 66Q91 101 71 148.5Q51 196 51 250Q51 305 71.5 352.5Q92 400 127 435Q162 470 210 490Q258 510 312 510Q353 510 389.5 498.5Q426 487 457 466.5Q488 446 511.5 417.5Q535 389 550 355L515 340Q489 402 435.5 439Q382 476 312 476Q265 476 224.5 458.5Q184 441 154 410Q124 379 106.5 338Q89 297 89 250Q89 203 106.5 162Q124 121 154 90Q184 59 225 41.5Q266 24 313 24Q385 24 438 62.5Q491 101 517 162L552 147Q522 78 459.5 34Q397 -10 312 -10Z" glyph-name="ccaron" horiz-adv-x="600" unicode="&#269;" /><glyph d="M227 816H267L361 698L456 816H497L378 669H346ZM358 -9Q294 -9 238 15Q182 39 141 80.5Q100 122 76 178Q52 234 52 298Q52 363 76 419Q100 475 141.5 516Q183 557 239 581Q295 605 358 605Q443 605 512.5 563.5Q582 522 622 455L590 437Q555 497 494.5 533.5Q434 570 358 570Q302 570 253 548.5Q204 527 168 490Q132 453 111 403.5Q90 354 90 298Q90 241 111 191.5Q132 142 168 105Q204 68 253 46.5Q302 25 358 25Q437 25 499 64.5Q561 104 595 168L628 153Q589 80 517.5 35.5Q446 -9 358 -9Z" glyph-name="ccaron.smcp" horiz-adv-x="662" unicode="&#57910;" /><glyph d="M316 -221Q271 -221 239.5 -206.5Q208 -192 185 -169L215 -150Q236 -169 258 -180.5Q280 -192 316 -192Q358 -192 384 -175Q410 -158 410 -132Q410 -109 384 -94Q358 -79 313 -79H290V-9Q239 -5 195 17Q151 39 119 73.5Q87 108 69 153.5Q51 199 51 250Q51 305 71.5 352.5Q92 400 127 435Q162 470 210 490Q258 510 312 510Q353 510 389.5 498.5Q426 487 457 466.5Q488 446 511.5 417.5Q535 389 550 355L515 340Q489 402 435.5 439Q382 476 312 476Q265 476 224.5 458.5Q184 441 154 410Q124 379 106.5 338Q89 297 89 250Q89 203 106.5 162Q124 121 154 90Q184 59 225 41.5Q266 24 313 24Q385 24 438 62.5Q491 101 517 162L552 147Q523 79 462.5 36Q402 -7 321 -10V-55Q378 -55 412 -75.5Q446 -96 446 -131Q446 -170 409.5 -195.5Q373 -221 316 -221Z" glyph-name="ccedilla" horiz-adv-x="600" unicode="&#231;" /><glyph d="M357 -225Q312 -225 280.5 -210.5Q249 -196 226 -173L256 -154Q277 -173 299 -184.5Q321 -196 357 -196Q399 -196 425 -179Q451 -162 451 -136Q451 -113 425 -98Q399 -83 354 -83H331V-8Q272 -3 221 22.5Q170 48 132.5 89.5Q95 131 73.5 184.5Q52 238 52 298Q52 363 76 419Q100 475 141.5 516Q183 557 239 581Q295 605 358 605Q443 605 512.5 563.5Q582 522 622 455L590 437Q555 497 494.5 533.5Q434 570 358 570Q302 570 253 548.5Q204 527 168 490Q132 453 111 403.5Q90 354 90 298Q90 241 111 191.5Q132 142 168 105Q204 68 253 46.5Q302 25 358 25Q437 25 499 64.5Q561 104 595 168L628 153Q589 81 519 37Q449 -7 362 -9V-59Q419 -59 453 -79.5Q487 -100 487 -135Q487 -174 450.5 -199.5Q414 -225 357 -225Z" glyph-name="ccedilla.smcp" horiz-adv-x="662" unicode="&#57912;" /><glyph d="M296 720H328L447 573H407L312 690L218 573H177ZM312 -10Q257 -10 209.5 10.5Q162 31 126.5 66Q91 101 71 148.5Q51 196 51 250Q51 305 71.5 352.5Q92 400 127 435Q162 470 210 490Q258 510 312 510Q353 510 389.5 498.5Q426 487 457 466.5Q488 446 511.5 417.5Q535 389 550 355L515 340Q489 402 435.5 439Q382 476 312 476Q265 476 224.5 458.5Q184 441 154 410Q124 379 106.5 338Q89 297 89 250Q89 203 106.5 162Q124 121 154 90Q184 59 225 41.5Q266 24 313 24Q385 24 438 62.5Q491 101 517 162L552 147Q522 78 459.5 34Q397 -10 312 -10Z" glyph-name="ccircumflex" horiz-adv-x="600" unicode="&#265;" /><glyph d="M345 814H377L496 667H456L361 784L267 667H226ZM358 -9Q294 -9 238 15Q182 39 141 80.5Q100 122 76 178Q52 234 52 298Q52 363 76 419Q100 475 141.5 516Q183 557 239 581Q295 605 358 605Q443 605 512.5 563.5Q582 522 622 455L590 437Q555 497 494.5 533.5Q434 570 358 570Q302 570 253 548.5Q204 527 168 490Q132 453 111 403.5Q90 354 90 298Q90 241 111 191.5Q132 142 168 105Q204 68 253 46.5Q302 25 358 25Q437 25 499 64.5Q561 104 595 168L628 153Q589 80 517.5 35.5Q446 -9 358 -9Z" glyph-name="ccircumflex.smcp" horiz-adv-x="662" unicode="&#57909;" /><glyph d="M312 -10Q257 -10 209.5 10.5Q162 31 126.5 66Q91 101 71 148.5Q51 196 51 250Q51 305 71.5 352.5Q92 400 127 435Q162 470 210 490Q258 510 312 510Q353 510 389.5 498.5Q426 487 457 466.5Q488 446 511.5 417.5Q535 389 550 355L515 340Q489 402 435.5 439Q382 476 312 476Q265 476 224.5 458.5Q184 441 154 410Q124 379 106.5 338Q89 297 89 250Q89 203 106.5 162Q124 121 154 90Q184 59 225 41.5Q266 24 313 24Q385 24 438 62.5Q491 101 517 162L552 147Q522 78 459.5 34Q397 -10 312 -10ZM292 715H329V575H292Z" glyph-name="cdotaccent" horiz-adv-x="600" unicode="&#267;" /><glyph d="M358 -9Q294 -9 238 15Q182 39 141 80.5Q100 122 76 178Q52 234 52 298Q52 363 76 419Q100 475 141.5 516Q183 557 239 581Q295 605 358 605Q443 605 512.5 563.5Q582 522 622 455L590 437Q555 497 494.5 533.5Q434 570 358 570Q302 570 253 548.5Q204 527 168 490Q132 453 111 403.5Q90 354 90 298Q90 241 111 191.5Q132 142 168 105Q204 68 253 46.5Q302 25 358 25Q437 25 499 64.5Q561 104 595 168L628 153Q589 80 517.5 35.5Q446 -9 358 -9ZM344 811H381V671H344Z" glyph-name="cdotaccent.smcp" horiz-adv-x="662" unicode="&#57911;" /><glyph d="M254 -221Q209 -221 177.5 -206.5Q146 -192 123 -169L153 -150Q174 -169 196 -180.5Q218 -192 254 -192Q296 -192 322 -175Q348 -158 348 -132Q348 -109 322 -94Q296 -79 251 -79H228V0H259V-55Q316 -55 350 -75.5Q384 -96 384 -131Q384 -170 347.5 -195.5Q311 -221 254 -221Z" glyph-name="cedilla" horiz-adv-x="507" unicode="&#184;" /><glyph d="M281 -9Q234 -6 193.5 12Q153 30 123.5 63Q94 96 77.5 142.5Q61 189 61 249Q61 310 78 357Q95 404 124.5 437Q154 470 194 488Q234 506 281 509V630H318V509Q391 505 446.5 465Q502 425 525 350L491 335Q470 407 418.5 441.5Q367 476 300 476Q258 476 221 461.5Q184 447 156.5 418.5Q129 390 113.5 347.5Q98 305 98 249Q98 194 113.5 151.5Q129 109 156.5 81Q184 53 221.5 38.5Q259 24 302 24Q371 24 421.5 60Q472 96 492 167L527 153Q504 76 448.5 35.5Q393 -5 318 -9V-130H281Z" glyph-name="cent" horiz-adv-x="588" unicode="&#162;" /><glyph d="M295 -9Q244 -5 200 16.5Q156 38 124 72.5Q92 107 74 152.5Q56 198 56 250Q56 302 74.5 347.5Q93 393 125 427.5Q157 462 200.5 483.5Q244 505 295 509V630H333V509Q409 504 467.5 462.5Q526 421 555 355L520 340Q494 402 440 439Q386 476 316 476Q270 476 229 458.5Q188 441 158 410Q128 379 110.5 338Q93 297 93 250Q93 203 110.5 161.5Q128 120 158 89.5Q188 59 228.5 41.5Q269 24 316 24Q388 24 441 62.5Q494 101 520 162L555 147Q527 81 468.5 38.5Q410 -4 333 -9V-130H295Z" glyph-name="cent.LP" horiz-adv-x="612" unicode="&#58659;" /><glyph d="M281 -9Q234 -6 193.5 12Q153 30 123.5 63Q94 96 77.5 142.5Q61 189 61 249Q61 310 78 357Q95 404 124.5 437Q154 470 194 488Q234 506 281 509V630H318V509Q391 505 446.5 465Q502 425 525 350L491 335Q470 407 418.5 441.5Q367 476 300 476Q258 476 221 461.5Q184 447 156.5 418.5Q129 390 113.5 347.5Q98 305 98 249Q98 194 113.5 151.5Q129 109 156.5 81Q184 53 221.5 38.5Q259 24 302 24Q371 24 421.5 60Q472 96 492 167L527 153Q504 76 448.5 35.5Q393 -5 318 -9V-130H281Z" glyph-name="cent.LT" horiz-adv-x="588" unicode="&#62564;" /><glyph d="M237 720H269L388 573H348L253 690L159 573H118Z" glyph-name="circumflex" horiz-adv-x="507" unicode="&#710;" /><glyph d="M336 0Q345 17 358.5 43Q372 69 386 101Q400 133 411.5 170.5Q423 208 427 248Q406 196 362 163Q318 130 260 130Q223 130 191 144Q159 158 135 182Q111 206 97 238Q83 270 83 307Q83 344 97 376Q111 408 135 432Q159 456 191 470Q223 484 260 484Q271 484 281.5 482Q292 480 302 477Q283 518 283 564Q283 600 296.5 632Q310 664 334 688Q358 712 390 726Q422 740 458 740Q494 740 526 726Q558 712 582 688Q606 664 620 632Q634 600 634 564Q634 519 615 476Q637 484 661 484Q698 484 730 470Q762 456 786 432Q810 408 823.5 376Q837 344 837 307Q837 270 823 238Q809 206 785 182Q761 158 729 144Q697 130 660 130Q602 130 559.5 163Q517 196 497 247Q502 208 514.5 170.5Q527 133 542 101Q557 69 571.5 43Q586 17 595 0Z" glyph-name="club" horiz-adv-x="920" unicode="&#9827;" /><glyph d="M71 137H108V0H71ZM71 500H108V363H71Z" glyph-name="colon" horiz-adv-x="179" unicode=":" /><glyph d="M270 137H308V0H270ZM270 500H308V363H270Z" glyph-name="colon.T" horiz-adv-x="588" unicode="&#61828;" /><glyph d="M81 87H122L65 -117H34Z" glyph-name="comma" horiz-adv-x="179" unicode="," /><glyph d="M309 87H351L293 -117H263Z" glyph-name="comma.T" horiz-adv-x="588" unicode="&#61827;" /><glyph d="M200 -249 247 -45H284L228 -249Z" glyph-name="commaaccent" horiz-adv-x="509" unicode="&#58388;" /><glyph d="M435 -10Q357 -10 289 19.5Q221 49 170 100Q119 151 89.5 219Q60 287 60 365Q60 443 89.5 511Q119 579 170 630Q221 681 289 710.5Q357 740 435 740Q513 740 581 710.5Q649 681 700 630Q751 579 780.5 511Q810 443 810 365Q810 287 780.5 219Q751 151 700 100Q649 49 581 19.5Q513 -10 435 -10ZM435 24Q506 24 567.5 51Q629 78 675 124Q721 170 747 232.5Q773 295 773 365Q773 436 747 498Q721 560 675 606Q629 652 567.5 679Q506 706 435 706Q364 706 302.5 679Q241 652 195 606Q149 560 123 498Q97 436 97 365Q97 295 123 232.5Q149 170 195 124Q241 78 302.5 51Q364 24 435 24ZM438 167Q397 167 361 182.5Q325 198 298.5 225Q272 252 256.5 288Q241 324 241 364Q241 405 256.5 441Q272 477 298.5 503.5Q325 530 361 545.5Q397 561 438 561Q492 561 536.5 536Q581 511 607 469L575 448Q555 482 519 504Q483 526 438 526Q405 526 375.5 513.5Q346 501 324 479Q302 457 289.5 427.5Q277 398 277 364Q277 331 289.5 301.5Q302 272 324 250Q346 228 375.5 215.5Q405 203 438 203Q485 203 522 226.5Q559 250 579 288L612 269Q586 224 540.5 195.5Q495 167 438 167Z" glyph-name="copyright" horiz-adv-x="869" unicode="&#169;" /><glyph d="M294 -10Q191 -10 131 52Q71 114 71 224V501Q71 555 87.5 599.5Q104 644 133 675Q162 706 203.5 723Q245 740 294 740Q344 740 385 723Q426 706 455.5 674.5Q485 643 501 599Q517 555 517 501V218Q517 108 456 49Q395 -10 294 -10ZM294 24Q379 24 429.5 74Q480 124 480 218V501Q480 597 429.5 651.5Q379 706 294 706Q252 706 217.5 691.5Q183 677 159 650.5Q135 624 121.5 586Q108 548 108 501V225Q108 130 158.5 77Q209 24 294 24ZM297 118Q253 118 225 143Q197 168 197 216V516Q197 564 225 590.5Q253 617 297 617Q342 617 369 590.5Q396 564 396 516V444H358V515Q358 546 341 562Q324 578 297 578Q270 578 252 562Q234 546 234 515V215Q234 183 252 168.5Q270 154 297 154Q325 154 341.5 168.5Q358 183 358 215V293H396V216Q396 168 368.5 143Q341 118 297 118Z" glyph-name="copyright.LT" horiz-adv-x="588" unicode="&#62565;" /><glyph d="M218 435Q187 435 159.5 447Q132 459 112 479Q92 499 80 527Q68 555 68 586Q68 617 80 644.5Q92 672 112 692Q132 712 159.5 724Q187 736 218 736Q263 736 299.5 712Q336 688 354 650L326 636Q312 668 283.5 687.5Q255 707 218 707Q193 707 171 697.5Q149 688 133 671.5Q117 655 107.5 633Q98 611 98 586Q98 561 107.5 538.5Q117 516 133 499.5Q149 483 171 473.5Q193 464 218 464Q256 464 284.5 484.5Q313 505 327 537L355 523Q337 484 301 459.5Q265 435 218 435Z" glyph-name="cordinal" horiz-adv-x="419" unicode="&#57729;" /><glyph d="M218 435Q187 435 159.5 447Q132 459 112 479Q92 499 80 527Q68 555 68 586Q68 617 80 644.5Q92 672 112 692Q132 712 159.5 724Q187 736 218 736Q263 736 299.5 712Q336 688 354 650L326 636Q312 668 283.5 687.5Q255 707 218 707Q193 707 171 697.5Q149 688 133 671.5Q117 655 107.5 633Q98 611 98 586Q98 561 107.5 538.5Q117 516 133 499.5Q149 483 171 473.5Q193 464 218 464Q256 464 284.5 484.5Q313 505 327 537L355 523Q337 484 301 459.5Q265 435 218 435Z" glyph-name="cordinal.smcp" horiz-adv-x="419" unicode="&#58195;" /><glyph d="M392 102Q343 102 299.5 118.5Q256 135 222 164L128 67L104 90L198 187Q167 222 149.5 266.5Q132 311 132 362Q132 413 149.5 457Q167 501 198 536L105 633L128 656L221 558Q255 588 298.5 605Q342 622 392 622Q440 622 483 606Q526 590 560 561L646 651L670 629L583 538Q615 503 633.5 458Q652 413 652 362Q652 310 633.5 265Q615 220 583 185L668 97L646 73L559 162Q525 133 482.5 117.5Q440 102 392 102ZM392 136Q439 136 479.5 153.5Q520 171 550 202Q580 233 597 274Q614 315 614 362Q614 409 597 450Q580 491 550 522Q520 553 479.5 570.5Q439 588 392 588Q346 588 305 570.5Q264 553 234 522Q204 491 186.5 450Q169 409 169 362Q169 315 186.5 274Q204 233 234 202Q264 171 305 153.5Q346 136 392 136Z" glyph-name="currency" horiz-adv-x="773" unicode="&#164;" /><glyph d="M310 -10Q256 -10 208.5 10.5Q161 31 126 66Q91 101 71 148.5Q51 196 51 250Q51 304 71 351.5Q91 399 126 434Q161 469 208 489.5Q255 510 310 510Q344 510 377.5 500.5Q411 491 440 473Q469 455 492.5 429Q516 403 530 369V730H566V0H531V133Q517 99 493.5 72.5Q470 46 441 27.5Q412 9 378.5 -0.5Q345 -10 310 -10ZM311 24Q358 24 399 41.5Q440 59 470 90Q500 121 517 162Q534 203 534 250Q534 297 517 338Q500 379 470 410Q440 441 399 458.5Q358 476 311 476Q265 476 224.5 458.5Q184 441 154 410Q124 379 106.5 338Q89 297 89 250Q89 203 106.5 162Q124 121 154 90Q184 59 224.5 41.5Q265 24 311 24Z" glyph-name="d" horiz-adv-x="643" unicode="d" /><glyph d="M75 596H242Q308 596 364 573Q420 550 461.5 510Q503 470 526 415.5Q549 361 549 298Q549 235 525.5 180.5Q502 126 460.5 86Q419 46 363.5 23Q308 0 243 0H75ZM111 562V34H241Q298 34 347.5 54.5Q397 75 433.5 110.5Q470 146 491 194Q512 242 512 298Q512 354 491.5 402.5Q471 451 435 486.5Q399 522 349 542Q299 562 240 562Z" glyph-name="d.smcp" horiz-adv-x="601" unicode="&#57860;" /><glyph d="M701 729 392 0H299L574 652H261L328 538L213 422H402L369 348H25L225 537L110 729Z" glyph-name="dagger" horiz-adv-x="749" unicode="&#8224;" /><glyph d="M71 509H277V730H314V509H524V477H314V260H524V227H314V0H277V227H71V260H277V477H71Z" glyph-name="daggerdbl" horiz-adv-x="594" unicode="&#8225;" /><glyph d="M687 730H724L658 568H629ZM310 -10Q256 -10 208.5 10.5Q161 31 126 66Q91 101 71 148.5Q51 196 51 250Q51 304 71 351.5Q91 399 126 434Q161 469 208 489.5Q255 510 310 510Q344 510 377.5 500.5Q411 491 440 473Q469 455 492.5 429Q516 403 530 369V730H566V0H531V133Q517 99 493.5 72.5Q470 46 441 27.5Q412 9 378.5 -0.5Q345 -10 310 -10ZM311 24Q358 24 399 41.5Q440 59 470 90Q500 121 517 162Q534 203 534 250Q534 297 517 338Q500 379 470 410Q440 441 399 458.5Q358 476 311 476Q265 476 224.5 458.5Q184 441 154 410Q124 379 106.5 338Q89 297 89 250Q89 203 106.5 162Q124 121 154 90Q184 59 224.5 41.5Q265 24 311 24Z" glyph-name="dcaron" horiz-adv-x="668" unicode="&#271;" /><glyph d="M132 816H172L266 698L361 816H402L283 669H251ZM75 596H242Q308 596 364 573Q420 550 461.5 510Q503 470 526 415.5Q549 361 549 298Q549 235 525.5 180.5Q502 126 460.5 86Q419 46 363.5 23Q308 0 243 0H75ZM111 562V34H241Q298 34 347.5 54.5Q397 75 433.5 110.5Q470 146 491 194Q512 242 512 298Q512 354 491.5 402.5Q471 451 435 486.5Q399 522 349 542Q299 562 240 562Z" glyph-name="dcaron.smcp" horiz-adv-x="601" unicode="&#57913;" /><glyph d="M380 611H530V730H566V611H623V578H566V0H531V133Q517 99 493.5 72.5Q470 46 441 27.5Q412 9 378.5 -0.5Q345 -10 310 -10Q256 -10 208.5 10.5Q161 31 126 66Q91 101 71 148.5Q51 196 51 250Q51 304 71 351.5Q91 399 126 434Q161 469 208 489.5Q255 510 310 510Q344 510 377.5 500.5Q411 491 440 473Q469 455 492.5 429Q516 403 530 369V578H380ZM311 24Q358 24 399 41.5Q440 59 470 90Q500 121 517 162Q534 203 534 250Q534 297 517 338Q500 379 470 410Q440 441 399 458.5Q358 476 311 476Q265 476 224.5 458.5Q184 441 154 410Q124 379 106.5 338Q89 297 89 250Q89 203 106.5 162Q124 121 154 90Q184 59 224.5 41.5Q265 24 311 24Z" glyph-name="dcroat" horiz-adv-x="649" unicode="&#273;" /><glyph d="M26 314H89V596H257Q323 596 379 573Q435 550 476 510Q517 470 540.5 415.5Q564 361 564 298Q564 235 540 180.5Q516 126 475 86Q434 46 378 23Q322 0 258 0H89V281H26ZM126 281V34H255Q313 34 362.5 54.5Q412 75 448.5 110.5Q485 146 505.5 194Q526 242 526 298Q526 354 505.5 402.5Q485 451 449 486.5Q413 522 363 542Q313 562 254 562H126V314H288V281Z" glyph-name="dcroat.smcp" horiz-adv-x="616" unicode="&#57916;" /><glyph d="M218 550Q199 550 181.5 557.5Q164 565 151 578Q138 591 130.5 608.5Q123 626 123 645Q123 685 151 712.5Q179 740 218 740Q257 740 285 712.5Q313 685 313 645Q313 626 305.5 608.5Q298 591 285 578Q272 565 255 557.5Q238 550 218 550ZM218 581Q244 581 262.5 599.5Q281 618 281 644Q281 670 262.5 688.5Q244 707 218 707Q192 707 173.5 688.5Q155 670 155 644Q155 618 173.5 599.5Q192 581 218 581Z" glyph-name="degree" horiz-adv-x="436" unicode="&#176;" /><glyph d="M460 791 787 390 460 -10 133 390Z" glyph-name="diamond" horiz-adv-x="920" unicode="&#9830;" /><glyph d="M278 715H314V575H278ZM178 715H214V575H178Z" glyph-name="dieresis" horiz-adv-x="509" unicode="&#168;" /><glyph d="M54 381H424V349H54ZM223 562H255V440H223ZM223 289H255V166H223Z" glyph-name="divide" horiz-adv-x="478" unicode="&#247;" /><glyph d="M313 313V24Q351 27 384 39.5Q417 52 442 73.5Q467 95 481 125Q495 155 495 191Q495 235 476.5 263.5Q458 292 428 311.5Q398 331 359.5 343.5Q321 356 282 368Q242 380 203 394Q164 408 133 429.5Q102 451 82.5 482.5Q63 514 63 560Q63 600 79 632.5Q95 665 123.5 688.5Q152 712 191 725.5Q230 739 276 740V840H314V739Q391 734 439.5 705Q488 676 518 638L488 614Q462 649 421.5 675Q381 701 313 706V396Q353 384 392.5 369Q432 354 463 331.5Q494 309 513.5 275.5Q533 242 533 192Q533 150 516.5 114.5Q500 79 471 52.5Q442 26 401.5 10Q361 -6 314 -9V-120H276V-9Q201 -5 141 24.5Q81 54 46 97L74 123Q106 83 158.5 55.5Q211 28 277 24V323ZM100 560Q100 525 114.5 500.5Q129 476 154 458.5Q179 441 211 429Q243 417 277 406V707Q240 706 208 695.5Q176 685 152 666Q128 647 114 620Q100 593 100 560Z" glyph-name="dollar" horiz-adv-x="588" unicode="$" /><glyph d="M499 192Q499 150 484.5 114.5Q470 79 443 52.5Q416 26 378.5 10Q341 -6 295 -9V-120H259V-9Q193 -6 137 22Q81 50 47 94L78 119Q107 79 156 53.5Q205 28 259 24V371Q222 383 186.5 396.5Q151 410 123.5 430.5Q96 451 79.5 482Q63 513 63 560Q63 599 78 631.5Q93 664 119.5 687Q146 710 182 723.5Q218 737 259 739V840H295V739Q356 735 400.5 711Q445 687 476 650L446 626Q420 660 382.5 681Q345 702 294 706V397Q332 385 369 370Q406 355 435 332.5Q464 310 481.5 276Q499 242 499 192ZM461 191Q461 230 447 257.5Q433 285 410 304Q387 323 357 336.5Q327 350 294 360V25Q330 28 360.5 41Q391 54 413.5 75Q436 96 448.5 125.5Q461 155 461 191ZM100 560Q100 525 113 501Q126 477 148 459.5Q170 442 199 430Q228 418 259 408V706Q226 704 197 693Q168 682 146.5 663.5Q125 645 112.5 618.5Q100 592 100 560Z" glyph-name="dollar.LP" horiz-adv-x="554" unicode="&#58658;" /><glyph d="M313 313V24Q351 27 384 39.5Q417 52 442 73.5Q467 95 481 125Q495 155 495 191Q495 235 476.5 263.5Q458 292 428 311.5Q398 331 359.5 343.5Q321 356 282 368Q242 380 203 394Q164 408 133 429.5Q102 451 82.5 482.5Q63 514 63 560Q63 600 79 632.5Q95 665 123.5 688.5Q152 712 191 725.5Q230 739 276 740V840H314V739Q391 734 439.5 705Q488 676 518 638L488 614Q462 649 421.5 675Q381 701 313 706V396Q353 384 392.5 369Q432 354 463 331.5Q494 309 513.5 275.5Q533 242 533 192Q533 150 516.5 114.5Q500 79 471 52.5Q442 26 401.5 10Q361 -6 314 -9V-120H276V-9Q201 -5 141 24.5Q81 54 46 97L74 123Q106 83 158.5 55.5Q211 28 277 24V323ZM100 560Q100 525 114.5 500.5Q129 476 154 458.5Q179 441 211 429Q243 417 277 406V707Q240 706 208 695.5Q176 685 152 666Q128 647 114 620Q100 593 100 560Z" glyph-name="dollar.LT" horiz-adv-x="588" unicode="&#62566;" /><glyph d="M226 715H263V575H226Z" glyph-name="dotaccent" horiz-adv-x="509" unicode="&#729;" /><glyph d="M226 -45H263V-185H226Z" glyph-name="dotbelow" horiz-adv-x="509" unicode="&#58389;" /><glyph d="M74 500H111V0H74Z" glyph-name="dotlessi" horiz-adv-x="185" unicode="&#305;" /><glyph d="M-63 -192Q-21 -192 5.5 -187.5Q32 -183 47.5 -168Q63 -153 69 -126Q75 -99 75 -54V500H112V-55Q112 -107 104 -140.5Q96 -174 76.5 -193.5Q57 -213 24 -220.5Q-9 -228 -58 -228H-63Z" glyph-name="dotlessj" horiz-adv-x="186" unicode="&#567;" /><glyph d="M71 730H108V-230H71ZM219 730H256V-230H219Z" glyph-name="doublebar" horiz-adv-x="327" unicode="&#8214;" /><glyph d="M71 840H108V-120H71ZM219 840H256V-120H219Z" glyph-name="doublebar.cap" horiz-adv-x="327" unicode="&#58468;" /><glyph d="M71 686H108V-98H71ZM220 686H257V-98H220Z" glyph-name="doublebar.smcp" horiz-adv-x="327" unicode="&#58474;" /><glyph d="M103 720H150L276 573H241ZM228 720H276L388 573H353Z" glyph-name="doublegrave" horiz-adv-x="507" unicode="&#58386;" /><glyph d="M314 -10Q253 -10 204 10Q155 30 121 65Q87 100 69 147.5Q51 195 51 249Q51 304 71 351.5Q91 399 125.5 434.5Q160 470 208 490Q256 510 311 510Q367 510 413.5 490.5Q460 471 494 436.5Q528 402 547 355.5Q566 309 566 254V237H147V270H529Q526 315 509.5 352.5Q493 390 464.5 418Q436 446 397 461.5Q358 477 311 477Q263 477 222 459Q181 441 151 410Q121 379 104 337.5Q87 296 87 249Q87 201 103 160Q119 119 148 88.5Q177 58 219.5 40.5Q262 23 314 23Q392 23 444 61.5Q496 100 523 170L555 155Q523 75 464 32.5Q405 -10 314 -10Z" glyph-name="e" horiz-adv-x="619" unicode="e" /><glyph d="M75 596H442V562H112V316H442V282H112V34H442V0H75Z" glyph-name="e.smcp" horiz-adv-x="499" unicode="&#57861;" /><glyph d="M406 720H456L321 573H283ZM314 -10Q253 -10 204 10Q155 30 121 65Q87 100 69 147.5Q51 195 51 249Q51 304 71 351.5Q91 399 125.5 434.5Q160 470 208 490Q256 510 311 510Q367 510 413.5 490.5Q460 471 494 436.5Q528 402 547 355.5Q566 309 566 254V237H147V270H529Q526 315 509.5 352.5Q493 390 464.5 418Q436 446 397 461.5Q358 477 311 477Q263 477 222 459Q181 441 151 410Q121 379 104 337.5Q87 296 87 249Q87 201 103 160Q119 119 148 88.5Q177 58 219.5 40.5Q262 23 314 23Q392 23 444 61.5Q496 100 523 170L555 155Q523 75 464 32.5Q405 -10 314 -10Z" glyph-name="eacute" horiz-adv-x="619" unicode="&#233;" /><glyph d="M351 816H401L266 669H228ZM75 596H442V562H112V316H442V282H112V34H442V0H75Z" glyph-name="eacute.smcp" horiz-adv-x="498" unicode="&#57917;" /><glyph d="M314 -10Q253 -10 204 10Q155 30 121 65Q87 100 69 147.5Q51 195 51 249Q51 304 71 351.5Q91 399 125.5 434.5Q160 470 208 490Q256 510 311 510Q367 510 413.5 490.5Q460 471 494 436.5Q528 402 547 355.5Q566 309 566 254V237H147V270H529Q526 315 509.5 352.5Q493 390 464.5 418Q436 446 397 461.5Q358 477 311 477Q263 477 222 459Q181 441 151 410Q121 379 104 337.5Q87 296 87 249Q87 201 103 160Q119 119 148 88.5Q177 58 219.5 40.5Q262 23 314 23Q392 23 444 61.5Q496 100 523 170L555 155Q523 75 464 32.5Q405 -10 314 -10ZM314 564Q273 564 242.5 577Q212 590 192 611Q172 632 162 659.5Q152 687 152 715H185Q185 692 193 670Q201 648 217 631Q233 614 257 603.5Q281 593 314 593Q344 593 368 603.5Q392 614 408.5 631Q425 648 433.5 670Q442 692 442 715H475Q475 687 464 659.5Q453 632 432 611Q411 590 381.5 577Q352 564 314 564Z" glyph-name="ebreve" horiz-adv-x="619" unicode="&#277;" /><glyph d="M75 596H442V562H112V316H442V282H112V34H442V0H75ZM261 665Q220 665 189.5 678Q159 691 139 712Q119 733 109 760.5Q99 788 99 816H132Q132 793 140 771Q148 749 164 732Q180 715 204 704.5Q228 694 261 694Q291 694 315 704.5Q339 715 355.5 732Q372 749 380.5 771Q389 793 389 816H422Q422 788 411 760.5Q400 733 379 712Q358 691 328.5 678Q299 665 261 665Z" glyph-name="ebreve.smcp" horiz-adv-x="498" unicode="&#57923;" /><glyph d="M179 720H219L313 602L408 720H449L330 573H298ZM314 -10Q253 -10 204 10Q155 30 121 65Q87 100 69 147.5Q51 195 51 249Q51 304 71 351.5Q91 399 125.5 434.5Q160 470 208 490Q256 510 311 510Q367 510 413.5 490.5Q460 471 494 436.5Q528 402 547 355.5Q566 309 566 254V237H147V270H529Q526 315 509.5 352.5Q493 390 464.5 418Q436 446 397 461.5Q358 477 311 477Q263 477 222 459Q181 441 151 410Q121 379 104 337.5Q87 296 87 249Q87 201 103 160Q119 119 148 88.5Q177 58 219.5 40.5Q262 23 314 23Q392 23 444 61.5Q496 100 523 170L555 155Q523 75 464 32.5Q405 -10 314 -10Z" glyph-name="ecaron" horiz-adv-x="619" unicode="&#283;" /><glyph d="M128 816H168L262 698L357 816H398L279 669H247ZM75 596H442V562H112V316H442V282H112V34H442V0H75Z" glyph-name="ecaron.smcp" horiz-adv-x="498" unicode="&#57921;" /><glyph d="M295 720H327L446 573H406L311 690L217 573H176ZM314 -10Q253 -10 204 10Q155 30 121 65Q87 100 69 147.5Q51 195 51 249Q51 304 71 351.5Q91 399 125.5 434.5Q160 470 208 490Q256 510 311 510Q367 510 413.5 490.5Q460 471 494 436.5Q528 402 547 355.5Q566 309 566 254V237H147V270H529Q526 315 509.5 352.5Q493 390 464.5 418Q436 446 397 461.5Q358 477 311 477Q263 477 222 459Q181 441 151 410Q121 379 104 337.5Q87 296 87 249Q87 201 103 160Q119 119 148 88.5Q177 58 219.5 40.5Q262 23 314 23Q392 23 444 61.5Q496 100 523 170L555 155Q523 75 464 32.5Q405 -10 314 -10Z" glyph-name="ecircumflex" horiz-adv-x="619" unicode="&#234;" /><glyph d="M248 816H280L399 669H359L264 786L170 669H129ZM75 596H442V562H112V316H442V282H112V34H442V0H75Z" glyph-name="ecircumflex.smcp" horiz-adv-x="498" unicode="&#57919;" /><glyph d="M344 715H380V575H344ZM244 715H280V575H244ZM314 -10Q253 -10 204 10Q155 30 121 65Q87 100 69 147.5Q51 195 51 249Q51 304 71 351.5Q91 399 125.5 434.5Q160 470 208 490Q256 510 311 510Q367 510 413.5 490.5Q460 471 494 436.5Q528 402 547 355.5Q566 309 566 254V237H147V270H529Q526 315 509.5 352.5Q493 390 464.5 418Q436 446 397 461.5Q358 477 311 477Q263 477 222 459Q181 441 151 410Q121 379 104 337.5Q87 296 87 249Q87 201 103 160Q119 119 148 88.5Q177 58 219.5 40.5Q262 23 314 23Q392 23 444 61.5Q496 100 523 170L555 155Q523 75 464 32.5Q405 -10 314 -10Z" glyph-name="edieresis" horiz-adv-x="619" unicode="&#235;" /><glyph d="M299 811H335V671H299ZM199 811H235V671H199ZM75 596H442V562H112V316H442V282H112V34H442V0H75Z" glyph-name="edieresis.smcp" horiz-adv-x="498" unicode="&#57904;" /><glyph d="M314 -10Q253 -10 204 10Q155 30 121 65Q87 100 69 147.5Q51 195 51 249Q51 304 71 351.5Q91 399 125.5 434.5Q160 470 208 490Q256 510 311 510Q367 510 413.5 490.5Q460 471 494 436.5Q528 402 547 355.5Q566 309 566 254V237H147V270H529Q526 315 509.5 352.5Q493 390 464.5 418Q436 446 397 461.5Q358 477 311 477Q263 477 222 459Q181 441 151 410Q121 379 104 337.5Q87 296 87 249Q87 201 103 160Q119 119 148 88.5Q177 58 219.5 40.5Q262 23 314 23Q392 23 444 61.5Q496 100 523 170L555 155Q523 75 464 32.5Q405 -10 314 -10ZM295 715H332V575H295Z" glyph-name="edotaccent" horiz-adv-x="619" unicode="&#279;" /><glyph d="M75 596H442V562H112V316H442V282H112V34H442V0H75ZM248 811H285V671H248Z" glyph-name="edotaccent.smcp" horiz-adv-x="498" unicode="&#57926;" /><glyph d="M314 -10Q253 -10 204 10Q155 30 121 65Q87 100 69 147.5Q51 195 51 249Q51 304 71 351.5Q91 399 125.5 434.5Q160 470 208 490Q256 510 311 510Q367 510 413.5 490.5Q460 471 494 436.5Q528 402 547 355.5Q566 309 566 254V237H147V270H529Q526 315 509.5 352.5Q493 390 464.5 418Q436 446 397 461.5Q358 477 311 477Q263 477 222 459Q181 441 151 410Q121 379 104 337.5Q87 296 87 249Q87 201 103 160Q119 119 148 88.5Q177 58 219.5 40.5Q262 23 314 23Q392 23 444 61.5Q496 100 523 170L555 155Q523 75 464 32.5Q405 -10 314 -10ZM158 720H208L331 573H293Z" glyph-name="egrave" horiz-adv-x="619" unicode="&#232;" /><glyph d="M75 596H442V562H112V316H442V282H112V34H442V0H75ZM134 816H184L307 669H269Z" glyph-name="egrave.smcp" horiz-adv-x="498" unicode="&#57918;" /><glyph d="M296 -10Q239 -10 195 6Q151 22 120 50Q89 78 73 116Q57 154 57 198Q57 267 96 318Q135 369 205 392Q150 413 119.5 456.5Q89 500 89 556Q89 595 103.5 628.5Q118 662 145 686.5Q172 711 209.5 725.5Q247 740 293 740Q339 740 377 725.5Q415 711 442 686.5Q469 662 484 628.5Q499 595 499 556Q499 500 468 457Q437 414 383 392Q453 369 492 318Q531 267 531 199Q531 155 515 117Q499 79 468.5 50.5Q438 22 394.5 6Q351 -10 296 -10ZM296 24Q342 24 378.5 37.5Q415 51 440.5 75Q466 99 480 131Q494 163 494 199Q494 234 481 265.5Q468 297 442.5 321Q417 345 379.5 359.5Q342 374 294 374Q246 374 209 359.5Q172 345 146.5 321Q121 297 107.5 265Q94 233 94 198Q94 162 108 130.5Q122 99 148 75Q174 51 211.5 37.5Q249 24 296 24ZM294 406Q334 406 365.5 418Q397 430 419 450.5Q441 471 452.5 498Q464 525 464 556Q464 588 452 615.5Q440 643 418 663Q396 683 364 695Q332 707 293 707Q254 707 223 695Q192 683 170.5 663Q149 643 137 615.5Q125 588 125 556Q125 525 136.5 498Q148 471 170 450.5Q192 430 223.5 418Q255 406 294 406Z" glyph-name="eight" horiz-adv-x="588" unicode="8" /><glyph d="M290 -10Q235 -10 192 6.5Q149 23 119 51.5Q89 80 73.5 117.5Q58 155 58 198Q58 266 97.5 317.5Q137 369 205 392Q154 413 122.5 456Q91 499 91 556Q91 595 105.5 628.5Q120 662 146.5 686.5Q173 711 209.5 725.5Q246 740 290 740Q334 740 370.5 725.5Q407 711 433.5 686.5Q460 662 475 628.5Q490 595 490 556Q490 499 458.5 456.5Q427 414 375 393Q443 370 482 318Q521 266 521 198Q521 155 505.5 117.5Q490 80 460 51.5Q430 23 387 6.5Q344 -10 290 -10ZM290 25Q335 25 371 38.5Q407 52 432 75.5Q457 99 470.5 130.5Q484 162 484 198Q484 233 471 265Q458 297 433 321.5Q408 346 372 360.5Q336 375 290 375Q245 375 209 360.5Q173 346 148 321.5Q123 297 109.5 265Q96 233 96 198Q96 162 109 130.5Q122 99 147 75.5Q172 52 208 38.5Q244 25 290 25ZM290 407Q327 407 357 419Q387 431 408.5 451Q430 471 442 498Q454 525 454 556Q454 588 442.5 615.5Q431 643 409.5 663Q388 683 357.5 695Q327 707 290 707Q253 707 223 695Q193 683 171.5 663Q150 643 138.5 615.5Q127 588 127 556Q127 525 138.5 498Q150 471 171.5 451Q193 431 223 419Q253 407 290 407Z" glyph-name="eight.LP" horiz-adv-x="579" unicode="&#58685;" /><glyph d="M296 -10Q239 -10 195 6Q151 22 120 50Q89 78 73 116Q57 154 57 198Q57 267 96 318Q135 369 205 392Q150 413 119.5 456.5Q89 500 89 556Q89 595 103.5 628.5Q118 662 145 686.5Q172 711 209.5 725.5Q247 740 293 740Q339 740 377 725.5Q415 711 442 686.5Q469 662 484 628.5Q499 595 499 556Q499 500 468 457Q437 414 383 392Q453 369 492 318Q531 267 531 199Q531 155 515 117Q499 79 468.5 50.5Q438 22 394.5 6Q351 -10 296 -10ZM296 24Q342 24 378.5 37.5Q415 51 440.5 75Q466 99 480 131Q494 163 494 199Q494 234 481 265.5Q468 297 442.5 321Q417 345 379.5 359.5Q342 374 294 374Q246 374 209 359.5Q172 345 146.5 321Q121 297 107.5 265Q94 233 94 198Q94 162 108 130.5Q122 99 148 75Q174 51 211.5 37.5Q249 24 296 24ZM294 406Q334 406 365.5 418Q397 430 419 450.5Q441 471 452.5 498Q464 525 464 556Q464 588 452 615.5Q440 643 418 663Q396 683 364 695Q332 707 293 707Q254 707 223 695Q192 683 170.5 663Q149 643 137 615.5Q125 588 125 556Q125 525 136.5 498Q148 471 170 450.5Q192 430 223.5 418Q255 406 294 406Z" glyph-name="eight.LT" horiz-adv-x="588" unicode="&#58696;" /><glyph d="M174 -6Q143 -6 118 4Q93 14 75.5 30.5Q58 47 49 69.5Q40 92 40 116Q40 155 61.5 184Q83 213 121 227Q93 239 76 263Q59 287 59 319Q59 364 90.5 396Q122 428 174 428Q226 428 258 396Q290 364 290 319Q290 287 273 263Q256 239 227 227Q264 213 285.5 184Q307 155 307 116Q307 92 298 69.5Q289 47 272 30.5Q255 14 230.5 4Q206 -6 174 -6ZM173 25Q221 25 247.5 51.5Q274 78 274 116Q274 154 247.5 181.5Q221 209 173 209Q127 209 101 181.5Q75 154 75 116Q75 78 100.5 51.5Q126 25 173 25ZM173 243Q211 243 233 265Q255 287 255 319Q255 352 233 374Q211 396 173 396Q137 396 115 374Q93 352 93 319Q93 287 115 265Q137 243 173 243Z" glyph-name="eight.inf" horiz-adv-x="348" unicode="&#58745;" /><glyph d="M1108 -6Q1077 -6 1050 5.5Q1023 17 1003 36.5Q983 56 972 82.5Q961 109 961 140Q961 167 969.5 193Q978 219 993 239L1121 422H1161L1055 272Q1084 285 1114 285Q1143 285 1169 274Q1195 263 1214 243.5Q1233 224 1244 197.5Q1255 171 1255 140Q1255 109 1243.5 82.5Q1232 56 1212 36.5Q1192 17 1165.5 5.5Q1139 -6 1108 -6ZM1108 25Q1131 25 1152 34Q1173 43 1188.5 59Q1204 75 1213 95.5Q1222 116 1222 140Q1222 164 1213 185Q1204 206 1188.5 221.5Q1173 237 1152 246Q1131 255 1108 255Q1084 255 1063 246Q1042 237 1026.5 221.5Q1011 206 1002 185Q993 164 993 140Q993 116 1002 95Q1011 74 1026.5 58.5Q1042 43 1063 34Q1084 25 1108 25ZM875 730H920L393 0H348ZM288 340H373V665Q366 648 345 637Q324 626 302 626H296V661H299Q320 661 334 667.5Q348 674 356.5 684Q365 694 369 706.5Q373 719 373 730H407V340H489V308H288ZM41 340H126V665Q119 648 98.5 637Q78 626 56 626H49V661H52Q73 661 87.5 667.5Q102 674 110.5 684Q119 694 123 706.5Q127 719 127 730H160V340H242V308H41ZM722 32H807V357Q800 340 779.5 329Q759 318 737 318H730V353H733Q754 353 768.5 359.5Q783 366 791.5 376Q800 386 804 398.5Q808 411 808 422H841V32H923V0H722Z" glyph-name="elevensixteenths" horiz-adv-x="1300" unicode="&#61984;" /><glyph d="M71 137H109V0H71ZM192 137H230V0H192ZM313 137H351V0H313Z" glyph-name="ellipsis" horiz-adv-x="422" unicode="&#8230;" /><glyph d="M314 -10Q253 -10 204 10Q155 30 121 65Q87 100 69 147.5Q51 195 51 249Q51 304 71 351.5Q91 399 125.5 434.5Q160 470 208 490Q256 510 311 510Q367 510 413.5 490.5Q460 471 494 436.5Q528 402 547 355.5Q566 309 566 254V237H147V270H529Q526 315 509.5 352.5Q493 390 464.5 418Q436 446 397 461.5Q358 477 311 477Q263 477 222 459Q181 441 151 410Q121 379 104 337.5Q87 296 87 249Q87 201 103 160Q119 119 148 88.5Q177 58 219.5 40.5Q262 23 314 23Q392 23 444 61.5Q496 100 523 170L555 155Q523 75 464 32.5Q405 -10 314 -10ZM183 605H447V573H183Z" glyph-name="emacron" horiz-adv-x="619" unicode="&#275;" /><glyph d="M75 596H442V562H112V316H442V282H112V34H442V0H75ZM128 706H392V674H128Z" glyph-name="emacron.smcp" horiz-adv-x="498" unicode="&#57922;" /><glyph d="M54 270H674V237H54Z" glyph-name="emdash" horiz-adv-x="728" unicode="&#8212;" /><glyph d="M54 346H674V313H54Z" glyph-name="emdash.cap" horiz-adv-x="728" unicode="&#58502;" /><glyph d="M54 270H474V237H54Z" glyph-name="endash" horiz-adv-x="528" unicode="&#8211;" /><glyph d="M54 346H474V313H54Z" glyph-name="endash.cap" horiz-adv-x="528" unicode="&#58500;" /><glyph d="M361 -192Q403 -192 429.5 -187.5Q456 -183 471.5 -168Q487 -153 493 -126Q499 -99 499 -54V282Q499 371 448 423.5Q397 476 307 476Q266 476 230.5 461.5Q195 447 168.5 421Q142 395 126.5 359.5Q111 324 111 282V0H74V500H110V385Q133 439 186.5 474.5Q240 510 311 510Q361 510 402.5 494.5Q444 479 473.5 449.5Q503 420 519.5 377.5Q536 335 536 281V-55Q536 -107 528 -140.5Q520 -174 500.5 -193.5Q481 -213 448.5 -220.5Q416 -228 366 -228H361Z" glyph-name="eng" horiz-adv-x="609" unicode="&#331;" /><glyph d="M381 -192Q423 -192 450 -187.5Q477 -183 492.5 -168.5Q508 -154 514 -126.5Q520 -99 520 -54V-2L111 541V0H75V596H114L520 58V596H556V-55Q556 -107 548 -140.5Q540 -174 520.5 -193.5Q501 -213 468.5 -220.5Q436 -228 387 -228H381Z" glyph-name="eng.smcp" horiz-adv-x="631" unicode="&#58155;" /><glyph d="M314 -10Q253 -10 204 10Q155 30 121 65Q87 100 69 147.5Q51 195 51 249Q51 304 71 351.5Q91 399 125.5 434.5Q160 470 208 490Q256 510 311 510Q367 510 413.5 490.5Q460 471 494 436.5Q528 402 547 355.5Q566 309 566 254V237H147V270H529Q526 315 509.5 352.5Q493 390 464.5 418Q436 446 397 461.5Q358 477 311 477Q263 477 222 459Q181 441 151 410Q121 379 104 337.5Q87 296 87 249Q87 201 103 160Q119 119 148 88.5Q177 58 219.5 40.5Q262 23 314 23Q392 23 444 61.5Q496 100 523 170L555 155Q511 45 418 8H419Q353 -24 327 -49Q301 -74 301 -101Q301 -128 324.5 -144Q348 -160 386 -160Q418 -160 441 -147.5Q464 -135 484 -116L514 -137Q491 -159 458 -175.5Q425 -192 386 -192Q331 -192 297.5 -166Q264 -140 264 -101Q264 -78 277.5 -55.5Q291 -33 323 -10Z" glyph-name="eogonek" horiz-adv-x="619" unicode="&#281;" /><glyph d="M75 596H442V562H112V316H442V282H112V34H442V0H438L440 -1Q374 -33 348 -58Q322 -83 322 -110Q322 -137 345.5 -153Q369 -169 407 -169Q439 -169 462 -156.5Q485 -144 505 -125L535 -146Q512 -168 479 -184.5Q446 -201 407 -201Q352 -201 318.5 -175Q285 -149 285 -110Q285 -81 305 -54Q325 -27 375 0H75Z" glyph-name="eogonek.smcp" horiz-adv-x="498" unicode="&#57929;" /><glyph d="M54 459H424V426H54ZM54 300H424V267H54Z" glyph-name="equal" horiz-adv-x="478" unicode="=" /><glyph d="M37 271H250V242H37ZM37 178H250V149H37Z" glyph-name="equal.inf" horiz-adv-x="287" unicode="&#58749;" /><glyph d="M54 379H424V346H54ZM54 219H424V187H54ZM54 538H424V505H54Z" glyph-name="equivalence" horiz-adv-x="478" unicode="&#8801;" /><glyph d="M292 647Q268 667 242.5 688Q217 709 188 730H244Q265 713 284.5 697.5Q304 682 322 665L432 730H481L342 648Q454 546 510 447.5Q566 349 566 246Q566 193 546 147Q526 101 491.5 66.5Q457 32 410 12Q363 -8 309 -8Q256 -8 209 11.5Q162 31 127.5 65.5Q93 100 73 146.5Q53 193 53 246Q53 300 73 346.5Q93 393 127 427.5Q161 462 207.5 481.5Q254 501 306 501Q369 501 417 475Q465 449 494 406Q445 514 312 630L199 564H150ZM310 26Q355 26 395 43.5Q435 61 464.5 91Q494 121 511 161Q528 201 528 246Q528 291 511 331.5Q494 372 464.5 402Q435 432 395.5 449.5Q356 467 310 467Q264 467 224 449.5Q184 432 154 402Q124 372 107 332Q90 292 90 246Q90 201 107 161Q124 121 154 91Q184 61 224 43.5Q264 26 310 26Z" glyph-name="eth" horiz-adv-x="619" unicode="&#240;" /><glyph d="M26 314H89V596H257Q323 596 379 573Q435 550 476 510Q517 470 540.5 415.5Q564 361 564 298Q564 235 540 180.5Q516 126 475 86Q434 46 378 23Q322 0 258 0H89V281H26ZM126 281V34H255Q313 34 362.5 54.5Q412 75 448.5 110.5Q485 146 505.5 194Q526 242 526 298Q526 354 505.5 402.5Q485 451 449 486.5Q413 522 363 542Q313 562 254 562H126V314H288V281Z" glyph-name="eth.smcp" horiz-adv-x="616" unicode="&#58156;" /><glyph d="M105 205V730H143V205ZM105 137H143V0H105Z" glyph-name="exclam" horiz-adv-x="245" unicode="!" /><glyph d="M105 295H143V-230H105ZM105 500H143V363H105Z" glyph-name="exclamdown" horiz-adv-x="245" unicode="&#161;" /><glyph d="M105 525H143V0H105ZM105 730H143V593H105Z" glyph-name="exclamdown.cap" horiz-adv-x="245" unicode="&#58433;" /><glyph d="M34 500H119V557Q119 609 127 642.5Q135 676 154.5 695.5Q174 715 206.5 722.5Q239 730 289 730H293V695Q251 695 224 690Q197 685 182 670.5Q167 656 161.5 628.5Q156 601 156 556V500H293V467H156V0H119V467H34Z" glyph-name="f" horiz-adv-x="334" unicode="f" /><glyph d="M75 596H412V562H111V315H412V281H111V0H75Z" glyph-name="f.smcp" horiz-adv-x="463" unicode="&#57862;" /><glyph d="M35 500H121V557Q121 609 129 642.5Q137 676 156.5 695.5Q176 715 208.5 722.5Q241 730 291 730H294V695Q252 695 225.5 690Q199 685 183.5 670.5Q168 656 162.5 628.5Q157 601 157 556V500H294V467H157V0H121V467H35ZM385 500H422V0H385ZM385 730H422V582H385Z" glyph-name="fi" horiz-adv-x="495" unicode="&#64257;" /><glyph d="M1182 -6Q1151 -6 1124 5.5Q1097 17 1077.5 36.5Q1058 56 1046.5 82.5Q1035 109 1035 140Q1035 167 1044 193Q1053 219 1068 239L1195 422H1235L1130 272Q1159 285 1188 285Q1217 285 1243 274Q1269 263 1288.5 243.5Q1308 224 1319 197.5Q1330 171 1330 140Q1330 109 1318.5 82.5Q1307 56 1287 36.5Q1267 17 1240 5.5Q1213 -6 1182 -6ZM1182 25Q1206 25 1226.5 34Q1247 43 1262.5 59Q1278 75 1287 95.5Q1296 116 1296 140Q1296 164 1287 185Q1278 206 1262.5 221.5Q1247 237 1226.5 246Q1206 255 1182 255Q1158 255 1137 246Q1116 237 1101 221.5Q1086 206 1077 185Q1068 164 1068 140Q1068 116 1077 95Q1086 74 1101 58.5Q1116 43 1137 34Q1158 25 1182 25ZM431 302Q380 302 344 323Q308 344 290 382L321 401Q352 334 431 334Q453 334 473 342Q493 350 508 364Q523 378 532 398.5Q541 419 541 443Q541 470 531.5 491Q522 512 506.5 525.5Q491 539 471 546Q451 553 430 553Q391 553 364.5 534Q338 515 323 483L291 497L323 730H547V699H350L328 535Q345 557 371 570.5Q397 584 432 584Q459 584 485 575.5Q511 567 531 549.5Q551 532 563 505.5Q575 479 575 443Q575 413 564.5 387Q554 361 534.5 342Q515 323 489 312.5Q463 302 431 302ZM950 730H994L467 0H423ZM41 340H126V665Q119 648 98.5 637Q78 626 56 626H49V661H52Q73 661 87.5 667.5Q102 674 110.5 684Q119 694 123 706.5Q127 719 127 730H160V340H242V308H41ZM797 32H881V355Q873 339 852.5 328.5Q832 318 811 318H805V353H808Q829 353 843 359.5Q857 366 865.5 376Q874 386 878 398.5Q882 411 882 422H915V32H997V0H797Z" glyph-name="fifteensixteenths" horiz-adv-x="1374" unicode="&#61986;" /><glyph d="M54 270H624V237H54Z" glyph-name="figuredash" horiz-adv-x="678" unicode="&#8210;" /><glyph d="M54 346H624V313H54Z" glyph-name="figuredash.cap" horiz-adv-x="678" unicode="&#58503;" /><glyph d="M285 -10Q213 -10 155 18.5Q97 47 62 98L96 120Q126 76 174 50Q222 24 285 24Q330 24 368 40.5Q406 57 434 85.5Q462 114 477.5 152.5Q493 191 493 236Q493 289 474.5 328.5Q456 368 426 393.5Q396 419 358 431.5Q320 444 281 444Q256 444 229.5 437Q203 430 179 418.5Q155 407 136.5 391Q118 375 107 357L71 368L128 730H482V695H158L114 412Q142 440 187.5 459Q233 478 281 478Q328 478 372.5 463.5Q417 449 452 419Q487 389 508.5 343.5Q530 298 530 236Q530 183 512.5 138Q495 93 462.5 60Q430 27 385 8.5Q340 -10 285 -10Z" glyph-name="five" horiz-adv-x="588" unicode="5" /><glyph d="M314 -10Q230 -10 167 25Q104 60 71 128L106 148Q135 88 187.5 56Q240 24 314 24Q357 24 395.5 39Q434 54 462.5 82Q491 110 508 148.5Q525 187 525 235Q525 289 506.5 328Q488 367 458 393Q428 419 390 431.5Q352 444 313 444Q238 444 187 407.5Q136 371 107 311L70 322L126 730H510V695H157L113 375Q144 421 194 449.5Q244 478 313 478Q360 478 405 463.5Q450 449 485 419Q520 389 541.5 343.5Q563 298 563 235Q563 182 544.5 137Q526 92 493 59.5Q460 27 414 8.5Q368 -10 314 -10Z" glyph-name="five.LP" horiz-adv-x="621" unicode="&#58682;" /><glyph d="M285 -10Q213 -10 155 18.5Q97 47 62 98L96 120Q126 76 174 50Q222 24 285 24Q330 24 368 40.5Q406 57 434 85.5Q462 114 477.5 152.5Q493 191 493 236Q493 289 474.5 328.5Q456 368 426 393.5Q396 419 358 431.5Q320 444 281 444Q256 444 229.5 437Q203 430 179 418.5Q155 407 136.5 391Q118 375 107 357L71 368L128 730H482V695H158L114 412Q142 440 187.5 459Q233 478 281 478Q328 478 372.5 463.5Q417 449 452 419Q487 389 508.5 343.5Q530 298 530 236Q530 183 512.5 138Q495 93 462.5 60Q430 27 385 8.5Q340 -10 285 -10Z" glyph-name="five.LT" horiz-adv-x="588" unicode="&#58693;" /><glyph d="M184 -6Q133 -6 97 15Q61 36 43 74L74 93Q105 26 184 26Q206 26 226 34Q246 42 261 56Q276 70 285 90.5Q294 111 294 135Q294 162 284.5 183Q275 204 259.5 217.5Q244 231 224 238Q204 245 183 245Q144 245 117.5 226Q91 207 76 175L44 189L76 422H300V391H103L81 227Q98 249 124 262.5Q150 276 185 276Q212 276 238 267.5Q264 259 284 241.5Q304 224 316 197.5Q328 171 328 135Q328 105 317.5 79Q307 53 287.5 34Q268 15 242 4.5Q216 -6 184 -6Z" glyph-name="five.inf" horiz-adv-x="364" unicode="&#58742;" /><glyph d="M549 32H634V357Q627 340 606.5 329Q586 318 564 318H557V353H560Q581 353 595.5 359.5Q610 366 618.5 376Q627 386 631 398.5Q635 411 635 422H668V32H750V0H549ZM184 302Q133 302 97 323Q61 344 43 382L74 401Q105 334 184 334Q206 334 226 342Q246 350 261 364Q276 378 285 398.5Q294 419 294 443Q294 470 284.5 491Q275 512 259.5 525.5Q244 539 224 546Q204 553 183 553Q144 553 117.5 534Q91 515 76 483L44 497L76 730H300V699H103L81 535Q98 557 124 570.5Q150 584 185 584Q212 584 238 575.5Q264 567 284 549.5Q304 532 316 505.5Q328 479 328 443Q328 413 317.5 387Q307 361 287.5 342Q268 323 242 312.5Q216 302 184 302ZM702 730H746L219 0H175ZM934 -6Q903 -6 876 5.5Q849 17 829.5 36.5Q810 56 798.5 82.5Q787 109 787 140Q787 167 796 193Q805 219 820 239L947 422H987L882 272Q911 285 940 285Q969 285 995 274Q1021 263 1040.5 243.5Q1060 224 1071 197.5Q1082 171 1082 140Q1082 109 1070.5 82.5Q1059 56 1039 36.5Q1019 17 992 5.5Q965 -6 934 -6ZM934 25Q958 25 978.5 34Q999 43 1014.5 59Q1030 75 1039 95.5Q1048 116 1048 140Q1048 164 1039 185Q1030 206 1014.5 221.5Q999 237 978.5 246Q958 255 934 255Q910 255 889 246Q868 237 853 221.5Q838 206 829 185Q820 164 820 140Q820 116 829 95Q838 74 853 58.5Q868 43 889 34Q910 25 934 25Z" glyph-name="fivesixteenths" horiz-adv-x="1127" unicode="&#61975;" /><glyph d="M35 500H121V557Q121 609 129 642.5Q137 676 156.5 695.5Q176 715 208.5 722.5Q241 730 291 730H294V695Q252 695 225.5 690Q199 685 183.5 670.5Q168 656 162.5 628.5Q157 601 157 556V500H294V467H157V0H121V467H35ZM385 730H422V0H385Z" glyph-name="fl" horiz-adv-x="497" unicode="&#64258;" /><glyph d="M701 729 392 0H299L574 652H261L328 538L213 422H402L369 348H25L225 537L110 729Z" glyph-name="florin" horiz-adv-x="749" unicode="&#402;" /><glyph d="M126 398H278L319 553Q332 604 347 638Q362 672 382 692.5Q402 713 429.5 721.5Q457 730 494 730H497V696Q466 696 444 690Q422 684 406.5 667.5Q391 651 379.5 623Q368 595 356 550L317 398H466V364H308L260 177Q247 127 233.5 93Q220 59 199 38.5Q178 18 147.5 9Q117 0 70 0H66V34Q106 34 131 40.5Q156 47 172.5 63.5Q189 80 199.5 108.5Q210 137 222 181L269 364H126Z" glyph-name="florin.LP" horiz-adv-x="564" unicode="&#58661;" /><glyph d="M131 398H291L335 553Q349 604 365.5 638Q382 672 403.5 692.5Q425 713 453 721.5Q481 730 518 730H522V696Q490 696 467.5 689.5Q445 683 427.5 666.5Q410 650 397 621.5Q384 593 372 548L330 398H485V364H321L269 177Q255 127 239.5 93Q224 59 202 38.5Q180 18 148.5 9Q117 0 70 0H66V34Q106 34 132 41Q158 48 175.5 65Q193 82 205.5 110.5Q218 139 231 183L282 364H131Z" glyph-name="florin.LT" horiz-adv-x="588" unicode="&#62568;" /><glyph d="M399 188H56L52 223L399 730H436V222H543V188H436V0H399ZM399 222V668L94 222Z" glyph-name="four" horiz-adv-x="588" unicode="4" /><glyph d="M420 168H55L51 203L420 730H457V202H564V168H457V0H420ZM420 202V669L92 202Z" glyph-name="four.LP" horiz-adv-x="615" unicode="&#58681;" /><glyph d="M399 188H56L52 223L399 730H436V222H543V188H436V0H399ZM399 222V668L94 222Z" glyph-name="four.LT" horiz-adv-x="588" unicode="&#58692;" /><glyph d="M242 97H36V128L241 422H275V128H337V97H275V0H242ZM242 128V369L73 128Z" glyph-name="four.inf" horiz-adv-x="372" unicode="&#58741;" /><glyph d="M556 730H600L73 0H29Z" glyph-name="fraction" horiz-adv-x="629" unicode="&#8260;" /><glyph d="M71 730H484V695H108V452H484V418H108V302H484V268H108V0H71Z" glyph-name="franc" horiz-adv-x="552" unicode="&#8355;" /><glyph d="M310 -10Q256 -10 208.5 10.5Q161 31 126 66Q91 101 71 148.5Q51 196 51 250Q51 304 71 351.5Q91 399 126 434Q161 469 208 489.5Q255 510 310 510Q345 510 378.5 500.5Q412 491 441 472.5Q470 454 493.5 427.5Q517 401 531 367V500H567V10Q567 -48 549 -94.5Q531 -141 498 -173.5Q465 -206 419.5 -223.5Q374 -241 319 -241Q227 -241 170 -204.5Q113 -168 87 -104L122 -91Q145 -146 193 -177Q241 -208 319 -208Q367 -208 406 -193Q445 -178 472.5 -149.5Q500 -121 515.5 -80.5Q531 -40 531 10V133Q517 99 493.5 72.5Q470 46 441 27.5Q412 9 378.5 -0.5Q345 -10 310 -10ZM311 24Q358 24 399 41.5Q440 59 470 90Q500 121 517 162Q534 203 534 250Q534 297 517 338Q500 379 470 410Q440 441 399 458.5Q358 476 311 476Q265 476 224.5 458.5Q184 441 154 410Q124 379 106.5 338Q89 297 89 250Q89 203 106.5 162Q124 121 154 90Q184 59 224.5 41.5Q265 24 311 24Z" glyph-name="g" horiz-adv-x="642" unicode="g" /><glyph d="M278 -266Q213 -266 168.5 -256.5Q124 -247 97 -230.5Q70 -214 58 -191Q46 -168 46 -140Q46 -100 70.5 -75Q95 -50 130 -37Q50 -22 50 45Q50 83 81.5 107Q113 131 166 136Q118 159 90.5 205Q63 251 63 310Q63 352 78.5 388.5Q94 425 121 452Q148 479 184.5 494.5Q221 510 262 510Q325 510 373.5 475.5Q422 441 443 386Q448 446 473 471.5Q498 497 546 497H557V460H546Q526 460 510 454.5Q494 449 483 433Q472 417 466.5 387.5Q461 358 461 310Q461 268 446 231.5Q431 195 404.5 168Q378 141 342 125.5Q306 110 264 110H203Q140 110 112.5 91Q85 72 85 46Q85 15 111 1Q137 -13 198 -13H336Q424 -13 473.5 -42.5Q523 -72 523 -130Q523 -187 462 -226.5Q401 -266 278 -266ZM261 142Q296 142 326 155Q356 168 379 190.5Q402 213 415 243.5Q428 274 428 310Q428 345 415 375.5Q402 406 379 429Q356 452 326 465Q296 478 261 478Q228 478 198 465Q168 452 145.5 429Q123 406 110 375.5Q97 345 97 310Q97 276 110 245Q123 214 145.5 191.5Q168 169 198 155.5Q228 142 261 142ZM209 -45Q156 -47 118.5 -71Q81 -95 81 -139Q81 -160 90.5 -177.5Q100 -195 122.5 -207.5Q145 -220 181.5 -227Q218 -234 271 -234H286Q389 -234 439 -204.5Q489 -175 489 -131Q489 -86 450 -65.5Q411 -45 336 -45Z" glyph-name="g.alt" horiz-adv-x="580" unicode="&#58566;" /><glyph d="M360 -9Q294 -9 237.5 15.5Q181 40 140 82Q99 124 75.5 179.5Q52 235 52 298Q52 361 76 417Q100 473 141 515Q182 557 238.5 581Q295 605 359 605Q446 605 515 565Q584 525 624 459L592 440Q557 500 497 535Q437 570 359 570Q302 570 253 548.5Q204 527 168 490Q132 453 111 403.5Q90 354 90 298Q90 243 110 193.5Q130 144 166 106.5Q202 69 251.5 47Q301 25 360 25Q418 25 465 44.5Q512 64 546 98Q580 132 600 177Q620 222 624 273H354V308H661V297Q661 236 639.5 180.5Q618 125 579 83Q540 41 484.5 16Q429 -9 360 -9Z" glyph-name="g.smcp" horiz-adv-x="710" unicode="&#57863;" /><glyph d="M310 -10Q256 -10 208.5 10.5Q161 31 126 66Q91 101 71 148.5Q51 196 51 250Q51 304 71 351.5Q91 399 126 434Q161 469 208 489.5Q255 510 310 510Q345 510 378.5 500.5Q412 491 441 472.5Q470 454 493.5 427.5Q517 401 531 367V500H567V10Q567 -48 549 -94.5Q531 -141 498 -173.5Q465 -206 419.5 -223.5Q374 -241 319 -241Q227 -241 170 -204.5Q113 -168 87 -104L122 -91Q145 -146 193 -177Q241 -208 319 -208Q367 -208 406 -193Q445 -178 472.5 -149.5Q500 -121 515.5 -80.5Q531 -40 531 10V133Q517 99 493.5 72.5Q470 46 441 27.5Q412 9 378.5 -0.5Q345 -10 310 -10ZM311 24Q358 24 399 41.5Q440 59 470 90Q500 121 517 162Q534 203 534 250Q534 297 517 338Q500 379 470 410Q440 441 399 458.5Q358 476 311 476Q265 476 224.5 458.5Q184 441 154 410Q124 379 106.5 338Q89 297 89 250Q89 203 106.5 162Q124 121 154 90Q184 59 224.5 41.5Q265 24 311 24ZM315 564Q274 564 243.5 577Q213 590 193 611Q173 632 163 659.5Q153 687 153 715H186Q186 692 194 670Q202 648 218 631Q234 614 258 603.5Q282 593 315 593Q345 593 369 603.5Q393 614 409.5 631Q426 648 434.5 670Q443 692 443 715H476Q476 687 465 659.5Q454 632 433 611Q412 590 382.5 577Q353 564 315 564Z" glyph-name="gbreve" horiz-adv-x="642" unicode="&#287;" /><glyph d="M278 -266Q213 -266 168.5 -256.5Q124 -247 97 -230.5Q70 -214 58 -191Q46 -168 46 -140Q46 -100 70.5 -75Q95 -50 130 -37Q50 -22 50 45Q50 83 81.5 107Q113 131 166 136Q118 159 90.5 205Q63 251 63 310Q63 352 78.5 388.5Q94 425 121 452Q148 479 184.5 494.5Q221 510 262 510Q325 510 373.5 475.5Q422 441 443 386Q448 446 473 471.5Q498 497 546 497H557V460H546Q526 460 510 454.5Q494 449 483 433Q472 417 466.5 387.5Q461 358 461 310Q461 268 446 231.5Q431 195 404.5 168Q378 141 342 125.5Q306 110 264 110H203Q140 110 112.5 91Q85 72 85 46Q85 15 111 1Q137 -13 198 -13H336Q424 -13 473.5 -42.5Q523 -72 523 -130Q523 -187 462 -226.5Q401 -266 278 -266ZM261 142Q296 142 326 155Q356 168 379 190.5Q402 213 415 243.5Q428 274 428 310Q428 345 415 375.5Q402 406 379 429Q356 452 326 465Q296 478 261 478Q228 478 198 465Q168 452 145.5 429Q123 406 110 375.5Q97 345 97 310Q97 276 110 245Q123 214 145.5 191.5Q168 169 198 155.5Q228 142 261 142ZM209 -45Q156 -47 118.5 -71Q81 -95 81 -139Q81 -160 90.5 -177.5Q100 -195 122.5 -207.5Q145 -220 181.5 -227Q218 -234 271 -234H286Q389 -234 439 -204.5Q489 -175 489 -131Q489 -86 450 -65.5Q411 -45 336 -45ZM264 564Q223 564 192.5 577Q162 590 142 611Q122 632 112 659.5Q102 687 102 715H135Q135 692 143 670Q151 648 167 631Q183 614 207 603.5Q231 593 264 593Q294 593 318 603.5Q342 614 358.5 631Q375 648 383.5 670Q392 692 392 715H425Q425 687 414 659.5Q403 632 382 611Q361 590 331.5 577Q302 564 264 564Z" glyph-name="gbreve.alt" horiz-adv-x="580" unicode="&#59664;" /><glyph d="M360 -9Q294 -9 237.5 15.5Q181 40 140 82Q99 124 75.5 179.5Q52 235 52 298Q52 361 76 417Q100 473 141 515Q182 557 238.5 581Q295 605 359 605Q446 605 515 565Q584 525 624 459L592 440Q557 500 497 535Q437 570 359 570Q302 570 253 548.5Q204 527 168 490Q132 453 111 403.5Q90 354 90 298Q90 243 110 193.5Q130 144 166 106.5Q202 69 251.5 47Q301 25 360 25Q418 25 465 44.5Q512 64 546 98Q580 132 600 177Q620 222 624 273H354V308H661V297Q661 236 639.5 180.5Q618 125 579 83Q540 41 484.5 16Q429 -9 360 -9ZM361 668Q320 668 289.5 681Q259 694 239 715Q219 736 209 763.5Q199 791 199 819H232Q232 796 240 774Q248 752 264 735Q280 718 304 707.5Q328 697 361 697Q391 697 415 707.5Q439 718 455.5 735Q472 752 480.5 774Q489 796 489 819H522Q522 791 511 763.5Q500 736 479 715Q458 694 428.5 681Q399 668 361 668Z" glyph-name="gbreve.smcp" horiz-adv-x="710" unicode="&#57934;" /><glyph d="M298 720H330L449 573H409L314 690L220 573H179ZM310 -10Q256 -10 208.5 10.5Q161 31 126 66Q91 101 71 148.5Q51 196 51 250Q51 304 71 351.5Q91 399 126 434Q161 469 208 489.5Q255 510 310 510Q345 510 378.5 500.5Q412 491 441 472.5Q470 454 493.5 427.5Q517 401 531 367V500H567V10Q567 -48 549 -94.5Q531 -141 498 -173.5Q465 -206 419.5 -223.5Q374 -241 319 -241Q227 -241 170 -204.5Q113 -168 87 -104L122 -91Q145 -146 193 -177Q241 -208 319 -208Q367 -208 406 -193Q445 -178 472.5 -149.5Q500 -121 515.5 -80.5Q531 -40 531 10V133Q517 99 493.5 72.5Q470 46 441 27.5Q412 9 378.5 -0.5Q345 -10 310 -10ZM311 24Q358 24 399 41.5Q440 59 470 90Q500 121 517 162Q534 203 534 250Q534 297 517 338Q500 379 470 410Q440 441 399 458.5Q358 476 311 476Q265 476 224.5 458.5Q184 441 154 410Q124 379 106.5 338Q89 297 89 250Q89 203 106.5 162Q124 121 154 90Q184 59 224.5 41.5Q265 24 311 24Z" glyph-name="gcircumflex" horiz-adv-x="642" unicode="&#285;" /><glyph d="M278 -266Q213 -266 168.5 -256.5Q124 -247 97 -230.5Q70 -214 58 -191Q46 -168 46 -140Q46 -100 70.5 -75Q95 -50 130 -37Q50 -22 50 45Q50 83 81.5 107Q113 131 166 136Q118 159 90.5 205Q63 251 63 310Q63 352 78.5 388.5Q94 425 121 452Q148 479 184.5 494.5Q221 510 262 510Q325 510 373.5 475.5Q422 441 443 386Q448 446 473 471.5Q498 497 546 497H557V460H546Q526 460 510 454.5Q494 449 483 433Q472 417 466.5 387.5Q461 358 461 310Q461 268 446 231.5Q431 195 404.5 168Q378 141 342 125.5Q306 110 264 110H203Q140 110 112.5 91Q85 72 85 46Q85 15 111 1Q137 -13 198 -13H336Q424 -13 473.5 -42.5Q523 -72 523 -130Q523 -187 462 -226.5Q401 -266 278 -266ZM261 142Q296 142 326 155Q356 168 379 190.5Q402 213 415 243.5Q428 274 428 310Q428 345 415 375.5Q402 406 379 429Q356 452 326 465Q296 478 261 478Q228 478 198 465Q168 452 145.5 429Q123 406 110 375.5Q97 345 97 310Q97 276 110 245Q123 214 145.5 191.5Q168 169 198 155.5Q228 142 261 142ZM209 -45Q156 -47 118.5 -71Q81 -95 81 -139Q81 -160 90.5 -177.5Q100 -195 122.5 -207.5Q145 -220 181.5 -227Q218 -234 271 -234H286Q389 -234 439 -204.5Q489 -175 489 -131Q489 -86 450 -65.5Q411 -45 336 -45ZM235 720H267L386 573H346L251 690L157 573H116Z" glyph-name="gcircumflex.alt" horiz-adv-x="580" unicode="&#59662;" /><glyph d="M360 -9Q294 -9 237.5 15.5Q181 40 140 82Q99 124 75.5 179.5Q52 235 52 298Q52 361 76 417Q100 473 141 515Q182 557 238.5 581Q295 605 359 605Q446 605 515 565Q584 525 624 459L592 440Q557 500 497 535Q437 570 359 570Q302 570 253 548.5Q204 527 168 490Q132 453 111 403.5Q90 354 90 298Q90 243 110 193.5Q130 144 166 106.5Q202 69 251.5 47Q301 25 360 25Q418 25 465 44.5Q512 64 546 98Q580 132 600 177Q620 222 624 273H354V308H661V297Q661 236 639.5 180.5Q618 125 579 83Q540 41 484.5 16Q429 -9 360 -9ZM344 815H376L495 668H455L360 785L266 668H225Z" glyph-name="gcircumflex.smcp" horiz-adv-x="710" unicode="&#57931;" /><glyph d="M289 550 336 754H373L317 550ZM310 -10Q256 -10 208.5 10.5Q161 31 126 66Q91 101 71 148.5Q51 196 51 250Q51 304 71 351.5Q91 399 126 434Q161 469 208 489.5Q255 510 310 510Q345 510 378.5 500.5Q412 491 441 472.5Q470 454 493.5 427.5Q517 401 531 367V500H567V10Q567 -48 549 -94.5Q531 -141 498 -173.5Q465 -206 419.5 -223.5Q374 -241 319 -241Q227 -241 170 -204.5Q113 -168 87 -104L122 -91Q145 -146 193 -177Q241 -208 319 -208Q367 -208 406 -193Q445 -178 472.5 -149.5Q500 -121 515.5 -80.5Q531 -40 531 10V133Q517 99 493.5 72.5Q470 46 441 27.5Q412 9 378.5 -0.5Q345 -10 310 -10ZM311 24Q358 24 399 41.5Q440 59 470 90Q500 121 517 162Q534 203 534 250Q534 297 517 338Q500 379 470 410Q440 441 399 458.5Q358 476 311 476Q265 476 224.5 458.5Q184 441 154 410Q124 379 106.5 338Q89 297 89 250Q89 203 106.5 162Q124 121 154 90Q184 59 224.5 41.5Q265 24 311 24Z" glyph-name="gcommaaccent" horiz-adv-x="642" unicode="&#291;" /><glyph d="M278 -266Q213 -266 168.5 -256.5Q124 -247 97 -230.5Q70 -214 58 -191Q46 -168 46 -140Q46 -100 70.5 -75Q95 -50 130 -37Q50 -22 50 45Q50 83 81.5 107Q113 131 166 136Q118 159 90.5 205Q63 251 63 310Q63 352 78.5 388.5Q94 425 121 452Q148 479 184.5 494.5Q221 510 262 510Q325 510 373.5 475.5Q422 441 443 386Q448 446 473 471.5Q498 497 546 497H557V460H546Q526 460 510 454.5Q494 449 483 433Q472 417 466.5 387.5Q461 358 461 310Q461 268 446 231.5Q431 195 404.5 168Q378 141 342 125.5Q306 110 264 110H203Q140 110 112.5 91Q85 72 85 46Q85 15 111 1Q137 -13 198 -13H336Q424 -13 473.5 -42.5Q523 -72 523 -130Q523 -187 462 -226.5Q401 -266 278 -266ZM261 142Q296 142 326 155Q356 168 379 190.5Q402 213 415 243.5Q428 274 428 310Q428 345 415 375.5Q402 406 379 429Q356 452 326 465Q296 478 261 478Q228 478 198 465Q168 452 145.5 429Q123 406 110 375.5Q97 345 97 310Q97 276 110 245Q123 214 145.5 191.5Q168 169 198 155.5Q228 142 261 142ZM209 -45Q156 -47 118.5 -71Q81 -95 81 -139Q81 -160 90.5 -177.5Q100 -195 122.5 -207.5Q145 -220 181.5 -227Q218 -234 271 -234H286Q389 -234 439 -204.5Q489 -175 489 -131Q489 -86 450 -65.5Q411 -45 336 -45ZM245 574 292 778H329L273 574Z" glyph-name="gcommaaccent.alt" horiz-adv-x="580" unicode="&#59665;" /><glyph d="M360 -9Q294 -9 237.5 15.5Q181 40 140 82Q99 124 75.5 179.5Q52 235 52 298Q52 361 76 417Q100 473 141 515Q182 557 238.5 581Q295 605 359 605Q446 605 515 565Q584 525 624 459L592 440Q557 500 497 535Q437 570 359 570Q302 570 253 548.5Q204 527 168 490Q132 453 111 403.5Q90 354 90 298Q90 243 110 193.5Q130 144 166 106.5Q202 69 251.5 47Q301 25 360 25Q418 25 465 44.5Q512 64 546 98Q580 132 600 177Q620 222 624 273H354V308H661V297Q661 236 639.5 180.5Q618 125 579 83Q540 41 484.5 16Q429 -9 360 -9ZM294 -281 341 -77H378L322 -281Z" glyph-name="gcommaaccent.smcp" horiz-adv-x="710" unicode="&#57920;" /><glyph d="M310 -10Q256 -10 208.5 10.5Q161 31 126 66Q91 101 71 148.5Q51 196 51 250Q51 304 71 351.5Q91 399 126 434Q161 469 208 489.5Q255 510 310 510Q345 510 378.5 500.5Q412 491 441 472.5Q470 454 493.5 427.5Q517 401 531 367V500H567V10Q567 -48 549 -94.5Q531 -141 498 -173.5Q465 -206 419.5 -223.5Q374 -241 319 -241Q227 -241 170 -204.5Q113 -168 87 -104L122 -91Q145 -146 193 -177Q241 -208 319 -208Q367 -208 406 -193Q445 -178 472.5 -149.5Q500 -121 515.5 -80.5Q531 -40 531 10V133Q517 99 493.5 72.5Q470 46 441 27.5Q412 9 378.5 -0.5Q345 -10 310 -10ZM311 24Q358 24 399 41.5Q440 59 470 90Q500 121 517 162Q534 203 534 250Q534 297 517 338Q500 379 470 410Q440 441 399 458.5Q358 476 311 476Q265 476 224.5 458.5Q184 441 154 410Q124 379 106.5 338Q89 297 89 250Q89 203 106.5 162Q124 121 154 90Q184 59 224.5 41.5Q265 24 311 24ZM283 715H320V575H283Z" glyph-name="gdotaccent" horiz-adv-x="642" unicode="&#289;" /><glyph d="M278 -266Q213 -266 168.5 -256.5Q124 -247 97 -230.5Q70 -214 58 -191Q46 -168 46 -140Q46 -100 70.5 -75Q95 -50 130 -37Q50 -22 50 45Q50 83 81.5 107Q113 131 166 136Q118 159 90.5 205Q63 251 63 310Q63 352 78.5 388.5Q94 425 121 452Q148 479 184.5 494.5Q221 510 262 510Q325 510 373.5 475.5Q422 441 443 386Q448 446 473 471.5Q498 497 546 497H557V460H546Q526 460 510 454.5Q494 449 483 433Q472 417 466.5 387.5Q461 358 461 310Q461 268 446 231.5Q431 195 404.5 168Q378 141 342 125.5Q306 110 264 110H203Q140 110 112.5 91Q85 72 85 46Q85 15 111 1Q137 -13 198 -13H336Q424 -13 473.5 -42.5Q523 -72 523 -130Q523 -187 462 -226.5Q401 -266 278 -266ZM261 142Q296 142 326 155Q356 168 379 190.5Q402 213 415 243.5Q428 274 428 310Q428 345 415 375.5Q402 406 379 429Q356 452 326 465Q296 478 261 478Q228 478 198 465Q168 452 145.5 429Q123 406 110 375.5Q97 345 97 310Q97 276 110 245Q123 214 145.5 191.5Q168 169 198 155.5Q228 142 261 142ZM209 -45Q156 -47 118.5 -71Q81 -95 81 -139Q81 -160 90.5 -177.5Q100 -195 122.5 -207.5Q145 -220 181.5 -227Q218 -234 271 -234H286Q389 -234 439 -204.5Q489 -175 489 -131Q489 -86 450 -65.5Q411 -45 336 -45ZM245 715H282V575H245Z" glyph-name="gdotaccent.alt" horiz-adv-x="580" unicode="&#59663;" /><glyph d="M360 -9Q294 -9 237.5 15.5Q181 40 140 82Q99 124 75.5 179.5Q52 235 52 298Q52 361 76 417Q100 473 141 515Q182 557 238.5 581Q295 605 359 605Q446 605 515 565Q584 525 624 459L592 440Q557 500 497 535Q437 570 359 570Q302 570 253 548.5Q204 527 168 490Q132 453 111 403.5Q90 354 90 298Q90 243 110 193.5Q130 144 166 106.5Q202 69 251.5 47Q301 25 360 25Q418 25 465 44.5Q512 64 546 98Q580 132 600 177Q620 222 624 273H354V308H661V297Q661 236 639.5 180.5Q618 125 579 83Q540 41 484.5 16Q429 -9 360 -9ZM344 811H381V671H344Z" glyph-name="gdotaccent.smcp" horiz-adv-x="710" unicode="&#57935;" /><glyph d="M-53 -195Q19 -195 47 -158Q75 -121 75 -51V550Q75 591 89 626Q103 661 128 686Q153 711 187.5 725Q222 739 263 739Q304 739 339 724.5Q374 710 399 685.5Q424 661 438 627Q452 593 452 554Q452 495 422 452Q392 409 344 389Q414 371 455 321Q496 271 496 199Q496 155 481 117Q466 79 439 51.5Q412 24 375 8.5Q338 -7 293 -7Q260 -7 233.5 0Q207 7 186 19L192 53Q213 40 237.5 33.5Q262 27 293 27Q328 27 358 40.5Q388 54 410.5 77.5Q433 101 446 132Q459 163 459 198Q459 233 445.5 264Q432 295 408 318Q384 341 350 354.5Q316 368 275 368H259V402H275Q301 402 326.5 413.5Q352 425 371.5 445Q391 465 403 493Q415 521 415 555Q415 585 403.5 612.5Q392 640 371.5 661Q351 682 323.5 694.5Q296 707 263 707Q232 707 204.5 696Q177 685 156 664.5Q135 644 122.5 616Q110 588 110 554V-49Q110 -140 73.5 -185Q37 -230 -46 -230H-53Z" glyph-name="germandbls" horiz-adv-x="548" unicode="&#223;" /><glyph d="M161 720H211L334 573H296Z" glyph-name="grave" horiz-adv-x="507" unicode="`" /><glyph d="M54 238 383 367 54 492V528L424 384V351L54 203Z" glyph-name="greater" horiz-adv-x="478" unicode="&gt;" /><glyph d="M54 311 382 440 54 566V601L424 457V424L54 276ZM54 223H424V190H54Z" glyph-name="greaterequal" horiz-adv-x="478" unicode="&#8805;" /><glyph d="M220 237V262L368 380V347L245 249L368 151V119ZM70 237V262L217 380V347L95 249L217 151V119Z" glyph-name="guillemotleft" horiz-adv-x="437" unicode="&#171;" /><glyph d="M220 349V374L368 492V459L245 361L368 263V231ZM70 349V374L217 492V459L95 361L217 263V231Z" glyph-name="guillemotleft.cap" horiz-adv-x="437" unicode="&#58451;" /><glyph d="M220 151 342 249 220 348V381L368 263V237L220 119ZM70 151 191 249 70 348V381L217 263V237L70 119Z" glyph-name="guillemotright" horiz-adv-x="437" unicode="&#187;" /><glyph d="M220 263 342 361 220 459V492L368 374V349L220 231ZM70 263 191 361 70 459V492L217 374V349L70 231Z" glyph-name="guillemotright.cap" horiz-adv-x="437" unicode="&#58452;" /><glyph d="M71 236V263L216 382V347L97 249L216 151V117Z" glyph-name="guilsinglleft" horiz-adv-x="287" unicode="&#8249;" /><glyph d="M71 348V375L216 494V459L97 361L216 263V229Z" glyph-name="guilsinglleft.cap" horiz-adv-x="287" unicode="&#58449;" /><glyph d="M71 151 190 249 71 348V382L216 263V237L71 118Z" glyph-name="guilsinglright" horiz-adv-x="287" unicode="&#8250;" /><glyph d="M71 263 191 361 71 459V494L216 375V348L71 229Z" glyph-name="guilsinglright.cap" horiz-adv-x="287" unicode="&#58450;" /><glyph d="M77 730H112V385Q135 439 188.5 474.5Q242 510 313 510Q363 510 404.5 494.5Q446 479 475.5 449.5Q505 420 521.5 377.5Q538 335 538 281V0H502V282Q502 371 450.5 424Q399 477 310 477Q269 477 233 462Q197 447 170.5 421Q144 395 128.5 359.5Q113 324 113 282V0H77Z" glyph-name="h" horiz-adv-x="610" unicode="h" /><glyph d="M476 281H111V0H75V596H111V315H476V596H512V0H476Z" glyph-name="h.smcp" horiz-adv-x="587" unicode="&#57864;" /><glyph d="M11 631H83V730H118V631H255V598H118V385Q141 439 194.5 474.5Q248 510 319 510Q369 510 410.5 494.5Q452 479 481.5 449.5Q511 420 527.5 377.5Q544 335 544 281V0H508V282Q508 371 456.5 424Q405 477 316 477Q275 477 239 462Q203 447 176.5 421Q150 395 134.5 359.5Q119 324 119 282V0H83V598H11Z" glyph-name="hbar" horiz-adv-x="616" unicode="&#295;" /><glyph d="M490 281H125V0H89V457H25V490H89V596H125V490H490V596H526V490H590V457H526V0H490ZM125 315H490V457H125Z" glyph-name="hbar.smcp" horiz-adv-x="615" unicode="&#57943;" /><glyph d="M78 933H110L229 786H189L94 903L0 786H-41ZM77 730H112V385Q135 439 188.5 474.5Q242 510 313 510Q363 510 404.5 494.5Q446 479 475.5 449.5Q505 420 521.5 377.5Q538 335 538 281V0H502V282Q502 371 450.5 424Q399 477 310 477Q269 477 233 462Q197 447 170.5 421Q144 395 128.5 359.5Q113 324 113 282V0H77Z" glyph-name="hcircumflex" horiz-adv-x="610" unicode="&#293;" /><glyph d="M277 815H309L428 668H388L293 785L199 668H158ZM476 281H111V0H75V596H111V315H476V596H512V0H476Z" glyph-name="hcircumflex.smcp" horiz-adv-x="587" unicode="&#57939;" /><glyph d="M89 550Q89 589 103 623.5Q117 658 142 684Q167 710 200 725Q233 740 272 740Q310 740 342.5 727.5Q375 715 399 693.5Q423 672 438 642.5Q453 613 457 579Q462 613 476.5 642.5Q491 672 515 693.5Q539 715 571 727.5Q603 740 642 740Q681 740 715 725Q749 710 775 684Q801 658 816 623.5Q831 589 831 550Q831 507 818 463.5Q805 420 777 371.5Q749 323 705 266Q661 209 599 140L457 -17L316 140Q254 209 210.5 266Q167 323 140 371.5Q113 420 101 463.5Q89 507 89 550Z" glyph-name="heart" horiz-adv-x="920" unicode="&#9829;" /><glyph d="M100 0V427L437 750L774 427V0Z" glyph-name="house" horiz-adv-x="874" unicode="&#8962;" /><glyph d="M237 720H285L150 573H114ZM338 720H386L251 573H215Z" glyph-name="hungarumlaut" horiz-adv-x="507" unicode="&#733;" /><glyph d="M54 270H424V237H54Z" glyph-name="hyphen" horiz-adv-x="478" unicode="-" /><glyph d="M54 346H424V313H54Z" glyph-name="hyphen.cap" horiz-adv-x="478" unicode="&#58498;" /><glyph d="M74 500H111V0H74ZM74 730H111V582H74Z" glyph-name="i" horiz-adv-x="185" unicode="i" /><glyph d="M80 596H117V0H80Z" glyph-name="i.smcp" horiz-adv-x="196" unicode="&#57865;" /><glyph d="M197 720H247L112 573H74ZM74 500H111V0H74Z" glyph-name="iacute" horiz-adv-x="185" unicode="&#237;" /><glyph d="M200 816H250L115 669H77ZM80 596H117V0H80Z" glyph-name="iacute.smcp" horiz-adv-x="196" unicode="&#57944;" /><glyph d="M74 500H111V0H74ZM94 564Q53 564 22.5 577Q-8 590 -28 611Q-48 632 -58 659.5Q-68 687 -68 715H-35Q-35 692 -27 670Q-19 648 -3 631Q13 614 37 603.5Q61 593 94 593Q124 593 148 603.5Q172 614 188.5 631Q205 648 213.5 670Q222 692 222 715H255Q255 687 244 659.5Q233 632 212 611Q191 590 161.5 577Q132 564 94 564Z" glyph-name="ibreve" horiz-adv-x="185" unicode="&#301;" /><glyph d="M80 596H117V0H80ZM99 665Q58 665 27.5 678Q-3 691 -23 712Q-43 733 -53 760.5Q-63 788 -63 816H-30Q-30 793 -22 771Q-14 749 2 732Q18 715 42 704.5Q66 694 99 694Q129 694 153 704.5Q177 715 193.5 732Q210 749 218.5 771Q227 793 227 816H260Q260 788 249 760.5Q238 733 217 712Q196 691 166.5 678Q137 665 99 665Z" glyph-name="ibreve.smcp" horiz-adv-x="196" unicode="&#57951;" /><glyph d="M76 720H108L227 573H187L92 690L-2 573H-43ZM74 500H111V0H74Z" glyph-name="icircumflex" horiz-adv-x="185" unicode="&#238;" /><glyph d="M82 806H114L233 659H193L98 776L4 659H-37ZM80 596H117V0H80Z" glyph-name="icircumflex.smcp" horiz-adv-x="196" unicode="&#57946;" /><glyph d="M168 715H203V575H168ZM-18 715H18V575H-18ZM74 500H111V0H74Z" glyph-name="idieresis" horiz-adv-x="185" unicode="&#239;" /><glyph d="M175 810H210V670H175ZM-13 810H23V670H-13ZM80 596H117V0H80Z" glyph-name="idieresis.smcp" horiz-adv-x="196" unicode="&#57947;" /><glyph d="M74 500H111V0H74ZM74 730H111V582H74Z" glyph-name="idotaccent" horiz-adv-x="185" unicode="&#59269;" /><glyph d="M80 596H117V0H80ZM80 807H116V667H80Z" glyph-name="idotaccent.smcp" horiz-adv-x="196" unicode="&#57954;" /><glyph d="M74 500H111V0H74ZM-58 720H-8L115 573H77Z" glyph-name="igrave" horiz-adv-x="185" unicode="&#236;" /><glyph d="M-56 816H-6L117 669H79ZM80 596H117V0H80Z" glyph-name="igrave.smcp" horiz-adv-x="196" unicode="&#57945;" /><glyph d="M74 -132H118Q159 -132 184 -126.5Q209 -121 222.5 -107Q236 -93 240 -69Q244 -45 244 -7V500H281V-8Q281 -54 274 -84.5Q267 -115 249.5 -133.5Q232 -152 201.5 -160Q171 -168 123 -168H74ZM74 500H111V0H74ZM74 730H111V582H74ZM244 730H281V582H244Z" glyph-name="ij" horiz-adv-x="355" unicode="&#307;" /><glyph d="M201 35H235Q293 35 322 70.5Q351 106 351 158V596H388V156Q388 84 350.5 42Q313 0 235 0H201ZM71 596H108V0H71Z" glyph-name="ij.smcp" horiz-adv-x="458" unicode="&#58151;" /><glyph d="M74 500H111V0H74ZM-39 605H225V573H-39Z" glyph-name="imacron" horiz-adv-x="185" unicode="&#299;" /><glyph d="M-34 701H230V669H-34ZM80 596H117V0H80Z" glyph-name="imacron.smcp" horiz-adv-x="196" unicode="&#57950;" /><glyph d="M269 249Q241 249 216 259.5Q191 270 172.5 288.5Q154 307 143.5 331.5Q133 356 133 384Q133 412 143.5 436.5Q154 461 172.5 479.5Q191 498 216 508.5Q241 519 269 519Q296 519 322.5 509Q349 499 375 483Q401 467 427 446.5Q453 426 478 405Q503 426 528.5 446.5Q554 467 580 483Q606 499 632.5 509Q659 519 686 519Q714 519 738.5 508.5Q763 498 781 479.5Q799 461 809.5 436.5Q820 412 820 384Q820 356 809.5 331.5Q799 307 781 288.5Q763 270 738.5 259.5Q714 249 686 249Q658 249 631 258Q604 267 578 282.5Q552 298 527 317.5Q502 337 478 358Q453 337 428 317.5Q403 298 376.5 282.5Q350 267 323.5 258Q297 249 269 249ZM269 283Q316 283 361.5 312.5Q407 342 452 381Q429 401 406 419.5Q383 438 360 452.5Q337 467 314.5 475.5Q292 484 269 484Q249 484 230.5 475.5Q212 467 198.5 453Q185 439 177 421Q169 403 169 383Q169 363 177 345Q185 327 198.5 313Q212 299 230.5 291Q249 283 269 283ZM685 285Q705 285 723.5 293Q742 301 755.5 315Q769 329 776.5 347Q784 365 784 385Q784 405 776 423Q768 441 754.5 455Q741 469 723 477Q705 485 685 485Q663 485 640.5 476.5Q618 468 595.5 453.5Q573 439 550 420.5Q527 402 504 382Q549 343 594 314Q639 285 685 285Z" glyph-name="infinity" horiz-adv-x="940" unicode="&#8734;" /><glyph d="M-12 -181Q31 -181 58 -176Q85 -171 100 -156.5Q115 -142 120.5 -114.5Q126 -87 126 -42V557Q126 609 134 642.5Q142 676 161.5 695.5Q181 715 213.5 722.5Q246 730 296 730H300V695Q258 695 231 690Q204 685 189 670.5Q174 656 168.5 628.5Q163 601 163 556V-43Q163 -95 155 -128.5Q147 -162 127.5 -181.5Q108 -201 75 -208.5Q42 -216 -8 -216H-12Z" glyph-name="integral" horiz-adv-x="334" unicode="&#8747;" /><glyph d="M246 191Q246 221 245.5 271.5Q245 322 244.5 381.5Q244 441 244 502Q244 563 244 613V706Q187 701 150 674Q113 647 90 605L57 620Q83 671 135.5 705.5Q188 740 266 740Q310 740 347 727.5Q384 715 411.5 692.5Q439 670 454.5 639Q470 608 470 570Q470 524 456 495Q442 466 420.5 445Q399 424 374.5 406Q350 388 328.5 362Q307 336 293 298Q279 260 279 199V191ZM432 570Q432 598 420.5 622Q409 646 389 664Q369 682 341 693Q313 704 281 706V613Q281 551 279.5 477Q278 403 276 337Q294 378 321 402Q348 426 372.5 448Q397 470 414.5 496.5Q432 523 432 570ZM243 137H281V0H243Z" glyph-name="interrobang" horiz-adv-x="532" unicode="&#8253;" /><glyph d="M262 -240Q219 -240 181.5 -227.5Q144 -215 117 -192.5Q90 -170 74.5 -139Q59 -108 59 -70Q59 -24 73 5Q87 34 108.5 55Q130 76 154.5 94Q179 112 200.5 138Q222 164 236 202Q250 240 250 301V309H282Q282 279 282.5 228.5Q283 178 283.5 118.5Q284 59 284.5 -2Q285 -63 285 -113V-206Q342 -201 379 -174Q416 -147 438 -105L471 -120Q445 -171 392.5 -205.5Q340 -240 262 -240ZM96 -70Q96 -98 107.5 -122Q119 -146 139.5 -164Q160 -182 187.5 -193Q215 -204 248 -206V-113Q248 -50 249 23.5Q250 97 252 164Q234 122 207 98Q180 74 155.5 52Q131 30 113.5 3.5Q96 -23 96 -70ZM285 363H247V500H285Z" glyph-name="interrobangdown" horiz-adv-x="532" unicode="&#59701;" /><glyph d="M262 -10Q219 -10 181.5 2.5Q144 15 117 37.5Q90 60 74.5 91Q59 122 59 160Q59 207 73 235.5Q87 264 108.5 285Q130 306 154.5 324Q179 342 200.5 368Q222 394 236 432Q250 470 250 531V539H282Q282 509 282.5 458.5Q283 408 283.5 348.5Q284 289 284.5 228Q285 167 285 117V23Q342 28 379 55Q416 82 438 125L471 110Q445 59 392.5 24.5Q340 -10 262 -10ZM96 160Q96 132 107.5 107.5Q119 83 139.5 65Q160 47 187.5 36Q215 25 248 23V117Q248 179 249 253Q250 327 252 394Q234 352 207 328Q180 304 155.5 282Q131 260 113.5 233.5Q96 207 96 160ZM285 593H247V730H285Z" glyph-name="interrobangdown.cap" horiz-adv-x="532" unicode="&#59803;" /><glyph d="M91 572Q91 601 101 628Q111 655 131 676Q151 697 181.5 710Q212 723 253 723Q291 723 320.5 710Q350 697 371 676Q392 655 403 628Q414 601 414 572H381Q381 595 372.5 616.5Q364 638 347.5 655Q331 672 307 682.5Q283 693 253 693Q220 693 196 682.5Q172 672 156 655Q140 638 132 616.5Q124 595 124 572Z" glyph-name="invertedbreve" horiz-adv-x="507" unicode="&#58385;" /><glyph d="M95 -219Q44 -219 18 -191.5Q-8 -164 -8 -126Q-8 -91 15 -56.5Q38 -22 74 10V500H111V0H112Q72 -32 49 -64Q26 -96 26 -124Q26 -152 45 -169.5Q64 -187 95 -187Q122 -187 141.5 -176Q161 -165 178 -148L201 -173Q180 -191 154.5 -205Q129 -219 95 -219ZM74 730H111V582H74Z" glyph-name="iogonek" horiz-adv-x="185" unicode="&#303;" /><glyph d="M100 -220Q49 -220 23 -192.5Q-3 -165 -3 -127Q-3 -91 20.5 -57Q44 -23 80 10V596H117V0H115L117 -1Q77 -33 54 -65Q31 -97 31 -125Q31 -153 50 -170.5Q69 -188 100 -188Q127 -188 146.5 -177Q166 -166 183 -149L206 -174Q185 -192 159.5 -206Q134 -220 100 -220Z" glyph-name="iogonek.smcp" horiz-adv-x="196" unicode="&#63054;" /><glyph d="M74 500H111V0H74ZM-82 573Q-82 617 -57.5 643Q-33 669 6 669Q31 669 52.5 658.5Q74 648 95 635Q116 622 136.5 611.5Q157 601 178 601Q204 601 220.5 616.5Q237 632 237 666H269Q269 619 244.5 594Q220 569 177 569Q150 569 126.5 580Q103 591 82 604Q62 617 43.5 626.5Q25 636 6 636Q-18 636 -34.5 620.5Q-51 605 -51 573Z" glyph-name="itilde" horiz-adv-x="185" unicode="&#297;" /><glyph d="M80 596H117V0H80ZM-76 668Q-76 712 -51.5 738Q-27 764 12 764Q37 764 58.5 753.5Q80 743 101 730Q122 717 142.5 706.5Q163 696 184 696Q210 696 226.5 711.5Q243 727 243 761H275Q275 714 250.5 689Q226 664 183 664Q156 664 132.5 675Q109 686 88 699Q68 712 49.5 721.5Q31 731 12 731Q-12 731 -28.5 715.5Q-45 700 -45 668Z" glyph-name="itilde.smcp" horiz-adv-x="196" unicode="&#57948;" /><glyph d="M-63 -192Q-21 -192 5.5 -187.5Q32 -183 47.5 -168Q63 -153 69 -126Q75 -99 75 -54V500H112V-55Q112 -107 104 -140.5Q96 -174 76.5 -193.5Q57 -213 24 -220.5Q-9 -228 -58 -228H-63ZM75 730H112V582H75Z" glyph-name="j" horiz-adv-x="186" unicode="j" /><glyph d="M188 -9Q133 -9 93.5 14.5Q54 38 36 82L70 98Q87 63 115 44Q143 25 188 25Q243 25 274 61Q305 97 305 150V596H341V151Q341 116 330.5 86.5Q320 57 300 36Q280 15 252 3Q224 -9 188 -9Z" glyph-name="j.smcp" horiz-adv-x="414" unicode="&#57866;" /><glyph d="M77 720H109L228 573H188L93 690L-1 573H-42ZM-63 -192Q-21 -192 5.5 -187.5Q32 -183 47.5 -168Q63 -153 69 -126Q75 -99 75 -54V500H112V-55Q112 -107 104 -140.5Q96 -174 76.5 -193.5Q57 -213 24 -220.5Q-9 -228 -58 -228H-63Z" glyph-name="jcircumflex" horiz-adv-x="186" unicode="&#309;" /><glyph d="M301 808H333L452 661H412L317 778L223 661H182ZM188 -9Q133 -9 93.5 14.5Q54 38 36 82L70 98Q87 63 115 44Q143 25 188 25Q243 25 274 61Q305 97 305 150V596H341V151Q341 116 330.5 86.5Q320 57 300 36Q280 15 252 3Q224 -9 188 -9Z" glyph-name="jcircumflex.smcp" horiz-adv-x="414" unicode="&#63027;" /><glyph d="M113 0H77V730H113ZM415 500H471L185 257L481 0H427L135 257Z" glyph-name="k" horiz-adv-x="513" unicode="k" /><glyph d="M252 331 112 175V0H75V596H112V223L448 596H493L278 356L520 0H477Z" glyph-name="k.smcp" horiz-adv-x="558" unicode="&#57867;" /><glyph d="M198 -258 245 -54H282L226 -258ZM113 0H77V730H113ZM415 500H471L167 257L481 0H427L117 257Z" glyph-name="kcommaaccent" horiz-adv-x="513" unicode="&#311;" /><glyph d="M222 -268 269 -64H306L250 -268ZM252 331 112 175V0H75V596H112V223L448 596H493L278 356L520 0H477Z" glyph-name="kcommaaccent.smcp" horiz-adv-x="558" unicode="&#57960;" /><glyph d="M233 269 111 140V0H75V500H111V185L412 500H459L259 292L477 0H434Z" glyph-name="kgreenlandic" horiz-adv-x="511" unicode="&#312;" /><glyph d="M77 730H113V0H77Z" glyph-name="l" horiz-adv-x="190" unicode="l" /><glyph d="M75 596H111V35H406V0H75Z" glyph-name="l.smcp" horiz-adv-x="455" unicode="&#57868;" /><glyph d="M207 933H257L122 786H84ZM77 730H113V0H77Z" glyph-name="lacute" horiz-adv-x="190" unicode="&#314;" /><glyph d="M75 596H111V35H406V0H75ZM198 816H248L113 669H75Z" glyph-name="lacute.smcp" horiz-adv-x="455" unicode="&#57963;" /><glyph d="M233 730H270L204 568H175ZM76 730H112V0H76Z" glyph-name="lcaron" horiz-adv-x="213" unicode="&#318;" /><glyph d="M304 597H341L275 435H246ZM75 596H111V35H406V0H75Z" glyph-name="lcaron.smcp" horiz-adv-x="455" unicode="&#57964;" /><glyph d="M39 -258 86 -54H123L67 -258ZM77 730H113V0H77Z" glyph-name="lcommaaccent" horiz-adv-x="190" unicode="&#316;" /><glyph d="M178 -274 225 -70H262L206 -274ZM75 596H111V35H406V0H75Z" glyph-name="lcommaaccent.smcp" horiz-adv-x="455" unicode="&#57965;" /><glyph d="M77 730H113V0H77ZM228 352H265V212H228Z" glyph-name="ldot" horiz-adv-x="311" unicode="&#320;" /><glyph d="M75 596H111V35H406V0H75ZM368 370H405V230H368Z" glyph-name="ldot.smcp" horiz-adv-x="471" unicode="&#57969;" /><glyph d="M54 351V384L424 528V492L95 367L424 238V203Z" glyph-name="less" horiz-adv-x="478" unicode="&lt;" /><glyph d="M54 424V457L424 601V566L95 440L424 311V276ZM54 223H424V190H54Z" glyph-name="lessequal" horiz-adv-x="478" unicode="&#8804;" /><glyph d="M134 365H68V400H134V559Q134 599 146.5 632Q159 665 182 689Q205 713 238 726.5Q271 740 312 740Q380 740 423.5 709Q467 678 492 627L458 608Q435 655 401 680Q367 705 311 705Q245 705 208 664Q171 623 171 558V128Q171 52 128 36H529V0H63V36Q103 36 118.5 58Q134 80 134 125V240H68V275H134ZM224 275H434V240H224ZM224 400H434V365H224Z" glyph-name="lira" horiz-adv-x="588" unicode="&#8356;" /><glyph d="M521 459H39V495H558V200H521Z" glyph-name="logicalnot" horiz-adv-x="603" unicode="&#172;" /><glyph d="M54 -100H457V-133H54Z" glyph-name="lowline" horiz-adv-x="511" unicode="&#58641;" /><glyph d="M33 366 413 746 795 364 415 -16ZM415 34 747 365 413 697 81 366Z" glyph-name="lozenge" horiz-adv-x="843" unicode="&#9674;" /><glyph d="M11 339 114 390V730H151V409L254 461V430L151 378V0H114V359L11 308Z" glyph-name="lslash" horiz-adv-x="265" unicode="&#322;" /><glyph d="M22 300 87 325V596H123V338L305 408V376L123 307V35H418V0H87V293L22 269Z" glyph-name="lslash.smcp" horiz-adv-x="468" unicode="&#63225;" /><glyph d="M74 500H110V390Q133 443 182.5 476.5Q232 510 301 510Q379 510 430.5 473Q482 436 501 373Q511 403 530.5 428Q550 453 577 471Q604 489 637.5 499.5Q671 510 708 510Q759 510 800 494Q841 478 870.5 448.5Q900 419 915.5 378Q931 337 931 287V0H895V289Q895 330 882 364.5Q869 399 844.5 423.5Q820 448 785 462Q750 476 707 476Q667 476 632.5 463Q598 450 572.5 426Q547 402 532 368Q517 334 517 292V0H481V298Q481 379 432.5 427.5Q384 476 299 476Q258 476 223.5 462Q189 448 164 422.5Q139 397 125 361.5Q111 326 111 283V0H74Z" glyph-name="m" horiz-adv-x="1003" unicode="m" /><glyph d="M75 596H110L364 244L625 596H659V0H622V533L364 184L111 533V0H75Z" glyph-name="m.smcp" horiz-adv-x="733" unicode="&#57869;" /><glyph d="M122 605H386V573H122Z" glyph-name="macron" horiz-adv-x="507" unicode="&#175;" /><glyph d="M349 -10Q295 -10 248 10.5Q201 31 165.5 66Q130 101 110 148.5Q90 196 90 250Q90 304 110 351.5Q130 399 165.5 434Q201 469 248 489.5Q295 510 349 510Q403 510 450 489.5Q497 469 532.5 434Q568 399 588 351.5Q608 304 608 250Q608 196 588 148.5Q568 101 532.5 66Q497 31 450 10.5Q403 -10 349 -10Z" glyph-name="mediumblackcircle" horiz-adv-x="698" unicode="&#9899;" /><glyph d="M349 -10Q295 -10 247.5 10Q200 30 165 65.5Q130 101 109.5 148.5Q89 196 89 250Q89 304 109.5 351.5Q130 399 165 434.5Q200 470 247.5 490Q295 510 349 510Q403 510 450.5 490Q498 470 533 434.5Q568 399 588.5 351.5Q609 304 609 250Q609 196 588.5 148.5Q568 101 533 65.5Q498 30 450.5 10Q403 -10 349 -10ZM349 24Q396 24 436.5 41.5Q477 59 507 90Q537 121 554 162Q571 203 571 250Q571 297 554 338Q537 379 507 410Q477 441 436.5 458.5Q396 476 349 476Q303 476 262.5 458.5Q222 441 192 410Q162 379 144.5 338Q127 297 127 250Q127 203 144.5 162Q162 121 192 90Q222 59 262.5 41.5Q303 24 349 24Z" glyph-name="mediumwhitecircle" horiz-adv-x="698" unicode="&#9898;" /><glyph d="M54 382H424V349H54Z" glyph-name="minus" horiz-adv-x="478" unicode="&#8722;" /><glyph d="M37 226H250V197H37Z" glyph-name="minus.inf" horiz-adv-x="287" unicode="&#58748;" /><glyph d="M45 526 92 730H131L73 526Z" glyph-name="minute" horiz-adv-x="177" unicode="&#8242;" /><glyph d="M74 500H111V220Q111 177 126 140.5Q141 104 167 78.5Q193 53 228.5 38.5Q264 24 305 24Q346 24 381.5 38.5Q417 53 443.5 79Q470 105 485 140.5Q500 176 500 218V500H536V0H501V116Q478 62 425.5 26Q373 -10 302 -10Q236 -10 186.5 21Q137 52 111 100V-230H74Z" glyph-name="mu" horiz-adv-x="611" unicode="&#181;" /><glyph d="M83 231 217 365 83 499 106 522 240 388 373 521 396 498 263 365 396 232 373 209 240 342 106 208Z" glyph-name="multiply" horiz-adv-x="478" unicode="&#215;" /><glyph d="M74 500H110V385Q133 439 186.5 474.5Q240 510 311 510Q361 510 402.5 494.5Q444 479 473.5 449.5Q503 420 519.5 377.5Q536 335 536 281V0H499V282Q499 371 448 423.5Q397 476 307 476Q266 476 230.5 461.5Q195 447 168.5 421Q142 395 126.5 359.5Q111 324 111 282V0H74Z" glyph-name="n" horiz-adv-x="608" unicode="n" /><glyph d="M75 596H114L520 56V596H556V0H518L111 541V0H75Z" glyph-name="n.smcp" horiz-adv-x="631" unicode="&#57870;" /><glyph d="M409 720H459L324 573H286ZM74 500H110V385Q133 439 186.5 474.5Q240 510 311 510Q361 510 402.5 494.5Q444 479 473.5 449.5Q503 420 519.5 377.5Q536 335 536 281V0H499V282Q499 371 448 423.5Q397 476 307 476Q266 476 230.5 461.5Q195 447 168.5 421Q142 395 126.5 359.5Q111 324 111 282V0H74Z" glyph-name="nacute" horiz-adv-x="608" unicode="&#324;" /><glyph d="M422 799H472L337 652H299ZM75 596H114L520 56V596H556V0H518L111 541V0H75Z" glyph-name="nacute.smcp" horiz-adv-x="631" unicode="&#57974;" /><glyph d="M171 720H211L305 602L400 720H441L322 573H290ZM74 500H110V385Q133 439 186.5 474.5Q240 510 311 510Q361 510 402.5 494.5Q444 479 473.5 449.5Q503 420 519.5 377.5Q536 335 536 281V0H499V282Q499 371 448 423.5Q397 476 307 476Q266 476 230.5 461.5Q195 447 168.5 421Q142 395 126.5 359.5Q111 324 111 282V0H74Z" glyph-name="ncaron" horiz-adv-x="608" unicode="&#328;" /><glyph d="M183 805H223L317 687L412 805H453L334 658H302ZM75 596H114L520 56V596H556V0H518L111 541V0H75Z" glyph-name="ncaron.smcp" horiz-adv-x="631" unicode="&#57978;" /><glyph d="M255 -258 302 -54H339L283 -258ZM74 500H110V385Q133 439 186.5 474.5Q240 510 311 510Q361 510 402.5 494.5Q444 479 473.5 449.5Q503 420 519.5 377.5Q536 335 536 281V0H499V282Q499 371 448 423.5Q397 476 307 476Q266 476 230.5 461.5Q195 447 168.5 421Q142 395 126.5 359.5Q111 324 111 282V0H74Z" glyph-name="ncommaaccent" horiz-adv-x="608" unicode="&#326;" /><glyph d="M260 -265 307 -61H344L288 -265ZM75 596H114L520 56V596H556V0H518L111 541V0H75Z" glyph-name="ncommaaccent.smcp" horiz-adv-x="631" unicode="&#57981;" /><glyph d="M203 0 399 296Q375 283 347.5 276Q320 269 290 269Q242 269 199.5 287.5Q157 306 125.5 337.5Q94 369 75.5 412Q57 455 57 504Q57 554 75.5 597Q94 640 126 671.5Q158 703 201.5 721.5Q245 740 294 740Q344 740 387 721.5Q430 703 462 671Q494 639 512.5 596Q531 553 531 504Q531 466 519.5 429.5Q508 393 488 364L248 0ZM294 303Q335 303 371.5 319Q408 335 435 362.5Q462 390 478 426.5Q494 463 494 504Q494 545 478 582Q462 619 435 646.5Q408 674 371.5 690Q335 706 294 706Q253 706 216.5 690Q180 674 153 646.5Q126 619 110 582Q94 545 94 504Q94 463 110 426.5Q126 390 153 362.5Q180 335 216.5 319Q253 303 294 303Z" glyph-name="nine" horiz-adv-x="588" unicode="9" /><glyph d="M414 282Q361 251 297 251Q247 251 203 270Q159 289 126.5 322Q94 355 75 400Q56 445 56 496Q56 547 75 591.5Q94 636 127.5 669Q161 702 205.5 721Q250 740 301 740Q353 740 398 721Q443 702 476 669Q509 636 528 591.5Q547 547 547 496Q547 455 535 417.5Q523 380 503 350L268 0H222ZM302 286Q345 286 383 302.5Q421 319 449.5 347.5Q478 376 494.5 414Q511 452 511 495Q511 539 494.5 577Q478 615 449.5 644Q421 673 383 689.5Q345 706 302 706Q259 706 220.5 689.5Q182 673 153.5 644Q125 615 108.5 577Q92 539 92 495Q92 452 108.5 414Q125 376 153.5 347.5Q182 319 220.5 302.5Q259 286 302 286Z" glyph-name="nine.LP" horiz-adv-x="603" unicode="&#58686;" /><glyph d="M203 0 399 296Q375 283 347.5 276Q320 269 290 269Q242 269 199.5 287.5Q157 306 125.5 337.5Q94 369 75.5 412Q57 455 57 504Q57 554 75.5 597Q94 640 126 671.5Q158 703 201.5 721.5Q245 740 294 740Q344 740 387 721.5Q430 703 462 671Q494 639 512.5 596Q531 553 531 504Q531 466 519.5 429.5Q508 393 488 364L248 0ZM294 303Q335 303 371.5 319Q408 335 435 362.5Q462 390 478 426.5Q494 463 494 504Q494 545 478 582Q462 619 435 646.5Q408 674 371.5 690Q335 706 294 706Q253 706 216.5 690Q180 674 153 646.5Q126 619 110 582Q94 545 94 504Q94 463 110 426.5Q126 390 153 362.5Q180 335 216.5 319Q253 303 294 303Z" glyph-name="nine.LT" horiz-adv-x="588" unicode="&#58697;" /><glyph d="M231 158Q203 145 174 145Q145 145 119.5 156Q94 167 75.5 185.5Q57 204 46 230Q35 256 35 286Q35 316 46.5 342Q58 368 77.5 387Q97 406 123 417Q149 428 179 428Q209 428 235 417Q261 406 280.5 386.5Q300 367 311 341.5Q322 316 322 286Q322 237 295 197L165 0H125ZM179 175Q202 175 222 184Q242 193 257 208Q272 223 280.5 243Q289 263 289 286Q289 309 280.5 329Q272 349 257 364Q242 379 222 388Q202 397 179 397Q156 397 136 388Q116 379 101 364Q86 349 77 329Q68 309 68 286Q68 263 77 243Q86 223 101 208Q116 193 136 184Q156 175 179 175Z" glyph-name="nine.inf" horiz-adv-x="358" unicode="&#58746;" /><glyph d="M231 465Q203 452 174 452Q145 452 119.5 463Q94 474 75.5 492.5Q57 511 46 537Q35 563 35 593Q35 623 46.5 649Q58 675 77.5 694Q97 713 123 724Q149 735 179 735Q209 735 235 724Q261 713 280.5 693.5Q300 674 311 648.5Q322 623 322 593Q322 544 295 504L165 307H125ZM179 482Q202 482 222 491Q242 500 257 515Q272 530 280.5 550Q289 570 289 593Q289 616 280.5 636Q272 656 257 671Q242 686 222 695Q202 704 179 704Q156 704 136 695Q116 686 101 671Q86 656 77 636Q68 616 68 593Q68 570 77 550Q86 530 101 515Q116 500 136 491Q156 482 179 482ZM484 32H569V357Q562 340 541.5 329Q521 318 499 318H492V353H495Q516 353 530.5 359.5Q545 366 553.5 376Q562 386 566 398.5Q570 411 570 422H603V32H685V0H484ZM638 730H682L155 0H111ZM870 -6Q839 -6 812 5.5Q785 17 765.5 36.5Q746 56 734.5 82.5Q723 109 723 140Q723 167 732 193Q741 219 756 239L883 422H923L818 272Q847 285 876 285Q905 285 931 274Q957 263 976.5 243.5Q996 224 1007 197.5Q1018 171 1018 140Q1018 109 1006.5 82.5Q995 56 975 36.5Q955 17 928 5.5Q901 -6 870 -6ZM870 25Q894 25 914.5 34Q935 43 950.5 59Q966 75 975 95.5Q984 116 984 140Q984 164 975 185Q966 206 950.5 221.5Q935 237 914.5 246Q894 255 870 255Q846 255 825 246Q804 237 789 221.5Q774 206 765 185Q756 164 756 140Q756 116 765 95Q774 74 789 58.5Q804 43 825 34Q846 25 870 25Z" glyph-name="ninesixteenths" horiz-adv-x="1063" unicode="&#61977;" /><glyph glyph-name="nonmarkingreturn" horiz-adv-x="250" unicode="" /><glyph d="M298 459H424V426H283L223 300H424V267H207L175 199H138L170 267H54V300H186L246 426H54V459H262L295 527H331Z" glyph-name="notequal" horiz-adv-x="478" unicode="&#8800;" /><glyph d="M74 500H110V385Q133 439 186.5 474.5Q240 510 311 510Q361 510 402.5 494.5Q444 479 473.5 449.5Q503 420 519.5 377.5Q536 335 536 281V0H499V282Q499 371 448 423.5Q397 476 307 476Q266 476 230.5 461.5Q195 447 168.5 421Q142 395 126.5 359.5Q111 324 111 282V0H74ZM128 573Q128 617 152.5 643Q177 669 216 669Q241 669 262.5 658.5Q284 648 305 635Q326 622 346.5 611.5Q367 601 388 601Q414 601 430.5 616.5Q447 632 447 666H479Q479 619 454.5 594Q430 569 387 569Q360 569 336.5 580Q313 591 292 604Q272 617 253.5 626.5Q235 636 216 636Q192 636 175.5 620.5Q159 605 159 573Z" glyph-name="ntilde" horiz-adv-x="608" unicode="&#241;" /><glyph d="M75 596H114L520 56V596H556V0H518L111 541V0H75ZM143 668Q143 712 167.5 738Q192 764 231 764Q256 764 277.5 753.5Q299 743 320 730Q341 717 361.5 706.5Q382 696 403 696Q429 696 445.5 711.5Q462 727 462 761H494Q494 714 469.5 689Q445 664 402 664Q375 664 351.5 675Q328 686 307 699Q287 712 268.5 721.5Q250 731 231 731Q207 731 190.5 715.5Q174 700 174 668Z" glyph-name="ntilde.smcp" horiz-adv-x="631" unicode="&#57977;" /><glyph d="M531 221H302V0H265V221H52V256H265V484H52V519H265V730H302V519H531V730H568V519H786V484H568V256H786V221H568V0H531ZM302 256H531V484H302Z" glyph-name="numbersign" horiz-adv-x="838" unicode="#" /><glyph d="M487 157 230 255 132 0H94L197 267L53 323L54 360L210 300L309 555L54 651V688L320 587L376 730H414L353 574L610 477L708 730H746L643 463L784 410V373L629 431L532 177L783 82V45L519 145L464 0H427ZM243 287 499 189 597 444 341 542Z" glyph-name="numbersign.alt" horiz-adv-x="838" unicode="&#62563;" /><glyph d="M311 -10Q257 -10 209.5 10Q162 30 127 65.5Q92 101 71.5 148.5Q51 196 51 250Q51 304 71.5 351.5Q92 399 127 434.5Q162 470 209.5 490Q257 510 311 510Q365 510 412.5 490Q460 470 495 434.5Q530 399 550.5 351.5Q571 304 571 250Q571 196 550.5 148.5Q530 101 495 65.5Q460 30 412.5 10Q365 -10 311 -10ZM311 24Q358 24 398.5 41.5Q439 59 469 90Q499 121 516 162Q533 203 533 250Q533 297 516 338Q499 379 469 410Q439 441 398.5 458.5Q358 476 311 476Q265 476 224.5 458.5Q184 441 154 410Q124 379 106.5 338Q89 297 89 250Q89 203 106.5 162Q124 121 154 90Q184 59 224.5 41.5Q265 24 311 24Z" glyph-name="o" horiz-adv-x="622" unicode="o" /><glyph d="M357 -9Q293 -9 237.5 15Q182 39 140.5 81Q99 123 75.5 179Q52 235 52 298Q52 361 75.5 417Q99 473 140.5 515Q182 557 237.5 581Q293 605 357 605Q421 605 477 581Q533 557 574 515Q615 473 639 417Q663 361 663 298Q663 235 639 179Q615 123 574 81Q533 39 477 15Q421 -9 357 -9ZM357 25Q414 25 463 47Q512 69 548 106Q584 143 604.5 193Q625 243 625 298Q625 354 604.5 403Q584 452 548 489.5Q512 527 463 548.5Q414 570 357 570Q300 570 251.5 548.5Q203 527 167 489.5Q131 452 110.5 403Q90 354 90 298Q90 243 110.5 193Q131 143 167 106Q203 69 251.5 47Q300 25 357 25Z" glyph-name="o.smcp" horiz-adv-x="715" unicode="&#57871;" /><glyph d="M409 720H459L324 573H286ZM311 -10Q257 -10 209.5 10Q162 30 127 65.5Q92 101 71.5 148.5Q51 196 51 250Q51 304 71.5 351.5Q92 399 127 434.5Q162 470 209.5 490Q257 510 311 510Q365 510 412.5 490Q460 470 495 434.5Q530 399 550.5 351.5Q571 304 571 250Q571 196 550.5 148.5Q530 101 495 65.5Q460 30 412.5 10Q365 -10 311 -10ZM311 24Q358 24 398.5 41.5Q439 59 469 90Q499 121 516 162Q533 203 533 250Q533 297 516 338Q499 379 469 410Q439 441 398.5 458.5Q358 476 311 476Q265 476 224.5 458.5Q184 441 154 410Q124 379 106.5 338Q89 297 89 250Q89 203 106.5 162Q124 121 154 90Q184 59 224.5 41.5Q265 24 311 24Z" glyph-name="oacute" horiz-adv-x="622" unicode="&#243;" /><glyph d="M357 -9Q293 -9 237.5 15Q182 39 140.5 81Q99 123 75.5 179Q52 235 52 298Q52 361 75.5 417Q99 473 140.5 515Q182 557 237.5 581Q293 605 357 605Q421 605 477 581Q533 557 574 515Q615 473 639 417Q663 361 663 298Q663 235 639 179Q615 123 574 81Q533 39 477 15Q421 -9 357 -9ZM357 25Q414 25 463 47Q512 69 548 106Q584 143 604.5 193Q625 243 625 298Q625 354 604.5 403Q584 452 548 489.5Q512 527 463 548.5Q414 570 357 570Q300 570 251.5 548.5Q203 527 167 489.5Q131 452 110.5 403Q90 354 90 298Q90 243 110.5 193Q131 143 167 106Q203 69 251.5 47Q300 25 357 25ZM452 816H502L367 669H329Z" glyph-name="oacute.smcp" horiz-adv-x="715" unicode="&#57985;" /><glyph d="M311 -10Q257 -10 209.5 10Q162 30 127 65.5Q92 101 71.5 148.5Q51 196 51 250Q51 304 71.5 351.5Q92 399 127 434.5Q162 470 209.5 490Q257 510 311 510Q365 510 412.5 490Q460 470 495 434.5Q530 399 550.5 351.5Q571 304 571 250Q571 196 550.5 148.5Q530 101 495 65.5Q460 30 412.5 10Q365 -10 311 -10ZM311 24Q358 24 398.5 41.5Q439 59 469 90Q499 121 516 162Q533 203 533 250Q533 297 516 338Q499 379 469 410Q439 441 398.5 458.5Q358 476 311 476Q265 476 224.5 458.5Q184 441 154 410Q124 379 106.5 338Q89 297 89 250Q89 203 106.5 162Q124 121 154 90Q184 59 224.5 41.5Q265 24 311 24ZM310 564Q269 564 238.5 577Q208 590 188 611Q168 632 158 659.5Q148 687 148 715H181Q181 692 189 670Q197 648 213 631Q229 614 253 603.5Q277 593 310 593Q340 593 364 603.5Q388 614 404.5 631Q421 648 429.5 670Q438 692 438 715H471Q471 687 460 659.5Q449 632 428 611Q407 590 377.5 577Q348 564 310 564Z" glyph-name="obreve" horiz-adv-x="622" unicode="&#335;" /><glyph d="M357 -9Q293 -9 237.5 15Q182 39 140.5 81Q99 123 75.5 179Q52 235 52 298Q52 361 75.5 417Q99 473 140.5 515Q182 557 237.5 581Q293 605 357 605Q421 605 477 581Q533 557 574 515Q615 473 639 417Q663 361 663 298Q663 235 639 179Q615 123 574 81Q533 39 477 15Q421 -9 357 -9ZM357 25Q414 25 463 47Q512 69 548 106Q584 143 604.5 193Q625 243 625 298Q625 354 604.5 403Q584 452 548 489.5Q512 527 463 548.5Q414 570 357 570Q300 570 251.5 548.5Q203 527 167 489.5Q131 452 110.5 403Q90 354 90 298Q90 243 110.5 193Q131 143 167 106Q203 69 251.5 47Q300 25 357 25ZM357 667Q316 667 285.5 680Q255 693 235 714Q215 735 205 762.5Q195 790 195 818H228Q228 795 236 773Q244 751 260 734Q276 717 300 706.5Q324 696 357 696Q387 696 411 706.5Q435 717 451.5 734Q468 751 476.5 773Q485 795 485 818H518Q518 790 507 762.5Q496 735 475 714Q454 693 424.5 680Q395 667 357 667Z" glyph-name="obreve.smcp" horiz-adv-x="715" unicode="&#57992;" /><glyph d="M292 720H324L443 573H403L308 690L214 573H173ZM311 -10Q257 -10 209.5 10Q162 30 127 65.5Q92 101 71.5 148.5Q51 196 51 250Q51 304 71.5 351.5Q92 399 127 434.5Q162 470 209.5 490Q257 510 311 510Q365 510 412.5 490Q460 470 495 434.5Q530 399 550.5 351.5Q571 304 571 250Q571 196 550.5 148.5Q530 101 495 65.5Q460 30 412.5 10Q365 -10 311 -10ZM311 24Q358 24 398.5 41.5Q439 59 469 90Q499 121 516 162Q533 203 533 250Q533 297 516 338Q499 379 469 410Q439 441 398.5 458.5Q358 476 311 476Q265 476 224.5 458.5Q184 441 154 410Q124 379 106.5 338Q89 297 89 250Q89 203 106.5 162Q124 121 154 90Q184 59 224.5 41.5Q265 24 311 24Z" glyph-name="ocircumflex" horiz-adv-x="622" unicode="&#244;" /><glyph d="M357 -9Q293 -9 237.5 15Q182 39 140.5 81Q99 123 75.5 179Q52 235 52 298Q52 361 75.5 417Q99 473 140.5 515Q182 557 237.5 581Q293 605 357 605Q421 605 477 581Q533 557 574 515Q615 473 639 417Q663 361 663 298Q663 235 639 179Q615 123 574 81Q533 39 477 15Q421 -9 357 -9ZM357 25Q414 25 463 47Q512 69 548 106Q584 143 604.5 193Q625 243 625 298Q625 354 604.5 403Q584 452 548 489.5Q512 527 463 548.5Q414 570 357 570Q300 570 251.5 548.5Q203 527 167 489.5Q131 452 110.5 403Q90 354 90 298Q90 243 110.5 193Q131 143 167 106Q203 69 251.5 47Q300 25 357 25ZM341 813H373L492 666H452L357 783L263 666H222Z" glyph-name="ocircumflex.smcp" horiz-adv-x="715" unicode="&#57987;" /><glyph d="M343 715H379V575H343ZM243 715H279V575H243ZM311 -10Q257 -10 209.5 10Q162 30 127 65.5Q92 101 71.5 148.5Q51 196 51 250Q51 304 71.5 351.5Q92 399 127 434.5Q162 470 209.5 490Q257 510 311 510Q365 510 412.5 490Q460 470 495 434.5Q530 399 550.5 351.5Q571 304 571 250Q571 196 550.5 148.5Q530 101 495 65.5Q460 30 412.5 10Q365 -10 311 -10ZM311 24Q358 24 398.5 41.5Q439 59 469 90Q499 121 516 162Q533 203 533 250Q533 297 516 338Q499 379 469 410Q439 441 398.5 458.5Q358 476 311 476Q265 476 224.5 458.5Q184 441 154 410Q124 379 106.5 338Q89 297 89 250Q89 203 106.5 162Q124 121 154 90Q184 59 224.5 41.5Q265 24 311 24Z" glyph-name="odieresis" horiz-adv-x="622" unicode="&#246;" /><glyph d="M357 -9Q293 -9 237.5 15Q182 39 140.5 81Q99 123 75.5 179Q52 235 52 298Q52 361 75.5 417Q99 473 140.5 515Q182 557 237.5 581Q293 605 357 605Q421 605 477 581Q533 557 574 515Q615 473 639 417Q663 361 663 298Q663 235 639 179Q615 123 574 81Q533 39 477 15Q421 -9 357 -9ZM357 25Q414 25 463 47Q512 69 548 106Q584 143 604.5 193Q625 243 625 298Q625 354 604.5 403Q584 452 548 489.5Q512 527 463 548.5Q414 570 357 570Q300 570 251.5 548.5Q203 527 167 489.5Q131 452 110.5 403Q90 354 90 298Q90 243 110.5 193Q131 143 167 106Q203 69 251.5 47Q300 25 357 25ZM390 810H426V670H390ZM290 810H326V670H290Z" glyph-name="odieresis.smcp" horiz-adv-x="715" unicode="&#57988;" /><glyph d="M311 -10Q257 -10 209.5 10Q162 30 127 65.5Q92 101 71.5 148.5Q51 196 51 250Q51 304 71.5 351.5Q92 399 127 434.5Q162 470 209.5 490Q257 510 311 510Q354 510 392 497.5Q430 485 461 462.5Q492 440 515 409Q538 378 551 341Q564 378 586.5 409Q609 440 640.5 462.5Q672 485 710.5 497.5Q749 510 793 510Q848 510 895 490.5Q942 471 976.5 436.5Q1011 402 1030.5 355Q1050 308 1050 253V242H569Q570 196 587.5 155.5Q605 115 635 86Q665 57 706 40Q747 23 795 23Q877 23 933.5 68Q990 113 1009 185L1043 172Q1032 132 1009 98.5Q986 65 954 41Q922 17 882 3.5Q842 -10 795 -10Q750 -10 710.5 2.5Q671 15 640 37Q609 59 586 89.5Q563 120 551 156Q538 120 514.5 89.5Q491 59 460 37Q429 15 391.5 2.5Q354 -10 311 -10ZM311 24Q358 24 398.5 41.5Q439 59 469 90Q499 121 516 162Q533 203 533 250Q533 297 516 338Q499 379 469 410Q439 441 398.5 458.5Q358 476 311 476Q265 476 224.5 458.5Q184 441 154 410Q124 379 106.5 338Q89 297 89 250Q89 203 106.5 162Q124 121 154 90Q184 59 224.5 41.5Q265 24 311 24ZM793 477Q748 477 709.5 461.5Q671 446 641.5 418.5Q612 391 593.5 354Q575 317 570 275H1012Q1008 319 990.5 356Q973 393 944 420Q915 447 876.5 462Q838 477 793 477Z" glyph-name="oe" horiz-adv-x="1103" unicode="&#339;" /><glyph d="M625 160Q589 85 518.5 38Q448 -9 357 -9Q293 -9 237.5 15Q182 39 140.5 81Q99 123 75.5 179Q52 235 52 298Q52 361 75.5 417Q99 473 140.5 515Q182 557 237.5 581Q293 605 357 605Q448 605 518.5 558Q589 511 625 436V596H991V562H661V316H991V282H661V34H991V0H625ZM357 25Q414 25 463 47Q512 69 548 106Q584 143 604.5 193Q625 243 625 298V309Q623 363 601.5 410.5Q580 458 544 493.5Q508 529 460.5 549.5Q413 570 357 570Q300 570 251.5 548.5Q203 527 167 489.5Q131 452 110.5 403Q90 354 90 298Q90 243 110.5 193Q131 143 167 106Q203 69 251.5 47Q300 25 357 25Z" glyph-name="oe.smcp" horiz-adv-x="1049" unicode="&#58008;" /><glyph d="M245 -202Q190 -202 156.5 -176Q123 -150 123 -111Q123 -78 151 -46.5Q179 -15 249 17L278 -2Q212 -34 186 -59Q160 -84 160 -111Q160 -138 183.5 -154Q207 -170 245 -170Q277 -170 300 -157.5Q323 -145 343 -126L373 -147Q350 -169 317 -185.5Q284 -202 245 -202Z" glyph-name="ogonek" horiz-adv-x="507" unicode="&#731;" /><glyph d="M311 -10Q257 -10 209.5 10Q162 30 127 65.5Q92 101 71.5 148.5Q51 196 51 250Q51 304 71.5 351.5Q92 399 127 434.5Q162 470 209.5 490Q257 510 311 510Q365 510 412.5 490Q460 470 495 434.5Q530 399 550.5 351.5Q571 304 571 250Q571 196 550.5 148.5Q530 101 495 65.5Q460 30 412.5 10Q365 -10 311 -10ZM311 24Q358 24 398.5 41.5Q439 59 469 90Q499 121 516 162Q533 203 533 250Q533 297 516 338Q499 379 469 410Q439 441 398.5 458.5Q358 476 311 476Q265 476 224.5 458.5Q184 441 154 410Q124 379 106.5 338Q89 297 89 250Q89 203 106.5 162Q124 121 154 90Q184 59 224.5 41.5Q265 24 311 24ZM158 720H208L331 573H293Z" glyph-name="ograve" horiz-adv-x="622" unicode="&#242;" /><glyph d="M357 -9Q293 -9 237.5 15Q182 39 140.5 81Q99 123 75.5 179Q52 235 52 298Q52 361 75.5 417Q99 473 140.5 515Q182 557 237.5 581Q293 605 357 605Q421 605 477 581Q533 557 574 515Q615 473 639 417Q663 361 663 298Q663 235 639 179Q615 123 574 81Q533 39 477 15Q421 -9 357 -9ZM357 25Q414 25 463 47Q512 69 548 106Q584 143 604.5 193Q625 243 625 298Q625 354 604.5 403Q584 452 548 489.5Q512 527 463 548.5Q414 570 357 570Q300 570 251.5 548.5Q203 527 167 489.5Q131 452 110.5 403Q90 354 90 298Q90 243 110.5 193Q131 143 167 106Q203 69 251.5 47Q300 25 357 25ZM209 816H259L382 669H344Z" glyph-name="ograve.smcp" horiz-adv-x="715" unicode="&#57986;" /><glyph d="M49 35 440 466H63V500H486V465L95 34H489V0H49ZM535 339 638 390V730H675V409L778 461V430L675 378V0H638V359L535 308Z" glyph-name="ohm" horiz-adv-x="792" unicode="&#59425;" /><glyph d="M364 720H412L277 573H241ZM465 720H513L378 573H342ZM311 -10Q257 -10 209.5 10Q162 30 127 65.5Q92 101 71.5 148.5Q51 196 51 250Q51 304 71.5 351.5Q92 399 127 434.5Q162 470 209.5 490Q257 510 311 510Q365 510 412.5 490Q460 470 495 434.5Q530 399 550.5 351.5Q571 304 571 250Q571 196 550.5 148.5Q530 101 495 65.5Q460 30 412.5 10Q365 -10 311 -10ZM311 24Q358 24 398.5 41.5Q439 59 469 90Q499 121 516 162Q533 203 533 250Q533 297 516 338Q499 379 469 410Q439 441 398.5 458.5Q358 476 311 476Q265 476 224.5 458.5Q184 441 154 410Q124 379 106.5 338Q89 297 89 250Q89 203 106.5 162Q124 121 154 90Q184 59 224.5 41.5Q265 24 311 24Z" glyph-name="ohungarumlaut" horiz-adv-x="622" unicode="&#337;" /><glyph d="M357 -9Q293 -9 237.5 15Q182 39 140.5 81Q99 123 75.5 179Q52 235 52 298Q52 361 75.5 417Q99 473 140.5 515Q182 557 237.5 581Q293 605 357 605Q421 605 477 581Q533 557 574 515Q615 473 639 417Q663 361 663 298Q663 235 639 179Q615 123 574 81Q533 39 477 15Q421 -9 357 -9ZM357 25Q414 25 463 47Q512 69 548 106Q584 143 604.5 193Q625 243 625 298Q625 354 604.5 403Q584 452 548 489.5Q512 527 463 548.5Q414 570 357 570Q300 570 251.5 548.5Q203 527 167 489.5Q131 452 110.5 403Q90 354 90 298Q90 243 110.5 193Q131 143 167 106Q203 69 251.5 47Q300 25 357 25ZM408 816H456L321 669H285ZM509 816H557L422 669H386Z" glyph-name="ohungarumlaut.smcp" horiz-adv-x="715" unicode="&#57994;" /><glyph d="M178 605H442V573H178ZM311 -10Q257 -10 209.5 10Q162 30 127 65.5Q92 101 71.5 148.5Q51 196 51 250Q51 304 71.5 351.5Q92 399 127 434.5Q162 470 209.5 490Q257 510 311 510Q365 510 412.5 490Q460 470 495 434.5Q530 399 550.5 351.5Q571 304 571 250Q571 196 550.5 148.5Q530 101 495 65.5Q460 30 412.5 10Q365 -10 311 -10ZM311 24Q358 24 398.5 41.5Q439 59 469 90Q499 121 516 162Q533 203 533 250Q533 297 516 338Q499 379 469 410Q439 441 398.5 458.5Q358 476 311 476Q265 476 224.5 458.5Q184 441 154 410Q124 379 106.5 338Q89 297 89 250Q89 203 106.5 162Q124 121 154 90Q184 59 224.5 41.5Q265 24 311 24Z" glyph-name="omacron" horiz-adv-x="622" unicode="&#333;" /><glyph d="M357 -9Q293 -9 237.5 15Q182 39 140.5 81Q99 123 75.5 179Q52 235 52 298Q52 361 75.5 417Q99 473 140.5 515Q182 557 237.5 581Q293 605 357 605Q421 605 477 581Q533 557 574 515Q615 473 639 417Q663 361 663 298Q663 235 639 179Q615 123 574 81Q533 39 477 15Q421 -9 357 -9ZM357 25Q414 25 463 47Q512 69 548 106Q584 143 604.5 193Q625 243 625 298Q625 354 604.5 403Q584 452 548 489.5Q512 527 463 548.5Q414 570 357 570Q300 570 251.5 548.5Q203 527 167 489.5Q131 452 110.5 403Q90 354 90 298Q90 243 110.5 193Q131 143 167 106Q203 69 251.5 47Q300 25 357 25ZM225 701H489V669H225Z" glyph-name="omacron.smcp" horiz-adv-x="715" unicode="&#57991;" /><glyph d="M326 0V685L129 510L106 534L327 730H363V0Z" glyph-name="one" horiz-adv-x="588" unicode="1" /><glyph d="M326 0V685L129 510L106 534L327 730H363V0Z" glyph-name="one.LP" horiz-adv-x="588" unicode="&#58678;" /><glyph d="M326 0V685L129 510L106 534L327 730H363V0Z" glyph-name="one.LT" horiz-adv-x="588" unicode="&#58689;" /><glyph d="M41 32H126V357Q119 340 98.5 329Q78 318 56 318H49V353H52Q73 353 87.5 359.5Q102 366 110.5 376Q119 386 123 398.5Q127 411 127 422H160V32H242V0H41Z" glyph-name="one.inf" horiz-adv-x="278" unicode="&#58738;" /><glyph d="M508 35Q508 60 519 81.5Q530 103 547.5 121.5Q565 140 587.5 156.5Q610 173 632 188Q653 203 672.5 217Q692 231 707 246.5Q722 262 731 278.5Q740 295 740 314Q740 351 713.5 374.5Q687 398 642 398Q604 398 576.5 378.5Q549 359 535 328L505 343Q523 381 558 404.5Q593 428 642 428Q702 428 738 395Q774 362 774 313Q774 289 763.5 268.5Q753 248 736.5 230Q720 212 698.5 196Q677 180 655 164Q634 150 614 135.5Q594 121 578 105Q562 89 552.5 72Q543 55 543 35V32H776V0H508ZM41 340H126V665Q119 648 98.5 637Q78 626 56 626H49V661H52Q73 661 87.5 667.5Q102 674 110.5 684Q119 694 123 706.5Q127 719 127 730H160V340H242V308H41ZM628 730H672L145 0H101Z" glyph-name="onehalf" horiz-adv-x="816" unicode="&#189;" /><glyph d="M41 340H126V665Q119 648 98.5 637Q78 626 56 626H49V661H52Q73 661 87.5 667.5Q102 674 110.5 684Q119 694 123 706.5Q127 719 127 730H160V340H242V308H41ZM628 730H672L145 0H101ZM611 97H405V128L610 422H644V128H706V97H644V0H611ZM611 128V369L442 128Z" glyph-name="onequarter" horiz-adv-x="754" unicode="&#188;" /><glyph d="M861 -6Q830 -6 803 5.5Q776 17 756.5 36.5Q737 56 725.5 82.5Q714 109 714 140Q714 167 723 193Q732 219 747 239L874 422H914L809 272Q838 285 867 285Q896 285 922 274Q948 263 967.5 243.5Q987 224 998 197.5Q1009 171 1009 140Q1009 109 997.5 82.5Q986 56 966 36.5Q946 17 919 5.5Q892 -6 861 -6ZM861 25Q885 25 905.5 34Q926 43 941.5 59Q957 75 966 95.5Q975 116 975 140Q975 164 966 185Q957 206 941.5 221.5Q926 237 905.5 246Q885 255 861 255Q837 255 816 246Q795 237 780 221.5Q765 206 756 185Q747 164 747 140Q747 116 756 95Q765 74 780 58.5Q795 43 816 34Q837 25 861 25ZM629 730H673L146 0H102ZM41 340H126V665Q119 648 98.5 637Q78 626 56 626H49V661H52Q73 661 87.5 667.5Q102 674 110.5 684Q119 694 123 706.5Q127 719 127 730H160V340H242V308H41ZM476 32H560V355Q552 339 531.5 328.5Q511 318 490 318H484V353H487Q508 353 522 359.5Q536 366 544.5 376Q553 386 557 398.5Q561 411 561 422H594V32H676V0H476Z" glyph-name="onesixteenth" horiz-adv-x="1053" unicode="&#61973;" /><glyph d="M41 340H126V665Q119 648 98.5 637Q78 626 56 626H49V661H52Q73 661 87.5 667.5Q102 674 110.5 684Q119 694 123 706.5Q127 719 127 730H160V340H242V308H41Z" glyph-name="onesuperior" horiz-adv-x="278" unicode="&#185;" /><glyph d="M54 270H374V237H54Z" glyph-name="onethirdemdash" horiz-adv-x="428" unicode="&#58481;" /><glyph d="M54 346H374V313H54Z" glyph-name="onethirdemdash.cap" horiz-adv-x="428" unicode="&#58499;" /><glyph d="M215 435Q186 435 159.5 446Q133 457 112.5 477Q92 497 80 524.5Q68 552 68 585Q68 618 80 646Q92 674 112.5 694Q133 714 159.5 725Q186 736 215 736Q255 736 287 717.5Q319 699 337 667V730H367V441H337V504Q320 472 287 453.5Q254 435 215 435ZM220 464Q246 464 267.5 473.5Q289 483 305 499.5Q321 516 330 538Q339 560 339 585Q339 611 330 633Q321 655 305 671.5Q289 688 267.5 697.5Q246 707 220 707Q195 707 172.5 697.5Q150 688 133.5 671.5Q117 655 107.5 633Q98 611 98 585Q98 560 107.5 538Q117 516 133.5 499.5Q150 483 172.5 473.5Q195 464 220 464Z" glyph-name="ordfeminine" horiz-adv-x="425" unicode="&#170;" /><glyph d="M152 434Q105 434 77 453Q49 472 48 509Q47 553 81 573Q115 593 168 603Q188 607 206.5 611Q225 615 240 620.5Q255 626 264 634.5Q273 643 273 656Q273 676 252.5 692.5Q232 709 185 709Q139 709 114 690.5Q89 672 89 640V638H56V639Q56 681 91 708.5Q126 736 185 736Q242 736 274 712Q306 688 306 646V441H276V495Q259 472 228 453Q197 434 152 434ZM152 460Q177 460 197.5 468Q218 476 233.5 488Q249 500 260 513.5Q271 527 277 537V616Q267 603 239 594Q211 585 172 577Q129 568 104.5 554.5Q80 541 80 509Q80 487 100 473.5Q120 460 152 460Z" glyph-name="ordfeminine.alt" horiz-adv-x="364" unicode="&#59686;" /><glyph d="M166 730H198L312 441H280L251 514H112L83 441H52ZM123 543H240L181 691Z" glyph-name="ordfeminine.smcp" horiz-adv-x="363" unicode="&#58193;" /><glyph d="M218 435Q187 435 159.5 447Q132 459 112 479Q92 499 80 526.5Q68 554 68 585Q68 617 80 644.5Q92 672 112 692Q132 712 159.5 724Q187 736 218 736Q250 736 277 724Q304 712 324.5 692Q345 672 356.5 644.5Q368 617 368 585Q368 554 356.5 526.5Q345 499 324.5 479Q304 459 277 447Q250 435 218 435ZM218 465Q243 465 265 474.5Q287 484 303 500.5Q319 517 328 538.5Q337 560 337 585Q337 610 328 632.5Q319 655 303 671.5Q287 688 265 697.5Q243 707 218 707Q193 707 171 697.5Q149 688 133 671.5Q117 655 107.5 632.5Q98 610 98 585Q98 560 107.5 538.5Q117 517 133 500.5Q149 484 171 474.5Q193 465 218 465Z" glyph-name="ordmasculine" horiz-adv-x="436" unicode="&#186;" /><glyph d="M218 435Q187 435 159.5 447Q132 459 112 479Q92 499 80 526.5Q68 554 68 585Q68 617 80 644.5Q92 672 112 692Q132 712 159.5 724Q187 736 218 736Q250 736 277 724Q304 712 324.5 692Q345 672 356.5 644.5Q368 617 368 585Q368 554 356.5 526.5Q345 499 324.5 479Q304 459 277 447Q250 435 218 435ZM218 465Q243 465 265 474.5Q287 484 303 500.5Q319 517 328 538.5Q337 560 337 585Q337 610 328 632.5Q319 655 303 671.5Q287 688 265 697.5Q243 707 218 707Q193 707 171 697.5Q149 688 133 671.5Q117 655 107.5 632.5Q98 610 98 585Q98 560 107.5 538.5Q117 517 133 500.5Q149 484 171 474.5Q193 465 218 465Z" glyph-name="ordmasculine.smcp" horiz-adv-x="436" unicode="&#58194;" /><glyph d="M311 -10Q272 -10 237 0.5Q202 11 171 30L149 0H107L144 50Q101 85 76 137Q51 189 51 250Q51 304 71.5 351.5Q92 399 127 434.5Q162 470 209.5 490Q257 510 311 510Q350 510 385.5 499.5Q421 489 452 469L475 500H517L479 449Q521 413 546 361.5Q571 310 571 250Q571 196 550.5 148.5Q530 101 495 65.5Q460 30 412.5 10Q365 -10 311 -10ZM89 250Q89 198 109.5 154Q130 110 165 79L431 440Q376 476 311 476Q265 476 224.5 458.5Q184 441 154 410Q124 379 106.5 338Q89 297 89 250ZM311 24Q358 24 398.5 41.5Q439 59 469 90Q499 121 516 162Q533 203 533 250Q533 301 513 344.5Q493 388 458 420L192 59Q218 42 248 33Q278 24 311 24Z" glyph-name="oslash" horiz-adv-x="622" unicode="&#248;" /></font>
</defs>
</svg>
