<svg xmlns="http://www.w3.org/2000/svg" width="192" height="192" fill="none" viewBox="0 0 192 192">
  <path fill="#000" d="M0 0h192v192H0z"/>
  <path fill="#fff" fill-rule="evenodd" d="M136 20H56c-19.882 0-36 16.118-36 36v80c0 19.882 16.118 36 36 36h80c19.882 0 36-16.118 36-36V56c0-19.882-16.118-36-36-36zm-80-4c-22.091 0-40 17.909-40 40v80c0 22.091 17.909 40 40 40h80c22.091 0 40-17.909 40-40V56c0-22.091-17.909-40-40-40H56z" clip-rule="evenodd"/>
  <path fill="#fff" fill-rule="evenodd" d="M101.367 136H66.621V51.45h33.984c15.879 0 25.43 8.085 25.43 21.093 0 8.848-6.504 16.758-14.824 18.164v.996c11.425 1.172 19.043 9.317 19.043 20.332 0 14.883-10.84 23.965-28.887 23.965zM79.746 62.582V87.25h15.586c11.601 0 17.636-4.277 17.636-12.305 0-7.793-5.683-12.363-15.41-12.363H79.746zm18.984 62.285H79.746V97.621h18.222c12.364 0 18.868 4.629 18.868 13.477 0 8.964-6.27 13.769-18.106 13.769z" clip-rule="evenodd"/>
</svg>
