<?xml version="1.0" encoding="utf-8"?> <!-- Generated by Layerhero SVG Exporter: http://www.layerhero.com/photoshop-svg-exporter --><!DOCTYPE svg PUBLIC "-//W3C//DTD SVG 1.1//EN" "http://www.w3.org/Graphics/SVG/1.1/DTD/svg11.dtd"><svg version="1.1" baseProfile="full" xmlns="http://www.w3.org/2000/svg" xmlns:xlink="http://www.w3.org/1999/xlink" xmlns:ev="http://www.w3.org/2001/xml-events" width="40" height="40" viewBox="0 0 40 40"><g transform="scale(NaN)" ><path fill-rule="evenodd"  fill="rgb( 133, 155, 187 )" d="M18.750,-0.000 C18.750,-0.000 8.750,-0.000 8.750,-0.000 C8.750,-0.000 7.715,-0.000 7.715,-0.000 C4.380,-0.000 1.058,1.777 -0.000,4.000 C-0.000,4.000 -0.000,3.750 -0.000,3.750 C-0.000,3.750 -0.000,35.000 -0.000,35.000 C-0.000,35.000 0.051,35.000 0.051,35.000 C0.478,37.809 3.751,40.000 7.715,40.000 C7.715,40.000 40.000,40.000 40.000,40.000 C40.000,40.000 40.000,35.000 40.000,35.000 C40.000,35.000 40.000,28.750 40.000,28.750 C40.000,28.750 40.000,-0.000 40.000,-0.000 C40.000,-0.000 18.750,-0.000 18.750,-0.000 ZM18.000,2.000 C18.000,2.000 18.000,16.000 18.000,16.000 C18.000,16.000 14.000,12.000 14.000,12.000 C14.000,12.000 10.000,16.000 10.000,16.000 C10.000,16.000 10.000,2.000 10.000,2.000 C10.000,2.000 18.000,2.000 18.000,2.000 ZM38.000,38.000 C38.000,38.000 8.000,38.000 8.000,38.000 C5.222,38.000 2.000,35.665 2.000,34.000 C2.000,32.335 5.222,30.000 8.000,30.000 C8.000,30.000 38.000,30.000 38.000,30.000 C38.000,30.000 38.000,38.000 38.000,38.000 ZM8.000,28.000 C5.988,28.000 3.375,29.077 2.000,30.000 C2.000,30.000 2.000,6.000 2.000,6.000 C2.000,6.000 2.000,5.000 2.000,5.000 C2.285,3.677 5.267,2.071 8.000,2.000 C8.000,2.000 8.000,20.000 8.000,20.000 C8.000,20.000 9.000,20.000 9.000,20.000 C9.000,20.000 14.000,15.000 14.000,15.000 C14.000,15.000 19.000,20.000 19.000,20.000 C19.000,20.000 20.000,20.000 20.000,20.000 C20.000,20.000 20.000,2.000 20.000,2.000 C20.000,2.000 38.000,2.000 38.000,2.000 C38.000,2.000 38.000,28.000 38.000,28.000 C38.000,28.000 8.000,28.000 8.000,28.000 Z"/></g></svg>