<?xml version="1.0" encoding="utf-8"?> <!-- Generated by Layerhero SVG Exporter: http://www.layerhero.com/photoshop-svg-exporter --><!DOCTYPE svg PUBLIC "-//W3C//DTD SVG 1.1//EN" "http://www.w3.org/Graphics/SVG/1.1/DTD/svg11.dtd"><svg version="1.1" baseProfile="full" xmlns="http://www.w3.org/2000/svg" xmlns:xlink="http://www.w3.org/1999/xlink" xmlns:ev="http://www.w3.org/2001/xml-events" width="40" height="40" viewBox="0 0 40 40"><g transform="scale(NaN)" ><path fill-rule="evenodd"  fill="rgb( 133, 155, 187 )" d="M36.439,7.318 C36.439,7.318 35.209,8.548 35.209,8.548 C35.209,8.548 33.979,7.318 33.979,7.318 C33.979,7.318 32.750,6.089 32.750,6.089 C32.750,6.089 31.520,4.859 31.520,4.859 C31.520,4.859 32.750,3.629 32.750,3.629 C32.750,3.629 33.364,3.014 33.364,3.014 C34.383,1.995 36.035,1.995 37.054,3.014 C38.072,4.033 38.072,5.685 37.054,6.704 C37.054,6.704 36.439,7.318 36.439,7.318 ZM35.824,4.244 C35.484,3.905 34.934,3.905 34.594,4.244 C34.594,4.244 33.979,4.859 33.979,4.859 C33.979,4.859 35.209,6.089 35.209,6.089 C35.209,6.089 35.824,5.474 35.824,5.474 C36.163,5.134 36.163,4.584 35.824,4.244 ZM15.682,23.156 C15.682,23.156 16.912,24.386 16.912,24.386 C16.912,24.386 32.750,8.548 32.750,8.548 C32.750,8.548 33.979,9.778 33.979,9.778 C33.979,9.778 18.142,25.616 18.142,25.616 C18.142,25.616 18.108,25.582 18.108,25.582 C18.108,25.582 11.623,28.407 11.623,28.407 C11.623,28.407 14.447,21.922 14.447,21.922 C14.447,21.922 14.452,21.926 14.452,21.926 C14.452,21.926 30.290,6.089 30.290,6.089 C30.290,6.089 31.520,7.318 31.520,7.318 C31.520,7.318 15.682,23.156 15.682,23.156 ZM20.000,2.000 C9.915,2.000 2.000,9.915 2.000,20.000 C2.000,30.085 9.915,38.000 20.000,38.000 C30.085,38.000 38.000,30.085 38.000,20.000 C38.000,16.742 37.398,13.690 35.902,11.042 C35.902,11.042 37.167,9.777 37.167,9.777 C38.954,12.772 40.000,16.260 40.000,20.000 C40.000,31.046 31.046,40.000 20.000,40.000 C8.954,40.000 0.000,31.046 0.000,20.000 C0.000,8.954 8.954,-0.000 20.000,-0.000 C23.514,-0.000 26.813,0.913 29.682,2.505 C29.682,2.505 28.000,4.000 28.000,4.000 C25.485,2.695 23.029,2.000 20.000,2.000 Z"/></g></svg>