<?xml version="1.0" encoding="utf-8"?> <!-- Generated by Layerhero SVG Exporter: http://www.layerhero.com/photoshop-svg-exporter --><!DOCTYPE svg PUBLIC "-//W3C//DTD SVG 1.1//EN" "http://www.w3.org/Graphics/SVG/1.1/DTD/svg11.dtd"><svg version="1.1" baseProfile="full" xmlns="http://www.w3.org/2000/svg" xmlns:xlink="http://www.w3.org/1999/xlink" xmlns:ev="http://www.w3.org/2001/xml-events" width="40" height="40" viewBox="0 0 40 40"><g transform="scale(NaN)" ><path fill-rule="evenodd"  fill="rgb( 133, 155, 187 )" d="M27.000,40.000 C19.820,40.000 14.000,34.180 14.000,27.000 C14.000,19.821 19.820,14.000 27.000,14.000 C34.180,14.000 40.000,19.821 40.000,27.000 C40.000,34.180 34.180,40.000 27.000,40.000 ZM27.000,16.000 C20.778,16.000 16.000,20.778 16.000,27.000 C16.000,33.223 20.778,38.000 27.000,38.000 C33.222,38.000 38.000,33.223 38.000,27.000 C38.000,20.778 33.222,16.000 27.000,16.000 ZM35.000,28.000 C35.000,28.000 29.816,28.000 29.816,28.000 C29.403,29.163 28.304,30.000 27.000,30.000 C25.343,30.000 24.000,28.657 24.000,27.000 C24.000,25.696 24.837,24.597 26.000,24.184 C26.000,24.184 26.000,19.000 26.000,19.000 C26.000,18.448 26.448,18.000 27.000,18.000 C27.552,18.000 28.000,18.448 28.000,19.000 C28.000,19.000 28.000,24.184 28.000,24.184 C28.848,24.485 29.515,25.152 29.816,26.000 C29.816,26.000 35.000,26.000 35.000,26.000 C35.552,26.000 36.000,26.448 36.000,27.000 C36.000,27.553 35.552,28.000 35.000,28.000 ZM27.000,26.000 C26.448,26.000 26.000,26.448 26.000,27.000 C26.000,27.553 26.448,28.000 27.000,28.000 C27.552,28.000 28.000,27.553 28.000,27.000 C28.000,26.448 27.552,26.000 27.000,26.000 ZM17.000,12.000 C18.527,12.000 19.773,13.144 19.962,14.620 C18.542,15.514 17.265,16.608 16.170,17.869 C14.920,17.507 14.000,16.367 14.000,15.000 C14.000,13.343 15.343,12.000 17.000,12.000 ZM17.000,16.000 C17.552,16.000 18.000,15.552 18.000,15.000 C18.000,14.448 17.552,14.000 17.000,14.000 C16.448,14.000 16.000,14.448 16.000,15.000 C16.000,15.552 16.448,16.000 17.000,16.000 ZM8.000,18.000 C6.343,18.000 5.000,16.657 5.000,15.000 C5.000,13.343 6.343,12.000 8.000,12.000 C9.657,12.000 11.000,13.343 11.000,15.000 C11.000,16.657 9.657,18.000 8.000,18.000 ZM8.000,14.000 C7.448,14.000 7.000,14.448 7.000,15.000 C7.000,15.552 7.448,16.000 8.000,16.000 C8.552,16.000 9.000,15.552 9.000,15.000 C9.000,14.448 8.552,14.000 8.000,14.000 ZM8.000,27.000 C6.343,27.000 5.000,25.657 5.000,24.000 C5.000,22.343 6.343,21.000 8.000,21.000 C9.657,21.000 11.000,22.343 11.000,24.000 C11.000,25.657 9.657,27.000 8.000,27.000 ZM8.000,23.000 C7.448,23.000 7.000,23.448 7.000,24.000 C7.000,24.552 7.448,25.000 8.000,25.000 C8.552,25.000 9.000,24.552 9.000,24.000 C9.000,23.448 8.552,23.000 8.000,23.000 ZM32.000,7.000 C32.000,5.896 31.105,5.000 30.000,5.000 C30.000,5.000 29.000,5.000 29.000,5.000 C29.000,6.657 27.657,8.000 26.000,8.000 C24.343,8.000 23.000,6.657 23.000,5.000 C23.000,5.000 20.000,5.000 20.000,5.000 C20.000,6.657 18.657,8.000 17.000,8.000 C15.343,8.000 14.000,6.657 14.000,5.000 C14.000,5.000 11.000,5.000 11.000,5.000 C11.000,6.657 9.657,8.000 8.000,8.000 C6.343,8.000 5.000,6.657 5.000,5.000 C5.000,5.000 4.000,5.000 4.000,5.000 C2.896,5.000 2.000,5.896 2.000,7.000 C2.000,7.000 2.000,32.000 2.000,32.000 C2.000,33.105 2.896,34.000 4.000,34.000 C4.000,34.000 13.002,34.000 13.002,34.000 C13.377,34.700 13.809,35.363 14.274,36.000 C14.274,36.000 4.000,36.000 4.000,36.000 C1.791,36.000 -0.000,34.209 -0.000,32.000 C-0.000,32.000 -0.000,7.000 -0.000,7.000 C-0.000,4.791 1.791,3.000 4.000,3.000 C4.000,3.000 5.000,3.000 5.000,3.000 C5.000,1.343 6.343,-0.000 8.000,-0.000 C9.657,-0.000 11.000,1.343 11.000,3.000 C11.000,3.000 14.000,3.000 14.000,3.000 C14.000,1.343 15.343,-0.000 17.000,-0.000 C18.657,-0.000 20.000,1.343 20.000,3.000 C20.000,3.000 23.000,3.000 23.000,3.000 C23.000,1.343 24.343,-0.000 26.000,-0.000 C27.657,-0.000 29.000,1.343 29.000,3.000 C29.000,3.000 30.000,3.000 30.000,3.000 C32.209,3.000 34.000,4.791 34.000,7.000 C34.000,7.000 34.000,13.521 34.000,13.521 C33.352,13.227 32.688,12.962 32.000,12.750 C32.000,12.750 32.000,7.000 32.000,7.000 ZM9.000,3.000 C9.000,2.448 8.553,2.000 8.000,2.000 C7.448,2.000 7.000,2.448 7.000,3.000 C7.000,3.000 7.000,5.000 7.000,5.000 C7.000,5.552 7.448,6.000 8.000,6.000 C8.553,6.000 9.000,5.552 9.000,5.000 C9.000,5.000 9.000,3.000 9.000,3.000 ZM18.000,3.000 C18.000,2.448 17.552,2.000 17.000,2.000 C16.448,2.000 16.000,2.448 16.000,3.000 C16.000,3.000 16.000,5.000 16.000,5.000 C16.000,5.552 16.448,6.000 17.000,6.000 C17.552,6.000 18.000,5.552 18.000,5.000 C18.000,5.000 18.000,3.000 18.000,3.000 ZM27.000,3.000 C27.000,2.448 26.552,2.000 26.000,2.000 C25.448,2.000 25.000,2.448 25.000,3.000 C25.000,3.000 25.000,5.000 25.000,5.000 C25.000,5.552 25.448,6.000 26.000,6.000 C26.552,6.000 27.000,5.552 27.000,5.000 C27.000,5.000 27.000,3.000 27.000,3.000 Z"/></g></svg>