<?xml version="1.0" encoding="utf-8"?> <!-- Generated by Layerhero SVG Exporter: http://www.layerhero.com/photoshop-svg-exporter --><!DOCTYPE svg PUBLIC "-//W3C//DTD SVG 1.1//EN" "http://www.w3.org/Graphics/SVG/1.1/DTD/svg11.dtd"><svg version="1.1" baseProfile="full" xmlns="http://www.w3.org/2000/svg" xmlns:xlink="http://www.w3.org/1999/xlink" xmlns:ev="http://www.w3.org/2001/xml-events" width="38" height="40" viewBox="0 0 38 40"><g transform="scale(NaN)" ><path fill-rule="evenodd"  fill="rgb( 133, 155, 187 )" d="M34.546,40.000 C34.546,40.000 3.454,40.000 3.454,40.000 C1.547,40.000 0.000,38.476 0.000,36.596 C0.000,36.596 0.000,6.957 0.000,6.957 C0.000,5.077 2.092,3.000 4.000,3.000 C4.000,3.000 7.000,3.000 7.000,3.000 C7.000,3.000 7.000,3.000 7.000,3.000 C7.000,1.590 8.569,-0.000 10.000,-0.000 C11.431,-0.000 13.000,1.590 13.000,3.000 C13.000,3.000 13.000,3.000 13.000,3.000 C13.000,3.000 16.000,3.000 16.000,3.000 C16.000,3.000 16.000,3.000 16.000,3.000 C16.000,1.590 17.569,-0.000 19.000,-0.000 C20.431,-0.000 22.000,1.590 22.000,3.000 C22.000,3.000 22.000,3.000 22.000,3.000 C22.000,3.000 25.000,3.000 25.000,3.000 C25.000,3.000 25.000,3.000 25.000,3.000 C25.000,1.590 26.569,-0.000 28.000,-0.000 C29.431,-0.000 31.000,1.590 31.000,3.000 C31.000,3.000 31.000,3.000 31.000,3.000 C31.000,3.000 34.000,3.000 34.000,3.000 C35.908,3.000 38.000,5.077 38.000,6.957 C38.000,6.957 38.000,36.596 38.000,36.596 C38.000,38.476 36.454,40.000 34.546,40.000 ZM11.000,3.000 C11.000,2.530 10.477,2.000 10.000,2.000 C9.523,2.000 9.000,2.530 9.000,3.000 C9.000,3.000 9.000,5.000 9.000,5.000 C9.000,5.470 9.523,6.000 10.000,6.000 C10.477,6.000 11.000,5.470 11.000,5.000 C11.000,5.000 11.000,3.000 11.000,3.000 ZM20.000,3.000 C20.000,2.530 19.477,2.000 19.000,2.000 C18.523,2.000 18.000,2.530 18.000,3.000 C18.000,3.000 18.000,5.000 18.000,5.000 C18.000,5.470 18.523,6.106 19.000,6.106 C19.477,6.106 20.000,5.470 20.000,5.000 C20.000,5.000 20.000,3.000 20.000,3.000 ZM29.000,3.000 C29.000,2.530 28.477,2.000 28.000,2.000 C27.523,2.000 27.000,2.530 27.000,3.000 C27.000,3.000 27.000,5.000 27.000,5.000 C27.000,5.470 27.523,6.000 28.000,6.000 C28.477,6.000 29.000,5.470 29.000,5.000 C29.000,5.000 29.000,3.000 29.000,3.000 ZM36.000,7.000 C36.000,6.060 34.954,5.000 34.000,5.000 C34.000,5.000 31.000,5.000 31.000,5.000 C31.000,6.410 29.431,8.000 28.000,8.000 C26.569,8.000 25.046,6.666 25.046,5.256 C25.046,5.256 22.000,5.000 22.000,5.000 C22.000,6.410 20.431,7.809 19.000,7.809 C17.569,7.809 16.000,6.410 16.000,5.000 C16.000,5.000 13.000,5.000 13.000,5.000 C13.000,6.410 11.431,8.000 10.000,8.000 C8.569,8.000 7.000,6.410 7.000,5.000 C7.000,5.000 4.000,5.000 4.000,5.000 C3.046,5.000 2.000,6.060 2.000,7.000 C2.000,7.000 2.000,11.000 2.000,11.000 C2.000,11.000 36.000,11.000 36.000,11.000 C36.000,11.000 36.000,7.000 36.000,7.000 ZM36.000,13.000 C36.000,13.000 2.000,13.000 2.000,13.000 C2.000,13.000 2.000,36.000 2.000,36.000 C2.000,36.940 3.046,38.000 4.000,38.000 C4.000,38.000 34.000,38.000 34.000,38.000 C34.954,38.000 36.000,36.940 36.000,36.000 C36.000,36.000 36.000,13.000 36.000,13.000 Z"/><path fill-rule="evenodd"  fill="rgb( 133, 155, 187 )" d="M27.128,29.885 C27.128,29.885 27.128,33.000 27.128,33.000 C27.128,33.000 24.892,33.000 24.892,33.000 C24.892,33.000 24.892,29.885 24.892,29.885 C24.892,29.885 18.368,29.885 18.368,29.885 C18.368,29.885 18.368,28.117 18.368,28.117 C18.368,28.117 24.892,18.684 24.892,18.684 C24.892,18.684 27.128,18.684 27.128,18.684 C27.128,18.684 27.128,27.980 27.128,27.980 C27.128,27.980 29.052,27.980 29.052,27.980 C29.052,27.980 29.052,29.885 29.052,29.885 C29.052,29.885 27.128,29.885 27.128,29.885 ZM24.911,21.262 C24.729,21.691 24.443,22.212 24.052,22.824 C24.052,22.824 20.507,27.980 20.507,27.980 C20.507,27.980 24.892,27.980 24.892,27.980 C24.892,27.980 24.892,24.396 24.892,24.396 C24.892,23.121 24.924,22.076 24.989,21.262 C24.989,21.262 24.911,21.262 24.911,21.262 ZM12.586,23.781 C12.586,22.681 12.612,21.809 12.664,21.164 C12.514,21.320 12.330,21.493 12.112,21.682 C11.894,21.871 11.163,22.469 9.920,23.479 C9.920,23.479 8.767,22.023 8.767,22.023 C8.767,22.023 12.967,18.723 12.967,18.723 C12.967,18.723 14.881,18.723 14.881,18.723 C14.881,18.723 14.881,33.000 14.881,33.000 C14.881,33.000 12.586,33.000 12.586,33.000 C12.586,33.000 12.586,23.781 12.586,23.781 Z"/></g></svg>