<?xml version="1.0" encoding="utf-8"?> <!-- Generated by Layerhero SVG Exporter: http://www.layerhero.com/photoshop-svg-exporter --><!DOCTYPE svg PUBLIC "-//W3C//DTD SVG 1.1//EN" "http://www.w3.org/Graphics/SVG/1.1/DTD/svg11.dtd"><svg version="1.1" baseProfile="full" xmlns="http://www.w3.org/2000/svg" xmlns:xlink="http://www.w3.org/1999/xlink" xmlns:ev="http://www.w3.org/2001/xml-events" width="34" height="40" viewBox="0 0 34 40"><g transform="scale(NaN)" ><path fill-rule="evenodd"  fill="rgb( 133, 155, 187 )" d="M29.143,40.000 C29.143,40.000 4.857,40.000 4.857,40.000 C2.175,40.000 0.000,37.762 0.000,35.000 C0.000,35.000 0.000,10.000 0.000,10.000 C0.000,7.239 2.175,5.000 4.857,5.000 C4.857,5.000 9.000,5.000 9.000,5.000 C9.000,5.000 9.000,3.000 9.000,3.000 C9.000,3.000 12.000,3.000 12.000,3.000 C13.052,1.512 14.758,-0.000 17.000,-0.000 C19.242,-0.000 20.948,1.512 22.000,3.000 C22.000,3.000 25.000,3.000 25.000,3.000 C25.000,3.000 25.000,5.000 25.000,5.000 C25.000,5.000 29.143,5.000 29.143,5.000 C31.825,5.000 34.000,7.239 34.000,10.000 C34.000,10.000 34.000,35.000 34.000,35.000 C34.000,37.762 31.825,40.000 29.143,40.000 ZM23.071,5.000 C23.071,5.000 20.373,5.000 20.373,5.000 C20.373,3.619 18.863,2.000 17.000,2.000 C15.137,2.000 13.627,3.619 13.627,5.000 C13.627,5.000 10.929,5.000 10.929,5.000 C10.929,5.000 10.929,10.000 10.929,10.000 C10.929,10.000 23.071,10.000 23.071,10.000 C23.071,10.000 23.071,5.000 23.071,5.000 ZM32.000,10.000 C32.000,8.620 30.341,7.000 29.000,7.000 C29.000,7.000 25.000,7.000 25.000,7.000 C25.000,7.000 25.000,12.000 25.000,12.000 C25.000,12.000 9.000,12.000 9.000,12.000 C9.000,12.000 9.000,7.000 9.000,7.000 C9.000,7.000 5.000,7.000 5.000,7.000 C3.659,7.000 2.000,8.620 2.000,10.000 C2.000,10.000 2.000,35.000 2.000,35.000 C2.000,36.381 3.659,38.000 5.000,38.000 C5.000,38.000 29.000,38.000 29.000,38.000 C30.341,38.000 32.000,36.381 32.000,35.000 C32.000,35.000 32.000,10.000 32.000,10.000 Z"/><path fill-rule="evenodd"  fill="rgb( 133, 155, 187 )" d="M26.622,20.173 C26.622,20.173 14.979,31.627 14.979,31.627 C14.979,31.627 14.979,31.627 14.979,31.627 C14.745,31.858 14.422,32.000 14.066,32.000 C13.710,32.000 13.387,31.858 13.154,31.627 C13.154,31.627 13.154,31.627 13.154,31.627 C13.154,31.627 7.378,25.943 7.378,25.943 C7.378,25.943 7.378,25.943 7.378,25.943 C7.144,25.712 7.000,25.394 7.000,25.042 C7.000,24.340 7.578,23.770 8.290,23.770 C8.647,23.770 8.969,23.912 9.203,24.143 C9.203,24.143 9.203,24.143 9.203,24.143 C9.203,24.143 14.410,29.370 14.410,29.370 C14.410,29.370 24.797,18.373 24.797,18.373 C24.797,18.373 24.797,18.373 24.797,18.373 C25.031,18.143 25.353,18.000 25.710,18.000 C26.422,18.000 27.000,18.570 27.000,19.273 C27.000,19.625 26.855,19.943 26.622,20.173 C26.622,20.173 26.622,20.173 26.622,20.173 ZM26.570,18.000 C26.570,18.000 26.570,18.000 26.570,18.000 C26.570,18.000 26.570,18.000 26.570,18.000 C26.570,18.000 26.570,18.000 26.570,18.000 Z"/></g></svg>