<?xml version="1.0" encoding="utf-8"?> <!-- Generated by Layerhero SVG Exporter: http://www.layerhero.com/photoshop-svg-exporter --><!DOCTYPE svg PUBLIC "-//W3C//DTD SVG 1.1//EN" "http://www.w3.org/Graphics/SVG/1.1/DTD/svg11.dtd"><svg version="1.1" baseProfile="full" xmlns="http://www.w3.org/2000/svg" xmlns:xlink="http://www.w3.org/1999/xlink" xmlns:ev="http://www.w3.org/2001/xml-events" width="40" height="40" viewBox="0 0 40 40"><g transform="scale(NaN)" ><path fill-rule="evenodd"  fill="rgb( 133, 155, 187 )" d="M20.000,40.000 C8.954,40.000 0.000,31.046 0.000,20.000 C0.000,8.954 8.954,0.000 20.000,0.000 C31.046,0.000 40.000,8.954 40.000,20.000 C40.000,31.046 31.046,40.000 20.000,40.000 ZM20.000,2.000 C9.915,2.000 2.000,9.915 2.000,20.000 C2.000,30.085 9.915,38.000 20.000,38.000 C30.085,38.000 38.000,30.085 38.000,20.000 C38.000,9.915 30.085,2.000 20.000,2.000 Z"/><path fill-rule="evenodd"  fill="rgb( 133, 155, 187 )" d="M30.142,27.000 C30.142,27.000 30.142,18.242 30.142,18.242 C30.142,17.197 30.167,16.368 30.216,15.756 C30.074,15.904 29.899,16.068 29.692,16.248 C29.485,16.427 28.791,16.996 27.609,17.955 C27.609,17.955 26.515,16.572 26.515,16.572 C26.515,16.572 30.504,13.437 30.504,13.437 C30.504,13.437 32.322,13.437 32.322,13.437 C32.322,13.437 32.322,27.000 32.322,27.000 C32.322,27.000 30.142,27.000 30.142,27.000 ZM21.835,18.242 C21.835,17.197 21.860,16.368 21.909,15.756 C21.767,15.904 21.592,16.068 21.385,16.248 C21.178,16.427 20.484,16.996 19.302,17.955 C19.302,17.955 18.208,16.572 18.208,16.572 C18.208,16.572 22.197,13.437 22.197,13.437 C22.197,13.437 24.015,13.437 24.015,13.437 C24.015,13.437 24.015,27.000 24.015,27.000 C24.015,27.000 21.835,27.000 21.835,27.000 C21.835,27.000 21.835,18.242 21.835,18.242 ZM12.612,27.186 C10.559,27.186 8.976,26.578 7.862,25.363 C6.749,24.147 6.192,22.433 6.192,20.218 C6.192,18.035 6.820,16.326 8.076,15.093 C9.331,13.859 11.060,13.242 13.262,13.242 C14.678,13.242 16.020,13.514 17.288,14.058 C17.288,14.058 16.509,15.904 16.509,15.904 C15.408,15.397 14.307,15.144 13.206,15.144 C11.759,15.144 10.614,15.598 9.773,16.507 C8.932,17.417 8.512,18.660 8.512,20.237 C8.512,21.894 8.890,23.155 9.648,24.017 C10.406,24.880 11.496,25.312 12.918,25.312 C13.636,25.312 14.403,25.222 15.219,25.042 C15.219,25.042 15.219,21.545 15.219,21.545 C15.219,21.545 12.408,21.545 12.408,21.545 C12.408,21.545 12.408,19.643 12.408,19.643 C12.408,19.643 17.399,19.643 17.399,19.643 C17.399,19.643 17.399,26.453 17.399,26.453 C16.583,26.719 15.799,26.907 15.048,27.019 C14.296,27.130 13.484,27.186 12.612,27.186 Z"/></g></svg>