<?xml version="1.0" encoding="utf-8"?> <!-- Generated by Layerhero SVG Exporter: http://www.layerhero.com/photoshop-svg-exporter --><!DOCTYPE svg PUBLIC "-//W3C//DTD SVG 1.1//EN" "http://www.w3.org/Graphics/SVG/1.1/DTD/svg11.dtd"><svg version="1.1" baseProfile="full" xmlns="http://www.w3.org/2000/svg" xmlns:xlink="http://www.w3.org/1999/xlink" xmlns:ev="http://www.w3.org/2001/xml-events" width="40" height="40" viewBox="0 0 40 40"><g transform="scale(NaN)" ><path fill-rule="evenodd"  fill="rgb( 119, 139, 171 )" d="M20.000,40.000 C8.955,40.000 0.000,31.046 0.000,20.000 C0.000,8.954 8.955,-0.000 20.000,-0.000 C31.046,-0.000 40.000,8.954 40.000,20.000 C40.000,31.046 31.046,40.000 20.000,40.000 ZM20.000,2.000 C9.915,2.000 2.000,9.915 2.000,20.000 C2.000,30.085 9.915,38.000 20.000,38.000 C30.085,38.000 38.000,30.085 38.000,20.000 C38.000,9.915 30.085,2.000 20.000,2.000 ZM36.105,23.644 C35.776,23.170 35.474,22.672 35.188,22.186 C34.070,20.284 33.286,19.131 31.831,19.131 C30.374,19.131 29.591,20.284 28.472,22.186 C27.397,24.014 26.530,26.000 24.000,26.000 C21.472,26.000 19.903,24.014 18.828,22.186 C17.711,20.284 16.455,19.000 15.000,19.000 C13.545,19.000 13.234,20.284 12.117,22.186 C11.042,24.014 9.529,26.000 7.000,26.000 C5.619,26.000 4.930,25.460 4.141,24.600 C3.768,23.315 3.555,21.965 3.507,20.571 C3.656,20.812 3.800,21.054 3.940,21.293 C5.057,23.194 5.546,24.000 7.000,24.000 C8.455,24.000 9.533,23.194 10.651,21.293 C11.725,19.464 12.471,17.000 15.000,17.000 C17.528,17.000 19.219,19.464 20.294,21.293 C21.411,23.194 22.545,24.000 24.000,24.000 C25.456,24.000 25.889,23.194 27.007,21.293 C28.082,19.464 29.471,17.000 32.000,17.000 C34.390,17.000 35.438,19.240 36.472,20.987 C36.418,21.894 36.299,22.782 36.105,23.644 Z"/></g></svg>