<?xml version="1.0" encoding="utf-8"?> <!-- Generated by Layerhero SVG Exporter: http://www.layerhero.com/photoshop-svg-exporter --><!DOCTYPE svg PUBLIC "-//W3C//DTD SVG 1.1//EN" "http://www.w3.org/Graphics/SVG/1.1/DTD/svg11.dtd"><svg version="1.1" baseProfile="full" xmlns="http://www.w3.org/2000/svg" xmlns:xlink="http://www.w3.org/1999/xlink" xmlns:ev="http://www.w3.org/2001/xml-events" width="40" height="40" viewBox="0 0 40 40"><g transform="scale(NaN)" ><path fill-rule="evenodd"  fill="rgb( 133, 155, 187 )" d="M20.000,40.000 C8.954,40.000 -0.000,31.046 -0.000,20.000 C-0.000,8.954 8.954,0.000 20.000,0.000 C31.046,0.000 40.000,8.954 40.000,20.000 C40.000,31.046 31.046,40.000 20.000,40.000 ZM34.495,29.786 C36.170,27.318 37.776,24.151 38.000,21.000 C38.000,21.000 27.000,21.000 27.000,21.000 C26.938,23.324 27.188,25.843 26.819,28.010 C29.527,28.394 32.101,28.991 34.495,29.786 ZM15.000,21.000 C15.067,23.200 15.325,25.616 15.702,27.695 C17.108,27.572 18.540,27.500 20.000,27.500 C21.460,27.500 22.892,27.572 24.299,27.695 C24.676,25.616 24.933,23.200 25.000,21.000 C25.000,21.000 15.000,21.000 15.000,21.000 ZM25.000,19.000 C24.933,16.799 24.676,14.384 24.299,12.304 C22.892,12.428 21.460,12.500 20.000,12.500 C18.540,12.500 17.108,12.428 15.702,12.304 C15.325,14.384 15.067,16.799 15.000,19.000 C15.000,19.000 25.000,19.000 25.000,19.000 ZM32.773,31.942 C30.733,31.298 28.577,30.805 26.330,30.474 C25.806,32.764 23.833,35.990 23.000,38.000 C26.299,37.166 30.518,34.346 32.773,31.942 ZM18.786,37.439 C19.189,37.466 19.590,38.000 20.000,38.000 C20.410,38.000 20.811,37.466 21.214,37.439 C22.278,35.223 23.138,32.758 23.777,30.143 C22.534,30.034 21.274,29.969 20.000,29.969 C18.725,29.969 17.243,29.892 16.000,30.000 C16.639,32.615 17.722,35.223 18.786,37.439 ZM17.000,38.000 C16.167,35.990 14.194,32.764 13.670,30.474 C11.423,30.805 9.041,31.356 7.000,32.000 C9.255,34.404 13.701,37.166 17.000,38.000 ZM13.181,28.010 C12.812,25.843 13.062,23.324 13.000,21.000 C13.000,21.000 2.000,21.000 2.000,21.000 C2.224,24.151 3.325,27.532 5.000,30.000 C7.394,29.204 10.473,28.394 13.181,28.010 ZM5.000,10.000 C3.325,12.468 2.224,15.848 2.000,19.000 C2.000,19.000 13.000,19.000 13.000,19.000 C13.062,16.676 12.812,14.157 13.181,11.990 C10.473,11.606 7.394,10.796 5.000,10.000 ZM7.000,8.000 C9.041,8.644 11.423,9.195 13.670,9.526 C14.194,7.236 16.167,4.010 17.000,2.000 C13.701,2.834 9.255,5.596 7.000,8.000 ZM21.214,2.561 C20.811,2.534 20.410,2.000 20.000,2.000 C19.590,2.000 19.189,2.534 18.786,2.561 C17.722,4.777 16.862,7.242 16.223,9.857 C17.466,9.966 18.725,10.031 20.000,10.031 C21.274,10.031 22.534,9.966 23.777,9.857 C23.138,7.242 22.278,4.777 21.214,2.561 ZM23.000,2.000 C23.833,4.010 25.806,7.236 26.330,9.526 C28.577,9.195 30.733,8.703 32.773,8.058 C30.518,5.655 26.299,2.834 23.000,2.000 ZM26.819,11.990 C27.188,14.157 26.938,16.676 27.000,19.000 C27.000,19.000 38.000,19.000 38.000,19.000 C37.776,15.848 36.170,12.681 34.495,10.214 C32.101,11.010 29.527,11.606 26.819,11.990 Z"/></g></svg>