<?xml version="1.0" encoding="utf-8"?> <!-- Generated by Layerhero SVG Exporter: http://www.layerhero.com/photoshop-svg-exporter --><!DOCTYPE svg PUBLIC "-//W3C//DTD SVG 1.1//EN" "http://www.w3.org/Graphics/SVG/1.1/DTD/svg11.dtd"><svg version="1.1" baseProfile="full" xmlns="http://www.w3.org/2000/svg" xmlns:xlink="http://www.w3.org/1999/xlink" xmlns:ev="http://www.w3.org/2001/xml-events" width="40" height="40" viewBox="0 0 40 40"><g transform="scale(NaN)" ><path fill-rule="evenodd"  fill="rgb( 133, 155, 187 )" d="M36.000,34.000 C36.000,34.000 32.000,34.000 32.000,34.000 C32.000,34.000 32.000,32.000 32.000,32.000 C32.000,32.000 36.000,32.000 36.000,32.000 C37.105,32.000 38.000,31.104 38.000,30.000 C38.000,30.000 38.000,12.000 38.000,12.000 C38.000,12.000 32.000,12.000 32.000,12.000 C29.791,12.000 28.000,10.209 28.000,8.000 C28.000,8.000 28.000,2.000 28.000,2.000 C28.000,2.000 14.000,2.000 14.000,2.000 C12.896,2.000 12.000,2.895 12.000,4.000 C12.000,4.000 10.000,4.000 10.000,4.000 C10.000,1.791 11.791,-0.000 14.000,-0.000 C14.000,-0.000 17.683,-0.000 25.000,-0.000 C24.062,-0.000 30.000,-0.000 30.000,-0.000 C30.000,-0.000 40.000,10.000 40.000,10.000 C40.000,10.000 40.000,30.000 40.000,30.000 C40.000,32.209 38.209,34.000 36.000,34.000 ZM30.000,3.000 C30.000,3.000 30.000,8.000 30.000,8.000 C30.000,9.105 30.895,10.000 32.000,10.000 C32.000,10.000 37.000,10.000 37.000,10.000 C37.000,10.000 30.000,3.000 30.000,3.000 ZM20.000,6.000 C20.000,6.000 30.000,16.000 30.000,16.000 C30.000,16.000 30.000,36.000 30.000,36.000 C30.000,38.209 28.209,40.000 26.000,40.000 C26.000,40.000 4.000,40.000 4.000,40.000 C1.791,40.000 -0.000,38.209 -0.000,36.000 C-0.000,36.000 -0.000,10.000 -0.000,10.000 C-0.000,7.791 1.791,6.000 4.000,6.000 C4.000,6.000 20.000,6.000 20.000,6.000 ZM20.000,9.000 C20.000,9.000 20.000,14.000 20.000,14.000 C20.000,15.105 20.895,16.000 22.000,16.000 C22.000,16.000 27.000,16.000 27.000,16.000 C27.000,16.000 20.000,9.000 20.000,9.000 ZM2.000,10.000 C2.000,10.000 2.000,36.000 2.000,36.000 C2.000,37.105 2.896,38.000 4.000,38.000 C4.000,38.000 26.000,38.000 26.000,38.000 C27.105,38.000 28.000,37.105 28.000,36.000 C28.000,36.000 28.000,18.000 28.000,18.000 C28.000,18.000 22.000,18.000 22.000,18.000 C19.791,18.000 18.000,16.209 18.000,14.000 C18.000,14.000 18.000,8.000 18.000,8.000 C18.000,8.000 4.000,8.000 4.000,8.000 C2.896,8.000 2.000,8.895 2.000,10.000 ZM6.000,19.000 C6.000,19.000 14.000,19.000 14.000,19.000 C14.000,19.000 14.000,21.000 14.000,21.000 C14.000,21.000 6.000,21.000 6.000,21.000 C6.000,21.000 6.000,19.000 6.000,19.000 ZM6.000,13.000 C6.000,13.000 14.000,13.000 14.000,13.000 C14.000,13.000 14.000,15.000 14.000,15.000 C14.000,15.000 6.000,15.000 6.000,15.000 C6.000,15.000 6.000,13.000 6.000,13.000 ZM24.000,27.000 C24.000,27.000 6.000,27.000 6.000,27.000 C6.000,27.000 6.000,25.000 6.000,25.000 C6.000,25.000 24.000,25.000 24.000,25.000 C24.000,25.000 24.000,27.000 24.000,27.000 ZM24.000,33.000 C24.000,33.000 6.000,33.000 6.000,33.000 C6.000,33.000 6.000,31.000 6.000,31.000 C6.000,31.000 24.000,31.000 24.000,31.000 C24.000,31.000 24.000,33.000 24.000,33.000 Z"/></g></svg>