<?xml version="1.0" encoding="utf-8"?> <!-- Generated by Layerhero SVG Exporter: http://www.layerhero.com/photoshop-svg-exporter --><!DOCTYPE svg PUBLIC "-//W3C//DTD SVG 1.1//EN" "http://www.w3.org/Graphics/SVG/1.1/DTD/svg11.dtd"><svg version="1.1" baseProfile="full" xmlns="http://www.w3.org/2000/svg" xmlns:xlink="http://www.w3.org/1999/xlink" xmlns:ev="http://www.w3.org/2001/xml-events" width="40" height="40" viewBox="0 0 40 40"><g transform="scale(NaN)" ><path fill-rule="evenodd"  fill="rgb( 133, 155, 187 )" d="M0.000,40.000 C0.000,40.000 0.000,34.000 0.000,34.000 C0.000,34.000 40.000,34.000 40.000,34.000 C40.000,34.000 40.000,40.000 40.000,40.000 C40.000,40.000 0.000,40.000 0.000,40.000 ZM38.000,36.000 C38.000,36.000 2.000,36.000 2.000,36.000 C2.000,36.000 2.000,38.000 2.000,38.000 C2.000,38.000 38.000,38.000 38.000,38.000 C38.000,38.000 38.000,36.000 38.000,36.000 Z"/><path fill-rule="evenodd"  fill="rgb( 133, 155, 187 )" d="M0.000,15.000 C0.000,15.000 40.000,15.000 40.000,15.000 C40.000,15.000 40.000,17.000 40.000,17.000 C40.000,17.000 0.000,17.000 0.000,17.000 C0.000,17.000 0.000,15.000 0.000,15.000 Z"/><path fill-rule="evenodd"  fill="rgb( 133, 155, 187 )" d="M4.000,34.000 C4.000,34.000 4.000,21.000 4.000,21.000 C4.000,21.000 2.000,21.000 2.000,21.000 C2.000,21.000 2.000,19.000 2.000,19.000 C2.000,19.000 8.000,19.000 8.000,19.000 C8.000,19.000 8.000,21.000 8.000,21.000 C8.000,21.000 6.000,21.000 6.000,21.000 C6.000,21.000 6.000,34.000 6.000,34.000 C6.000,34.000 4.000,34.000 4.000,34.000 Z"/><path fill-rule="evenodd"  fill="rgb( 133, 155, 187 )" d="M14.000,34.000 C14.000,34.000 14.000,21.000 14.000,21.000 C14.000,21.000 12.000,21.000 12.000,21.000 C12.000,21.000 12.000,19.000 12.000,19.000 C12.000,19.000 18.000,19.000 18.000,19.000 C18.000,19.000 18.000,21.000 18.000,21.000 C18.000,21.000 16.000,21.000 16.000,21.000 C16.000,21.000 16.000,34.000 16.000,34.000 C16.000,34.000 14.000,34.000 14.000,34.000 Z"/><path fill-rule="evenodd"  fill="rgb( 133, 155, 187 )" d="M24.000,34.000 C24.000,34.000 24.000,21.000 24.000,21.000 C24.000,21.000 22.000,21.000 22.000,21.000 C22.000,21.000 22.000,19.000 22.000,19.000 C22.000,19.000 28.000,19.000 28.000,19.000 C28.000,19.000 28.000,21.000 28.000,21.000 C28.000,21.000 26.000,21.000 26.000,21.000 C26.000,21.000 26.000,34.000 26.000,34.000 C26.000,34.000 24.000,34.000 24.000,34.000 Z"/><path fill-rule="evenodd"  fill="rgb( 133, 155, 187 )" d="M34.000,34.000 C34.000,34.000 34.000,21.000 34.000,21.000 C34.000,21.000 32.000,21.000 32.000,21.000 C32.000,21.000 32.000,19.000 32.000,19.000 C32.000,19.000 38.000,19.000 38.000,19.000 C38.000,19.000 38.000,21.000 38.000,21.000 C38.000,21.000 36.000,21.000 36.000,21.000 C36.000,21.000 36.000,34.000 36.000,34.000 C36.000,34.000 34.000,34.000 34.000,34.000 Z"/><path fill-rule="evenodd"  fill="rgb( 133, 155, 187 )" d="M20.000,-0.000 C20.000,-0.000 0.000,11.000 0.000,11.000 C0.000,11.000 0.000,15.000 0.000,15.000 C0.000,15.000 2.000,15.000 2.000,15.000 C2.000,15.000 2.000,12.000 2.000,12.000 C2.000,12.000 20.000,2.000 20.000,2.000 C20.000,2.000 38.000,12.000 38.000,12.000 C38.000,12.000 38.000,15.000 38.000,15.000 C38.000,15.000 40.000,15.000 40.000,15.000 C40.000,15.000 40.000,11.000 40.000,11.000 C40.000,11.000 20.000,-0.000 20.000,-0.000 Z"/><path fill-rule="evenodd"  fill="rgb( 133, 155, 187 )" d="M20.000,13.000 C17.791,13.000 16.000,11.209 16.000,9.000 C16.000,6.791 17.791,5.000 20.000,5.000 C22.209,5.000 24.000,6.791 24.000,9.000 C24.000,11.209 22.209,13.000 20.000,13.000 ZM20.000,7.000 C18.895,7.000 18.000,7.895 18.000,9.000 C18.000,10.105 18.895,11.000 20.000,11.000 C21.105,11.000 22.000,10.105 22.000,9.000 C22.000,7.895 21.105,7.000 20.000,7.000 Z"/></g></svg>