<?xml version="1.0" encoding="utf-8"?> <!-- Generated by Layerhero SVG Exporter: http://www.layerhero.com/photoshop-svg-exporter --><!DOCTYPE svg PUBLIC "-//W3C//DTD SVG 1.1//EN" "http://www.w3.org/Graphics/SVG/1.1/DTD/svg11.dtd"><svg version="1.1" baseProfile="full" xmlns="http://www.w3.org/2000/svg" xmlns:xlink="http://www.w3.org/1999/xlink" xmlns:ev="http://www.w3.org/2001/xml-events" width="40" height="40" viewBox="0 0 40 40"><g transform="scale(NaN)" ><path fill-rule="evenodd"  fill="rgb( 133, 155, 187 )" d="M36.546,40.000 C36.546,40.000 3.455,40.000 3.455,40.000 C1.547,40.000 -0.000,38.476 -0.000,36.596 C-0.000,36.596 -0.000,6.957 -0.000,6.957 C-0.000,5.077 2.092,3.000 4.000,3.000 C4.000,3.000 7.000,3.000 7.000,3.000 C7.000,3.000 7.000,3.000 7.000,3.000 C7.000,1.590 8.569,-0.000 10.000,-0.000 C11.431,-0.000 13.000,1.590 13.000,3.000 C13.000,3.000 13.000,3.000 13.000,3.000 C13.000,3.000 17.000,3.000 17.000,3.000 C17.000,3.000 17.000,3.000 17.000,3.000 C17.000,1.590 18.569,-0.000 20.000,-0.000 C21.431,-0.000 23.000,1.590 23.000,3.000 C23.000,3.000 23.000,3.000 23.000,3.000 C23.000,3.000 27.000,3.000 27.000,3.000 C27.000,3.000 27.000,3.000 27.000,3.000 C27.000,1.590 28.569,-0.000 30.000,-0.000 C31.431,-0.000 33.000,1.590 33.000,3.000 C33.000,3.000 33.000,3.000 33.000,3.000 C33.000,3.000 36.000,3.000 36.000,3.000 C37.908,3.000 40.000,5.077 40.000,6.957 C40.000,6.957 40.000,36.596 40.000,36.596 C40.000,38.476 38.453,40.000 36.546,40.000 ZM11.000,3.000 C11.000,2.530 10.477,2.000 10.000,2.000 C9.523,2.000 9.000,2.530 9.000,3.000 C9.000,3.000 9.000,5.000 9.000,5.000 C9.000,5.470 9.523,6.000 10.000,6.000 C10.477,6.000 11.000,5.470 11.000,5.000 C11.000,5.000 11.000,3.000 11.000,3.000 ZM21.000,3.000 C21.000,2.530 20.477,2.000 20.000,2.000 C19.523,2.000 19.000,2.530 19.000,3.000 C19.000,3.000 19.000,5.000 19.000,5.000 C19.000,5.470 19.523,6.107 20.000,6.107 C20.477,6.107 21.000,5.470 21.000,5.000 C21.000,5.000 21.000,3.000 21.000,3.000 ZM31.000,3.000 C31.000,2.530 30.477,2.000 30.000,2.000 C29.523,2.000 29.000,2.530 29.000,3.000 C29.000,3.000 29.000,5.000 29.000,5.000 C29.000,5.470 29.523,6.000 30.000,6.000 C30.477,6.000 31.000,5.470 31.000,5.000 C31.000,5.000 31.000,3.000 31.000,3.000 ZM38.000,7.000 C38.000,6.060 36.954,5.000 36.000,5.000 C36.000,5.000 33.000,5.000 33.000,5.000 C33.000,6.410 31.431,8.000 30.000,8.000 C28.569,8.000 27.046,6.666 27.046,5.256 C27.046,5.256 23.000,5.000 23.000,5.000 C23.000,6.410 21.431,7.809 20.000,7.809 C18.569,7.809 17.000,6.410 17.000,5.000 C17.000,5.000 13.000,5.000 13.000,5.000 C13.000,6.410 11.431,8.000 10.000,8.000 C8.569,8.000 7.000,6.410 7.000,5.000 C7.000,5.000 4.000,5.000 4.000,5.000 C3.046,5.000 2.000,6.060 2.000,7.000 C2.000,7.000 2.000,11.000 2.000,11.000 C2.000,11.000 38.000,11.000 38.000,11.000 C38.000,11.000 38.000,7.000 38.000,7.000 ZM38.000,13.000 C38.000,13.000 2.000,13.000 2.000,13.000 C2.000,13.000 2.000,36.000 2.000,36.000 C2.000,36.940 3.046,38.000 4.000,38.000 C4.000,38.000 36.000,38.000 36.000,38.000 C36.954,38.000 38.000,36.940 38.000,36.000 C38.000,36.000 38.000,13.000 38.000,13.000 ZM30.000,33.000 C28.569,33.000 27.000,31.410 27.000,30.000 C27.000,28.590 28.569,27.000 30.000,27.000 C31.431,27.000 33.000,28.590 33.000,30.000 C33.000,31.410 31.431,33.000 30.000,33.000 ZM30.000,29.000 C29.523,29.000 29.000,29.530 29.000,30.000 C29.000,30.470 29.523,31.000 30.000,31.000 C30.477,31.000 31.000,30.470 31.000,30.000 C31.000,29.530 30.477,29.000 30.000,29.000 ZM30.000,24.000 C28.569,24.000 27.000,22.410 27.000,21.000 C27.000,19.590 28.569,18.000 30.000,18.000 C31.431,18.000 33.000,19.590 33.000,21.000 C33.000,22.410 31.431,24.000 30.000,24.000 ZM30.000,20.000 C29.523,20.000 29.000,20.530 29.000,21.000 C29.000,21.470 29.523,22.000 30.000,22.000 C30.477,22.000 31.000,21.470 31.000,21.000 C31.000,20.530 30.477,20.000 30.000,20.000 ZM20.000,33.000 C18.569,33.000 17.000,31.410 17.000,30.000 C17.000,28.590 18.569,27.000 20.000,27.000 C21.431,27.000 23.000,28.590 23.000,30.000 C23.000,31.410 21.431,33.000 20.000,33.000 ZM20.000,29.000 C19.523,29.000 19.000,29.530 19.000,30.000 C19.000,30.470 19.523,31.000 20.000,31.000 C20.477,31.000 21.000,30.470 21.000,30.000 C21.000,29.530 20.477,29.000 20.000,29.000 ZM20.000,24.000 C18.569,24.000 17.000,22.410 17.000,21.000 C17.000,19.590 18.569,17.872 20.000,17.872 C21.431,17.872 23.000,19.590 23.000,21.000 C23.000,22.410 21.431,24.000 20.000,24.000 ZM20.000,20.000 C19.523,20.000 19.000,20.530 19.000,21.000 C19.000,21.470 19.523,22.000 20.000,22.000 C20.477,22.000 21.000,21.470 21.000,21.000 C21.000,20.530 20.477,20.000 20.000,20.000 ZM10.000,33.000 C8.569,33.000 7.000,31.410 7.000,30.000 C7.000,28.590 8.569,27.000 10.000,27.000 C11.431,27.000 13.000,28.590 13.000,30.000 C13.000,31.410 11.431,33.000 10.000,33.000 ZM10.000,29.000 C9.523,29.000 9.000,29.530 9.000,30.000 C9.000,30.470 9.523,31.000 10.000,31.000 C10.477,31.000 11.000,30.470 11.000,30.000 C11.000,29.530 10.477,29.000 10.000,29.000 ZM10.000,24.000 C8.569,24.000 7.000,22.410 7.000,21.000 C7.000,19.590 8.569,18.000 10.000,18.000 C11.431,18.000 13.000,19.590 13.000,21.000 C13.000,22.410 11.431,24.000 10.000,24.000 ZM10.000,20.000 C9.523,20.000 9.000,20.530 9.000,21.000 C9.000,21.470 9.523,22.000 10.000,22.000 C10.477,22.000 11.000,21.470 11.000,21.000 C11.000,20.530 10.477,20.000 10.000,20.000 Z"/></g></svg>