<?xml version="1.0" encoding="utf-8"?> <!-- Generated by Layerhero SVG Exporter: http://www.layerhero.com/photoshop-svg-exporter --><!DOCTYPE svg PUBLIC "-//W3C//DTD SVG 1.1//EN" "http://www.w3.org/Graphics/SVG/1.1/DTD/svg11.dtd"><svg version="1.1" baseProfile="full" xmlns="http://www.w3.org/2000/svg" xmlns:xlink="http://www.w3.org/1999/xlink" xmlns:ev="http://www.w3.org/2001/xml-events" width="40" height="40" viewBox="0 0 40 40"><g transform="scale(NaN)" ><path fill-rule="evenodd"  fill="rgb( 255, 255, 255 )" d="M9.000,18.000 C9.000,18.000 9.000,35.000 9.000,35.000 C9.000,35.000 19.000,39.000 19.000,39.000 C19.000,39.000 32.000,39.000 32.000,39.000 C32.000,39.000 34.000,37.000 34.000,37.000 C34.000,37.000 33.000,34.000 33.000,34.000 C33.000,34.000 36.000,30.000 36.000,30.000 C36.000,30.000 35.000,28.000 35.000,28.000 C35.000,28.000 38.000,24.000 38.000,24.000 C38.000,24.000 37.000,22.000 37.000,22.000 C37.000,22.000 39.000,18.000 39.000,18.000 C39.000,18.000 37.000,16.000 37.000,16.000 C37.000,16.000 25.000,16.000 25.000,16.000 C25.000,16.000 26.000,6.000 26.000,6.000 C26.000,6.000 24.000,2.000 24.000,2.000 C24.000,2.000 20.000,2.000 20.000,2.000 C20.000,2.000 18.000,11.000 18.000,11.000 C18.000,11.000 15.000,16.000 15.000,16.000 C15.000,16.000 12.000,18.000 12.000,18.000 C12.000,18.000 9.000,18.000 9.000,18.000 Z"/><path fill-rule="evenodd"  fill="rgb( 0, 189, 156 )" d="M38.000,22.000 C40.000,26.328 36.000,28.000 36.000,28.000 C36.000,28.000 38.976,31.131 34.000,34.000 C38.000,38.000 32.000,40.000 32.000,40.000 C32.000,40.000 22.878,40.000 20.000,40.000 C17.122,40.000 8.000,36.000 8.000,36.000 C8.000,36.000 8.000,17.056 8.000,17.056 C8.000,17.056 8.786,17.000 10.000,17.000 C13.439,17.259 14.547,14.980 15.884,13.008 C18.435,9.245 18.178,3.957 19.000,1.000 C30.626,-4.294 26.000,15.000 26.000,15.000 C26.000,15.000 38.000,15.000 38.000,15.000 C38.000,15.000 42.482,17.204 38.000,22.000 ZM36.000,17.000 C36.000,17.000 25.000,17.000 23.000,17.000 C25.944,7.917 25.814,1.451 21.000,2.000 C17.453,20.000 12.000,19.000 12.000,19.000 C12.000,19.000 10.000,19.004 10.000,19.004 C10.000,19.004 9.000,34.000 9.000,34.000 C9.000,34.000 17.472,38.000 20.000,38.000 C22.528,38.000 30.000,38.000 30.000,38.000 C30.000,38.000 36.353,38.587 31.000,33.000 C37.182,32.428 34.000,27.000 34.000,27.000 C34.000,27.000 40.000,24.645 35.000,22.000 C41.235,17.673 36.000,17.000 36.000,17.000 Z"/><path fill-rule="evenodd"  fill="rgb( 0, 189, 156 )" d="M10.000,17.000 C10.000,17.000 10.000,40.000 10.000,40.000 C10.000,40.000 0.000,40.000 0.000,40.000 C0.000,40.000 0.000,15.000 0.000,15.000 C0.000,15.000 3.927,15.000 7.000,15.000 C10.073,15.000 10.000,17.000 10.000,17.000 ZM8.000,17.000 C8.000,17.000 2.000,17.000 2.000,17.000 C2.000,17.000 2.000,38.000 2.000,38.000 C2.000,38.000 8.000,38.000 8.000,38.000 C8.000,38.000 8.000,17.000 8.000,17.000 Z"/></g></svg>