<?xml version="1.0" encoding="utf-8"?> <!-- Generated by Layerhero SVG Exporter: http://www.layerhero.com/photoshop-svg-exporter --><!DOCTYPE svg PUBLIC "-//W3C//DTD SVG 1.1//EN" "http://www.w3.org/Graphics/SVG/1.1/DTD/svg11.dtd"><svg version="1.1" baseProfile="full" xmlns="http://www.w3.org/2000/svg" xmlns:xlink="http://www.w3.org/1999/xlink" xmlns:ev="http://www.w3.org/2001/xml-events" width="40" height="40" viewBox="0 0 40 40"><g transform="scale(NaN)" ><path fill-rule="evenodd"  fill="rgb( 255, 255, 255 )" d="M35.000,1.000 C35.000,1.000 16.000,20.000 16.000,20.000 C16.000,20.000 15.000,25.000 15.000,25.000 C15.000,25.000 20.000,24.000 20.000,24.000 C20.000,24.000 39.000,5.000 39.000,5.000 C39.000,5.000 38.000,3.000 38.000,3.000 C38.000,3.000 37.000,2.000 37.000,2.000 C37.000,2.000 35.000,1.000 35.000,1.000 Z"/><path fill-rule="evenodd"  fill="rgb( 44, 151, 222 )" d="M39.069,6.856 C39.069,6.856 35.692,9.619 35.692,9.619 C35.692,9.619 21.035,24.993 21.035,24.993 C21.035,24.993 20.732,24.993 20.732,24.993 C20.732,24.993 20.654,24.977 20.654,24.977 C20.654,24.977 14.469,27.161 14.469,27.161 C14.469,27.161 13.054,25.895 13.054,25.895 C13.054,25.895 14.982,19.348 14.982,19.348 C14.982,19.348 14.993,19.286 14.993,19.286 C14.993,19.286 14.993,18.927 14.993,18.927 C14.993,18.927 30.320,4.228 30.320,4.228 C30.320,4.228 33.196,0.841 33.196,0.841 C34.354,-0.322 36.389,-0.322 37.547,0.841 C37.547,0.841 39.069,2.367 39.069,2.367 C40.268,3.571 40.268,5.653 39.069,6.856 ZM15.777,24.457 C15.777,24.457 18.476,23.389 18.476,23.389 C18.476,23.389 16.677,21.584 16.677,21.584 C16.677,21.584 15.777,24.457 15.777,24.457 ZM17.658,19.658 C17.658,19.658 20.305,22.314 20.305,22.314 C20.305,22.314 33.923,8.573 33.923,8.573 C33.923,8.573 31.360,6.002 31.360,6.002 C31.360,6.002 17.658,19.658 17.658,19.658 ZM37.618,3.822 C37.618,3.822 36.097,2.295 36.097,2.295 C35.904,2.102 35.647,1.996 35.372,1.996 C35.096,1.996 34.839,2.102 34.646,2.295 C34.646,2.295 32.605,4.341 32.605,4.341 C32.605,4.341 35.577,7.324 35.577,7.324 C35.577,7.324 37.619,5.277 37.619,5.277 C38.019,4.876 38.019,4.223 37.618,3.822 ZM21.583,7.974 C21.583,7.974 18.466,7.974 18.466,7.974 C18.466,7.974 6.233,7.974 6.233,7.974 C6.233,7.974 4.957,7.974 4.957,7.974 C3.589,7.974 1.998,9.437 1.998,10.808 C1.998,10.808 1.998,35.462 1.998,35.462 C1.998,36.833 3.589,37.998 4.957,37.998 C4.957,37.998 29.547,37.998 29.547,37.998 C30.915,37.998 31.975,36.833 31.975,35.462 C31.975,35.462 31.975,33.140 31.975,33.140 C31.975,33.140 31.975,18.757 31.975,18.757 C31.975,18.757 31.975,17.715 31.975,17.715 C31.975,17.140 32.399,16.673 32.974,16.673 C33.548,16.673 33.973,17.140 33.973,17.715 C33.973,17.715 33.973,18.757 33.973,18.757 C33.973,18.757 33.973,33.140 33.973,33.140 C33.973,33.140 33.973,35.462 33.973,35.462 C33.973,38.205 32.281,40.000 29.547,40.000 C29.547,40.000 4.957,40.000 4.957,40.000 C2.224,40.000 -0.000,38.205 -0.000,35.462 C-0.000,35.462 -0.000,10.808 -0.000,10.808 C-0.000,8.065 2.224,5.972 4.957,5.972 C4.957,5.972 6.233,5.972 6.233,5.972 C6.233,5.972 18.466,5.972 18.466,5.972 C18.466,5.972 21.583,5.972 21.583,5.972 C22.158,5.972 22.623,6.398 22.623,6.974 C22.623,7.549 22.158,7.974 21.583,7.974 Z"/></g></svg>