<?xml version="1.0" encoding="utf-8"?> <!-- Generated by Layerhero SVG Exporter: http://www.layerhero.com/photoshop-svg-exporter --><!DOCTYPE svg PUBLIC "-//W3C//DTD SVG 1.1//EN" "http://www.w3.org/Graphics/SVG/1.1/DTD/svg11.dtd"><svg version="1.1" baseProfile="full" xmlns="http://www.w3.org/2000/svg" xmlns:xlink="http://www.w3.org/1999/xlink" xmlns:ev="http://www.w3.org/2001/xml-events" width="40" height="40" viewBox="0 0 40 40"><g transform="scale(NaN)" ><path fill-rule="evenodd"  fill="rgb( 255, 255, 255 )" d="M20.500,2.000 C30.717,2.000 39.000,10.283 39.000,20.500 C39.000,30.717 30.717,39.000 20.500,39.000 C10.283,39.000 2.000,30.717 2.000,20.500 C2.000,10.283 10.283,2.000 20.500,2.000 Z"/><path fill-rule="evenodd"  fill="rgb( 233, 75, 53 )" d="M5.858,34.142 C-1.953,26.331 -1.953,13.668 5.858,5.858 C13.668,-1.953 26.332,-1.953 34.142,5.858 C41.953,13.668 41.953,26.331 34.142,34.142 C26.332,41.952 13.668,41.952 5.858,34.142 ZM32.728,7.272 C25.894,0.438 14.106,0.438 7.272,7.272 C0.438,14.106 0.438,25.894 7.272,32.728 C14.106,39.562 25.894,39.562 32.728,32.728 C39.562,25.894 39.562,14.106 32.728,7.272 ZM32.021,33.435 C32.021,33.435 6.565,7.979 6.565,7.979 C6.565,7.979 7.979,6.565 7.979,6.565 C7.979,6.565 33.435,32.021 33.435,32.021 C33.435,32.021 32.021,33.435 32.021,33.435 Z"/></g></svg>