<?xml version="1.0" encoding="utf-8"?> <!-- Generated by Layerhero SVG Exporter: http://www.layerhero.com/photoshop-svg-exporter --><!DOCTYPE svg PUBLIC "-//W3C//DTD SVG 1.1//EN" "http://www.w3.org/Graphics/SVG/1.1/DTD/svg11.dtd"><svg version="1.1" baseProfile="full" xmlns="http://www.w3.org/2000/svg" xmlns:xlink="http://www.w3.org/1999/xlink" xmlns:ev="http://www.w3.org/2001/xml-events" width="40" height="40" viewBox="0 0 40 40"><g transform="scale(NaN)" ><path fill-rule="evenodd"  fill="rgb( 255, 255, 255 )" d="M20.500,2.000 C30.717,2.000 39.000,10.283 39.000,20.500 C39.000,30.717 30.717,39.000 20.500,39.000 C10.283,39.000 2.000,30.717 2.000,20.500 C2.000,10.283 10.283,2.000 20.500,2.000 Z"/><path fill-rule="evenodd"  fill="rgb( 30, 205, 110 )" d="M20.000,40.000 C8.955,40.000 0.000,31.046 0.000,20.000 C0.000,8.954 8.955,-0.000 20.000,-0.000 C31.046,-0.000 40.000,8.954 40.000,20.000 C40.000,31.046 31.046,40.000 20.000,40.000 ZM20.000,2.000 C10.000,2.000 2.000,10.000 2.000,20.000 C2.000,30.000 10.000,38.000 20.000,38.000 C30.000,38.000 38.000,30.000 38.000,20.000 C38.000,10.000 30.000,2.000 20.000,2.000 ZM29.622,15.173 C29.622,15.173 17.979,26.627 17.979,26.627 C17.979,26.627 17.979,26.627 17.979,26.627 C17.745,26.857 17.422,27.000 17.066,27.000 C16.710,27.000 16.387,26.857 16.154,26.627 C16.154,26.627 16.154,26.627 16.154,26.627 C16.154,26.627 10.378,20.942 10.378,20.942 C10.378,20.942 10.378,20.942 10.378,20.942 C10.144,20.712 10.000,20.394 10.000,20.042 C10.000,19.339 10.578,18.770 11.290,18.770 C11.647,18.770 11.969,18.912 12.203,19.142 C12.203,19.142 12.203,19.142 12.203,19.142 C12.203,19.142 17.410,24.370 17.410,24.370 C17.410,24.370 27.797,13.373 27.797,13.373 C27.797,13.373 27.797,13.373 27.797,13.373 C28.031,13.142 28.353,13.000 28.710,13.000 C29.422,13.000 30.000,13.570 30.000,14.273 C30.000,14.624 29.856,14.942 29.622,15.173 C29.622,15.173 29.622,15.173 29.622,15.173 ZM29.570,13.000 C29.570,13.000 29.570,13.000 29.570,13.000 C29.570,13.000 29.570,13.000 29.570,13.000 C29.570,13.000 29.570,13.000 29.570,13.000 Z"/></g></svg>