<?xml version="1.0" encoding="utf-8"?> <!-- Generated by Layerhero SVG Exporter: http://www.layerhero.com/photoshop-svg-exporter --><!DOCTYPE svg PUBLIC "-//W3C//DTD SVG 1.1//EN" "http://www.w3.org/Graphics/SVG/1.1/DTD/svg11.dtd"><svg version="1.1" baseProfile="full" xmlns="http://www.w3.org/2000/svg" xmlns:xlink="http://www.w3.org/1999/xlink" xmlns:ev="http://www.w3.org/2001/xml-events" width="40" height="32" viewBox="0 0 40 32"><g transform="scale(NaN)" ><path fill-rule="evenodd"  fill="rgb( 255, 255, 255 )" d="M31.000,14.000 C31.000,14.000 31.000,27.000 31.000,27.000 C31.000,27.000 26.000,30.000 26.000,30.000 C26.000,30.000 20.000,31.000 20.000,31.000 C20.000,31.000 14.000,30.000 14.000,30.000 C14.000,30.000 9.000,27.000 9.000,27.000 C9.000,27.000 9.000,14.000 9.000,14.000 C9.000,14.000 3.000,10.000 3.000,10.000 C3.000,10.000 20.000,1.000 20.000,1.000 C20.000,1.000 37.000,10.000 37.000,10.000 C37.000,10.000 31.000,14.000 31.000,14.000 Z"/><path fill-rule="evenodd"  fill="rgb( 51, 109, 205 )" d="M20.000,20.000 C20.000,20.000 0.000,10.000 0.000,10.000 C0.000,10.000 20.000,0.000 20.000,0.000 C20.000,0.000 40.000,10.000 40.000,10.000 C40.000,10.000 20.000,20.000 20.000,20.000 ZM4.000,10.000 C4.000,10.000 20.000,18.000 20.000,18.000 C20.000,18.000 36.000,10.000 36.000,10.000 C36.000,10.000 20.000,2.000 20.000,2.000 C20.000,2.000 4.000,10.000 4.000,10.000 Z"/><path fill-rule="evenodd"  fill="rgb( 51, 109, 205 )" d="M37.000,25.000 C35.343,25.000 34.000,23.657 34.000,22.000 C34.000,20.343 35.343,19.000 37.000,19.000 C38.657,19.000 40.000,20.343 40.000,22.000 C40.000,23.657 38.657,25.000 37.000,25.000 ZM37.000,20.500 C36.172,20.500 35.500,21.172 35.500,22.000 C35.500,22.828 36.172,23.500 37.000,23.500 C37.828,23.500 38.500,22.828 38.500,22.000 C38.500,21.172 37.828,20.500 37.000,20.500 Z"/><path fill-rule="evenodd"  fill="rgb( 51, 109, 205 )" d="M10.000,27.000 C10.000,27.000 10.000,14.000 10.000,14.000 C10.000,14.000 8.000,13.000 8.000,13.000 C8.000,13.000 8.000,28.000 8.000,28.000 C8.000,28.000 13.208,32.000 20.000,32.000 C26.791,32.000 32.000,28.000 32.000,28.000 C32.000,28.000 32.000,13.000 32.000,13.000 C32.000,13.000 30.000,14.000 30.000,14.000 C30.000,14.000 30.000,27.000 30.000,27.000 C30.000,27.000 24.959,30.000 19.939,30.000 C14.959,30.000 10.000,27.000 10.000,27.000 Z"/><path fill-rule="evenodd"  fill="rgb( 51, 109, 205 )" d="M36.000,10.000 C36.000,10.000 38.000,10.000 38.000,10.000 C38.000,10.000 38.000,20.000 38.000,20.000 C38.000,20.000 36.000,20.000 36.000,20.000 C36.000,20.000 36.000,10.000 36.000,10.000 Z"/></g></svg>