<?xml version="1.0" encoding="utf-8"?> <!-- Generated by Layerhero SVG Exporter: http://www.layerhero.com/photoshop-svg-exporter --><!DOCTYPE svg PUBLIC "-//W3C//DTD SVG 1.1//EN" "http://www.w3.org/Graphics/SVG/1.1/DTD/svg11.dtd"><svg version="1.1" baseProfile="full" xmlns="http://www.w3.org/2000/svg" xmlns:xlink="http://www.w3.org/1999/xlink" xmlns:ev="http://www.w3.org/2001/xml-events" width="32" height="40" viewBox="0 0 32 40"><g transform="scale(NaN)" ><path fill-rule="evenodd"  fill="rgb( 255, 255, 255 )" d="M7.000,5.000 C7.000,5.000 7.000,25.000 7.000,25.000 C7.000,25.000 21.000,25.000 21.000,25.000 C21.000,25.000 21.000,28.000 21.000,28.000 C21.000,28.000 22.000,29.000 22.000,29.000 C22.000,29.000 30.000,29.000 30.000,29.000 C30.000,29.000 31.000,28.000 31.000,28.000 C31.000,28.000 31.000,11.000 31.000,11.000 C31.000,11.000 30.000,10.000 30.000,10.000 C30.000,10.000 21.000,10.000 21.000,10.000 C21.000,10.000 21.000,6.000 21.000,6.000 C21.000,6.000 20.000,5.000 20.000,5.000 C20.000,5.000 7.000,5.000 7.000,5.000 Z"/><path fill-rule="evenodd"  fill="rgb( 243, 198, 0 )" d="M29.440,30.000 C29.440,30.000 22.000,30.000 22.000,30.000 C20.644,30.000 20.000,29.381 20.000,28.000 C20.000,28.000 20.000,26.000 20.000,26.000 C20.000,26.000 8.000,26.000 8.000,26.000 C8.000,26.000 8.000,38.000 8.000,38.000 C8.000,39.381 6.534,40.000 5.120,40.000 C5.120,40.000 2.560,40.000 2.560,40.000 C1.146,40.000 -0.000,39.381 -0.000,38.000 C-0.000,38.000 -0.000,2.500 -0.000,2.500 C-0.000,1.119 1.146,0.000 2.560,0.000 C2.560,0.000 5.120,0.000 5.120,0.000 C6.534,0.000 8.000,0.619 8.000,2.000 C8.000,2.000 8.000,4.000 8.000,4.000 C8.000,4.000 19.000,4.000 19.000,4.000 C20.414,4.000 22.000,4.619 22.000,6.000 C22.000,6.000 22.000,9.000 22.000,9.000 C22.000,9.000 29.000,9.000 29.000,9.000 C30.414,9.000 32.000,9.869 32.000,11.250 C32.000,11.250 32.000,27.500 32.000,27.500 C32.000,28.881 30.854,30.000 29.440,30.000 ZM6.000,3.000 C6.000,2.310 4.707,2.000 4.000,2.000 C3.293,2.000 2.000,2.310 2.000,3.000 C2.000,3.000 2.000,37.000 2.000,37.000 C2.000,37.691 3.293,38.000 4.000,38.000 C4.707,38.000 6.000,37.691 6.000,37.000 C6.000,37.000 6.000,3.000 6.000,3.000 ZM8.000,6.000 C8.000,6.000 18.000,6.000 18.000,6.000 C18.707,6.000 20.000,6.310 20.000,7.000 C20.000,7.000 20.000,23.000 20.000,23.000 C20.000,23.690 18.707,24.000 18.000,24.000 C18.000,24.000 8.000,24.000 8.000,24.000 C8.000,23.261 8.000,6.665 8.000,6.000 ZM22.000,28.000 C22.000,28.000 28.000,28.000 28.000,28.000 C28.707,28.000 30.000,27.690 30.000,27.000 C30.000,27.000 30.000,12.000 30.000,12.000 C30.000,11.309 28.707,11.000 28.000,11.000 C28.000,11.000 22.000,11.000 22.000,11.000 C22.000,11.665 22.000,27.815 22.000,28.000 Z"/></g></svg>