<?xml version="1.0" encoding="utf-8"?> <!-- Generated by Layerhero SVG Exporter: http://www.layerhero.com/photoshop-svg-exporter --><!DOCTYPE svg PUBLIC "-//W3C//DTD SVG 1.1//EN" "http://www.w3.org/Graphics/SVG/1.1/DTD/svg11.dtd"><svg version="1.1" baseProfile="full" xmlns="http://www.w3.org/2000/svg" xmlns:xlink="http://www.w3.org/1999/xlink" xmlns:ev="http://www.w3.org/2001/xml-events" width="40" height="40" viewBox="0 0 40 40"><g transform="scale(NaN)" ><path fill-rule="evenodd"  fill="rgb( 255, 255, 255 )" d="M20.500,2.000 C30.717,2.000 39.000,10.283 39.000,20.500 C39.000,30.717 30.717,39.000 20.500,39.000 C10.283,39.000 2.000,30.717 2.000,20.500 C2.000,10.283 10.283,2.000 20.500,2.000 Z"/><path fill-rule="evenodd"  fill="rgb( 156, 85, 184 )" d="M20.000,40.000 C8.972,40.000 -0.000,31.028 -0.000,20.000 C-0.000,8.972 8.972,-0.000 20.000,-0.000 C31.028,-0.000 40.000,8.972 40.000,20.000 C40.000,31.028 31.028,40.000 20.000,40.000 ZM20.000,2.000 C10.350,2.000 2.000,10.350 2.000,20.000 C2.000,29.650 10.350,38.000 20.000,38.000 C29.649,38.000 38.000,29.650 38.000,20.000 C38.000,10.350 29.649,2.000 20.000,2.000 ZM29.000,21.000 C29.000,21.000 20.000,21.000 20.000,21.000 C19.309,21.000 19.000,20.691 19.000,20.000 C19.000,20.000 19.000,8.000 19.000,8.000 C19.000,7.309 19.309,7.000 20.000,7.000 C20.691,7.000 21.000,7.309 21.000,8.000 C21.000,8.000 21.000,19.000 21.000,19.000 C21.000,19.000 29.000,19.000 29.000,19.000 C29.691,19.000 30.000,19.309 30.000,20.000 C30.000,20.691 29.691,21.000 29.000,21.000 Z"/></g></svg>