<?xml version="1.0" encoding="utf-8"?> <!-- Generated by Layerhero SVG Exporter: http://www.layerhero.com/photoshop-svg-exporter --><!DOCTYPE svg PUBLIC "-//W3C//DTD SVG 1.1//EN" "http://www.w3.org/Graphics/SVG/1.1/DTD/svg11.dtd"><svg version="1.1" baseProfile="full" xmlns="http://www.w3.org/2000/svg" xmlns:xlink="http://www.w3.org/1999/xlink" xmlns:ev="http://www.w3.org/2001/xml-events" width="40" height="40" viewBox="0 0 40 40"><g transform="scale(NaN)" ><path fill-rule="evenodd"  fill="rgb( 255, 255, 255 )" d="M20.500,2.000 C30.717,2.000 39.000,10.283 39.000,20.500 C39.000,30.717 30.717,39.000 20.500,39.000 C10.283,39.000 2.000,30.717 2.000,20.500 C2.000,10.283 10.283,2.000 20.500,2.000 Z"/><path fill-rule="evenodd"  fill="rgb( 213, 84, 0 )" d="M20.000,40.000 C8.954,40.000 0.000,31.045 0.000,20.000 C0.000,8.954 8.954,-0.000 20.000,-0.000 C31.046,-0.000 40.000,8.954 40.000,20.000 C40.000,31.045 31.046,40.000 20.000,40.000 ZM20.000,2.000 C10.335,2.000 2.000,10.335 2.000,20.000 C2.000,29.665 10.335,38.000 20.000,38.000 C29.665,38.000 38.000,29.665 38.000,20.000 C38.000,10.335 29.665,2.000 20.000,2.000 ZM28.000,21.000 C28.000,21.000 12.000,21.000 12.000,21.000 C11.326,21.000 10.000,20.674 10.000,20.000 C10.000,19.326 11.326,19.000 12.000,19.000 C12.000,19.000 28.000,19.000 28.000,19.000 C28.674,19.000 30.000,19.326 30.000,20.000 C30.000,20.674 28.674,21.000 28.000,21.000 Z"/></g></svg>