<?xml version="1.0" encoding="utf-8"?> <!-- Generated by Layerhero SVG Exporter: http://www.layerhero.com/photoshop-svg-exporter --><!DOCTYPE svg PUBLIC "-//W3C//DTD SVG 1.1//EN" "http://www.w3.org/Graphics/SVG/1.1/DTD/svg11.dtd"><svg version="1.1" baseProfile="full" xmlns="http://www.w3.org/2000/svg" xmlns:xlink="http://www.w3.org/1999/xlink" xmlns:ev="http://www.w3.org/2001/xml-events" width="40" height="40" viewBox="0 0 40 40"><g transform="scale(NaN)" ><path fill-rule="evenodd"  fill="rgb( 34, 127, 187 )" d="M36.000,40.000 C36.000,40.000 4.000,40.000 4.000,40.000 C1.992,40.000 -0.000,37.880 -0.000,36.000 C-0.000,36.000 -0.000,7.000 -0.000,7.000 C-0.000,5.120 1.992,3.000 4.000,3.000 C4.000,3.000 8.000,3.000 8.000,3.000 C8.000,1.590 9.403,-0.000 10.909,-0.000 C12.415,-0.000 14.000,1.590 14.000,3.000 C14.000,3.000 17.000,3.000 17.000,3.000 C17.000,1.590 18.494,-0.000 20.000,-0.000 C21.506,-0.000 23.000,1.590 23.000,3.000 C23.000,3.000 26.000,3.000 26.000,3.000 C26.000,1.590 27.494,-0.000 29.000,-0.000 C30.506,-0.000 32.000,1.590 32.000,3.000 C32.000,3.000 36.000,3.000 36.000,3.000 C38.008,3.000 40.000,5.120 40.000,7.000 C40.000,7.000 40.000,36.000 40.000,36.000 C40.000,37.880 38.008,40.000 36.000,40.000 ZM12.000,3.000 C12.000,2.530 11.502,2.000 11.000,2.000 C10.498,2.000 10.000,2.530 10.000,3.000 C10.000,3.000 10.000,5.000 10.000,5.000 C10.000,5.470 10.498,6.000 11.000,6.000 C11.502,6.000 12.000,5.470 12.000,5.000 C12.000,5.000 12.000,3.000 12.000,3.000 ZM21.000,3.000 C21.000,2.530 20.502,2.000 20.000,2.000 C19.498,2.000 19.000,2.530 19.000,3.000 C19.000,3.000 19.000,5.000 19.000,5.000 C19.000,5.470 19.498,6.000 20.000,6.000 C20.502,6.000 21.000,5.470 21.000,5.000 C21.000,5.000 21.000,3.000 21.000,3.000 ZM30.000,3.000 C30.000,2.530 29.502,2.000 29.000,2.000 C28.498,2.000 28.000,2.530 28.000,3.000 C28.000,3.000 28.000,5.000 28.000,5.000 C28.000,5.470 28.498,6.000 29.000,6.000 C29.502,6.000 30.000,5.470 30.000,5.000 C30.000,5.000 30.000,3.000 30.000,3.000 ZM38.000,7.000 C38.000,6.060 37.004,5.000 36.000,5.000 C36.000,5.000 32.000,5.000 32.000,5.000 C32.000,6.410 30.506,8.000 29.000,8.000 C27.494,8.000 26.000,6.410 26.000,5.000 C26.000,5.000 23.000,5.000 23.000,5.000 C23.000,6.410 21.506,8.000 20.000,8.000 C18.494,8.000 17.000,6.410 17.000,5.000 C17.000,5.000 14.000,5.000 14.000,5.000 C14.000,6.410 12.506,8.000 11.000,8.000 C9.494,8.000 8.000,6.410 8.000,5.000 C8.000,5.000 4.000,5.000 4.000,5.000 C2.996,5.000 2.000,6.060 2.000,7.000 C2.000,7.000 2.000,11.000 2.000,11.000 C2.000,11.000 38.000,11.000 38.000,11.000 C38.000,11.000 38.000,7.000 38.000,7.000 ZM38.000,13.000 C38.000,13.000 2.000,13.000 2.000,13.000 C2.000,13.000 2.000,36.000 2.000,36.000 C2.000,36.940 2.996,38.000 4.000,38.000 C4.000,38.000 36.000,38.000 36.000,38.000 C37.004,38.000 38.000,36.940 38.000,36.000 C38.000,36.000 38.000,13.000 38.000,13.000 ZM29.000,33.000 C27.494,33.000 26.000,31.410 26.000,30.000 C26.000,28.590 27.494,27.000 29.000,27.000 C30.506,27.000 32.000,28.590 32.000,30.000 C32.000,31.410 30.506,33.000 29.000,33.000 ZM29.000,29.000 C28.498,29.000 28.000,29.530 28.000,30.000 C28.000,30.470 28.498,31.000 29.000,31.000 C29.502,31.000 30.000,30.470 30.000,30.000 C30.000,29.530 29.502,29.000 29.000,29.000 ZM29.000,24.000 C27.494,24.000 26.000,22.410 26.000,21.000 C26.000,19.590 27.494,18.000 29.000,18.000 C30.506,18.000 32.000,19.590 32.000,21.000 C32.000,22.410 30.506,24.000 29.000,24.000 ZM29.000,20.000 C28.498,20.000 28.000,20.530 28.000,21.000 C28.000,21.470 28.498,22.000 29.000,22.000 C29.502,22.000 30.000,21.470 30.000,21.000 C30.000,20.530 29.502,20.000 29.000,20.000 ZM20.000,33.000 C18.494,33.000 17.000,31.410 17.000,30.000 C17.000,28.590 18.494,27.000 20.000,27.000 C21.506,27.000 23.000,28.590 23.000,30.000 C23.000,31.410 21.506,33.000 20.000,33.000 ZM20.000,29.000 C19.498,29.000 19.000,29.530 19.000,30.000 C19.000,30.470 19.498,31.000 20.000,31.000 C20.502,31.000 21.000,30.470 21.000,30.000 C21.000,29.530 20.502,29.000 20.000,29.000 ZM20.000,24.000 C18.494,24.000 17.000,22.410 17.000,21.000 C17.000,19.590 18.494,18.000 20.000,18.000 C21.506,18.000 23.000,19.590 23.000,21.000 C23.000,22.410 21.506,24.000 20.000,24.000 ZM20.000,20.000 C19.498,20.000 19.000,20.530 19.000,21.000 C19.000,21.470 19.498,22.000 20.000,22.000 C20.502,22.000 21.000,21.470 21.000,21.000 C21.000,20.530 20.502,20.000 20.000,20.000 ZM11.000,33.000 C9.494,33.000 8.000,31.410 8.000,30.000 C8.000,28.590 9.494,27.000 11.000,27.000 C12.506,27.000 14.000,28.590 14.000,30.000 C14.000,31.410 12.506,33.000 11.000,33.000 ZM11.000,29.000 C10.498,29.000 10.000,29.530 10.000,30.000 C10.000,30.470 10.498,31.000 11.000,31.000 C11.502,31.000 12.000,30.470 12.000,30.000 C12.000,29.530 11.502,29.000 11.000,29.000 ZM11.000,24.000 C9.494,24.000 8.000,22.410 8.000,21.000 C8.000,19.590 9.494,18.000 11.000,18.000 C12.506,18.000 14.000,19.590 14.000,21.000 C14.000,22.410 12.506,24.000 11.000,24.000 ZM11.000,20.000 C10.498,20.000 10.000,20.530 10.000,21.000 C10.000,21.470 10.498,22.000 11.000,22.000 C11.502,22.000 12.000,21.470 12.000,21.000 C12.000,20.530 11.502,20.000 11.000,20.000 Z"/></g></svg>