<?xml version="1.0" encoding="utf-8"?> <!-- Generated by Layerhero SVG Exporter: http://www.layerhero.com/photoshop-svg-exporter --><!DOCTYPE svg PUBLIC "-//W3C//DTD SVG 1.1//EN" "http://www.w3.org/Graphics/SVG/1.1/DTD/svg11.dtd"><svg version="1.1" baseProfile="full" xmlns="http://www.w3.org/2000/svg" xmlns:xlink="http://www.w3.org/1999/xlink" xmlns:ev="http://www.w3.org/2001/xml-events" width="40" height="40" viewBox="0 0 40 40"><g transform="scale(NaN)" ><path fill-rule="evenodd"  fill="rgb( 233, 75, 53 )" d="M20.000,40.000 C8.954,40.000 -0.000,31.046 -0.000,20.000 C-0.000,8.954 8.954,0.000 20.000,0.000 C31.046,0.000 40.000,8.954 40.000,20.000 C40.000,31.046 31.046,40.000 20.000,40.000 ZM20.000,2.500 C10.335,2.500 2.000,10.335 2.000,20.000 C2.000,29.665 10.335,38.000 20.000,38.000 C29.665,38.000 38.000,29.665 38.000,20.000 C38.000,10.335 29.665,2.500 20.000,2.500 ZM28.393,28.393 C27.916,28.870 27.143,28.870 26.667,28.393 C26.667,28.393 20.000,21.726 20.000,21.726 C20.000,21.726 13.333,28.393 13.333,28.393 C12.856,28.870 12.083,28.870 11.607,28.393 C11.130,27.917 11.130,27.144 11.607,26.667 C11.607,26.667 18.274,20.000 18.274,20.000 C18.274,20.000 11.607,13.333 11.607,13.333 C11.130,12.857 11.130,12.084 11.607,11.607 C12.083,11.130 12.856,11.130 13.333,11.607 C13.333,11.607 20.000,18.274 20.000,18.274 C20.000,18.274 26.667,11.607 26.667,11.607 C27.143,11.130 27.916,11.130 28.393,11.607 C28.870,12.084 28.870,12.857 28.393,13.333 C28.393,13.333 21.726,20.000 21.726,20.000 C21.726,20.000 28.393,26.667 28.393,26.667 C28.870,27.144 28.870,27.917 28.393,28.393 Z"/></g></svg>