<?xml version="1.0" encoding="utf-8"?> <!-- Generated by Layerhero SVG Exporter: http://www.layerhero.com/photoshop-svg-exporter --><!DOCTYPE svg PUBLIC "-//W3C//DTD SVG 1.1//EN" "http://www.w3.org/Graphics/SVG/1.1/DTD/svg11.dtd"><svg version="1.1" baseProfile="full" xmlns="http://www.w3.org/2000/svg" xmlns:xlink="http://www.w3.org/1999/xlink" xmlns:ev="http://www.w3.org/2001/xml-events" width="32" height="40" viewBox="0 0 32 40"><g transform="scale(NaN)" ><path fill-rule="evenodd"  fill="rgb( 51, 109, 205 )" d="M27.077,40.000 C27.077,40.000 4.923,40.000 4.923,40.000 C2.204,40.000 0.000,37.762 0.000,35.000 C0.000,35.000 0.000,5.000 0.000,5.000 C0.000,2.239 2.204,0.000 4.923,0.000 C4.923,0.000 19.692,0.000 19.692,0.000 C21.340,-0.026 21.996,0.036 22.154,0.036 C22.154,0.036 22.154,0.000 22.154,0.000 C22.154,0.000 32.000,10.001 32.000,10.001 C32.000,11.836 32.000,12.110 32.000,12.500 C32.000,12.500 32.000,35.000 32.000,35.000 C32.000,37.762 29.796,40.000 27.077,40.000 ZM22.000,3.000 C22.000,5.976 22.000,7.000 22.000,7.000 C22.000,8.381 23.641,10.000 25.000,10.000 C25.000,10.000 29.000,10.000 29.000,10.000 C29.000,10.000 22.000,3.000 22.000,3.000 ZM30.000,12.000 C27.134,12.000 25.000,12.000 25.000,12.000 C22.281,12.000 20.000,9.762 20.000,7.000 C20.000,7.000 19.978,4.994 20.000,2.000 C20.000,2.000 5.000,2.000 5.000,2.000 C3.641,2.000 2.000,3.619 2.000,5.000 C2.000,5.000 2.000,35.000 2.000,35.000 C2.000,36.381 3.641,38.000 5.000,38.000 C5.000,38.000 27.000,38.000 27.000,38.000 C28.360,38.000 30.000,36.381 30.000,35.000 C30.000,35.000 30.000,12.000 30.000,12.000 Z"/><path fill-rule="evenodd"  fill="rgb( 51, 109, 205 )" d="M27.644,22.115 C27.310,21.957 26.974,21.818 26.637,21.700 C26.299,21.582 25.967,21.523 25.642,21.523 C24.930,21.523 24.378,21.791 23.988,22.326 C23.597,22.861 23.402,23.607 23.402,24.563 C23.402,26.552 24.148,27.547 25.642,27.547 C26.268,27.547 27.027,27.391 27.918,27.077 C27.918,27.077 27.918,28.664 27.918,28.664 C27.186,28.969 26.368,29.122 25.465,29.122 C24.167,29.122 23.174,28.728 22.486,27.941 C21.798,27.154 21.455,26.024 21.455,24.551 C21.455,23.623 21.623,22.810 21.961,22.112 C22.299,21.414 22.784,20.879 23.417,20.507 C24.050,20.135 24.791,19.948 25.642,19.948 C26.508,19.948 27.379,20.158 28.254,20.577 C28.254,20.577 27.644,22.115 27.644,22.115 ZM16.644,29.122 C15.277,29.122 14.227,28.725 13.495,27.932 C12.762,27.138 12.396,25.999 12.396,24.514 C12.396,23.029 12.763,21.895 13.498,21.111 C14.232,20.328 15.285,19.936 16.656,19.936 C18.027,19.936 19.076,20.331 19.802,21.120 C20.529,21.910 20.892,23.045 20.892,24.526 C20.892,26.003 20.526,27.138 19.793,27.932 C19.061,28.725 18.011,29.122 16.644,29.122 ZM16.656,21.511 C15.903,21.511 15.336,21.764 14.953,22.271 C14.571,22.777 14.380,23.529 14.380,24.526 C14.380,25.523 14.569,26.274 14.947,26.778 C15.326,27.283 15.891,27.535 16.644,27.535 C18.153,27.535 18.908,26.532 18.908,24.526 C18.908,22.516 18.158,21.511 16.656,21.511 ZM6.957,29.000 C6.957,29.000 4.430,29.000 4.430,29.000 C4.430,29.000 4.430,20.077 4.430,20.077 C4.430,20.077 7.231,20.077 7.231,20.077 C8.688,20.077 9.819,20.461 10.625,21.230 C11.430,21.999 11.833,23.073 11.833,24.453 C11.833,25.922 11.415,27.047 10.579,27.828 C9.743,28.609 8.535,29.000 6.957,29.000 ZM7.329,21.627 C7.329,21.627 6.322,21.627 6.322,21.627 C6.322,21.627 6.322,27.437 6.322,27.437 C6.322,27.437 7.134,27.437 7.134,27.437 C8.956,27.437 9.868,26.459 9.868,24.502 C9.868,22.585 9.022,21.627 7.329,21.627 Z"/></g></svg>