<?xml version="1.0" encoding="utf-8"?> <!-- Generated by Layerhero SVG Exporter: http://www.layerhero.com/photoshop-svg-exporter --><!DOCTYPE svg PUBLIC "-//W3C//DTD SVG 1.1//EN" "http://www.w3.org/Graphics/SVG/1.1/DTD/svg11.dtd"><svg version="1.1" baseProfile="full" xmlns="http://www.w3.org/2000/svg" xmlns:xlink="http://www.w3.org/1999/xlink" xmlns:ev="http://www.w3.org/2001/xml-events" width="40" height="40" viewBox="0 0 40 40"><g transform="scale(NaN)" ><path fill-rule="evenodd"  fill="rgb( 245, 157, 0 )" d="M39.961,10.667 C39.961,15.085 33.926,18.000 32.000,18.000 C31.702,18.000 32.287,18.043 32.000,18.000 C30.324,23.232 25.736,28.281 21.000,29.000 C21.000,29.000 21.000,38.000 21.000,38.000 C21.000,38.000 25.000,38.000 25.000,38.000 C25.689,38.000 27.000,38.264 27.000,39.000 C27.000,39.737 25.679,40.000 24.990,40.000 C24.990,40.000 15.010,40.000 15.010,40.000 C14.321,40.000 13.000,39.737 13.000,39.000 C13.000,38.264 14.311,38.000 15.000,38.000 C15.000,38.000 19.000,38.000 19.000,38.000 C19.000,38.000 19.000,29.000 19.000,29.000 C14.264,28.281 9.676,23.232 8.000,18.000 C7.713,18.043 8.298,18.000 8.000,18.000 C5.962,18.000 0.039,15.085 0.039,10.667 C0.039,5.332 -0.546,6.000 8.000,6.000 C8.000,3.054 9.244,0.000 12.000,0.000 C12.000,0.000 28.000,0.000 28.000,0.000 C30.756,0.000 32.000,3.054 32.000,6.000 C40.546,6.000 39.961,5.332 39.961,10.667 ZM8.000,8.000 C3.061,8.000 2.000,7.055 2.000,10.000 C2.000,12.945 5.244,16.000 8.000,16.000 C8.000,16.000 8.000,8.000 8.000,8.000 ZM30.000,5.000 C30.000,3.639 29.196,2.000 28.000,2.000 C28.000,2.000 12.000,2.000 12.000,2.000 C10.804,2.000 10.020,4.014 10.020,5.334 C10.020,5.334 10.000,15.000 10.000,15.000 C10.000,20.891 14.488,27.000 20.000,27.000 C25.512,27.000 30.000,20.891 30.000,15.000 C30.000,15.000 30.000,5.000 30.000,5.000 ZM32.000,8.000 C32.000,8.000 32.000,16.000 32.000,16.000 C34.756,16.000 38.000,12.945 38.000,10.000 C38.000,7.055 36.939,8.000 32.000,8.000 Z"/></g></svg>