<?xml version="1.0" encoding="utf-8"?> <!-- Generated by Layerhero SVG Exporter: http://www.layerhero.com/photoshop-svg-exporter --><!DOCTYPE svg PUBLIC "-//W3C//DTD SVG 1.1//EN" "http://www.w3.org/Graphics/SVG/1.1/DTD/svg11.dtd"><svg version="1.1" baseProfile="full" xmlns="http://www.w3.org/2000/svg" xmlns:xlink="http://www.w3.org/1999/xlink" xmlns:ev="http://www.w3.org/2001/xml-events" width="40" height="40" viewBox="0 0 40 40"><g transform="scale(NaN)" ><path fill-rule="evenodd"  fill="rgb( 44, 151, 222 )" d="M30.968,31.821 C34.849,29.701 38.000,26.167 38.000,22.000 C38.000,19.365 35.737,16.970 34.000,15.000 C34.275,13.171 33.935,11.056 34.000,12.000 C37.214,14.590 40.000,17.663 40.000,21.719 C40.000,26.268 36.922,30.398 33.000,33.000 C33.000,33.000 33.000,40.000 33.000,40.000 C33.000,40.000 26.316,35.686 26.316,35.686 C25.313,35.845 24.283,35.938 23.226,35.938 C18.257,35.938 16.071,33.910 13.000,31.000 C13.278,31.016 14.889,31.087 16.000,31.000 C18.425,32.616 19.884,33.750 23.226,33.750 C24.378,33.750 25.928,33.217 27.000,33.000 C27.000,33.000 30.968,36.250 30.968,36.250 C30.968,36.250 30.968,31.821 30.968,31.821 ZM12.000,28.000 C12.000,28.000 5.000,33.000 5.000,33.000 C5.000,33.000 5.000,25.000 5.000,25.000 C1.629,22.219 -0.000,18.549 -0.000,14.000 C-0.000,6.147 7.723,0.000 17.000,0.000 C24.712,0.000 32.000,6.147 32.000,14.000 C32.000,28.995 16.678,28.934 12.000,28.000 ZM12.000,25.000 C16.639,27.227 30.000,26.477 30.000,14.000 C30.000,7.442 23.416,2.000 17.000,2.000 C8.940,2.000 2.000,7.442 2.000,14.000 C2.000,18.167 3.852,21.525 7.000,24.000 C7.000,24.000 7.000,29.000 7.000,29.000 C7.000,29.000 12.000,25.000 12.000,25.000 ZM24.000,16.000 C22.931,16.000 22.000,15.036 22.000,14.000 C22.000,12.965 22.931,12.000 24.000,12.000 C25.069,12.000 26.000,12.965 26.000,14.000 C26.000,15.036 25.069,16.000 24.000,16.000 ZM16.000,16.000 C14.931,16.000 14.000,15.036 14.000,14.000 C14.000,12.965 14.931,12.000 16.000,12.000 C17.069,12.000 18.000,12.965 18.000,14.000 C18.000,15.036 17.069,16.000 16.000,16.000 ZM8.000,16.000 C6.931,16.000 6.000,15.036 6.000,14.000 C6.000,12.965 6.931,12.000 8.000,12.000 C9.069,12.000 10.000,12.965 10.000,14.000 C10.000,15.036 9.069,16.000 8.000,16.000 Z"/></g></svg>