<?xml version="1.0" encoding="utf-8"?> <!-- Generated by Layerhero SVG Exporter: http://www.layerhero.com/photoshop-svg-exporter --><!DOCTYPE svg PUBLIC "-//W3C//DTD SVG 1.1//EN" "http://www.w3.org/Graphics/SVG/1.1/DTD/svg11.dtd"><svg version="1.1" baseProfile="full" xmlns="http://www.w3.org/2000/svg" xmlns:xlink="http://www.w3.org/1999/xlink" xmlns:ev="http://www.w3.org/2001/xml-events" width="41" height="40" viewBox="0 0 41 40"><g transform="scale(NaN)" ><path fill-rule="evenodd"  fill="rgb( 34, 127, 187 )" d="M38.000,15.000 C38.000,15.000 30.000,15.000 30.000,15.000 C28.965,15.000 28.000,15.035 28.000,14.000 C28.000,12.964 28.965,13.000 30.000,13.000 C30.000,13.000 37.000,13.000 37.000,13.000 C33.537,7.652 25.481,2.000 20.000,2.000 C10.000,2.000 2.000,10.000 2.000,20.000 C2.000,30.000 11.026,38.000 20.000,38.000 C28.975,38.000 38.000,30.000 38.000,20.000 C38.000,18.964 37.965,18.000 39.000,18.000 C40.036,18.000 40.000,18.964 40.000,20.000 C40.000,31.046 31.046,40.000 20.000,40.000 C8.954,40.000 -0.000,31.046 -0.000,20.000 C-0.000,8.954 8.954,0.000 20.000,0.000 C26.703,0.000 34.374,5.936 38.000,11.000 C38.000,11.000 38.000,5.000 38.000,5.000 C38.000,3.965 37.965,3.000 39.000,3.000 C40.036,3.000 40.000,3.965 40.000,5.000 C40.000,5.000 40.000,12.500 40.000,12.500 C40.000,13.536 39.035,15.000 38.000,15.000 Z"/></g></svg>