<?xml version="1.0" encoding="utf-8"?> <!-- Generated by Layerhero SVG Exporter: http://www.layerhero.com/photoshop-svg-exporter --><!DOCTYPE svg PUBLIC "-//W3C//DTD SVG 1.1//EN" "http://www.w3.org/Graphics/SVG/1.1/DTD/svg11.dtd"><svg version="1.1" baseProfile="full" xmlns="http://www.w3.org/2000/svg" xmlns:xlink="http://www.w3.org/1999/xlink" xmlns:ev="http://www.w3.org/2001/xml-events" width="40" height="40" viewBox="0 0 40 40"><g transform="scale(NaN)" ><path fill-rule="evenodd"  fill="rgb( 71, 140, 254 )" d="M35.000,40.000 C35.000,40.000 11.250,40.000 11.250,40.000 C11.250,40.000 8.750,40.000 8.750,40.000 C8.750,40.000 6.250,40.000 6.250,40.000 C6.250,40.000 5.000,40.000 5.000,40.000 C2.243,40.000 -0.000,37.758 -0.000,35.000 C-0.000,35.000 -0.000,21.000 -0.000,21.000 C-0.000,21.000 9.000,21.000 9.000,21.000 C9.000,21.000 9.000,0.000 9.000,0.000 C9.000,0.000 40.000,0.000 40.000,0.000 C40.000,0.000 40.000,35.000 40.000,35.000 C40.000,37.758 37.757,40.000 35.000,40.000 ZM9.000,23.000 C9.000,23.000 2.000,23.000 2.000,23.000 C2.000,23.000 2.000,35.000 2.000,35.000 C2.000,36.378 3.621,38.000 5.000,38.000 C5.000,38.000 6.000,38.000 6.000,38.000 C7.379,38.000 9.000,36.378 9.000,35.000 C9.000,35.000 9.000,23.000 9.000,23.000 ZM38.000,2.000 C38.000,2.000 11.000,2.000 11.000,2.000 C11.000,2.000 11.000,35.000 11.000,35.000 C11.000,35.914 10.430,37.262 10.000,38.000 C10.000,38.000 35.000,38.000 35.000,38.000 C36.379,38.000 38.000,36.378 38.000,35.000 C38.000,35.000 38.000,2.000 38.000,2.000 ZM14.000,31.000 C14.000,31.000 35.000,31.000 35.000,31.000 C35.000,31.000 35.000,33.000 35.000,33.000 C35.000,33.000 14.000,33.000 14.000,33.000 C14.000,33.000 14.000,31.000 14.000,31.000 ZM14.000,26.000 C14.000,26.000 35.000,26.000 35.000,26.000 C35.000,26.000 35.000,28.000 35.000,28.000 C35.000,28.000 14.000,28.000 14.000,28.000 C14.000,28.000 14.000,26.000 14.000,26.000 ZM14.000,10.000 C14.000,10.000 35.000,10.000 35.000,10.000 C35.000,10.000 35.000,23.000 35.000,23.000 C35.000,23.000 14.000,23.000 14.000,23.000 C14.000,23.000 14.000,10.000 14.000,10.000 ZM16.000,21.000 C16.000,21.000 33.000,21.000 33.000,21.000 C33.000,21.000 33.000,12.000 33.000,12.000 C33.000,12.000 16.000,12.000 16.000,12.000 C16.000,12.000 16.000,21.000 16.000,21.000 ZM14.000,5.000 C14.000,5.000 35.000,5.000 35.000,5.000 C35.000,5.000 35.000,7.000 35.000,7.000 C35.000,7.000 14.000,7.000 14.000,7.000 C14.000,7.000 14.000,5.000 14.000,5.000 Z"/></g></svg>