<?xml version="1.0" encoding="utf-8"?> <!-- Generated by Layerhero SVG Exporter: http://www.layerhero.com/photoshop-svg-exporter --><!DOCTYPE svg PUBLIC "-//W3C//DTD SVG 1.1//EN" "http://www.w3.org/Graphics/SVG/1.1/DTD/svg11.dtd"><svg version="1.1" baseProfile="full" xmlns="http://www.w3.org/2000/svg" xmlns:xlink="http://www.w3.org/1999/xlink" xmlns:ev="http://www.w3.org/2001/xml-events" width="36" height="36" viewBox="0 0 36 36"><g transform="scale(NaN)" ><path fill-rule="evenodd"  fill="rgb( 245, 157, 0 )" d="M30.771,36.000 C30.771,36.000 4.967,36.000 4.967,36.000 C2.224,36.000 0.000,33.775 0.000,31.030 C0.000,31.030 0.000,5.206 0.000,5.206 C0.000,2.461 2.257,-0.000 5.000,-0.000 C5.000,-0.000 31.000,-0.000 31.000,-0.000 C33.743,-0.000 36.000,2.255 36.000,5.000 C36.000,5.000 36.000,31.000 36.000,31.000 C36.000,33.745 33.515,36.000 30.771,36.000 ZM34.000,5.000 C34.000,3.628 32.372,2.000 31.000,2.000 C31.000,2.000 5.000,2.000 5.000,2.000 C3.628,2.000 2.000,3.627 2.000,5.000 C2.000,5.000 2.000,31.000 2.000,31.000 C2.000,32.372 3.628,34.000 5.000,34.000 C5.000,34.000 31.000,34.000 31.000,34.000 C32.372,34.000 34.000,32.373 34.000,31.000 C34.000,31.000 34.000,5.000 34.000,5.000 ZM26.000,26.000 C26.000,26.000 10.000,26.000 10.000,26.000 C9.310,26.000 8.000,25.690 8.000,25.000 C8.000,24.310 9.310,24.000 10.000,24.000 C10.000,24.000 26.000,24.000 26.000,24.000 C26.690,24.000 28.000,24.310 28.000,25.000 C28.000,25.690 26.690,26.000 26.000,26.000 ZM26.000,18.000 C26.000,18.000 10.000,18.000 10.000,18.000 C9.310,18.000 8.000,17.690 8.000,17.000 C8.000,16.310 9.310,16.000 10.000,16.000 C10.000,16.000 26.000,16.000 26.000,16.000 C26.690,16.000 28.000,16.310 28.000,17.000 C28.000,17.690 26.690,18.000 26.000,18.000 ZM26.000,11.000 C26.000,11.000 10.000,11.000 10.000,11.000 C9.310,11.000 8.000,10.690 8.000,10.000 C8.000,9.310 9.310,9.000 10.000,9.000 C10.000,9.000 26.000,9.000 26.000,9.000 C26.690,9.000 28.000,9.310 28.000,10.000 C28.000,10.690 26.690,11.000 26.000,11.000 Z"/></g></svg>