<?xml version="1.0" encoding="utf-8"?> <!-- Generated by Layerhero SVG Exporter: http://www.layerhero.com/photoshop-svg-exporter --><!DOCTYPE svg PUBLIC "-//W3C//DTD SVG 1.1//EN" "http://www.w3.org/Graphics/SVG/1.1/DTD/svg11.dtd"><svg version="1.1" baseProfile="full" xmlns="http://www.w3.org/2000/svg" xmlns:xlink="http://www.w3.org/1999/xlink" xmlns:ev="http://www.w3.org/2001/xml-events" width="32" height="40" viewBox="0 0 32 40"><g transform="scale(NaN)" ><path fill-rule="evenodd"  fill="rgb( 233, 75, 53 )" d="M27.077,40.000 C27.077,40.000 4.923,40.000 4.923,40.000 C2.204,40.000 -0.000,37.762 -0.000,35.000 C-0.000,35.000 -0.000,5.001 -0.000,5.001 C-0.000,2.239 2.204,0.000 4.923,0.000 C4.923,0.000 19.692,0.000 19.692,0.000 C21.340,-0.026 21.996,0.036 22.154,0.036 C22.154,0.036 22.154,0.000 22.154,0.000 C22.154,0.000 32.000,10.000 32.000,10.000 C32.000,11.836 32.000,12.109 32.000,12.500 C32.000,12.500 32.000,35.000 32.000,35.000 C32.000,37.762 29.796,40.000 27.077,40.000 ZM22.000,3.000 C22.000,5.976 22.000,7.000 22.000,7.000 C22.000,8.381 23.641,10.000 25.000,10.000 C25.000,10.000 29.000,10.000 29.000,10.000 C29.000,10.000 22.000,3.000 22.000,3.000 ZM30.000,12.000 C27.134,12.000 25.000,12.000 25.000,12.000 C22.281,12.000 20.000,9.762 20.000,7.000 C20.000,7.000 19.978,4.993 20.000,2.000 C20.000,2.000 5.000,2.000 5.000,2.000 C3.641,2.000 2.000,3.619 2.000,5.000 C2.000,5.000 2.000,35.000 2.000,35.000 C2.000,36.381 3.641,38.000 5.000,38.000 C5.000,38.000 27.000,38.000 27.000,38.000 C28.359,38.000 30.000,36.381 30.000,35.000 C30.000,35.000 30.000,12.000 30.000,12.000 Z"/><path fill-rule="evenodd"  fill="rgb( 233, 75, 53 )" d="M24.097,21.627 C24.097,21.627 24.097,23.928 24.097,23.928 C24.097,23.928 27.124,23.928 27.124,23.928 C27.124,23.928 27.124,25.472 27.124,25.472 C27.124,25.472 24.097,25.472 24.097,25.472 C24.097,25.472 24.097,29.000 24.097,29.000 C24.097,29.000 22.236,29.000 22.236,29.000 C22.236,29.000 22.236,20.077 22.236,20.077 C22.236,20.077 27.350,20.077 27.350,20.077 C27.350,20.077 27.350,21.627 27.350,21.627 C27.350,21.627 24.097,21.627 24.097,21.627 ZM15.828,29.000 C15.828,29.000 13.301,29.000 13.301,29.000 C13.301,29.000 13.301,20.077 13.301,20.077 C13.301,20.077 16.103,20.077 16.103,20.077 C17.560,20.077 18.691,20.461 19.496,21.230 C20.302,21.999 20.705,23.073 20.705,24.453 C20.705,25.922 20.287,27.047 19.451,27.828 C18.614,28.609 17.407,29.000 15.828,29.000 ZM16.201,21.627 C16.201,21.627 15.193,21.627 15.193,21.627 C15.193,21.627 15.193,27.438 15.193,27.438 C15.193,27.438 16.005,27.438 16.005,27.438 C17.828,27.438 18.740,26.459 18.740,24.502 C18.740,22.585 17.893,21.627 16.201,21.627 ZM8.521,25.826 C8.521,25.826 7.709,25.826 7.709,25.826 C7.709,25.826 7.709,29.000 7.709,29.000 C7.709,29.000 5.817,29.000 5.817,29.000 C5.817,29.000 5.817,20.077 5.817,20.077 C5.817,20.077 8.668,20.077 8.668,20.077 C9.750,20.077 10.573,20.310 11.136,20.776 C11.700,21.241 11.982,21.936 11.982,22.860 C11.982,23.820 11.682,24.555 11.082,25.063 C10.481,25.572 9.628,25.826 8.521,25.826 ZM9.708,21.944 C9.466,21.733 9.087,21.627 8.570,21.627 C8.570,21.627 7.709,21.627 7.709,21.627 C7.709,21.627 7.709,24.276 7.709,24.276 C7.709,24.276 8.332,24.276 8.332,24.276 C8.914,24.276 9.349,24.161 9.638,23.931 C9.927,23.701 10.071,23.366 10.071,22.927 C10.071,22.484 9.950,22.156 9.708,21.944 Z"/></g></svg>