<?xml version="1.0" encoding="utf-8"?> <!-- Generated by Layerhero SVG Exporter: http://www.layerhero.com/photoshop-svg-exporter --><!DOCTYPE svg PUBLIC "-//W3C//DTD SVG 1.1//EN" "http://www.w3.org/Graphics/SVG/1.1/DTD/svg11.dtd"><svg version="1.1" baseProfile="full" xmlns="http://www.w3.org/2000/svg" xmlns:xlink="http://www.w3.org/1999/xlink" xmlns:ev="http://www.w3.org/2001/xml-events" width="28" height="40" viewBox="0 0 28 40"><g transform="scale(NaN)" ><path fill-rule="evenodd"  fill="rgb( 30, 205, 110 )" d="M14.000,0.000 C9.000,0.000 3.083,4.520 3.000,13.000 C2.924,20.782 7.724,28.000 14.000,28.000 C20.276,28.000 25.073,20.782 25.000,13.000 C24.917,4.147 19.000,0.000 14.000,0.000 ZM14.000,26.000 C8.737,26.000 5.000,19.767 5.000,13.000 C5.000,5.997 10.245,2.000 14.000,2.000 C17.755,2.000 23.000,5.997 23.000,13.000 C23.000,19.767 19.263,26.000 14.000,26.000 ZM6.000,24.000 C3.904,25.165 2.000,29.437 2.000,32.000 C2.000,35.760 5.240,38.000 9.000,38.000 C9.000,38.000 19.000,38.000 19.000,38.000 C22.760,38.000 26.000,35.760 26.000,32.000 C26.000,29.437 24.096,25.165 22.000,24.000 C21.415,23.912 22.637,22.502 23.000,22.000 C25.507,23.512 28.000,28.859 28.000,32.000 C28.000,36.770 24.315,40.000 19.546,40.000 C19.546,40.000 8.636,40.000 8.636,40.000 C3.867,40.000 0.000,36.770 0.000,32.000 C0.000,28.859 2.493,23.512 5.000,22.000 C5.363,22.502 6.497,23.717 6.000,24.000 Z"/></g></svg>