<?xml version="1.0" encoding="utf-8"?> <!-- Generated by Layerhero SVG Exporter: http://www.layerhero.com/photoshop-svg-exporter --><!DOCTYPE svg PUBLIC "-//W3C//DTD SVG 1.1//EN" "http://www.w3.org/Graphics/SVG/1.1/DTD/svg11.dtd"><svg version="1.1" baseProfile="full" xmlns="http://www.w3.org/2000/svg" xmlns:xlink="http://www.w3.org/1999/xlink" xmlns:ev="http://www.w3.org/2001/xml-events" width="34" height="40" viewBox="0 0 34 40"><g transform="scale(NaN)" ><path fill-rule="evenodd"  fill="rgb( 232, 126, 4 )" d="M29.143,40.000 C29.143,40.000 4.857,40.000 4.857,40.000 C2.175,40.000 0.000,37.761 0.000,35.000 C0.000,35.000 0.000,10.000 0.000,10.000 C0.000,7.239 2.175,5.000 4.857,5.000 C4.857,5.000 9.000,5.000 9.000,5.000 C9.000,5.000 9.000,3.000 9.000,3.000 C9.000,3.000 12.000,3.000 12.000,3.000 C13.052,1.512 14.759,-0.000 17.000,-0.000 C19.241,-0.000 20.948,1.512 22.000,3.000 C22.000,3.000 25.000,3.000 25.000,3.000 C25.000,3.000 25.000,5.000 25.000,5.000 C25.000,5.000 29.143,5.000 29.143,5.000 C31.825,5.000 34.000,7.239 34.000,10.000 C34.000,10.000 34.000,35.000 34.000,35.000 C34.000,37.761 31.825,40.000 29.143,40.000 ZM23.071,5.000 C23.071,5.000 20.373,5.000 20.373,5.000 C20.373,3.619 18.863,2.000 17.000,2.000 C15.137,2.000 13.627,3.619 13.627,5.000 C13.627,5.000 10.929,5.000 10.929,5.000 C10.929,5.000 10.929,10.000 10.929,10.000 C10.929,10.000 23.071,10.000 23.071,10.000 C23.071,10.000 23.071,5.000 23.071,5.000 ZM32.000,10.000 C32.000,8.620 30.341,7.000 29.000,7.000 C29.000,7.000 25.000,7.000 25.000,7.000 C25.000,7.000 25.000,12.000 25.000,12.000 C25.000,12.000 9.000,12.000 9.000,12.000 C9.000,12.000 9.000,7.000 9.000,7.000 C9.000,7.000 5.000,7.000 5.000,7.000 C3.659,7.000 2.000,8.620 2.000,10.000 C2.000,10.000 2.000,35.000 2.000,35.000 C2.000,36.381 3.659,38.000 5.000,38.000 C5.000,38.000 29.000,38.000 29.000,38.000 C30.341,38.000 32.000,36.381 32.000,35.000 C32.000,35.000 32.000,10.000 32.000,10.000 ZM25.000,32.000 C25.000,32.000 9.000,32.000 9.000,32.000 C8.329,32.000 7.000,31.690 7.000,31.000 C7.000,30.309 8.329,30.000 9.000,30.000 C9.000,30.000 25.000,30.000 25.000,30.000 C25.671,30.000 27.000,30.309 27.000,31.000 C27.000,31.690 25.671,32.000 25.000,32.000 ZM25.000,26.000 C25.000,26.000 9.000,26.000 9.000,26.000 C8.329,26.000 7.000,25.690 7.000,25.000 C7.000,24.310 8.329,24.000 9.000,24.000 C9.000,24.000 25.000,24.000 25.000,24.000 C25.671,24.000 27.000,24.310 27.000,25.000 C27.000,25.690 25.671,26.000 25.000,26.000 ZM25.000,20.000 C25.000,20.000 9.000,20.000 9.000,20.000 C8.329,20.000 7.000,19.690 7.000,19.000 C7.000,18.309 8.329,18.000 9.000,18.000 C9.000,18.000 25.000,18.000 25.000,18.000 C25.671,18.000 27.000,18.309 27.000,19.000 C27.000,19.690 25.671,20.000 25.000,20.000 Z"/></g></svg>