<?xml version="1.0" encoding="utf-8"?> <!-- Generated by Layerhero SVG Exporter: http://www.layerhero.com/photoshop-svg-exporter --><!DOCTYPE svg PUBLIC "-//W3C//DTD SVG 1.1//EN" "http://www.w3.org/Graphics/SVG/1.1/DTD/svg11.dtd"><svg version="1.1" baseProfile="full" xmlns="http://www.w3.org/2000/svg" xmlns:xlink="http://www.w3.org/1999/xlink" xmlns:ev="http://www.w3.org/2001/xml-events" width="32" height="40" viewBox="0 0 32 40"><g transform="scale(NaN)" ><path fill-rule="evenodd"  fill="rgb( 0, 189, 156 )" d="M27.077,40.000 C27.077,40.000 4.923,40.000 4.923,40.000 C2.204,40.000 -0.000,37.762 -0.000,35.000 C-0.000,35.000 -0.000,5.000 -0.000,5.000 C-0.000,2.239 2.204,0.000 4.923,0.000 C4.923,0.000 19.692,0.000 19.692,0.000 C21.340,-0.026 21.996,0.036 22.154,0.036 C22.154,0.036 22.154,0.000 22.154,0.000 C22.154,0.000 32.000,10.000 32.000,10.000 C32.000,11.836 32.000,12.110 32.000,12.500 C32.000,12.500 32.000,35.000 32.000,35.000 C32.000,37.762 29.796,40.000 27.077,40.000 ZM22.000,3.000 C22.000,5.977 22.000,7.000 22.000,7.000 C22.000,8.381 23.641,10.000 25.000,10.000 C25.000,10.000 29.000,10.000 29.000,10.000 C29.000,10.000 22.000,3.000 22.000,3.000 ZM30.000,12.000 C27.134,12.000 25.000,12.000 25.000,12.000 C22.281,12.000 20.000,9.762 20.000,7.000 C20.000,7.000 19.978,4.993 20.000,2.000 C20.000,2.000 5.000,2.000 5.000,2.000 C3.641,2.000 2.000,3.619 2.000,5.000 C2.000,5.000 2.000,35.000 2.000,35.000 C2.000,36.381 3.641,38.000 5.000,38.000 C5.000,38.000 27.000,38.000 27.000,38.000 C28.359,38.000 30.000,36.381 30.000,35.000 C30.000,35.000 30.000,12.000 30.000,12.000 Z"/><path fill-rule="evenodd"  fill="rgb( 0, 189, 156 )" d="M25.622,20.173 C25.622,20.173 13.979,31.627 13.979,31.627 C13.979,31.627 13.979,31.627 13.979,31.627 C13.745,31.857 13.422,32.000 13.066,32.000 C12.710,32.000 12.387,31.857 12.154,31.627 C12.154,31.627 12.154,31.627 12.154,31.627 C12.154,31.627 6.378,25.942 6.378,25.942 C6.378,25.942 6.378,25.942 6.378,25.942 C6.144,25.712 6.000,25.394 6.000,25.042 C6.000,24.340 6.578,23.770 7.290,23.770 C7.646,23.770 7.969,23.912 8.203,24.143 C8.203,24.143 8.203,24.143 8.203,24.143 C8.203,24.143 13.410,29.370 13.410,29.370 C13.410,29.370 23.797,18.373 23.797,18.373 C23.797,18.373 23.797,18.373 23.797,18.373 C24.031,18.143 24.353,18.000 24.710,18.000 C25.422,18.000 26.000,18.570 26.000,19.273 C26.000,19.624 25.856,19.943 25.622,20.173 C25.622,20.173 25.622,20.173 25.622,20.173 ZM25.570,18.000 C25.570,18.000 25.570,18.000 25.570,18.000 C25.570,18.000 25.570,18.000 25.570,18.000 C25.570,18.000 25.570,18.000 25.570,18.000 Z"/></g></svg>