<?xml version="1.0" encoding="utf-8"?> <!-- Generated by Layerhero SVG Exporter: http://www.layerhero.com/photoshop-svg-exporter --><!DOCTYPE svg PUBLIC "-//W3C//DTD SVG 1.1//EN" "http://www.w3.org/Graphics/SVG/1.1/DTD/svg11.dtd"><svg version="1.1" baseProfile="full" xmlns="http://www.w3.org/2000/svg" xmlns:xlink="http://www.w3.org/1999/xlink" xmlns:ev="http://www.w3.org/2001/xml-events" width="30" height="40" viewBox="0 0 30 40"><g transform="scale(NaN)" ><path fill-rule="evenodd"  fill="rgb( 245, 157, 0 )" d="M15.000,36.000 C15.000,36.000 -0.000,21.520 -0.000,14.000 C-0.000,6.479 6.716,0.000 15.000,0.000 C23.284,0.000 30.000,6.479 30.000,14.000 C30.000,21.520 15.000,36.000 15.000,36.000 ZM15.000,2.000 C7.751,2.000 1.992,7.420 2.000,14.000 C2.008,20.580 15.002,33.000 15.000,33.000 C15.000,33.000 28.000,20.580 28.000,14.000 C28.000,7.420 22.249,2.000 15.000,2.000 ZM15.000,22.000 C10.340,22.000 7.000,18.230 7.000,14.000 C7.000,9.770 10.340,5.957 15.000,5.957 C19.660,5.957 23.000,9.770 23.000,14.000 C23.000,18.230 19.660,22.000 15.000,22.000 ZM15.000,8.000 C11.376,8.000 9.000,10.710 9.000,14.000 C9.000,17.290 11.376,20.000 15.000,20.000 C18.624,20.000 21.000,17.290 21.000,14.000 C21.000,10.710 18.624,8.000 15.000,8.000 ZM7.000,31.000 C7.411,31.512 8.614,32.534 9.000,33.000 C4.998,33.419 3.000,33.999 3.000,35.000 C3.000,36.410 8.269,38.000 15.000,38.000 C21.731,38.000 27.000,36.410 27.000,35.000 C27.000,33.999 25.001,33.419 21.000,33.000 C21.386,32.534 22.588,31.512 23.000,31.000 C27.423,31.717 29.000,33.375 29.000,35.000 C29.000,39.103 22.766,40.000 15.000,40.000 C7.234,40.000 1.000,38.919 1.000,35.000 C1.000,33.375 2.577,31.717 7.000,31.000 Z"/></g></svg>