<?xml version="1.0" standalone="no"?>
<!DOCTYPE svg PUBLIC "-//W3C//DTD SVG 1.1//EN" "http://www.w3.org/Graphics/SVG/1.1/DTD/svg11.dtd" >
<svg xmlns="http://www.w3.org/2000/svg">
<metadata>
This is a custom SVG webfont generated by Font Squirrel.
Copyright   : C 2010 dot colon
Designer    : arro
</metadata>
<defs>
<font id="webfontTDl85Sua" horiz-adv-x="1050" >
<font-face units-per-em="2048" ascent="1577" descent="-471" />
<missing-glyph horiz-adv-x="487" />
<glyph unicode=" "  horiz-adv-x="487" />
<glyph unicode="&#x09;" horiz-adv-x="487" />
<glyph unicode="&#xa0;" horiz-adv-x="487" />
<glyph unicode="!" horiz-adv-x="483" d="M307 45q0 -29 -18.5 -47t-47 -18t-47 18t-18.5 47t18.5 47.5t47 18.5t47 -18.5t18.5 -47.5zM279 285h-74l-12 1104h98z" />
<glyph unicode="&#x22;" horiz-adv-x="516" d="M203 1026h-64l-8 375q-2 41 41 41h51zM381 1026h-64l-8 375q-2 41 41 41h51z" />
<glyph unicode="#" horiz-adv-x="1064" d="M954 836h-209l-53 -324h217v-61h-227l-61 -379h-66l61 379h-241l-62 -379h-65l61 379h-198v61h208l54 324h-217v61h227l61 379h66l-61 -379h241l62 379h65l-61 -379h198v-61zM627 512l53 324h-242l-53 -324h242z" />
<glyph unicode="$" d="M854 391q0 -129 -83 -217t-222 -106v-191h-66v186q-156 0 -293 56l13 76q139 -57 282 -58q129 0 205 59.5t76 170.5q0 104 -58.5 164.5t-224.5 136.5q-139 63 -204.5 136t-65.5 181q0 123 76 197.5t196 91.5v199h66v-195q141 0 240 -49l-11 -72q-113 47 -229 47 q-113 0 -181.5 -52t-68.5 -151q0 -106 54.5 -161.5t211.5 -126.5q152 -70 219.5 -145t67.5 -177z" />
<glyph unicode="%" horiz-adv-x="1691" d="M1546 327.5q0 -149.5 -76.5 -248.5t-205.5 -99t-206 99t-77 248.5t77 249t206 99.5t205.5 -99.5t76.5 -249zM1477 328q0 133 -59.5 209.5t-154 76.5t-153.5 -76.5t-59 -209.5t59 -210t153.5 -77t154 77t59.5 210zM711 1019.5q0 -149.5 -77 -248.5t-206 -99t-206 99 t-77 248.5t77 249t206 99.5t206 -99.5t77 -249zM641 1020q0 133 -59.5 210t-153.5 77t-153.5 -77t-59.5 -210t59.5 -210t153.5 -77t153.5 77t59.5 210zM1278 1409h78l-942 -1450h-78z" />
<glyph unicode="&#x26;" horiz-adv-x="1314" d="M1249 0h-110l-121 143h-4q-182 -164 -461 -163q-178 0 -308 97t-130 263q0 141 84 239.5t266 211.5v4q-92 106 -136 180t-44 158q0 127 90 201.5t200 74.5q123 0 198 -78t75 -190q0 -111 -64.5 -187.5t-203.5 -171.5v-4l444 -520h4q121 156 131 430h82 q-14 -309 -168 -485zM571.5 1335q-79.5 0 -138 -52t-58.5 -138q0 -82 32.5 -142.5t122.5 -166.5h5q121 80 172 141t51 158q0 90 -53.5 145t-133 55zM567 53q242 0 400 144v4l-451 536h-4q-164 -104 -235.5 -185t-71.5 -200q0 -129 103 -214t259 -85z" />
<glyph unicode="'" horiz-adv-x="391" d="M256 1026h-63l-9 375q-2 41 41 41h51z" />
<glyph unicode="(" horiz-adv-x="602" d="M182 628.5q0 235.5 71 457t173 364.5h61q-236 -369 -235.5 -821.5t235.5 -821.5h-61q-102 143 -173 364.5t-71 457z" />
<glyph unicode=")" horiz-adv-x="602" d="M420 628.5q0 -235.5 -70.5 -456.5t-173.5 -365h-61q236 369 235.5 821.5t-235.5 821.5h61q102 -143 173 -364.5t71 -457z" />
<glyph unicode="*" horiz-adv-x="909" d="M416 1380h78l-17 -293h4l269 107l24 -74l-282 -73v-5l184 -225l-64 -45l-155 246h-4l-156 -246l-64 45l185 225v5l-283 73l25 74l268 -107h4z" />
<glyph unicode="+" horiz-adv-x="1249" d="M657 555h457v-61h-457v-494h-65v494h-457v61h457v494h65v-494z" />
<glyph unicode="," horiz-adv-x="393" d="M190 90h68q-80 -240 -154 -412l-81 -16q80 219 122 395q8 33 45 33z" />
<glyph unicode="-" horiz-adv-x="735" d="M575 555v-61h-415v61h415z" />
<glyph unicode="." horiz-adv-x="401" d="M200.5 111q28.5 0 47 -18.5t18.5 -47.5t-18.5 -47t-47 -18t-47 18t-18.5 47t18.5 47.5t47 18.5z" />
<glyph unicode="/" horiz-adv-x="692" d="M631 1434h71l-641 -1510h-71z" />
<glyph unicode="0" d="M526.5 1368q194.5 0 314.5 -185.5t120 -509t-120 -508.5t-314.5 -185t-315.5 185t-121 508.5t121 509t315.5 185.5zM526.5 53q149.5 0 246.5 165t97 456t-97 455.5t-246.5 164.5t-248 -165.5t-98.5 -454.5t98.5 -455t248 -166z" />
<glyph unicode="1" d="M594 1348h41v-1348h-82v1239l-291 -115l-10 72z" />
<glyph unicode="2" d="M891 72v-72h-756v61l277 349q236 299 303 410.5t67 205.5q0 121 -75.5 194.5t-214.5 73.5q-152 0 -283 -77l-10 73q137 78 313 78q164 0 262 -95t98 -239q0 -117 -83.5 -250t-358.5 -477l-184 -231v-4h645z" />
<glyph unicode="3" d="M436 -20q-158 0 -303 65l10 74q145 -66 316 -66q150 0 253 82t103 217q0 133 -98.5 212t-290.5 87v76q137 10 246.5 101.5t109.5 220.5q0 117 -74.5 181t-215.5 64q-137 0 -275 -67l-10 73q137 68 305 68q162 0 261 -83t99 -210t-91 -223t-222 -137v-4 q145 -27 245.5 -117t100.5 -225q0 -184 -133 -286.5t-336 -102.5z" />
<glyph unicode="4" d="M821 430h178v-72h-178v-358h-82v358h-655v66l649 924h88v-918zM180 430h559v414q0 240 2 387h-4l-557 -799v-2z" />
<glyph unicode="5" d="M279 750q100 47 225 47q178 0 291.5 -105.5t113.5 -273.5q0 -197 -139 -317.5t-344 -120.5q-158 0 -281 59l11 74q143 -59 278 -60q160 0 272.5 94.5t112.5 243.5q0 162 -90 247t-244 85q-121 0 -215 -49l-73 2l20 672h625v-72h-551l-19 -526h7z" />
<glyph unicode="6" d="M530 -20q-178 0 -294.5 147t-116.5 401q0 330 193.5 572.5t451.5 267.5l10 -74q-233 -33 -392 -230.5t-175 -461.5h4q39 102 137 158.5t211 56.5q164 0 270.5 -108.5t106.5 -276.5q0 -199 -117 -325.5t-289 -126.5zM535 743q-137 0 -227.5 -84t-90.5 -208q0 -162 93 -280 t227 -118q127 0 218 98.5t91 266.5q0 143 -86 234t-225 91z" />
<glyph unicode="7" d="M926 1348v-74l-533 -1274h-84l535 1272v4h-697v72h779z" />
<glyph unicode="8" d="M621 721q158 -74 233.5 -158t75.5 -211q0 -174 -123 -273t-283 -99q-174 0 -289.5 93t-115.5 253q0 139 83 230t234 157v4q-260 123 -260 334q0 135 106.5 226t260.5 91q143 0 248.5 -88t105.5 -215q0 -217 -276 -340v-4zM264 1055q0 -205 268 -303q276 104 277 295 q0 109 -75 179t-195.5 70t-197.5 -69.5t-77 -171.5zM524 53q129 0 223.5 77t94.5 206q0 231 -324 350q-311 -121 -311 -340q0 -131 91 -212t226 -81z" />
<glyph unicode="9" d="M520 1368q178 0 295 -147.5t117 -401.5q0 -330 -193.5 -572.5t-451.5 -266.5l-11 73q233 33 392 230.5t176 461.5h-4q-39 -102 -137.5 -158.5t-210.5 -56.5q-166 0 -271.5 109t-105.5 276q0 199 116.5 326t288.5 127zM516 604q137 0 227.5 83t90.5 210q0 162 -94.5 279.5 t-225.5 117.5q-127 0 -218 -98t-91 -266q0 -143 86 -234.5t225 -91.5z" />
<glyph unicode=":" horiz-adv-x="401" d="M200.5 881q-28.5 0 -47 18.5t-18.5 47t18.5 47t47 18.5t47 -18.5t18.5 -47t-18.5 -47t-47 -18.5zM200.5 111q28.5 0 47 -18.5t18.5 -47.5t-18.5 -47t-47 -18t-47 18t-18.5 47t18.5 47.5t47 18.5z" />
<glyph unicode=";" horiz-adv-x="413" d="M213 881q-29 0 -47.5 18.5t-18.5 47t18.5 47t47.5 18.5t47.5 -18.5t18.5 -47t-18.5 -47t-47.5 -18.5zM190 90h68q-80 -240 -154 -412l-81 -16q80 219 122 395q8 33 45 33z" />
<glyph unicode="&#x3c;" horiz-adv-x="1015" d="M164 539l702 -375v-74l-762 414v74l762 413v-73l-702 -375v-4z" />
<glyph unicode="=" horiz-adv-x="1290" d="M1108 281h-926v61h926v-61zM1108 707h-926v61h926v-61z" />
<glyph unicode="&#x3e;" horiz-adv-x="1015" d="M852 539v4l-702 375v73l761 -413v-74l-761 -414v74z" />
<glyph unicode="?" horiz-adv-x="786" d="M672 1151q0 -86 -44 -173t-153 -233q-76 -102 -103.5 -189t-27.5 -196v-75h-82v57q0 139 42 246.5t132 230.5q76 106 111 177t35 145q0 88 -63.5 147.5t-184.5 59.5q-125 0 -230 -58l-10 74q117 57 260 57q141 0 229.5 -73.5t88.5 -196.5zM369 45q0 29 -18.5 47.5 t-47.5 18.5t-47 -18.5t-18 -47.5t18 -47t47 -18t47.5 18t18.5 47z" />
<glyph unicode="@" horiz-adv-x="1798" d="M1018 1188q242 0 414 -181.5t172 -404.5q0 -221 -107.5 -360.5t-269.5 -139.5q-145 0 -174 164h-4q-94 -178 -279 -178q-88 0 -159.5 77t-71.5 195q0 233 137 378t354 145q88 0 170 -31l-65 -438q-39 -250 114 -250q119 0 201 110.5t82 292.5q0 236 -152.5 397.5 t-398.5 161.5q-319 0 -538.5 -208.5t-219.5 -514.5q0 -264 162 -434t399 -170q231 0 416 111l8 -57q-190 -115 -448 -115q-248 0 -427 183t-179 444q0 371 247.5 597t616.5 226zM1077 481l47 326q-57 14 -120 14q-176 0 -286 -125t-110 -315q0 -109 55.5 -170t131.5 -61 q235 -1 282 331z" />
<glyph unicode="A" horiz-adv-x="1177" d="M1026 0l-168 489h-555l-168 -489h-82l488 1389h84l487 -1389h-86zM328 561h508l-250 727h-6z" />
<glyph unicode="B" horiz-adv-x="1054" d="M641 729q141 -33 225 -122t84 -214q0 -193 -143 -298t-375 -105q-121 0 -256 22v1366q158 20 285 21q217 0 334.5 -91t117.5 -241q0 -121 -80.5 -211t-191.5 -123v-4zM258 745h221q135 0 239.5 81t104.5 225q0 131 -97 202.5t-277 71.5q-106 0 -191 -14v-566zM473 678 h-215v-598q104 -16 195 -17q188 0 297.5 86.5t109.5 231.5q0 133 -101.5 215t-285.5 82z" />
<glyph unicode="C" horiz-adv-x="1187" d="M90 690q0 315 194.5 517t471.5 202q242 0 358 -63l-10 -74q-168 63 -342 63q-242 0 -412 -178t-170 -463q0 -293 161 -467t402 -174q178 0 340 66l11 -76q-147 -63 -371 -63q-264 0 -448.5 191t-184.5 519z" />
<glyph unicode="D" horiz-adv-x="1357" d="M176 1376q152 23 334 23q352 0 555 -179.5t203 -484.5q0 -330 -227.5 -537.5t-551.5 -207.5q-133 0 -313 14v1372zM258 1311v-1239q143 -8 252 -9q272 0 470 182.5t198 469.5q0 276 -177.5 443t-488.5 167q-139 0 -254 -14z" />
<glyph unicode="E" horiz-adv-x="991" d="M258 72h619v-72h-701v1389h682v-72h-600v-563h530v-72h-530v-610z" />
<glyph unicode="F" horiz-adv-x="911" d="M258 0h-82v1389h682v-72h-600v-584h530v-71h-530v-662z" />
<glyph unicode="G" horiz-adv-x="1277" d="M770 1409q203 0 338 -66l-10 -79q-152 72 -334 71q-248 0 -416 -174t-168 -467t158 -462t405 -169q186 0 324 50v473h-346v71h428v-598q-180 -70 -426 -69q-272 0 -452.5 182t-180.5 512q0 332 198.5 528.5t481.5 196.5z" />
<glyph unicode="H" horiz-adv-x="1357" d="M1100 1389h82v-1389h-82v680h-842v-680h-82v1389h82v-637h842v637z" />
<glyph unicode="I" horiz-adv-x="434" d="M258 0h-82v1389h82v-1389z" />
<glyph unicode="J" horiz-adv-x="749" d="M584 444q0 -233 -107.5 -348.5t-290.5 -115.5q-106 0 -174 28l11 74q74 -29 178 -29q139 0 220 92.5t81 290.5v953h82v-945z" />
<glyph unicode="K" horiz-adv-x="1079" d="M1055 1389l-594 -666l635 -723h-113l-571 664h-6l-148 -166v-498h-82v1389h82v-789h8l686 789h103z" />
<glyph unicode="L" horiz-adv-x="954" d="M176 1389h82v-1317h639v-72h-721v1389z" />
<glyph unicode="M" horiz-adv-x="1646" d="M1321 1389h100l49 -1389h-81l-35 1278h-6l-496 -1237h-78l-487 1237h-6l-35 -1278h-76l49 1389h103l491 -1254h6z" />
<glyph unicode="N" horiz-adv-x="1384" d="M1214 1389v-1389h-112l-592 897q-164 246 -264 410h-6q6 -164 6 -410v-897h-76v1389h113l591 -897l265 -412h6q-6 166 -6 412v897h75z" />
<glyph unicode="O" horiz-adv-x="1437" d="M718.5 -20q-274.5 0 -451.5 213t-177 501.5t177 501.5t451.5 213t452 -213t177.5 -501.5t-177.5 -501.5t-452 -213zM718.5 53q237.5 0 388 189.5t150.5 451.5t-150.5 451.5t-388 189.5t-388 -189.5t-150.5 -451.5t150.5 -451.5t388 -189.5z" />
<glyph unicode="P" horiz-adv-x="1011" d="M258 1313v-649q72 -10 158 -11q188 0 308 94.5t120 260.5q0 160 -110.5 238.5t-303.5 78.5q-82 0 -172 -12zM176 0v1372q133 27 260 27q236 0 367 -98.5t131 -272.5q0 -219 -152.5 -333.5t-382.5 -114.5q-59 0 -141 10v-590h-82z" />
<glyph unicode="Q" horiz-adv-x="1437" d="M1348 694q0 -229 -117 -416.5t-309 -261.5l75 -290l-79 -21l-70 289q-57 -14 -129 -14q-274 0 -451.5 213t-177.5 501.5t177 501.5t451.5 213t452 -213t177.5 -502zM718.5 53q237.5 0 388 189.5t150.5 451.5t-150.5 451.5t-388 189.5t-388 -189.5t-150.5 -451.5 t150.5 -451.5t388 -189.5z" />
<glyph unicode="R" horiz-adv-x="1044" d="M258 702h236q160 0 261 86t101 236q0 147 -102.5 223t-288.5 76q-104 0 -207 -18v-603zM508 631h-250v-631h-82v1366q145 31 295 31q215 0 345 -94.5t130 -258.5q0 -141 -88 -237t-209 -131v-4q180 -51 228 -279q39 -197 100 -393h-96q-55 199 -90 381q-52 250 -283 250z " />
<glyph unicode="S" horiz-adv-x="1003" d="M160 1059q0 166 116.5 258t278.5 92q170 0 264 -49l-10 -74q-98 49 -254 49q-131 0 -219 -69.5t-88 -188.5q0 -127 68.5 -196.5t232.5 -145.5t241.5 -158.5t77.5 -209.5q0 -170 -123.5 -278.5t-328.5 -108.5q-182 0 -312 51l11 75q143 -53 309 -53q150 0 253 78t103 211 q0 125 -69.5 195.5t-245.5 150.5q-145 66 -225 154t-80 217z" />
<glyph unicode="T" horiz-adv-x="970" d="M940 1389v-72h-414v-1317h-82v1317h-413v72h909z" />
<glyph unicode="U" horiz-adv-x="1204" d="M1051 469q0 -229 -125 -359t-322 -130q-195 0 -319.5 129t-124.5 329v951h82v-930q0 -193 101 -299.5t265 -106.5q170 0 267.5 109.5t97.5 296.5v930h78v-920z" />
<glyph unicode="V" horiz-adv-x="1114" d="M520 0l-487 1389h86l440 -1287h6l445 1287h82l-488 -1389h-84z" />
<glyph unicode="W" horiz-adv-x="1775" d="M1667 1389h78l-424 -1389h-82l-342 1274h-6l-346 -1274h-84l-420 1389h86l375 -1280h6l348 1280h82l344 -1280h6z" />
<glyph unicode="X" horiz-adv-x="995" d="M952 1389l-409 -676l436 -713h-96l-381 643h-4l-379 -643h-90l432 709l-418 680h96l363 -609h4l356 609h90z" />
<glyph unicode="Y" horiz-adv-x="1042" d="M930 1389h90l-451 -781v-608h-82v600l-454 789h98l397 -711h4z" />
<glyph unicode="Z" horiz-adv-x="1112" d="M182 72h836v-72h-928v72l803 1241v4h-739v72h829v-74l-801 -1239v-4z" />
<glyph unicode="[" horiz-adv-x="608" d="M510 1372h-236v-1489h236v-61h-301v1612h301v-62z" />
<glyph unicode="\" horiz-adv-x="692" d="M61 1434l641 -1510h-71l-641 1510h71z" />
<glyph unicode="]" horiz-adv-x="608" d="M98 1372v62h301v-1612h-301v61h236v1489h-236z" />
<glyph unicode="^" horiz-adv-x="1093" d="M584 1339l374 -798h-73l-334 733h-6l-336 -733h-74l375 798h74z" />
<glyph unicode="_" horiz-adv-x="1032" d="M979 -174h-926v61h926v-61z" />
<glyph unicode="`" horiz-adv-x="505" d="M88 1442h68q27 0 39 -23q57 -113 135 -239l-78 -4q-109 162 -164 266z" />
<glyph unicode="a" horiz-adv-x="950" d="M469 1008q156 0 240 -86t84 -242v-680h-76l-6 186h-4q-43 -98 -125 -152t-181 -54q-127 0 -216 87t-89 222q0 160 120 248t306 88q94 0 189 -17v45q0 145 -62.5 214t-202.5 69q-113 0 -233 -51l-8 69q131 54 264 54zM711 410v131q-70 16 -170 16q-162 0 -258.5 -64.5 t-96.5 -193.5q0 -117 68 -184.5t172 -67.5q123 0 204 101.5t81 261.5z" />
<glyph unicode="b" horiz-adv-x="1132" d="M262 793q131 211 344 211q197 0 313.5 -134.5t116.5 -359.5q0 -236 -124 -383t-320 -147q-223 0 -330 210h-4l-6 -190h-76v1475h82v-682h4zM258 588v-193q0 -152 97.5 -248t238.5 -96q152 0 252 120t100 323q0 201 -93 319.5t-263 118.5q-145 0 -238.5 -101.5 t-93.5 -242.5z" />
<glyph unicode="c" horiz-adv-x="935" d="M186 506q0 -211 110 -333t292 -122q106 0 256 55l8 -69q-127 -57 -293 -57q-199 0 -331 139t-132 364q0 248 137.5 384.5t356.5 136.5q184 0 272 -60l-8 -70q-119 57 -260 58q-180 0 -294 -110.5t-114 -315.5z" />
<glyph unicode="d" horiz-adv-x="1132" d="M870 190q-131 -211 -344 -210q-197 0 -313.5 134t-116.5 359q0 236 124 383.5t321 147.5q225 0 329 -211h4v682h82v-1475h-75l-7 190h-4zM874 395v193q0 150 -98 247t-237 97q-154 0 -253.5 -119t-99.5 -324q0 -201 93.5 -319.5t263.5 -118.5q143 0 237 101.5t94 242.5z " />
<glyph unicode="e" horiz-adv-x="1005" d="M901 578q0 -45 -6 -89h-713q0 -207 102.5 -322.5t282.5 -115.5q131 0 240 51l8 -69q-119 -53 -278 -53q-190 0 -315.5 130t-125.5 375q0 217 128 370t327 153q166 0 258 -123t92 -307zM186 557h631q0 174 -71.5 276.5t-213.5 102.5q-147 0 -242.5 -110.5t-103.5 -268.5z " />
<glyph unicode="f" horiz-adv-x="641" d="M236 1085q0 199 94 304.5t239 105.5q76 0 129 -29l-8 -65q-55 23 -123 22q-115 0 -182.5 -78.5t-67.5 -234.5v-127h263v-72h-263v-911h-81v911h-162v72h162v102z" />
<glyph unicode="g" horiz-adv-x="1128" d="M952 983v-848q0 -557 -473 -557q-180 0 -301 72l8 74q127 -74 297 -74q186 0 286.5 108.5t100.5 329.5v115h-4q-131 -211 -344 -211q-197 0 -311.5 132t-114.5 357q0 233 123 378t318 145q225 0 329 -211h4l7 190h75zM535 932q-152 0 -250.5 -119t-98.5 -315 q0 -199 93.5 -317t259.5 -118q143 0 237 101.5t94 243.5v180q0 150 -98 247t-237 97z" />
<glyph unicode="h" horiz-adv-x="1073" d="M258 786h4q55 106 147.5 164t202.5 58q152 0 227.5 -99.5t75.5 -263.5v-645h-81v614q0 158 -57.5 239t-192.5 81q-139 0 -232.5 -103.5t-93.5 -248.5v-582h-82v1475h82v-689z" />
<glyph unicode="i" horiz-adv-x="434" d="M176 0v983h82v-983h-82zM217 1182q-27 0 -44 17.5t-17 44t17 44t44 17.5t44.5 -17.5t17.5 -44t-17.5 -44t-44.5 -17.5z" />
<glyph unicode="j" horiz-adv-x="458" d="M283 80q0 -236 -85 -350.5t-274 -151.5l-8 74q143 27 214 118t71 298v915h82v-903zM241.5 1182q-26.5 0 -44 17.5t-17.5 44t17.5 44t44 17.5t44 -17.5t17.5 -44t-17.5 -44t-44 -17.5z" />
<glyph unicode="k" horiz-adv-x="935" d="M885 983l-402 -403l455 -580h-104l-402 520h-6l-168 -176v-344h-82v1475h82v-1043h6l171 188l237 250l106 113h107z" />
<glyph unicode="l" horiz-adv-x="434" d="M258 0h-82v1475h82v-1475z" />
<glyph unicode="m" horiz-adv-x="1640" d="M856 750h6q113 254 338 254q141 0 212 -95.5t71 -267.5v-641h-82v610q0 162 -54.5 241t-177.5 79q-133 0 -216 -114t-83 -279v-537h-82v606q0 324 -231 324q-133 0 -216 -112.5t-83 -280.5v-537h-82v983h76l6 -201h4q111 221 326 222q106 0 175.5 -71.5t92.5 -182.5z" />
<glyph unicode="n" horiz-adv-x="1073" d="M258 786h4q55 106 147.5 164t202.5 58q152 0 227.5 -99.5t75.5 -263.5v-645h-81v614q0 158 -57.5 239t-192.5 81q-139 0 -232.5 -103.5t-93.5 -248.5v-582h-82v987h76z" />
<glyph unicode="o" horiz-adv-x="1089" d="M96 491.5q0 231.5 127 372t321.5 140.5t321.5 -140.5t127 -372t-127 -371.5t-321.5 -140t-321.5 140t-127 371.5zM186 491.5q0 -200.5 96.5 -320.5t262.5 -120t262 120t96 320.5t-96 320.5t-262 120t-262.5 -120t-96.5 -320.5z" />
<glyph unicode="p" horiz-adv-x="1132" d="M262 793q131 211 344 211q197 0 313.5 -134.5t116.5 -359.5q0 -236 -124 -383t-320 -147q-223 0 -330 210h-4v-591h-82v1384h76l6 -190h4zM258 588v-193q0 -152 97.5 -248t238.5 -96q152 0 252 120t100 323q0 201 -93 319.5t-263 118.5q-145 0 -238.5 -101.5 t-93.5 -242.5z" />
<glyph unicode="q" horiz-adv-x="1132" d="M870 190q-131 -211 -344 -210q-197 0 -313.5 134t-116.5 359q0 236 124 383.5t321 147.5q225 0 329 -211h4l7 190h75v-1384h-82v591h-4zM874 395v193q0 150 -98 247t-237 97q-154 0 -253.5 -119t-99.5 -324q0 -201 93.5 -319.5t263.5 -118.5q143 0 237 101.5t94 242.5z " />
<glyph unicode="r" horiz-adv-x="557" d="M526 1008l-4 -97q-59 -10 -102 -37q-162 -104 -162 -428v-446h-82v987h76l6 -252h4q39 121 107.5 193t156.5 80z" />
<glyph unicode="s" horiz-adv-x="798" d="M373 469q-223 94 -223 274q0 123 83.5 192t208.5 69q119 0 201 -46l-8 -69q-94 43 -189 43q-88 0 -149 -45t-61 -125q0 -86 38.5 -135t135.5 -90q143 -61 206.5 -125t63.5 -152q0 -131 -93 -205.5t-240.5 -74.5t-244.5 53l9 71q121 -53 245 -53q109 0 173.5 50.5 t64.5 138.5q0 74 -49 126t-172 103z" />
<glyph unicode="t" horiz-adv-x="624" d="M500 983v-72h-226v-678q0 -182 142 -182q57 0 112 21l9 -66q-59 -27 -142 -26q-92 0 -147 56t-55 171v704h-146v72h146v207h81v-207h226z" />
<glyph unicode="u" horiz-adv-x="1073" d="M815 201h-4q-119 -221 -350 -221q-154 0 -228.5 99t-74.5 263v641h82v-610q0 -158 57 -239t192 -81q137 0 231.5 103.5t94.5 249.5v577h82v-983h-76z" />
<glyph unicode="v" horiz-adv-x="944" d="M829 983h82l-395 -983h-84l-393 983h88l348 -893h4z" />
<glyph unicode="w" horiz-adv-x="1499" d="M1376 983h82l-344 -983h-82l-274 874h-6l-277 -874h-86l-342 983h90l295 -883h6l277 883h86l276 -883h6z" />
<glyph unicode="x" horiz-adv-x="905" d="M838 983l-342 -473v-6l370 -504h-102l-315 440h-7l-315 -440h-94l366 500v6l-346 477h103l290 -412h7l290 412h95z" />
<glyph unicode="y" horiz-adv-x="927" d="M516 -6q-80 -195 -176 -290t-242 -126l-8 74q115 25 196 98.5t138 216.5l12 31l-397 985h88l350 -893h4l353 893h81z" />
<glyph unicode="z" horiz-adv-x="849" d="M727 911l-541 -833v-6h572v-72h-664v72l541 833v6h-494v72h586v-72z" />
<glyph unicode="{" horiz-adv-x="673" d="M166 598v61q96 10 127 45t20 123l-32 291q-39 336 301 336v-61q-150 0 -200 -70t-36 -205l33 -289q10 -92 -15.5 -131t-97.5 -67v-4q72 -29 97.5 -68t15.5 -131l-33 -289q-14 -135 36 -204.5t200 -69.5v-62q-340 0 -301 336l32 291q10 88 -20.5 123t-126.5 45z" />
<glyph unicode="|" horiz-adv-x="487" d="M279 -512h-70v2048h70v-2048z" />
<glyph unicode="}" horiz-adv-x="673" d="M508 598q-96 -10 -127 -45t-21 -123l33 -291q39 -336 -301 -336v62q150 0 200 69.5t36 204.5l-33 289q-10 92 15.5 131t97.5 68v4q-72 29 -97.5 67.5t-15.5 130.5l33 289q14 135 -36 205t-200 70v61q340 0 301 -336l-33 -291q-10 -88 21 -122.5t127 -45.5v-61z" />
<glyph unicode="~" horiz-adv-x="1224" d="M602 494q-227 76 -287 75q-57 0 -81.5 -30.5t-26.5 -100.5h-62q0 98 50.5 145.5t134.5 47.5q72 0 293 -76q219 -76 286 -76q57 0 82 31t27 100h61q0 -98 -50 -145t-134 -47q-72 0 -293 76z" />
<glyph unicode="&#xa5;" d="M934 1348l-338 -594h291v-62h-318v-170h318v-61h-318v-461h-82v461h-317v61h317v170h-317v62h287l-338 594h96l311 -600h6l314 600h88z" />
<glyph unicode="&#xad;" horiz-adv-x="735" d="M575 555v-61h-415v61h415z" />
<glyph unicode="&#xc4;" horiz-adv-x="1177" d="M1026 0l-168 489h-555l-168 -489h-82l488 1389h84l487 -1389h-86zM328 561h508l-250 727h-6zM506 1550.5q0 -26.5 -17.5 -44t-44 -17.5t-44 17.5t-17.5 44t17.5 44t44 17.5t44 -17.5t17.5 -44zM793 1550.5q0 -26.5 -17.5 -44t-44 -17.5t-44 17.5t-17.5 44t17.5 44 t44 17.5t44 -17.5t17.5 -44z" />
<glyph unicode="&#xc5;" horiz-adv-x="1177" d="M1026 0l-168 489h-555l-168 -489h-82l488 1389h84l487 -1389h-86zM328 561h508l-250 727h-6zM583.5 1681q53.5 0 91.5 -34.5t38 -86t-38 -86t-91.5 -34.5t-91 34.5t-37.5 86t37.5 86t91 34.5zM583.5 1483q30.5 0 53 21.5t22.5 56t-22.5 56t-53 21.5t-53 -21.5t-22.5 -56 t22.5 -56t53 -21.5z" />
<glyph unicode="&#xc6;" horiz-adv-x="1576" d="M963 72h505v-72h-573l-90 489h-508l-225 -489h-84l643 1389h799v-72h-703l107 -563h555v-72h-541zM324 561h473l-135 739h-7z" />
<glyph unicode="&#xcb;" horiz-adv-x="991" d="M258 72h619v-72h-701v1389h682v-72h-600v-563h530v-72h-530v-610zM457 1550.5q0 -26.5 -17.5 -44t-44 -17.5t-44 17.5t-17.5 44t17.5 44t44 17.5t44 -17.5t17.5 -44zM743 1550.5q0 -26.5 -17 -44t-44 -17.5t-44 17.5t-17 44t17 44t44 17.5t44 -17.5t17 -44z" />
<glyph unicode="&#xcf;" horiz-adv-x="434" d="M258 0h-82v1389h82v-1389zM135 1550.5q0 -26.5 -17.5 -44t-44 -17.5t-44 17.5t-17.5 44t17.5 44t44 17.5t44 -17.5t17.5 -44zM422 1550.5q0 -26.5 -17.5 -44t-44 -17.5t-44 17.5t-17.5 44t17.5 44t44 17.5t44 -17.5t17.5 -44z" />
<glyph unicode="&#xd6;" horiz-adv-x="1437" d="M718.5 -20q-274.5 0 -451.5 213t-177 501.5t177 501.5t451.5 213t452 -213t177.5 -501.5t-177.5 -501.5t-452 -213zM718.5 53q237.5 0 388 189.5t150.5 451.5t-150.5 451.5t-388 189.5t-388 -189.5t-150.5 -451.5t150.5 -451.5t388 -189.5zM637 1550.5q0 -26.5 -17.5 -44 t-44 -17.5t-44 17.5t-17.5 44t17.5 44t44 17.5t44 -17.5t17.5 -44zM924 1550.5q0 -26.5 -17.5 -44t-44 -17.5t-44 17.5t-17.5 44t17.5 44t44 17.5t44 -17.5t17.5 -44z" />
<glyph unicode="&#xd8;" horiz-adv-x="1437" d="M1167 1200q180 -209 181 -506q0 -289 -177.5 -501.5t-451.5 -212.5q-231 0 -402 159l-147 -182l-53 43l151 190q-178 211 -178 504q0 289 177 502t452 213q227 0 399 -158l146 181l53 -43zM180 694q0 -260 137 -438h5l745 930v4q-145 145 -348 145q-238 0 -388.5 -189.5 t-150.5 -451.5zM719 53q238 0 388 189.5t150 451.5q0 260 -139 441h-6l-743 -930v-4q143 -148 350 -148z" />
<glyph unicode="&#xdc;" horiz-adv-x="1204" d="M1051 469q0 -229 -125 -359t-322 -130q-195 0 -319.5 129t-124.5 329v951h82v-930q0 -193 101 -299.5t265 -106.5q170 0 267.5 109.5t97.5 296.5v930h78v-920zM532 1550.5q0 -26.5 -17 -44t-44 -17.5t-44 17.5t-17 44t17 44t44 17.5t44 -17.5t17 -44zM819 1550.5 q0 -26.5 -17.5 -44t-44 -17.5t-44 17.5t-17.5 44t17.5 44t44 17.5t44 -17.5t17.5 -44z" />
<glyph unicode="&#xe4;" horiz-adv-x="950" d="M469 1008q156 0 240 -86t84 -242v-680h-76l-6 186h-4q-43 -98 -125 -152t-181 -54q-127 0 -216 87t-89 222q0 160 120 248t306 88q94 0 189 -17v45q0 145 -62.5 214t-202.5 69q-113 0 -233 -51l-8 69q131 54 264 54zM711 410v131q-70 16 -170 16q-162 0 -258.5 -64.5 t-96.5 -193.5q0 -117 68 -184.5t172 -67.5q123 0 204 101.5t81 261.5zM401 1243.5q0 -26.5 -17 -44t-44 -17.5t-44 17.5t-17 44t17 44t44 17.5t44 -17.5t17 -44zM688 1243.5q0 -26.5 -17.5 -44t-44 -17.5t-44 17.5t-17.5 44t17.5 44t44 17.5t44 -17.5t17.5 -44z" />
<glyph unicode="&#xe5;" horiz-adv-x="950" d="M469 1008q156 0 240 -86t84 -242v-680h-76l-6 186h-4q-43 -98 -125 -152t-181 -54q-127 0 -216 87t-89 222q0 160 120 248t306 88q94 0 189 -17v45q0 145 -62.5 214t-202.5 69q-113 0 -233 -51l-8 69q131 54 264 54zM711 410v131q-70 16 -170 16q-162 0 -258.5 -64.5 t-96.5 -193.5q0 -117 68 -184.5t172 -67.5q123 0 204 101.5t81 261.5zM479 1333q53 0 91 -34.5t38 -86t-38 -86t-91 -34.5t-91 34.5t-38 86t38 86t91 34.5zM479.5 1135q30.5 0 53 21.5t22.5 56t-22.5 56t-53 21.5t-53.5 -21.5t-23 -56t23 -56t53.5 -21.5z" />
<glyph unicode="&#xe6;" horiz-adv-x="1595" d="M784 780h7q135 227 352 228q166 0 260 -124t94 -306q0 -45 -6 -89h-692q0 -207 102.5 -322.5t282.5 -115.5q111 0 219 51l8 -69q-119 -53 -258 -53q-137 0 -247.5 71.5t-149.5 202.5h-4q-37 -131 -129.5 -202.5t-216.5 -71.5q-127 0 -218.5 86t-91.5 221q0 158 122 247 t308 89q106 0 189 -15v45q0 145 -62.5 214t-201.5 69q-113 0 -234 -51l-8 69q131 53 264 54q260 -1 311 -228zM715 428v109v4q-59 14 -170 14q-162 0 -260.5 -64.5t-98.5 -193.5q0 -115 69 -182.5t175 -67.5q123 0 204 109.5t81 271.5zM803 557h608q0 174 -71.5 276.5 t-215.5 102.5q-133 0 -223 -111.5t-98 -267.5z" />
<glyph unicode="&#xeb;" horiz-adv-x="1005" d="M901 578q0 -45 -6 -89h-713q0 -207 102.5 -322.5t282.5 -115.5q131 0 240 51l8 -69q-119 -53 -278 -53q-190 0 -315.5 130t-125.5 375q0 217 128 370t327 153q166 0 258 -123t92 -307zM186 557h631q0 174 -71.5 276.5t-213.5 102.5q-147 0 -242.5 -110.5t-103.5 -268.5z M438 1243.5q0 -26.5 -17.5 -44t-44 -17.5t-44 17.5t-17.5 44t17.5 44t44 17.5t44 -17.5t17.5 -44zM725 1243.5q0 -26.5 -17.5 -44t-44 -17.5t-44 17.5t-17.5 44t17.5 44t44 17.5t44 -17.5t17.5 -44z" />
<glyph unicode="&#xef;" horiz-adv-x="434" d="M176 0v983h82v-983h-82zM135 1243.5q0 -26.5 -17.5 -44t-44 -17.5t-44 17.5t-17.5 44t17.5 44t44 17.5t44 -17.5t17.5 -44zM422 1243.5q0 -26.5 -17.5 -44t-44 -17.5t-44 17.5t-17.5 44t17.5 44t44 17.5t44 -17.5t17.5 -44z" />
<glyph unicode="&#xf6;" horiz-adv-x="1089" d="M96 491.5q0 231.5 127 372t321.5 140.5t321.5 -140.5t127 -372t-127 -371.5t-321.5 -140t-321.5 140t-127 371.5zM186 491.5q0 -200.5 96.5 -320.5t262.5 -120t262 120t96 320.5t-96 320.5t-262 120t-262.5 -120t-96.5 -320.5zM463 1243.5q0 -26.5 -17.5 -44t-44 -17.5 t-44 17.5t-17.5 44t17.5 44t44 17.5t44 -17.5t17.5 -44zM750 1243.5q0 -26.5 -17.5 -44t-44 -17.5t-44 17.5t-17.5 44t17.5 44t44 17.5t44 -17.5t17.5 -44z" />
<glyph unicode="&#xf8;" horiz-adv-x="1089" d="M842 889q152 -145 151 -397q0 -231 -127 -371.5t-321 -140.5q-143 0 -256 79l-86 -127l-51 33l90 135q-145 141 -146 392q0 231 127 371.5t322 140.5q139 0 250 -76l88 131l51 -33zM186 491.5q0 -200.5 95 -323.5h6l467 696v6q-88 61 -209 62q-166 0 -262.5 -120 t-96.5 -320.5zM545 51q166 0 262 120t96 321q0 199 -100 329h-6l-465 -694v-6q92 -70 213 -70z" />
<glyph unicode="&#xfc;" horiz-adv-x="1073" d="M815 201h-4q-119 -221 -350 -221q-154 0 -228.5 99t-74.5 263v641h82v-610q0 -158 57 -239t192 -81q137 0 231.5 103.5t94.5 249.5v577h82v-983h-76zM461 1243.5q0 -26.5 -17.5 -44t-44 -17.5t-44 17.5t-17.5 44t17.5 44t44 17.5t44 -17.5t17.5 -44zM748 1243.5 q0 -26.5 -17.5 -44t-44.5 -17.5t-44 17.5t-17 44t17 44t44 17.5t44.5 -17.5t17.5 -44z" />
<glyph unicode="&#xff;" horiz-adv-x="927" d="M516 -6q-80 -195 -176 -290t-242 -126l-8 74q115 25 196 98.5t138 216.5l12 31l-397 985h88l350 -893h4l353 893h81zM410 1243.5q0 -26.5 -17.5 -44t-44 -17.5t-44 17.5t-17.5 44t17.5 44t44 17.5t44 -17.5t17.5 -44zM696 1243.5q0 -26.5 -17 -44t-44 -17.5t-44.5 17.5 t-17.5 44t17.5 44t44.5 17.5t44 -17.5t17 -44z" />
<glyph unicode="&#x178;" horiz-adv-x="1042" d="M930 1389h90l-451 -781v-608h-82v600l-454 789h98l397 -711h4zM457 1550.5q0 -26.5 -17.5 -44t-44 -17.5t-44 17.5t-17.5 44t17.5 44t44 17.5t44 -17.5t17.5 -44zM743 1550.5q0 -26.5 -17 -44t-44 -17.5t-44 17.5t-17 44t17 44t44 17.5t44 -17.5t17 -44z" />
<glyph unicode="&#x2000;" horiz-adv-x="839" />
<glyph unicode="&#x2001;" horiz-adv-x="1681" />
<glyph unicode="&#x2002;" horiz-adv-x="839" />
<glyph unicode="&#x2003;" horiz-adv-x="1681" />
<glyph unicode="&#x2004;" horiz-adv-x="559" />
<glyph unicode="&#x2005;" horiz-adv-x="419" />
<glyph unicode="&#x2006;" horiz-adv-x="278" />
<glyph unicode="&#x2007;" horiz-adv-x="278" />
<glyph unicode="&#x2008;" horiz-adv-x="208" />
<glyph unicode="&#x2009;" horiz-adv-x="335" />
<glyph unicode="&#x200a;" horiz-adv-x="92" />
<glyph unicode="&#x2010;" horiz-adv-x="735" d="M575 555v-61h-415v61h415z" />
<glyph unicode="&#x2011;" horiz-adv-x="735" d="M575 555v-61h-415v61h415z" />
<glyph unicode="&#x2012;" horiz-adv-x="735" d="M575 555v-61h-415v61h415z" />
<glyph unicode="&#x2013;" horiz-adv-x="1024" d="M864 555v-61h-704v61h704z" />
<glyph unicode="&#x2014;" horiz-adv-x="2048" d="M1888 555v-61h-1728v61h1728z" />
<glyph unicode="&#x2018;" horiz-adv-x="485" d="M199 1014h-68q80 240 154 411l82 17q-80 -219 -123 -395q-8 -33 -45 -33z" />
<glyph unicode="&#x2019;" horiz-adv-x="485" d="M287 1442h67q-80 -240 -153 -412l-82 -16q80 219 123 395q8 33 45 33z" />
<glyph unicode="&#x201c;" horiz-adv-x="684" d="M397 1014h-67q80 240 153 411l82 17q-80 -219 -123 -395q-8 -33 -45 -33zM199 1014h-68q80 240 154 411l82 17q-80 -219 -123 -395q-8 -33 -45 -33z" />
<glyph unicode="&#x201d;" horiz-adv-x="684" d="M287 1442h67q-80 -240 -153 -412l-82 -16q80 219 123 395q8 33 45 33zM485 1442h68q-80 -240 -154 -412l-82 -16q80 219 123 395q8 33 45 33z" />
<glyph unicode="&#x202f;" horiz-adv-x="335" />
<glyph unicode="&#x205f;" horiz-adv-x="419" />
<glyph unicode="&#xe000;" horiz-adv-x="985" d="M0 985h985v-985h-985v985z" />
</font>
</defs>
</svg>
