<?xml version="1.0" encoding="utf-8"?>
<!-- Generator: Adobe Illustrator 17.1.0, SVG Export Plug-In . SVG Version: 6.00 Build 0)  -->
<!DOCTYPE svg PUBLIC "-//W3C//DTD SVG 1.1//EN" "http://www.w3.org/Graphics/SVG/1.1/DTD/svg11.dtd">
<svg version="1.1" id="Layer_1" xmlns="http://www.w3.org/2000/svg" xmlns:xlink="http://www.w3.org/1999/xlink" x="0px" y="0px"
	 viewBox="0 0 253 253" enable-background="new 0 0 253 253" xml:space="preserve">
<g>
	<g>
		<g>
			<circle fill="#074E68" cx="127.2" cy="125.6" r="125.3"/>
			<g opacity="0.5" enable-background="new    ">
				<g>
					<g>
						<g>
							<g>
								<defs>
									<circle id="SVGID_1_" cx="126.8" cy="125.3" r="125.3"/>
								</defs>
								<clipPath id="SVGID_2_">
									<use xlink:href="#SVGID_1_"  overflow="visible"/>
								</clipPath>
								<g clip-path="url(#SVGID_2_)">
									<g>
										
											<line fill="none" stroke="#FFFFFF" stroke-width="0.5" stroke-miterlimit="10" x1="220.4" y1="342.5" x2="220.4" y2="-77.5"/>
										
											<line fill="none" stroke="#FFFFFF" stroke-width="0.5" stroke-miterlimit="10" x1="203.4" y1="342.5" x2="203.4" y2="-77.5"/>
										
											<line fill="none" stroke="#FFFFFF" stroke-width="0.5" stroke-miterlimit="10" x1="237.5" y1="342.1" x2="237.5" y2="-77.9"/>
										
											<line fill="none" stroke="#FFFFFF" stroke-width="0.5" stroke-miterlimit="10" x1="254.5" y1="342.5" x2="254.5" y2="-77.5"/>
										
											<line fill="none" stroke="#FFFFFF" stroke-width="0.5" stroke-miterlimit="10" x1="152.5" y1="342.5" x2="152.5" y2="-77.5"/>
										
											<line fill="none" stroke="#FFFFFF" stroke-width="0.5" stroke-miterlimit="10" x1="135.5" y1="342.5" x2="135.5" y2="-77.5"/>
										
											<line fill="none" stroke="#FFFFFF" stroke-width="0.5" stroke-miterlimit="10" x1="169.4" y1="342.1" x2="169.4" y2="-77.9"/>
										
											<line fill="none" stroke="#FFFFFF" stroke-width="0.5" stroke-miterlimit="10" x1="186.4" y1="342.5" x2="186.4" y2="-77.5"/>
										
											<line fill="none" stroke="#FFFFFF" stroke-width="0.5" stroke-miterlimit="10" x1="84.8" y1="342.7" x2="84.8" y2="-77.3"/>
										
											<line fill="none" stroke="#FFFFFF" stroke-width="0.5" stroke-miterlimit="10" x1="67.8" y1="342.7" x2="67.8" y2="-77.3"/>
										
											<line fill="none" stroke="#FFFFFF" stroke-width="0.5" stroke-miterlimit="10" x1="101.8" y1="342.3" x2="101.8" y2="-77.7"/>
										
											<line fill="none" stroke="#FFFFFF" stroke-width="0.5" stroke-miterlimit="10" x1="118.8" y1="342.7" x2="118.8" y2="-77.3"/>
										
											<line fill="none" stroke="#FFFFFF" stroke-width="0.5" stroke-miterlimit="10" x1="16.9" y1="342.7" x2="16.9" y2="-77.3"/>
										
											<line fill="none" stroke="#FFFFFF" stroke-width="0.5" stroke-miterlimit="10" x1="-0.1" y1="342.7" x2="-0.1" y2="-77.3"/>
										<line fill="none" stroke="#FFFFFF" stroke-width="0.5" stroke-miterlimit="10" x1="34" y1="342.3" x2="34" y2="-77.7"/>
										
											<line fill="none" stroke="#FFFFFF" stroke-width="0.5" stroke-miterlimit="10" x1="50.9" y1="342.7" x2="50.9" y2="-77.3"/>
									</g>
									<g>
										
											<line fill="none" stroke="#FFFFFF" stroke-width="0.5" stroke-miterlimit="10" x1="-74.6" y1="218.4" x2="345.4" y2="218.4"/>
										
											<line fill="none" stroke="#FFFFFF" stroke-width="0.5" stroke-miterlimit="10" x1="-74.6" y1="201.4" x2="345.4" y2="201.4"/>
										
											<line fill="none" stroke="#FFFFFF" stroke-width="0.5" stroke-miterlimit="10" x1="-74.2" y1="235.4" x2="345.8" y2="235.4"/>
										
											<line fill="none" stroke="#FFFFFF" stroke-width="0.5" stroke-miterlimit="10" x1="-74.6" y1="252.4" x2="345.4" y2="252.4"/>
										
											<line fill="none" stroke="#FFFFFF" stroke-width="0.5" stroke-miterlimit="10" x1="-74.6" y1="150.4" x2="345.4" y2="150.4"/>
										
											<line fill="none" stroke="#FFFFFF" stroke-width="0.5" stroke-miterlimit="10" x1="-74.6" y1="133.5" x2="345.4" y2="133.5"/>
										
											<line fill="none" stroke="#FFFFFF" stroke-width="0.5" stroke-miterlimit="10" x1="-74.2" y1="167.4" x2="345.8" y2="167.4"/>
										
											<line fill="none" stroke="#FFFFFF" stroke-width="0.5" stroke-miterlimit="10" x1="-74.6" y1="184.4" x2="345.4" y2="184.4"/>
										
											<line fill="none" stroke="#FFFFFF" stroke-width="0.5" stroke-miterlimit="10" x1="-74.9" y1="82.8" x2="345.2" y2="82.8"/>
										
											<line fill="none" stroke="#FFFFFF" stroke-width="0.5" stroke-miterlimit="10" x1="-74.9" y1="65.9" x2="345.2" y2="65.9"/>
										
											<line fill="none" stroke="#FFFFFF" stroke-width="0.5" stroke-miterlimit="10" x1="-74.4" y1="99.8" x2="345.6" y2="99.8"/>
										
											<line fill="none" stroke="#FFFFFF" stroke-width="0.5" stroke-miterlimit="10" x1="-74.9" y1="116.8" x2="345.2" y2="116.8"/>
										
											<line fill="none" stroke="#FFFFFF" stroke-width="0.5" stroke-miterlimit="10" x1="-74.9" y1="14.9" x2="345.2" y2="14.9"/>
										
											<line fill="none" stroke="#FFFFFF" stroke-width="0.5" stroke-miterlimit="10" x1="-74.9" y1="-2.1" x2="345.2" y2="-2.1"/>
										
											<line fill="none" stroke="#FFFFFF" stroke-width="0.5" stroke-miterlimit="10" x1="-74.4" y1="31.8" x2="345.6" y2="31.8"/>
										
											<line fill="none" stroke="#FFFFFF" stroke-width="0.5" stroke-miterlimit="10" x1="-74.9" y1="48.9" x2="345.2" y2="48.9"/>
									</g>
								</g>
							</g>
						</g>
					</g>
				</g>
			</g>
		</g>
		<g>
			<g>
				<path fill="#FFFFFF" d="M115.1,68.4V75c-6.3,0.6-10.6,3.4-12.8,8.5c-1.2,2.8-1.8,6.6-1.8,11.4v6.7c0,6-0.8,10.4-2.2,13.5
					c-2.7,5.7-7.8,9-15.4,9.6c7.6,0.7,12.7,4,15.4,9.9c1.5,3.3,2.2,7.7,2.2,13.3v9.2h-0.1c0,6.1,1.5,10.4,4.7,12.9
					c3.1,2.6,6.5,4.1,10.2,4.5v7c-7-0.7-12.8-2.8-17.4-6.2c-4.6-3.4-6.9-9-6.9-16.8v-12.2c0-4.3-0.7-7.7-2-10.2
					c-2.4-4.5-7.2-7.2-14.1-8v-6.8c7-0.8,11.6-3.4,14.1-7.8c1.4-2.4,2-5.9,2-10.3v-9.6c0-7.4,1.6-13.2,4.8-17.6
					C98.8,71.9,105.3,69.3,115.1,68.4 M118,65.2l-3.3,0.3c-10.7,0.9-17.9,3.9-21.6,9c-3.6,4.9-5.4,11.3-5.4,19.4v9.6
					c0,4.1-0.5,7-1.6,8.9c-2,3.5-5.9,5.6-11.8,6.3l-2.6,0.3v2.7v6.8v2.7l2.7,0.3c5.9,0.6,9.9,2.8,11.7,6.4c1.1,2,1.6,5,1.6,8.7v12.1
					c0,8.8,2.7,15.2,8.1,19.2c5.1,3.8,11.4,6,18.9,6.8l3.3,0.3v-3.3v-7v-2.7l-2.7-0.3c-3.1-0.3-5.9-1.6-8.5-3.8l0,0l0,0
					c-2-1.6-3.2-4.5-3.5-8.5V157v-9.2c0-6-0.8-10.8-2.5-14.5c-1.7-3.8-4.3-6.7-7.7-8.7c3.4-1.9,6-4.7,7.7-8.4
					c1.7-3.6,2.5-8.5,2.5-14.8v-6.7c0-4.5,0.5-7.9,1.6-10.3c1.8-4,5.2-6.2,10.3-6.6l2.7-0.2V75v-6.7L118,65.2L118,65.2z"/>
			</g>
			<g>
				<path fill="#FFFFFF" d="M138.5,68.5c10.3,0.8,17,3.9,20.7,9.4c2.4,3.5,3.6,8.8,3.6,15.8v9.6c0,4.4,0.7,7.9,2,10.3
					c2.4,4.4,7.2,7,14.1,7.8v6.8c-7,0.7-11.6,3.4-14.1,8c-1.4,2.5-2,5.9-2,10.2v12.1c0,8-2.3,13.5-6.9,16.9
					c-4.6,3.3-10.3,5.4-17.3,6.1v-7c4.2-0.5,7.7-2.2,10.5-5.1c2.8-2.8,4.2-7,4.2-12.4v-9c0-5.7,0.8-10.2,2.2-13.3
					c2.7-6,7.8-9.3,15.3-10c-7.7-0.7-12.7-3.9-15.4-9.6c-1.5-3.1-2.2-7.7-2.2-13.6v-6.7c0-5.2-0.6-9.2-1.8-11.8
					c-2.2-4.8-6.5-7.5-12.8-8L138.5,68.5 M135.6,65.3v3.2v6.7v2.8l2.8,0.2c5.4,0.4,8.7,2.4,10.4,6.3c0.7,1.6,1.6,4.7,1.6,10.5v6.7
					c0,6.4,0.8,11.3,2.5,14.9c1.7,3.7,4.3,6.5,7.7,8.4c-3.4,2-5.9,4.9-7.7,8.7c-1.6,3.6-2.5,8.6-2.5,14.5v9c0,4.7-1.1,8.1-3.3,10.3
					c-2.4,2.4-5.3,3.7-8.8,4.2l-2.6,0.3v2.6v7v3.3l3.3-0.4c7.5-0.8,13.7-3.1,18.8-6.7c5.4-4,8.1-10.4,8.1-19.3v-12.1
					c0-3.9,0.5-6.7,1.6-8.7c2-3.8,5.8-5.9,11.7-6.5l2.7-0.3v-2.7v-6.8v-2.7l-2.7-0.3c-6-0.7-9.9-2.7-11.8-6.3c-1-2-1.6-5.1-1.6-8.9
					v-9.6c0-7.7-1.3-13.4-4.1-17.5c-4.2-6.3-11.9-9.9-23-10.6L135.6,65.3L135.6,65.3z"/>
			</g>
		</g>
	</g>
	<g>
		<line fill="none" stroke="#FFFFFF" stroke-miterlimit="10" x1="191.4" y1="181.6" x2="191.4" y2="69.8"/>
		<polygon fill="#FFFFFF" points="191.4,183.1 188.5,180.2 194.3,180.2 		"/>
		<polygon fill="#FFFFFF" points="191.4,68.3 194.3,71.2 188.5,71.2 		"/>
	</g>
	<g>
		<line fill="none" stroke="#FFFFFF" stroke-miterlimit="10" x1="163.2" y1="192.9" x2="91.7" y2="192.9"/>
		<polygon fill="#FFFFFF" points="164.6,192.9 161.7,195.7 161.7,190 		"/>
		<polygon fill="#FFFFFF" points="90.3,192.9 93.1,190 93.1,195.7 		"/>
	</g>
</g>
</svg>
