<?xml version="1.0" encoding="utf-8"?>
<!-- Generator: Adobe Illustrator 17.1.0, SVG Export Plug-In . SVG Version: 6.00 Build 0)  -->
<!DOCTYPE svg PUBLIC "-//W3C//DTD SVG 1.1//EN" "http://www.w3.org/Graphics/SVG/1.1/DTD/svg11.dtd">
<svg version="1.1" id="Layer_1" xmlns="http://www.w3.org/2000/svg" xmlns:xlink="http://www.w3.org/1999/xlink" x="0px" y="0px"
	 viewBox="0 6.7 600 369.3" enable-background="new 0 6.7 600 369.3" xml:space="preserve">
<g id="Layer_2" display="none">
	<path display="inline" fill="#E5E5E5" d="M575,346.1c0,1.5-15.3,2.8-34.2,2.8H154.5c-18.9,0-34.2-1.2-34.2-2.8l0,0
		c0-1.5,15.3-2.8,34.2-2.8h386.4C559.7,343.4,575,344.6,575,346.1L575,346.1z"/>
	<g display="inline">
		<path fill="#EAF7FE" d="M114,330.8c0,0-1.2-16.7,0.8-22.9c2.1-6.2-36.5-13.9-36.5-13.9s0.9,18,2.6,23.7"/>
		<path fill="#E5E5E5" d="M129.2,328.4c-66.6,0.4-118.9,4.5-118.9,9.5c0,5.1,53.2,9.2,120.5,9.6
			C130.2,341.1,129.6,334.7,129.2,328.4z"/>
		<path fill="#A1D4E9" d="M59.3,235.2l-5.1,7.5l-3.2,1.5l2.6,0.9c0,0-10,12-11.1,19.1c0,0,3.4-1.7,4.9-2.1c0,0-4.7,8.3-4.7,12.8
			c0,0,3-1.9,4.3-1.7c0,0-4.7,4.9-7.1,6c0,0,2.8,0.4,3.9,0c0,0-5.6,6.6-5.1,20.1c0,0,1.9-2.1,3.2-2.6c0,0,1.5,14.3,23.7,22
			c0,0-2.4-6.2-2.4-9.6c0,0,4.3,2.4,9.2,2.6c0,0-3.3-5.6-2.9-7.6h4.2l-0.4-8.4c0,0-6.3-2.8-5-9.5c0,0-1.4-2.4-5.4-12.6
			C59.3,264.3,66.5,230.9,59.3,235.2z"/>
		<path fill="#EAF7FE" d="M113.7,315.1c0-1.5-1-1.7-2.8-1.1c-3.4-2.4-8.9,0.6-8.9,0.6c-0.7,0-1.4,0.1-2.1,0.1
			c-2.1-0.2-9.2-0.8-13.6-0.3c0,0,1.1,0.8,1.5,1.5c-4.6,0.7-13.5,1.6-16.7,2.7c-2.5,0.7-8,2.3-10.4,3.4c0,0,1.3,0.1,1.8,0.6
			c-1.7,1-4.3,3-6.8,6.5c0,0,0.8-0.4,1.6-0.6c-2,3.4-2.2,5.1-2.1,7.7c-0.1,0.8-0.2,1.7-0.4,2.6c1.6-0.2,3.2-0.4,4.8-0.5
			c0,0.2,0,0.4,0,0.6l0.2,1.3l4.8-0.3l0.7,0l0.1,1.6c0,0,32.6-1.1,47.3-1.3c0,0,2.3,0.1,2.2-1.6
			C114.6,336.6,113.5,323.5,113.7,315.1z"/>
		<path fill="#EAF7FE" d="M119.6,122.8c0,0-9.3,0.6-15.8,8.4l-2-8.2l-8.9,4c0,0-6.6-11.6-3.5-17.8c0,0-16.1-0.6-29,26.5
			c0,0-5.9-7.6-3.9-14.9c0,0-22,16.6-16.9,39.7c0,0-4.8-1.4-6.2-6.8c0,0-2.5,27.9,18.3,66.5c0,0-3.8-3.2-5.2-3c0,0,4.1,5.6,5.8,9.6
			c0,0-2.6-0.8-4.3-0.2c0,0,9,3,11.3,8.6c1.6,3.4,3.3,14.3,4.1,38.3c6.1,12.1,14.8,37.1,55.9,34.4L119.6,122.8z"/>
		
			<ellipse transform="matrix(-0.2052 -0.9787 0.9787 -0.2052 -117.5199 349.6867)" fill="#CDEAF5" cx="83.2" cy="222.6" rx="7.7" ry="6.1"/>
		
			<ellipse transform="matrix(-0.2052 -0.9787 0.9787 -0.2052 -74.7623 366.3841)" fill="#CDEAF5" cx="111.4" cy="213.5" rx="7.7" ry="6.1"/>
		
			<ellipse transform="matrix(-0.2052 -0.9787 0.9787 -0.2052 -72.4733 363.839)" fill="#FFFFFF" cx="111.5" cy="211.3" rx="7.6" ry="6"/>
		<path fill="#4F4E51" d="M110.2,207.3c0,0.2,0,0.4,0,0.6c0.2,1,1.1,1.8,1.9,1.6c0.7-0.2,1.2-1,1.2-1.9c0.6,0.5,1.1,1.3,1.3,2.3
			c0.4,1.9-0.5,3.8-2.1,4.1s-3.2-1-3.6-2.9C108.7,209.5,109.2,208,110.2,207.3z"/>
		
			<ellipse transform="matrix(-0.2052 -0.9787 0.9787 -0.2052 -115.231 347.1417)" fill="#FFFFFF" cx="83.3" cy="220.4" rx="7.6" ry="6"/>
		<path fill="#4F4E51" d="M82.7,216.3c0,0.2,0,0.4,0,0.6c0.2,1,1.1,1.8,1.9,1.6c0.7-0.2,1.2-1,1.2-1.9c0.6,0.5,1.1,1.3,1.3,2.3
			c0.4,1.9-0.5,3.8-2.1,4.1s-3.2-1-3.6-2.9C81.1,218.5,81.6,217,82.7,216.3z"/>
		<path fill="#5C5B5D" d="M99.9,238.1c0,0,3.3-2.7,3.6-4.3c0,0,9.9-2.5,14.6-9.3C118.1,224.5,116.9,242.2,99.9,238.1z"/>
		<path fill="#A1D4E9" d="M78.7,198.2c0,0-7.5,0.4-8.1,7.5c0,0-3.2-5.1,1.3-8.3C76.4,194.3,78.7,198.2,78.7,198.2z"/>
		<path fill="#A1D4E9" d="M71.7,190.7c0,0-6.9,0.4-6.8,6.8c0,0-3.2-3.9,0.2-7.1C68.5,187.2,71.7,190.7,71.7,190.7z"/>
		<path fill="#CDEAF5" d="M114.7,308.1c0,0-22.2-2.6-36.3-15.8l3.7,0.9c0,0-9.3-8-14.1-23h2.5c0,0-1.9-9.5-5.8-20c0-0.9,0-1.5,0-1.5
			c-1.9-5.2-5.6-17.3-6.8-24.1c-1.2-11.1-6.5-21-6.7-24.1c1.3-3.7,4.5-10.6,4.5-10.6c-1.3,0.4-5.4,2.6-5.4,2.6
			c-1.7-12.6,7.1-25.5,7.1-25.5c-5.4-0.6-12.4,4.3-12.4,4.3c-2.4-17.5,6.4-32.5,6.4-32.5c-0.4,6.4,8.6,15.2,8.6,15.2
			c6.4-28.7,24.8-39.5,28.5-41.4c0.1-1.1,0.4-2.3,0.9-3.3c0,0-16.1-0.6-29,26.5c0,0-5.9-7.6-3.9-14.9c0,0-10.7,8.1-15.5,20.9
			c-1.7-1.7-3.1-6.7-3.1-6.7c-2.8,9.6,1.5,25.2,1.5,25.2s0-0.1,0.1-0.3c0,0.2,0.1,0.4,0.1,0.7c0,0-4.8-1.4-6.2-6.8
			c0,0-2.5,27.9,18.3,66.5c0,0-3.8-3.2-5.2-3c0,0,4.1,5.6,5.8,9.6c0,0-2.6-0.8-4.3-0.2c0,0,5.9,2.4,8.3,7c0,0,0,0.1,0,0.1
			c1.7,4.8,3,9.6,3,9.6l-2.3,5.6l1.8,0.6c0.3,1.1,1.3,12.4,1.3,12.4s0.1-0.5,0.2-1.2c0.1,1,0.3,2,0.5,3c-0.7-0.2-1.6-0.4-1.8-0.4
			c-0.6-0.2-1-0.3-1.3-0.2c0,0,0.2,1.3,2,3.7c0,0.2,0.1,0.4,0.2,0.7c1.1,5.4,3,11.5,5.9,17.4c0.6,2.1,0.7,5.4,1.1,6.5l1.3-1.7
			c0.8,1.2,0.6,0.9,1,2.2l1.9,4.7l0.3-2.6c2.1,2.7,4.6,5.3,7.4,7.6c0.5,0.4,1,0.8,1.5,1.1c0.2,0.1,0.3,0.2,0.5,0.4c0,0,0,0,0,0
			c0.4,0.3,0.8,0.5,1.2,0.7c3.2,4.2,5.5,7.5,5.6,9c0,0,5.3,5.3,7.3,7.3l2-4c0,0,8.4,9.6,17.2,9.8C114,325.8,113.2,316.2,114.7,308.1
			z M50.9,202.5c0-0.2,0-0.5,0-0.7c0-0.2,0.1-0.2,0.1-0.2c0,0,0-0.1,0-0.1C50.9,201.8,50.9,202.2,50.9,202.5z"/>
		<path fill="#C0E5F3" d="M60.7,229.3c0-0.2,0-0.4-0.1-0.6l0.2,1.1C60.8,229.7,60.8,229.5,60.7,229.3z"/>
		<path fill="#A1D4E9" d="M104.4,199.4c0,0,3.9-2.3,6.8-0.4c0,0,0.3-3.1-3.4-2.8C104.1,196.4,104.4,199.4,104.4,199.4z"/>
		<path fill="#5C5B5D" d="M130.1,212.4c0,0-0.5-5.8-1.2-10.2c2.6-0.3,5.3-0.4,5.3-0.4l-0.3-3.2c-2.7-0.4-5.6,0-5.6,0
			c-2.7,0.3-7.4,1.1-12.9,2.8c-7.1,2.2-13,4.8-16.5,6.4c-1.1,0.5-1.9,0.8-2.5,1.1l-0.7,0.3c-1.2,0.5-1.8,0.7-2.5,0.9
			c0,0,0,0.1,0,0.1c-0.4,0.1-0.8,0.2-1.5,0.3l-0.7,0.2c-0.7,0.2-1.6,0.3-2.7,0.6c-3.8,0.7-10.1,2-17.2,4.2
			c-5.4,1.7-9.7,3.8-12.2,5.1c0,0-2.6,1.4-4.6,3.2l1.5,2.8c0,0,2.2-1.5,4.5-2.7c2,4,4.9,9,4.9,9l0.1,0.2c0.2,0.2,0.3,0.5,0.5,0.7
			c1.3,1.9,2.2,3,4.5,3c2.2,0,7.1-1,11.8-2.5c1.8-0.6,3.7-1.4,5.5-2.4c2.8-1.5,5.1-3.3,5.9-4.4c1.1-1.6,0.8-4.7,0.7-6.7l0-0.6
			c0-0.7-0.1-1.4-0.2-2.1c-0.1-1-0.2-2-0.2-2.4c0-0.1,0.1-0.3,0.7-0.7c0.3-0.2,0.6-0.3,1-0.4c0.1,0,0.2,0,0.3,0
			c0.7-0.1,0.9,0.1,1,0.1c0.3,0.3,0.8,1.2,1.3,2.1c0.3,0.6,0.7,1.2,1,1.8l0.3,0.5c1,1.7,2.6,4.4,4.4,5.1c1.2,0.5,4.2,0.6,7.3,0.3
			c2.1-0.2,4.2-0.7,5.9-1.2c4.7-1.5,9.3-3.4,11.1-4.7c1.8-1.3,2-2.7,2-5c0-0.3,0-0.6,0-0.9L130.1,212.4z M91.5,224.4
			c-0.4,2-0.6,2.5-3.5,4.2c-0.1,0.1-0.3,0.1-0.4,0.2c-3.2,1.7-9.2,4.1-12.8,4.7l-0.3,0c-3.7,0.6-5,0.8-5.8-0.2
			c-1-1.3-4.5-7.7-5.1-9.1c-0.5-1.1,0.4-2,0.6-2.1c0.2-0.1,0.4-0.3,0.8-0.5c2.3-1.3,7.5-3.6,10.1-4.4c3.2-1,11.4-2.8,13.5-2.7
			c1.5,0.1,1.6,0.6,1.9,1.7l0,0.1C90.7,217.2,91.9,222.3,91.5,224.4z M127.5,214.7c-0.1,1.2-1.3,1.8-4.7,3.5l-0.2,0.1
			c-3.3,1.6-9.6,3.1-13.2,3.5c-0.2,0-0.3,0-0.4,0c-3.3,0.3-3.8,0-5.3-1.4c-1.5-1.4-3.5-6.3-3.8-7.2l0,0c-0.4-1-0.6-1.5,0.6-2.5
			c1.6-1.3,9.3-4.5,12.6-5.5c2.6-0.8,8.2-1.9,10.8-2.2c0.4,0,0.7-0.1,0.9-0.1c0.3,0,1.5,0.2,1.8,1.4
			C126.8,205.8,127.6,213.1,127.5,214.7z"/>
		<path fill="#A1D4E9" d="M103.4,192.7c0,0,4.5-3.4,8-0.6c0,0,0.1-2.7-3.5-2.8C104.2,189.2,103.4,192.7,103.4,192.7z"/>
		<path fill="#B2DEEF" d="M93.3,247.6c0,0,4,1.9,5.8,2.2c0,0,2.7-3.6,4.7-4.6c0,0,2,4.3,4.8,5.8c0,0,3.1-5.5,7.4-7.3
			c0,0,2,2.1,4.1,2.3l-0.1,4c0,0-3-1.1-4.1-2.2c0,0-5,6.9-4.3,9.6c0,0-6.3-3-9.1-6c0,0-2.8,2.1-3.5,3
			C99,254.5,95.1,251.2,93.3,247.6z"/>
		<path fill="#85C1CE" d="M55.4,282.9c0,0,6.6,13.2,6.3,19.3c0,0-6.6-0.1-12.4-4.9c0,0,8.9,8.7,16.9,7.6
			C66.2,304.8,64.7,291.9,55.4,282.9z"/>
		<path fill="#5C5B5D" d="M40.3,174.2c-0.5,0.2-2,0.9-2,0.9c-13.9,6.9-29,0.1-29,0.1s2.6,9,12,14.1c9.3,5,22.5,1.1,22.5,1.1
			c1.1,1.6,1.9,5.9,1.9,5.9s2-5.6-0.2-13.7C43.8,177,40.6,174,40.3,174.2"/>
		<path fill="#747F83" d="M40.3,174.2c-0.5,0.2-2,0.9-2,0.9c-13.9,6.9-29,0.1-29,0.1s14.3,16.2,35.6,5.7
			C44.8,181,44,177.2,40.3,174.2"/>
		<path fill="#CDEAF5" d="M64.4,339.9l-1.4,0.1c-1.2-16.4,13.9-16.2,13.9-16.2c-13.5,4.1-11.7,16.1-11.7,16.1L64.4,339.9z"/>
		<path fill="#CDEAF5" d="M88.6,318.4c-0.9-3.4-1.5-12.4-1.5-12.4l-8.5-5.2c0,5.3,1.9,16,1.9,16c-5.8,0.3-20.6,5.2-20.6,5.2
			c0.9-0.1,2.4,0.6,2.4,0.6c-3.4,1.5-7.4,6.9-7.4,6.9c0.5-0.3,2.1-1,2.1-1c-1.5,1.4-2.4,6.3-2.4,7.5s-0.6,3.1-0.6,3.1l3.2-0.6
			c0.7-0.1,1.4-0.1,2.1-0.2c-0.2-1.6-1-10.7,10.2-16c0,0-0.1,0-0.2,0.1C76,319.1,88.6,318.4,88.6,318.4z"/>
		<path fill="#ACDBE3" d="M114.7,308.1c0,0-17.1-1.8-33.2-13c0,0,11.3,11.2,20.3,14.1c9,2.9,12,13.4,12,13.4
			S113.7,313.2,114.7,308.1z"/>
	</g>
	<path display="inline" fill="#5C5B5E" d="M575,336.1c0,4.6-5.1,10.2-11.4,10.2H128.8c-6.3,0-11.8-5.6-11.8-10.2v-286
		c0-4.6,5.5-7.9,11.8-7.9h434.8c6.3,0,11.4,3.3,11.4,7.9V336.1z"/>
	<g display="inline">
		<path fill="#098DBA" d="M153.2,156c0.3,0.3,0.4,0.4,0.7,0.4h0.7c0.2,0,0.2-0.1,0.2-0.2v-1.2c0-0.6,0.3-1,1-1c0.7,0,1,0.3,1,0.9
			v1.7c0,1-0.7,1.7-1.6,1.7h-1.6c-0.6,0-1.1-0.2-1.5-0.6l-2.3-2.3c-0.3-0.3-0.4-0.4-0.7-0.4h-0.7c-0.2,0-0.2,0.1-0.2,0.2v1.2
			c0,0.6-0.3,1-1,1c-0.7,0-1-0.3-1-0.9v-1.7c0-1,0.7-1.7,1.6-1.7h1.6c0.6,0,1.1,0.2,1.5,0.6L153.2,156z"/>
		<path fill="#FFFFFF" d="M179.1,154.6h-0.5c-0.6,0-1.3-0.1-1.3-0.9c0-0.8,0.7-0.9,1.3-0.9h0.5v-0.3c0-1.1,0.1-1.9,0.9-2.7
			c0.9-0.9,1.8-0.9,2.9-0.9h1.3c0.7,0,1.4,0.1,1.4,0.9c0,0.8-0.7,0.9-1.3,0.9h-1.5c-1.3,0-1.8,0.3-1.8,1.6v0.4h1.7
			c0.6,0,1.3,0.1,1.3,0.9c0,0.8-0.8,0.9-1.3,0.9H181v7.5c0,0.7-0.1,1.3-0.9,1.3s-0.9-0.7-0.9-1.3V154.6z"/>
		<path fill="#FFFFFF" d="M191,156.3c0-1.3,0.3-1.7,1.2-2.5c0.9-0.8,1.4-1.1,2.7-1.1h1.5c1.3,0,1.8,0.3,2.7,1.1
			c0.9,0.8,1.2,1.2,1.2,2.5v3.6c0,1.2-0.3,1.7-1.3,2.6c-1,0.8-1.4,1-2.6,1h-1.5c-1.2,0-1.6-0.2-2.6-1c-1-0.8-1.3-1.3-1.3-2.6V156.3z
			 M192.9,159.9c0,0.4,0.1,0.7,0.7,1.1c0.4,0.4,0.7,0.5,1.3,0.5h1.5c0.6,0,0.9-0.2,1.3-0.5c0.6-0.5,0.7-0.7,0.7-1.1v-3.6
			c0-0.4-0.1-0.7-0.7-1.1c-0.4-0.4-0.7-0.5-1.3-0.5h-1.5c-0.6,0-0.9,0.2-1.3,0.5c-0.6,0.5-0.7,0.7-0.7,1.1V159.9z"/>
		<path fill="#FFFFFF" d="M215,162c0,0.4,0.1,1.4-0.9,1.4c-0.8,0-0.9-0.7-0.9-1.3v-0.3l-1.5,1c-0.6,0.4-1.1,0.6-1.6,0.6h-1.4
			c-0.5,0-1.1-0.2-1.8-0.7c-0.9-0.7-0.8-1.5-0.9-2.6l-0.2-6c0-0.7,0.1-1.4,0.9-1.4c0.8,0,0.9,0.7,0.9,1.3l0.2,5.8
			c0,0.4,0,0.9,0.2,1.2c0.2,0.3,0.7,0.4,1.1,0.4h0.6c0.2,0,0.4-0.1,0.6-0.2l2.8-1.8v-5.5c0-0.7,0.1-1.3,0.9-1.3s0.9,0.7,0.9,1.3
			L215,162L215,162L215,162z"/>
		<path fill="#FFFFFF" d="M222.4,156.6v5.5c0,0.7-0.1,1.3-0.9,1.3s-0.9-0.7-0.9-1.3v-7.9c0-0.7,0.1-1.4,0.9-1.4
			c0.9,0,0.9,0.7,0.9,1.4v0.2v0l1.5-1c0.5-0.3,1-0.6,1.6-0.6h1.4c0.7,0,1.2,0.2,1.8,0.7c0.9,0.7,0.8,1.5,0.9,2.6l0.2,6
			c0,0.7-0.1,1.4-0.9,1.4c-0.8,0-0.9-0.7-0.9-1.3l-0.2-5.9c0-1.2-0.1-1.6-1.3-1.6h-0.6c-0.2,0-0.4,0.1-0.6,0.2L222.4,156.6z"/>
		<path fill="#FFFFFF" d="M240.4,152.7c0.7,0,1.2,0.4,1.9,1l0.3,0.3v-4c0-0.7,0.1-1.3,0.9-1.3s0.9,0.7,0.9,1.3v11.9
			c0,0.7-0.1,1.3-0.9,1.3c-0.8,0-0.9-0.6-0.9-1.3V162l-0.4,0.4c-0.6,0.6-1.2,1-1.8,1h-1.8c-0.6,0-1.3-0.4-1.6-0.7l-0.7-0.6
			c-0.8-0.7-1-1.2-1-2.2v-3.8c0-1,0.3-1.5,1-2.2l0.7-0.6c0.6-0.5,1-0.7,1.8-0.7L240.4,152.7L240.4,152.7z M237.1,159.2
			c0,0.5,0,1.2,0.3,1.4l0.6,0.5c0.2,0.2,0.5,0.4,0.7,0.4h1.3c0.2,0,0.6-0.2,0.9-0.5l1.1-0.9c0.3-0.2,0.6-0.5,0.6-0.8v-2.4
			c0-0.4-0.3-0.6-0.6-0.8l-1.1-0.9c-0.4-0.3-0.7-0.5-0.9-0.5h-1.3c-0.2,0-0.5,0.2-0.7,0.4l-0.6,0.5c-0.3,0.2-0.3,0.9-0.3,1.4V159.2z
			"/>
		<path fill="#FFFFFF" d="M253.1,154.6c-0.6,0-1.3-0.1-1.3-0.9c0-0.8,0.7-0.9,1.3-0.9h2.6c1,0,1.7,0.1,2.4,0.9
			c0.7,0.7,0.8,1.3,0.9,2.3l0.2,6.4c0,0.6-0.3,1.1-0.9,1.1c-0.5,0-1-0.4-1-0.9l-1.3,0.7c-0.5,0.3-0.6,0.3-1.2,0.3h-1.8
			c-0.9,0-1.5-0.1-2.2-0.7c-0.8-0.7-1-1.3-1-2.3v-0.8c0-0.9,0.2-1.5,0.9-2.1c0.7-0.6,1.4-0.7,2.2-0.7h4.1v-0.4
			c0-1.4-0.3-1.7-1.7-1.7L253.1,154.6L253.1,154.6L253.1,154.6z M253.1,158.6c-0.5,0-1.3,0.1-1.3,0.8v1.3c0,0.6,0.8,0.8,1.2,0.8h2.1
			l2.1-1.1V160c0-1-0.3-1.4-1.3-1.4H253.1z"/>
		<path fill="#FFFFFF" d="M268.5,159.8c0,1.1,0,1.7,1.3,1.7h1c0.8,0,1.1-0.1,1.3-0.8c0.1-0.5,0.5-0.8,0.9-0.8c0.5,0,1,0.4,1,0.9
			c0,0.5-0.3,1.2-0.7,1.6c-0.7,0.8-1.6,1-2.6,1h-1c-0.9,0-1.8-0.2-2.5-0.9c-0.7-0.8-0.7-1.6-0.7-2.6v-5.2H266
			c-0.6,0-1.3-0.1-1.3-0.9c0-0.8,0.7-0.9,1.3-0.9h0.6v-1.9c0-0.7,0.1-1.3,0.9-1.3c0.8,0,0.9,0.7,0.9,1.3v1.9h3.2
			c0.6,0,1.3,0.1,1.3,0.9c0,0.8-0.8,0.9-1.3,0.9h-3.2L268.5,159.8L268.5,159.8z"/>
		<path fill="#FFFFFF" d="M285,161.5h1.4c0.6,0,1.3,0.1,1.3,0.9c0,0.8-0.8,0.9-1.3,0.9h-4.8c-0.6,0-1.3-0.1-1.3-0.9
			c0-0.8,0.7-0.9,1.3-0.9h1.5v-6.9h-1.5c-0.6,0-1.3-0.1-1.3-0.9c0-0.8,0.7-0.9,1.3-0.9h2c1.1,0,1.4,0.2,1.4,1.3L285,161.5L285,161.5
			z M282.2,148.9c0-0.7,0.4-0.9,0.9-0.9h1.1c0.5,0,0.9,0.2,0.9,0.9v0.9c0,0.7-0.4,0.9-0.9,0.9h-1.1c-0.5,0-0.9-0.2-0.9-0.9V148.9z"
			/>
		<path fill="#FFFFFF" d="M294.1,156.3c0-1.3,0.3-1.7,1.2-2.5c0.9-0.8,1.4-1.1,2.7-1.1h1.5c1.3,0,1.8,0.3,2.7,1.1
			c1,0.8,1.2,1.2,1.2,2.5v3.6c0,1.2-0.3,1.7-1.3,2.6c-1,0.8-1.4,1-2.6,1H298c-1.2,0-1.6-0.2-2.6-1c-1-0.8-1.3-1.3-1.3-2.6
			L294.1,156.3L294.1,156.3z M296,159.9c0,0.4,0.1,0.7,0.7,1.1c0.4,0.4,0.7,0.5,1.3,0.5h1.5c0.6,0,0.9-0.2,1.3-0.5
			c0.6-0.5,0.7-0.7,0.7-1.1v-3.6c0-0.4-0.1-0.7-0.7-1.1c-0.4-0.4-0.7-0.5-1.3-0.5H298c-0.6,0-0.9,0.2-1.3,0.5
			c-0.6,0.5-0.7,0.7-0.7,1.1V159.9z"/>
		<path fill="#FFFFFF" d="M310.8,156.6v5.5c0,0.7-0.1,1.3-1,1.3s-0.9-0.7-0.9-1.3v-7.9c0-0.7,0.1-1.4,0.9-1.4c0.9,0,1,0.7,1,1.4v0.2
			v0l1.5-1c0.5-0.3,1-0.6,1.6-0.6h1.4c0.7,0,1.2,0.2,1.8,0.7c0.8,0.7,0.8,1.5,0.8,2.6l0.2,6c0,0.7-0.1,1.4-0.9,1.4
			c-0.8,0-0.9-0.7-1-1.3l-0.2-5.9c0-1.2-0.1-1.6-1.3-1.6h-0.6c-0.2,0-0.4,0.1-0.6,0.2L310.8,156.6z"/>
		<path fill="#FFFFFF" d="M340.2,156.6v5.5c0,0.7-0.1,1.3-1,1.3s-0.9-0.7-0.9-1.3v-7.9c0-0.7,0.1-1.4,0.9-1.4c0.9,0,1,0.7,1,1.4v0.2
			v0l1.5-1c0.5-0.3,1-0.6,1.6-0.6h1.4c0.7,0,1.2,0.2,1.8,0.7c0.8,0.7,0.8,1.5,0.8,2.6l0.2,6c0,0.7-0.1,1.4-0.9,1.4
			c-0.8,0-0.9-0.7-1-1.3l-0.2-5.9c0-1.2-0.1-1.6-1.3-1.6h-0.6c-0.2,0-0.4,0.1-0.6,0.2L340.2,156.6z"/>
		<path fill="#FFFFFF" d="M356.5,163.4c-0.8,0-1.1,0-1.7-0.5l-0.8-0.7c-0.8-0.7-1-1.1-1-2.1v-3.7c0-1,0.1-1.6,0.9-2.3l0.7-0.6
			c0.9-0.8,1.3-0.8,2.1-0.8h1.7c0.9,0,1.4,0.1,2.1,0.7l0.8,0.6c0.9,0.7,1,1.4,1,2.5v1.5c0,1.1-0.2,1.4-1.3,1.4h-6.1v0.6
			c0,0.2,0.1,0.4,0.3,0.6l0.5,0.5c0.3,0.3,0.6,0.4,1.3,0.4h4.1c0.6,0,1.3,0.1,1.3,0.9c0,0.8-0.8,0.9-1.3,0.9L356.5,163.4
			L356.5,163.4z M354.9,157.5h5.5v-1.1c0-0.4,0-0.7-0.2-0.9l-0.7-0.6c-0.2-0.2-0.6-0.2-0.9-0.2H357c-0.4,0-0.7,0-1,0.2l-0.7,0.5
			c-0.2,0.2-0.4,0.3-0.4,0.9V157.5z"/>
		<path fill="#FFFFFF" d="M373.4,159l1,1.8l0.6-1.8l0.2-4.9c0-0.7,0.1-1.4,1-1.4c0.8,0,0.9,0.7,0.9,1.4l-0.2,5.3l-0.9,2.8
			c-0.2,0.6-0.3,1.2-1,1.2h-0.7c-0.3,0-0.6-0.4-0.8-0.6l-1-1.5l-1,1.5c-0.2,0.3-0.5,0.6-0.8,0.6h-0.7c-0.7,0-0.8-0.6-1-1.2l-0.9-2.8
			l-0.2-5.3c0-0.7,0.1-1.4,0.9-1.4c0.8,0,0.9,0.7,0.9,1.4l0.2,4.9l0.6,1.8l1-1.8v-1.7c0-0.7,0.1-1.3,0.9-1.3c0.8,0,1,0.7,1,1.3
			L373.4,159L373.4,159z"/>
		<path fill="#FFFFFF" d="M402.8,155.9v6.2c0,0.7-0.1,1.3-1,1.3c-0.8,0-0.9-0.7-0.9-1.3v-6.3c0-0.3,0-0.9-0.5-0.9
			c-0.2,0-0.4,0.2-0.5,0.3l-0.8,0.8v6.2c0,0.7-0.1,1.3-1,1.3s-0.9-0.7-0.9-1.3v-8c0-0.7,0.2-1.3,1-1.3c0.5,0,0.8,0.3,0.9,0.8
			l0.2-0.1c0.5-0.4,0.8-0.6,1.4-0.6c0.7,0,1.3,0.4,1.7,0.9l0.2-0.2c0.6-0.6,0.8-0.8,1.7-0.8c0.6,0,1.2,0.3,1.6,0.8
			c0.5,0.6,0.4,1.2,0.5,1.9l0.2,6.6c0,0.7-0.1,1.4-0.9,1.4c-0.8,0-0.9-0.7-1-1.3l-0.2-6.3c0-0.3,0.1-1-0.4-1c-0.3,0-0.6,0.5-0.8,0.7
			L402.8,155.9z"/>
		<path fill="#FFFFFF" d="M419.3,155.1V154c0-0.7,0.1-1.3,0.9-1.3c0.8,0,1,0.7,1,1.3v0.8c0,0.5,0,0.8-0.2,1.2l-4.8,10.4
			c-0.4,0.9-0.6,1-1.5,1h-1.5c-0.6,0-1.3-0.1-1.3-0.9c0-0.8,0.7-0.9,1.3-0.9h1.3l1.4-2.9h-0.1c-0.8,0-0.8-0.4-1.1-1l-2.3-5.2
			c-0.3-0.6-0.5-1-0.5-1.6V154c0-0.7,0.1-1.3,0.9-1.3s1,0.7,1,1.3v1.1l2.5,5.6h0.4L419.3,155.1z"/>
		<path fill="#FFFFFF" d="M436,159.3c0,1.4-0.1,1.9-1.2,2.7l-1.1,0.9c-0.4,0.3-1,0.9-1.5,0.9h-1.3c-0.9,0-1.2-0.6-1.9-1.1l-0.4-0.4
			v3.8c0,0.7-0.1,1.3-1,1.3s-0.9-0.7-0.9-1.3v-12c0-0.7,0.1-1.4,0.9-1.4c0.8,0,1,0.6,1,1.2v0.2l0.4-0.3c0.5-0.4,1.2-1.1,1.8-1.1h1.3
			c0.5,0,1.1,0.5,1.6,0.9l1.1,0.9c1.1,0.9,1.2,1.4,1.2,2.7L436,159.3L436,159.3L436,159.3z M434.1,157c0-0.4-0.1-0.6-0.4-0.8
			l-1.4-1.2c-0.2-0.2-0.4-0.3-0.7-0.3h-0.5c-0.3,0-0.6,0.4-0.8,0.6l-1.2,1.1c-0.4,0.4-0.5,0.6-0.5,1v1.9c0,0.3,0.1,0.6,0.3,0.8
			l1.4,1.4c0.3,0.3,0.6,0.5,0.8,0.5h0.5c0.3,0,0.5-0.2,0.7-0.3l1.4-1.2c0.3-0.3,0.4-0.5,0.4-0.8V157z"/>
		<path fill="#FFFFFF" d="M441.4,154.1c0-0.7,0.1-1.4,0.9-1.4c0.8,0,1,0.6,1,1.3v0.8l1.5-1.2c0.5-0.4,1.1-0.8,1.7-0.8h1.5
			c0.7,0,1.3,0.2,1.9,0.8c0.6,0.6,0.9,1.3,0.9,2.2c0,0.7-0.1,1.3-0.9,1.3c-0.7,0-1-0.6-1-1.2c0-0.3,0-0.6-0.2-0.8
			c-0.2-0.3-0.7-0.3-1.1-0.3h-0.6c-0.4,0-0.6,0.2-1,0.5l-2.6,2.2v4.8c0,0.7-0.1,1.3-1,1.3s-0.9-0.7-0.9-1.3L441.4,154.1L441.4,154.1
			z"/>
		<path fill="#FFFFFF" d="M456.1,156.3c0-1.3,0.3-1.7,1.2-2.5c0.9-0.8,1.4-1.1,2.7-1.1h1.5c1.3,0,1.8,0.3,2.7,1.1
			c1,0.8,1.2,1.2,1.2,2.5v3.6c0,1.2-0.3,1.7-1.3,2.6c-1,0.8-1.4,1-2.6,1H460c-1.2,0-1.6-0.2-2.6-1c-1-0.8-1.3-1.3-1.3-2.6
			L456.1,156.3L456.1,156.3z M458,159.9c0,0.4,0.1,0.7,0.7,1.1c0.4,0.4,0.7,0.5,1.3,0.5h1.5c0.6,0,0.9-0.2,1.3-0.5
			c0.6-0.5,0.7-0.7,0.7-1.1v-3.6c0-0.4-0.1-0.7-0.7-1.1c-0.4-0.4-0.7-0.5-1.3-0.5H460c-0.6,0-0.9,0.2-1.3,0.5
			c-0.6,0.5-0.7,0.7-0.7,1.1V159.9z"/>
		<path fill="#FFFFFF" d="M479.2,163.9c0,1,0,1.9-0.8,2.7c-0.8,0.8-1.6,0.8-2.2,0.8h-1.6c-0.5,0-1.2-0.1-1.8-0.5
			c-0.6-0.4-1.1-1.3-1.1-2c0-0.5,0.4-0.9,0.9-0.9c0.5,0,0.8,0.3,1,0.8c0.2,0.7,0.5,0.8,1.2,0.8h1.2c1.2,0,1.2-0.5,1.2-1.6v-9.3H475
			c-0.6,0-1.3-0.1-1.3-0.9c0-0.8,0.7-0.9,1.3-0.9h2.8c1.1,0,1.4,0.2,1.4,1.3L479.2,163.9L479.2,163.9z M476.4,148.9
			c0-0.7,0.4-0.9,0.9-0.9h1.1c0.5,0,0.9,0.2,0.9,0.9v0.9c0,0.7-0.4,0.9-0.9,0.9h-1.1c-0.5,0-0.9-0.2-0.9-0.9V148.9z"/>
		<path fill="#FFFFFF" d="M489.1,163.4c-0.8,0-1.1,0-1.7-0.5l-0.8-0.7c-0.8-0.7-1-1.1-1-2.1v-3.7c0-1,0.1-1.6,0.9-2.3l0.7-0.6
			c0.9-0.8,1.3-0.8,2.1-0.8h1.7c0.9,0,1.4,0.1,2.1,0.7l0.8,0.6c0.9,0.7,1,1.4,1,2.5v1.5c0,1.1-0.2,1.4-1.3,1.4h-6.1v0.6
			c0,0.2,0.1,0.4,0.3,0.6l0.5,0.5c0.3,0.3,0.6,0.4,1.3,0.4h4.1c0.6,0,1.3,0.1,1.3,0.9c0,0.8-0.8,0.9-1.3,0.9L489.1,163.4
			L489.1,163.4z M487.5,157.5h5.5v-1.1c0-0.4,0-0.7-0.2-0.9l-0.7-0.6c-0.2-0.2-0.6-0.2-0.9-0.2h-1.6c-0.4,0-0.7,0-1,0.2l-0.7,0.5
			c-0.2,0.2-0.4,0.3-0.4,0.9V157.5z"/>
		<path fill="#FFFFFF" d="M500.3,157.2c0-1.2,0.2-1.7,1.1-2.5l1.4-1.2c0.9-0.7,1.3-0.8,2.5-0.8h3c0.6,0,1.3,0.1,1.3,0.9
			c0,0.8-0.8,0.9-1.3,0.9H505c-0.4,0-0.8,0.2-1.1,0.5l-1.1,1c-0.3,0.2-0.5,0.4-0.5,0.8v2.4c0,0.4,0.2,0.6,0.5,0.8l1.1,1
			c0.3,0.3,0.7,0.5,1.1,0.5h3.3c0.6,0,1.3,0.1,1.3,0.9c0,0.8-0.7,0.9-1.3,0.9h-3c-1.1,0-1.6,0-2.5-0.8l-1.4-1.2
			c-0.9-0.8-1.1-1.3-1.1-2.5V157.2z"/>
		<path fill="#FFFFFF" d="M518.9,159.8c0,1.1,0,1.7,1.3,1.7h1c0.8,0,1.1-0.1,1.3-0.8c0.1-0.5,0.5-0.8,0.9-0.8c0.5,0,1,0.4,1,0.9
			c0,0.5-0.3,1.2-0.7,1.6c-0.7,0.8-1.6,1-2.6,1h-1c-1,0-1.8-0.2-2.5-0.9c-0.7-0.8-0.7-1.6-0.7-2.6v-5.2h-0.6c-0.6,0-1.3-0.1-1.3-0.9
			c0-0.8,0.7-0.9,1.3-0.9h0.6v-1.9c0-0.7,0.1-1.3,0.9-1.3c0.8,0,1,0.7,1,1.3v1.9h3.2c0.6,0,1.3,0.1,1.3,0.9c0,0.8-0.8,0.9-1.3,0.9
			h-3.2L518.9,159.8L518.9,159.8z"/>
	</g>
	<rect x="540" y="129.2" display="inline" fill="#738083" width="11" height="39"/>
	<g display="inline">
		<path fill="#738083" d="M155.1,120c0.5,0,1,0.3,1,1s-0.5,1-1,1h-8.8v-14.4c0-0.6,0.3-1,1-1c0.7,0,1,0.4,1,1V120H155.1z"/>
		<path fill="#738083" d="M164.5,113.2c-0.6,0-1.3-0.1-1.3-0.9c0-0.8,0.7-0.9,1.3-0.9h2.6c1,0,1.7,0.1,2.4,0.8
			c0.7,0.7,0.8,1.3,0.9,2.3l0.2,6.4c0,0.6-0.3,1.1-0.9,1.1c-0.5,0-1-0.4-1-0.9l-1.3,0.7c-0.5,0.3-0.6,0.3-1.2,0.3h-1.8
			c-0.9,0-1.5-0.1-2.2-0.7c-0.8-0.7-1-1.3-1-2.3v-0.8c0-0.9,0.2-1.5,0.9-2.1c0.7-0.6,1.4-0.7,2.2-0.7h4.1v-0.4
			c0-1.4-0.3-1.7-1.7-1.7L164.5,113.2L164.5,113.2z M164.5,117.2c-0.5,0-1.3,0.1-1.3,0.8v1.3c0,0.6,0.8,0.8,1.2,0.8h2.1l2.1-1.1
			v-0.4c0-1-0.3-1.4-1.3-1.4L164.5,117.2z"/>
		<path fill="#738083" d="M179.3,113.2c-0.4,0-1.1-0.1-1.1,0.5c0,0.3,0.2,0.4,0.5,0.6l4.7,2.2c1.2,0.6,1.9,1.3,1.9,2.7
			c0,1.9-1.3,2.8-3.1,2.8h-2.9c-1,0-1.7,0-2.4-0.6c-0.4-0.3-0.9-0.6-0.9-1.1c0-0.5,0.5-0.9,1-0.9c0.3,0,0.5,0.1,0.7,0.3
			c0.3,0.4,0.9,0.4,1.5,0.4h2.6c0.7,0,1.6,0.1,1.6-1c0-0.5-0.6-0.8-1-0.9l-4.5-2c-1-0.5-1.7-1.1-1.7-2.3c0-1.5,1.2-2.4,2.6-2.4h3.2
			c1,0,1.5,0.1,2.2,0.7c0.4,0.3,0.8,0.5,0.8,1.1c0,0.5-0.5,0.9-1,0.9c-0.4,0-0.6-0.1-0.8-0.4c-0.3-0.3-0.7-0.4-1.2-0.4L179.3,113.2
			L179.3,113.2L179.3,113.2z"/>
		<path fill="#738083" d="M194.6,118.4c0,1.1,0,1.7,1.3,1.7h1c0.8,0,1.1-0.1,1.3-0.8c0.1-0.5,0.5-0.8,0.9-0.8c0.5,0,1,0.4,1,0.9
			c0,0.5-0.3,1.2-0.7,1.6c-0.7,0.8-1.6,1-2.6,1h-1c-0.9,0-1.8-0.2-2.5-0.9c-0.7-0.8-0.7-1.6-0.7-2.6v-5.2h-0.6
			c-0.6,0-1.3-0.1-1.3-0.9c0-0.8,0.7-0.9,1.3-0.9h0.6v-1.9c0-0.7,0.1-1.3,0.9-1.3c0.8,0,0.9,0.7,0.9,1.3v1.9h3.2
			c0.6,0,1.3,0.1,1.3,0.9c0,0.8-0.8,0.9-1.3,0.9h-3.2L194.6,118.4L194.6,118.4z"/>
		<path fill="#738083" d="M225.9,120.1h1.4c0.6,0,1.3,0.1,1.3,0.9c0,0.8-0.8,0.9-1.3,0.9h-4.8c-0.6,0-1.3-0.1-1.3-0.9
			c0-0.8,0.7-0.9,1.3-0.9h1.5v-10.8h-1.5c-0.6,0-1.3-0.1-1.3-0.9c0-0.8,0.7-0.9,1.3-0.9h2c1.1,0,1.4,0.2,1.4,1.3L225.9,120.1
			L225.9,120.1z"/>
		<path fill="#738083" d="M234.9,114.9c0-1.3,0.3-1.7,1.2-2.5c0.9-0.8,1.4-1.1,2.7-1.1h1.5c1.3,0,1.8,0.3,2.7,1.1
			c0.9,0.8,1.2,1.2,1.2,2.5v3.6c0,1.2-0.3,1.7-1.3,2.6c-1,0.8-1.4,1-2.6,1h-1.5c-1.2,0-1.6-0.2-2.6-1c-1-0.8-1.3-1.3-1.3-2.6V114.9z
			 M236.8,118.4c0,0.4,0.1,0.7,0.7,1.1c0.4,0.4,0.7,0.5,1.3,0.5h1.5c0.6,0,0.9-0.2,1.3-0.5c0.6-0.5,0.7-0.7,0.7-1.1v-3.6
			c0-0.4-0.1-0.7-0.7-1.1c-0.4-0.4-0.7-0.5-1.3-0.5h-1.5c-0.6,0-0.9,0.2-1.3,0.5c-0.6,0.5-0.7,0.7-0.7,1.1V118.4z"/>
		<path fill="#738083" d="M249.7,114.9c0-0.9,0.3-1.7,0.7-2l1.4-1.1c0.4-0.3,0.7-0.5,1.2-0.5h1.8c0.5,0,1.1,0.4,1.9,0.9l0.5,0.4
			v-0.2c0-0.6,0.3-1.1,1-1.1c0.8,0,0.9,0.7,0.9,1.3v9.3c0,1.7-0.1,2.1-0.9,2.7l-0.6,0.5c-0.8,0.7-1.3,0.8-2.4,0.8h-3.1
			c-0.6,0-1.3-0.1-1.3-0.9c0-0.8,0.7-0.9,1.3-0.9h3.5c0.4,0,0.7-0.2,0.9-0.4l0.5-0.4c0.2-0.2,0.3-0.4,0.3-0.8v-2.6l-0.4,0.4
			c-0.4,0.4-1,0.9-1.6,0.9h-2.2c-0.4,0-0.9-0.1-1.4-0.6l-1.2-1.1c-0.6-0.5-0.6-1-0.6-1.8V114.9z M251.6,117.5c0,0.4,0,0.8,0.2,1
			l0.8,0.6c0.1,0.1,0.3,0.2,0.6,0.2h1.4c0.2,0,0.5-0.2,0.9-0.5l1.5-1.2c0.1-0.1,0.2-0.4,0.2-0.6v-1.4c0-0.3-0.1-0.5-0.2-0.6
			l-1.5-1.2c-0.4-0.3-0.6-0.5-0.9-0.5h-1.4c-0.2,0-0.4,0.1-0.6,0.2l-0.8,0.6c-0.2,0.2-0.2,0.6-0.2,1V117.5z"/>
		<path fill="#738083" d="M270,120.1h1.4c0.6,0,1.3,0.1,1.3,0.9c0,0.8-0.8,0.9-1.3,0.9h-4.8c-0.6,0-1.3-0.1-1.3-0.9
			c0-0.8,0.7-0.9,1.3-0.9h1.5v-6.9h-1.5c-0.6,0-1.3-0.1-1.3-0.9c0-0.8,0.7-0.9,1.3-0.9h2c1.1,0,1.4,0.2,1.4,1.3L270,120.1L270,120.1
			z M267.2,107.5c0-0.7,0.4-0.9,0.9-0.9h1.1c0.5,0,0.9,0.2,0.9,0.9v0.9c0,0.7-0.4,0.9-0.9,0.9h-1.1c-0.5,0-0.9-0.2-0.9-0.9V107.5z"
			/>
		<path fill="#738083" d="M281,115.2v5.5c0,0.7-0.1,1.3-0.9,1.3s-0.9-0.7-0.9-1.3v-7.9c0-0.7,0.1-1.4,0.9-1.4c0.9,0,0.9,0.7,0.9,1.4
			v0.2v0l1.5-1c0.5-0.3,1-0.6,1.6-0.6h1.4c0.7,0,1.2,0.2,1.8,0.7c0.9,0.7,0.8,1.5,0.9,2.6l0.2,6c0,0.7-0.1,1.4-0.9,1.4
			c-0.8,0-0.9-0.7-0.9-1.3l-0.2-5.9c0-1.2-0.1-1.6-1.3-1.6h-0.6c-0.2,0-0.4,0.1-0.6,0.2L281,115.2z"/>
		<path fill="#738083" d="M297.8,112.7c-0.4,0-0.8,0-1-0.4c-0.2-0.3-0.2-0.5-0.2-0.9v-1.1c0-0.4,0-0.6,0.2-0.9
			c0.3-0.4,0.6-0.4,1-0.4h1.4c0.4,0,0.8,0,1,0.4c0.2,0.3,0.2,0.5,0.2,0.9v1.1c0,0.4,0,0.6-0.2,0.9c-0.3,0.4-0.6,0.4-1,0.4H297.8z
			 M297.8,119.5c-0.4,0-0.8,0-1-0.4c-0.2-0.3-0.2-0.5-0.2-0.9v-1.1c0-0.4,0-0.6,0.2-0.9c0.3-0.4,0.6-0.4,1-0.4h1.4
			c0.4,0,0.8,0,1,0.4c0.2,0.3,0.2,0.5,0.2,0.9v1.1c0,0.4,0,0.6-0.2,0.9c-0.3,0.4-0.6,0.4-1,0.4H297.8z"/>
		<path fill="#738083" d="M327.1,118.4c0,1.1,0,1.7,1.3,1.7h1c0.8,0,1.1-0.1,1.3-0.8c0.1-0.5,0.5-0.8,0.9-0.8c0.5,0,1,0.4,1,0.9
			c0,0.5-0.3,1.2-0.7,1.6c-0.7,0.8-1.6,1-2.6,1h-1c-1,0-1.8-0.2-2.5-0.9c-0.7-0.8-0.7-1.6-0.7-2.6v-5.2h-0.6c-0.6,0-1.3-0.1-1.3-0.9
			c0-0.8,0.7-0.9,1.3-0.9h0.6v-1.9c0-0.7,0.1-1.3,0.9-1.3c0.8,0,1,0.7,1,1.3v1.9h3.2c0.6,0,1.3,0.1,1.3,0.9c0,0.8-0.8,0.9-1.3,0.9
			h-3.2L327.1,118.4L327.1,118.4z"/>
		<path fill="#738083" d="M338,114.9c0-1.3,0.3-1.7,1.2-2.5c0.9-0.8,1.4-1.1,2.7-1.1h1.5c1.3,0,1.8,0.3,2.7,1.1
			c1,0.8,1.2,1.2,1.2,2.5v3.6c0,1.2-0.3,1.7-1.3,2.6c-1,0.8-1.4,1-2.6,1h-1.5c-1.2,0-1.6-0.2-2.6-1c-1-0.8-1.3-1.3-1.3-2.6
			L338,114.9L338,114.9z M339.9,118.4c0,0.4,0.1,0.7,0.7,1.1c0.4,0.4,0.7,0.5,1.3,0.5h1.5c0.6,0,0.9-0.2,1.3-0.5
			c0.6-0.5,0.7-0.7,0.7-1.1v-3.6c0-0.4-0.1-0.7-0.7-1.1c-0.4-0.4-0.7-0.5-1.3-0.5h-1.5c-0.6,0-0.9,0.2-1.3,0.5
			c-0.6,0.5-0.7,0.7-0.7,1.1V118.4z"/>
		<path fill="#738083" d="M358,111.3c0.7,0,1.2,0.4,1.9,1l0.3,0.3v-4c0-0.7,0.1-1.3,0.9-1.3c0.8,0,1,0.7,1,1.3v11.9
			c0,0.7-0.1,1.3-1,1.3c-0.7,0-0.9-0.6-0.9-1.3v-0.1l-0.4,0.4c-0.6,0.6-1.2,1-1.8,1h-1.8c-0.6,0-1.3-0.4-1.6-0.7l-0.7-0.6
			c-0.8-0.7-1-1.2-1-2.2v-3.8c0-1,0.3-1.5,1-2.2l0.7-0.6c0.6-0.5,1-0.7,1.8-0.7L358,111.3L358,111.3z M354.7,117.8
			c0,0.5,0,1.2,0.3,1.4l0.6,0.5c0.2,0.2,0.5,0.4,0.7,0.4h1.3c0.2,0,0.6-0.2,0.9-0.5l1.1-0.9c0.3-0.2,0.6-0.5,0.6-0.8v-2.4
			c0-0.4-0.3-0.6-0.6-0.8l-1.1-0.9c-0.4-0.3-0.7-0.5-0.9-0.5h-1.3c-0.2,0-0.5,0.2-0.7,0.4L355,114c-0.3,0.2-0.3,0.9-0.3,1.4V117.8z"
			/>
		<path fill="#738083" d="M370.7,113.2c-0.6,0-1.3-0.1-1.3-0.9c0-0.8,0.7-0.9,1.3-0.9h2.6c1,0,1.7,0.1,2.5,0.8
			c0.7,0.7,0.8,1.3,0.8,2.3l0.2,6.4c0,0.6-0.3,1.1-0.9,1.1c-0.5,0-1-0.4-1-0.9l-1.3,0.7c-0.5,0.3-0.6,0.3-1.2,0.3h-1.8
			c-0.8,0-1.5-0.1-2.2-0.7c-0.8-0.7-1-1.3-1-2.3v-0.8c0-0.9,0.2-1.5,0.9-2.1c0.7-0.6,1.4-0.7,2.2-0.7h4.1v-0.4
			c0-1.4-0.3-1.7-1.7-1.7L370.7,113.2L370.7,113.2z M370.7,117.2c-0.5,0-1.3,0.1-1.3,0.8v1.3c0,0.6,0.8,0.8,1.2,0.8h2.1l2.1-1.1
			v-0.4c0-1-0.3-1.4-1.3-1.4L370.7,117.2z"/>
		<path fill="#738083" d="M389.6,113.7v-1.1c0-0.7,0.1-1.3,0.9-1.3c0.8,0,1,0.7,1,1.3v0.8c0,0.5,0,0.8-0.2,1.2l-4.8,10.4
			c-0.4,0.9-0.6,1-1.5,1h-1.5c-0.6,0-1.3-0.1-1.3-0.9c0-0.8,0.7-0.9,1.3-0.9h1.3l1.4-2.9h-0.1c-0.8,0-0.8-0.4-1.1-1l-2.3-5.2
			c-0.3-0.6-0.5-1-0.5-1.6v-0.9c0-0.7,0.1-1.3,0.9-1.3s1,0.7,1,1.3v1.1l2.5,5.6h0.4L389.6,113.7z"/>
		<path fill="#738083" d="M411.7,114.9c0-1.3,0.3-1.7,1.2-2.5c0.9-0.8,1.4-1.1,2.7-1.1h1.5c1.3,0,1.8,0.3,2.7,1.1
			c1,0.8,1.2,1.2,1.2,2.5v3.6c0,1.2-0.3,1.7-1.3,2.6c-1,0.8-1.4,1-2.6,1h-1.5c-1.2,0-1.6-0.2-2.6-1c-1-0.8-1.3-1.3-1.3-2.6V114.9z
			 M413.6,118.4c0,0.4,0.1,0.7,0.7,1.1c0.4,0.4,0.7,0.5,1.3,0.5h1.5c0.6,0,0.9-0.2,1.3-0.5c0.6-0.5,0.7-0.7,0.7-1.1v-3.6
			c0-0.4-0.1-0.7-0.7-1.1c-0.4-0.4-0.7-0.5-1.3-0.5h-1.5c-0.6,0-0.9,0.2-1.3,0.5c-0.6,0.5-0.7,0.7-0.7,1.1V118.4z"/>
		<path fill="#738083" d="M428.3,115.2v5.5c0,0.7-0.1,1.3-1,1.3s-0.9-0.7-0.9-1.3v-7.9c0-0.7,0.1-1.4,0.9-1.4c0.9,0,1,0.7,1,1.4v0.2
			v0l1.5-1c0.5-0.3,1-0.6,1.6-0.6h1.4c0.7,0,1.2,0.2,1.8,0.7c0.8,0.7,0.8,1.5,0.8,2.6l0.2,6c0,0.7-0.1,1.4-0.9,1.4
			c-0.8,0-0.9-0.7-1-1.3l-0.2-5.9c0-1.2-0.1-1.6-1.3-1.6h-0.6c-0.2,0-0.4,0.1-0.6,0.2L428.3,115.2z"/>
		<path fill="#738083" d="M459.7,118.4c0,1.1,0,1.7,1.3,1.7h1c0.8,0,1.1-0.1,1.3-0.8c0.1-0.5,0.5-0.8,0.9-0.8c0.5,0,1,0.4,1,0.9
			c0,0.5-0.3,1.2-0.7,1.6c-0.7,0.8-1.6,1-2.6,1h-1c-1,0-1.8-0.2-2.5-0.9c-0.7-0.8-0.7-1.6-0.7-2.6v-5.2h-0.6c-0.6,0-1.3-0.1-1.3-0.9
			c0-0.8,0.7-0.9,1.3-0.9h0.6v-1.9c0-0.7,0.1-1.3,0.9-1.3c0.8,0,1,0.7,1,1.3v1.9h3.2c0.6,0,1.3,0.1,1.3,0.9c0,0.8-0.8,0.9-1.3,0.9
			h-3.2L459.7,118.4L459.7,118.4z"/>
		<path fill="#738083" d="M474.4,118.4c0,1.1,0,1.7,1.3,1.7h1c0.8,0,1.1-0.1,1.3-0.8c0.1-0.5,0.5-0.8,0.9-0.8c0.5,0,1,0.4,1,0.9
			c0,0.5-0.3,1.2-0.7,1.6c-0.7,0.8-1.6,1-2.6,1h-1c-1,0-1.8-0.2-2.5-0.9c-0.7-0.8-0.7-1.6-0.7-2.6v-5.2h-0.6c-0.6,0-1.3-0.1-1.3-0.9
			c0-0.8,0.7-0.9,1.3-0.9h0.6v-1.9c0-0.7,0.1-1.3,0.9-1.3c0.8,0,1,0.7,1,1.3v1.9h3.2c0.6,0,1.3,0.1,1.3,0.9c0,0.8-0.8,0.9-1.3,0.9
			h-3.2L474.4,118.4L474.4,118.4z"/>
		<path fill="#738083" d="M492.7,113.7v-1.1c0-0.7,0.1-1.3,0.9-1.3c0.8,0,1,0.7,1,1.3v0.8c0,0.5,0,0.8-0.2,1.2l-4.8,10.4
			c-0.4,0.9-0.6,1-1.5,1h-1.5c-0.6,0-1.3-0.1-1.3-0.9c0-0.8,0.7-0.9,1.3-0.9h1.3l1.4-2.9h-0.1c-0.8,0-0.8-0.4-1.1-1l-2.3-5.2
			c-0.3-0.6-0.5-1-0.5-1.6v-0.9c0-0.7,0.1-1.3,0.9-1.3s1,0.7,1,1.3v1.1l2.5,5.6h0.4L492.7,113.7z"/>
		<path fill="#738083" d="M503.3,113.2c-0.4,0-1.1-0.1-1.1,0.5c0,0.3,0.2,0.4,0.5,0.6l4.7,2.2c1.2,0.6,1.9,1.3,1.9,2.7
			c0,1.9-1.3,2.8-3.1,2.8h-2.9c-1,0-1.7,0-2.4-0.6c-0.4-0.3-0.9-0.6-0.9-1.1c0-0.5,0.5-0.9,1-0.9c0.3,0,0.5,0.1,0.7,0.3
			c0.3,0.4,0.9,0.4,1.5,0.4h2.6c0.7,0,1.6,0.1,1.6-1c0-0.5-0.6-0.8-1-0.9l-4.5-2c-1-0.5-1.7-1.1-1.7-2.3c0-1.5,1.2-2.4,2.6-2.4h3.2
			c1,0,1.5,0.1,2.2,0.7c0.4,0.3,0.8,0.5,0.8,1.1c0,0.5-0.5,0.9-1,0.9c-0.4,0-0.6-0.1-0.8-0.4c-0.3-0.3-0.7-0.4-1.2-0.4L503.3,113.2
			L503.3,113.2L503.3,113.2z"/>
	</g>
	<path display="inline" fill="#738083" d="M575,76.2H117V50.9c0-5.2,4.5-8.7,10.9-8.7h436c6.4,0,11.1,3.5,11.1,8.7V76.2z"/>
	<g display="inline">
		<path fill="#CDEAF5" d="M114.3,155.1c0,0-11.1,8.8-6.6,15.2c4.5,6.4-4.5,14.6,0,19.3c4.5,4.7-1.1,16.7,9.8,25.5
			c0,0,7.5-8.3,9.2-16l-3.4-0.4c0,0,11.5-4.3,19.1-12.6c0,0-9.2-2.1-16.9-2.1c0,0,12-6.2,17.8-5.3c0,0-1.7-7.1-9.2-8.8
			c0,0,7.3-8.4-3.2-12S116.6,153.6,114.3,155.1z"/>
		<path fill="#EAF7FE" d="M118.3,151.1c0,0-11.1,8.8-6.6,15.2s-4.5,14.6,0,19.3s-1.1,16.7,9.8,25.5c0,0,7.5-8.3,9.2-16l-3.4-0.4
			c0,0,11.5-4.3,19.1-12.6c0,0-9.2-2.1-16.9-2.1c0,0,12-6.2,17.8-5.3c0,0-1.7-7.1-9.2-8.8c0,0,7.3-8.4-3.2-12
			C124.5,150.5,120.5,149.6,118.3,151.1z"/>
		<path fill="#CDEAF5" d="M147.4,175c0,0-9.2-6.3-23.3,5.5c0,0,2.6-0.4,5.4-0.3C129.5,180.2,142.6,173.9,147.4,175z"/>
		<path fill="#CDEAF5" d="M138.2,166.1c0,0-8.2-1.1-12.5-0.1c0,0,4.9-6.5,14.4-2.8C140,163.2,139.2,165.4,138.2,166.1z"/>
		<path fill="#CDEAF5" d="M146.4,182.3c0,0-20.2,8.6-24.7,12.6c0,0,2.2-0.4,5.6,0C127.3,194.9,141.2,189.4,146.4,182.3z"/>
		<path fill="#CDEAF5" d="M130,197.2c0,0-6.9,8.9-11.1,11.5c0,0,1.2,1.8,2.6,2.4C121.5,211.2,128.7,202.7,130,197.2z"/>
	</g>
	<g display="inline">
		<circle fill="#E9F7FE" cx="129.6" cy="59.4" r="3.9"/>
		<circle fill="#E9F7FE" cx="142.6" cy="59.4" r="3.9"/>
		<circle fill="#E9F7FE" cx="155.6" cy="59.4" r="3.9"/>
	</g>
</g>
<g>
	<g id="Layer_2_1_">
		<path fill="#5C5B5E" d="M546.1,345.9c0,4.8-5.5,10.7-12.3,10.7H64.5c-6.8,0-12.8-5.9-12.8-10.7V23.4c0-4.8,6-8.4,12.8-8.4h469.4
			c6.8,0,12.3,3.5,12.3,8.4L546.1,345.9L546.1,345.9z"/>
		<g>
			<path fill="#098DBA" d="M90.8,137.9c0.3,0.3,0.4,0.4,0.8,0.4h0.8c0.2,0,0.3-0.1,0.3-0.3v-1.3c0-0.7,0.3-1.1,1.1-1.1
				c0.8,0,1.1,0.3,1.1,1v1.9c0,1.1-0.7,1.9-1.8,1.9h-1.8c-0.7,0-1.2-0.2-1.6-0.7l-2.5-2.4c-0.3-0.3-0.4-0.4-0.8-0.4h-0.8
				c-0.2,0-0.3,0.1-0.3,0.3v1.3c0,0.7-0.3,1.1-1.1,1.1c-0.8,0-1.1-0.3-1.1-1v-1.9c0-1.1,0.7-1.9,1.8-1.9h1.8c0.7,0,1.2,0.2,1.6,0.7
				L90.8,137.9z"/>
			<path fill="#FFFFFF" d="M118.7,136.5h-0.6c-0.6,0-1.4-0.1-1.4-1c0-0.9,0.7-1,1.4-1h0.6v-0.3c0-1.2,0.1-2,1-2.9c1-0.9,1.9-1,3.2-1
				h1.4c0.7,0,1.5,0.1,1.5,1c0,0.9-0.7,1-1.4,1h-1.6c-1.4,0-2,0.3-2,1.8v0.4h1.8c0.7,0,1.4,0.1,1.4,1c0,0.9-0.8,1-1.4,1h-1.8v8
				c0,0.7-0.1,1.4-1,1.4s-1-0.7-1-1.4L118.7,136.5L118.7,136.5z"/>
			<path fill="#FFFFFF" d="M131.6,138.2c0-1.4,0.3-1.8,1.3-2.7c1-0.8,1.5-1.2,2.9-1.2h1.6c1.4,0,1.9,0.3,2.9,1.2
				c1,0.8,1.3,1.3,1.3,2.7v3.9c0,1.3-0.3,1.9-1.4,2.8c-1.1,0.9-1.5,1.1-2.8,1.1h-1.6c-1.3,0-1.7-0.2-2.8-1.1
				c-1.1-0.9-1.4-1.4-1.4-2.8V138.2z M133.7,142.1c0,0.4,0.1,0.7,0.7,1.2c0.4,0.4,0.8,0.6,1.4,0.6h1.6c0.6,0,1-0.2,1.4-0.6
				c0.6-0.5,0.7-0.8,0.7-1.2v-3.9c0-0.4-0.1-0.7-0.7-1.2c-0.4-0.4-0.8-0.6-1.4-0.6h-1.6c-0.6,0-1,0.2-1.4,0.6
				c-0.6,0.5-0.7,0.8-0.7,1.2V142.1z"/>
			<path fill="#FFFFFF" d="M157.6,144.4c0,0.5,0.1,1.5-1,1.5c-0.9,0-1-0.7-1-1.4v-0.3l-1.7,1.1c-0.7,0.4-1.2,0.7-1.8,0.7h-1.5
				c-0.6,0-1.2-0.2-1.9-0.7c-0.9-0.8-0.9-1.7-0.9-2.8l-0.2-6.4c0-0.7,0.1-1.5,1-1.5c0.9,0,1,0.7,1,1.4l0.2,6.3c0,0.5,0,1,0.2,1.3
				c0.2,0.3,0.7,0.4,1.2,0.4h0.7c0.2,0,0.4-0.1,0.6-0.2l3-1.9v-6c0-0.7,0.1-1.4,1-1.4s1,0.7,1,1.4L157.6,144.4L157.6,144.4
				L157.6,144.4z"/>
			<path fill="#FFFFFF" d="M165.5,138.6v6c0,0.7-0.1,1.4-1,1.4c-0.9,0-1-0.7-1-1.4v-8.6c0-0.7,0.1-1.5,1-1.5c0.9,0,1,0.8,1,1.5v0.2
				v0l1.7-1.1c0.5-0.3,1.1-0.7,1.8-0.7h1.5c0.8,0,1.3,0.2,1.9,0.7c0.9,0.8,0.9,1.7,0.9,2.8l0.2,6.4c0,0.7-0.1,1.5-1,1.5
				c-0.8,0-1-0.7-1-1.4l-0.2-6.3c0-1.3-0.1-1.7-1.4-1.7h-0.7c-0.2,0-0.4,0.1-0.6,0.2L165.5,138.6z"/>
			<path fill="#FFFFFF" d="M184.9,134.4c0.7,0,1.3,0.4,2,1.1l0.3,0.4v-4.3c0-0.7,0.1-1.4,1-1.4c0.9,0,1,0.7,1,1.4v12.9
				c0,0.7-0.1,1.4-1,1.4c-0.8,0-1-0.7-1-1.4v-0.1l-0.4,0.4c-0.6,0.6-1.3,1-2,1h-2c-0.7,0-1.5-0.5-1.8-0.7l-0.7-0.6
				c-0.9-0.7-1.1-1.3-1.1-2.4v-4.1c0-1.1,0.3-1.6,1.1-2.4l0.7-0.6c0.6-0.6,1.1-0.7,2-0.7L184.9,134.4L184.9,134.4z M181.4,141.4
				c0,0.6,0,1.3,0.3,1.6l0.6,0.5c0.3,0.2,0.5,0.4,0.8,0.4h1.5c0.3,0,0.6-0.2,1-0.5l1.2-1c0.3-0.3,0.6-0.5,0.6-0.9v-2.6
				c0-0.4-0.3-0.6-0.6-0.9l-1.2-1c-0.4-0.3-0.7-0.5-1-0.5h-1.5c-0.3,0-0.5,0.2-0.8,0.4l-0.6,0.5c-0.3,0.3-0.3,1-0.3,1.6V141.4z"/>
			<path fill="#FFFFFF" d="M198.7,136.5c-0.6,0-1.4-0.1-1.4-1c0-0.9,0.7-1,1.4-1h2.8c1.1,0,1.8,0.1,2.6,0.9c0.8,0.8,0.9,1.4,0.9,2.4
				l0.2,7c0,0.6-0.3,1.2-1,1.2c-0.5,0-1.1-0.4-1-1l-1.4,0.7c-0.6,0.3-0.6,0.3-1.3,0.3h-2c-0.9,0-1.6-0.1-2.3-0.7
				c-0.9-0.7-1.1-1.5-1.1-2.5v-0.9c0-1,0.2-1.6,1-2.3c0.7-0.6,1.5-0.8,2.4-0.8h4.4v-0.5c0-1.5-0.3-1.8-1.8-1.8L198.7,136.5
				L198.7,136.5L198.7,136.5z M198.6,140.8c-0.6,0-1.4,0.1-1.4,0.9v1.4c0,0.7,0.8,0.8,1.3,0.8h2.3l2.3-1.2v-0.4
				c0-1.1-0.3-1.5-1.5-1.5H198.6z"/>
			<path fill="#FFFFFF" d="M215.2,142.1c0,1.2,0,1.8,1.4,1.8h1c0.8,0,1.2-0.1,1.4-0.9c0.1-0.5,0.5-0.8,1-0.8c0.6,0,1,0.4,1,1
				c0,0.6-0.4,1.3-0.7,1.7c-0.7,0.9-1.7,1-2.8,1h-1c-1,0-1.9-0.2-2.6-1c-0.8-0.9-0.7-1.8-0.7-2.9v-5.6h-0.7c-0.6,0-1.4-0.1-1.4-1
				c0-0.9,0.7-1,1.4-1h0.7v-2.1c0-0.7,0.1-1.4,1-1.4c0.9,0,1,0.7,1,1.4v2.1h3.4c0.7,0,1.4,0.1,1.4,1c0,0.9-0.8,1-1.4,1h-3.4
				L215.2,142.1L215.2,142.1z"/>
			<path fill="#FFFFFF" d="M233.1,143.9h1.5c0.7,0,1.4,0.1,1.4,1c0,0.9-0.8,1-1.4,1h-5.2c-0.6,0-1.4-0.1-1.4-1c0-0.9,0.7-1,1.4-1
				h1.6v-7.4h-1.6c-0.6,0-1.4-0.1-1.4-1c0-0.9,0.7-1,1.4-1h2.2c1.2,0,1.5,0.2,1.5,1.4V143.9L233.1,143.9z M230,130.3
				c0-0.7,0.4-1,1-1h1.2c0.6,0,1,0.2,1,1v1c0,0.7-0.4,1-1,1H231c-0.6,0-1-0.2-1-1V130.3z"/>
			<path fill="#FFFFFF" d="M242.9,138.2c0-1.4,0.3-1.8,1.3-2.7c1-0.8,1.5-1.2,2.9-1.2h1.6c1.4,0,1.9,0.3,2.9,1.2
				c1,0.8,1.3,1.3,1.3,2.7v3.9c0,1.3-0.3,1.9-1.4,2.8c-1.1,0.9-1.5,1.1-2.8,1.1h-1.6c-1.3,0-1.7-0.2-2.8-1.1
				c-1.1-0.9-1.4-1.4-1.4-2.8L242.9,138.2L242.9,138.2z M245,142.1c0,0.4,0.1,0.7,0.7,1.2c0.4,0.4,0.8,0.6,1.4,0.6h1.6
				c0.6,0,1-0.2,1.4-0.6c0.6-0.5,0.7-0.8,0.7-1.2v-3.9c0-0.4-0.1-0.7-0.7-1.2c-0.4-0.4-0.8-0.6-1.4-0.6h-1.6c-0.6,0-1,0.2-1.4,0.6
				c-0.6,0.5-0.7,0.8-0.7,1.2V142.1z"/>
			<path fill="#FFFFFF" d="M260.9,138.6v6c0,0.7-0.2,1.4-1,1.4c-0.9,0-1-0.7-1-1.4v-8.6c0-0.7,0.1-1.5,1-1.5c0.9,0,1,0.8,1,1.5v0.2
				v0l1.7-1.1c0.5-0.3,1.1-0.7,1.8-0.7h1.5c0.8,0,1.3,0.2,1.9,0.7c0.9,0.8,0.9,1.7,0.9,2.8l0.2,6.4c0,0.7-0.1,1.5-1,1.5
				c-0.8,0-1-0.7-1-1.4l-0.2-6.3c0-1.3-0.2-1.7-1.4-1.7h-0.7c-0.2,0-0.4,0.1-0.6,0.2L260.9,138.6z"/>
			<path fill="#FFFFFF" d="M292.7,138.6v6c0,0.7-0.2,1.4-1,1.4c-0.9,0-1-0.7-1-1.4v-8.6c0-0.7,0.1-1.5,1-1.5c0.9,0,1,0.8,1,1.5v0.2
				v0l1.7-1.1c0.5-0.3,1.1-0.7,1.8-0.7h1.5c0.8,0,1.3,0.2,1.9,0.7c0.9,0.8,0.9,1.7,0.9,2.8l0.2,6.4c0,0.7-0.1,1.5-1,1.5
				c-0.8,0-1-0.7-1-1.4l-0.2-6.3c0-1.3-0.2-1.7-1.4-1.7h-0.7c-0.2,0-0.4,0.1-0.6,0.2L292.7,138.6z"/>
			<path fill="#FFFFFF" d="M310.3,145.9c-0.9,0-1.2,0-1.8-0.6l-0.9-0.8c-0.8-0.7-1-1.2-1-2.3v-3.9c0-1.1,0.1-1.7,1-2.5l0.7-0.6
				c1-0.8,1.4-0.9,2.3-0.9h1.9c1,0,1.5,0.1,2.3,0.7l0.8,0.7c0.9,0.7,1.1,1.5,1.1,2.7v1.6c0,1.2-0.2,1.5-1.4,1.5h-6.6v0.7
				c0,0.2,0.1,0.4,0.3,0.6l0.5,0.6c0.3,0.3,0.7,0.4,1.4,0.4h4.4c0.7,0,1.4,0.1,1.4,1c0,0.9-0.8,1-1.4,1L310.3,145.9L310.3,145.9
				L310.3,145.9z M308.6,139.6h5.9v-1.2c0-0.4,0-0.7-0.3-1l-0.8-0.7c-0.3-0.2-0.7-0.3-1-0.3h-1.7c-0.4,0-0.7,0-1,0.2l-0.7,0.5
				c-0.3,0.2-0.4,0.3-0.4,0.9L308.6,139.6L308.6,139.6z"/>
			<path fill="#FFFFFF" d="M328.5,141.2l1.1,1.9l0.6-1.9l0.2-5.3c0-0.7,0.1-1.5,1-1.5c0.9,0,1,0.8,1,1.5l-0.2,5.7l-1,3
				c-0.2,0.6-0.3,1.3-1,1.3h-0.8c-0.4,0-0.7-0.4-0.9-0.7l-1.1-1.7l-1.1,1.7c-0.2,0.3-0.5,0.7-0.9,0.7h-0.8c-0.7,0-0.8-0.7-1-1.3
				l-1-3l-0.2-5.7c0-0.7,0.1-1.5,1-1.5c0.9,0,1,0.8,1,1.5l0.2,5.3l0.6,1.9l1.1-1.9v-1.9c0-0.7,0.1-1.4,1-1.4c0.9,0,1,0.7,1,1.4
				L328.5,141.2L328.5,141.2z"/>
			<path fill="#FFFFFF" d="M360.3,137.9v6.7c0,0.7-0.1,1.4-1,1.4c-0.9,0-1-0.7-1-1.4v-6.9c0-0.3,0-1-0.5-1c-0.2,0-0.4,0.2-0.6,0.3
				l-0.9,0.8v6.7c0,0.7-0.2,1.4-1,1.4c-0.9,0-1-0.7-1-1.4v-8.6c0-0.7,0.2-1.5,1.1-1.5c0.5,0,0.9,0.3,1,0.8l0.2-0.1
				c0.5-0.4,0.9-0.7,1.6-0.7c0.8,0,1.4,0.4,1.9,1l0.2-0.2c0.6-0.6,0.9-0.9,1.8-0.9c0.7,0,1.3,0.3,1.7,0.8c0.5,0.7,0.5,1.3,0.5,2
				l0.2,7.1c0,0.7-0.1,1.5-1,1.5c-0.8,0-1-0.7-1-1.4l-0.2-6.8c0-0.4,0.1-1.1-0.5-1.1c-0.3,0-0.7,0.5-0.9,0.7L360.3,137.9z"/>
			<path fill="#FFFFFF" d="M378.1,137v-1.2c0-0.7,0.1-1.4,1-1.4c0.9,0,1,0.7,1,1.4v0.8c0,0.5,0,0.9-0.3,1.3l-5.2,11.2
				c-0.4,1-0.7,1.1-1.6,1.1h-1.6c-0.6,0-1.4-0.1-1.4-1c0-0.9,0.7-1,1.4-1h1.4l1.5-3.1h-0.1c-0.9,0-0.9-0.4-1.2-1.1l-2.5-5.6
				c-0.3-0.6-0.5-1.1-0.5-1.7v-0.9c0-0.7,0.1-1.4,1-1.4s1,0.7,1,1.4v1.2l2.8,6h0.4L378.1,137z"/>
			<path fill="#FFFFFF" d="M396.1,141.5c0,1.5-0.1,2-1.3,3l-1.2,1c-0.4,0.3-1.1,0.9-1.6,0.9h-1.4c-0.9,0-1.3-0.6-2-1.2l-0.4-0.4v4.1
				c0,0.7-0.2,1.4-1,1.4c-0.9,0-1-0.7-1-1.4v-12.9c0-0.7,0.1-1.5,1-1.5c0.8,0,1,0.7,1,1.3v0.3l0.4-0.4c0.5-0.5,1.3-1.2,1.9-1.2h1.4
				c0.5,0,1.2,0.5,1.7,0.9l1.2,1c1.2,0.9,1.3,1.5,1.3,3L396.1,141.5L396.1,141.5L396.1,141.5L396.1,141.5z M394,139
				c0-0.4-0.1-0.6-0.4-0.9l-1.5-1.3c-0.2-0.2-0.4-0.4-0.7-0.4h-0.5c-0.3,0-0.7,0.4-0.9,0.6l-1.3,1.2c-0.4,0.4-0.6,0.6-0.6,1.1v2
				c0,0.3,0.1,0.7,0.3,0.9l1.6,1.5c0.3,0.3,0.6,0.6,0.9,0.6h0.5c0.3,0,0.5-0.2,0.7-0.4l1.5-1.3c0.3-0.3,0.4-0.5,0.4-0.9L394,139
				L394,139z"/>
			<path fill="#FFFFFF" d="M401.9,135.9c0-0.7,0.1-1.5,1-1.5c0.8,0,1,0.7,1,1.4v0.8l1.6-1.3c0.6-0.5,1.2-0.9,1.8-0.9h1.6
				c0.8,0,1.5,0.3,2,0.8c0.7,0.7,0.9,1.4,0.9,2.3c0,0.7-0.1,1.4-1,1.4c-0.7,0-1-0.6-1-1.3c0-0.3,0-0.6-0.2-0.9
				c-0.3-0.4-0.7-0.4-1.2-0.4h-0.6c-0.4,0-0.7,0.2-1,0.5l-2.9,2.4v5.2c0,0.7-0.2,1.4-1,1.4s-1-0.7-1-1.4L401.9,135.9L401.9,135.9
				L401.9,135.9L401.9,135.9z"/>
			<path fill="#FFFFFF" d="M417.8,138.2c0-1.4,0.3-1.8,1.3-2.7c1-0.8,1.5-1.2,2.9-1.2h1.6c1.4,0,1.9,0.3,2.9,1.2
				c1,0.8,1.3,1.3,1.3,2.7v3.9c0,1.3-0.3,1.9-1.4,2.8c-1.1,0.9-1.5,1.1-2.8,1.1H422c-1.3,0-1.7-0.2-2.8-1.1
				c-1.1-0.9-1.4-1.4-1.4-2.8L417.8,138.2L417.8,138.2z M419.9,142.1c0,0.4,0.1,0.7,0.7,1.2c0.4,0.4,0.8,0.6,1.4,0.6h1.6
				c0.6,0,1-0.2,1.4-0.6c0.6-0.5,0.7-0.8,0.7-1.2v-3.9c0-0.4-0.1-0.7-0.7-1.2c-0.5-0.4-0.8-0.6-1.4-0.6H422c-0.6,0-1,0.2-1.4,0.6
				c-0.6,0.5-0.7,0.8-0.7,1.2V142.1z"/>
			<path fill="#FFFFFF" d="M442.8,146.5c0,1.1,0,2-0.8,2.9c-0.8,0.9-1.7,0.9-2.4,0.9h-1.7c-0.6,0-1.3-0.1-1.9-0.6
				c-0.6-0.4-1.2-1.4-1.2-2.1c0-0.6,0.5-1,1-1c0.6,0,0.9,0.3,1,0.8c0.2,0.8,0.6,0.9,1.3,0.9h1.3c1.3,0,1.3-0.5,1.3-1.7v-10h-2.5
				c-0.6,0-1.4-0.1-1.4-1c0-0.9,0.7-1,1.4-1h3c1.2,0,1.5,0.2,1.5,1.4L442.8,146.5L442.8,146.5L442.8,146.5z M439.7,130.3
				c0-0.7,0.4-1,1-1h1.2c0.6,0,1,0.2,1,1v1c0,0.7-0.4,1-1,1h-1.2c-0.6,0-1-0.2-1-1V130.3z"/>
			<path fill="#FFFFFF" d="M453.4,145.9c-0.9,0-1.2,0-1.8-0.6l-0.9-0.8c-0.8-0.7-1-1.2-1-2.3v-3.9c0-1.1,0.1-1.7,1-2.5l0.7-0.6
				c1-0.8,1.4-0.9,2.3-0.9h1.9c1,0,1.5,0.1,2.3,0.7l0.8,0.7c0.9,0.7,1.1,1.5,1.1,2.7v1.6c0,1.2-0.2,1.5-1.4,1.5h-6.6v0.7
				c0,0.2,0.1,0.4,0.3,0.6l0.5,0.6c0.3,0.3,0.7,0.4,1.4,0.4h4.4c0.7,0,1.4,0.1,1.4,1c0,0.9-0.8,1-1.4,1L453.4,145.9L453.4,145.9
				L453.4,145.9z M451.7,139.6h5.9v-1.2c0-0.4,0-0.7-0.3-1l-0.8-0.7c-0.3-0.2-0.7-0.3-1-0.3h-1.7c-0.4,0-0.7,0-1,0.2l-0.7,0.5
				c-0.3,0.2-0.4,0.3-0.4,0.9L451.7,139.6L451.7,139.6z"/>
			<path fill="#FFFFFF" d="M465.5,139.2c0-1.3,0.2-1.9,1.2-2.7l1.5-1.3c1-0.8,1.5-0.8,2.6-0.8h3.2c0.7,0,1.4,0.1,1.4,1
				c0,0.9-0.8,1-1.4,1h-3.6c-0.4,0-0.8,0.2-1.2,0.5l-1.2,1c-0.3,0.3-0.6,0.5-0.6,0.9v2.5c0,0.4,0.2,0.6,0.6,0.9l1.2,1
				c0.4,0.3,0.8,0.5,1.2,0.5h3.6c0.6,0,1.4,0.1,1.4,1c0,0.9-0.7,1-1.4,1h-3.2c-1.2,0-1.7,0-2.6-0.8l-1.5-1.3c-1-0.8-1.2-1.4-1.2-2.7
				V139.2z"/>
			<path fill="#FFFFFF" d="M485.5,142.1c0,1.2,0,1.8,1.4,1.8h1c0.8,0,1.2-0.1,1.4-0.9c0.1-0.5,0.5-0.8,1-0.8c0.6,0,1,0.4,1,1
				c0,0.6-0.4,1.3-0.7,1.7c-0.7,0.9-1.7,1-2.8,1h-1c-1,0-1.9-0.2-2.6-1c-0.8-0.9-0.7-1.8-0.7-2.9v-5.6h-0.7c-0.6,0-1.4-0.1-1.4-1
				c0-0.9,0.7-1,1.4-1h0.7v-2.1c0-0.7,0.1-1.4,1-1.4c0.9,0,1,0.7,1,1.4v2.1h3.4c0.7,0,1.4,0.1,1.4,1c0,0.9-0.8,1-1.4,1h-3.4V142.1
				L485.5,142.1z"/>
		</g>
		<rect x="499.4" y="111" fill="#738083" width="11.9" height="42.1"/>
		<g>
			<path fill="#738083" d="M92.9,99.1c0.6,0,1.1,0.3,1.1,1.1s-0.5,1.1-1.1,1.1h-9.5V85.7c0-0.7,0.3-1.1,1.1-1.1
				c0.8,0,1.1,0.4,1.1,1.1v13.4H92.9z"/>
			<path fill="#738083" d="M103,91.7c-0.6,0-1.4-0.1-1.4-1c0-0.9,0.7-1,1.4-1h2.8c1.1,0,1.8,0.1,2.6,0.9c0.8,0.8,0.9,1.4,0.9,2.4
				l0.2,7c0,0.6-0.3,1.2-1,1.2c-0.5,0-1.1-0.4-1-1l-1.4,0.7c-0.6,0.3-0.6,0.3-1.3,0.3h-2c-0.9,0-1.6-0.1-2.3-0.7
				c-0.9-0.7-1.1-1.5-1.1-2.5v-0.9c0-1,0.2-1.6,1-2.3c0.7-0.6,1.5-0.8,2.4-0.8h4.4v-0.5c0-1.5-0.3-1.8-1.8-1.8L103,91.7L103,91.7z
				 M102.9,96.1c-0.6,0-1.4,0.1-1.4,0.9v1.4c0,0.7,0.8,0.8,1.3,0.8h2.3l2.3-1.2v-0.4c0-1.1-0.3-1.5-1.5-1.5H102.9z"/>
			<path fill="#738083" d="M118.9,91.7c-0.4,0-1.2-0.1-1.2,0.6c0,0.3,0.3,0.5,0.6,0.6l5.1,2.3c1.3,0.6,2,1.4,2,2.9
				c0,2.1-1.4,3.1-3.4,3.1h-3.2c-1.1,0-1.8,0-2.6-0.6c-0.4-0.3-0.9-0.7-0.9-1.2c0-0.6,0.5-1,1.1-1c0.3,0,0.6,0.1,0.8,0.4
				c0.4,0.4,1,0.4,1.6,0.4h2.8c0.7,0,1.7,0.1,1.7-1.1c0-0.5-0.6-0.8-1.1-1l-4.8-2.2c-1.1-0.5-1.8-1.2-1.8-2.5c0-1.6,1.3-2.6,2.8-2.6
				h3.5c1.1,0,1.6,0.1,2.4,0.7c0.4,0.3,0.8,0.6,0.8,1.2c0,0.6-0.5,1-1,1c-0.4,0-0.6-0.1-0.9-0.4c-0.3-0.4-0.7-0.4-1.3-0.4
				L118.9,91.7L118.9,91.7L118.9,91.7z"/>
			<path fill="#738083" d="M135.5,97.3c0,1.2,0,1.8,1.4,1.8h1c0.8,0,1.2-0.1,1.4-0.9c0.1-0.5,0.5-0.8,1-0.8c0.6,0,1,0.4,1,1
				c0,0.6-0.4,1.3-0.7,1.7c-0.7,0.9-1.7,1-2.8,1h-1c-1,0-1.9-0.2-2.6-1c-0.8-0.9-0.7-1.8-0.7-2.9v-5.6h-0.7c-0.6,0-1.4-0.1-1.4-1
				c0-0.9,0.7-1,1.4-1h0.7v-2.1c0-0.7,0.1-1.4,1-1.4c0.9,0,1,0.7,1,1.4v2.1h3.4c0.7,0,1.4,0.1,1.4,1c0,0.9-0.8,1-1.4,1h-3.4
				L135.5,97.3L135.5,97.3z"/>
			<path fill="#738083" d="M169.2,99.1h1.5c0.7,0,1.4,0.1,1.4,1c0,0.9-0.8,1-1.4,1h-5.2c-0.6,0-1.4-0.1-1.4-1c0-0.9,0.7-1,1.4-1h1.6
				V87.5h-1.6c-0.6,0-1.4-0.1-1.4-1c0-0.9,0.7-1,1.4-1h2.2c1.2,0,1.5,0.2,1.5,1.4L169.2,99.1L169.2,99.1z"/>
			<path fill="#738083" d="M179,93.5c0-1.4,0.3-1.8,1.3-2.7c1-0.8,1.5-1.2,2.9-1.2h1.6c1.4,0,1.9,0.3,2.9,1.2c1,0.8,1.3,1.3,1.3,2.7
				v3.9c0,1.3-0.3,1.9-1.4,2.8c-1.1,0.9-1.5,1.1-2.8,1.1h-1.6c-1.3,0-1.7-0.2-2.8-1.1c-1.1-0.9-1.4-1.4-1.4-2.8V93.5L179,93.5z
				 M181.1,97.4c0,0.4,0.1,0.7,0.7,1.2c0.4,0.4,0.8,0.6,1.4,0.6h1.6c0.6,0,1-0.2,1.4-0.6c0.6-0.5,0.7-0.8,0.7-1.2v-3.9
				c0-0.4-0.1-0.7-0.7-1.2c-0.4-0.4-0.8-0.6-1.4-0.6h-1.6c-0.6,0-1,0.2-1.4,0.6c-0.6,0.5-0.7,0.8-0.7,1.2V97.4z"/>
			<path fill="#738083" d="M194.9,93.5c0-1,0.3-1.8,0.7-2.2l1.5-1.2c0.4-0.3,0.7-0.5,1.3-0.5h2c0.6,0,1.2,0.4,2,1l0.5,0.4v-0.2
				c0-0.6,0.3-1.2,1-1.2c0.9,0,1,0.7,1,1.4v10c0,1.9-0.1,2.2-1,3l-0.7,0.6c-0.9,0.7-1.4,0.9-2.6,0.9h-3.4c-0.6,0-1.4-0.1-1.4-1
				c0-0.9,0.7-1,1.4-1h3.8c0.4,0,0.7-0.2,1-0.5l0.5-0.5c0.2-0.2,0.3-0.5,0.3-0.9v-2.8l-0.4,0.4c-0.5,0.5-1.1,1-1.7,1h-2.4
				c-0.4,0-0.9-0.1-1.5-0.6l-1.3-1.2c-0.6-0.6-0.6-1.1-0.6-1.9L194.9,93.5L194.9,93.5z M197,96.3c0,0.4,0,0.9,0.3,1.1l0.9,0.7
				c0.1,0.1,0.3,0.2,0.6,0.2h1.5c0.3,0,0.6-0.2,0.9-0.5l1.6-1.3c0.1-0.1,0.2-0.4,0.2-0.7v-1.5c0-0.3-0.1-0.6-0.2-0.7l-1.6-1.3
				c-0.4-0.3-0.7-0.5-0.9-0.5h-1.5c-0.3,0-0.4,0.1-0.6,0.2l-0.9,0.7c-0.2,0.2-0.3,0.6-0.3,1.1V96.3z"/>
			<path fill="#738083" d="M216.9,99.1h1.5c0.7,0,1.4,0.1,1.4,1c0,0.9-0.8,1-1.4,1h-5.2c-0.6,0-1.4-0.1-1.4-1c0-0.9,0.7-1,1.4-1h1.6
				v-7.4h-1.6c-0.6,0-1.4-0.1-1.4-1c0-0.9,0.7-1,1.4-1h2.2c1.2,0,1.5,0.2,1.5,1.4V99.1L216.9,99.1z M213.8,85.6c0-0.7,0.4-1,1-1h1.2
				c0.6,0,1,0.2,1,1v1c0,0.7-0.4,1-1,1h-1.2c-0.6,0-1-0.2-1-1V85.6z"/>
			<path fill="#738083" d="M228.8,93.8v6c0,0.7-0.1,1.4-1,1.4c-0.9,0-1-0.7-1-1.4v-8.6c0-0.7,0.1-1.5,1-1.5c0.9,0,1,0.8,1,1.5v0.2v0
				l1.7-1.1c0.5-0.3,1.1-0.7,1.8-0.7h1.5c0.8,0,1.3,0.2,1.9,0.7c0.9,0.8,0.9,1.7,0.9,2.8l0.2,6.4c0,0.7-0.1,1.5-1,1.5
				c-0.8,0-1-0.7-1-1.4l-0.2-6.3c0-1.3-0.1-1.7-1.4-1.7h-0.7c-0.2,0-0.4,0.1-0.6,0.2L228.8,93.8z"/>
			<path fill="#738083" d="M246.9,91.2c-0.5,0-0.8,0-1.1-0.4c-0.2-0.3-0.2-0.6-0.2-1v-1.2c0-0.4,0-0.6,0.2-1
				c0.3-0.4,0.6-0.4,1.1-0.4h1.5c0.5,0,0.8,0,1.1,0.4c0.2,0.3,0.2,0.6,0.2,1v1.2c0,0.4,0,0.6-0.2,1c-0.3,0.4-0.6,0.4-1.1,0.4H246.9z
				 M246.9,98.5c-0.5,0-0.8,0-1.1-0.4c-0.2-0.3-0.2-0.6-0.2-1v-1.2c0-0.4,0-0.6,0.2-1c0.3-0.4,0.6-0.4,1.1-0.4h1.5
				c0.5,0,0.8,0,1.1,0.4c0.2,0.3,0.2,0.6,0.2,1v1.2c0,0.4,0,0.6-0.2,1c-0.3,0.4-0.6,0.4-1.1,0.4H246.9z"/>
			<path fill="#738083" d="M278.6,97.3c0,1.2,0,1.8,1.4,1.8h1c0.8,0,1.2-0.1,1.4-0.9c0.1-0.5,0.5-0.8,1-0.8c0.6,0,1,0.4,1,1
				c0,0.6-0.4,1.3-0.7,1.7c-0.7,0.9-1.7,1-2.8,1h-1c-1,0-1.9-0.2-2.6-1c-0.8-0.9-0.7-1.8-0.7-2.9v-5.6h-0.7c-0.6,0-1.4-0.1-1.4-1
				c0-0.9,0.7-1,1.4-1h0.7v-2.1c0-0.7,0.1-1.4,1-1.4c0.9,0,1,0.7,1,1.4v2.1h3.4c0.7,0,1.4,0.1,1.4,1c0,0.9-0.8,1-1.4,1h-3.4V97.3
				L278.6,97.3z"/>
			<path fill="#738083" d="M290.3,93.5c0-1.4,0.3-1.8,1.3-2.7c1-0.8,1.5-1.2,2.9-1.2h1.6c1.4,0,1.9,0.3,2.9,1.2
				c1,0.8,1.3,1.3,1.3,2.7v3.9c0,1.3-0.3,1.9-1.4,2.8c-1.1,0.9-1.5,1.1-2.8,1.1h-1.6c-1.3,0-1.7-0.2-2.8-1.1
				c-1.1-0.9-1.4-1.4-1.4-2.8L290.3,93.5L290.3,93.5z M292.4,97.4c0,0.4,0.1,0.7,0.7,1.2c0.4,0.4,0.8,0.6,1.4,0.6h1.6
				c0.6,0,1-0.2,1.4-0.6c0.6-0.5,0.7-0.8,0.7-1.2v-3.9c0-0.4-0.1-0.7-0.7-1.2c-0.5-0.4-0.8-0.6-1.4-0.6h-1.6c-0.6,0-1,0.2-1.4,0.6
				c-0.6,0.5-0.7,0.8-0.7,1.2V97.4z"/>
			<path fill="#738083" d="M311.8,89.7c0.7,0,1.3,0.4,2,1.1l0.3,0.4v-4.3c0-0.7,0.1-1.4,1-1.4c0.9,0,1,0.7,1,1.4v12.9
				c0,0.7-0.1,1.4-1,1.4c-0.8,0-1-0.7-1-1.4v-0.1l-0.4,0.4c-0.6,0.6-1.3,1-2,1h-2c-0.7,0-1.5-0.5-1.8-0.7l-0.7-0.6
				c-0.9-0.7-1.1-1.3-1.1-2.4v-4.1c0-1.1,0.3-1.6,1.1-2.4l0.7-0.6c0.6-0.6,1.1-0.7,2-0.7L311.8,89.7L311.8,89.7L311.8,89.7z
				 M308.3,96.7c0,0.6,0,1.3,0.3,1.6l0.6,0.5c0.3,0.2,0.5,0.4,0.8,0.4h1.5c0.3,0,0.6-0.2,1-0.5l1.2-1c0.3-0.3,0.6-0.5,0.6-0.9v-2.6
				c0-0.4-0.3-0.6-0.6-0.9l-1.2-1c-0.4-0.3-0.7-0.5-1-0.5H310c-0.3,0-0.5,0.2-0.8,0.4l-0.6,0.5c-0.3,0.3-0.3,1-0.3,1.6V96.7z"/>
			<path fill="#738083" d="M325.6,91.7c-0.6,0-1.4-0.1-1.4-1c0-0.9,0.7-1,1.4-1h2.8c1.1,0,1.8,0.1,2.6,0.9c0.8,0.8,0.9,1.4,0.9,2.4
				l0.2,7c0,0.6-0.3,1.2-1,1.2c-0.5,0-1.1-0.4-1-1l-1.4,0.7c-0.6,0.3-0.6,0.3-1.3,0.3h-2c-0.9,0-1.6-0.1-2.3-0.7
				c-0.9-0.7-1.1-1.5-1.1-2.5v-0.9c0-1,0.2-1.6,1-2.3c0.7-0.6,1.5-0.8,2.4-0.8h4.4v-0.5c0-1.5-0.3-1.8-1.8-1.8L325.6,91.7
				L325.6,91.7L325.6,91.7z M325.6,96.1c-0.6,0-1.4,0.1-1.4,0.9v1.4c0,0.7,0.8,0.8,1.3,0.8h2.3L330,98v-0.4c0-1.1-0.3-1.5-1.5-1.5
				H325.6z"/>
			<path fill="#738083" d="M346,92.3v-1.2c0-0.7,0.1-1.4,1-1.4c0.9,0,1,0.7,1,1.4v0.8c0,0.5,0,0.9-0.3,1.3l-5.2,11.2
				c-0.4,1-0.7,1.1-1.6,1.1h-1.6c-0.6,0-1.4-0.1-1.4-1c0-0.9,0.7-1,1.4-1h1.4l1.5-3.1h-0.1c-0.9,0-0.9-0.4-1.2-1.1l-2.5-5.6
				c-0.3-0.6-0.5-1.1-0.5-1.7v-0.9c0-0.7,0.1-1.4,1-1.4c0.9,0,1,0.7,1,1.4v1.2l2.8,6h0.4L346,92.3z"/>
			<path fill="#738083" d="M369.8,93.5c0-1.4,0.3-1.8,1.3-2.7c1-0.8,1.5-1.2,2.9-1.2h1.6c1.4,0,1.9,0.3,2.9,1.2
				c1,0.8,1.3,1.3,1.3,2.7v3.9c0,1.3-0.3,1.9-1.4,2.8c-1.1,0.9-1.5,1.1-2.8,1.1H374c-1.3,0-1.7-0.2-2.8-1.1
				c-1.1-0.9-1.4-1.4-1.4-2.8L369.8,93.5L369.8,93.5z M371.9,97.4c0,0.4,0.1,0.7,0.7,1.2c0.4,0.4,0.8,0.6,1.4,0.6h1.6
				c0.6,0,1-0.2,1.4-0.6c0.6-0.5,0.7-0.8,0.7-1.2v-3.9c0-0.4-0.1-0.7-0.7-1.2c-0.4-0.4-0.8-0.6-1.4-0.6H374c-0.6,0-1,0.2-1.4,0.6
				c-0.6,0.5-0.7,0.8-0.7,1.2V97.4z"/>
			<path fill="#738083" d="M387.8,93.8v6c0,0.7-0.2,1.4-1,1.4s-1-0.7-1-1.4v-8.6c0-0.7,0.1-1.5,1-1.5c0.9,0,1,0.8,1,1.5v0.2v0
				l1.7-1.1c0.5-0.3,1.1-0.7,1.8-0.7h1.5c0.8,0,1.3,0.2,1.9,0.7c0.9,0.8,0.9,1.7,0.9,2.8l0.2,6.4c0,0.7-0.1,1.5-1,1.5
				c-0.8,0-1-0.7-1-1.4l-0.2-6.3c0-1.3-0.2-1.7-1.4-1.7h-0.7c-0.2,0-0.4,0.1-0.6,0.2L387.8,93.8z"/>
			<path fill="#738083" d="M421.7,97.3c0,1.2,0,1.8,1.4,1.8h1c0.8,0,1.2-0.1,1.4-0.9c0.1-0.5,0.5-0.8,1-0.8c0.6,0,1,0.4,1,1
				c0,0.6-0.4,1.3-0.7,1.7c-0.7,0.9-1.7,1-2.8,1h-1c-1,0-1.9-0.2-2.6-1c-0.8-0.9-0.7-1.8-0.7-2.9v-5.6h-0.7c-0.6,0-1.4-0.1-1.4-1
				c0-0.9,0.7-1,1.4-1h0.7v-2.1c0-0.7,0.1-1.4,1-1.4c0.9,0,1,0.7,1,1.4v2.1h3.4c0.7,0,1.4,0.1,1.4,1c0,0.9-0.8,1-1.4,1h-3.4V97.3
				L421.7,97.3z"/>
			<path fill="#738083" d="M437.6,97.3c0,1.2,0,1.8,1.4,1.8h1c0.8,0,1.2-0.1,1.4-0.9c0.1-0.5,0.5-0.8,1-0.8c0.6,0,1,0.4,1,1
				c0,0.6-0.4,1.3-0.7,1.7c-0.7,0.9-1.7,1-2.8,1h-1c-1,0-1.9-0.2-2.6-1c-0.8-0.9-0.7-1.8-0.7-2.9v-5.6h-0.7c-0.6,0-1.4-0.1-1.4-1
				c0-0.9,0.7-1,1.4-1h0.7v-2.1c0-0.7,0.1-1.4,1-1.4c0.9,0,1,0.7,1,1.4v2.1h3.4c0.7,0,1.4,0.1,1.4,1c0,0.9-0.8,1-1.4,1h-3.4V97.3
				L437.6,97.3z"/>
			<path fill="#738083" d="M457.3,92.3v-1.2c0-0.7,0.1-1.4,1-1.4c0.9,0,1,0.7,1,1.4v0.8c0,0.5,0,0.9-0.3,1.3l-5.2,11.2
				c-0.4,1-0.7,1.1-1.6,1.1h-1.6c-0.6,0-1.4-0.1-1.4-1c0-0.9,0.7-1,1.4-1h1.4l1.5-3.1h-0.1c-0.9,0-0.9-0.4-1.2-1.1l-2.5-5.6
				c-0.3-0.6-0.5-1.1-0.5-1.7v-0.9c0-0.7,0.1-1.4,1-1.4c0.9,0,1,0.7,1,1.4v1.2l2.8,6h0.4L457.3,92.3z"/>
			<path fill="#738083" d="M468.7,91.7c-0.4,0-1.2-0.1-1.2,0.6c0,0.3,0.3,0.5,0.6,0.6l5.1,2.3c1.3,0.6,2,1.4,2,2.9
				c0,2.1-1.4,3.1-3.4,3.1h-3.2c-1.1,0-1.8,0-2.6-0.6c-0.4-0.3-0.9-0.7-0.9-1.2c0-0.6,0.5-1,1.1-1c0.3,0,0.6,0.1,0.8,0.4
				c0.4,0.4,1,0.4,1.6,0.4h2.8c0.7,0,1.7,0.1,1.7-1.1c0-0.5-0.6-0.8-1.1-1l-4.8-2.2c-1.1-0.5-1.8-1.2-1.8-2.5c0-1.6,1.3-2.6,2.8-2.6
				h3.5c1.1,0,1.6,0.1,2.4,0.7c0.4,0.3,0.8,0.6,0.8,1.2c0,0.6-0.5,1-1,1c-0.4,0-0.6-0.1-0.9-0.4c-0.3-0.4-0.7-0.4-1.3-0.4
				L468.7,91.7L468.7,91.7L468.7,91.7z"/>
		</g>
		<path fill="#738083" d="M546.1,51.8H51.7V24.5c0-5.7,4.9-9.4,11.8-9.4h470.7c6.9,0,12,3.7,12,9.4L546.1,51.8L546.1,51.8z"/>
		<g>
			<circle fill="#E9F7FE" cx="65.3" cy="33.7" r="4.3"/>
			<circle fill="#E9F7FE" cx="79.3" cy="33.7" r="4.3"/>
			<circle fill="#E9F7FE" cx="93.4" cy="33.7" r="4.3"/>
		</g>
	</g>
	<path fill="#E5E5E5" d="M546.1,359.7c0,1.6-2.6,2.8-5.8,2.8H57.8c-3.2,0-5.8-1.3-5.8-2.8l0,0c0-1.6,2.6-2.8,5.8-2.8h482.6
		C543.6,356.9,546.1,358.2,546.1,359.7L546.1,359.7z"/>
</g>
</svg>
