<?xml version="1.0" encoding="utf-8"?>
<!-- Generator: Adobe Illustrator 17.1.0, SVG Export Plug-In . SVG Version: 6.00 Build 0)  -->
<!DOCTYPE svg PUBLIC "-//W3C//DTD SVG 1.1//EN" "http://www.w3.org/Graphics/SVG/1.1/DTD/svg11.dtd">
<svg version="1.1" id="Layer_1" xmlns="http://www.w3.org/2000/svg" xmlns:xlink="http://www.w3.org/1999/xlink" x="0px" y="0px"
	 viewBox="0 0 100 100" enable-background="new 0 0 100 100" xml:space="preserve">
<g>
	<path fill="#DADADA" d="M68.3,13.1H31.7c-1.7,0-3,1.3-3,3v6.7v45.9v15.9c0,1.2,1,2.2,2.2,2.2c0.6,0,1.1-0.2,1.5-0.6h0l16.1-16.1h0
		c0.4-0.4,0.9-0.7,1.5-0.7s1.1,0.3,1.5,0.7h0l15.9,15.9c0.4,0.5,1,0.8,1.7,0.8c1.2,0,2.2-1,2.2-2.2V68.8V22.9v-6.7
		C71.3,14.5,70,13.1,68.3,13.1z"/>
</g>
</svg>
