<?xml version="1.0" encoding="utf-8"?>
<!-- Generator: Adobe Illustrator 17.1.0, SVG Export Plug-In . SVG Version: 6.00 Build 0)  -->
<!DOCTYPE svg PUBLIC "-//W3C//DTD SVG 1.1//EN" "http://www.w3.org/Graphics/SVG/1.1/DTD/svg11.dtd">
<svg version="1.1" id="Layer_1" xmlns="http://www.w3.org/2000/svg" xmlns:xlink="http://www.w3.org/1999/xlink" x="0px" y="0px"
	 viewBox="0 0 100 100" enable-background="new 0 0 100 100" xml:space="preserve">
<g>
	<path fill="#DADADA" d="M82.5,74.3c0-0.1,0-0.2,0-0.3V47.1h0c0,0,0,0,0,0c0-1.4-1.1-2.5-2.5-2.5c0,0-0.1,0-0.1,0H75v0
		c-1.4,0-2.5,1.1-2.5,2.5h0v27.5h0c0.1,1.3,1.1,2.2,2.4,2.3v0h5l0,0l0,0l0,0l0,0C81.4,76.9,82.5,75.7,82.5,74.3z"/>
	<path fill="#DADADA" d="M67.5,78.6v-8.3l0,0V42.1l0,0c0,0,0,0,0,0c0-1.4-1.1-2.5-2.5-2.5c0,0-0.1,0-0.1,0h-9.9
		c-0.2-0.2-0.3-0.5-0.5-0.6l-9.9-17.1l0,0c-1-1.8-2.8-2.9-5-2.9c-3.2,0-5.7,2.6-5.7,5.8l0,0h-0.1v3.3V28v11.5H20v0
		c-1.4,0-2.5,1.1-2.5,2.5h0v28.2h0c0,0.3,0.1,0.6,0.4,0.9l0,0l9.8,9.8l0,0c0.3,0.2,0.6,0.3,1,0.3h36.1c0.1,0,0.1,0,0.2,0
		c1.4,0,2.5-1.1,2.5-2.4h0v-0.1C67.5,78.6,67.5,78.6,67.5,78.6C67.5,78.6,67.5,78.6,67.5,78.6z M20.5,70.2L20.5,70.2L20.5,70.2
		L20.5,70.2z"/>
</g>
</svg>
