<?xml version="1.0" encoding="utf-8"?>
<!-- Generator: Adobe Illustrator 17.1.0, SVG Export Plug-In . SVG Version: 6.00 Build 0)  -->
<!DOCTYPE svg PUBLIC "-//W3C//DTD SVG 1.1//EN" "http://www.w3.org/Graphics/SVG/1.1/DTD/svg11.dtd">
<svg version="1.1" id="Layer_1" xmlns="http://www.w3.org/2000/svg" xmlns:xlink="http://www.w3.org/1999/xlink" x="0px" y="0px"
	 viewBox="0 0 100 100" enable-background="new 0 0 100 100" xml:space="preserve">
<g>
	<path fill="#DADADA" d="M85.9,20.2H14.1c-1.4,0-2.6,1.1-2.6,2.6v5.1c0,0.2,0.3,0.5,0.5,0.6l37.8,21.6c0.1,0.1,0.2,0.1,0.3,0.1
		c0.1,0,0.2,0,0.3-0.1L87,28.5c0.2-0.1,0.8-0.4,1-0.6c0.2-0.2,0.5-0.3,0.5-0.6v-4.6C88.5,21.3,87.4,20.2,85.9,20.2z"/>
	<path fill="#DADADA" d="M88.2,35.6c-0.2-0.1-0.4-0.1-0.6,0L66.8,47.9c-0.2,0.1-0.3,0.3-0.3,0.5c0,0.2,0,0.4,0.2,0.5l20.7,22.4
		c0.1,0.1,0.3,0.2,0.5,0.2c0.1,0,0.2,0,0.2,0c0.2-0.1,0.4-0.3,0.4-0.6V36.2C88.5,36,88.4,35.8,88.2,35.6z"/>
	<path fill="#DADADA" d="M60.8,51.9c-0.2-0.2-0.5-0.3-0.8-0.1l-8.3,4.9c-1,0.6-2.2,0.6-3.2,0l-7.3-4.2c-0.2-0.1-0.5-0.1-0.8,0.1
		L12.7,78.4c-0.1,0.1-0.2,0.3-0.2,0.5c0,0.2,0.1,0.4,0.3,0.5c0.4,0.3,0.8,0.4,1.3,0.4h71.2c0.3,0,0.5-0.2,0.6-0.4
		c0.1-0.2,0.1-0.5-0.1-0.7L60.8,51.9z"/>
	<path fill="#DADADA" d="M34.3,49.6c0.2-0.1,0.2-0.3,0.2-0.5c0-0.2-0.1-0.4-0.3-0.5L12.5,36.1c-0.2-0.1-0.4-0.1-0.6,0
		c-0.2,0.1-0.3,0.3-0.3,0.6v32.6c0,0.3,0.1,0.5,0.4,0.6c0.1,0,0.2,0.1,0.3,0.1c0.2,0,0.3-0.1,0.4-0.2L34.3,49.6z"/>
</g>
</svg>
