<?xml version="1.0" encoding="utf-8"?>
<!-- Generator: Adobe Illustrator 17.0.0, SVG Export Plug-In . SVG Version: 6.00 Build 0)  -->
<!DOCTYPE svg PUBLIC "-//W3C//DTD SVG 1.1//EN" "http://www.w3.org/Graphics/SVG/1.1/DTD/svg11.dtd">
<svg version="1.1" id="Layer_1" xmlns="http://www.w3.org/2000/svg" xmlns:xlink="http://www.w3.org/1999/xlink" x="0px" y="0px"
	 viewBox="0 0 1264 736" enable-background="new 0 0 1264 736" xml:space="preserve">
<ellipse opacity="0.5" fill="#CCCCCC" enable-background="new    " cx="629.816" cy="651.467" rx="614.06" ry="58.533"/>
<path fill="#EAF6FD" d="M266.529,625.598c0,0-3.116-42.544,2.156-58.364c5.272-15.819-93.237-35.594-93.237-35.594
	s2.396,46.02,6.71,60.401"/>
<path fill="#A0D5E9" d="M127.029,381.596l-12.943,19.175l-8.15,3.835l6.712,2.397c0,0-25.407,30.681-28.284,48.896
	c0,0,8.63-4.314,12.464-5.274c0,0-11.985,21.092-11.985,32.597c0,0,7.671-4.795,11.026-4.314c0,0-11.985,12.464-18.217,15.341
	c0,0,7.191,0.959,10.067,0c0,0-14.381,16.779-12.943,51.294c0,0,4.795-5.274,8.15-6.712c0,0,3.835,36.432,60.401,56.087
	c0,0-6.231-15.819-6.231-24.448c0,0,11.025,4.228,23.489,4.708c0,0-8.389-14.178-7.431-21.178h10.789l-0.961-19.57
	c0,0-16.179-6.188-12.824-23.446c0,0-3.654-5.73-13.721-31.616C127.091,455.336,145.462,370.632,127.029,381.596z"/>
<path fill="#EAF6FD" d="M265.809,585.57c0.065-3.871-2.626-4.434-7.22-2.701c-8.744-6.063-22.759,1.605-22.759,1.605
	c-1.843,0.062-3.653,0.136-5.434,0.22c-5.43-0.511-23.606-2.045-34.775-0.875c0,0,2.757,1.917,3.782,3.809
	c-11.724,1.77-34.486,4.157-42.696,6.983c-6.417,1.781-20.377,5.799-26.666,8.744c0,0,3.417,0.308,4.647,1.425
	c-4.392,2.621-11.105,7.665-17.478,16.68c0,0,2.128-0.893,4.057-1.566c-4.993,8.606-5.671,12.951-5.265,19.749
	c-0.25,1.992-0.611,4.303-1.076,6.525c4.085-0.399,8.158-0.921,12.252-1.222c0.09,0.421,0.062,0.904,0.125,1.565l0.501,3.198
	l12.129-0.81l1.883-0.091l0.306,4.098c0,0,83.178-2.861,120.808-3.34c0,0,5.753,0.18,5.573-4.135
	C268.294,640.391,265.449,607.142,265.809,585.57z"/>
<path fill="#EAF6FD" d="M281.03,94.45c0,0-23.85,1.438-40.388,21.572l-5.004-20.853l-22.801,10.306c0,0-16.77-29.721-8.86-45.54
	c0,0-40.99-1.438-74.066,67.592c0,0-15.103-19.415-10.07-38.11c0,0-56.087,42.425-43.144,101.388c0,0-12.226-3.595-15.821-17.258
	c0,0-6.472,71.187,46.739,169.699c0,0-9.828-8.148-13.183-7.67c0,0,10.547,14.381,14.862,24.448c0,0-6.712-1.918-11.026-0.48
	c0,0,23.01,7.67,28.763,22.052c4.147,8.664,8.314,36.397,10.546,97.793c15.463,30.925,37.748,94.671,142.855,87.726L281.03,94.45z"
	/>
<ellipse transform="matrix(0.2052 0.9787 -0.9787 0.2052 491.3263 93.5627)" fill="#CDEAF5" cx="188.056" cy="349.293" rx="19.718" ry="15.58"/>
<ellipse transform="matrix(0.2052 0.9787 -0.9787 0.2052 525.9541 4.8967)" fill="#CDEAF5" cx="259.962" cy="326.281" rx="19.718" ry="15.58"/>
<ellipse transform="matrix(0.2052 0.9787 -0.9787 0.2052 520.6763 0.146)" fill="#FFFFFF" cx="260.248" cy="320.656" rx="19.414" ry="15.341"/>
<path fill="#4E4D50" d="M257.073,310.257c-0.022,0.492-0.001,0.996,0.105,1.51c0.562,2.678,2.76,4.479,4.91,4.028
	c1.913-0.402,3.136-2.447,2.991-4.774c1.565,1.352,2.774,3.359,3.275,5.751c1.041,4.955-1.348,9.648-5.331,10.484
	s-8.056-2.502-9.095-7.46C253.099,315.835,254.459,312.047,257.073,310.257z"/>
<ellipse transform="matrix(0.2052 0.9787 -0.9787 0.2052 486.0469 88.813)" fill="#FFFFFF" cx="188.341" cy="343.668" rx="19.414" ry="15.341"/>
<path fill="#4E4D50" d="M186.605,333.267c-0.022,0.492-0.001,0.996,0.105,1.51c0.562,2.678,2.76,4.479,4.91,4.028
	c1.913-0.402,3.136-2.447,2.991-4.774c1.565,1.352,2.774,3.359,3.275,5.751c1.041,4.955-1.348,9.648-5.331,10.484
	c-3.983,0.836-8.056-2.502-9.095-7.46C182.63,338.845,183.991,335.057,186.605,333.267z"/>
<path fill="#5B5A5C" d="M230.574,389.026c0,0,8.389-6.949,9.108-11.025c0,0,25.406-6.473,37.391-23.73
	C277.073,354.271,273.958,399.331,230.574,389.026z"/>
<path fill="#A0D5E9" d="M176.405,287.159c0,0-19.175,0.959-20.613,19.175c0,0-8.15-12.943,3.355-21.092
	S176.405,287.159,176.405,287.159z"/>
<path fill="#A0D5E9" d="M158.668,267.984c0,0-17.736,0.959-17.258,17.258c0,0-8.15-10.068,0.479-18.217
	C150.518,258.876,158.668,267.984,158.668,267.984z"/>
<path fill="#CDEAF5" d="M268.505,567.774c0,0-56.626-6.64-92.579-40.436l9.348,1.892c0,0-23.729-21.229-35.953-59.229h6.472
	c0,0-4.784-23.708-14.808-50.628c-0.07-2.343-0.052-3.691-0.052-3.691c-4.917-13.214-14.202-44.184-17.367-61.339
	c-2.969-28.384-16.536-53.53-17.176-61.585c3.194-9.337,11.533-27.164,11.533-27.164c-3.357,0.959-13.901,6.708-13.901,6.708
	c-4.314-32.118,18.215-65.196,18.215-65.196c-13.902-1.438-31.639,11.025-31.639,11.025c-6.233-44.582,16.3-82.932,16.3-82.932
	c-0.958,16.299,22.051,38.829,22.051,38.829c16.364-73.207,63.28-100.762,72.653-105.61c0.309-2.935,1.039-5.812,2.375-8.482
	c0,0-40.99-1.438-74.066,67.592c0,0-15.103-19.415-10.07-38.11c0,0-27.365,20.707-39.453,53.288
	c-4.255-4.455-8.005-17.095-8.005-17.095c-7.191,24.448,3.834,64.237,3.834,64.237s0.053-0.267,0.142-0.714
	c0.111,0.557,0.215,1.112,0.339,1.673c0,0-12.226-3.595-15.821-17.258c0,0-6.472,71.187,46.739,169.699c0,0-9.828-8.148-13.183-7.67
	c0,0,10.547,14.381,14.862,24.448c0,0-6.712-1.918-11.026-0.48c0,0,15.079,6.246,21.137,17.996c0.028,0.08,0.046,0.138,0.076,0.22
	c4.314,12.224,7.55,24.448,7.55,24.448l-5.753,14.381l4.674,1.438c0.719,2.876,3.236,31.639,3.236,31.639s0.187-1.157,0.449-2.939
	c0.326,2.465,0.705,5.043,1.149,7.72c-1.698-0.41-3.973-0.932-4.702-0.983c-1.424-0.411-2.636-0.678-3.334-0.562
	c0,0,0.577,3.222,5.053,9.361c0.08,0.574,0.25,1.138,0.455,1.691c2.907,13.841,7.556,29.369,14.968,44.354
	c1.633,5.366,1.83,13.836,2.861,16.501l3.234-4.314c2.021,3.036,1.438,2.278,2.636,5.633l4.914,11.984l0.702-6.667
	c5.42,7.002,11.703,13.548,18.977,19.35c1.239,1.014,2.522,1.982,3.841,2.917c0.43,0.312,0.851,0.63,1.288,0.938
	c0,0-0.035-0.045-0.077-0.1c0.962,0.649,1.958,1.267,2.972,1.872c8.23,10.613,14.137,19.082,14.363,23.035
	c0,0,13.662,13.482,18.696,18.516l5.033-10.157c0,0,21.572,24.403,43.863,25.122C266.528,612.94,264.73,588.447,268.505,567.774z
	 M105.398,298.167c-0.041-0.635-0.08-1.239-0.115-1.793c0.107-0.392,0.176-0.587,0.176-0.587c0.021-0.085,0.049-0.182,0.073-0.271
	C105.478,296.342,105.435,297.229,105.398,298.167z"/>
<path fill="#BFE5F3" d="M130.63,366.514c-0.053-0.479-0.105-0.955-0.157-1.433l0.413,2.912
	C130.8,367.498,130.714,367.004,130.63,366.514z"/>
<path fill="#5B5A5C" d="M307.729,323.363c0,0-1.402-14.73-3.098-26.03c6.554-0.81,13.439-0.959,13.439-0.959l-0.868-8.105
	c-6.811-0.991-14.223-0.03-14.223-0.03c-6.981,0.773-19.003,2.723-32.9,7.122c-18.079,5.729-33.116,12.377-42.099,16.347
	c-2.681,1.185-4.789,2.115-6.408,2.777l-1.767,0.729c-3.177,1.31-4.609,1.903-6.391,2.193c-0.032,0.103-0.079,0.2-0.112,0.302
	c-0.97,0.263-2.136,0.525-3.722,0.88l-1.867,0.418c-1.705,0.388-3.965,0.836-6.841,1.405c-9.634,1.908-25.761,5.099-43.853,10.788
	c-13.904,4.377-24.867,9.684-31.025,13.058c0,0-6.62,3.468-11.629,8.192l3.942,7.134c0,0,5.723-3.83,11.554-6.931
	c5.099,10.227,12.408,23.092,12.408,23.092l0.194,0.409c0.424,0.626,0.83,1.239,1.271,1.906c3.267,4.914,5.698,7.611,11.45,7.632
	c5.653,0.027,18.026-2.602,30.081-6.392c4.484-1.41,9.376-3.538,14.152-6.147c7.081-3.882,13.105-8.417,14.982-11.291
	c2.729-4.182,2.139-11.934,1.75-17.065l-0.108-1.513c-0.119-1.753-0.326-3.566-0.528-5.324c-0.291-2.523-0.591-5.126-0.395-6.137
	c0.037-0.178,0.275-0.834,1.829-1.688c0.728-0.395,1.629-0.767,2.668-1.115c0.27-0.047,0.535-0.091,0.782-0.12
	c1.764-0.193,2.336,0.208,2.468,0.332c0.74,0.714,1.987,3.019,3.199,5.25c0.844,1.557,1.715,3.16,2.625,4.662l0.781,1.302
	c2.625,4.425,6.595,11.11,11.231,12.967c3.187,1.276,10.721,1.53,18.749,0.643c5.408-0.606,10.636-1.673,15.116-3.093
	c12.046-3.819,23.686-8.773,28.299-12.038c4.698-3.322,5.139-6.925,4.993-12.824c-0.021-0.798-0.041-1.533-0.053-2.29
	L307.729,323.363z M209.217,353.854c-1.017,5.028-1.536,6.382-8.924,10.648c-0.316,0.181-0.646,0.367-0.996,0.555
	c-8.043,4.407-23.49,10.401-32.799,11.96l-0.645,0.111c-9.504,1.582-12.888,2.007-14.831-0.41
	c-2.623-3.269-11.408-19.609-12.957-23.237c-1.176-2.755,0.983-5.017,1.628-5.473c0.402-0.284,1.077-0.685,1.999-1.191
	c5.886-3.223,19.163-9.181,25.691-11.285c8.267-2.659,29.154-7.237,34.372-6.894c3.878,0.251,4.208,1.603,4.854,4.307l0.031,0.131
	C207.253,335.636,210.261,348.651,209.217,353.854z M301.124,329.187c-0.204,3.094-3.219,4.69-11.908,8.851l-0.593,0.28
	c-8.515,4.068-24.604,8.029-33.72,9.04c-0.393,0.046-0.772,0.083-1.133,0.117c-8.498,0.748-9.7-0.062-13.421-3.596
	c-3.842-3.661-8.851-16.043-9.82-18.49l-0.049-0.125c-1.024-2.586-1.531-3.881,1.501-6.314c4.074-3.277,23.805-11.52,32.099-14.09
	c6.553-2.026,20.843-4.772,27.514-5.512c1.043-0.115,1.827-0.173,2.319-0.173c0.791,0.003,3.858,0.616,4.474,3.547
	C299.204,306.582,301.394,325.004,301.124,329.187z"/>
<path fill="#A0D5E9" d="M242.079,290.035c0,0,10.067-5.753,17.258-1.079c0,0,0.719-7.91-8.629-7.191
	C241.36,282.485,242.079,290.035,242.079,290.035z"/>
<path fill="#A0D5E9" d="M239.563,273.137c0,0,11.505-8.629,20.493-1.438c0,0,0.36-6.831-8.988-7.191
	C241.72,264.149,239.563,273.137,239.563,273.137z"/>
<path fill="#B1DFF0" d="M213.797,413.235c0,0,10.307,4.793,14.86,5.512c0,0,6.95-9.106,11.984-11.744c0,0,5.033,11.025,12.224,14.86
	c0,0,7.911-14.141,18.936-18.696c0,0,5.033,5.274,10.546,5.993l-0.24,10.306c0,0-7.67-2.876-10.546-5.512
	c0,0-12.704,17.498-11.026,24.448c0,0-16.058-7.671-23.249-15.341c0,0-7.191,5.275-8.869,7.671
	C228.417,430.733,218.352,422.343,213.797,413.235z"/>
<path fill="#84C0CE" d="M116.962,503.238c0,0,16.898,33.796,16.179,49.256c0,0-16.898-0.36-31.639-12.584
	c0,0,22.651,22.291,43.144,19.415C144.646,559.325,140.691,526.248,116.962,503.238z"/>
<path fill="#5B5A5C" d="M78.376,225.756c-1.222,0.61-5.213,2.374-5.213,2.374c-35.492,17.61-74.021,0.36-74.021,0.36
	s6.708,23.094,30.563,35.922c23.861,12.827,57.404,2.883,57.404,2.883c2.911,4.097,4.809,15.133,4.809,15.133
	s5.12-14.285-0.617-34.99C87.284,232.929,79.133,225.378,78.376,225.756"/>
<path fill="#737F83" d="M78.376,225.756c-1.182,0.57-5.213,2.374-5.213,2.374c-35.492,17.61-74.021,0.36-74.021,0.36
	s36.602,41.435,90.783,14.643C89.924,243.133,87.783,233.56,78.376,225.756"/>
<path fill="#CDEAF5" d="M139.934,648.9l-3.689,0.247c-2.983-41.766,35.557-41.352,35.557-41.352
	c-34.481,10.549-29.984,41.013-29.984,41.013L139.934,648.9z"/>
<path fill="#CDEAF5" d="M201.813,593.959c-2.396-8.629-3.835-31.639-3.835-31.639l-21.814-13.182
	c0,13.482,4.974,40.926,4.974,40.926c-14.741,0.719-52.492,13.303-52.492,13.303c2.337-0.359,6.042,1.414,6.042,1.414
	c-8.699,3.751-18.805,17.641-18.805,17.641c1.258-0.719,5.384-2.526,5.384-2.526c-3.783,3.585-6.104,16.189-6.104,19.065
	s-1.618,7.91-1.618,7.91l8.117-1.409c1.801-0.19,3.604-0.371,5.409-0.504c-0.482-4.039-2.656-27.374,26.136-40.766
	c0,0-0.228,0.073-0.608,0.208C169.499,595.885,201.813,593.959,201.813,593.959z"/>
<path fill="#AADAE2" d="M268.505,567.774c0,0-43.683-4.494-84.67-33.257c0,0,28.792,28.587,51.773,35.953s30.56,34.335,30.56,34.335
	S265.988,580.717,268.505,567.774z"/>
<g>
	<rect x="263.137" y="33.41" fill="#333333" width="833.358" height="39.18"/>
	<rect x="263.137" y="72.59" fill="#074E68" width="833.358" height="116.616"/>
	<rect x="263.137" y="189.206" fill="#FFFFFF" width="833.358" height="481.027"/>
	<g>
		<rect x="303.323" y="233.298" fill="#F2F2F2" width="158.226" height="110.005"/>
		<rect x="303.579" y="315.083" fill="#E6E6E6" width="158.226" height="28.22"/>
	</g>
	<g>
		<rect x="495.202" y="233.298" fill="#074E68" width="105.484" height="15.627"/>
		<rect x="495.202" y="265.262" fill="#E6E6E6" width="308.918" height="14.11"/>
	</g>
	<g>
		<rect x="303.579" y="384.607" fill="#F2F2F2" width="158.226" height="110.005"/>
		<rect x="303.834" y="466.392" fill="#E6E6E6" width="158.226" height="28.22"/>
	</g>
	<g>
		<rect x="303.834" y="525.745" fill="#F2F2F2" width="158.226" height="110.005"/>
		<rect x="304.089" y="607.53" fill="#E6E6E6" width="158.226" height="28.22"/>
	</g>
	<g>
		<rect x="880.961" y="240.159" fill="#E6E6E6" width="154.459" height="6.004"/>
		<rect x="880.961" y="256.989" fill="#E6E6E6" width="125.177" height="6.004"/>
		<rect x="881.965" y="273.819" fill="#E6E6E6" width="154.459" height="6.004"/>
		<rect x="881.965" y="290.649" fill="#E6E6E6" width="154.459" height="6.004"/>
		<rect x="881.965" y="307.48" fill="#E6E6E6" width="124.173" height="6.004"/>
		<rect x="881.965" y="324.31" fill="#E6E6E6" width="154.459" height="6.004"/>
		<rect x="882.97" y="341.14" fill="#E6E6E6" width="154.459" height="6.004"/>
		<rect x="882.97" y="357.97" fill="#E6E6E6" width="103.578" height="6.004"/>
	</g>
	<g>
		<rect x="495.202" y="384.607" fill="#074E68" width="141.531" height="15.627"/>
		<rect x="495.202" y="416.571" fill="#E6E6E6" width="270.127" height="14.11"/>
	</g>
	<g>
		<rect x="495.202" y="525.745" fill="#074E68" width="81.251" height="15.627"/>
		<rect x="495.202" y="557.709" fill="#E6E6E6" width="219.894" height="14.11"/>
	</g>
	<g>
		<g>
			<path fill="#FFFFFF" d="M306.764,148.265v-27.042H325.9v5.068h-13.379v5.676h13.096v5.068h-13.096v11.231L306.764,148.265
				L306.764,148.265z"/>
			<path fill="#FFFFFF" d="M328.539,138.453c0-5.554,3.892-10.257,10.339-10.257c6.487,0,10.379,4.703,10.379,10.257
				s-3.892,10.298-10.379,10.298C332.431,148.751,328.539,144.008,328.539,138.453z M343.905,138.453
				c0-3.041-1.784-5.676-5.027-5.676c-3.203,0-4.987,2.635-4.987,5.676c0,3.081,1.784,5.716,4.987,5.716
				C342.121,144.17,343.905,141.535,343.905,138.453z"/>
			<path fill="#FFFFFF" d="M366.328,148.265v-2.473c-1.338,1.46-3.689,2.96-6.892,2.96c-4.298,0-6.325-2.351-6.325-6.163v-13.906
				h5.149v11.879c0,2.717,1.419,3.608,3.609,3.608c1.986,0,3.568-1.094,4.459-2.23v-13.257h5.149v19.582H366.328z"/>
			<path fill="#FFFFFF" d="M389.806,148.265v-11.839c0-2.716-1.419-3.649-3.608-3.649c-2.027,0-3.568,1.135-4.46,2.27v13.217h-5.149
				v-19.582h5.149v2.513c1.257-1.46,3.689-3,6.852-3c4.338,0,6.405,2.433,6.405,6.243v13.825h-5.189V148.265z"/>
			<path fill="#FFFFFF" d="M413.527,148.265v-2.514c-1.54,1.946-3.648,3-6.041,3c-4.905,0-8.676-3.73-8.676-10.298
				c0-6.365,3.689-10.257,8.676-10.257c2.311,0,4.5,0.973,6.041,3v-9.973h5.19v27.042H413.527z M413.527,141.94v-6.933
				c-0.851-1.297-2.716-2.23-4.419-2.23c-2.959,0-4.987,2.311-4.987,5.676c0,3.406,2.028,5.716,4.987,5.716
				C410.81,144.17,412.675,143.237,413.527,141.94z"/>
			<path fill="#FFFFFF" d="M435.586,148.265v-2.067c-1.338,1.622-3.648,2.554-6.203,2.554c-3.122,0-6.771-2.108-6.771-6.487
				c0-4.622,3.649-6.325,6.771-6.325c2.635,0,4.905,0.852,6.203,2.392v-2.473c0-1.986-1.702-3.284-4.297-3.284
				c-2.068,0-4.014,0.811-5.636,2.311l-2.027-3.608c2.392-2.149,5.473-3.081,8.554-3.081c4.5,0,8.595,1.784,8.595,7.419v12.649
				L435.586,148.265L435.586,148.265z M435.586,143.562v-2.433c-0.851-1.135-2.473-1.743-4.135-1.743
				c-2.028,0-3.69,1.094-3.69,2.959s1.662,2.919,3.69,2.919C433.113,145.265,434.734,144.697,435.586,143.562z"/>
			<path fill="#FFFFFF" d="M446.9,143.359v-10.176h-3.243v-4.5h3.243v-5.352h5.149v5.352h3.973v4.5h-3.973v8.798
				c0,1.257,0.649,2.189,1.784,2.189c0.771,0,1.5-0.284,1.784-0.608l1.095,3.933c-0.771,0.689-2.149,1.257-4.298,1.257
				C448.806,148.751,446.9,146.886,446.9,143.359z"/>
			<path fill="#FFFFFF" d="M459.065,123.493c0-1.703,1.379-3.041,3.041-3.041c1.703,0,3.081,1.338,3.081,3.041
				c0,1.702-1.378,3.081-3.081,3.081C460.444,126.575,459.065,125.196,459.065,123.493z M459.552,148.265v-19.582h5.149v19.582
				H459.552z"/>
			<path fill="#FFFFFF" d="M468.553,138.453c0-5.554,3.892-10.257,10.338-10.257c6.487,0,10.379,4.703,10.379,10.257
				s-3.892,10.298-10.379,10.298C472.446,148.751,468.553,144.008,468.553,138.453z M483.919,138.453
				c0-3.041-1.784-5.676-5.027-5.676c-3.203,0-4.987,2.635-4.987,5.676c0,3.081,1.784,5.716,4.987,5.716
				C482.135,144.17,483.919,141.535,483.919,138.453z"/>
			<path fill="#FFFFFF" d="M506.343,148.265v-11.839c0-2.716-1.419-3.649-3.609-3.649c-2.027,0-3.568,1.135-4.46,2.27v13.217h-5.149
				v-19.582h5.149v2.513c1.257-1.46,3.69-3,6.852-3c4.338,0,6.406,2.433,6.406,6.243v13.825h-5.189V148.265z"/>
			<path fill="#FFFFFF" d="M527.145,148.265v-27.042h19.136v5.068h-13.379v5.676h13.096v5.068h-13.096v11.231L527.145,148.265
				L527.145,148.265z"/>
			<path fill="#FFFFFF" d="M548.92,138.453c0-5.554,3.892-10.257,10.339-10.257c6.487,0,10.379,4.703,10.379,10.257
				s-3.892,10.298-10.379,10.298C552.812,148.751,548.92,144.008,548.92,138.453z M564.286,138.453c0-3.041-1.784-5.676-5.027-5.676
				c-3.203,0-4.987,2.635-4.987,5.676c0,3.081,1.784,5.716,4.987,5.716C562.503,144.17,564.286,141.535,564.286,138.453z"/>
			<path fill="#FFFFFF" d="M573.493,148.265v-19.582h5.149v2.635c1.419-1.703,3.811-3.122,6.244-3.122v5.027
				c-0.365-0.082-0.811-0.122-1.419-0.122c-1.702,0-3.973,0.973-4.824,2.23v12.933h-5.15V148.265z"/>
			<path fill="#FFFFFF" d="M601.307,148.265v-2.473c-1.338,1.46-3.689,2.96-6.892,2.96c-4.298,0-6.325-2.351-6.325-6.163v-13.906
				h5.149v11.879c0,2.717,1.419,3.608,3.609,3.608c1.986,0,3.568-1.094,4.459-2.23v-13.257h5.149v19.582H601.307z"/>
			<path fill="#FFFFFF" d="M635.853,148.265v-12.366c0-1.824-0.811-3.122-2.919-3.122c-1.824,0-3.325,1.216-4.054,2.27v13.217h-5.19
				v-12.366c0-1.824-0.811-3.122-2.919-3.122c-1.784,0-3.284,1.216-4.054,2.27v13.217h-5.149v-19.582h5.149v2.513
				c0.851-1.135,3.406-3,6.406-3c2.878,0,4.744,1.338,5.433,3.527c1.135-1.743,3.73-3.527,6.73-3.527
				c3.609,0,5.757,1.905,5.757,5.919v14.15h-5.19V148.265z"/>
		</g>
		<g>
			<rect x="789.206" y="119.055" fill="#08303A" width="62.589" height="25.231"/>
			<rect x="804.853" y="128.669" fill="#E6E6E6" width="31.294" height="6.004"/>
		</g>
		<rect x="869.737" y="127.544" fill="#E6E6E6" width="31.294" height="6.004"/>
		<rect x="934.057" y="127.544" fill="#E6E6E6" width="31.294" height="6.004"/>
		<rect x="998.377" y="127.544" fill="#E6E6E6" width="31.294" height="6.004"/>
	</g>
</g>
<g>
	<path fill="#CDEAF5" d="M264.705,153.709c0,0-28.284,22.53-16.779,38.829s-11.505,37.392,0,49.376
		c11.505,11.984-2.878,42.663,24.927,65.195c0,0,19.176-21.092,23.49-40.746l-8.629-0.959c0,0,29.243-11.025,48.896-32.118
		c0,0-23.489-5.274-43.144-5.274c0,0,30.678-15.819,45.54-13.422c0,0-4.314-18.217-23.489-22.531c0,0,18.694-21.571-8.15-30.68
		S270.458,149.875,264.705,153.709z"/>
	<path fill="#EAF6FD" d="M274.772,143.642c0,0-28.284,22.53-16.779,38.829s-11.505,37.392,0,49.376s-2.878,42.663,24.927,65.195
		c0,0,19.176-21.092,23.49-40.746l-8.629-0.959c0,0,29.243-11.025,48.896-32.118c0,0-23.489-5.274-43.144-5.274
		c0,0,30.678-15.819,45.54-13.422c0,0-4.314-18.217-23.489-22.531c0,0,18.694-21.571-8.15-30.68S280.525,139.808,274.772,143.642z"
		/>
	<path fill="#CDEAF5" d="M345.363,217.512c0,0-23.49-16.06-59.444,14.141c0,0,6.595-1.079,13.904-0.719
		C299.824,230.934,333.26,214.876,345.363,217.512z"/>
	<path fill="#CDEAF5" d="M321.874,194.981c0,0-20.854-2.876-32-0.36c0,0,12.584-16.538,36.672-7.191
		C326.547,187.43,324.393,193.183,321.874,194.981z"/>
	<path fill="#CDEAF5" d="M342.967,236.207c0,0-51.655,22.051-63.16,32.118c0,0,5.635-0.959,14.263,0
		C294.071,268.325,329.547,254.424,342.967,236.207z"/>
	<path fill="#CDEAF5" d="M301.02,274.437c0,0-17.617,22.651-28.403,29.482c0,0,3.118,4.674,6.592,6.112
		C279.21,310.031,297.784,288.279,301.02,274.437z"/>
</g>
</svg>
