<?xml version="1.0" encoding="utf-8"?>
<!-- Generator: Adobe Illustrator 17.1.0, SVG Export Plug-In . SVG Version: 6.00 Build 0)  -->
<!DOCTYPE svg PUBLIC "-//W3C//DTD SVG 1.1//EN" "http://www.w3.org/Graphics/SVG/1.1/DTD/svg11.dtd">
<svg version="1.1" id="Layer_1" xmlns="http://www.w3.org/2000/svg" xmlns:xlink="http://www.w3.org/1999/xlink" x="0px" y="0px"
	 viewBox="733 0 253 253" enable-background="new 733 0 253 253" xml:space="preserve">
<g>
	<line fill="none" stroke="#FFFFFF" stroke-miterlimit="10" x1="544.1" y1="325.3" x2="544.1" y2="212.8"/>
	<polygon fill="#FFFFFF" points="544.1,326.7 541.2,323.8 547,323.8 	"/>
	<polygon fill="#FFFFFF" points="544.1,211.4 547,214.3 541.2,214.3 	"/>
</g>
<g>
	<circle fill="#074E68" cx="859.7" cy="126.6" r="126"/>
	<g opacity="0.5" enable-background="new    ">
		<g>
			<g>
				<defs>
					<circle id="SVGID_1_" cx="859.3" cy="126.4" r="126"/>
				</defs>
				<clipPath id="SVGID_2_">
					<use xlink:href="#SVGID_1_"  overflow="visible"/>
				</clipPath>
				<g clip-path="url(#SVGID_2_)">
					<g>
						<line fill="none" stroke="#FFFFFF" stroke-width="0.5" stroke-miterlimit="10" x1="953.5" y1="344.9" x2="953.5" y2="-77.6"/>
						<line fill="none" stroke="#FFFFFF" stroke-width="0.5" stroke-miterlimit="10" x1="936.4" y1="344.9" x2="936.4" y2="-77.6"/>
						<line fill="none" stroke="#FFFFFF" stroke-width="0.5" stroke-miterlimit="10" x1="970.6" y1="344.5" x2="970.6" y2="-78"/>
						<line fill="none" stroke="#FFFFFF" stroke-width="0.5" stroke-miterlimit="10" x1="987.7" y1="344.9" x2="987.7" y2="-77.6"/>
						<line fill="none" stroke="#FFFFFF" stroke-width="0.5" stroke-miterlimit="10" x1="885.1" y1="344.9" x2="885.1" y2="-77.6"/>
						<line fill="none" stroke="#FFFFFF" stroke-width="0.5" stroke-miterlimit="10" x1="868" y1="344.9" x2="868" y2="-77.6"/>
						<line fill="none" stroke="#FFFFFF" stroke-width="0.5" stroke-miterlimit="10" x1="902.2" y1="344.5" x2="902.2" y2="-78"/>
						<line fill="none" stroke="#FFFFFF" stroke-width="0.5" stroke-miterlimit="10" x1="919.3" y1="344.9" x2="919.3" y2="-77.6"/>
						<line fill="none" stroke="#FFFFFF" stroke-width="0.5" stroke-miterlimit="10" x1="817.1" y1="345.2" x2="817.1" y2="-77.4"/>
						<line fill="none" stroke="#FFFFFF" stroke-width="0.5" stroke-miterlimit="10" x1="800" y1="345.2" x2="800" y2="-77.4"/>
						<line fill="none" stroke="#FFFFFF" stroke-width="0.5" stroke-miterlimit="10" x1="834.2" y1="344.7" x2="834.2" y2="-77.8"/>
						<line fill="none" stroke="#FFFFFF" stroke-width="0.5" stroke-miterlimit="10" x1="851.3" y1="345.2" x2="851.3" y2="-77.4"/>
						<line fill="none" stroke="#FFFFFF" stroke-width="0.5" stroke-miterlimit="10" x1="748.8" y1="345.2" x2="748.8" y2="-77.4"/>
						<line fill="none" stroke="#FFFFFF" stroke-width="0.5" stroke-miterlimit="10" x1="731.7" y1="345.2" x2="731.7" y2="-77.4"/>
						<line fill="none" stroke="#FFFFFF" stroke-width="0.5" stroke-miterlimit="10" x1="765.9" y1="344.7" x2="765.9" y2="-77.8"/>
						<line fill="none" stroke="#FFFFFF" stroke-width="0.5" stroke-miterlimit="10" x1="782.9" y1="345.2" x2="782.9" y2="-77.4"/>
					</g>
					<g>
						
							<line fill="none" stroke="#FFFFFF" stroke-width="0.5" stroke-miterlimit="10" x1="656.7" y1="220.1" x2="1079.2" y2="220.1"/>
						<line fill="none" stroke="#FFFFFF" stroke-width="0.5" stroke-miterlimit="10" x1="656.7" y1="203" x2="1079.2" y2="203"/>
						
							<line fill="none" stroke="#FFFFFF" stroke-width="0.5" stroke-miterlimit="10" x1="657.1" y1="237.2" x2="1079.6" y2="237.2"/>
						
							<line fill="none" stroke="#FFFFFF" stroke-width="0.5" stroke-miterlimit="10" x1="656.7" y1="254.3" x2="1079.2" y2="254.3"/>
						
							<line fill="none" stroke="#FFFFFF" stroke-width="0.5" stroke-miterlimit="10" x1="656.7" y1="151.7" x2="1079.2" y2="151.7"/>
						
							<line fill="none" stroke="#FFFFFF" stroke-width="0.5" stroke-miterlimit="10" x1="656.7" y1="134.6" x2="1079.2" y2="134.6"/>
						
							<line fill="none" stroke="#FFFFFF" stroke-width="0.5" stroke-miterlimit="10" x1="657.1" y1="168.8" x2="1079.6" y2="168.8"/>
						
							<line fill="none" stroke="#FFFFFF" stroke-width="0.5" stroke-miterlimit="10" x1="656.7" y1="185.9" x2="1079.2" y2="185.9"/>
						<line fill="none" stroke="#FFFFFF" stroke-width="0.5" stroke-miterlimit="10" x1="656.4" y1="83.7" x2="1079" y2="83.7"/>
						<line fill="none" stroke="#FFFFFF" stroke-width="0.5" stroke-miterlimit="10" x1="656.4" y1="66.6" x2="1079" y2="66.6"/>
						
							<line fill="none" stroke="#FFFFFF" stroke-width="0.5" stroke-miterlimit="10" x1="656.9" y1="100.8" x2="1079.4" y2="100.8"/>
						<line fill="none" stroke="#FFFFFF" stroke-width="0.5" stroke-miterlimit="10" x1="656.4" y1="117.9" x2="1079" y2="117.9"/>
						<line fill="none" stroke="#FFFFFF" stroke-width="0.5" stroke-miterlimit="10" x1="656.4" y1="15.3" x2="1079" y2="15.3"/>
						<line fill="none" stroke="#FFFFFF" stroke-width="0.5" stroke-miterlimit="10" x1="656.4" y1="-1.7" x2="1079" y2="-1.7"/>
						<line fill="none" stroke="#FFFFFF" stroke-width="0.5" stroke-miterlimit="10" x1="656.9" y1="32.4" x2="1079.4" y2="32.4"/>
						<line fill="none" stroke="#FFFFFF" stroke-width="0.5" stroke-miterlimit="10" x1="656.4" y1="49.5" x2="1079" y2="49.5"/>
					</g>
				</g>
			</g>
		</g>
	</g>
</g>
<g>
	<path fill="none" stroke="#FFFFFF" stroke-width="3" stroke-miterlimit="10" d="M922.8,121l-57-57c-3.3-3.3-8.6-3.3-11.9,0
		L842,75.9l15,15c3.4-1.1,7.5-0.4,10.3,2.4c2.9,2.9,3.6,6.9,2.4,10.3l14.5,14.5c3.4-1.1,7.6-0.4,10.3,2.4c3.9,3.9,3.9,10.2,0,14.2
		c-3.9,3.9-10.2,3.9-14.2,0c-3-3-3.7-7.3-2.1-10.9l-13.5-13.8v35.5c1,0.4,1.9,1.1,2.6,1.9c3.9,3.9,3.9,10.2,0,14.2
		c-3.9,3.9-10.3,3.9-14.2,0s-3.9-10.3,0-14.2c1-1,2.1-1.7,3.3-2.1v-35.8c-1.1-0.4-2.3-1.1-3.3-2.1c-3-3-3.7-7.3-2.1-10.9l-14.8-14.9
		l-39.1,39.1c-3.3,3.3-3.3,8.6,0,11.9l57,57c3.3,3.3,8.6,3.3,11.9,0l56.7-56.7C926.1,129.6,926.1,124.3,922.8,121z"/>
</g>
<g>
	<line fill="none" stroke="#FFFFFF" stroke-miterlimit="10" x1="795.7" y1="203" x2="923.2" y2="203"/>
	<polygon fill="#FFFFFF" points="794.3,203 797.2,200.1 797.2,205.9 	"/>
	<polygon fill="#FFFFFF" points="924.6,203 921.7,205.9 921.7,200.1 	"/>
</g>
</svg>
