<?xml version="1.0" encoding="utf-8"?>
<!-- Generator: Adobe Illustrator 17.1.0, SVG Export Plug-In . SVG Version: 6.00 Build 0)  -->
<!DOCTYPE svg PUBLIC "-//W3C//DTD SVG 1.1//EN" "http://www.w3.org/Graphics/SVG/1.1/DTD/svg11.dtd">
<svg version="1.1" id="Layer_1" xmlns="http://www.w3.org/2000/svg" xmlns:xlink="http://www.w3.org/1999/xlink" x="0px" y="0px"
	 viewBox="948.6 0.3 252.4 252.3" enable-background="new 948.6 0.3 252.4 252.3" xml:space="preserve">
<g>
	<circle fill="#074E68" cx="1074.8" cy="126.6" r="126"/>
	<g opacity="0.5" enable-background="new    ">
		<g>
			<g>
				<defs>
					<circle id="SVGID_1_" cx="1074.4" cy="126.3" r="126"/>
				</defs>
				<clipPath id="SVGID_2_">
					<use xlink:href="#SVGID_1_"  overflow="visible"/>
				</clipPath>
				<g clip-path="url(#SVGID_2_)">
					<g>
						
							<line fill="none" stroke="#FFFFFF" stroke-width="0.5" stroke-miterlimit="10" x1="1168.6" y1="344.9" x2="1168.6" y2="-77.7"/>
						
							<line fill="none" stroke="#FFFFFF" stroke-width="0.5" stroke-miterlimit="10" x1="1151.6" y1="344.9" x2="1151.6" y2="-77.7"/>
						
							<line fill="none" stroke="#FFFFFF" stroke-width="0.5" stroke-miterlimit="10" x1="1185.7" y1="344.5" x2="1185.7" y2="-78.1"/>
						
							<line fill="none" stroke="#FFFFFF" stroke-width="0.5" stroke-miterlimit="10" x1="1202.8" y1="344.9" x2="1202.8" y2="-77.7"/>
						
							<line fill="none" stroke="#FFFFFF" stroke-width="0.5" stroke-miterlimit="10" x1="1100.3" y1="344.9" x2="1100.3" y2="-77.7"/>
						
							<line fill="none" stroke="#FFFFFF" stroke-width="0.5" stroke-miterlimit="10" x1="1083.2" y1="344.9" x2="1083.2" y2="-77.7"/>
						
							<line fill="none" stroke="#FFFFFF" stroke-width="0.5" stroke-miterlimit="10" x1="1117.4" y1="344.5" x2="1117.4" y2="-78.1"/>
						
							<line fill="none" stroke="#FFFFFF" stroke-width="0.5" stroke-miterlimit="10" x1="1134.5" y1="344.9" x2="1134.5" y2="-77.7"/>
						
							<line fill="none" stroke="#FFFFFF" stroke-width="0.5" stroke-miterlimit="10" x1="1032.3" y1="345.1" x2="1032.3" y2="-77.4"/>
						
							<line fill="none" stroke="#FFFFFF" stroke-width="0.5" stroke-miterlimit="10" x1="1015.2" y1="345.1" x2="1015.2" y2="-77.4"/>
						
							<line fill="none" stroke="#FFFFFF" stroke-width="0.5" stroke-miterlimit="10" x1="1049.4" y1="344.7" x2="1049.4" y2="-77.9"/>
						
							<line fill="none" stroke="#FFFFFF" stroke-width="0.5" stroke-miterlimit="10" x1="1066.5" y1="345.1" x2="1066.5" y2="-77.4"/>
						<line fill="none" stroke="#FFFFFF" stroke-width="0.5" stroke-miterlimit="10" x1="963.9" y1="345.1" x2="963.9" y2="-77.4"/>
						<line fill="none" stroke="#FFFFFF" stroke-width="0.5" stroke-miterlimit="10" x1="946.8" y1="345.1" x2="946.8" y2="-77.4"/>
						<line fill="none" stroke="#FFFFFF" stroke-width="0.5" stroke-miterlimit="10" x1="981" y1="344.7" x2="981" y2="-77.9"/>
						<line fill="none" stroke="#FFFFFF" stroke-width="0.5" stroke-miterlimit="10" x1="998.1" y1="345.1" x2="998.1" y2="-77.4"/>
					</g>
					<g>
						<line fill="none" stroke="#FFFFFF" stroke-width="0.5" stroke-miterlimit="10" x1="871.8" y1="220" x2="1294.4" y2="220"/>
						
							<line fill="none" stroke="#FFFFFF" stroke-width="0.5" stroke-miterlimit="10" x1="871.8" y1="202.9" x2="1294.4" y2="202.9"/>
						
							<line fill="none" stroke="#FFFFFF" stroke-width="0.5" stroke-miterlimit="10" x1="872.2" y1="237.1" x2="1294.8" y2="237.1"/>
						
							<line fill="none" stroke="#FFFFFF" stroke-width="0.5" stroke-miterlimit="10" x1="871.8" y1="254.2" x2="1294.4" y2="254.2"/>
						
							<line fill="none" stroke="#FFFFFF" stroke-width="0.5" stroke-miterlimit="10" x1="871.8" y1="151.7" x2="1294.4" y2="151.7"/>
						
							<line fill="none" stroke="#FFFFFF" stroke-width="0.5" stroke-miterlimit="10" x1="871.8" y1="134.6" x2="1294.4" y2="134.6"/>
						
							<line fill="none" stroke="#FFFFFF" stroke-width="0.5" stroke-miterlimit="10" x1="872.2" y1="168.8" x2="1294.8" y2="168.8"/>
						
							<line fill="none" stroke="#FFFFFF" stroke-width="0.5" stroke-miterlimit="10" x1="871.8" y1="185.9" x2="1294.4" y2="185.9"/>
						<line fill="none" stroke="#FFFFFF" stroke-width="0.5" stroke-miterlimit="10" x1="871.6" y1="83.7" x2="1294.2" y2="83.7"/>
						<line fill="none" stroke="#FFFFFF" stroke-width="0.5" stroke-miterlimit="10" x1="871.6" y1="66.6" x2="1294.2" y2="66.6"/>
						<line fill="none" stroke="#FFFFFF" stroke-width="0.5" stroke-miterlimit="10" x1="872" y1="100.8" x2="1294.6" y2="100.8"/>
						
							<line fill="none" stroke="#FFFFFF" stroke-width="0.5" stroke-miterlimit="10" x1="871.6" y1="117.8" x2="1294.2" y2="117.8"/>
						<line fill="none" stroke="#FFFFFF" stroke-width="0.5" stroke-miterlimit="10" x1="871.6" y1="15.3" x2="1294.2" y2="15.3"/>
						<line fill="none" stroke="#FFFFFF" stroke-width="0.5" stroke-miterlimit="10" x1="871.6" y1="-1.8" x2="1294.2" y2="-1.8"/>
						<line fill="none" stroke="#FFFFFF" stroke-width="0.5" stroke-miterlimit="10" x1="872" y1="32.4" x2="1294.6" y2="32.4"/>
						<line fill="none" stroke="#FFFFFF" stroke-width="0.5" stroke-miterlimit="10" x1="871.6" y1="49.5" x2="1294.2" y2="49.5"/>
					</g>
				</g>
			</g>
		</g>
	</g>
</g>
<path id="path3822_2_" fill="none" stroke="#FFFFFF" stroke-width="3" stroke-miterlimit="10" d="M1079.6,67.5
	c35.9,35.4,35.9,82.8,0,118.2 M1028.5,164.2c27.6-12.4,64.6-12.4,92.2,0 M1070.7,66.9c-36.1,35.6-36.1,83.4,0,119 M1074.3,67
	c-32.9,0.2-59.4,27-59.2,59.8c0.2,32.9,27,59.4,59.8,59.2c32.9-0.2,59.4-27,59.2-59.8c-0.2-32.6-26.6-59.1-59.2-59.2H1074.3z
	 M1074.6,67V186 M1134.2,126.5h-119.1 M1028.5,90.3c27.6,12.4,64.6,12.4,92.2,0"/>
<g>
	<line fill="none" stroke="#FFFFFF" stroke-miterlimit="10" x1="1144.1" y1="183.8" x2="1144.1" y2="68.9"/>
	<polygon fill="#FFFFFF" points="1144.1,185.3 1141.2,182.4 1147.1,182.4 	"/>
	<polygon fill="#FFFFFF" points="1144.1,67.5 1147.1,70.4 1141.2,70.4 	"/>
</g>
</svg>
