<?xml version="1.0" encoding="utf-8"?>
<!-- Generator: Adobe Illustrator 17.0.0, SVG Export Plug-In . SVG Version: 6.00 Build 0)  -->
<!DOCTYPE svg PUBLIC "-//W3C//DTD SVG 1.1//EN" "http://www.w3.org/Graphics/SVG/1.1/DTD/svg11.dtd">
<svg version="1.1" id="Layer_1" xmlns="http://www.w3.org/2000/svg" xmlns:xlink="http://www.w3.org/1999/xlink" x="0px" y="0px"
	 viewBox="211.277 0 954.095 736" enable-background="new 211.277 0 954.095 736"
	 xml:space="preserve">
<ellipse opacity="0.5" fill="#CCCCCC" enable-background="new    " cx="693.965" cy="651.13" rx="432.404" ry="58.533"/>
<path fill="#EAF6FD" d="M564.622,651.13c0,0-3.532-48.22,2.443-66.15S461.39,544.638,461.39,544.638s2.716,52.16,7.606,68.46"/>
<path fill="#A0D5E9" d="M406.511,374.576l-14.67,21.733l-9.237,4.347l7.607,2.717c0,0-28.797,34.774-32.057,55.42
	c0,0,9.782-4.89,14.127-5.977c0,0-13.584,23.905-13.584,36.945c0,0,8.694-5.434,12.497-4.89c0,0-13.584,14.127-20.647,17.387
	c0,0,8.15,1.087,11.41,0c0,0-16.3,19.017-14.67,58.137c0,0,5.434-5.977,9.237-7.607c0,0,4.347,41.293,68.46,63.57
	c0,0-7.063-17.93-7.063-27.71c0,0,12.495,5.552,26.623,6.096c0,0-9.508-17.244-8.422-23.244h12.228l-1.089-22.941
	c0,0-18.337-7.394-14.535-26.953c0,0-4.142-6.685-15.552-36.024C406.581,458.343,427.403,362.149,406.511,374.576z"/>
<path fill="#EAF6FD" d="M563.805,605.762c0.073-4.387-2.977-5.025-8.183-3.061c-9.911-6.872-25.795,1.819-25.795,1.819
	c-2.089,0.07-4.14,0.154-6.159,0.25c-6.154-0.579-26.755-2.318-39.414-0.992c0,0,3.125,2.173,4.287,4.317
	c-13.288,2.006-39.086,4.712-48.392,7.914c-7.273,2.018-23.095,6.572-30.223,9.911c0,0,3.873,0.349,5.267,1.616
	c-4.978,2.97-12.586,8.688-19.81,18.906c0,0,2.411-1.012,4.599-1.775c-5.659,9.754-6.428,14.679-5.968,22.384
	c-0.283,2.257-0.692,4.877-1.219,7.395c4.63-0.452,9.247-1.044,13.887-1.385c0.102,0.478,0.07,1.025,0.142,1.773l0.568,3.624
	l13.747-0.919l2.135-0.103l0.347,4.645c0,0,94.275-3.243,136.926-3.785c0,0,6.52,0.204,6.316-4.686
	C566.623,667.896,563.398,630.212,563.805,605.762z"/>
<path fill="#EAF6FD" d="M581.057,49.121c0,0-27.032,1.63-45.777,24.45l-5.672-23.635l-25.843,11.681
	c0,0-19.008-33.686-10.043-51.616c0,0-46.458-1.63-83.948,76.61c0,0-17.118-22.005-11.413-43.195c0,0-63.57,48.085-48.9,114.914
	c0,0-13.857-4.075-17.932-19.56c0,0-7.335,80.684,52.975,192.339c0,0-11.139-9.236-14.942-8.693c0,0,11.954,16.3,16.844,27.71
	c0,0-7.607-2.174-12.497-0.544c0,0,26.08,8.694,32.6,24.993c4.701,9.82,9.423,41.253,11.953,110.839
	c17.526,35.051,42.784,107.301,161.913,99.429L581.057,49.121z"/>
<ellipse transform="matrix(-0.9787 0.2052 -0.2052 -0.9787 1010.5637 571.1134)" fill="#CDEAF5" cx="475.664" cy="337.964" rx="17.659" ry="22.349"/>
<path fill="#CDEAF5" d="M565.709,142.574c0,0-32.057,25.536-19.017,44.01s-13.04,42.381,0,55.963
	c13.04,13.583-3.262,48.355,28.253,73.892c0,0,21.734-23.905,26.624-46.182l-9.78-1.087c0,0,33.144-12.495,55.42-36.403
	c0,0-26.623-5.977-48.9-5.977c0,0,34.771-17.929,51.615-15.213c0,0-4.89-20.647-26.623-25.537c0,0,21.188-24.449-9.237-34.773
	C583.639,140.944,572.229,138.227,565.709,142.574z"/>
<ellipse transform="matrix(-0.9787 0.2052 -0.2052 -0.9787 1166.4753 502.7826)" fill="#CDEAF5" cx="557.163" cy="311.885" rx="17.659" ry="22.349"/>
<ellipse transform="matrix(-0.9787 0.2052 -0.2052 -0.9787 1165.8115 490.101)" fill="#FFFFFF" cx="557.49" cy="305.506" rx="17.388" ry="22.004"/>
<path fill="#4E4D50" d="M553.904,293.719c-0.025,0.558-0.002,1.129,0.119,1.712c0.637,3.036,3.128,5.077,5.565,4.565
	c2.168-0.455,3.555-2.774,3.391-5.411c1.773,1.532,3.144,3.807,3.712,6.518c1.18,5.616-1.528,10.936-6.042,11.883
	c-4.514,0.947-9.131-2.836-10.308-8.456C549.399,300.041,550.942,295.748,553.904,293.719z"/>
<ellipse transform="matrix(-0.9787 0.2052 -0.2052 -0.9787 1009.8994 558.431)" fill="#FFFFFF" cx="475.991" cy="331.586" rx="17.388" ry="22.004"/>
<path fill="#4E4D50" d="M474.035,319.799c-0.025,0.558-0.002,1.129,0.119,1.712c0.637,3.036,3.128,5.077,5.565,4.565
	c2.168-0.455,3.555-2.774,3.391-5.411c1.773,1.532,3.144,3.807,3.712,6.518c1.179,5.616-1.528,10.936-6.042,11.883
	c-4.514,0.947-9.131-2.836-10.308-8.456C469.53,326.121,471.072,321.828,474.035,319.799z"/>
<path fill="#5B5A5C" d="M523.87,382.996c0,0,9.508-7.876,10.323-12.495c0,0,28.795-7.337,42.38-26.896
	C576.573,343.605,573.042,394.677,523.87,382.996z"/>
<path fill="#A0D5E9" d="M462.474,267.539c0,0-21.733,1.087-23.363,21.733c0,0-9.237-14.67,3.803-23.906
	C455.954,256.13,462.474,267.539,462.474,267.539z"/>
<path fill="#A0D5E9" d="M442.371,245.807c0,0-20.103,1.087-19.56,19.56c0,0-9.237-11.411,0.543-20.647
	C433.134,235.483,442.371,245.807,442.371,245.807z"/>
<path fill="#CDEAF5" d="M566.861,585.591c0,0-64.181-7.526-104.931-45.831l10.595,2.507c0,0-26.895-22.768-40.75-66.768h7.335
	c0,0-5.422-27.234-16.784-57.745c-0.08-2.655-0.059-4.365-0.059-4.365c-5.573-14.977-16.096-50.169-19.684-69.613
	c-3.365-32.171-18.742-60.717-19.467-69.847c3.62-10.583,13.072-30.81,13.072-30.81c-3.804,1.086-15.755,7.591-15.755,7.591
	c-4.89-36.403,20.645-73.9,20.645-73.9c-15.757-1.63-35.86,12.493-35.86,12.493c-7.064-50.53,18.474-93.998,18.474-93.998
	c-1.086,18.473,24.993,44.009,24.993,44.009c18.547-82.973,71.723-114.205,82.346-119.7c0.35-3.327,1.178-6.587,2.692-9.614
	c0,0-46.458-1.63-83.948,76.609c0,0-17.118-22.005-11.413-43.195c0,0-31.016,23.469-44.717,60.397
	c-4.823-5.049-9.073-19.376-9.073-19.376c-8.15,27.71,4.346,72.807,4.346,72.807s0.06-0.303,0.161-0.809
	c0.126,0.631,0.244,1.261,0.384,1.896c0,0-13.857-4.075-17.932-19.56c0,0-7.335,80.684,52.975,192.339
	c0,0-11.139-9.236-14.942-8.693c0,0,11.954,16.3,16.844,27.71c0,0-7.607-2.174-12.497-0.544c0,0,17.091,7.079,23.956,20.396
	c0.032,0.091,0.052,0.156,0.086,0.25c4.89,13.855,8.557,27.71,8.557,27.71l-6.52,16.3l5.297,1.63
	c0.815,3.26,3.667,35.86,3.667,35.86s0.212-1.312,0.509-3.332c0.369,2.793,0.799,5.716,1.302,8.75
	c-1.924-0.465-4.503-1.057-5.329-1.114c-1.614-0.466-2.988-0.769-3.779-0.637c0,0,0.654,3.652,5.727,10.609
	c0.091,0.651,0.283,1.289,0.516,1.917c3.295,15.687,8.564,33.287,16.965,50.272c1.851,6.082,2.074,15.682,3.243,18.702l3.666-4.89
	c2.291,3.441,1.63,2.582,2.988,6.385l5.57,13.583l0.796-7.556c6.143,7.937,13.264,15.356,21.508,21.931
	c1.404,1.149,2.859,2.246,4.354,3.306c0.487,0.353,0.965,0.715,1.46,1.063c0,0-0.04-0.051-0.088-0.113
	c1.09,0.735,2.219,1.436,3.368,2.122c9.328,12.029,16.023,21.628,16.279,26.109c0,0,15.485,15.281,21.19,20.986l5.705-11.512
	c0,0,24.45,27.659,49.715,28.474C564.62,636.783,562.583,609.022,566.861,585.591z M381.995,280.017
	c-0.046-0.72-0.091-1.405-0.131-2.032c0.121-0.444,0.199-0.665,0.199-0.665c0.024-0.096,0.056-0.206,0.083-0.307
	C382.085,277.948,382.036,278.953,381.995,280.017z"/>
<path fill="#BFE5F3" d="M410.592,357.482c-0.06-0.543-0.119-1.082-0.178-1.624l0.468,3.301
	C410.785,358.597,410.688,358.037,410.592,357.482z"/>
<path fill="#A0D5E9" d="M536.91,270.799c0,0,11.41-6.52,19.56-1.223c0,0,0.815-8.965-9.78-8.15S536.91,270.799,536.91,270.799z"/>
<path fill="#5B5A5C" d="M611.318,308.573c0,0-1.589-16.695-3.511-29.502c7.429-0.918,15.232-1.087,15.232-1.087l-0.984-9.186
	c-7.72-1.123-16.12-0.034-16.12-0.034c-7.913,0.876-21.539,3.086-37.289,8.073c-20.491,6.493-37.534,14.029-47.715,18.528
	c-3.039,1.343-5.428,2.397-7.263,3.147l-2.002,0.826c-3.601,1.485-5.224,2.157-7.244,2.486c-0.037,0.117-0.089,0.227-0.127,0.342
	c-1.1,0.298-2.421,0.595-4.218,0.997l-2.116,0.474c-1.932,0.44-4.494,0.947-7.754,1.593c-10.92,2.162-29.198,5.779-49.704,12.227
	c-15.759,4.961-28.184,10.975-35.164,14.8c0,0-7.504,3.931-13.18,9.285l4.468,8.085c0,0,6.487-4.341,13.096-7.856
	c5.78,11.591,14.064,26.172,14.064,26.172l0.22,0.463c0.481,0.71,0.941,1.404,1.441,2.16c3.703,5.57,6.458,8.626,12.978,8.65
	c6.407,0.03,20.431-2.95,34.095-7.244c5.083-1.598,10.627-4.01,16.04-6.967c8.026-4.4,14.853-9.54,16.981-12.798
	c3.093-4.74,2.424-13.526,1.983-19.342l-0.123-1.715c-0.135-1.986-0.369-4.042-0.599-6.034c-0.329-2.86-0.67-5.81-0.447-6.955
	c0.041-0.201,0.312-0.946,2.073-1.913c0.825-0.448,1.846-0.869,3.024-1.264c0.306-0.053,0.606-0.103,0.887-0.136
	c1.999-0.219,2.647,0.236,2.797,0.377c0.839,0.809,2.253,3.422,3.626,5.95c0.957,1.764,1.944,3.582,2.975,5.284l0.885,1.476
	c2.975,5.015,7.475,12.592,12.73,14.697c3.612,1.446,12.152,1.734,21.25,0.729c6.13-0.687,12.055-1.896,17.132-3.506
	c13.653-4.329,26.845-9.943,32.075-13.644c5.325-3.765,5.824-7.849,5.659-14.535c-0.024-0.905-0.046-1.738-0.06-2.595
	L611.318,308.573z M499.664,343.133c-1.152,5.699-1.741,7.233-10.114,12.069c-0.358,0.205-0.732,0.416-1.128,0.629
	c-9.116,4.995-26.624,11.789-37.175,13.556l-0.731,0.126c-10.772,1.792-14.608,2.275-16.809-0.465
	c-2.973-3.706-12.93-22.225-14.686-26.337c-1.332-3.122,1.114-5.686,1.845-6.203c0.455-0.322,1.221-0.777,2.265-1.35
	c6.671-3.653,21.72-10.406,29.118-12.791c9.369-3.013,33.044-8.202,38.957-7.814c4.395,0.285,4.769,1.817,5.501,4.882l0.035,0.149
	C497.437,322.484,500.847,337.235,499.664,343.133z M603.832,315.174c-0.231,3.507-3.648,5.316-13.497,10.031l-0.672,0.318
	c-9.651,4.611-27.887,9.1-38.219,10.246c-0.446,0.052-0.876,0.094-1.285,0.133c-9.632,0.848-10.994-0.07-15.211-4.076
	c-4.355-4.149-10.031-18.184-11.13-20.957l-0.056-0.142c-1.16-2.931-1.735-4.399,1.702-7.156
	c4.618-3.714,26.981-13.057,36.382-15.97c7.427-2.296,23.624-5.408,31.185-6.247c1.183-0.131,2.071-0.197,2.628-0.196
	c0.896,0.004,4.373,0.698,5.071,4.02C601.656,289.554,604.138,310.433,603.832,315.174z"/>
<path fill="#A0D5E9" d="M534.058,251.647c0,0,13.04-9.78,23.227-1.63c0,0,0.408-7.742-10.187-8.15
	C536.503,241.46,534.058,251.647,534.058,251.647z"/>
<rect x="581.165" y="102.536" fill="#F8F8F8" width="409.365" height="580.797"/>
<path fill="#B1DFF0" d="M504.855,410.436c0,0,11.682,5.433,16.843,6.248c0,0,7.878-10.321,13.583-13.311
	c0,0,5.705,12.496,13.855,16.843c0,0,8.967-16.028,21.462-21.19c0,0,5.705,5.977,11.953,6.792l-0.272,11.681
	c0,0-8.693-3.26-11.953-6.248c0,0-14.399,19.832-12.497,27.71c0,0-18.2-8.694-26.35-17.387c0,0-8.15,5.979-10.052,8.694
	C521.425,430.268,510.017,420.758,504.855,410.436z"/>
<path fill="#84C0CE" d="M395.101,512.445c0,0,19.152,38.305,18.337,55.827c0,0-19.152-0.408-35.86-14.262
	c0,0,25.672,25.265,48.9,22.005C426.479,576.015,421.996,538.525,395.101,512.445z"/>
<path fill="#EAF6FD" d="M577.119,131.164c0,0-32.057,25.536-19.017,44.01s-13.04,42.381,0,55.963
	c13.04,13.583-3.262,48.355,28.253,73.892c0,0,21.734-23.905,26.624-46.183l-9.78-1.087c0,0,33.144-12.495,55.42-36.403
	c0,0-26.623-5.977-48.9-5.977c0,0,34.771-17.929,51.615-15.213c0,0-4.89-20.647-26.623-25.537c0,0,21.188-24.449-9.237-34.773
	C595.049,129.534,583.639,126.817,577.119,131.164z"/>
<path fill="#CDEAF5" d="M661.334,200.167c0,0-26.624-18.202-67.374,16.028c0,0,7.475-1.222,15.759-0.815
	C609.719,215.38,647.616,197.179,661.334,200.167z"/>
<path fill="#CDEAF5" d="M634.711,174.63c0,0-23.636-3.26-36.269-0.407c0,0,14.262-18.745,41.565-8.15
	C640.007,166.073,637.565,172.592,634.711,174.63z"/>
<path fill="#CDEAF5" d="M658.618,221.357c0,0-58.546,24.993-71.586,36.403c0,0,6.386-1.087,16.166,0
	C603.199,257.759,643.407,242.004,658.618,221.357z"/>
<path fill="#CDEAF5" d="M611.075,264.687c0,0-19.967,25.672-32.192,33.415c0,0,3.534,5.297,7.472,6.927
	C586.354,305.029,607.407,280.376,611.075,264.687z"/>
<path fill="#5B5A5C" d="M351.367,197.945c-1.385,0.692-5.909,2.691-5.909,2.691c-40.228,19.959-83.897,0.407-83.897,0.407
	s7.602,26.175,34.641,40.715c27.044,14.538,65.063,3.267,65.063,3.267c3.3,4.644,5.45,17.152,5.45,17.152s5.804-16.191-0.699-39.658
	C361.464,206.075,352.225,197.517,351.367,197.945"/>
<path fill="#737F83" d="M351.367,197.945c-1.34,0.645-5.909,2.691-5.909,2.691c-40.228,19.959-83.897,0.407-83.897,0.407
	s41.485,46.962,102.895,16.597C364.456,217.64,362.029,206.79,351.367,197.945"/>
<path fill="#CDEAF5" d="M421.138,677.541l-4.182,0.28c-3.381-47.338,40.301-46.869,40.301-46.869
	c-39.081,11.956-33.985,46.485-33.985,46.485L421.138,677.541z"/>
<path fill="#CDEAF5" d="M491.272,615.27c-2.716-9.78-4.347-35.86-4.347-35.86l-24.724-14.94c0,15.281,5.638,46.386,5.638,46.386
	c-16.707,0.815-59.495,15.077-59.495,15.077c2.649-0.408,6.848,1.603,6.848,1.603c-9.86,4.252-21.314,19.994-21.314,19.994
	c1.426-0.815,6.103-2.864,6.103-2.864c-4.288,4.064-6.918,18.349-6.918,21.608c0,3.26-1.834,8.965-1.834,8.965l9.2-1.597
	c2.041-0.215,4.085-0.42,6.13-0.571c-0.546-4.578-3.01-31.026,29.623-46.205c0,0-0.258,0.083-0.689,0.236
	C454.647,617.452,491.272,615.27,491.272,615.27z"/>
<path fill="#AADAE2" d="M566.861,585.591c0,0-49.511-5.094-95.966-37.694c0,0,32.633,32.401,58.68,40.75
	c26.046,8.349,34.637,38.916,34.637,38.916S564.009,600.261,566.861,585.591z"/>
<g>
	<circle fill="#FDF244" cx="787.844" cy="353.116" r="76.94"/>
	<circle fill="#E3247B" cx="740.281" cy="432.753" r="76.94"/>
	<circle fill="#1CAADF" cx="832.259" cy="431.956" r="76.94"/>
	<g>
		<defs>
			<circle id="SVGID_1_" cx="832.259" cy="431.956" r="76.94"/>
		</defs>
		<clipPath id="SVGID_2_">
			<use xlink:href="#SVGID_1_"  overflow="visible"/>
		</clipPath>
		<circle opacity="0.9" clip-path="url(#SVGID_2_)" fill="#18AA44" cx="787.844" cy="353.116" r="76.94"/>
		<circle opacity="0.9" clip-path="url(#SVGID_2_)" fill="#2D3074" cx="740.281" cy="432.753" r="76.94"/>
	</g>
	<g>
		<defs>
			<circle id="SVGID_3_" cx="739.45" cy="432.491" r="76.94"/>
		</defs>
		<clipPath id="SVGID_4_">
			<use xlink:href="#SVGID_3_"  overflow="visible"/>
		</clipPath>
		<circle opacity="0.9" clip-path="url(#SVGID_4_)" fill="#E5341C" cx="783.44" cy="351.71" r="76.94"/>
	</g>
	<g>
		<defs>
			<circle id="SVGID_5_" cx="740.442" cy="432.274" r="76.94"/>
		</defs>
		<clipPath id="SVGID_6_">
			<use xlink:href="#SVGID_5_"  overflow="visible"/>
		</clipPath>
		<g clip-path="url(#SVGID_6_)">
			<defs>
				<circle id="SVGID_7_" cx="831.439" cy="432.043" r="76.94"/>
			</defs>
			<clipPath id="SVGID_8_">
				<use xlink:href="#SVGID_7_"  overflow="visible"/>
			</clipPath>
			<circle opacity="0.9" clip-path="url(#SVGID_8_)" fill="#35371A" cx="787.024" cy="353.203" r="76.94"/>
		</g>
	</g>
</g>
</svg>
