<?xml version="1.0" encoding="utf-8"?>
<!-- Generator: Adobe Illustrator 17.1.0, SVG Export Plug-In . SVG Version: 6.00 Build 0)  -->
<!DOCTYPE svg PUBLIC "-//W3C//DTD SVG 1.1//EN" "http://www.w3.org/Graphics/SVG/1.1/DTD/svg11.dtd">
<svg version="1.1" id="Layer_1" xmlns="http://www.w3.org/2000/svg" xmlns:xlink="http://www.w3.org/1999/xlink" x="0px" y="0px"
	 viewBox="0 0 253 253" enable-background="new 0 0 253 253" xml:space="preserve">
<g>
	<g>
		<circle fill="#074E68" cx="126.7" cy="126.9" r="126.3"/>
		<g opacity="0.5" enable-background="new    ">
			<g>
				<g>
					<g>
						<g>
							<defs>
								<circle id="SVGID_1_" cx="126.3" cy="126.6" r="126.3"/>
							</defs>
							<clipPath id="SVGID_2_">
								<use xlink:href="#SVGID_1_"  overflow="visible"/>
							</clipPath>
							<g clip-path="url(#SVGID_2_)">
								<g>
									
										<line fill="none" stroke="#FFFFFF" stroke-width="0.5" stroke-miterlimit="10" x1="220.7" y1="345.7" x2="220.7" y2="-77.7"/>
									
										<line fill="none" stroke="#FFFFFF" stroke-width="0.5" stroke-miterlimit="10" x1="203.5" y1="345.7" x2="203.5" y2="-77.7"/>
									
										<line fill="none" stroke="#FFFFFF" stroke-width="0.5" stroke-miterlimit="10" x1="237.8" y1="345.3" x2="237.8" y2="-78.2"/>
									
										<line fill="none" stroke="#FFFFFF" stroke-width="0.5" stroke-miterlimit="10" x1="254.8" y1="345.7" x2="254.8" y2="-77.7"/>
									
										<line fill="none" stroke="#FFFFFF" stroke-width="0.5" stroke-miterlimit="10" x1="152.1" y1="345.7" x2="152.1" y2="-77.7"/>
									
										<line fill="none" stroke="#FFFFFF" stroke-width="0.5" stroke-miterlimit="10" x1="135.1" y1="345.7" x2="135.1" y2="-77.7"/>
									
										<line fill="none" stroke="#FFFFFF" stroke-width="0.5" stroke-miterlimit="10" x1="169.3" y1="345.3" x2="169.3" y2="-78.2"/>
									
										<line fill="none" stroke="#FFFFFF" stroke-width="0.5" stroke-miterlimit="10" x1="186.5" y1="345.7" x2="186.5" y2="-77.7"/>
									<line fill="none" stroke="#FFFFFF" stroke-width="0.5" stroke-miterlimit="10" x1="84" y1="345.9" x2="84" y2="-77.5"/>
									
										<line fill="none" stroke="#FFFFFF" stroke-width="0.5" stroke-miterlimit="10" x1="66.9" y1="345.9" x2="66.9" y2="-77.5"/>
									
										<line fill="none" stroke="#FFFFFF" stroke-width="0.5" stroke-miterlimit="10" x1="101.1" y1="345.5" x2="101.1" y2="-78"/>
									
										<line fill="none" stroke="#FFFFFF" stroke-width="0.5" stroke-miterlimit="10" x1="118.3" y1="345.9" x2="118.3" y2="-77.5"/>
									
										<line fill="none" stroke="#FFFFFF" stroke-width="0.5" stroke-miterlimit="10" x1="15.5" y1="345.9" x2="15.5" y2="-77.5"/>
									
										<line fill="none" stroke="#FFFFFF" stroke-width="0.5" stroke-miterlimit="10" x1="-1.7" y1="345.9" x2="-1.7" y2="-77.5"/>
									<line fill="none" stroke="#FFFFFF" stroke-width="0.5" stroke-miterlimit="10" x1="32.6" y1="345.5" x2="32.6" y2="-78"/>
									
										<line fill="none" stroke="#FFFFFF" stroke-width="0.5" stroke-miterlimit="10" x1="49.7" y1="345.9" x2="49.7" y2="-77.5"/>
								</g>
								<g>
									
										<line fill="none" stroke="#FFFFFF" stroke-width="0.5" stroke-miterlimit="10" x1="-76.8" y1="220.5" x2="346.7" y2="220.5"/>
									
										<line fill="none" stroke="#FFFFFF" stroke-width="0.5" stroke-miterlimit="10" x1="-76.8" y1="203.5" x2="346.7" y2="203.5"/>
									
										<line fill="none" stroke="#FFFFFF" stroke-width="0.5" stroke-miterlimit="10" x1="-76.4" y1="237.7" x2="347.1" y2="237.7"/>
									
										<line fill="none" stroke="#FFFFFF" stroke-width="0.5" stroke-miterlimit="10" x1="-76.8" y1="254.8" x2="346.7" y2="254.8"/>
									<line fill="none" stroke="#FFFFFF" stroke-width="0.5" stroke-miterlimit="10" x1="-76.8" y1="152" x2="346.7" y2="152"/>
									<line fill="none" stroke="#FFFFFF" stroke-width="0.5" stroke-miterlimit="10" x1="-76.8" y1="135" x2="346.7" y2="135"/>
									
										<line fill="none" stroke="#FFFFFF" stroke-width="0.5" stroke-miterlimit="10" x1="-76.4" y1="169.2" x2="347.1" y2="169.2"/>
									
										<line fill="none" stroke="#FFFFFF" stroke-width="0.5" stroke-miterlimit="10" x1="-76.8" y1="186.4" x2="346.7" y2="186.4"/>
									<line fill="none" stroke="#FFFFFF" stroke-width="0.5" stroke-miterlimit="10" x1="-77" y1="84" x2="346.5" y2="84"/>
									<line fill="none" stroke="#FFFFFF" stroke-width="0.5" stroke-miterlimit="10" x1="-77" y1="66.8" x2="346.5" y2="66.8"/>
									<line fill="none" stroke="#FFFFFF" stroke-width="0.5" stroke-miterlimit="10" x1="-76.6" y1="101" x2="346.9" y2="101"/>
									
										<line fill="none" stroke="#FFFFFF" stroke-width="0.5" stroke-miterlimit="10" x1="-77" y1="118.2" x2="346.5" y2="118.2"/>
									<line fill="none" stroke="#FFFFFF" stroke-width="0.5" stroke-miterlimit="10" x1="-77" y1="15.4" x2="346.5" y2="15.4"/>
									<line fill="none" stroke="#FFFFFF" stroke-width="0.5" stroke-miterlimit="10" x1="-77" y1="-1.8" x2="346.5" y2="-1.8"/>
									
										<line fill="none" stroke="#FFFFFF" stroke-width="0.5" stroke-miterlimit="10" x1="-76.6" y1="32.6" x2="346.9" y2="32.6"/>
									<line fill="none" stroke="#FFFFFF" stroke-width="0.5" stroke-miterlimit="10" x1="-77" y1="49.6" x2="346.5" y2="49.6"/>
								</g>
							</g>
						</g>
					</g>
				</g>
			</g>
		</g>
	</g>
	<g>
		<path fill="none" stroke="#FFFFFF" stroke-width="3" stroke-miterlimit="10" d="M127.4,196c-1.7,0-3.8-0.4-5-1.3l-16.4-9.7
			c-2.5-1.3-1.3-1.7-0.4-2c3.3-1.3,3.8-1.3,7.5-3.3c0.4,0,0.9,0,1.3,0l12.5,7.5c0.4,0.4,1.3,0.4,1.7,0l49.6-28.6
			c0.4-0.4,0.9-0.9,0.9-1.3l0-57.3c0-0.4-0.4-1.3-0.9-1.3l-50.2-28.6c-0.4-0.4-1.3-0.4-1.7,0L77,98.9c-0.4,0.4-0.9,0.9-0.9,1.3
			l0,57.2c0,0.4,0.4,1.3,0.9,1.3l13.5,7.9c7.2,3.8,11.8-0.9,11.8-5v-56.6c0-0.9,0.9-1.3,1.3-1.3h6.3c0.9,0,1.3,0.4,1.3,1.3l0,56.3
			c0,9.7-5.5,15.5-14.8,15.5c-2.9,0-5,0-11.4-2.9l-13.1-7.5c-3.3-1.7-5-5.5-5-8.7v-57.4c0-3.8,2-7.2,5-8.7l49.7-28.6
			c2.9-1.7,7.2-1.7,10.5,0l49.6,28.6c3.3,1.7,5,5.5,5,8.7v57.2c0,3.8-2,7.2-5,8.7l-49.6,28.6C130.8,195.7,129.1,196,127.4,196z"/>
		<path fill="none" stroke="#FFFFFF" stroke-width="3" stroke-miterlimit="10" d="M142.5,156.7c-21.5,0-26.1-10.1-26.1-18.1
			c0-0.9,0.9-1.3,1.3-1.3h6.3c0.9,0,1.3,0.4,1.3,1.3c0.9,6.3,3.8,9.7,16.8,9.7c10.5,0,14.8-2.5,14.8-7.9c0-3.3-1.3-5.5-17.3-7.2
			c-13.5-1.3-21.9-4.2-21.9-15.2c0-10.1,8.4-16,22.6-16c16,0,23.5,5.5,24.9,17.3c0,0.4,0,0.9-0.4,1.3c-0.4,0.4-0.9,0.4-0.9,0.4
			l-6.3,0c-0.9,0-1.3-0.4-1.3-1.3c-1.7-6.8-5.5-8.7-15.5-8.7c-11.4,0-12.5,3.8-12.5,6.8c0,3.8,1.7,4.6,16.8,6.8
			c15.2,2.2,22.3,5,22.3,15.5C167.4,150.7,158.3,156.7,142.5,156.7z"/>
	</g>
	<g>
		<line fill="none" stroke="#FFFFFF" stroke-miterlimit="10" x1="203.5" y1="163" x2="203.5" y2="95.3"/>
		<polygon fill="#FFFFFF" points="203.5,164.4 200.5,161.5 206.4,161.5 		"/>
		<polygon fill="#FFFFFF" points="203.5,93.9 206.4,96.8 200.5,96.8 		"/>
	</g>
</g>
</svg>
