<?xml version="1.0" encoding="utf-8"?>
<!-- Generator: Adobe Illustrator 17.1.0, SVG Export Plug-In . SVG Version: 6.00 Build 0)  -->
<!DOCTYPE svg PUBLIC "-//W3C//DTD SVG 1.1//EN" "http://www.w3.org/Graphics/SVG/1.1/DTD/svg11.dtd">
<svg version="1.1" id="Layer_1" xmlns="http://www.w3.org/2000/svg" xmlns:xlink="http://www.w3.org/1999/xlink" x="0px" y="0px"
	 viewBox="200.3 1.3 252.1 252" enable-background="new 200.3 1.3 252.1 252" xml:space="preserve">
<g>
	<g>
		<circle fill="#074E68" cx="326.6" cy="127.8" r="126.2"/>
		<g opacity="0.5" enable-background="new    ">
			<g>
				<g>
					<g>
						<defs>
							<circle id="SVGID_1_" cx="326.2" cy="127.5" r="126.2"/>
						</defs>
						<clipPath id="SVGID_2_">
							<use xlink:href="#SVGID_1_"  overflow="visible"/>
						</clipPath>
						<g clip-path="url(#SVGID_2_)">
							<g>
								
									<line fill="none" stroke="#FFFFFF" stroke-width="0.5" stroke-miterlimit="10" x1="420.6" y1="346.5" x2="420.6" y2="-76.8"/>
								
									<line fill="none" stroke="#FFFFFF" stroke-width="0.5" stroke-miterlimit="10" x1="403.4" y1="346.5" x2="403.4" y2="-76.8"/>
								
									<line fill="none" stroke="#FFFFFF" stroke-width="0.5" stroke-miterlimit="10" x1="437.7" y1="346.1" x2="437.7" y2="-77.2"/>
								
									<line fill="none" stroke="#FFFFFF" stroke-width="0.5" stroke-miterlimit="10" x1="454.8" y1="346.5" x2="454.8" y2="-76.8"/>
								
									<line fill="none" stroke="#FFFFFF" stroke-width="0.5" stroke-miterlimit="10" x1="352.1" y1="346.5" x2="352.1" y2="-76.8"/>
								
									<line fill="none" stroke="#FFFFFF" stroke-width="0.5" stroke-miterlimit="10" x1="334.9" y1="346.5" x2="334.9" y2="-76.8"/>
								
									<line fill="none" stroke="#FFFFFF" stroke-width="0.5" stroke-miterlimit="10" x1="369.2" y1="346.1" x2="369.2" y2="-77.2"/>
								
									<line fill="none" stroke="#FFFFFF" stroke-width="0.5" stroke-miterlimit="10" x1="386.3" y1="346.5" x2="386.3" y2="-76.8"/>
								
									<line fill="none" stroke="#FFFFFF" stroke-width="0.5" stroke-miterlimit="10" x1="283.9" y1="346.7" x2="283.9" y2="-76.5"/>
								
									<line fill="none" stroke="#FFFFFF" stroke-width="0.5" stroke-miterlimit="10" x1="266.8" y1="346.7" x2="266.8" y2="-76.5"/>
								<line fill="none" stroke="#FFFFFF" stroke-width="0.5" stroke-miterlimit="10" x1="301.1" y1="346.3" x2="301.1" y2="-77"/>
								
									<line fill="none" stroke="#FFFFFF" stroke-width="0.5" stroke-miterlimit="10" x1="318.2" y1="346.7" x2="318.2" y2="-76.5"/>
								
									<line fill="none" stroke="#FFFFFF" stroke-width="0.5" stroke-miterlimit="10" x1="215.4" y1="346.7" x2="215.4" y2="-76.5"/>
								
									<line fill="none" stroke="#FFFFFF" stroke-width="0.5" stroke-miterlimit="10" x1="198.4" y1="346.7" x2="198.4" y2="-76.5"/>
								<line fill="none" stroke="#FFFFFF" stroke-width="0.5" stroke-miterlimit="10" x1="232.6" y1="346.3" x2="232.6" y2="-77"/>
								
									<line fill="none" stroke="#FFFFFF" stroke-width="0.5" stroke-miterlimit="10" x1="249.7" y1="346.7" x2="249.7" y2="-76.5"/>
							</g>
							<g>
								
									<line fill="none" stroke="#FFFFFF" stroke-width="0.5" stroke-miterlimit="10" x1="123.2" y1="221.4" x2="546.5" y2="221.4"/>
								
									<line fill="none" stroke="#FFFFFF" stroke-width="0.5" stroke-miterlimit="10" x1="123.2" y1="204.4" x2="546.5" y2="204.4"/>
								
									<line fill="none" stroke="#FFFFFF" stroke-width="0.5" stroke-miterlimit="10" x1="123.7" y1="238.5" x2="546.9" y2="238.5"/>
								
									<line fill="none" stroke="#FFFFFF" stroke-width="0.5" stroke-miterlimit="10" x1="123.2" y1="255.7" x2="546.5" y2="255.7"/>
								<line fill="none" stroke="#FFFFFF" stroke-width="0.5" stroke-miterlimit="10" x1="123.2" y1="153" x2="546.5" y2="153"/>
								
									<line fill="none" stroke="#FFFFFF" stroke-width="0.5" stroke-miterlimit="10" x1="123.2" y1="135.9" x2="546.5" y2="135.9"/>
								
									<line fill="none" stroke="#FFFFFF" stroke-width="0.5" stroke-miterlimit="10" x1="123.7" y1="170.1" x2="546.9" y2="170.1"/>
								
									<line fill="none" stroke="#FFFFFF" stroke-width="0.5" stroke-miterlimit="10" x1="123.2" y1="187.2" x2="546.5" y2="187.2"/>
								<line fill="none" stroke="#FFFFFF" stroke-width="0.5" stroke-miterlimit="10" x1="123" y1="84.9" x2="546.3" y2="84.9"/>
								<line fill="none" stroke="#FFFFFF" stroke-width="0.5" stroke-miterlimit="10" x1="123" y1="67.7" x2="546.3" y2="67.7"/>
								<line fill="none" stroke="#FFFFFF" stroke-width="0.5" stroke-miterlimit="10" x1="123.4" y1="102" x2="546.7" y2="102"/>
								<line fill="none" stroke="#FFFFFF" stroke-width="0.5" stroke-miterlimit="10" x1="123" y1="119.1" x2="546.3" y2="119.1"/>
								<line fill="none" stroke="#FFFFFF" stroke-width="0.5" stroke-miterlimit="10" x1="123" y1="16.4" x2="546.3" y2="16.4"/>
								<line fill="none" stroke="#FFFFFF" stroke-width="0.5" stroke-miterlimit="10" x1="123" y1="-0.8" x2="546.3" y2="-0.8"/>
								<line fill="none" stroke="#FFFFFF" stroke-width="0.5" stroke-miterlimit="10" x1="123.4" y1="33.5" x2="546.7" y2="33.5"/>
								<line fill="none" stroke="#FFFFFF" stroke-width="0.5" stroke-miterlimit="10" x1="123" y1="50.6" x2="546.3" y2="50.6"/>
							</g>
						</g>
					</g>
				</g>
			</g>
		</g>
	</g>
	<path fill="none" stroke="#FFFFFF" stroke-width="3" stroke-miterlimit="10" d="M378.7,77.8l-0.6-5.8l-4.7,0.5l0.5,4.5
		c-3.6-0.5-8-0.6-12.8-0.3l-2.9-6.9l-5.4,2.2l2.2,5.3c-4.3,0.7-8.8,1.9-13.3,4l-5.2-6.5l-5.1,4.1l4.4,5.5c-1.5,0.9-2.9,1.9-4.4,3
		c-3,2.2-5.7,4.8-8.1,7.5l-8.7-6.2l-4.9,6.8l8.4,6c-3.4,5.3-6.2,11-8.5,16.9l-11.6-3.9l-2.6,7.7l11.6,3.9
		c-2.1,7.2-3.5,14.4-4.4,20.9l-14.8-1.6l-1,9.5l14.7,1.6c-0.5,6.6-0.5,11.8-0.3,14.9H351c0,0-1.7-3.9-3.6-10l11.6,1.3l0.9-9.5
		l-15.2-1.6c-1-4.2-1.8-8.8-2.2-13.5l9,3l2.6-7.7l-11.9-4c0.1-3.3,0.4-6.6,1-9.9l8.3,6l4.9-6.8l-10.6-7.6c1.2-2.9,2.9-5.6,4.9-8.1
		l5.1,6.3l5.1-4.1l-5.6-6.9c2.1-2,4.3-3.7,6.3-5.1l2.3,5.7l5.4-2.2l-2.7-6.5c3.1-1.6,5.9-2.6,8.4-3.2l0.5,3.8l4.7-0.5l-0.5-4
		c2.5-0.2,4,0.1,4,0.1l0.1-7.3C383.8,79.1,381.9,78.4,378.7,77.8z"/>
	<g>
		<line fill="none" stroke="#FFFFFF" stroke-miterlimit="10" x1="276" y1="172.8" x2="276" y2="71.3"/>
		<polygon fill="#FFFFFF" points="276,174.2 273.1,171.3 278.9,171.3 		"/>
		<polygon fill="#FFFFFF" points="276,69.9 278.9,72.8 273.1,72.8 		"/>
	</g>
	<g>
		<line fill="none" stroke="#FFFFFF" stroke-miterlimit="10" x1="301.8" y1="181.7" x2="352.2" y2="181.7"/>
		<polygon fill="#FFFFFF" points="300.3,181.7 303.2,178.8 303.2,184.6 		"/>
		<polygon fill="#FFFFFF" points="353.7,181.7 350.8,184.6 350.8,178.8 		"/>
	</g>
</g>
</svg>
