<?xml version="1.0" encoding="utf-8"?>
<!-- Generator: Adobe Illustrator 17.1.0, SVG Export Plug-In . SVG Version: 6.00 Build 0)  -->
<!DOCTYPE svg PUBLIC "-//W3C//DTD SVG 1.1//EN" "http://www.w3.org/Graphics/SVG/1.1/DTD/svg11.dtd">
<svg version="1.1" id="Layer_1" xmlns="http://www.w3.org/2000/svg" xmlns:xlink="http://www.w3.org/1999/xlink" x="0px" y="0px"
	 viewBox="45.3 426.9 960 288.2" enable-background="new 45.3 426.9 960 288.2" xml:space="preserve">
<g>
	<g>
		<g>
			<g>
				<path fill="#CFD5D8" d="M363.9,644.4c0,4.2-3.3,7.6-7.6,7.6H66.2c-4.2,0-7.6-3.3-7.6-7.6V446.2c0-4.2,3.3-7.6,7.6-7.6h289.9
					c4.2,0,7.6,3.3,7.6,7.6v198.2H363.9z"/>
			</g>
			<path fill="#41484D" d="M363.9,446.2v173.9H58.5V446.2c0-4.2,3.3-7.6,7.6-7.6H356C360.4,438.4,363.9,442,363.9,446.2z"/>
			<rect x="73.3" y="453.2" fill="#838383" width="275.1" height="151.5"/>
			<path fill="#CFD5D8" d="M250.7,647.7c0-16.1-29.7-5.3-39.5-1.2c-9.9-4.1-39.5-14.8-39.5,1.2c0,27.7-17.1,51.2-17.1,51.2h53.5h6.4
				h53.3C267.7,698.9,250.7,675.4,250.7,647.7z"/>
			<rect x="150.3" y="692.6" fill="#A1A1A1" width="121.6" height="6.4"/>
			<path opacity="0.3" fill="#A1A1A1" enable-background="new    " d="M252.7,664.8h-83c0.9-4.1,1.5-8.3,2-12.9h79.2
				C251,656.5,251.8,660.8,252.7,664.8z"/>
		</g>
		<g>
			<rect x="83.6" y="460.6" fill="#E6E6E6" width="54.9" height="15.9"/>
			<rect x="143.8" y="460.6" fill="#4D4D4D" width="194.8" height="15.9"/>
			<g>
				<rect x="83.6" y="563.8" fill="#ECECEC" width="60.7" height="33.8"/>
				<rect x="148.3" y="563.8" fill="#ECECEC" width="60.7" height="33.8"/>
				<rect x="213.3" y="563.8" fill="#ECECEC" width="60.7" height="33.8"/>
				<rect x="278.1" y="563.8" fill="#ECECEC" width="60.7" height="33.8"/>
			</g>
			<rect x="83.6" y="503.2" fill="#636363" width="254.8" height="53.6"/>
			<rect x="83.6" y="481.7" fill="#A6A6A6" width="254.8" height="14.3"/>
		</g>
	</g>
</g>
<g id="Layer_2" display="none">
	<path display="inline" fill="#E5E5E5" d="M-147.3,715c0,1.2-12.7,2.3-28.6,2.3h-322.4c-15.7,0-28.6-1.1-28.6-2.3l0,0
		c0-1.2,12.7-2.3,28.6-2.3h322.6C-160.2,712.8-147.3,713.8-147.3,715L-147.3,715z"/>
	<g display="inline">
		<path fill="#EAF7FE" d="M-532.1,702.2c0,0-1.1-13.9,0.7-19.1c1.8-5.1-30.6-11.7-30.6-11.7s0.7,15,2.1,19.7"/>
		<path fill="#E5E5E5" d="M-519.4,700.2c-55.6,0.3-99.2,3.8-99.2,7.9c0,4.2,44.5,7.6,100.6,7.9C-518.5,710.8-519,705.5-519.4,700.2z
			"/>
		<path fill="#A1D4E9" d="M-577.8,622.5l-4.2,6.2l-2.6,1.2l2.1,0.7c0,0-8.3,10-9.2,15.9c0,0,2.9-1.4,4.1-1.8c0,0-3.9,6.8-3.9,10.8
			c0,0,2.4-1.5,3.5-1.4c0,0-3.9,4.1-6,5c0,0,2.3,0.3,3.2,0c0,0-4.6,5.5-4.2,16.8c0,0,1.5-1.8,2.6-2.1c0,0,1.2,12,19.7,18.3
			c0,0-2-5.1-2-7.9c0,0,3.5,2,7.6,2.1c0,0-2.9-4.6-2.4-6.4h3.5l-0.3-7.1c0,0-5.3-2.3-4.2-7.9c0,0-1.2-2-4.6-10.6
			C-577.8,646.7-571.6,618.8-577.8,622.5z"/>
		<path fill="#EAF7FE" d="M-532.2,689c0-1.2-0.9-1.4-2.3-0.9c-2.9-2-7.4,0.6-7.4,0.6c-0.6,0-1.2,0-1.8,0c-1.8-0.2-7.6-0.7-11.3-0.2
			c0,0,0.9,0.7,1.2,1.2c-3.9,0.6-11.3,1.4-13.9,2.3c-2.1,0.6-6.7,2-8.6,2.9c0,0,1.1,0,1.5,0.6c-1.4,0.9-3.5,2.4-5.6,5.5
			c0,0,0.7-0.3,1.4-0.6c-1.5,2.9-1.8,4.2-1.8,6.4c0,0.7-0.2,1.4-0.3,2.1c1.4-0.2,2.6-0.3,4.1-0.3c0,0.2,0,0.3,0,0.6l0.2,1.1l4.1-0.2
			h0.6v1.4c0,0,27.1-0.9,39.5-1.1c0,0,2,0,1.8-1.4C-531.6,707-532.4,696.2-532.2,689z"/>
		<path fill="#EAF7FE" d="M-527.4,528.6c0,0-7.7,0.6-13.2,7.1l-1.5-6.8l-7.4,3.3c0,0-5.5-9.7-3-14.8c0,0-13.5-0.6-24.2,22.1
			c0,0-5-6.4-3.2-12.4c0,0-18.3,13.8-14.1,33.2c0,0-4.1-1.2-5.1-5.6c0,0-2.1,23.3,15.3,55.4c0,0-3.2-2.6-4.4-2.4
			c0,0,3.3,4.6,4.7,7.9c0,0-2.1-0.7-3.5-0.2c0,0,7.6,2.4,9.4,7.3c1.4,2.9,2.9,12,3.3,32c5.1,10,12.4,30.9,46.6,28.8L-527.4,528.6z"
			/>
		
			<ellipse transform="matrix(0.9787 -0.2052 0.2052 0.9787 -137.4312 -101.4291)" fill="#CDEAF5" cx="-557.7" cy="611.9" rx="5.1" ry="6.4"/>
		
			<ellipse transform="matrix(0.9787 -0.2052 0.2052 0.9787 -135.4108 -96.7917)" fill="#CDEAF5" cx="-534.4" cy="604.5" rx="5.1" ry="6.4"/>
		
			<ellipse transform="matrix(0.9787 -0.2052 0.2052 0.9787 -135.0108 -96.7838)" fill="#FFFFFF" cx="-534.1" cy="602.5" rx="5" ry="6.4"/>
		<path fill="#4F4E51" d="M-535.3,599.2c0,0.2,0,0.3,0,0.6c0.2,0.9,0.9,1.5,1.5,1.4c0.6-0.2,1.1-0.9,1.1-1.5c0.6,0.3,0.9,1.1,1.1,2
			c0.3,1.5-0.3,3.2-1.8,3.3c-1.4,0.2-2.6-0.9-3-2.4C-536.5,601-536.2,599.8-535.3,599.2z"/>
		
			<ellipse transform="matrix(0.9787 -0.2052 0.2052 0.9787 -137.0683 -101.4545)" fill="#FFFFFF" cx="-557.7" cy="610.1" rx="5" ry="6.4"/>
		<path fill="#4F4E51" d="M-558.3,606.6c0,0.2,0,0.3,0,0.6c0.2,0.9,0.9,1.5,1.5,1.4c0.6-0.2,1.1-0.9,1.1-1.5c0.6,0.3,0.9,1.1,1.1,2
			c0.3,1.5-0.3,3.2-1.8,3.3c-1.4,0.2-2.6-0.9-3-2.4C-559.5,608.6-559.1,607.3-558.3,606.6z"/>
		<path fill="#5C5B5D" d="M-543.9,624.8c0,0,2.9-2.3,3-3.5c0,0,8.3-2.1,12.1-7.7C-528.6,613.5-529.6,628.3-543.9,624.8z"/>
		<path fill="#A1D4E9" d="M-561.6,591.6c0,0-6.2,0.3-6.7,6.2c0,0-2.6-4.2,1.1-6.8C-563.6,588.3-561.6,591.6-561.6,591.6z"/>
		<path fill="#A1D4E9" d="M-567.4,585.2c0,0-5.8,0.3-5.6,5.6c0,0-2.6-3.2,0.2-6C-570.1,582.5-567.4,585.2-567.4,585.2z"/>
		<path fill="#CDEAF5" d="M-531.6,683.2c0,0-18.5-2.1-30.3-13.2l3,0.7c0,0-7.7-6.7-11.8-19.2h2.1c0,0-1.5-7.9-4.7-16.8
			c0-0.7,0-1.2,0-1.2c-1.5-4.4-4.6-14.5-5.6-20.1c-1.1-9.2-5.5-17.4-5.6-20.1c1.1-3,3.8-8.8,3.8-8.8c-1.1,0.3-4.6,2.1-4.6,2.1
			c-1.4-10.6,6-21.4,6-21.4c-4.6-0.6-10.4,3.5-10.4,3.5c-2-14.7,5.3-27.1,5.3-27.1c-0.3,5.3,7.3,12.7,7.3,12.7
			c5.3-24,20.6-33,23.8-34.6c0-0.9,0.3-2,0.7-2.9c0,0-13.5-0.6-24.2,22.1c0,0-5-6.4-3.2-12.4c0,0-9,6.7-12.9,17.4
			c-1.4-1.4-2.6-5.6-2.6-5.6c-2.3,7.9,1.2,21,1.2,21s0,0,0-0.2c0,0.2,0,0.3,0,0.6c0,0-4.1-1.2-5.1-5.6c0,0-2.1,23.3,15.3,55.4
			c0,0-3.2-2.6-4.4-2.4c0,0,3.3,4.6,4.7,7.9c0,0-2.1-0.7-3.5-0.2c0,0,5,2,6.8,5.8l0,0c1.4,4.1,2.4,7.9,2.4,7.9l-2,4.6l1.5,0.6
			c0.2,0.9,1.1,10.4,1.1,10.4s0-0.3,0.2-1.1c0,0.9,0.2,1.5,0.3,2.4c-0.6-0.2-1.4-0.3-1.5-0.3c-0.6-0.2-0.9-0.2-1.1-0.2
			c0,0,0.2,1.1,1.5,3c0,0.2,0,0.3,0.2,0.6c0.9,4.6,2.4,9.5,5,14.5c0.6,1.8,0.6,4.6,0.9,5.5l1.1-1.4c0.7,1.1,0.6,0.7,0.9,1.8l1.5,3.9
			l0.2-2.1c1.8,2.3,3.9,4.4,6.2,6.4c0.3,0.3,0.9,0.7,1.2,0.9c0.2,0,0.2,0.2,0.3,0.3l0,0c0.3,0.2,0.7,0.3,1.1,0.6
			c2.6,3.5,4.6,6.2,4.6,7.6c0,0,4.4,4.4,6.2,6.2l1.5-3.3c0,0,7.1,7.9,14.3,8.2C-532.1,698-532.8,690.2-531.6,683.2z M-584.7,595.1
			c0-0.2,0-0.3,0-0.6c0-0.3,0-0.2,0-0.2l0,0C-584.7,594.6-584.7,595-584.7,595.1z"/>
		<path fill="#C0E5F3" d="M-576.6,617.5c0-0.2,0-0.3,0-0.6l0.2,0.9C-576.4,617.8-576.4,617.8-576.6,617.5z"/>
		<path fill="#A1D4E9" d="M-540.1,592.5c0,0,3.2-2,5.6-0.3c0,0,0.2-2.6-2.9-2.3C-540.4,590-540.1,592.5-540.1,592.5z"/>
		<path fill="#5C5B5D" d="M-518.7,603.5c0,0-0.3-4.7-1.1-8.5c2.1-0.2,4.4-0.3,4.4-0.3l-0.2-2.6c-2.3-0.3-4.6,0-4.6,0
			c-2.3,0.2-6.2,0.9-10.8,2.3c-6,1.8-10.8,4.1-13.8,5.3c-0.9,0.3-1.5,0.7-2.1,0.9l-0.6,0.2c-1.1,0.3-1.5,0.6-2.1,0.7l0,0
			c-0.3,0-0.7,0.2-1.2,0.2l-0.6,0.2c-0.6,0.2-1.4,0.2-2.3,0.6c-3.2,0.6-8.5,1.5-14.3,3.5c-4.6,1.4-8.2,3.2-10.3,4.2
			c0,0-2.1,1.2-3.9,2.6l1.2,2.3c0,0,1.8-1.2,3.8-2.3c1.5,3.3,4.1,7.6,4.1,7.6v0.2c0.2,0.2,0.2,0.3,0.3,0.6c1.1,1.5,1.8,2.4,3.8,2.4
			c1.8,0,6-0.9,9.9-2.1c1.5-0.6,3-1.2,4.6-2c2.3-1.2,4.2-2.9,5-3.8c0.9-1.4,0.7-3.9,0.6-5.6v-0.6c0-0.6,0-1.2-0.2-1.8
			c0-0.9-0.2-1.5-0.2-2c0,0,0-0.2,0.6-0.6c0.2-0.2,0.6-0.2,0.9-0.3h0.2c0.6,0,0.7,0,0.9,0c0.2,0.2,0.7,1.1,1.1,1.8
			c0.2,0.6,0.6,1.1,0.9,1.5l0.2,0.3c0.9,1.4,2.1,3.8,3.8,4.2c1.1,0.3,3.5,0.6,6.2,0.2c1.8-0.2,3.5-0.6,5-1.1
			c3.9-1.2,7.7-2.9,9.2-3.9c1.5-1.1,1.5-2.3,1.5-4.2c0-0.2,0-0.6,0-0.7v0.3L-518.7,603.5L-518.7,603.5z M-550.8,613.5
			c-0.3,1.5-0.6,2.1-3,3.5c0,0-0.2,0-0.3,0.2c-2.6,1.4-7.6,3.3-10.8,3.9h-0.2c-3,0.6-4.2,0.7-4.7-0.2c-0.9-1.1-3.8-6.4-4.2-7.6
			c-0.3-0.9,0.3-1.5,0.6-1.8c0.2,0,0.3-0.2,0.7-0.3c2-1.1,6.2-3,8.5-3.8c2.6-0.9,9.5-2.3,11.3-2.3c1.2,0,1.4,0.6,1.5,1.4l0,0
			C-551.5,607.5-550.4,611.8-550.8,613.5z M-520.7,605.5c0,1.1-1.1,1.5-3.9,3h-0.2c-2.9,1.4-7.9,2.6-10.9,3c-0.2,0-0.2,0-0.3,0
			c-2.9,0.2-3.2,0-4.4-1.2s-3-5.3-3.2-6l0,0c-0.3-0.9-0.6-1.2,0.6-2.1c1.4-1.1,7.7-3.8,10.6-4.6c2.1-0.7,6.8-1.5,9-1.8
			c0.3,0,0.6,0,0.7,0c0.1,0,1.2,0.2,1.5,1.2C-521.3,598-520.7,604-520.7,605.5z"/>
		<path fill="#A1D4E9" d="M-540.9,587c0,0,3.8-2.9,6.7-0.6c0,0,0-2.3-3-2.3C-540.2,584-540.9,587-540.9,587z"/>
		<path fill="#B2DEEF" d="M-549.4,632.8c0,0,3.3,1.5,4.7,1.8c0,0,2.3-3,3.9-3.9c0,0,1.5,3.5,4.1,4.7c0,0,2.6-4.6,6.2-6.2
			c0,0,1.5,1.8,3.3,2v3.3c0,0-2.4-0.9-3.3-1.8c0,0-4.2,5.8-3.5,7.9c0,0-5.3-2.4-7.6-5c0,0-2.3,1.8-3,2.4
			C-544.6,638.6-547.8,635.8-549.4,632.8z"/>
		<path fill="#85C1CE" d="M-581,662.2c0,0,5.5,10.9,5.3,16.1c0,0-5.5,0-10.4-4.1c0,0,7.4,7.3,14.1,6.4
			C-571.9,680.5-573.3,669.8-581,662.2z"/>
		<path fill="#5C5B5D" d="M-593.6,571.5c-0.3,0.2-1.5,0.7-1.5,0.7c-11.7,5.8-24.2,0-24.2,0s2.1,7.6,10,11.8
			c7.7,4.2,18.8,0.9,18.8,0.9c0.9,1.4,1.5,5,1.5,5s1.5-4.6-0.2-11.5C-590.7,573.8-593.3,571.3-593.6,571.5"/>
		<path fill="#747F83" d="M-593.6,571.5c-0.3,0.2-1.5,0.7-1.5,0.7c-11.7,5.8-24.2,0-24.2,0s12,13.6,29.7,4.7
			C-589.8,577.1-590.5,574-593.6,571.5"/>
		<path fill="#CDEAF5" d="M-573.4,709.8h-1.2c-1.1-13.8,11.7-13.6,11.7-13.6c-11.3,3.3-9.7,13.5-9.7,13.5L-573.4,709.8L-573.4,709.8
			L-573.4,709.8z"/>
		<path fill="#CDEAF5" d="M-553.3,692c-0.7-2.9-1.2-10.4-1.2-10.4l-7.1-4.4c0,4.4,1.5,13.5,1.5,13.5c-4.7,0.2-17.1,4.4-17.1,4.4
			c0.7,0,2,0.6,2,0.6c-2.9,1.2-6.2,5.8-6.2,5.8c0.3-0.2,1.8-0.9,1.8-0.9c-1.2,1.2-2,5.3-2,6.2s-0.6,2.6-0.6,2.6l2.6-0.6
			c0.6,0,1.2,0,1.8-0.2c-0.2-1.4-0.9-9,8.5-13.5c0,0,0,0-0.2,0C-563.9,692.5-553.3,692-553.3,692z"/>
		<path fill="#ACDBE3" d="M-531.6,683.2c0,0-14.3-1.5-27.7-10.8c0,0,9.4,9.4,17,11.8c7.6,2.4,10,11.1,10,11.1
			S-532.2,687.5-531.6,683.2z"/>
	</g>
	<path display="inline" fill="#5C5B5E" d="M-147.3,706.7c0,3.9-4.2,8.5-9.5,8.5h-363c-5.3,0-9.9-4.6-9.9-8.5V467.9
		c0-3.9,4.6-6.5,9.9-6.5h363c5.3,0,9.5,2.9,9.5,6.5L-147.3,706.7L-147.3,706.7z"/>
	<g display="inline">
		<path fill="#098DBA" d="M-499.5,556.3c0.2,0.2,0.3,0.3,0.6,0.3h0.6c0.2,0,0.2,0,0.2-0.2v-1.1c0-0.6,0.2-0.9,0.9-0.9
			c0.7,0,0.9,0.2,0.9,0.7v1.4c0,0.9-0.6,1.4-1.4,1.4h-1.4c-0.6,0-0.9-0.2-1.2-0.6l-2-2c-0.2-0.2-0.3-0.3-0.6-0.3h-0.6
			c-0.2,0-0.2,0-0.2,0.2v1.1c0,0.6-0.2,0.9-0.9,0.9c-0.6,0-0.9-0.2-0.9-0.7v-1.3c0-0.9,0.6-1.4,1.4-1.4h1.4c0.6,0,0.9,0.2,1.2,0.6
			L-499.5,556.3z"/>
		<path fill="#FFFFFF" d="M-477.7,555.2h-0.3c-0.6,0-1.1,0-1.1-0.7s0.6-0.7,1.1-0.7h0.3v-0.2c0-0.9,0-1.5,0.7-2.3
			c0.7-0.7,1.5-0.7,2.4-0.7h1.1c0.6,0,1.2,0,1.2,0.7s-0.6,0.7-1.1,0.7h-1.2c-1.1,0-1.5,0.2-1.5,1.4v0.3h1.4c0.6,0,1.1,0,1.1,0.7
			s-0.7,0.7-1.1,0.7h-1.4v6.2c0,0.6,0,1.1-0.7,1.1s-0.7-0.6-0.7-1.1L-477.7,555.2L-477.7,555.2z"/>
		<path fill="#FFFFFF" d="M-467.8,556.6c0-1.1,0.2-1.4,1.1-2.1c0.7-0.7,1.2-0.9,2.3-0.9h1.2c1.1,0,1.5,0.2,2.3,0.9s1.1,1.1,1.1,2.1
			v3c0,1.1-0.2,1.4-1.1,2.1s-1.2,0.9-2.1,0.9h-1.2c-1.1,0-1.4-0.2-2.1-0.9c-0.7-0.7-1.1-1.1-1.1-2.1L-467.8,556.6L-467.8,556.6z
			 M-466.3,559.6c0,0.3,0,0.6,0.6,0.9c0.3,0.3,0.6,0.3,1.1,0.3h1.2c0.6,0,0.7-0.2,1.1-0.3c0.6-0.3,0.6-0.6,0.6-0.9v-3
			c0-0.3,0-0.6-0.6-0.9c-0.3-0.3-0.6-0.3-1.1-0.3h-1.2c-0.6,0-0.7,0.2-1.1,0.3c-0.6,0.3-0.6,0.6-0.6,0.9V559.6z"/>
		<path fill="#FFFFFF" d="M-447.7,561.5c0,0.3,0,1.2-0.7,1.2s-0.7-0.6-0.7-1.1v-0.3l-1.2,0.9c-0.6,0.3-0.9,0.6-1.4,0.6h-1.2
			c-0.3,0-0.9-0.2-1.5-0.6c-0.7-0.6-0.7-1.2-0.7-2.1l-0.2-5c0-0.6,0-1.2,0.7-1.2s0.7,0.6,0.7,1.1l0.2,4.7c0,0.3,0,0.7,0.2,1.1
			c0.2,0.3,0.6,0.3,0.9,0.3h0.6c0.2,0,0.3,0,0.6-0.2l2.3-1.5v-4.9c0-0.6,0-1.1,0.7-1.1s0.7,0.6,0.7,1.1V561.5L-447.7,561.5
			L-447.7,561.5z"/>
		<path fill="#FFFFFF" d="M-441.5,556.8v4.6c0,0.6,0,1.1-0.7,1.1s-0.7-0.6-0.7-1.1V555c0-0.6,0-1.2,0.7-1.2s0.7,0.6,0.7,1.2v0.2l0,0
			l1.2-0.9c0.3-0.2,0.9-0.6,1.4-0.6h1.2c0.6,0,1.1,0.2,1.5,0.6c0.7,0.6,0.7,1.2,0.7,2.1l0.2,5c0,0.6,0,1.2-0.7,1.2s-0.7-0.6-0.7-1.1
			l-0.2-5c0-1.1,0-1.4-1.1-1.4h-0.6c-0.2,0-0.3,0-0.6,0.2L-441.5,556.8z"/>
		<path fill="#FFFFFF" d="M-426.5,553.6c0.6,0,1.1,0.3,1.5,0.9l0.2,0.2v-3.3c0-0.6,0-1.1,0.7-1.1s0.7,0.6,0.7,1.1v9.9
			c0,0.6,0,1.1-0.7,1.1s-0.7-0.6-0.7-1.1l0,0l-0.3,0.3c-0.6,0.6-1.1,0.9-1.5,0.9h-1.5c-0.6,0-1.1-0.3-1.4-0.6l-0.6-0.6
			c-0.7-0.6-0.9-1.1-0.9-1.8v-3.2c0-0.9,0.2-1.2,0.9-1.8l0.6-0.6c0.6-0.3,0.9-0.6,1.5-0.6L-426.5,553.6L-426.5,553.6z M-429.4,559
			c0,0.3,0,1.1,0.2,1.2l0.6,0.3c0.2,0.2,0.3,0.3,0.6,0.3h1.1c0.2,0,0.6-0.2,0.7-0.3l0.9-0.7c0.2-0.2,0.6-0.3,0.6-0.7v-2
			c0-0.3-0.2-0.6-0.6-0.7l-0.9-0.7c-0.3-0.2-0.6-0.3-0.7-0.3h-1.1c-0.2,0-0.3,0.2-0.6,0.3l-0.6,0.3c-0.2,0.2-0.2,0.7-0.2,1.2V559z"
			/>
		<path fill="#FFFFFF" d="M-415.9,555.2c-0.6,0-1.1,0-1.1-0.7s0.6-0.7,1.1-0.7h2.1c0.9,0,1.4,0,2,0.7c0.6,0.6,0.7,1.1,0.7,2l0.2,5.3
			c0,0.6-0.2,0.9-0.7,0.9c-0.3,0-0.9-0.3-0.9-0.7l-1.1,0.6c-0.3,0.2-0.6,0.2-1.1,0.2h-1.5c-0.7,0-1.2,0-1.8-0.6
			c-0.7-0.6-0.9-1.1-0.9-2v-0.7c0-0.7,0.2-1.2,0.7-1.8c0.6-0.6,1.2-0.6,1.8-0.6h3.3v-0.3c0-1.2-0.2-1.4-1.4-1.4L-415.9,555.2
			L-415.9,555.2L-415.9,555.2z M-415.9,558.5c-0.3,0-1.1,0-1.1,0.7v1.1c0,0.6,0.7,0.7,1.1,0.7h1.8l1.8-0.9v-0.3
			c0-0.9-0.2-1.2-1.1-1.2L-415.9,558.5L-415.9,558.5z"/>
		<path fill="#FFFFFF" d="M-403,559.5c0,0.9,0,1.4,1.1,1.4h0.9c0.7,0,0.9,0,1.1-0.7c0-0.3,0.3-0.7,0.7-0.7s0.9,0.3,0.9,0.7
			c0,0.3-0.2,1.1-0.6,1.4c-0.6,0.7-1.4,0.9-2.1,0.9h-0.9c-0.7,0-1.5-0.2-2.1-0.7c-0.6-0.7-0.6-1.4-0.6-2.1v-4.4h-0.3
			c-0.6,0-1.1,0-1.1-0.7s0.6-0.7,1.1-0.7h0.6v-1.5c0-0.6,0-1.1,0.7-1.1s0.7,0.6,0.7,1.1v1.5h2.6c0.6,0,1.1,0,1.1,0.7
			s-0.7,0.7-1.1,0.7h-2.6L-403,559.5L-403,559.5z"/>
		<path fill="#FFFFFF" d="M-389.2,561h1.2c0.6,0,1.1,0,1.1,0.7s-0.7,0.7-1.1,0.7h-4.1c-0.6,0-1.1,0-1.1-0.7s0.6-0.7,1.1-0.7h1.2
			v-5.8h-1.2c-0.6,0-1.1,0-1.1-0.7s0.6-0.7,1.1-0.7h1.5c0.9,0,1.2,0.2,1.2,1.1L-389.2,561L-389.2,561z M-391.8,550.5
			c0-0.6,0.3-0.7,0.7-0.7h0.9c0.3,0,0.7,0.2,0.7,0.7v0.7c0,0.6-0.3,0.7-0.7,0.7h-0.9c-0.3,0-0.7-0.2-0.7-0.7V550.5z"/>
		<path fill="#FFFFFF" d="M-381.7,556.6c0-1.1,0.2-1.4,1.1-2.1c0.7-0.7,1.2-0.9,2.3-0.9h1.2c1.1,0,1.5,0.2,2.3,0.9
			c0.9,0.7,1.1,1.1,1.1,2.1v3c0,1.1-0.2,1.4-1.1,2.1s-1.2,0.9-2.1,0.9h-1.2c-1.1,0-1.4-0.2-2.1-0.9c-0.9-0.7-1.1-1.1-1.1-2.1v-3
			H-381.7z M-380.1,559.6c0,0.3,0,0.6,0.6,0.9c0.3,0.3,0.6,0.3,1.1,0.3h1.2c0.6,0,0.7-0.2,1.1-0.3c0.6-0.3,0.6-0.6,0.6-0.9v-3
			c0-0.3,0-0.6-0.6-0.9c-0.3-0.3-0.6-0.3-1.1-0.3h-1.2c-0.6,0-0.7,0.2-1.1,0.3c-0.6,0.3-0.6,0.6-0.6,0.9V559.6z"/>
		<path fill="#FFFFFF" d="M-367.7,556.8v4.6c0,0.6,0,1.1-0.9,1.1s-0.7-0.6-0.7-1.1V555c0-0.6,0-1.2,0.7-1.2s0.9,0.6,0.9,1.2v0.2l0,0
			l1.2-0.9c0.3-0.2,0.9-0.6,1.4-0.6h1.2c0.6,0,1.1,0.2,1.5,0.6c0.7,0.6,0.7,1.2,0.7,2.1l0.2,5c0,0.6,0,1.2-0.7,1.2s-0.7-0.6-0.9-1.1
			l-0.2-5c0-1.1,0-1.4-1.1-1.4h-0.6c-0.2,0-0.3,0-0.6,0.2L-367.7,556.8z"/>
		<path fill="#FFFFFF" d="M-343.2,556.8v4.6c0,0.6,0,1.1-0.9,1.1c-0.7,0-0.7-0.6-0.7-1.1V555c0-0.6,0-1.2,0.7-1.2s0.9,0.6,0.9,1.2
			v0.2l0,0l1.2-0.9c0.3-0.2,0.9-0.6,1.4-0.6h1.2c0.6,0,1.1,0.2,1.5,0.6c0.7,0.6,0.7,1.2,0.7,2.1l0.2,5c0,0.6,0,1.2-0.7,1.2
			s-0.7-0.6-0.9-1.1l-0.2-5c0-1.1,0-1.4-1.1-1.4h-0.6c-0.2,0-0.3,0-0.6,0.2L-343.2,556.8z"/>
		<path fill="#FFFFFF" d="M-329.7,562.5c-0.7,0-0.9,0-1.4-0.3l-0.7-0.6c-0.7-0.6-0.9-0.9-0.9-1.8v-3c0-0.9,0-1.4,0.7-2l0.6-0.6
			c0.7-0.7,1.1-0.7,1.8-0.7h1.4c0.7,0,1.2,0,1.8,0.6l0.7,0.6c0.7,0.6,0.9,1.2,0.9,2.1v1.2c0,0.9-0.2,1.2-1.1,1.2h-5.1v0.6
			c0,0.2,0,0.3,0.2,0.6l0.3,0.3c0.2,0.2,0.6,0.3,1.1,0.3h3.3c0.6,0,1.1,0,1.1,0.7s-0.7,0.7-1.1,0.7L-329.7,562.5L-329.7,562.5z
			 M-331,557.5h4.6v-0.9c0-0.3,0-0.6-0.2-0.7l-0.6-0.6c-0.2-0.2-0.6-0.2-0.7-0.2h-1.4c-0.3,0-0.6,0-0.9,0.2l-0.6,0.3
			c-0.2,0.2-0.3,0.2-0.3,0.7L-331,557.5L-331,557.5z"/>
		<path fill="#FFFFFF" d="M-315.6,558.8l0.9,1.5l0.6-1.5l0.2-4.1c0-0.6,0-1.2,0.9-1.2c0.7,0,0.7,0.6,0.7,1.2l-0.2,4.4l-0.7,2.3
			c-0.2,0.6-0.2,1.1-0.9,1.1h-0.6c-0.2,0-0.6-0.3-0.7-0.6l-0.9-1.2l-0.9,1.2c-0.2,0.2-0.3,0.6-0.7,0.6h-0.6c-0.6,0-0.7-0.6-0.9-1.1
			l-0.7-2.3l-0.2-4.4c0-0.6,0-1.2,0.7-1.2s0.7,0.6,0.7,1.2l0.2,4.1l0.6,1.5l0.9-1.5v-1.4c0-0.6,0-1.1,0.7-1.1s0.9,0.6,0.9,1.1V558.8
			L-315.6,558.8z"/>
		<path fill="#FFFFFF" d="M-291,556.3v5.1c0,0.6,0,1.1-0.9,1.1c-0.7,0-0.7-0.6-0.7-1.1v-5.3c0-0.2,0-0.7-0.3-0.7
			c-0.2,0-0.3,0.2-0.3,0.2l-0.7,0.7v5.1c0,0.6,0,1.1-0.9,1.1c-0.7,0-0.7-0.6-0.7-1.1v-6.7c0-0.6,0.2-1.1,0.9-1.1
			c0.3,0,0.7,0.2,0.7,0.7h0.2c0.3-0.3,0.7-0.6,1.2-0.6s1.1,0.3,1.4,0.7l0.2-0.2c0.6-0.6,0.7-0.7,1.4-0.7c0.6,0,1.1,0.2,1.4,0.7
			c0.3,0.6,0.3,1.1,0.3,1.5l0.2,5.5c0,0.6,0,1.2-0.7,1.2s-0.7-0.6-0.9-1.1l-0.2-5.3c0-0.2,0-0.9-0.3-0.9c-0.2,0-0.6,0.3-0.7,0.6
			L-291,556.3z"/>
		<path fill="#FFFFFF" d="M-277.2,555.6v-0.9c0-0.6,0-1.1,0.7-1.1s0.9,0.6,0.9,1.1v0.7c0,0.3,0,0.7-0.2,1.1l-4.1,8.6
			c-0.3,0.7-0.6,0.9-1.2,0.9h-1.2c-0.6,0-1.1,0-1.1-0.7s0.6-0.7,1.1-0.7h1.1l1.2-2.4l0,0c-0.7,0-0.7-0.3-0.9-0.9l-2-4.4
			c-0.2-0.6-0.3-0.9-0.3-1.4v-0.7c0-0.6,0-1.1,0.7-1.1s0.9,0.6,0.9,1.1v0.9l2.1,4.6h0.3L-277.2,555.6z"/>
		<path fill="#FFFFFF" d="M-263.3,559.2c0,1.2,0,1.5-1.1,2.3l-0.9,0.7c-0.3,0.2-0.9,0.7-1.2,0.7h-1.1c-0.7,0-1.1-0.6-1.5-0.9
			l-0.3-0.3v3.2c0,0.6,0,1.1-0.9,1.1c-0.7,0-0.7-0.6-0.7-1.1v-10c0-0.6,0-1.2,0.7-1.2s0.9,0.6,0.9,1.1v0.2l0.3-0.2
			c0.3-0.3,1.1-0.9,1.5-0.9h1.1c0.3,0,0.9,0.3,1.4,0.7l0.9,0.7c0.9,0.7,1.1,1.2,1.1,2.3v1.8L-263.3,559.2L-263.3,559.2z
			 M-264.8,557.2c0-0.3,0-0.6-0.3-0.7l-1.2-1.1c-0.2-0.2-0.3-0.2-0.6-0.2h-0.3c-0.2,0-0.6,0.3-0.7,0.6l-1.1,0.9
			c-0.3,0.3-0.3,0.6-0.3,0.9v1.5c0,0.2,0,0.6,0.2,0.7l1.2,1.2c0.2,0.2,0.6,0.3,0.7,0.3h0.3c0.2,0,0.3-0.2,0.6-0.2l1.2-1.1
			c0.2-0.2,0.3-0.3,0.3-0.7L-264.8,557.2L-264.8,557.2z"/>
		<path fill="#FFFFFF" d="M-258.9,554.8c0-0.6,0-1.2,0.7-1.2s0.9,0.6,0.9,1.1v0.7l1.2-1.1c0.3-0.3,0.9-0.7,1.4-0.7h1.2
			c0.6,0,1.1,0.2,1.5,0.7c0.4,0.4,0.7,1.1,0.7,1.8c0,0.6,0,1.1-0.7,1.1c-0.6,0-0.9-0.6-0.9-1.1c0-0.2,0-0.6-0.2-0.7
			c-0.2-0.1-0.6-0.2-0.9-0.2h-0.6c-0.3,0-0.6,0.2-0.9,0.3l-2.1,1.8v4.1c0,0.6,0,1.1-0.9,1.1c-0.7,0-0.7-0.6-0.7-1.1L-258.9,554.8
			L-258.9,554.8z"/>
		<path fill="#FFFFFF" d="M-246.5,556.6c0-1.1,0.2-1.4,1.1-2.1c0.7-0.7,1.2-0.9,2.3-0.9h1.2c1.1,0,1.5,0.2,2.3,0.9
			c0.9,0.7,1.1,1.1,1.1,2.1v3c0,1.1-0.2,1.4-1.1,2.1c-0.9,0.7-1.2,0.9-2.1,0.9h-1.2c-1.1,0-1.4-0.2-2.1-0.9
			c-0.9-0.7-1.1-1.1-1.1-2.1v-3H-246.5z M-245,559.6c0,0.3,0,0.6,0.6,0.9c0.3,0.3,0.6,0.3,1.1,0.3h1.2c0.6,0,0.7-0.2,1.1-0.3
			c0.6-0.3,0.6-0.6,0.6-0.9v-3c0-0.3,0-0.6-0.6-0.9c-0.3-0.3-0.6-0.3-1.1-0.3h-1.2c-0.6,0-0.7,0.2-1.1,0.3c-0.6,0.3-0.6,0.6-0.6,0.9
			V559.6z"/>
		<path fill="#FFFFFF" d="M-227.3,563c0,0.9,0,1.5-0.7,2.3c-0.7,0.7-1.4,0.7-1.8,0.7h-1.4c-0.3,0-1.1,0-1.5-0.3
			c-0.6-0.3-0.9-1.1-0.9-1.5c0-0.3,0.3-0.7,0.7-0.7s0.7,0.2,0.9,0.7c0.2,0.6,0.3,0.7,1.1,0.7h1.1c1.1,0,1.1-0.3,1.1-1.4v-7.7h-1.8
			c-0.6,0-1.1,0-1.1-0.7s0.6-0.7,1.1-0.7h2.3c0.9,0,1.2,0.2,1.2,1.1L-227.3,563L-227.3,563z M-229.5,550.5c0-0.6,0.3-0.7,0.7-0.7
			h0.9c0.3,0,0.7,0.2,0.7,0.7v0.7c0,0.6-0.3,0.7-0.7,0.7h-0.9c-0.3,0-0.7-0.2-0.7-0.7V550.5z"/>
		<path fill="#FFFFFF" d="M-218.9,562.5c-0.7,0-0.9,0-1.4-0.3l-0.7-0.6c-0.7-0.6-0.9-0.9-0.9-1.8v-3c0-0.9,0-1.4,0.7-2l0.6-0.6
			c0.7-0.7,1.1-0.7,1.8-0.7h1.4c0.7,0,1.2,0,1.8,0.6l0.7,0.6c0.7,0.6,0.9,1.2,0.9,2.1v1.2c0,0.9-0.2,1.2-1.1,1.2h-5.1v0.6
			c0,0.2,0,0.3,0.2,0.6l0.3,0.3c0.2,0.2,0.6,0.3,1.1,0.3h3.3c0.6,0,1.1,0,1.1,0.7s-0.7,0.7-1.1,0.7L-218.9,562.5L-218.9,562.5z
			 M-220.3,557.5h4.6v-0.9c0-0.3,0-0.6-0.2-0.7l-0.6-0.6c-0.2-0.2-0.6-0.2-0.7-0.2h-1.4c-0.3,0-0.6,0-0.9,0.2l-0.6,0.3
			c-0.2,0.2-0.3,0.2-0.3,0.7L-220.3,557.5L-220.3,557.5z"/>
		<path fill="#FFFFFF" d="M-209.6,557.5c0-1.1,0.2-1.4,0.9-2.1l1.2-1.1c0.7-0.6,1.1-0.7,2.1-0.7h2.4c0.6,0,1.1,0,1.1,0.7
			s-0.7,0.7-1.1,0.7h-2.9c-0.3,0-0.7,0.2-0.9,0.3l-0.9,0.9c-0.2,0.2-0.3,0.3-0.3,0.7v2c0,0.3,0.2,0.6,0.3,0.7l0.9,0.9
			c0.2,0.2,0.6,0.3,0.9,0.3h2.9c0.6,0,1.1,0,1.1,0.7s-0.6,0.7-1.1,0.7h-2.4c-0.9,0-1.4,0-2.1-0.7l-1.2-1.1c-0.7-0.7-0.9-1.1-0.9-2.1
			V557.5z"/>
		<path fill="#FFFFFF" d="M-194.1,559.5c0,0.9,0,1.4,1.1,1.4h0.9c0.7,0,0.9,0,1.1-0.7c0-0.3,0.3-0.7,0.7-0.7s0.9,0.3,0.9,0.7
			c0,0.3-0.2,1.1-0.6,1.4c-0.6,0.7-1.4,0.9-2.1,0.9h-0.9c-0.9,0-1.5-0.2-2.1-0.7c-0.6-0.7-0.6-1.4-0.6-2.1v-4.4h-0.6
			c-0.6,0-1.1,0-1.1-0.7s0.6-0.7,1.1-0.7h0.6v-1.5c0-0.6,0-1.1,0.7-1.1s0.9,0.6,0.9,1.1v1.5h2.6c0.6,0,1.1,0,1.1,0.7
			s-0.7,0.7-1.1,0.7h-2.6L-194.1,559.5L-194.1,559.5z"/>
	</g>
	<rect x="-176.6" y="534" display="inline" fill="#738083" width="9.2" height="32.4"/>
	<g display="inline">
		<path fill="#738083" d="M-497.8,526.3c0.3,0,0.9,0.2,0.9,0.9c0,0.7-0.3,0.9-0.9,0.9h-7.4v-12c0-0.6,0.2-0.9,0.9-0.9
			c0.7,0,0.9,0.3,0.9,0.9v10.4h5.6V526.3L-497.8,526.3z"/>
		<path fill="#738083" d="M-489.9,520.6c-0.6,0-1.1,0-1.1-0.7s0.6-0.7,1.1-0.7h2.1c0.9,0,1.4,0,2,0.7s0.7,1.1,0.7,2l0.2,5.3
			c0,0.6-0.2,0.9-0.7,0.9c-0.3,0-0.9-0.3-0.9-0.7l-1.1,0.6c-0.3,0.2-0.6,0.2-1.1,0.2h-1.5c-0.7,0-1.2,0-1.8-0.6
			c-0.7-0.6-0.9-1.1-0.9-2v-0.7c0-0.7,0.2-1.2,0.7-1.8c0.6-0.6,1.2-0.6,1.8-0.6h3.3v-0.3c0-1.2-0.2-1.4-1.4-1.4L-489.9,520.6
			L-489.9,520.6z M-489.9,524c-0.3,0-1.1,0-1.1,0.7v1.1c0,0.6,0.7,0.7,1.1,0.7h1.8l1.8-0.9v-0.4c0-0.9-0.2-1.2-1.1-1.2
			C-487.7,524-489.9,524-489.9,524z"/>
		<path fill="#738083" d="M-477.5,520.6c-0.3,0-0.9,0-0.9,0.3c0,0.2,0.2,0.3,0.3,0.6l3.9,1.8c1.1,0.6,1.5,1.1,1.5,2.3
			c0,1.5-1.1,2.3-2.6,2.3h-2.4c-0.9,0-1.4,0-2-0.6c-0.3-0.2-0.7-0.6-0.7-0.9s0.3-0.7,0.9-0.7c0.2,0,0.3,0,0.6,0.2
			c0.2,0.3,0.7,0.3,1.2,0.3h2.1c0.6,0,1.4,0,1.4-0.9c0-0.3-0.6-0.7-0.9-0.7l-3.8-1.5c-0.9-0.3-1.4-0.9-1.4-2c0-1.2,1.1-2,2.1-2h2.6
			c0.9,0,1.2,0,1.8,0.6c0.3,0.2,0.7,0.3,0.7,0.9c0,0.3-0.3,0.7-0.9,0.7c-0.3,0-0.6,0-0.7-0.3c-0.2-0.2-0.6-0.3-1.1-0.3L-477.5,520.6
			L-477.5,520.6L-477.5,520.6z"/>
		<path fill="#738083" d="M-464.8,524.8c0,0.9,0,1.4,1.1,1.4h0.9c0.7,0,0.9,0,1.1-0.7c0-0.3,0.3-0.7,0.7-0.7s0.9,0.3,0.9,0.7
			s-0.2,1.1-0.6,1.4c-0.6,0.7-1.4,0.9-2.1,0.9h-0.9c-0.7,0-1.5-0.2-2.1-0.7c-0.6-0.7-0.6-1.4-0.6-2.1v-4.4h-0.6
			c-0.6,0-1.1,0-1.1-0.7s0.6-0.7,1.1-0.7h0.6v-1.5c0-0.6,0-1.1,0.7-1.1s0.7,0.6,0.7,1.1v1.5h2.6c0.6,0,1.1,0,1.1,0.7
			s-0.7,0.7-1.1,0.7h-2.6L-464.8,524.8L-464.8,524.8z"/>
		<path fill="#738083" d="M-438.7,526.3h1.2c0.6,0,1.1,0,1.1,0.7s-0.7,0.7-1.1,0.7h-4.1c-0.6,0-1.1,0-1.1-0.7s0.6-0.7,1.1-0.7h1.2
			v-9h-1.2c-0.6,0-1.1,0-1.1-0.7s0.6-0.7,1.1-0.7h1.5c0.9,0,1.2,0.2,1.2,1.1L-438.7,526.3L-438.7,526.3z"/>
		<path fill="#738083" d="M-431.2,522.1c0-1.1,0.2-1.4,1.1-2.1c0.7-0.7,1.2-0.9,2.3-0.9h1.2c1.1,0,1.5,0.2,2.3,0.9
			c0.7,0.7,1.1,1.1,1.1,2.1v3c0,1.1-0.2,1.4-1.1,2.1s-1.2,0.9-2.1,0.9h-1.2c-1.1,0-1.4-0.2-2.1-0.9c-0.9-0.7-1.1-1.1-1.1-2.1
			L-431.2,522.1L-431.2,522.1z M-429.5,524.8c0,0.3,0,0.6,0.6,0.9c0.3,0.3,0.6,0.3,1.1,0.3h1.2c0.6,0,0.7-0.2,1.1-0.3
			c0.6-0.3,0.6-0.6,0.6-0.9v-3c0-0.3,0-0.6-0.6-0.9c-0.3-0.3-0.6-0.3-1.1-0.3h-1.2c-0.6,0-0.7,0.2-1.1,0.3c-0.6,0.3-0.6,0.6-0.6,0.9
			V524.8z"/>
		<path fill="#738083" d="M-418.8,522.1c0-0.7,0.2-1.4,0.6-1.5l1.2-0.9c0.3-0.2,0.6-0.3,1.1-0.3h1.5c0.3,0,0.9,0.3,1.5,0.7l0.3,0.3
			v-0.2c0-0.6,0.2-0.9,0.9-0.9c0.7,0,0.7,0.6,0.7,1.1v7.7c0,1.4,0,1.8-0.7,2.3l-0.6,0.3c-0.7,0.6-1.1,0.7-2,0.7h-2.6
			c-0.6,0-1.1,0-1.1-0.7s0.6-0.7,1.1-0.7h3c0.3,0,0.6-0.2,0.7-0.3l0.3-0.3c0.2-0.2,0.2-0.3,0.2-0.7v-2.1l-0.3,0.3
			c-0.3,0.3-0.9,0.7-1.4,0.7h-1.8c-0.3,0-0.7,0-1.2-0.6l-1.1-0.9c-0.6-0.3-0.6-0.9-0.6-1.5L-418.8,522.1L-418.8,522.1z
			 M-417.2,524.2c0,0.3,0,0.7,0.2,0.9l0.7,0.6c0,0,0.2,0.2,0.6,0.2h1.2c0.2,0,0.3-0.2,0.7-0.3l1.2-1.1c0,0,0.2-0.3,0.2-0.6v-1.3
			c0-0.2,0-0.3-0.2-0.6l-1.2-1.1c-0.3-0.2-0.6-0.3-0.7-0.3h-1.2c-0.2,0-0.3,0-0.6,0.2l-0.7,0.6c-0.2,0.2-0.2,0.6-0.2,0.9V524.2z"/>
		<path fill="#738083" d="M-401.8,526.3h1.2c0.6,0,1.1,0,1.1,0.7s-0.7,0.7-1.1,0.7h-4.1c-0.6,0-1.1,0-1.1-0.7s0.6-0.7,1.1-0.7h1.2
			v-5.8h-1.2c-0.6,0-1.1,0-1.1-0.7s0.6-0.7,1.1-0.7h1.5c0.9,0,1.2,0.2,1.2,1.1L-401.8,526.3L-401.8,526.3z M-404.3,516
			c0-0.6,0.3-0.7,0.7-0.7h0.9c0.3,0,0.7,0.2,0.7,0.7v0.7c0,0.6-0.3,0.7-0.7,0.7h-0.9c-0.3,0-0.7-0.2-0.7-0.7V516z"/>
		<path fill="#738083" d="M-392.7,522.2v4.6c0,0.6,0,1.1-0.7,1.1s-0.7-0.6-0.7-1.1v-6.5c0-0.6,0-1.2,0.7-1.2s0.7,0.6,0.7,1.2v0.2
			l0,0l1.2-0.9c0.3-0.2,0.9-0.6,1.4-0.6h1.2c0.6,0,1.1,0.2,1.5,0.6c0.7,0.6,0.7,1.2,0.7,2.1l0.2,5c0,0.6,0,1.2-0.7,1.2
			s-0.7-0.6-0.7-1.1l-0.2-5c0-1.1,0-1.4-1.1-1.4h-0.6c-0.2,0-0.3,0-0.6,0.2L-392.7,522.2z"/>
		<path fill="#738083" d="M-378.7,520.1c-0.3,0-0.7,0-0.9-0.3c-0.2-0.2-0.2-0.3-0.2-0.7v-1c0-0.3,0-0.6,0.2-0.7
			c0.2-0.3,0.6-0.3,0.9-0.3h1.2c0.3,0,0.7,0,0.9,0.3c0.2,0.2,0.2,0.3,0.2,0.7v0.9c0,0.3,0,0.6-0.2,0.7c-0.2,0.3-0.6,0.3-0.9,0.3
			L-378.7,520.1L-378.7,520.1z M-378.7,526c-0.3,0-0.7,0-0.9-0.3c-0.2-0.2-0.2-0.3-0.2-0.7V524c0-0.3,0-0.6,0.2-0.7
			c0.2-0.3,0.6-0.3,0.9-0.3h1.2c0.3,0,0.7,0,0.9,0.3c0.2,0.2,0.2,0.3,0.2,0.7v0.9c0,0.3,0,0.6-0.2,0.7c-0.2,0.3-0.6,0.3-0.9,0.3
			H-378.7z"/>
		<path fill="#738083" d="M-354.2,524.8c0,0.9,0,1.4,1.1,1.4h0.9c0.7,0,0.9,0,1.1-0.7c0-0.3,0.3-0.7,0.7-0.7c0.3,0,0.9,0.3,0.9,0.7
			s-0.2,1.1-0.6,1.4c-0.6,0.7-1.4,0.9-2.1,0.9h-0.9c-0.9,0-1.5-0.2-2.1-0.7c-0.6-0.7-0.6-1.4-0.6-2.1v-4.4h-0.6
			c-0.6,0-1.1,0-1.1-0.7s0.6-0.7,1.1-0.7h0.6v-1.5c0-0.6,0-1.1,0.7-1.1s0.9,0.6,0.9,1.1v1.5h2.6c0.6,0,1.1,0,1.1,0.7
			s-0.7,0.7-1.1,0.7h-2.6V524.8L-354.2,524.8z"/>
		<path fill="#738083" d="M-345.1,522.1c0-1.1,0.2-1.4,1.1-2.1c0.7-0.7,1.2-0.9,2.3-0.9h1.2c1.1,0,1.5,0.2,2.3,0.9
			c0.9,0.7,1.1,1.1,1.1,2.1v3c0,1.1-0.2,1.4-1.1,2.1s-1.2,0.9-2.1,0.9h-1.2c-1.1,0-1.4-0.2-2.1-0.9c-0.9-0.7-1.1-1.1-1.1-2.1
			L-345.1,522.1L-345.1,522.1z M-343.6,524.8c0,0.3,0,0.6,0.6,0.9c0.3,0.3,0.6,0.3,1.1,0.3h1.2c0.6,0,0.7-0.2,1.1-0.3
			c0.6-0.3,0.6-0.6,0.6-0.9v-3c0-0.3,0-0.6-0.6-0.9c-0.3-0.3-0.6-0.3-1.1-0.3h-1.2c-0.6,0-0.7,0.2-1.1,0.3c-0.6,0.3-0.6,0.6-0.6,0.9
			V524.8z"/>
		<path fill="#738083" d="M-328.4,519c0.6,0,1.1,0.3,1.5,0.9l0.2,0.2v-3.3c0-0.6,0-1.1,0.7-1.1s0.9,0.6,0.9,1.1v9.9
			c0,0.6,0,1.1-0.9,1.1c-0.6,0-0.7-0.6-0.7-1.1l0,0l-0.3,0.3c-0.6,0.6-1.1,0.9-1.5,0.9h-1.5c-0.6,0-1.1-0.3-1.4-0.6l-0.6-0.6
			c-0.7-0.6-0.9-1.1-0.9-1.8v-3.2c0-0.9,0.2-1.2,0.9-1.8l0.6-0.6c0.6-0.3,0.9-0.6,1.5-0.6h1.5V519z M-331.2,524.5
			c0,0.3,0,1.1,0.2,1.2l0.6,0.3c0.2,0.2,0.3,0.3,0.6,0.3h1.1c0.2,0,0.6-0.2,0.7-0.3l0.9-0.7c0.2-0.2,0.6-0.3,0.6-0.7v-2
			c0-0.3-0.2-0.6-0.6-0.7l-0.9-0.7c-0.3-0.2-0.6-0.3-0.7-0.3h-1.1c-0.2,0-0.3,0.2-0.6,0.3l-0.6,0.2c-0.2,0.2-0.2,0.7-0.2,1.2V524.5z
			"/>
		<path fill="#738083" d="M-317.8,520.6c-0.6,0-1.1,0-1.1-0.7s0.6-0.7,1.1-0.7h2.1c0.9,0,1.4,0,2.1,0.7c0.6,0.6,0.7,1.1,0.7,2
			l0.2,5.3c0,0.6-0.2,0.9-0.7,0.9c-0.3,0-0.9-0.3-0.9-0.7l-1.1,0.6c-0.3,0.2-0.6,0.2-1.1,0.2h-1.5c-0.7,0-1.2,0-1.8-0.6
			c-0.7-0.6-0.9-1.1-0.9-2v-0.7c0-0.7,0.2-1.2,0.7-1.8c0.6-0.6,1.2-0.6,1.8-0.6h3.3v-0.3c0-1.2-0.2-1.4-1.4-1.4L-317.8,520.6
			L-317.8,520.6z M-317.8,524c-0.3,0-1.1,0-1.1,0.7v1.1c0,0.6,0.7,0.7,1.1,0.7h1.8l1.8-0.9v-0.4c0-0.9-0.2-1.2-1.1-1.2
			C-315.6,524-317.8,524-317.8,524z"/>
		<path fill="#738083" d="M-302.1,521v-0.9c0-0.6,0-1.1,0.7-1.1s0.9,0.6,0.9,1.1v0.7c0,0.3,0,0.7-0.2,1.1l-4.1,8.6
			c-0.3,0.7-0.6,0.9-1.2,0.9h-1.2c-0.6,0-1.1,0-1.1-0.7s0.6-0.7,1.1-0.7h1.1l1.2-2.4l0,0c-0.7,0-0.7-0.3-0.9-0.9l-2-4.4
			c-0.2-0.6-0.3-0.9-0.3-1.4v-0.7c0-0.6,0-1.1,0.7-1.1s0.9,0.6,0.9,1.1v0.9l2.1,4.6h0.3L-302.1,521z"/>
		<path fill="#738083" d="M-283.6,522.1c0-1.1,0.2-1.4,1.1-2.1c0.7-0.7,1.2-0.9,2.3-0.9h1.2c1.1,0,1.5,0.2,2.3,0.9
			c0.9,0.7,1.1,1.1,1.1,2.1v3c0,1.1-0.2,1.4-1.1,2.1s-1.2,0.9-2.1,0.9h-1.2c-1.1,0-1.4-0.2-2.1-0.9c-0.9-0.7-1.1-1.1-1.1-2.1
			L-283.6,522.1L-283.6,522.1z M-282,524.8c0,0.3,0,0.6,0.6,0.9c0.3,0.3,0.6,0.3,1.1,0.3h1.2c0.6,0,0.7-0.2,1.1-0.3
			c0.6-0.3,0.6-0.6,0.6-0.9v-3c0-0.3,0-0.6-0.6-0.9c-0.3-0.3-0.6-0.3-1.1-0.3h-1.2c-0.6,0-0.7,0.2-1.1,0.3c-0.6,0.3-0.6,0.6-0.6,0.9
			V524.8z"/>
		<path fill="#738083" d="M-269.8,522.2v4.6c0,0.6,0,1.1-0.9,1.1c-0.7,0-0.7-0.6-0.7-1.1v-6.5c0-0.6,0-1.2,0.7-1.2s0.9,0.6,0.9,1.2
			v0.2l0,0l1.2-0.9c0.3-0.2,0.9-0.6,1.4-0.6h1.2c0.6,0,1.1,0.2,1.5,0.6c0.7,0.6,0.7,1.2,0.7,2.1l0.2,5c0,0.6,0,1.2-0.7,1.2
			s-0.7-0.6-0.9-1.1l-0.2-5c0-1.1,0-1.4-1.1-1.4h-0.6c-0.2,0-0.3,0-0.6,0.2L-269.8,522.2z"/>
		<path fill="#738083" d="M-243.5,524.8c0,0.9,0,1.4,1.1,1.4h0.9c0.7,0,0.9,0,1.1-0.7c0-0.3,0.3-0.7,0.7-0.7s0.9,0.3,0.9,0.7
			s-0.2,1.1-0.6,1.4c-0.6,0.7-1.4,0.9-2.1,0.9h-0.9c-0.9,0-1.5-0.2-2.1-0.7c-0.6-0.7-0.6-1.4-0.6-2.1v-4.4h-0.6
			c-0.6,0-1.1,0-1.1-0.7s0.6-0.7,1.1-0.7h0.6v-1.5c0-0.6,0-1.1,0.7-1.1s0.9,0.6,0.9,1.1v1.5h2.6c0.6,0,1.1,0,1.1,0.7
			s-0.7,0.7-1.1,0.7h-2.6L-243.5,524.8L-243.5,524.8z"/>
		<path fill="#738083" d="M-231.3,524.8c0,0.9,0,1.4,1.1,1.4h0.9c0.7,0,0.9,0,1.1-0.7c0-0.3,0.3-0.7,0.7-0.7s0.9,0.3,0.9,0.7
			s-0.2,1.1-0.6,1.4c-0.6,0.7-1.4,0.9-2.1,0.9h-0.9c-0.9,0-1.5-0.2-2.1-0.7c-0.6-0.7-0.6-1.4-0.6-2.1v-4.4h-0.6
			c-0.6,0-1.1,0-1.1-0.7s0.6-0.7,1.1-0.7h0.6v-1.5c0-0.6,0-1.1,0.7-1.1s0.9,0.6,0.9,1.1v1.5h2.6c0.6,0,1.1,0,1.1,0.7
			s-0.7,0.7-1.1,0.7h-2.6L-231.3,524.8L-231.3,524.8z"/>
		<path fill="#738083" d="M-215.9,521v-0.9c0-0.6,0-1.1,0.7-1.1s0.9,0.6,0.9,1.1v0.7c0,0.3,0,0.7-0.2,1.1l-4.1,8.6
			c-0.3,0.7-0.6,0.9-1.2,0.9h-1.2c-0.6,0-1.1,0-1.1-0.7s0.6-0.7,1.1-0.7h1.1l1.2-2.4l0,0c-0.7,0-0.7-0.3-0.9-0.9l-2-4.4
			c-0.2-0.6-0.3-0.9-0.3-1.4v-0.7c0-0.6,0-1.1,0.7-1.1s0.9,0.6,0.9,1.1v0.9l2.1,4.6h0.3L-215.9,521z"/>
		<path fill="#738083" d="M-207.1,520.6c-0.3,0-0.9,0-0.9,0.3c0,0.2,0.2,0.3,0.3,0.6l3.9,1.8c1.1,0.6,1.5,1.1,1.5,2.3
			c0,1.5-1.1,2.3-2.6,2.3h-2.4c-0.9,0-1.4,0-2-0.6c-0.3-0.2-0.7-0.6-0.7-0.9s0.3-0.7,0.9-0.7c0.2,0,0.3,0,0.6,0.2
			c0.2,0.3,0.7,0.3,1.2,0.3h2.1c0.6,0,1.4,0,1.4-0.9c0-0.3-0.6-0.7-0.9-0.7l-3.8-1.5c-0.9-0.3-1.4-0.9-1.4-2c0-1.2,1.1-2,2.1-2h2.6
			c0.9,0,1.2,0,1.8,0.6c0.3,0.2,0.7,0.3,0.7,0.9c0,0.3-0.3,0.7-0.9,0.7c-0.3,0-0.6,0-0.7-0.3c-0.2-0.2-0.6-0.3-1.1-0.3L-207.1,520.6
			L-207.1,520.6L-207.1,520.6z"/>
	</g>
	<path display="inline" fill="#738083" d="M-147.3,489.9h-382.1v-21.2c0-4.4,3.8-7.3,9.2-7.3h363.8c5.3,0,9.2,3,9.2,7.3
		L-147.3,489.9L-147.3,489.9z"/>
	<g display="inline">
		<path fill="#CDEAF5" d="M-531.8,555.6c0,0-9.2,7.4-5.5,12.7c3.6,5.3-3.8,12.1,0,16.1s-0.9,13.9,8.2,21.4c0,0,6.2-6.8,7.6-13.5
			l-2.9-0.3c0,0,9.5-3.5,15.9-10.6c0,0-7.6-1.8-14.1-1.8c0,0,10-5.1,14.8-4.4c0,0-1.4-6-7.6-7.4c0,0,6.2-7.1-2.6-10
			C-526.8,554.8-530,554.3-531.8,555.6z"/>
		<path fill="#EAF7FE" d="M-528.6,552.2c0,0-9.2,7.4-5.5,12.7c3.8,5.3-3.8,12.1,0,16.1c3.8,3.9-0.9,13.9,8.2,21.4
			c0,0,6.2-6.8,7.6-13.5l-2.9-0.3c0,0,9.5-3.5,15.9-10.6c0,0-7.6-1.8-14.1-1.8c0,0,10-5.1,14.8-4.4c0,0-1.4-6-7.6-7.4
			c0,0,6.2-7.1-2.6-10C-523.3,551.6-526.6,551-528.6,552.2z"/>
		<path fill="#CDEAF5" d="M-504.2,572.2c0,0-7.6-5.3-19.4,4.6c0,0,2.1-0.3,4.6-0.2C-519.2,576.6-508.3,571.3-504.2,572.2z"/>
		<path fill="#CDEAF5" d="M-511.8,564.8c0,0-6.8-0.9-10.4,0c0,0,4.1-5.5,12-2.3C-510.4,562.2-511,564.2-511.8,564.8z"/>
		<path fill="#CDEAF5" d="M-505.1,578.3c0,0-17,7.3-20.6,10.6c0,0,1.8-0.3,4.6,0C-521,588.8-509.3,584.2-505.1,578.3z"/>
		<path fill="#CDEAF5" d="M-518.7,590.8c0,0-5.8,7.4-9.2,9.5c0,0,1.1,1.5,2.1,2C-525.7,602.5-519.8,595.3-518.7,590.8z"/>
	</g>
	<g display="inline">
		<circle fill="#E9F7FE" cx="-519" cy="475.6" r="3.2"/>
		<circle fill="#E9F7FE" cx="-508.3" cy="475.6" r="3.2"/>
		<circle fill="#E9F7FE" cx="-497.4" cy="475.6" r="3.2"/>
	</g>
</g>
<rect x="-1364.7" y="434.9" display="none" fill="#1DACE3" width="156.2" height="51.2"/>
<rect x="-1364.7" y="592.8" display="none" fill="#F3FAFD" width="156.2" height="51.2"/>
<rect x="-1364.7" y="607.8" display="none" fill="#DCDCDB" width="156.2" height="51.2"/>
<rect x="-1364.7" y="622.5" display="none" fill="#627377" width="156.2" height="51.2"/>
<rect x="-1364.7" y="637.3" display="none" fill="#425356" width="156.2" height="51.2"/>
<rect x="-1364.7" y="456" display="none" fill="#008CBA" width="156.2" height="51.2"/>
<rect x="-1364.7" y="477.2" display="none" fill="#017499" width="156.2" height="51.2"/>
<rect x="-1364.7" y="498.6" display="none" fill="#074E68" width="156.2" height="51.2"/>
<g>
	<g>
		<g>
			<g>
				<g>
					<g>
						<path fill="#41484D" d="M430.2,499.8c4.7,0,8.6,3.9,8.6,8.6v182c0,4.7-3.9,8.6-8.6,8.6H301.8c-4.7,0-8.6-3.9-8.6-8.6v-182
							c0-4.7,3.9-8.6,8.6-8.6L430.2,499.8L430.2,499.8z"/>
					</g>
					<rect x="305.7" y="517.5" fill="#838383" width="120.7" height="164.4"/>
				</g>
				<path opacity="0.35" fill="#41484D" d="M366,686.7c2.3,0,4.1,1.8,4.1,4.1l0,0c0,2.3-1.8,4.1-4.1,4.1l0,0c-2.3,0-4.1-1.8-4.1-4.1
					l0,0C361.9,688.6,363.9,686.7,366,686.7L366,686.7z"/>
				
					<line opacity="0.35" fill="none" stroke="#4D4D4D" stroke-width="2" stroke-linecap="round" stroke-miterlimit="10" x1="358.1" y1="509.9" x2="374.2" y2="509.9"/>
			</g>
		</g>
		<g>
			<rect x="311.7" y="536.6" fill="#A6A6A6" width="108.8" height="6.4"/>
			<rect x="311.7" y="601.9" fill="#E9F7FE" width="108.8" height="9.4"/>
			<rect x="311.7" y="618.3" fill="#E9F7FE" width="108.8" height="9.4"/>
			<rect x="311.7" y="634.5" fill="#E9F7FE" width="108.8" height="9.4"/>
			<polyline fill="#E9F7FE" points="420.5,651 420.5,660.2 311.7,660.2 311.7,651 420.5,651 			"/>
			<rect x="311.7" y="667.2" fill="#E9F7FE" width="108.8" height="9.4"/>
			<rect x="311.5" y="547.2" fill="#636363" width="108.8" height="24.4"/>
			<g>
				<rect x="311.7" y="523" fill="#E6E6E6" width="52.3" height="9"/>
				<rect x="368.1" y="523" fill="#4D4D4D" width="52.3" height="9"/>
			</g>
			<g>
				<rect x="311.5" y="576.8" fill="#ECECEC" width="23.1" height="19.1"/>
				<rect x="338.6" y="576.8" fill="#ECECEC" width="25.3" height="19.1"/>
				<rect x="368" y="576.8" fill="#ECECEC" width="25.3" height="19.1"/>
				<rect x="397.2" y="576.8" fill="#ECECEC" width="23.1" height="19.1"/>
			</g>
		</g>
	</g>
</g>
<g>
	<g>
		<g>
			<g>
				<path fill="#41484D" d="M108.5,684.9v9c0,2.9-2.3,5.1-5.1,5.1h-53c-2.9,0-5.1-2.3-5.1-5.1V590.4c0-2.9,2.3-5.1,5.1-5.1h52.7
					c2.9,0,5.1,2.3,5.1,5.1v94.5"/>
			</g>
			<rect x="50.4" y="605" fill="#838383" width="52.7" height="76.6"/>
			<path opacity="0.35" fill="#41484D" d="M80.7,690.8c0,2.3-1.8,4.1-4.1,4.1l0,0c-2.3,0-4.1-1.8-4.1-4.1l0,0c0-2.3,1.8-4.1,4.1-4.1
				l0,0C78.9,686.9,80.7,688.7,80.7,690.8L80.7,690.8z"/>
			
				<line opacity="0.35" fill="none" stroke="#4D4D4D" stroke-width="2" stroke-linecap="round" stroke-miterlimit="10" x1="68.8" y1="596.5" x2="84.8" y2="596.5"/>
		</g>
		<g>
			<rect x="54.7" y="617.8" fill="#B3B3B3" width="44.6" height="4.9"/>
			<rect x="54.5" y="625.5" fill="#636363" width="44.6" height="10.1"/>
			<g>
				<rect x="54.7" y="609.1" fill="#E6E6E6" width="20.4" height="6"/>
				<rect x="78.8" y="609.1" fill="#4D4D4D" width="20.4" height="6"/>
			</g>
			<rect x="54.5" y="638.6" fill="#ECECEC" width="8.2" height="8.8"/>
			<rect x="65.9" y="638.6" fill="#ECECEC" width="9.3" height="8.8"/>
			<rect x="78.5" y="638.6" fill="#ECECEC" width="9.3" height="8.8"/>
			<rect x="91.1" y="638.6" fill="#ECECEC" width="8.2" height="8.8"/>
			<rect x="54.7" y="650.8" fill="#E9F7FE" width="44.3" height="4.2"/>
			<rect x="54.7" y="658.6" fill="#E9F7FE" width="44.3" height="4.2"/>
			<rect x="54.7" y="666.4" fill="#E9F7FE" width="44.3" height="4.2"/>
			<polyline fill="#E9F7FE" points="99.2,674.4 99.2,678.6 54.7,678.6 54.7,674.4 99.2,674.4 			"/>
		</g>
	</g>
</g>
<circle fill="#A1A1A1" cx="211" cy="635.8" r="5.6"/>
<g>
	<g>
		<g>
			<g>
				<path fill="#CFD5D8" d="M930.2,644.4c0,4.2-3.3,7.6-7.6,7.6H632.4c-4.2,0-7.6-3.3-7.6-7.6V446.2c0-4.2,3.3-7.6,7.6-7.6h290
					c4.2,0,7.6,3.3,7.6,7.6v198.2H930.2z"/>
			</g>
			<path fill="#41484D" d="M930.3,446.2v173.9H624.9V446.2c0-4.2,3.3-7.6,7.6-7.6h290C926.8,438.4,930.3,442,930.3,446.2z"/>
			<rect x="639.8" y="453.2" fill="#838383" width="275.1" height="151.5"/>
			<path fill="#CFD5D8" d="M817,647.7c0-16.1-29.7-5.3-39.5-1.2c-9.9-4.1-39.5-14.8-39.5,1.2c0,27.7-17.1,51.2-17.1,51.2h53.5h6.4
				h53.5C834.1,698.9,817,675.4,817,647.7z"/>
			<rect x="716.7" y="692.6" fill="#A1A1A1" width="121.6" height="6.4"/>
			<path opacity="0.3" fill="#A1A1A1" enable-background="new    " d="M819.1,664.8h-83c0.9-4.1,1.5-8.3,2-12.9h79.2
				C817.5,656.5,818.1,660.8,819.1,664.8z"/>
		</g>
		<g>
			<rect x="650" y="460.6" fill="#E6E6E6" width="54.9" height="15.9"/>
			<rect x="709.1" y="460.6" fill="#4D4D4D" width="195.9" height="15.9"/>
			<g>
				<rect x="650" y="563.8" fill="#ECECEC" width="60.7" height="33.8"/>
				<rect x="714.8" y="563.8" fill="#ECECEC" width="60.7" height="33.8"/>
				<rect x="779.7" y="563.8" fill="#ECECEC" width="60.7" height="33.8"/>
				<rect x="844.6" y="563.8" fill="#ECECEC" width="60.7" height="33.8"/>
			</g>
			<rect x="650" y="503.2" fill="#636363" width="254.8" height="53.6"/>
			<rect x="650" y="481.7" fill="#A6A6A6" width="254.8" height="14.3"/>
		</g>
	</g>
</g>
<g>
	<g>
		<g>
			<g>
				<g>
					<path fill="#41484D" d="M996.7,499.8c4.7,0,8.6,3.9,8.6,8.6v182c0,4.7-3.9,8.6-8.6,8.6H868.2c-4.7,0-8.6-3.9-8.6-8.6v-182
						c0-4.7,3.9-8.6,8.6-8.6L996.7,499.8L996.7,499.8z"/>
				</g>
				<rect x="872" y="517.5" fill="#838383" width="120.7" height="164.4"/>
			</g>
			<path opacity="0.35" fill="#41484D" d="M932.4,686.7c2.3,0,4.1,1.8,4.1,4.1l0,0c0,2.3-1.8,4.1-4.1,4.1l0,0
				c-2.3,0-4.1-1.8-4.1-4.1l0,0C928.4,688.6,930.3,686.7,932.4,686.7L932.4,686.7z"/>
			
				<line opacity="0.35" fill="none" stroke="#4D4D4D" stroke-width="2" stroke-linecap="round" stroke-miterlimit="10" x1="924.4" y1="509.9" x2="940.3" y2="509.9"/>
		</g>
	</g>
	<g display="none">
		<g display="inline">
			<rect x="875.9" y="535.4" fill="#3A4A4D" width="113.2" height="6.4"/>
			<rect x="875.9" y="600.2" fill="#E9F7FE" width="113.2" height="6.4"/>
			<rect x="875.9" y="609.6" fill="#E9F7FE" width="113.2" height="6.4"/>
			<rect x="875.9" y="619" fill="#E9F7FE" width="113.2" height="6.4"/>
			<polyline fill="#E9F7FE" points="989.1,628.6 989.1,634.9 875.9,634.9 875.9,628.6 989.1,628.6 			"/>
			<rect x="875.9" y="637.9" fill="#E9F7FE" width="113.2" height="6.4"/>
			<rect x="875.9" y="647.5" fill="#E9F7FE" width="113.2" height="6.4"/>
			<rect x="875.9" y="656.9" fill="#E9F7FE" width="113.2" height="6.4"/>
			<rect x="875.9" y="666.3" fill="#E9F7FE" width="113.2" height="6.4"/>
			<rect x="875.9" y="666.3" fill="#E9F7FE" width="113.2" height="6.4"/>
			<rect x="875.9" y="675.7" fill="#E9F7FE" width="113.2" height="5.8"/>
			<rect x="875.8" y="546.9" fill="#F5F5F5" width="113.2" height="24.4"/>
			<g>
				<rect x="875.9" y="522.7" fill="#E3E3E3" width="54.5" height="9"/>
				<rect x="934.6" y="522.7" fill="#626566" width="54.5" height="9"/>
			</g>
			<g>
				<rect x="875.8" y="576.5" fill="#DCDCDB" width="25.3" height="19.1"/>
				<rect x="905" y="576.5" fill="#DCDCDB" width="25.3" height="19.1"/>
				<rect x="934.4" y="576.5" fill="#DCDCDB" width="25.3" height="19.1"/>
				<rect x="963.7" y="576.5" fill="#DCDCDB" width="25.3" height="19.1"/>
			</g>
		</g>
	</g>
	<g>
		<rect x="878.3" y="556.2" fill="#A6A6A6" width="108.9" height="8.6"/>
		<rect x="878" y="571.1" fill="#636363" width="108.9" height="34.5"/>
		<g>
			<rect x="878.3" y="522.7" fill="#E6E6E6" width="52.3" height="27.4"/>
			<rect x="934.7" y="522.7" fill="#4D4D4D" width="52.3" height="27.4"/>
		</g>
		<rect x="878" y="613.1" fill="#ECECEC" width="52" height="27.8"/>
		<rect x="934.9" y="613.1" fill="#ECECEC" width="52" height="27.8"/>
		<rect x="878" y="647.8" fill="#ECECEC" width="52" height="27.8"/>
		<rect x="934.9" y="647.8" fill="#ECECEC" width="52" height="27.8"/>
	</g>
</g>
<g>
	<g>
		<g>
			<path fill="#41484D" d="M674.7,684.9v9c0,2.9-2.3,5.1-5.1,5.1h-52.7c-2.9,0-5.1-2.3-5.1-5.1V590.4c0-2.9,2.3-5.1,5.1-5.1h52.7
				c2.9,0,5.1,2.3,5.1,5.1V684.9"/>
		</g>
		<rect x="616.9" y="604.8" fill="#838383" width="52.7" height="76.6"/>
		<path opacity="0.35" fill="#41484D" d="M647.2,690.8c0,2.3-1.8,4.1-4.1,4.1l0,0c-2.3,0-4.1-1.8-4.1-4.1l0,0c0-2.3,1.8-4.1,4.1-4.1
			l0,0C645.4,686.9,647.2,688.7,647.2,690.8L647.2,690.8z"/>
		
			<line opacity="0.35" fill="none" stroke="#4D4D4D" stroke-width="2" stroke-linecap="round" stroke-miterlimit="10" x1="635.2" y1="596.3" x2="651.3" y2="596.3"/>
	</g>
	<g>
		<rect x="621.1" y="637.6" fill="#A6A6A6" width="44.3" height="8.2"/>
		<rect x="621.1" y="649.4" fill="#636363" width="44.6" height="17.4"/>
		<g>
			<rect x="621.1" y="608" fill="#E6E6E6" width="44.3" height="13.9"/>
			<rect x="621.1" y="626.5" fill="#4D4D4D" width="44.6" height="7.5"/>
		</g>
		<rect x="621.1" y="671.4" fill="#ECECEC" width="44.6" height="5.5"/>
	</g>
</g>
<circle fill="#A1A1A1" cx="777.5" cy="635.8" r="5.6"/>
<g>
	<g>
		
			<line fill="none" stroke="#D1D3D4" stroke-width="7" stroke-linecap="square" stroke-miterlimit="10" x1="543.7" y1="571" x2="493.1" y2="571"/>
		<g>
			<polygon fill="#D1D3D4" points="540.2,558.5 561.9,571 540.2,583.3 			"/>
		</g>
	</g>
</g>
</svg>
