<?xml version="1.0" encoding="utf-8"?>
<!-- Generator: Adobe Illustrator 17.0.2, SVG Export Plug-In . SVG Version: 6.00 Build 0)  -->
<!DOCTYPE svg PUBLIC "-//W3C//DTD SVG 1.1//EN" "http://www.w3.org/Graphics/SVG/1.1/DTD/svg11.dtd">
<svg version="1.1" id="Layer_1" xmlns="http://www.w3.org/2000/svg" xmlns:xlink="http://www.w3.org/1999/xlink" x="0px" y="0px"
	 width="180px" height="144px" viewBox="0 0 180 144" enable-background="new 0 0 180 144" xml:space="preserve">
<g id="Layer_1_1_" display="none">
	<g display="inline" opacity="0.5">
		<g>
			<path fill="#CFD5D8" d="M167.6,123.4c0,2-1.6,3.6-3.6,3.6H16.1c-2,0-3.6-1.6-3.6-3.6V20.3c0-2,1.6-3.6,3.6-3.6H164
				c2,0,3.6,1.6,3.6,3.6V123.4z"/>
		</g>
	</g>
	<g display="inline">
		<rect x="12.5" y="34" fill="#CFD5D8" width="155" height="36.8"/>
	</g>
	<g display="inline">
		<rect x="25.9" y="80.6" fill="#FFFFFF" width="33.8" height="19.7"/>
	</g>
	<g display="inline">
		<rect x="119.3" y="80.6" fill="#F3F3F3" width="33.8" height="38.6"/>
	</g>
	<g display="inline">
		<rect x="71.5" y="80.6" fill="#F3F3F3" width="33.8" height="38.6"/>
	</g>
	<g display="inline">
		<rect x="119.3" y="80.6" fill="#CFD5D8" width="33.8" height="20.1"/>
	</g>
	<g display="inline">
		<rect x="71.5" y="80.6" fill="#CFD5D8" width="33.8" height="20.1"/>
	</g>
	<g display="inline">
		<circle fill="#CFD5D8" cx="88.4" cy="41.6" r="16.5"/>
	</g>
	<g display="inline">
		<circle fill="#CFD5D8" cx="88.4" cy="95.3" r="7.7"/>
	</g>
	<g display="inline">
		<circle fill="#CFD5D8" cx="136.2" cy="95.3" r="7.7"/>
	</g>
	<g display="inline">
		<circle fill="#CFD5D8" cx="32.1" cy="112.7" r="6.2"/>
	</g>
	<g display="inline">
		
			<rect x="30.096" y="97.896" transform="matrix(0.7071 0.7071 -0.7071 0.7071 79.9878 6.584)" fill="#FFFFFF" width="3.9" height="3.9"/>
	</g>
	<g display="inline" opacity="0.5">
		<rect x="29.3" y="86.6" fill="#CFD5D8" width="25.9" height="3.6"/>
	</g>
	<g display="inline" opacity="0.5">
		<rect x="29.3" y="92.7" fill="#CFD5D8" width="19.6" height="3.6"/>
	</g>
	<g display="inline" opacity="0.5">
		<rect x="75.5" y="106" fill="#CFD5D8" width="25.8" height="3.6"/>
	</g>
	<g display="inline" opacity="0.5">
		<rect x="75.5" y="112.1" fill="#CFD5D8" width="22.4" height="3.6"/>
	</g>
	<g display="inline" opacity="0.5">
		<rect x="123.3" y="106" fill="#CFD5D8" width="22" height="3.6"/>
	</g>
	<g display="inline" opacity="0.5">
		<rect x="123.3" y="112.1" fill="#CFD5D8" width="24.8" height="3.6"/>
	</g>
	<g display="inline" opacity="0.3">
		<rect x="75.8" y="57.4" fill="#78888D" width="25.3" height="7.2"/>
	</g>
	<g display="inline">
		<rect x="47.8" y="42.2" fill="#78888D" width="81.2" height="3.6"/>
	</g>
	<g display="inline">
		<rect x="57.7" y="48.2" fill="#78888D" width="61.5" height="3.6"/>
	</g>
	<g display="inline">
		<path fill="#F26A22" d="M138.2,120.5c-2.7,0-4.8-2.2-4.8-4.8s2.2-4.8,4.8-4.8c2.7,0,4.8,2.2,4.8,4.8S140.8,120.5,138.2,120.5z
			 M138.2,112.8c-1.6,0-2.8,1.3-2.8,2.8s1.3,2.8,2.8,2.8s2.8-1.3,2.8-2.8S139.7,112.8,138.2,112.8z"/>
	</g>
	<g display="inline">
		<path fill="#F26A22" d="M138.2,123.4c-4.3,0-7.7-3.5-7.7-7.7s3.5-7.7,7.7-7.7s7.7,3.5,7.7,7.7S142.4,123.4,138.2,123.4z
			 M138.2,108.9c-3.7,0-6.7,3-6.7,6.7s3,6.7,6.7,6.7s6.7-3,6.7-6.7S141.9,108.9,138.2,108.9z"/>
	</g>
	<g display="inline">
		<path fill="#F26A22" d="M51,106.3c-2.7,0-4.8-2.2-4.8-4.8c0-2.7,2.2-4.8,4.8-4.8s4.8,2.2,4.8,4.8C55.8,104.2,53.7,106.3,51,106.3z
			 M51,98.7c-1.6,0-2.8,1.3-2.8,2.8s1.3,2.8,2.8,2.8s2.8-1.3,2.8-2.8S52.5,98.7,51,98.7z"/>
	</g>
	<g display="inline">
		<path fill="#F26A22" d="M51,109.2c-4.3,0-7.7-3.5-7.7-7.7s3.5-7.7,7.7-7.7s7.7,3.5,7.7,7.7S55.3,109.2,51,109.2z M51,94.8
			c-3.7,0-6.7,3-6.7,6.7s3,6.7,6.7,6.7s6.7-3,6.7-6.7S54.7,94.8,51,94.8z"/>
	</g>
	<g display="inline">
		<path fill="#F26A22" d="M99.2,71.3c-2.7,0-4.8-2.2-4.8-4.8c0-2.7,2.2-4.8,4.8-4.8s4.8,2.2,4.8,4.8C104,69.2,101.8,71.3,99.2,71.3z
			 M99.2,63.7c-1.6,0-2.8,1.3-2.8,2.8c0,1.6,1.3,2.8,2.8,2.8s2.8-1.3,2.8-2.8C102,64.9,100.7,63.7,99.2,63.7z"/>
	</g>
	<g display="inline">
		<path fill="#F26A22" d="M99.2,74.8c-4.5,0-8.2-3.7-8.2-8.2s3.7-8.2,8.2-8.2s8.2,3.7,8.2,8.2C107.4,71.1,103.7,74.8,99.2,74.8z
			 M99.2,60.3c-3.4,0-6.2,2.8-6.2,6.2s2.8,6.2,6.2,6.2s6.2-2.8,6.2-6.2S102.6,60.3,99.2,60.3z"/>
	</g>
	<g display="inline">
		<path fill="#F26A22" d="M99.2,78.3c-6.5,0-11.8-5.3-11.8-11.8s5.3-11.8,11.8-11.8S111,60,111,66.5S105.7,78.3,99.2,78.3z
			 M99.2,55.7c-6,0-10.8,4.8-10.8,10.8s4.8,10.8,10.8,10.8S110,72.5,110,66.5S105.1,55.7,99.2,55.7z"/>
	</g>
	<g display="inline">
		<path fill="#44515A" d="M111.8,77.9l-3.2-3.4l3-2c0.1-0.1,0.1-0.2,0.1-0.3c0-0.1-0.1-0.2-0.2-0.3l-11.8-5c-0.1,0-0.2,0-0.3,0.1
			c-0.1,0.1-0.1,0.2-0.1,0.3l4.2,12.1c0,0.1,0.1,0.2,0.2,0.2s0.2,0,0.3-0.1l2.2-2.9l3.2,3.4c0.1,0.1,0.1,0.1,0.2,0.1l0,0
			c0.1,0,0.1,0,0.2-0.1l1.9-1.7C111.9,78.2,111.9,78,111.8,77.9z"/>
	</g>
</g>
<g id="Layer_2" display="none">
	<g display="inline">
		<g opacity="0.5">
			<path fill="#CFD5D8" d="M112.2,69.9c0,2-1.6,3.6-3.6,3.6H5.5c-2,0-3.6-1.6-3.6-3.6V14.6c0-2,1.6-3.6,3.6-3.6h103.1
				c2,0,3.6,1.6,3.6,3.6V69.9z"/>
		</g>
		<g>
			<path fill="#FFFFFF" d="M112.2,69.9c0,2-1.6,3.6-3.6,3.6H5.5c-2,0-3.6-1.6-3.6-3.6V14.6c0-2,1.6-3.6,3.6-3.6h103.1
				c2,0,3.6,1.6,3.6,3.6V69.9z"/>
		</g>
		<g opacity="0.5">
			<path fill="#CFD5D8" d="M112.2,69.9c0,2-1.6,3.6-3.6,3.6H5.5c-2,0-3.6-1.6-3.6-3.6V14.6c0-2,1.6-3.6,3.6-3.6h103.1
				c2,0,3.6,1.6,3.6,3.6V69.9z"/>
		</g>
		<rect x="12.6" y="57.3" fill="#CFD5D8" width="45.7" height="1.6"/>
		<rect x="12.6" y="28.4" fill="#CFD5D8" width="1.6" height="28.9"/>
		<rect x="68.1" y="30.9" opacity="0.3" fill="#78888D" enable-background="new    " width="26.3" height="5"/>
		<rect x="68.1" y="39.4" opacity="0.3" fill="#78888D" enable-background="new    " width="32.6" height="5"/>
		<rect x="68.1" y="47.9" opacity="0.3" fill="#78888D" enable-background="new    " width="19.9" height="5"/>
		<g>
			<g>
				<polyline fill="none" stroke="#44515A" stroke-width="2" stroke-miterlimit="10" points="13.3,50 30.1,42.2 41.1,46.2 
					54.8,37.3 				"/>
				<g>
					<polygon fill="#44515A" points="55.6,40.2 58.3,35.1 52.5,35.3 					"/>
				</g>
			</g>
		</g>
		<circle fill="#F26A22" cx="13.3" cy="50" r="2.8"/>
		<circle fill="#F26A22" cx="30.1" cy="42.2" r="2.8"/>
		<circle fill="#F26A22" cx="41.2" cy="45.7" r="2.8"/>
		<g opacity="0.5">
			<path fill="#CFD5D8" d="M177.6,80.2c0,2-1.6,3.6-3.6,3.6H70.9c-2,0-3.6-1.6-3.6-3.6V24.9c0-2,1.6-3.6,3.6-3.6H174
				c2,0,3.6,1.6,3.6,3.6V80.2z"/>
		</g>
		<g>
			<path fill="#FFFFFF" d="M177.6,80.2c0,2-1.6,3.6-3.6,3.6H70.9c-2,0-3.6-1.6-3.6-3.6V24.9c0-2,1.6-3.6,3.6-3.6H174
				c2,0,3.6,1.6,3.6,3.6V80.2z"/>
		</g>
		<g opacity="0.2">
			<path fill="#CFD5D8" d="M177.6,80.2c0,2-1.6,3.6-3.6,3.6H70.9c-2,0-3.6-1.6-3.6-3.6V24.9c0-2,1.6-3.6,3.6-3.6H174
				c2,0,3.6,1.6,3.6,3.6V80.2z"/>
		</g>
		<g>
			<path fill="#78888D" d="M115.2,53.2c0,2.5-0.5,4.9-1.4,7.1C111,67.2,104.3,72,96.4,72S81.8,67.2,79,60.3
				c-0.9-2.2-1.4-4.6-1.4-7.1c0-10.4,8.4-18.8,18.8-18.8S115.2,42.8,115.2,53.2z"/>
			<path fill="#44515A" d="M115.2,53.2c0,2.5-0.5,4.9-1.4,7.1l-17.4-7.1V34.4C106.8,34.4,115.2,42.8,115.2,53.2z"/>
			<path fill="#F26A22" d="M96.4,34.4v18.8L79,60.3c-0.9-2.2-1.4-4.6-1.4-7.1C77.6,42.8,86,34.4,96.4,34.4z"/>
		</g>
		<rect x="133.7" y="42.2" opacity="0.3" fill="#78888D" enable-background="new    " width="32.6" height="5"/>
		<rect x="125.8" y="42.2" opacity="0.3" fill="#78888D" enable-background="new    " width="5.3" height="5"/>
		<rect x="125.8" y="50.7" opacity="0.3" fill="#78888D" enable-background="new    " width="5.3" height="5"/>
		<rect x="125.8" y="59.2" opacity="0.3" fill="#78888D" enable-background="new    " width="5.3" height="5"/>
		<rect x="133.7" y="50.7" opacity="0.3" fill="#78888D" enable-background="new    " width="24.7" height="5"/>
		<rect x="133.7" y="59.2" opacity="0.3" fill="#78888D" enable-background="new    " width="28.3" height="5"/>
		<g>
			<g opacity="0.5">
				<path fill="#CFD5D8" d="M138,127.2c0,2-1.6,3.6-3.6,3.6H31.3c-2,0-3.6-1.6-3.6-3.6V71.9c0-2,1.6-3.6,3.6-3.6h103.1
					c2,0,3.6,1.6,3.6,3.6V127.2z"/>
			</g>
			<g>
				<path fill="#FFFFFF" d="M138,127.2c0,2-1.6,3.6-3.6,3.6H31.3c-2,0-3.6-1.6-3.6-3.6V71.9c0-2,1.6-3.6,3.6-3.6h103.1
					c2,0,3.6,1.6,3.6,3.6V127.2z"/>
			</g>
			<g opacity="0.7">
				<path fill="#CFD5D8" d="M138,127.2c0,2-1.6,3.6-3.6,3.6H31.3c-2,0-3.6-1.6-3.6-3.6V71.9c0-2,1.6-3.6,3.6-3.6h103.1
					c2,0,3.6,1.6,3.6,3.6V127.2z"/>
			</g>
			<rect x="34" y="114.6" opacity="0.5" fill="#78888D" enable-background="new    " width="45.7" height="1.6"/>
			<rect x="38.9" y="86.8" opacity="0.4" fill="#44515A" enable-background="new    " width="9.3" height="27.8"/>
			<rect x="52.4" y="82.9" fill="#44515A" width="9.3" height="31.7"/>
			<rect x="65.8" y="92.9" fill="#F26A22" width="9.3" height="21.7"/>
			<rect x="94.1" y="88.5" opacity="0.3" fill="#78888D" enable-background="new    " width="23.1" height="5"/>
			<rect x="86.2" y="88.5" opacity="0.3" fill="#78888D" enable-background="new    " width="5.3" height="5"/>
			<rect x="86.2" y="97" opacity="0.3" fill="#78888D" enable-background="new    " width="5.3" height="5"/>
			<rect x="86.2" y="105.5" opacity="0.3" fill="#78888D" enable-background="new    " width="5.3" height="5"/>
			<rect x="94.1" y="97" opacity="0.3" fill="#78888D" enable-background="new    " width="32.6" height="5"/>
			<rect x="94.1" y="105.5" opacity="0.3" fill="#78888D" enable-background="new    " width="28.3" height="5"/>
		</g>
	</g>
</g>
<g id="Layer_3">
	<g>
		<g>
			<path fill="#CFD5D8" d="M154.2,107.1c0,2-1.6,3.6-3.6,3.6H14.8c-2,0-3.6-1.6-3.6-3.6V14.3c0-2,1.6-3.6,3.6-3.6h135.8
				c2,0,3.6,1.6,3.6,3.6L154.2,107.1L154.2,107.1z"/>
		</g>
		<path fill="#44515A" d="M154.2,14.3v81.4h-143V14.3c0-2,1.6-3.6,3.6-3.6h135.8C152.6,10.7,154.2,12.3,154.2,14.3z"/>
		<g>
			<path fill="#78888D" d="M147.2,85.1c0,2-1.6,3.6-3.6,3.6H21.8c-2,0-3.6-1.6-3.6-3.6V21.3c0-2,1.6-3.6,3.6-3.6h121.8
				c2,0,3.6,1.6,3.6,3.6L147.2,85.1L147.2,85.1z"/>
		</g>
		<rect x="31.2" y="20.7" opacity="0.5" fill="#F3F3F3" enable-background="new    " width="111" height="2"/>
		<path opacity="0.5" fill="#F3F3F3" enable-background="new    " d="M29.2,21.7c0-0.6-0.4-1-1-1l0,0c-0.6,0-1,0.4-1,1l0,0
			c0,0.6,0.4,1,1,1l0,0C28.8,22.7,29.2,22.2,29.2,21.7L29.2,21.7z"/>
		<path opacity="0.5" fill="#F3F3F3" enable-background="new    " d="M25.2,21.7c0-0.6-0.4-1-1-1l0,0c-0.6,0-1,0.4-1,1l0,0
			c0,0.6,0.4,1,1,1l0,0C24.8,22.7,25.2,22.2,25.2,21.7L25.2,21.7z"/>
		<g>
			<g>
				<g>
					<defs>
						<path id="SVGID_1_" d="M147.2,85.1c0,2-1.6,3.6-3.6,3.6H21.8c-2,0-3.6-1.6-3.6-3.6V21.3c0-2,1.6-3.6,3.6-3.6h121.8
							c2,0,3.6,1.6,3.6,3.6L147.2,85.1L147.2,85.1z"/>
					</defs>
					<clipPath id="SVGID_2_">
						<use xlink:href="#SVGID_1_"  overflow="visible"/>
					</clipPath>
					
						<rect x="18.2" y="25.7" opacity="0.5" clip-path="url(#SVGID_2_)" fill="#F3F3F3" enable-background="new    " width="129" height="64"/>
				</g>
			</g>
		</g>
		<path fill="#CFD5D8" d="M101.2,108.7c0-7.5-13.9-2.5-18.5-0.6c-4.6-1.9-18.5-6.9-18.5,0.6c0,13-8,24-8,24h25h3h25
			C109.2,132.7,101.2,121.7,101.2,108.7z"/>
		<path fill="#CFD5D8" d="M102.2,116.7H63.3c0.4-1.9,0.8-3.9,0.9-6h37.1C101.4,112.8,101.7,114.8,102.2,116.7z"/>
		<rect x="54.2" y="129.7" fill="#9FAEB4" width="57" height="3"/>
		<rect x="25.2" y="37.7" fill="#EEEEEE" width="115" height="51"/>
		<rect x="25.2" y="29.7" fill="#EEEEEE" width="15" height="4"/>
		<rect x="87.2" y="31.7" fill="#EEEEEE" width="11" height="2"/>
		<rect x="101.2" y="31.7" fill="#EEEEEE" width="11" height="2"/>
		<rect x="115.2" y="31.7" fill="#EEEEEE" width="11" height="2"/>
		<rect x="129.2" y="31.7" fill="#EEEEEE" width="11" height="2"/>
		<path opacity="0.3" fill="#9FAEB4" enable-background="new    " d="M102.2,116.7H63.3c0.4-1.9,0.8-3.9,0.9-6h37.1
			C101.4,112.8,101.7,114.8,102.2,116.7z"/>
		<g>
			<path fill="#78888D" d="M99.8,132.7c-2,0-3.6-1.6-3.6-3.6V56.3c0-2,1.6-3.6,3.6-3.6h58.8c2,0,3.6,1.6,3.6,3.6v72.8
				c0,2-1.6,3.6-3.6,3.6L99.8,132.7L99.8,132.7z"/>
		</g>
		<g opacity="0.6">
			<path fill="#44515A" d="M99.8,132.7c-2,0-3.6-1.6-3.6-3.6V56.3c0-2,1.6-3.6,3.6-3.6h58.8c2,0,3.6,1.6,3.6,3.6v72.8
				c0,2-1.6,3.6-3.6,3.6L99.8,132.7L99.8,132.7z"/>
		</g>
		<rect x="103.2" y="61.7" fill="#78888D" width="51" height="8"/>
		<rect x="112.2" y="64.7" opacity="0.5" fill="#F3F3F3" enable-background="new    " width="38.9" height="2"/>
		<path opacity="0.5" fill="#F3F3F3" enable-background="new    " d="M110.2,65.7c0-0.6-0.4-1-1-1l0,0c-0.6,0-1,0.4-1,1l0,0
			c0,0.6,0.4,1,1,1l0,0C109.8,66.7,110.2,66.2,110.2,65.7L110.2,65.7z"/>
		<path opacity="0.5" fill="#F3F3F3" enable-background="new    " d="M107.2,65.7c0-0.6-0.4-1-1-1l0,0c-0.6,0-1,0.4-1,1l0,0
			c0,0.6,0.4,1,1,1l0,0C106.8,66.7,107.2,66.2,107.2,65.7L107.2,65.7z"/>
		<rect x="103.2" y="69.7" opacity="0.5" fill="#F3F3F3" enable-background="new    " width="51" height="53"/>
		<rect x="106.2" y="81.7" fill="#EEEEEE" width="45" height="41"/>
		<rect x="106.2" y="73.7" fill="#EEEEEE" width="9" height="4"/>
		<rect x="117.2" y="75.7" fill="#EEEEEE" width="7" height="2"/>
		<rect x="126.2" y="75.7" fill="#EEEEEE" width="7" height="2"/>
		<rect x="135.2" y="75.7" fill="#EEEEEE" width="7" height="2"/>
		<rect x="144.2" y="75.7" fill="#EEEEEE" width="7" height="2"/>
		<g>
			<g>
				<path fill="#44515A" d="M140.8,132.7c-2,0-3.6-1.6-3.6-3.6V89.3c0-2,1.6-3.6,3.6-3.6h23.8c2,0,3.6,1.6,3.6,3.6v39.8
					c0,2-1.6,3.6-3.6,3.6L140.8,132.7L140.8,132.7z"/>
			</g>
			<rect x="141.2" y="90.7" opacity="0.5" fill="#F3F3F3" enable-background="new    " width="23" height="37"/>
			<rect x="144.2" y="100.7" fill="#EEEEEE" width="17" height="27"/>
			<rect x="144.2" y="93.7" fill="#EEEEEE" width="9" height="4"/>
		</g>
	</g>
</g>
</svg>
