<?xml version="1.0" encoding="utf-8"?>
<!-- Generator: Adobe Illustrator 17.1.0, SVG Export Plug-In . SVG Version: 6.00 Build 0)  -->
<!DOCTYPE svg PUBLIC "-//W3C//DTD SVG 1.1//EN" "http://www.w3.org/Graphics/SVG/1.1/DTD/svg11.dtd">
<svg version="1.1" id="Layer_1" xmlns="http://www.w3.org/2000/svg" xmlns:xlink="http://www.w3.org/1999/xlink" x="0px" y="0px"
	 viewBox="343.6 136.9 252.1 252" enable-background="new 343.6 136.9 252.1 252" xml:space="preserve">
<g display="none">
	<g display="inline">
		<line fill="none" stroke="#FFFFFF" stroke-miterlimit="10" x1="636" y1="107.6" x2="337" y2="107.6"/>
		<polygon fill="#FFFFFF" points="642.5,107.6 636,114.2 636,101.2 		"/>
		<polygon fill="#FFFFFF" points="333.9,107.6 340.3,101.2 340.3,114.2 		"/>
	</g>
	<g display="inline">
		<line fill="none" stroke="#FFFFFF" stroke-miterlimit="10" x1="458.8" y1="457.3" x2="300.5" y2="457.3"/>
		<polygon fill="#FFFFFF" points="465.2,457.3 458.8,463.7 458.8,450.9 		"/>
		<polygon fill="#FFFFFF" points="294.1,457.3 300.5,450.9 300.5,463.7 		"/>
	</g>
	<g display="inline">
		<rect x="300.5" y="222.7" fill="none" stroke="#FFFFFF" stroke-width="3" stroke-miterlimit="10" width="161.4" height="208.5"/>
		<rect x="313.8" y="244.6" fill="none" stroke="#FFFFFF" stroke-width="3" stroke-miterlimit="10" width="134.8" height="164.7"/>
	</g>
	<g display="inline">
		<rect x="607.7" y="279.8" fill="none" stroke="#FFFFFF" stroke-width="3" stroke-miterlimit="10" width="74.6" height="112.2"/>
		<rect x="618.8" y="297.5" fill="none" stroke="#FFFFFF" stroke-width="3" stroke-miterlimit="10" width="52.2" height="76.8"/>
	</g>
	<g display="inline">
		<g>
			<g>
				<g>
					<defs>
						<polyline id="SVGID_1_" points="314,121.3 656.4,121.3 656.4,267.4 595.5,267.4 595.5,349.3 474.9,349.3 474.9,210.9 
							318.9,210.9 318.9,124.6 						"/>
					</defs>
					<clipPath id="SVGID_2_">
						<use xlink:href="#SVGID_1_"  overflow="visible"/>
					</clipPath>
					<g clip-path="url(#SVGID_2_)">
						
							<rect x="337.9" y="132.4" fill="none" stroke="#FFFFFF" stroke-width="3" stroke-miterlimit="10" width="301" height="208.5"/>
						
							<rect x="351.2" y="148.1" fill="none" stroke="#FFFFFF" stroke-width="3" stroke-miterlimit="10" width="274.5" height="176.9"/>
					</g>
				</g>
			</g>
		</g>
	</g>
	<g display="inline">
		<line fill="none" stroke="#FFFFFF" stroke-miterlimit="10" x1="682.3" y1="413" x2="609.9" y2="413"/>
		<polygon fill="#FFFFFF" points="685.6,413 679.2,419.4 679.2,406.6 		"/>
		<polygon fill="#FFFFFF" points="603.5,413 609.9,406.6 609.9,419.4 		"/>
	</g>
	<g display="inline">
		<line fill="none" stroke="#FFFFFF" stroke-miterlimit="10" x1="662.8" y1="267.4" x2="662.8" y2="134.1"/>
		<polygon fill="#FFFFFF" points="662.8,127.5 669.2,134.1 656.2,134.1 		"/>
	</g>
</g>
<g id="tVMv4K.tif" display="none">
	
		<image display="inline" overflow="visible" enable-background="new    " width="450" height="350" id="Layer_0_1_" xlink:href="BB682D5E0519B1DE.png"  transform="matrix(2.2111 0 0 2.2111 1183.3026 -108.8474)">
	</image>
</g>
<g display="none">
	<polygon display="inline" fill="none" stroke="#FFFFFF" stroke-width="3" stroke-linejoin="round" stroke-miterlimit="10" points="
		1520.8,217.8 1207.8,217.8 1254.9,141.7 1473.6,141.7 	"/>
	<polygon display="inline" fill="none" stroke="#FFFFFF" stroke-width="3" stroke-linejoin="round" stroke-miterlimit="10" points="
		1520.8,217.8 1207.8,217.8 1364.3,414.6 	"/>
	
		<polyline display="inline" fill="none" stroke="#FFFFFF" stroke-width="3" stroke-linejoin="round" stroke-miterlimit="10" points="
		1254.9,141.7 1301.4,217.8 1364.3,141.7 1424.9,217.8 1473.2,141.7 	"/>
	
		<polyline display="inline" fill="none" stroke="#FFFFFF" stroke-width="3" stroke-linejoin="round" stroke-miterlimit="10" points="
		1301.4,217.8 1364.3,414.6 1424.9,217.8 	"/>
</g>
<line display="none" fill="none" stroke="#FFFFFF" stroke-width="3" stroke-linejoin="round" stroke-miterlimit="10" x1="1115.9" y1="241.9" x2="1176.3" y2="241.9"/>
<line display="none" fill="none" stroke="#FFFFFF" stroke-width="3" stroke-linejoin="round" stroke-miterlimit="10" x1="1136.9" y1="185.7" x2="1183.2" y2="224.7"/>
<line display="none" fill="none" stroke="#FFFFFF" stroke-width="3" stroke-linejoin="round" stroke-miterlimit="10" x1="1136.9" y1="298.2" x2="1183.2" y2="259.2"/>
<line display="none" fill="none" stroke="#FFFFFF" stroke-width="3" stroke-linejoin="round" stroke-miterlimit="10" x1="1612.8" y1="241.9" x2="1552.2" y2="241.9"/>
<line display="none" fill="none" stroke="#FFFFFF" stroke-width="3" stroke-linejoin="round" stroke-miterlimit="10" x1="1591.8" y1="185.7" x2="1545.3" y2="224.7"/>
<line display="none" fill="none" stroke="#FFFFFF" stroke-width="3" stroke-linejoin="round" stroke-miterlimit="10" x1="1591.8" y1="298.2" x2="1545.3" y2="259.2"/>
<g>
	<circle fill="#074E68" cx="469.9" cy="263.1" r="125.9"/>
	<g opacity="0.5" enable-background="new    ">
		<g>
			<g>
				<g>
					<defs>
						<circle id="SVGID_3_" cx="469.5" cy="262.8" r="125.9"/>
					</defs>
					<clipPath id="SVGID_4_">
						<use xlink:href="#SVGID_3_"  overflow="visible"/>
					</clipPath>
					<g clip-path="url(#SVGID_4_)">
						<g>
							<line fill="none" stroke="#FFFFFF" stroke-width="0.5" stroke-miterlimit="10" x1="563.6" y1="481.1" x2="563.6" y2="59.1"/>
							<line fill="none" stroke="#FFFFFF" stroke-width="0.5" stroke-miterlimit="10" x1="546.5" y1="481.1" x2="546.5" y2="59.1"/>
							<line fill="none" stroke="#FFFFFF" stroke-width="0.5" stroke-miterlimit="10" x1="580.6" y1="480.7" x2="580.6" y2="58.6"/>
							<line fill="none" stroke="#FFFFFF" stroke-width="0.5" stroke-miterlimit="10" x1="597.6" y1="481.1" x2="597.6" y2="59.1"/>
							<line fill="none" stroke="#FFFFFF" stroke-width="0.5" stroke-miterlimit="10" x1="495.3" y1="481.1" x2="495.3" y2="59.1"/>
							<line fill="none" stroke="#FFFFFF" stroke-width="0.5" stroke-miterlimit="10" x1="478.2" y1="481.1" x2="478.2" y2="59.1"/>
							<line fill="none" stroke="#FFFFFF" stroke-width="0.5" stroke-miterlimit="10" x1="512.3" y1="480.7" x2="512.3" y2="58.6"/>
							<line fill="none" stroke="#FFFFFF" stroke-width="0.5" stroke-miterlimit="10" x1="529.4" y1="481.1" x2="529.4" y2="59.1"/>
							<line fill="none" stroke="#FFFFFF" stroke-width="0.5" stroke-miterlimit="10" x1="427.3" y1="481.3" x2="427.3" y2="59.3"/>
							<line fill="none" stroke="#FFFFFF" stroke-width="0.5" stroke-miterlimit="10" x1="410.2" y1="481.3" x2="410.2" y2="59.3"/>
							<line fill="none" stroke="#FFFFFF" stroke-width="0.5" stroke-miterlimit="10" x1="444.4" y1="480.9" x2="444.4" y2="58.8"/>
							<line fill="none" stroke="#FFFFFF" stroke-width="0.5" stroke-miterlimit="10" x1="461.5" y1="481.3" x2="461.5" y2="59.3"/>
							<line fill="none" stroke="#FFFFFF" stroke-width="0.5" stroke-miterlimit="10" x1="359" y1="481.3" x2="359" y2="59.3"/>
							<line fill="none" stroke="#FFFFFF" stroke-width="0.5" stroke-miterlimit="10" x1="341.9" y1="481.3" x2="341.9" y2="59.3"/>
							<line fill="none" stroke="#FFFFFF" stroke-width="0.5" stroke-miterlimit="10" x1="376.1" y1="480.9" x2="376.1" y2="58.8"/>
							<line fill="none" stroke="#FFFFFF" stroke-width="0.5" stroke-miterlimit="10" x1="393.2" y1="481.3" x2="393.2" y2="59.3"/>
						</g>
						<g>
							<line fill="none" stroke="#FFFFFF" stroke-width="0.5" stroke-miterlimit="10" x1="267" y1="356.4" x2="689.1" y2="356.4"/>
							<line fill="none" stroke="#FFFFFF" stroke-width="0.5" stroke-miterlimit="10" x1="267" y1="339.4" x2="689.1" y2="339.4"/>
							
								<line fill="none" stroke="#FFFFFF" stroke-width="0.5" stroke-miterlimit="10" x1="267.4" y1="373.4" x2="689.5" y2="373.4"/>
							<line fill="none" stroke="#FFFFFF" stroke-width="0.5" stroke-miterlimit="10" x1="267" y1="390.5" x2="689.1" y2="390.5"/>
							<line fill="none" stroke="#FFFFFF" stroke-width="0.5" stroke-miterlimit="10" x1="267" y1="288.1" x2="689.1" y2="288.1"/>
							<line fill="none" stroke="#FFFFFF" stroke-width="0.5" stroke-miterlimit="10" x1="267" y1="271" x2="689.1" y2="271"/>
							
								<line fill="none" stroke="#FFFFFF" stroke-width="0.5" stroke-miterlimit="10" x1="267.4" y1="305.2" x2="689.5" y2="305.2"/>
							<line fill="none" stroke="#FFFFFF" stroke-width="0.5" stroke-miterlimit="10" x1="267" y1="322.3" x2="689.1" y2="322.3"/>
							
								<line fill="none" stroke="#FFFFFF" stroke-width="0.5" stroke-miterlimit="10" x1="266.8" y1="220.2" x2="688.9" y2="220.2"/>
							
								<line fill="none" stroke="#FFFFFF" stroke-width="0.5" stroke-miterlimit="10" x1="266.8" y1="203.1" x2="688.9" y2="203.1"/>
							
								<line fill="none" stroke="#FFFFFF" stroke-width="0.5" stroke-miterlimit="10" x1="267.2" y1="237.3" x2="689.3" y2="237.3"/>
							
								<line fill="none" stroke="#FFFFFF" stroke-width="0.5" stroke-miterlimit="10" x1="266.8" y1="254.4" x2="688.9" y2="254.4"/>
							
								<line fill="none" stroke="#FFFFFF" stroke-width="0.5" stroke-miterlimit="10" x1="266.8" y1="151.9" x2="688.9" y2="151.9"/>
							
								<line fill="none" stroke="#FFFFFF" stroke-width="0.5" stroke-miterlimit="10" x1="266.8" y1="134.8" x2="688.9" y2="134.8"/>
							<line fill="none" stroke="#FFFFFF" stroke-width="0.5" stroke-miterlimit="10" x1="267.2" y1="169" x2="689.3" y2="169"/>
							<line fill="none" stroke="#FFFFFF" stroke-width="0.5" stroke-miterlimit="10" x1="266.8" y1="186" x2="688.9" y2="186"/>
						</g>
					</g>
				</g>
			</g>
		</g>
	</g>
</g>
<g>
	<polygon fill="none" stroke="#FFFFFF" stroke-width="3" stroke-linejoin="round" stroke-miterlimit="10" points="532.3,245.7 
		407.2,245.7 426.1,215.3 513.5,215.3 	"/>
	<polygon fill="none" stroke="#FFFFFF" stroke-width="3" stroke-linejoin="round" stroke-miterlimit="10" points="532.3,245.7 
		407.2,245.7 469.8,324.3 	"/>
	<polyline fill="none" stroke="#FFFFFF" stroke-width="3" stroke-linejoin="round" stroke-miterlimit="10" points="426.1,215.3 
		444.7,245.7 469.8,215.3 494.1,245.7 513.3,215.3 	"/>
	<polyline fill="none" stroke="#FFFFFF" stroke-width="3" stroke-linejoin="round" stroke-miterlimit="10" points="444.7,245.7 
		469.8,324.3 494.1,245.7 	"/>
</g>
<g>
	<line fill="none" stroke="#FFFFFF" stroke-miterlimit="10" x1="529.7" y1="231.4" x2="529.7" y2="216.7"/>
	<line fill="none" stroke="#FFFFFF" stroke-miterlimit="10" x1="529.7" y1="321.2" x2="529.7" y2="258.8"/>
	<polygon fill="#FFFFFF" points="529.7,322.6 526.7,319.7 532.6,319.7 	"/>
	<polygon fill="#FFFFFF" points="529.7,214.3 532.6,217.2 526.7,217.2 	"/>
</g>
<g>
	<line fill="none" stroke="#FFFFFF" stroke-miterlimit="10" x1="426.9" y1="203" x2="513.3" y2="203"/>
	<polygon fill="#FFFFFF" points="425.4,203 428.3,200.1 428.3,205.9 	"/>
	<polygon fill="#FFFFFF" points="514.8,203 511.8,205.9 511.8,200.1 	"/>
</g>
</svg>
