<?xml version="1.0" encoding="utf-8"?>
<!-- Generator: Adobe Illustrator 17.1.0, SVG Export Plug-In . SVG Version: 6.00 Build 0)  -->
<!DOCTYPE svg PUBLIC "-//W3C//DTD SVG 1.1//EN" "http://www.w3.org/Graphics/SVG/1.1/DTD/svg11.dtd">
<svg version="1.1" id="Layer_1" xmlns="http://www.w3.org/2000/svg" xmlns:xlink="http://www.w3.org/1999/xlink" x="0px" y="0px"
	 viewBox="315.8 0 252.1 252" enable-background="new 315.8 0 252.1 252" xml:space="preserve">
<g>
	<g>
		<circle fill="#074E68" cx="442.1" cy="126.1" r="125.9"/>
		<g opacity="0.5" enable-background="new    ">
			<g>
				<g>
					<g>
						<defs>
							<circle id="SVGID_1_" cx="441.7" cy="125.8" r="125.9"/>
						</defs>
						<clipPath id="SVGID_2_">
							<use xlink:href="#SVGID_1_"  overflow="visible"/>
						</clipPath>
						<g clip-path="url(#SVGID_2_)">
							<g>
								<line fill="none" stroke="#FFFFFF" stroke-width="0.5" stroke-miterlimit="10" x1="535.8" y1="344.2" x2="535.8" y2="-78"/>
								<line fill="none" stroke="#FFFFFF" stroke-width="0.5" stroke-miterlimit="10" x1="518.7" y1="344.2" x2="518.7" y2="-78"/>
								
									<line fill="none" stroke="#FFFFFF" stroke-width="0.5" stroke-miterlimit="10" x1="552.9" y1="343.8" x2="552.9" y2="-78.4"/>
								<line fill="none" stroke="#FFFFFF" stroke-width="0.5" stroke-miterlimit="10" x1="570" y1="344.2" x2="570" y2="-78"/>
								<line fill="none" stroke="#FFFFFF" stroke-width="0.5" stroke-miterlimit="10" x1="467.5" y1="344.2" x2="467.5" y2="-78"/>
								<line fill="none" stroke="#FFFFFF" stroke-width="0.5" stroke-miterlimit="10" x1="450.4" y1="344.2" x2="450.4" y2="-78"/>
								
									<line fill="none" stroke="#FFFFFF" stroke-width="0.5" stroke-miterlimit="10" x1="484.5" y1="343.8" x2="484.5" y2="-78.4"/>
								<line fill="none" stroke="#FFFFFF" stroke-width="0.5" stroke-miterlimit="10" x1="501.6" y1="344.2" x2="501.6" y2="-78"/>
								
									<line fill="none" stroke="#FFFFFF" stroke-width="0.5" stroke-miterlimit="10" x1="399.5" y1="344.4" x2="399.5" y2="-77.7"/>
								
									<line fill="none" stroke="#FFFFFF" stroke-width="0.5" stroke-miterlimit="10" x1="382.4" y1="344.4" x2="382.4" y2="-77.7"/>
								<line fill="none" stroke="#FFFFFF" stroke-width="0.5" stroke-miterlimit="10" x1="416.6" y1="344" x2="416.6" y2="-78.2"/>
								
									<line fill="none" stroke="#FFFFFF" stroke-width="0.5" stroke-miterlimit="10" x1="433.7" y1="344.4" x2="433.7" y2="-77.7"/>
								
									<line fill="none" stroke="#FFFFFF" stroke-width="0.5" stroke-miterlimit="10" x1="331.2" y1="344.4" x2="331.2" y2="-77.7"/>
								
									<line fill="none" stroke="#FFFFFF" stroke-width="0.5" stroke-miterlimit="10" x1="314.2" y1="344.4" x2="314.2" y2="-77.7"/>
								<line fill="none" stroke="#FFFFFF" stroke-width="0.5" stroke-miterlimit="10" x1="348.3" y1="344" x2="348.3" y2="-78.2"/>
								
									<line fill="none" stroke="#FFFFFF" stroke-width="0.5" stroke-miterlimit="10" x1="365.4" y1="344.4" x2="365.4" y2="-77.7"/>
							</g>
							<g>
								
									<line fill="none" stroke="#FFFFFF" stroke-width="0.5" stroke-miterlimit="10" x1="239.2" y1="219.4" x2="661.4" y2="219.4"/>
								
									<line fill="none" stroke="#FFFFFF" stroke-width="0.5" stroke-miterlimit="10" x1="239.2" y1="202.5" x2="661.4" y2="202.5"/>
								
									<line fill="none" stroke="#FFFFFF" stroke-width="0.5" stroke-miterlimit="10" x1="239.7" y1="236.5" x2="661.8" y2="236.5"/>
								
									<line fill="none" stroke="#FFFFFF" stroke-width="0.5" stroke-miterlimit="10" x1="239.2" y1="253.6" x2="661.4" y2="253.6"/>
								
									<line fill="none" stroke="#FFFFFF" stroke-width="0.5" stroke-miterlimit="10" x1="239.2" y1="151.2" x2="661.4" y2="151.2"/>
								
									<line fill="none" stroke="#FFFFFF" stroke-width="0.5" stroke-miterlimit="10" x1="239.2" y1="134.1" x2="661.4" y2="134.1"/>
								
									<line fill="none" stroke="#FFFFFF" stroke-width="0.5" stroke-miterlimit="10" x1="239.7" y1="168.3" x2="661.8" y2="168.3"/>
								
									<line fill="none" stroke="#FFFFFF" stroke-width="0.5" stroke-miterlimit="10" x1="239.2" y1="185.4" x2="661.4" y2="185.4"/>
								<line fill="none" stroke="#FFFFFF" stroke-width="0.5" stroke-miterlimit="10" x1="239" y1="83.3" x2="661.2" y2="83.3"/>
								<line fill="none" stroke="#FFFFFF" stroke-width="0.5" stroke-miterlimit="10" x1="239" y1="66.2" x2="661.2" y2="66.2"/>
								
									<line fill="none" stroke="#FFFFFF" stroke-width="0.5" stroke-miterlimit="10" x1="239.4" y1="100.4" x2="661.6" y2="100.4"/>
								<line fill="none" stroke="#FFFFFF" stroke-width="0.5" stroke-miterlimit="10" x1="239" y1="117.4" x2="661.2" y2="117.4"/>
								<line fill="none" stroke="#FFFFFF" stroke-width="0.5" stroke-miterlimit="10" x1="239" y1="14.9" x2="661.2" y2="14.9"/>
								<line fill="none" stroke="#FFFFFF" stroke-width="0.5" stroke-miterlimit="10" x1="239" y1="-2.1" x2="661.2" y2="-2.1"/>
								<line fill="none" stroke="#FFFFFF" stroke-width="0.5" stroke-miterlimit="10" x1="239.4" y1="32" x2="661.6" y2="32"/>
								<line fill="none" stroke="#FFFFFF" stroke-width="0.5" stroke-miterlimit="10" x1="239" y1="49.1" x2="661.2" y2="49.1"/>
							</g>
						</g>
					</g>
				</g>
			</g>
		</g>
	</g>
	<path fill="none" stroke="#FFFFFF" stroke-width="3" stroke-miterlimit="10" d="M440.2,137.5c2.1-0.8,5.5-1.8,6.3-2
		c0.8-0.2,2.6-0.8,3.5-0.9c0.9,0,1.4,0.2,1.6,0.5c0.2,0.3,0,0.7-0.3,0.9c-0.5,0.3-1.7,0.6-2.1,0.8c-0.4,0.2-2.1,0.8-3,1.2
		c-1,0.4-3,1.4-4.7,2.4l-0.8,0.5c-2.3,1.3-7.9,5.1-10.2,6.4c-0.3,0.2-0.4,0.4-0.2,0.7c1,2.2,1.5,4.6,1.6,7.1
		c0.2,2.8-0.1,5.6-0.8,8.3c-1.8,6.7-5.8,11.7-11.8,15.1c-2.7,1.5-5.5,2.5-8.5,2.8c-0.1,0-0.2,0.1-0.3,0.1c-1.3,0-2.5,0-3.8,0
		c-0.7-0.1-1.4-0.2-2.1-0.3c-1.1-0.2-2.1-0.5-3-1.1c-1.3-1-2.2-2.3-2.9-3.8c-0.8-2-1.1-4-0.9-6.1c0.3-2.8,1.1-5.4,2.7-7.7
		c1.9-2.7,4.4-4.9,7-6.9c3.7-2.8,7.7-5.2,11.8-7.3c0.8-0.4,1.6-0.8,2.4-1.3c-0.5-0.4-0.9-0.8-1.3-1.1c-3.4-2.4-6.7-4.8-10.1-7.2
		c-4.3-3.1-8.5-6.3-11.9-10.3c-1.8-2.1-3.4-4.4-4.4-7c-0.5-1.2-0.8-2.5-1.1-3.7c0-0.9,0-1.8,0-2.6c0.3-1.2,0.5-2.4,0.9-3.6
		c1.2-4,3.4-7.5,5.9-10.7c1.7-2.2,3.7-4.2,5.7-6.1c3.4-3.2,7.1-6,11.1-8.4c3.3-2,6.7-4,10.2-5.7c5.6-2.8,11.3-5.2,17.4-6.9
		c3.7-1.1,7.5-1.8,11.3-2.1c5.9-0.4,11.7-0.1,17.4,1.8c3.6,1.2,6.8,3,9.4,5.8c1.9,2.1,3,4.6,3.5,7.5c0.7,4.5-0.2,8.7-2,12.8
		c-1.6,3.6-3.8,6.8-6.6,9.7c-4.3,4.6-9.4,7.9-15.4,10c-4.2,1.5-8.5,2.5-12.9,3c-4.1,0.4-8.3,0.4-12.3-0.6c-2.7-0.7-5.2-2.1-7.2-4.1
		c-1-1-1.9-2.1-2.3-3.5c-0.1-0.3-0.2-0.7-0.1-1c0.1-0.3,0.3-0.6,0.5-0.8c0.2-0.1,0.6,0,0.8,0.2c0.6,0.5,1.1,1.1,1.7,1.6
		c2.3,1.9,5.1,2.7,8,3.1c4.3,0.5,8.6-0.2,12.7-1.2c3.3-0.8,6.4-2,9.5-3.5c4.3-2.2,8.2-5,11.5-8.6c2.5-2.8,4.6-5.9,5.6-9.5
		c0.5-1.7,0.7-3.5,0.4-5.2c-0.4-2.9-2.1-4.7-4.6-6c-2.5-1.3-5.2-1.9-8-2.2c-1.1-0.1-2.2-0.2-3.3-0.2c-3.9,0-7.8,0.5-11.7,1.4
		c-6.9,1.6-13.4,4.2-19.6,7.6c-3.3,1.8-6.6,3.8-9.7,5.8c-3.8,2.4-7.2,5.3-10.3,8.6c-2.6,2.9-4.8,6.1-5.8,9.9
		c-1.2,4.4-0.5,8.5,2.2,12.3c2.3,3.2,5.3,5.7,8.4,8.2c2.8,2.2,5.7,4.4,8.5,6.7c1.1,0.9,2.1,1.9,3.1,2.9c0.3,0.3,0.6,0.4,1,0.1
		C431.8,141.1,435.2,139.2,440.2,137.5z M425.7,156l0-0.2c-0.2-1.5-0.5-3.1-0.7-4.6c-0.1-0.5-0.3-0.5-0.7-0.3
		c-3.4,2-6.8,4.1-9.9,6.6c-2.5,2-4.9,4.1-6.4,7c-1,1.9-1.7,3.9-1.6,6c0.1,1.9,0.9,2.9,2.7,3.2c1.3,0.2,2.5,0,3.7-0.4
		c3.1-1,5.7-2.8,7.9-5.2C423.8,164.6,425.7,160.7,425.7,156z"/>
	<g>
		<line fill="none" stroke="#FFFFFF" stroke-miterlimit="10" x1="494.3" y1="182.5" x2="494.3" y2="70.1"/>
		<polygon fill="#FFFFFF" points="494.3,184 491.4,181.1 497.2,181.1 		"/>
		<polygon fill="#FFFFFF" points="494.3,68.6 497.2,71.5 491.4,71.5 		"/>
	</g>
	<g>
		<line fill="none" stroke="#FFFFFF" stroke-miterlimit="10" x1="396.2" y1="192.7" x2="431.6" y2="192.7"/>
		<polygon fill="#FFFFFF" points="394.7,192.7 397.6,189.8 397.6,195.6 		"/>
		<polygon fill="#FFFFFF" points="433.1,192.7 430.2,195.6 430.2,189.8 		"/>
	</g>
</g>
</svg>
