<?xml version="1.0" encoding="utf-8"?>
<!-- Generator: Adobe Illustrator 17.1.0, SVG Export Plug-In . SVG Version: 6.00 Build 0)  -->
<!DOCTYPE svg PUBLIC "-//W3C//DTD SVG 1.1//EN" "http://www.w3.org/Graphics/SVG/1.1/DTD/svg11.dtd">
<svg version="1.1" id="Layer_1" xmlns="http://www.w3.org/2000/svg" xmlns:xlink="http://www.w3.org/1999/xlink" x="0px" y="0px"
	 viewBox="0 0 752 160.4" enable-background="new 0 0 752 160.4" xml:space="preserve">
<g display="none">
	<defs>
		<rect id="SVGID_1_" x="-424.4" y="-258.7" width="1298.7" height="709.2"/>
	</defs>
	<clipPath id="SVGID_2_" display="inline">
		<use xlink:href="#SVGID_1_"  overflow="visible"/>
	</clipPath>
</g>
<g display="none">
	<g display="inline">
		<path fill="none" stroke="#0B4F69" stroke-width="3" stroke-miterlimit="10" d="M340.4,120c46.3,26.2,109.6,42.3,179.6,42.3
			c70.3,0,134-16.3,180.3-42.7"/>
		<g>
			<polygon fill="#0B4F69" points="701.8,125.6 707.8,115.3 695.8,115.2 			"/>
		</g>
	</g>
</g>
<g display="none">
	<g display="inline">
		<path fill="none" stroke="#0B4F69" stroke-width="3" stroke-miterlimit="10" d="M699.4,41.1C653.2,15,589.9-1.1,520-1.1
			c-69.5,0-132.5,15.9-178.7,41.8"/>
		<g>
			<polygon fill="#0B4F69" points="700.8,35 706.9,45.3 695,45.4 			"/>
		</g>
	</g>
</g>
<g>
	<path fill="#084F68" d="M-686.9-23.1c0,5.5-4.5,10-10,10h-109.8c-5.5,0-10-4.5-10-10v-20.4c0-5.5,4.5-10,10-10h109.8
		c5.5,0,10,4.5,10,10V-23.1z"/>
</g>
<text transform="matrix(1 0 0 1 -805.0742 -18.804)" fill="#FFFFFF" font-family="'HelveticaNeue'" font-size="40">SCSS</text>
<g>
	<path fill="#084F68" d="M-698.5,274.8c0,5.5-4.5,10-10,10h-87.9c-5.5,0-10-4.5-10-10v-20.4c0-5.5,4.5-10,10-10h87.9
		c5.5,0,10,4.5,10,10V274.8z"/>
</g>
<g>
	<path fill="#FFFFFF" d="M-772.5,254.6c-1.5-1-3.2-1.5-5.2-1.5c-1.7,0-3.2,0.3-4.4,1s-2.2,1.5-3,2.6c-0.8,1.1-1.4,2.3-1.7,3.7
		c-0.4,1.4-0.6,2.8-0.6,4.3c0,1.6,0.2,3.2,0.6,4.6c0.4,1.5,1,2.7,1.7,3.8s1.8,1.9,3,2.6s2.7,1,4.4,1c1.3,0,2.4-0.2,3.3-0.6
		c1-0.4,1.8-1,2.5-1.7c0.7-0.7,1.3-1.6,1.7-2.6c0.4-1,0.6-2.1,0.7-3.3h3.8c-0.4,3.6-1.6,6.4-3.7,8.4c-2.1,2-5,3-8.6,3
		c-2.2,0-4.1-0.4-5.8-1.1c-1.7-0.8-3-1.8-4.1-3.1c-1.1-1.3-1.9-2.9-2.5-4.7c-0.5-1.8-0.8-3.8-0.8-5.8c0-2.1,0.3-4,0.9-5.9
		c0.6-1.8,1.4-3.4,2.6-4.8c1.1-1.4,2.5-2.4,4.2-3.2c1.7-0.8,3.6-1.2,5.8-1.2c1.5,0,2.9,0.2,4.2,0.6c1.3,0.4,2.5,1,3.6,1.8
		s1.9,1.7,2.6,2.9c0.7,1.2,1.1,2.5,1.4,4h-3.8C-770.1,257.1-771,255.6-772.5,254.6z"/>
	<path fill="#FFFFFF" d="M-746.6,254.4c-1.3-0.9-2.9-1.4-4.9-1.4c-0.8,0-1.6,0.1-2.4,0.2c-0.8,0.2-1.5,0.4-2.1,0.8
		c-0.6,0.4-1.1,0.9-1.4,1.5c-0.4,0.6-0.5,1.4-0.5,2.3c0,0.9,0.3,1.6,0.8,2.1c0.5,0.5,1.2,1,2.1,1.3c0.9,0.3,1.8,0.6,2.9,0.9
		c1.1,0.2,2.2,0.5,3.3,0.7c1.1,0.3,2.2,0.6,3.3,0.9c1.1,0.4,2.1,0.8,2.9,1.5c0.9,0.6,1.6,1.4,2.1,2.3c0.5,0.9,0.8,2.1,0.8,3.5
		c0,1.5-0.3,2.8-1,3.9c-0.7,1.1-1.6,2-2.6,2.6c-1.1,0.7-2.3,1.2-3.6,1.5c-1.3,0.3-2.6,0.5-3.9,0.5c-1.6,0-3.1-0.2-4.5-0.6
		c-1.4-0.4-2.7-1-3.8-1.8s-1.9-1.9-2.6-3.1c-0.6-1.3-0.9-2.8-0.9-4.5h3.6c0,1.2,0.2,2.2,0.7,3.1c0.5,0.9,1.1,1.6,1.8,2.1
		c0.8,0.6,1.6,1,2.7,1.2c1,0.3,2.1,0.4,3.1,0.4c0.9,0,1.7-0.1,2.6-0.2c0.9-0.2,1.6-0.4,2.3-0.8c0.7-0.4,1.3-0.9,1.7-1.6
		c0.4-0.7,0.6-1.5,0.6-2.6c0-1-0.3-1.8-0.8-2.4c-0.5-0.6-1.2-1.1-2.1-1.5c-0.9-0.4-1.8-0.7-2.9-0.9c-1.1-0.2-2.2-0.5-3.3-0.7
		c-1.1-0.3-2.2-0.5-3.3-0.9c-1.1-0.3-2.1-0.8-2.9-1.3c-0.9-0.5-1.6-1.3-2.1-2.1c-0.5-0.9-0.8-2-0.8-3.3c0-1.4,0.3-2.7,0.9-3.7
		c0.6-1.1,1.4-1.9,2.3-2.6c1-0.7,2.1-1.2,3.3-1.5c1.2-0.3,2.5-0.5,3.8-0.5c1.5,0,2.8,0.2,4.1,0.5c1.3,0.3,2.4,0.9,3.3,1.6
		c0.9,0.7,1.7,1.7,2.2,2.8c0.5,1.1,0.8,2.5,0.9,4.1h-3.6C-744.6,256.8-745.3,255.3-746.6,254.4z"/>
	<path fill="#FFFFFF" d="M-720.7,254.4c-1.3-0.9-2.9-1.4-4.9-1.4c-0.8,0-1.6,0.1-2.4,0.2c-0.8,0.2-1.5,0.4-2.1,0.8
		c-0.6,0.4-1.1,0.9-1.4,1.5c-0.4,0.6-0.5,1.4-0.5,2.3c0,0.9,0.3,1.6,0.8,2.1c0.5,0.5,1.2,1,2.1,1.3c0.9,0.3,1.8,0.6,2.9,0.9
		s2.2,0.5,3.3,0.7c1.1,0.3,2.2,0.6,3.3,0.9c1.1,0.4,2.1,0.8,2.9,1.5c0.9,0.6,1.6,1.4,2.1,2.3c0.5,0.9,0.8,2.1,0.8,3.5
		c0,1.5-0.3,2.8-1,3.9c-0.7,1.1-1.6,2-2.6,2.6c-1.1,0.7-2.3,1.2-3.6,1.5c-1.3,0.3-2.6,0.5-3.9,0.5c-1.6,0-3.1-0.2-4.5-0.6
		c-1.4-0.4-2.7-1-3.8-1.8s-1.9-1.9-2.6-3.1c-0.6-1.3-0.9-2.8-0.9-4.5h3.6c0,1.2,0.2,2.2,0.7,3.1c0.5,0.9,1.1,1.6,1.8,2.1
		s1.6,1,2.7,1.2c1,0.3,2.1,0.4,3.1,0.4c0.9,0,1.7-0.1,2.6-0.2c0.9-0.2,1.6-0.4,2.3-0.8c0.7-0.4,1.3-0.9,1.7-1.6
		c0.4-0.7,0.6-1.5,0.6-2.6c0-1-0.3-1.8-0.8-2.4c-0.5-0.6-1.2-1.1-2.1-1.5c-0.9-0.4-1.8-0.7-2.9-0.9c-1.1-0.2-2.2-0.5-3.3-0.7
		s-2.2-0.5-3.3-0.9c-1.1-0.3-2.1-0.8-2.9-1.3c-0.9-0.5-1.6-1.3-2.1-2.1c-0.5-0.9-0.8-2-0.8-3.3c0-1.4,0.3-2.7,0.9-3.7
		c0.6-1.1,1.4-1.9,2.3-2.6c1-0.7,2.1-1.2,3.3-1.5c1.2-0.3,2.5-0.5,3.8-0.5c1.5,0,2.8,0.2,4.1,0.5c1.3,0.3,2.4,0.9,3.3,1.6
		c0.9,0.7,1.7,1.7,2.2,2.8s0.8,2.5,0.9,4.1h-3.6C-718.6,256.8-719.4,255.3-720.7,254.4z"/>
</g>
<circle fill="none" stroke="#084F68" stroke-miterlimit="10" stroke-dasharray="6,2" cx="-679.6" cy="122" r="58.1"/>
<g>
	<text transform="matrix(1 0 0 1 -722.3439 112.9953)" fill="#084F68" font-family="'OpenSans-Semibold'" font-size="24.5137">Libsass</text>
	<text transform="matrix(1 0 0 1 -714.1983 145.0296)" fill="#084F68" font-family="'OpenSans-Semibold'" font-size="24.5137">Grunt</text>
	<text transform="matrix(1 0 0 1 -685.6436 128.781)" fill="#084F68" font-family="'OpenSans'" font-size="21.0117">+</text>
</g>
<circle fill="none" stroke="#084F68" stroke-miterlimit="10" stroke-dasharray="6,2" cx="-824.6" cy="122" r="58.1"/>
<text transform="matrix(1 0 0 1 -878.2855 129.0124)" fill="#084F68" font-family="'OpenSans-Semibold'" font-size="24.5137">Compass</text>
<g>
	<g>
		<polyline fill="none" stroke="#084F68" stroke-miterlimit="10" points="-751.8,34.7 -768.2,34.7 -824.6,34.7 -824.6,54.4 		"/>
		<g>
			<polygon fill="#084F68" points="-827.1,53.6 -824.6,58 -822.1,53.6 			"/>
		</g>
	</g>
</g>
<g>
	<g>
		<polyline fill="none" stroke="#084F68" stroke-miterlimit="10" points="-751.8,-13.4 -751.8,34.7 -679.6,34.7 -679.6,54.4 		"/>
		<g>
			<polygon fill="#084F68" points="-682.1,53.6 -679.6,58 -677.1,53.6 			"/>
		</g>
	</g>
</g>
<polyline fill="none" stroke="#084F68" stroke-miterlimit="10" points="-752.5,203.8 -736,203.8 -679.6,203.8 -679.6,180.1 "/>
<g>
	<g>
		<polyline fill="none" stroke="#084F68" stroke-miterlimit="10" points="-752.5,231.9 -752.5,203.8 -824.6,203.8 -824.6,180.1 		
			"/>
		<g>
			<polygon fill="#084F68" points="-750,231.2 -752.5,235.5 -755,231.2 			"/>
		</g>
	</g>
</g>
<circle fill="#FFFFFF" cx="-715.3" cy="35" r="8.8"/>
<text transform="matrix(1 0 0 1 -720.8919 37.2724)" fill="#084F68" font-family="'OpenSans-Semibold'" font-size="8">No</text>
<circle fill="#FFFFFF" cx="-788.2" cy="35" r="9.2"/>
<text transform="matrix(1 0 0 1 -794.8127 37.272)" fill="#084F68" font-family="'OpenSans-Semibold'" font-size="8">Yes</text>
<rect x="-757.5" y="1.6" fill="#FFFFFF" width="11.5" height="15"/>
<text transform="matrix(1 0 0 1 -822.6605 12.3626)" fill="#084F68" font-family="'OpenSans-Bold'" font-size="10">Do You Have Ruby Installed?</text>
<rect x="0" y="60.3" fill="#E6E6E5" width="100" height="40"/>
<g>
	<path fill="#0B4F69" d="M26.2,73.4c-0.8-0.6-1.9-0.9-3.2-0.9c-0.5,0-1.1,0.1-1.6,0.2c-0.5,0.1-1,0.3-1.4,0.5c-0.4,0.2-0.7,0.6-1,1
		c-0.2,0.4-0.4,0.9-0.4,1.6c0,0.6,0.2,1.1,0.5,1.4c0.3,0.4,0.8,0.7,1.4,0.9c0.6,0.2,1.2,0.4,1.9,0.6c0.7,0.2,1.5,0.3,2.2,0.5
		c0.8,0.2,1.5,0.4,2.2,0.6c0.7,0.2,1.4,0.6,1.9,1c0.6,0.4,1,0.9,1.4,1.5c0.3,0.6,0.5,1.4,0.5,2.3c0,1-0.2,1.9-0.7,2.6
		c-0.5,0.7-1,1.3-1.7,1.8c-0.7,0.5-1.5,0.8-2.4,1c-0.9,0.2-1.7,0.3-2.6,0.3c-1.1,0-2.1-0.1-3-0.4c-0.9-0.3-1.8-0.7-2.5-1.2
		c-0.7-0.5-1.3-1.2-1.7-2.1c-0.4-0.8-0.6-1.8-0.6-3H18c0,0.8,0.2,1.5,0.5,2.1c0.3,0.6,0.7,1,1.2,1.4c0.5,0.4,1.1,0.6,1.8,0.8
		c0.7,0.2,1.4,0.3,2.1,0.3c0.6,0,1.1-0.1,1.7-0.2c0.6-0.1,1.1-0.3,1.6-0.5c0.5-0.3,0.8-0.6,1.1-1c0.3-0.4,0.4-1,0.4-1.7
		c0-0.7-0.2-1.2-0.5-1.6c-0.3-0.4-0.8-0.7-1.4-1c-0.6-0.3-1.2-0.5-1.9-0.6c-0.7-0.2-1.5-0.3-2.2-0.5c-0.8-0.2-1.5-0.4-2.2-0.6
		c-0.7-0.2-1.4-0.5-1.9-0.9c-0.6-0.4-1-0.8-1.4-1.4c-0.3-0.6-0.5-1.3-0.5-2.2c0-1,0.2-1.8,0.6-2.5c0.4-0.7,0.9-1.3,1.6-1.7
		c0.6-0.5,1.4-0.8,2.2-1c0.8-0.2,1.7-0.3,2.5-0.3c1,0,1.9,0.1,2.7,0.3c0.8,0.2,1.6,0.6,2.2,1.1c0.6,0.5,1.1,1.1,1.5,1.9
		c0.4,0.8,0.6,1.6,0.6,2.7h-2.4C27.5,75,27,74,26.2,73.4z"/>
	<path fill="#0B4F69" d="M45.3,73.5c-1-0.7-2.1-1-3.4-1c-1.1,0-2.1,0.2-2.9,0.6c-0.8,0.4-1.5,1-2,1.7c-0.5,0.7-0.9,1.5-1.2,2.5
		c-0.2,0.9-0.4,1.9-0.4,2.9c0,1.1,0.1,2.1,0.4,3.1c0.2,1,0.6,1.8,1.2,2.5c0.5,0.7,1.2,1.3,2,1.7c0.8,0.4,1.8,0.6,2.9,0.6
		c0.8,0,1.6-0.1,2.2-0.4c0.6-0.3,1.2-0.7,1.7-1.1c0.5-0.5,0.8-1.1,1.1-1.7c0.3-0.7,0.4-1.4,0.5-2.2h2.5c-0.2,2.4-1.1,4.2-2.5,5.6
		c-1.4,1.3-3.3,2-5.7,2c-1.5,0-2.7-0.3-3.8-0.8c-1.1-0.5-2-1.2-2.7-2.1c-0.7-0.9-1.3-1.9-1.6-3.1C33.2,83,33,81.7,33,80.3
		c0-1.4,0.2-2.7,0.6-3.9c0.4-1.2,1-2.3,1.7-3.2c0.8-0.9,1.7-1.6,2.8-2.1c1.1-0.5,2.4-0.8,3.9-0.8c1,0,1.9,0.1,2.8,0.4
		c0.9,0.3,1.7,0.7,2.4,1.2c0.7,0.5,1.3,1.2,1.7,1.9c0.5,0.8,0.8,1.7,0.9,2.7h-2.5C46.9,75.2,46.3,74.2,45.3,73.5z"/>
	<path fill="#0B4F69" d="M62.5,73.4c-0.8-0.6-1.9-0.9-3.2-0.9c-0.5,0-1.1,0.1-1.6,0.2c-0.5,0.1-1,0.3-1.4,0.5c-0.4,0.2-0.7,0.6-1,1
		c-0.2,0.4-0.4,0.9-0.4,1.6c0,0.6,0.2,1.1,0.5,1.4c0.3,0.4,0.8,0.7,1.4,0.9c0.6,0.2,1.2,0.4,1.9,0.6c0.7,0.2,1.5,0.3,2.2,0.5
		c0.8,0.2,1.5,0.4,2.2,0.6c0.7,0.2,1.4,0.6,1.9,1c0.6,0.4,1,0.9,1.4,1.5c0.3,0.6,0.5,1.4,0.5,2.3c0,1-0.2,1.9-0.7,2.6
		c-0.5,0.7-1,1.3-1.7,1.8c-0.7,0.5-1.5,0.8-2.4,1c-0.9,0.2-1.7,0.3-2.6,0.3c-1.1,0-2.1-0.1-3-0.4c-0.9-0.3-1.8-0.7-2.5-1.2
		c-0.7-0.5-1.3-1.2-1.7-2.1c-0.4-0.8-0.6-1.8-0.6-3h2.4c0,0.8,0.2,1.5,0.5,2.1c0.3,0.6,0.7,1,1.2,1.4s1.1,0.6,1.8,0.8
		c0.7,0.2,1.4,0.3,2.1,0.3c0.6,0,1.1-0.1,1.7-0.2c0.6-0.1,1.1-0.3,1.6-0.5c0.5-0.3,0.8-0.6,1.1-1c0.3-0.4,0.4-1,0.4-1.7
		c0-0.7-0.2-1.2-0.5-1.6c-0.3-0.4-0.8-0.7-1.4-1c-0.6-0.3-1.2-0.5-1.9-0.6c-0.7-0.2-1.5-0.3-2.2-0.5c-0.8-0.2-1.5-0.4-2.2-0.6
		c-0.7-0.2-1.4-0.5-1.9-0.9c-0.6-0.4-1-0.8-1.4-1.4c-0.3-0.6-0.5-1.3-0.5-2.2c0-1,0.2-1.8,0.6-2.5c0.4-0.7,0.9-1.3,1.6-1.7
		c0.6-0.5,1.4-0.8,2.2-1c0.8-0.2,1.7-0.3,2.5-0.3c1,0,1.9,0.1,2.7,0.3c0.8,0.2,1.6,0.6,2.2,1.1c0.6,0.5,1.1,1.1,1.5,1.9
		c0.4,0.8,0.6,1.6,0.6,2.7H64C63.9,75,63.4,74,62.5,73.4z"/>
	<path fill="#0B4F69" d="M79.7,73.4c-0.8-0.6-1.9-0.9-3.2-0.9c-0.5,0-1.1,0.1-1.6,0.2c-0.5,0.1-1,0.3-1.4,0.5c-0.4,0.2-0.7,0.6-1,1
		c-0.2,0.4-0.4,0.9-0.4,1.6c0,0.6,0.2,1.1,0.5,1.4c0.3,0.4,0.8,0.7,1.4,0.9c0.6,0.2,1.2,0.4,1.9,0.6c0.7,0.2,1.5,0.3,2.2,0.5
		c0.8,0.2,1.5,0.4,2.2,0.6c0.7,0.2,1.4,0.6,1.9,1c0.6,0.4,1,0.9,1.4,1.5c0.3,0.6,0.5,1.4,0.5,2.3c0,1-0.2,1.9-0.7,2.6
		c-0.5,0.7-1,1.3-1.7,1.8c-0.7,0.5-1.5,0.8-2.4,1c-0.9,0.2-1.7,0.3-2.6,0.3c-1.1,0-2.1-0.1-3-0.4c-0.9-0.3-1.8-0.7-2.5-1.2
		c-0.7-0.5-1.3-1.2-1.7-2.1c-0.4-0.8-0.6-1.8-0.6-3h2.4c0,0.8,0.2,1.5,0.5,2.1c0.3,0.6,0.7,1,1.2,1.4c0.5,0.4,1.1,0.6,1.8,0.8
		c0.7,0.2,1.4,0.3,2.1,0.3c0.6,0,1.1-0.1,1.7-0.2c0.6-0.1,1.1-0.3,1.6-0.5c0.5-0.3,0.8-0.6,1.1-1c0.3-0.4,0.4-1,0.4-1.7
		c0-0.7-0.2-1.2-0.5-1.6c-0.3-0.4-0.8-0.7-1.4-1c-0.6-0.3-1.2-0.5-1.9-0.6c-0.7-0.2-1.5-0.3-2.2-0.5c-0.8-0.2-1.5-0.4-2.2-0.6
		c-0.7-0.2-1.4-0.5-1.9-0.9c-0.6-0.4-1-0.8-1.4-1.4c-0.3-0.6-0.5-1.3-0.5-2.2c0-1,0.2-1.8,0.6-2.5c0.4-0.7,0.9-1.3,1.6-1.7
		c0.6-0.5,1.4-0.8,2.2-1c0.8-0.2,1.7-0.3,2.5-0.3c1,0,1.9,0.1,2.7,0.3c0.8,0.2,1.6,0.6,2.2,1.1c0.6,0.5,1.1,1.1,1.5,1.9
		c0.4,0.8,0.6,1.6,0.6,2.7h-2.4C81,75,80.6,74,79.7,73.4z"/>
</g>
<rect x="672" y="60.2" fill="#0B4F69" width="80" height="40"/>
<g>
	<path fill="#E6E6E5" d="M698.8,73.5c-1-0.7-2.1-1-3.4-1c-1.1,0-2.1,0.2-2.9,0.6c-0.8,0.4-1.5,1-2,1.7c-0.5,0.7-0.9,1.5-1.1,2.4
		c-0.2,0.9-0.4,1.9-0.4,2.8c0,1.1,0.1,2.1,0.4,3c0.2,1,0.6,1.8,1.1,2.5c0.5,0.7,1.2,1.3,2,1.7c0.8,0.4,1.8,0.6,2.9,0.6
		c0.8,0,1.6-0.1,2.2-0.4c0.6-0.3,1.2-0.6,1.7-1.1c0.5-0.5,0.8-1.1,1.1-1.7c0.3-0.7,0.4-1.4,0.5-2.1h2.5c-0.2,2.4-1.1,4.2-2.4,5.5
		c-1.4,1.3-3.3,2-5.7,2c-1.5,0-2.7-0.2-3.8-0.7c-1.1-0.5-2-1.2-2.7-2.1c-0.7-0.9-1.3-1.9-1.6-3.1c-0.4-1.2-0.5-2.5-0.5-3.8
		c0-1.4,0.2-2.6,0.6-3.8c0.4-1.2,0.9-2.2,1.7-3.1c0.7-0.9,1.7-1.6,2.8-2.1c1.1-0.5,2.4-0.8,3.8-0.8c1,0,1.9,0.1,2.8,0.4
		c0.9,0.3,1.7,0.6,2.3,1.2c0.7,0.5,1.2,1.1,1.7,1.9s0.8,1.6,0.9,2.6h-2.5C700.4,75.1,699.8,74.1,698.8,73.5z"/>
	<path fill="#E6E6E5" d="M715.8,73.4c-0.8-0.6-1.9-0.9-3.2-0.9c-0.5,0-1,0.1-1.5,0.2c-0.5,0.1-1,0.3-1.3,0.5c-0.4,0.2-0.7,0.6-0.9,1
		c-0.2,0.4-0.4,0.9-0.4,1.5c0,0.6,0.2,1,0.5,1.4c0.3,0.4,0.8,0.7,1.4,0.9c0.6,0.2,1.2,0.4,1.9,0.6c0.7,0.1,1.4,0.3,2.2,0.5
		c0.7,0.2,1.5,0.4,2.2,0.6c0.7,0.2,1.4,0.6,1.9,1c0.6,0.4,1,0.9,1.4,1.5c0.3,0.6,0.5,1.4,0.5,2.3c0,1-0.2,1.8-0.7,2.6
		c-0.4,0.7-1,1.3-1.7,1.7c-0.7,0.4-1.5,0.8-2.3,1c-0.9,0.2-1.7,0.3-2.6,0.3c-1,0-2-0.1-3-0.4c-0.9-0.3-1.8-0.7-2.5-1.2
		c-0.7-0.5-1.3-1.2-1.7-2c-0.4-0.8-0.6-1.8-0.6-2.9h2.4c0,0.8,0.2,1.5,0.5,2c0.3,0.6,0.7,1,1.2,1.4s1.1,0.6,1.7,0.8
		c0.7,0.2,1.3,0.3,2,0.3c0.6,0,1.1-0.1,1.7-0.2c0.6-0.1,1.1-0.3,1.5-0.5c0.5-0.3,0.8-0.6,1.1-1c0.3-0.4,0.4-1,0.4-1.7
		c0-0.6-0.2-1.2-0.5-1.6c-0.3-0.4-0.8-0.7-1.4-1c-0.6-0.3-1.2-0.5-1.9-0.6c-0.7-0.2-1.4-0.3-2.2-0.5c-0.7-0.2-1.5-0.4-2.2-0.6
		c-0.7-0.2-1.4-0.5-1.9-0.9c-0.6-0.4-1-0.8-1.4-1.4c-0.3-0.6-0.5-1.3-0.5-2.1c0-0.9,0.2-1.8,0.6-2.5c0.4-0.7,0.9-1.3,1.5-1.7
		c0.6-0.4,1.4-0.8,2.2-1c0.8-0.2,1.6-0.3,2.5-0.3c1,0,1.9,0.1,2.7,0.3c0.8,0.2,1.5,0.6,2.2,1.1c0.6,0.5,1.1,1.1,1.5,1.8
		c0.4,0.7,0.6,1.6,0.6,2.7h-2.4C717.1,75,716.6,74,715.8,73.4z"/>
	<path fill="#E6E6E5" d="M732.8,73.4c-0.8-0.6-1.9-0.9-3.2-0.9c-0.5,0-1,0.1-1.5,0.2c-0.5,0.1-1,0.3-1.3,0.5c-0.4,0.2-0.7,0.6-0.9,1
		c-0.2,0.4-0.4,0.9-0.4,1.5c0,0.6,0.2,1,0.5,1.4c0.3,0.4,0.8,0.7,1.4,0.9c0.6,0.2,1.2,0.4,1.9,0.6c0.7,0.1,1.4,0.3,2.2,0.5
		c0.7,0.2,1.5,0.4,2.2,0.6c0.7,0.2,1.4,0.6,1.9,1c0.6,0.4,1,0.9,1.4,1.5c0.3,0.6,0.5,1.4,0.5,2.3c0,1-0.2,1.8-0.7,2.6
		c-0.4,0.7-1,1.3-1.7,1.7c-0.7,0.4-1.5,0.8-2.3,1c-0.9,0.2-1.7,0.3-2.6,0.3c-1,0-2-0.1-3-0.4c-0.9-0.3-1.8-0.7-2.5-1.2
		c-0.7-0.5-1.3-1.2-1.7-2c-0.4-0.8-0.6-1.8-0.6-2.9h2.4c0,0.8,0.2,1.5,0.5,2c0.3,0.6,0.7,1,1.2,1.4s1.1,0.6,1.7,0.8
		c0.7,0.2,1.3,0.3,2,0.3c0.6,0,1.1-0.1,1.7-0.2c0.6-0.1,1.1-0.3,1.5-0.5c0.5-0.3,0.8-0.6,1.1-1c0.3-0.4,0.4-1,0.4-1.7
		c0-0.6-0.2-1.2-0.5-1.6c-0.3-0.4-0.8-0.7-1.4-1c-0.6-0.3-1.2-0.5-1.9-0.6c-0.7-0.2-1.4-0.3-2.2-0.5c-0.7-0.2-1.5-0.4-2.2-0.6
		c-0.7-0.2-1.4-0.5-1.9-0.9c-0.6-0.4-1-0.8-1.4-1.4c-0.3-0.6-0.5-1.3-0.5-2.1c0-0.9,0.2-1.8,0.6-2.5c0.4-0.7,0.9-1.3,1.5-1.7
		c0.6-0.4,1.4-0.8,2.2-1c0.8-0.2,1.6-0.3,2.5-0.3c1,0,1.9,0.1,2.7,0.3c0.8,0.2,1.5,0.6,2.2,1.1c0.6,0.5,1.1,1.1,1.5,1.8
		c0.4,0.7,0.6,1.6,0.6,2.7h-2.4C734.1,75,733.6,74,732.8,73.4z"/>
</g>
<g>
	<text transform="matrix(1 0 0 1 -812.2845 -254.764)" fill="#FFFFFF" font-family="'HelveticaNeue'" font-size="40">SCSS</text>
</g>
<g>
	<g>
		<circle fill="#0B4F69" cx="-522.9" cy="-307.4" r="126"/>
		<g opacity="0.5" enable-background="new    ">
			<g>
				<g>
					<defs>
						<circle id="SVGID_3_" cx="-523.3" cy="-307.7" r="126"/>
					</defs>
					<clipPath id="SVGID_4_">
						<use xlink:href="#SVGID_3_"  overflow="visible"/>
					</clipPath>
					<g clip-path="url(#SVGID_4_)">
						<g>
							
								<line fill="none" stroke="#FFFFFF" stroke-width="0.5" stroke-miterlimit="10" x1="-429.1" y1="-89.1" x2="-429.1" y2="-511.7"/>
							
								<line fill="none" stroke="#FFFFFF" stroke-width="0.5" stroke-miterlimit="10" x1="-446.2" y1="-89.1" x2="-446.2" y2="-511.7"/>
							<line fill="none" stroke="#FFFFFF" stroke-width="0.5" stroke-miterlimit="10" x1="-412" y1="-89.5" x2="-412" y2="-512.1"/>
							
								<line fill="none" stroke="#FFFFFF" stroke-width="0.5" stroke-miterlimit="10" x1="-394.9" y1="-89.1" x2="-394.9" y2="-511.7"/>
							
								<line fill="none" stroke="#FFFFFF" stroke-width="0.5" stroke-miterlimit="10" x1="-497.5" y1="-89.1" x2="-497.5" y2="-511.7"/>
							
								<line fill="none" stroke="#FFFFFF" stroke-width="0.5" stroke-miterlimit="10" x1="-514.6" y1="-89.1" x2="-514.6" y2="-511.7"/>
							
								<line fill="none" stroke="#FFFFFF" stroke-width="0.5" stroke-miterlimit="10" x1="-480.4" y1="-89.5" x2="-480.4" y2="-512.1"/>
							
								<line fill="none" stroke="#FFFFFF" stroke-width="0.5" stroke-miterlimit="10" x1="-463.3" y1="-89.1" x2="-463.3" y2="-511.7"/>
							
								<line fill="none" stroke="#FFFFFF" stroke-width="0.5" stroke-miterlimit="10" x1="-565.5" y1="-88.9" x2="-565.5" y2="-511.5"/>
							
								<line fill="none" stroke="#FFFFFF" stroke-width="0.5" stroke-miterlimit="10" x1="-582.6" y1="-88.9" x2="-582.6" y2="-511.5"/>
							
								<line fill="none" stroke="#FFFFFF" stroke-width="0.5" stroke-miterlimit="10" x1="-548.4" y1="-89.3" x2="-548.4" y2="-511.9"/>
							
								<line fill="none" stroke="#FFFFFF" stroke-width="0.5" stroke-miterlimit="10" x1="-531.3" y1="-88.9" x2="-531.3" y2="-511.5"/>
							
								<line fill="none" stroke="#FFFFFF" stroke-width="0.5" stroke-miterlimit="10" x1="-633.8" y1="-88.9" x2="-633.8" y2="-511.5"/>
							
								<line fill="none" stroke="#FFFFFF" stroke-width="0.5" stroke-miterlimit="10" x1="-650.9" y1="-88.9" x2="-650.9" y2="-511.5"/>
							
								<line fill="none" stroke="#FFFFFF" stroke-width="0.5" stroke-miterlimit="10" x1="-616.8" y1="-89.3" x2="-616.8" y2="-511.9"/>
							
								<line fill="none" stroke="#FFFFFF" stroke-width="0.5" stroke-miterlimit="10" x1="-599.7" y1="-88.9" x2="-599.7" y2="-511.5"/>
						</g>
						<g>
							<line fill="none" stroke="#FFFFFF" stroke-width="0.5" stroke-miterlimit="10" x1="-726" y1="-214" x2="-303.4" y2="-214"/>
							
								<line fill="none" stroke="#FFFFFF" stroke-width="0.5" stroke-miterlimit="10" x1="-726" y1="-231.1" x2="-303.4" y2="-231.1"/>
							
								<line fill="none" stroke="#FFFFFF" stroke-width="0.5" stroke-miterlimit="10" x1="-725.5" y1="-196.9" x2="-303" y2="-196.9"/>
							
								<line fill="none" stroke="#FFFFFF" stroke-width="0.5" stroke-miterlimit="10" x1="-726" y1="-179.8" x2="-303.4" y2="-179.8"/>
							
								<line fill="none" stroke="#FFFFFF" stroke-width="0.5" stroke-miterlimit="10" x1="-726" y1="-282.4" x2="-303.4" y2="-282.4"/>
							
								<line fill="none" stroke="#FFFFFF" stroke-width="0.5" stroke-miterlimit="10" x1="-726" y1="-299.4" x2="-303.4" y2="-299.4"/>
							
								<line fill="none" stroke="#FFFFFF" stroke-width="0.5" stroke-miterlimit="10" x1="-725.5" y1="-265.3" x2="-303" y2="-265.3"/>
							
								<line fill="none" stroke="#FFFFFF" stroke-width="0.5" stroke-miterlimit="10" x1="-726" y1="-248.2" x2="-303.4" y2="-248.2"/>
							
								<line fill="none" stroke="#FFFFFF" stroke-width="0.5" stroke-miterlimit="10" x1="-726.2" y1="-350.4" x2="-303.6" y2="-350.4"/>
							
								<line fill="none" stroke="#FFFFFF" stroke-width="0.5" stroke-miterlimit="10" x1="-726.2" y1="-367.5" x2="-303.6" y2="-367.5"/>
							
								<line fill="none" stroke="#FFFFFF" stroke-width="0.5" stroke-miterlimit="10" x1="-725.7" y1="-333.3" x2="-303.2" y2="-333.3"/>
							
								<line fill="none" stroke="#FFFFFF" stroke-width="0.5" stroke-miterlimit="10" x1="-726.2" y1="-316.2" x2="-303.6" y2="-316.2"/>
							
								<line fill="none" stroke="#FFFFFF" stroke-width="0.5" stroke-miterlimit="10" x1="-726.2" y1="-418.7" x2="-303.6" y2="-418.7"/>
							
								<line fill="none" stroke="#FFFFFF" stroke-width="0.5" stroke-miterlimit="10" x1="-726.2" y1="-435.8" x2="-303.6" y2="-435.8"/>
							
								<line fill="none" stroke="#FFFFFF" stroke-width="0.5" stroke-miterlimit="10" x1="-725.7" y1="-401.6" x2="-303.2" y2="-401.6"/>
							
								<line fill="none" stroke="#FFFFFF" stroke-width="0.5" stroke-miterlimit="10" x1="-726.2" y1="-384.5" x2="-303.6" y2="-384.5"/>
						</g>
					</g>
				</g>
			</g>
		</g>
	</g>
	<g>
		<polygon fill="none" stroke="#FFFFFF" stroke-width="3" stroke-linejoin="round" stroke-miterlimit="10" points="-452.3,-324 
			-593.6,-324 -572.3,-358.5 -473.6,-358.5 		"/>
		<polygon fill="none" stroke="#FFFFFF" stroke-width="3" stroke-linejoin="round" stroke-miterlimit="10" points="-452.3,-324 
			-593.6,-324 -522.9,-235.2 		"/>
		<polyline fill="none" stroke="#FFFFFF" stroke-width="3" stroke-linejoin="round" stroke-miterlimit="10" points="-572.3,-358.5 
			-551.4,-324 -522.9,-358.5 -495.5,-324 -473.8,-358.5 		"/>
		<polyline fill="none" stroke="#FFFFFF" stroke-width="3" stroke-linejoin="round" stroke-miterlimit="10" points="-551.4,-324 
			-522.9,-235.2 -495.5,-324 		"/>
	</g>
	
		<line fill="none" stroke="#FFFFFF" stroke-width="3" stroke-linejoin="round" stroke-miterlimit="10" x1="-635.2" y1="-324" x2="-607.9" y2="-324"/>
	
		<line fill="none" stroke="#FFFFFF" stroke-width="3" stroke-linejoin="round" stroke-miterlimit="10" x1="-625.7" y1="-349.5" x2="-604.7" y2="-331.9"/>
	
		<line fill="none" stroke="#FFFFFF" stroke-width="3" stroke-linejoin="round" stroke-miterlimit="10" x1="-625.7" y1="-298.6" x2="-604.7" y2="-316.2"/>
	
		<line fill="none" stroke="#FFFFFF" stroke-width="3" stroke-linejoin="round" stroke-miterlimit="10" x1="-410.7" y1="-324" x2="-438" y2="-324"/>
	
		<line fill="none" stroke="#FFFFFF" stroke-width="3" stroke-linejoin="round" stroke-miterlimit="10" x1="-420.2" y1="-349.4" x2="-441.1" y2="-331.9"/>
	
		<line fill="none" stroke="#FFFFFF" stroke-width="3" stroke-linejoin="round" stroke-miterlimit="10" x1="-420.2" y1="-298.6" x2="-441.1" y2="-316.2"/>
</g>
<g>
	<g>
		<circle fill="#0B4F69" cx="1037.3" cy="80.3" r="80.1"/>
		<g opacity="0.5" enable-background="new    ">
			<g>
				<g>
					<defs>
						<circle id="SVGID_5_" cx="1037" cy="80.1" r="80.1"/>
					</defs>
					<clipPath id="SVGID_6_">
						<use xlink:href="#SVGID_5_"  overflow="visible"/>
					</clipPath>
					<g clip-path="url(#SVGID_6_)">
						<g>
							
								<line fill="none" stroke="#FFFFFF" stroke-width="0.5" stroke-miterlimit="10" x1="1096.9" y1="219" x2="1096.9" y2="-49.6"/>
							<line fill="none" stroke="#FFFFFF" stroke-width="0.5" stroke-miterlimit="10" x1="1086" y1="219" x2="1086" y2="-49.6"/>
							
								<line fill="none" stroke="#FFFFFF" stroke-width="0.5" stroke-miterlimit="10" x1="1107.8" y1="218.8" x2="1107.8" y2="-49.8"/>
							
								<line fill="none" stroke="#FFFFFF" stroke-width="0.5" stroke-miterlimit="10" x1="1118.6" y1="219" x2="1118.6" y2="-49.6"/>
							
								<line fill="none" stroke="#FFFFFF" stroke-width="0.5" stroke-miterlimit="10" x1="1053.4" y1="219" x2="1053.4" y2="-49.6"/>
							
								<line fill="none" stroke="#FFFFFF" stroke-width="0.5" stroke-miterlimit="10" x1="1042.6" y1="219" x2="1042.6" y2="-49.6"/>
							
								<line fill="none" stroke="#FFFFFF" stroke-width="0.5" stroke-miterlimit="10" x1="1064.3" y1="218.8" x2="1064.3" y2="-49.8"/>
							
								<line fill="none" stroke="#FFFFFF" stroke-width="0.5" stroke-miterlimit="10" x1="1075.2" y1="219" x2="1075.2" y2="-49.6"/>
							
								<line fill="none" stroke="#FFFFFF" stroke-width="0.5" stroke-miterlimit="10" x1="1010.2" y1="219.2" x2="1010.2" y2="-49.4"/>
							
								<line fill="none" stroke="#FFFFFF" stroke-width="0.5" stroke-miterlimit="10" x1="999.3" y1="219.2" x2="999.3" y2="-49.4"/>
							
								<line fill="none" stroke="#FFFFFF" stroke-width="0.5" stroke-miterlimit="10" x1="1021.1" y1="218.9" x2="1021.1" y2="-49.7"/>
							
								<line fill="none" stroke="#FFFFFF" stroke-width="0.5" stroke-miterlimit="10" x1="1031.9" y1="219.2" x2="1031.9" y2="-49.4"/>
							
								<line fill="none" stroke="#FFFFFF" stroke-width="0.5" stroke-miterlimit="10" x1="966.8" y1="219.2" x2="966.8" y2="-49.4"/>
							
								<line fill="none" stroke="#FFFFFF" stroke-width="0.5" stroke-miterlimit="10" x1="955.9" y1="219.2" x2="955.9" y2="-49.4"/>
							
								<line fill="none" stroke="#FFFFFF" stroke-width="0.5" stroke-miterlimit="10" x1="977.6" y1="218.9" x2="977.6" y2="-49.7"/>
							
								<line fill="none" stroke="#FFFFFF" stroke-width="0.5" stroke-miterlimit="10" x1="988.5" y1="219.2" x2="988.5" y2="-49.4"/>
						</g>
						<g>
							
								<line fill="none" stroke="#FFFFFF" stroke-width="0.5" stroke-miterlimit="10" x1="908.2" y1="139.7" x2="1176.8" y2="139.7"/>
							
								<line fill="none" stroke="#FFFFFF" stroke-width="0.5" stroke-miterlimit="10" x1="908.2" y1="128.8" x2="1176.8" y2="128.8"/>
							
								<line fill="none" stroke="#FFFFFF" stroke-width="0.5" stroke-miterlimit="10" x1="908.5" y1="150.5" x2="1177.1" y2="150.5"/>
							
								<line fill="none" stroke="#FFFFFF" stroke-width="0.5" stroke-miterlimit="10" x1="908.2" y1="161.4" x2="1176.8" y2="161.4"/>
							<line fill="none" stroke="#FFFFFF" stroke-width="0.5" stroke-miterlimit="10" x1="908.2" y1="96.2" x2="1176.8" y2="96.2"/>
							<line fill="none" stroke="#FFFFFF" stroke-width="0.5" stroke-miterlimit="10" x1="908.2" y1="85.3" x2="1176.8" y2="85.3"/>
							
								<line fill="none" stroke="#FFFFFF" stroke-width="0.5" stroke-miterlimit="10" x1="908.5" y1="107.1" x2="1177.1" y2="107.1"/>
							
								<line fill="none" stroke="#FFFFFF" stroke-width="0.5" stroke-miterlimit="10" x1="908.2" y1="117.9" x2="1176.8" y2="117.9"/>
							<line fill="none" stroke="#FFFFFF" stroke-width="0.5" stroke-miterlimit="10" x1="908.1" y1="53" x2="1176.7" y2="53"/>
							<line fill="none" stroke="#FFFFFF" stroke-width="0.5" stroke-miterlimit="10" x1="908.1" y1="42.1" x2="1176.7" y2="42.1"/>
							<line fill="none" stroke="#FFFFFF" stroke-width="0.5" stroke-miterlimit="10" x1="908.3" y1="63.8" x2="1176.9" y2="63.8"/>
							<line fill="none" stroke="#FFFFFF" stroke-width="0.5" stroke-miterlimit="10" x1="908.1" y1="74.7" x2="1176.7" y2="74.7"/>
							<line fill="none" stroke="#FFFFFF" stroke-width="0.5" stroke-miterlimit="10" x1="908.1" y1="9.5" x2="1176.7" y2="9.5"/>
							<line fill="none" stroke="#FFFFFF" stroke-width="0.5" stroke-miterlimit="10" x1="908.1" y1="-1.3" x2="1176.7" y2="-1.3"/>
							<line fill="none" stroke="#FFFFFF" stroke-width="0.5" stroke-miterlimit="10" x1="908.3" y1="20.4" x2="1176.9" y2="20.4"/>
							<line fill="none" stroke="#FFFFFF" stroke-width="0.5" stroke-miterlimit="10" x1="908.1" y1="31.2" x2="1176.7" y2="31.2"/>
						</g>
					</g>
				</g>
			</g>
		</g>
	</g>
	<g>
		<polygon fill="none" stroke="#FFFFFF" stroke-width="3" stroke-linejoin="round" stroke-miterlimit="10" points="1082.2,69.7 
			992.3,69.7 1005.8,47.8 1068.6,47.8 		"/>
		<polygon fill="none" stroke="#FFFFFF" stroke-width="3" stroke-linejoin="round" stroke-miterlimit="10" points="1082.2,69.7 
			992.3,69.7 1037.2,126.2 		"/>
		<polyline fill="none" stroke="#FFFFFF" stroke-width="3" stroke-linejoin="round" stroke-miterlimit="10" points="1005.8,47.8 
			1019.2,69.7 1037.2,47.8 1054.7,69.7 1068.5,47.8 		"/>
		<polyline fill="none" stroke="#FFFFFF" stroke-width="3" stroke-linejoin="round" stroke-miterlimit="10" points="1019.2,69.7 
			1037.2,126.2 1054.7,69.7 		"/>
	</g>
	
		<line fill="none" stroke="#FFFFFF" stroke-width="3" stroke-linejoin="round" stroke-miterlimit="10" x1="965.9" y1="69.7" x2="983.3" y2="69.7"/>
	
		<line fill="none" stroke="#FFFFFF" stroke-width="3" stroke-linejoin="round" stroke-miterlimit="10" x1="971.9" y1="53.6" x2="985.3" y2="64.7"/>
	
		<line fill="none" stroke="#FFFFFF" stroke-width="3" stroke-linejoin="round" stroke-miterlimit="10" x1="971.9" y1="85.9" x2="985.3" y2="74.7"/>
	
		<line fill="none" stroke="#FFFFFF" stroke-width="3" stroke-linejoin="round" stroke-miterlimit="10" x1="1108.6" y1="69.7" x2="1091.2" y2="69.7"/>
	
		<line fill="none" stroke="#FFFFFF" stroke-width="3" stroke-linejoin="round" stroke-miterlimit="10" x1="1102.6" y1="53.6" x2="1089.2" y2="64.7"/>
	
		<line fill="none" stroke="#FFFFFF" stroke-width="3" stroke-linejoin="round" stroke-miterlimit="10" x1="1102.6" y1="85.9" x2="1089.2" y2="74.7"/>
</g>
<path fill="none" stroke="#EC008C" stroke-miterlimit="10" d="M-805.7,144.5"/>
<g>
	<path fill="none" stroke="#EC008C" stroke-miterlimit="10" d="M1059.4-241.7"/>
	<ellipse opacity="0.5" fill="#CDCCCC" enable-background="new    " cx="1326.4" cy="-76.2" rx="297.3" ry="28.3"/>
	<path fill="#EAF7FE" d="M1150.5-88.7c0,0-1.5-20.6,1-28.3c2.6-7.7-45.1-17.2-45.1-17.2s1.2,22.3,3.2,29.2"/>
	<path fill="#A1D4E9" d="M1082.9-206.8l-6.3,9.3l-3.9,1.9l3.2,1.2c0,0-12.3,14.9-13.7,23.7c0,0,4.2-2.1,6-2.6c0,0-5.8,10.2-5.8,15.8
		c0,0,3.7-2.3,5.3-2.1c0,0-5.8,6-8.8,7.4c0,0,3.5,0.5,4.9,0c0,0-7,8.1-6.3,24.8c0,0,2.3-2.6,3.9-3.2c0,0,1.9,17.6,29.2,27.2
		c0,0-3-7.7-3-11.8c0,0,5.3,2,11.4,2.3c0,0-4.1-6.9-3.6-10.3h5.2l-0.5-9.5c0,0-7.8-3-6.2-11.4c0,0-1.8-2.8-6.6-15.3
		C1083-171.1,1091.9-212.1,1082.9-206.8z"/>
	<path fill="#EAF7FE" d="M1150.1-108.1c0-1.9-1.3-2.1-3.5-1.3c-4.2-2.9-11,0.8-11,0.8c-0.9,0-1.8,0.1-2.6,0.1
		c-2.6-0.2-11.4-1-16.8-0.4c0,0,1.3,0.9,1.8,1.8c-5.7,0.9-16.7,2-20.7,3.4c-3.1,0.9-9.9,2.8-12.9,4.2c0,0,1.7,0.1,2.2,0.7
		c-2.1,1.3-5.4,3.7-8.5,8.1c0,0,1-0.4,2-0.8c-2.4,4.2-2.7,6.3-2.5,9.6c-0.1,1-0.3,2.1-0.5,3.2c2-0.2,3.9-0.4,5.9-0.6
		c0,0.2,0,0.4,0.1,0.8l0.2,1.5l5.9-0.4l0.9,0l0.1,2c0,0,40.3-1.4,58.5-1.6c0,0,2.8,0.1,2.7-2C1151.3-81.5,1149.9-97.6,1150.1-108.1z
		"/>
	<path fill="#EAF7FE" d="M1157.5-345.9c0,0-11.5,0.7-19.6,10.4l-2.4-10.1l-11,5c0,0-8.1-14.4-4.3-22c0,0-19.8-0.7-35.9,32.7
		c0,0-7.3-9.4-4.9-18.5c0,0-27.2,20.5-20.9,49.1c0,0-5.9-1.7-7.7-8.4c0,0-3.1,34.5,22.6,82.2c0,0-4.8-3.9-6.4-3.7
		c0,0,5.1,7,7.2,11.8c0,0-3.2-0.9-5.3-0.2c0,0,11.1,3.7,13.9,10.7c2,4.2,4,17.6,5.1,47.3c7.5,15,18.3,45.8,69.2,42.5L1157.5-345.9z"
		/>
	
		<ellipse transform="matrix(0.9787 -0.2052 0.2052 0.9787 69.3277 223.551)" fill="#CDEAF5" cx="1112.5" cy="-222.5" rx="7.5" ry="9.5"/>
	
		<ellipse transform="matrix(0.9787 -0.2052 0.2052 0.9787 72.3551 230.458)" fill="#CDEAF5" cx="1147.3" cy="-233.6" rx="7.5" ry="9.5"/>
	
		<ellipse transform="matrix(0.9787 -0.2052 0.2052 0.9787 72.9169 230.4285)" fill="#FFFFFF" cx="1147.4" cy="-236.3" rx="7.4" ry="9.4"/>
	<path fill="#4F4E51" d="M1145.9-241.4c0,0.2,0,0.5,0.1,0.7c0.3,1.3,1.3,2.2,2.4,2c0.9-0.2,1.5-1.2,1.4-2.3c0.8,0.7,1.3,1.6,1.6,2.8
		c0.5,2.4-0.7,4.7-2.6,5.1c-1.9,0.4-3.9-1.2-4.4-3.6C1144-238.7,1144.6-240.5,1145.9-241.4z"/>
	
		<ellipse transform="matrix(0.9787 -0.2052 0.2052 0.9787 69.8895 223.5213)" fill="#FFFFFF" cx="1112.6" cy="-225.2" rx="7.4" ry="9.4"/>
	<path fill="#4F4E51" d="M1111.8-230.2c0,0.2,0,0.5,0.1,0.7c0.3,1.3,1.3,2.2,2.4,2c0.9-0.2,1.5-1.2,1.4-2.3c0.8,0.7,1.3,1.6,1.6,2.8
		c0.5,2.4-0.7,4.7-2.6,5.1s-3.9-1.2-4.4-3.6C1109.9-227.5,1110.5-229.4,1111.8-230.2z"/>
	<path fill="#5C5B5D" d="M1133.1-203.2c0,0,4.1-3.4,4.4-5.3c0,0,12.3-3.1,18.1-11.5C1155.6-220.1,1154.1-198.2,1133.1-203.2z"/>
	<path fill="#A1D4E9" d="M1106.8-252.6c0,0-9.3,0.5-10,9.3c0,0-3.9-6.3,1.6-10.2C1104.1-257.4,1106.8-252.6,1106.8-252.6z"/>
	<path fill="#A1D4E9" d="M1098.2-261.8c0,0-8.6,0.5-8.4,8.4c0,0-3.9-4.9,0.2-8.8C1094.3-266.3,1098.2-261.8,1098.2-261.8z"/>
	<path fill="#CDEAF5" d="M1151.4-116.7c0,0-27.4-3.2-44.8-19.6l4.5,0.9c0,0-11.5-10.3-17.4-28.7h3.1c0,0-2.3-11.5-7.2-24.5
		c0-1.1,0-1.8,0-1.8c-2.4-6.4-6.9-21.4-8.4-29.7c-1.4-13.7-8-25.9-8.3-29.8c1.5-4.5,5.6-13.2,5.6-13.2c-1.6,0.5-6.7,3.2-6.7,3.2
		c-2.1-15.6,8.8-31.6,8.8-31.6c-6.7-0.7-15.3,5.3-15.3,5.3c-3-21.6,7.9-40.2,7.9-40.2c-0.5,7.9,10.7,18.8,10.7,18.8
		c7.9-35.4,30.6-48.8,35.2-51.1c0.1-1.4,0.5-2.8,1.2-4.1c0,0-19.8-0.7-35.9,32.7c0,0-7.3-9.4-4.9-18.5c0,0-13.2,10-19.1,25.8
		c-2.1-2.2-3.9-8.3-3.9-8.3c-3.5,11.8,1.9,31.1,1.9,31.1s0-0.1,0.1-0.3c0.1,0.3,0.1,0.5,0.2,0.8c0,0-5.9-1.7-7.7-8.4
		c0,0-3.1,34.5,22.6,82.2c0,0-4.8-3.9-6.4-3.7c0,0,5.1,7,7.2,11.8c0,0-3.2-0.9-5.3-0.2c0,0,7.3,3,10.2,8.7c0,0,0,0.1,0,0.1
		c2.1,5.9,3.7,11.8,3.7,11.8l-2.8,7l2.3,0.7c0.3,1.4,1.6,15.3,1.6,15.3s0.1-0.6,0.2-1.4c0.2,1.2,0.3,2.4,0.6,3.7
		c-0.8-0.2-1.9-0.5-2.3-0.5c-0.7-0.2-1.3-0.3-1.6-0.3c0,0,0.3,1.6,2.4,4.5c0,0.3,0.1,0.6,0.2,0.8c1.4,6.7,3.7,14.2,7.2,21.5
		c0.8,2.6,0.9,6.7,1.4,8l1.6-2.1c1,1.5,0.7,1.1,1.3,2.7l2.4,5.8l0.3-3.2c2.6,3.4,5.7,6.6,9.2,9.4c0.6,0.5,1.2,1,1.9,1.4
		c0.2,0.2,0.4,0.3,0.6,0.5c0,0,0,0,0,0c0.5,0.3,0.9,0.6,1.4,0.9c4,5.1,6.8,9.2,7,11.2c0,0,6.6,6.5,9.1,9l2.4-4.9
		c0,0,10.4,11.8,21.2,12.2C1150.5-94.8,1149.6-106.7,1151.4-116.7z M1072.5-247.2c0-0.3,0-0.6-0.1-0.9c0.1-0.2,0.1-0.3,0.1-0.3
		c0,0,0-0.1,0-0.1C1072.5-248.1,1072.5-247.7,1072.5-247.2z"/>
	<path fill="#C0E5F3" d="M1084.7-214.1c0-0.2-0.1-0.5-0.1-0.7l0.2,1.4C1084.8-213.7,1084.7-213.9,1084.7-214.1z"/>
	<path fill="#5C5B5D" d="M1170.4-235c0,0-0.7-7.1-1.5-12.6c3.2-0.4,6.5-0.5,6.5-0.5l-0.4-3.9c-3.3-0.5-6.9,0-6.9,0
		c-3.4,0.4-9.2,1.3-15.9,3.4c-8.8,2.8-16,6-20.4,7.9c-1.3,0.6-2.3,1-3.1,1.3l-0.9,0.4c-1.5,0.6-2.2,0.9-3.1,1.1c0,0,0,0.1-0.1,0.1
		c-0.5,0.1-1,0.3-1.8,0.4l-0.9,0.2c-0.8,0.2-1.9,0.4-3.3,0.7c-4.7,0.9-12.5,2.5-21.2,5.2c-6.7,2.1-12,4.7-15,6.3c0,0-3.2,1.7-5.6,4
		l1.9,3.5c0,0,2.8-1.9,5.6-3.4c2.5,5,6,11.2,6,11.2l0.1,0.2c0.2,0.3,0.4,0.6,0.6,0.9c1.6,2.4,2.8,3.7,5.5,3.7
		c2.7,0,8.7-1.3,14.6-3.1c2.2-0.7,4.5-1.7,6.9-3c3.4-1.9,6.3-4.1,7.3-5.5c1.3-2,1-5.8,0.8-8.3l-0.1-0.7c-0.1-0.8-0.2-1.7-0.3-2.6
		c-0.1-1.2-0.3-2.5-0.2-3c0-0.1,0.1-0.4,0.9-0.8c0.4-0.2,0.8-0.4,1.3-0.5c0.1,0,0.3,0,0.4-0.1c0.9-0.1,1.1,0.1,1.2,0.2
		c0.4,0.3,1,1.5,1.5,2.5c0.4,0.8,0.8,1.5,1.3,2.3l0.4,0.6c1.3,2.1,3.2,5.4,5.4,6.3c1.5,0.6,5.2,0.7,9.1,0.3c2.6-0.3,5.1-0.8,7.3-1.5
		c5.8-1.8,11.5-4.2,13.7-5.8c2.3-1.6,2.5-3.4,2.4-6.2c0-0.4,0-0.7,0-1.1L1170.4-235z M1122.7-220.3c-0.5,2.4-0.7,3.1-4.3,5.2
		c-0.2,0.1-0.3,0.2-0.5,0.3c-3.9,2.1-11.4,5-15.9,5.8l-0.3,0.1c-4.6,0.8-6.2,1-7.2-0.2c-1.3-1.6-5.5-9.5-6.3-11.3
		c-0.6-1.3,0.5-2.4,0.8-2.6c0.2-0.1,0.5-0.3,1-0.6c2.8-1.6,9.3-4.4,12.4-5.5c4-1.3,14.1-3.5,16.6-3.3c1.9,0.1,2,0.8,2.4,2.1l0,0.1
		C1121.8-229.1,1123.2-222.8,1122.7-220.3z M1167.2-232.2c-0.1,1.5-1.6,2.3-5.8,4.3l-0.3,0.1c-4.1,2-11.9,3.9-16.3,4.4
		c-0.2,0-0.4,0-0.5,0.1c-4.1,0.4-4.7,0-6.5-1.7c-1.9-1.8-4.3-7.8-4.8-9l0-0.1c-0.5-1.3-0.7-1.9,0.7-3.1c2-1.6,11.5-5.6,15.5-6.8
		c3.2-1,10.1-2.3,13.3-2.7c0.5-0.1,0.9-0.1,1.1-0.1c0.4,0,1.9,0.3,2.2,1.7C1166.3-243.2,1167.4-234.2,1167.2-232.2z"/>
	<path fill="#A1D4E9" d="M1138.6-251.2c0,0,4.9-2.8,8.4-0.5c0,0,0.3-3.8-4.2-3.5C1138.3-254.8,1138.6-251.2,1138.6-251.2z"/>
	<path fill="#A1D4E9" d="M1137.4-259.3c0,0,5.6-4.2,9.9-0.7c0,0,0.2-3.3-4.4-3.5C1138.5-263.7,1137.4-259.3,1137.4-259.3z"/>
	<path fill="#B2DEEF" d="M1124.9-191.5c0,0,5,2.3,7.2,2.7c0,0,3.4-4.4,5.8-5.7c0,0,2.4,5.3,5.9,7.2c0,0,3.8-6.8,9.2-9.1
		c0,0,2.4,2.6,5.1,2.9l-0.1,5c0,0-3.7-1.4-5.1-2.7c0,0-6.2,8.5-5.3,11.8c0,0-7.8-3.7-11.3-7.4c0,0-3.5,2.6-4.3,3.7
		C1132-183,1127.1-187.1,1124.9-191.5z"/>
	<path fill="#85C1CE" d="M1078.1-147.9c0,0,8.2,16.4,7.8,23.8c0,0-8.2-0.2-15.3-6.1c0,0,11,10.8,20.9,9.4
		C1091.5-120.8,1089.5-136.8,1078.1-147.9z"/>
	<path fill="#5C5B5D" d="M1059.4-282.3c-0.6,0.3-2.5,1.1-2.5,1.1c-17.2,8.5-35.8,0.2-35.8,0.2s3.2,11.2,14.8,17.4
		c11.6,6.2,27.8,1.4,27.8,1.4c1.4,2,2.3,7.3,2.3,7.3s2.5-6.9-0.3-16.9C1063.7-278.8,1059.7-282.5,1059.4-282.3"/>
	<path fill="#747F83" d="M1059.4-282.3c-0.6,0.3-2.5,1.1-2.5,1.1c-17.2,8.5-35.8,0.2-35.8,0.2s17.7,20.1,44,7.1
		C1065-273.9,1063.9-278.5,1059.4-282.3"/>
	<path fill="#CDEAF5" d="M1089.2-77.4l-1.8,0.1c-1.4-20.2,17.2-20,17.2-20c-16.7,5.1-14.5,19.9-14.5,19.9L1089.2-77.4z"/>
	<path fill="#CDEAF5" d="M1119.1-104c-1.2-4.2-1.9-15.3-1.9-15.3l-10.6-6.4c0,6.5,2.4,19.8,2.4,19.8c-7.1,0.3-25.4,6.4-25.4,6.4
		c1.1-0.2,2.9,0.7,2.9,0.7c-4.2,1.8-9.1,8.5-9.1,8.5c0.6-0.3,2.6-1.2,2.6-1.2c-1.8,1.7-3,7.8-3,9.2c0,1.4-0.8,3.8-0.8,3.8l3.9-0.7
		c0.9-0.1,1.7-0.2,2.6-0.2c-0.2-2-1.3-13.3,12.7-19.7c0,0-0.1,0-0.3,0.1C1103.5-103.1,1119.1-104,1119.1-104z"/>
	<path fill="#ACDBE3" d="M1151.4-116.7c0,0-21.2-2.2-41-16.1c0,0,13.9,13.8,25.1,17.4c11.1,3.6,14.8,16.6,14.8,16.6
		S1150.2-110.4,1151.4-116.7z"/>
	<g>
		<rect x="1148.8" y="-375.4" fill="#333333" width="403.5" height="19"/>
		<rect x="1148.8" y="-356.4" fill="#0B4F69" width="403.5" height="56.5"/>
		<rect x="1148.8" y="-300" fill="#FFFFFF" width="403.5" height="232.9"/>
		<g>
			<rect x="1168.3" y="-278.6" fill="#F3F3F3" width="76.6" height="53.3"/>
			<rect x="1168.4" y="-239" fill="#E6E6E5" width="76.6" height="13.7"/>
		</g>
		<g>
			<rect x="1261.2" y="-278.6" fill="#0B4F69" width="51.1" height="7.6"/>
			<rect x="1261.2" y="-263.2" fill="#E6E6E5" width="149.6" height="6.8"/>
		</g>
		<g>
			<rect x="1168.4" y="-205.4" fill="#F3F3F3" width="76.6" height="53.3"/>
			<rect x="1168.5" y="-165.8" fill="#E6E6E5" width="76.6" height="13.7"/>
		</g>
		<g>
			<rect x="1168.5" y="-137" fill="#F3F3F3" width="76.6" height="53.3"/>
			<rect x="1168.7" y="-97.4" fill="#E6E6E5" width="76.6" height="13.7"/>
		</g>
		<g>
			<rect x="1448" y="-275.3" fill="#E6E6E5" width="74.8" height="2.9"/>
			<rect x="1448" y="-267.2" fill="#E6E6E5" width="60.6" height="2.9"/>
			<rect x="1448.5" y="-259" fill="#E6E6E5" width="74.8" height="2.9"/>
			<rect x="1448.5" y="-250.9" fill="#E6E6E5" width="74.8" height="2.9"/>
			<rect x="1448.5" y="-242.7" fill="#E6E6E5" width="60.1" height="2.9"/>
			<rect x="1448.5" y="-234.6" fill="#E6E6E5" width="74.8" height="2.9"/>
			<rect x="1448.9" y="-226.4" fill="#E6E6E5" width="74.8" height="2.9"/>
			<rect x="1448.9" y="-218.3" fill="#E6E6E5" width="50.2" height="2.9"/>
		</g>
		<g>
			<rect x="1261.2" y="-205.4" fill="#0B4F69" width="68.5" height="7.6"/>
			<rect x="1261.2" y="-189.9" fill="#E6E6E5" width="130.8" height="6.8"/>
		</g>
		<g>
			<rect x="1261.2" y="-137" fill="#0B4F69" width="39.3" height="7.6"/>
			<rect x="1261.2" y="-121.6" fill="#E6E6E5" width="106.5" height="6.8"/>
		</g>
		<g>
			<g>
				<path fill="#FFFFFF" d="M1170-319.8v-13.1h9.3v2.5h-6.5v2.7h6.3v2.5h-6.3v5.4L1170-319.8L1170-319.8z"/>
				<path fill="#FFFFFF" d="M1180.5-324.6c0-2.7,1.9-5,5-5c3.1,0,5,2.3,5,5s-1.9,5-5,5C1182.4-319.6,1180.5-321.9,1180.5-324.6z
					 M1187.9-324.6c0-1.5-0.9-2.7-2.4-2.7c-1.6,0-2.4,1.3-2.4,2.7c0,1.5,0.9,2.8,2.4,2.8C1187.1-321.8,1187.9-323.1,1187.9-324.6z"
					/>
				<path fill="#FFFFFF" d="M1198.8-319.8v-1.2c-0.6,0.7-1.8,1.4-3.3,1.4c-2.1,0-3.1-1.1-3.1-3v-6.7h2.5v5.8c0,1.3,0.7,1.7,1.7,1.7
					c1,0,1.7-0.5,2.2-1.1v-6.4h2.5v9.5H1198.8z"/>
				<path fill="#FFFFFF" d="M1210.2-319.8v-5.7c0-1.3-0.7-1.8-1.7-1.8c-1,0-1.7,0.5-2.2,1.1v6.4h-2.5v-9.5h2.5v1.2
					c0.6-0.7,1.8-1.5,3.3-1.5c2.1,0,3.1,1.2,3.1,3v6.7L1210.2-319.8L1210.2-319.8z"/>
				<path fill="#FFFFFF" d="M1221.6-319.8v-1.2c-0.7,0.9-1.8,1.5-2.9,1.5c-2.4,0-4.2-1.8-4.2-5c0-3.1,1.8-5,4.2-5
					c1.1,0,2.2,0.5,2.9,1.5v-4.8h2.5v13.1H1221.6z M1221.6-322.9v-3.4c-0.4-0.6-1.3-1.1-2.1-1.1c-1.4,0-2.4,1.1-2.4,2.7
					c0,1.6,1,2.8,2.4,2.8C1220.3-321.8,1221.2-322.2,1221.6-322.9z"/>
				<path fill="#FFFFFF" d="M1232.3-319.8v-1c-0.6,0.8-1.8,1.2-3,1.2c-1.5,0-3.3-1-3.3-3.1c0-2.2,1.8-3.1,3.3-3.1
					c1.3,0,2.4,0.4,3,1.2v-1.2c0-1-0.8-1.6-2.1-1.6c-1,0-1.9,0.4-2.7,1.1l-1-1.7c1.2-1,2.6-1.5,4.1-1.5c2.2,0,4.2,0.9,4.2,3.6v6.1
					H1232.3L1232.3-319.8z M1232.3-322.1v-1.2c-0.4-0.5-1.2-0.8-2-0.8c-1,0-1.8,0.5-1.8,1.4c0,0.9,0.8,1.4,1.8,1.4
					C1231.1-321.3,1231.9-321.5,1232.3-322.1z"/>
				<path fill="#FFFFFF" d="M1237.8-322.2v-4.9h-1.6v-2.2h1.6v-2.6h2.5v2.6h1.9v2.2h-1.9v4.3c0,0.6,0.3,1.1,0.9,1.1
					c0.4,0,0.7-0.1,0.9-0.3l0.5,1.9c-0.4,0.3-1,0.6-2.1,0.6C1238.7-319.6,1237.8-320.5,1237.8-322.2z"/>
				<path fill="#FFFFFF" d="M1243.7-331.8c0-0.8,0.7-1.5,1.5-1.5c0.8,0,1.5,0.6,1.5,1.5c0,0.8-0.7,1.5-1.5,1.5
					C1244.4-330.3,1243.7-331,1243.7-331.8z M1243.9-319.8v-9.5h2.5v9.5H1243.9z"/>
				<path fill="#FFFFFF" d="M1248.3-324.6c0-2.7,1.9-5,5-5c3.1,0,5,2.3,5,5s-1.9,5-5,5C1250.2-319.6,1248.3-321.9,1248.3-324.6z
					 M1255.7-324.6c0-1.5-0.9-2.7-2.4-2.7c-1.6,0-2.4,1.3-2.4,2.7c0,1.5,0.9,2.8,2.4,2.8C1254.9-321.8,1255.7-323.1,1255.7-324.6z"
					/>
				<path fill="#FFFFFF" d="M1266.6-319.8v-5.7c0-1.3-0.7-1.8-1.7-1.8c-1,0-1.7,0.5-2.2,1.1v6.4h-2.5v-9.5h2.5v1.2
					c0.6-0.7,1.8-1.5,3.3-1.5c2.1,0,3.1,1.2,3.1,3v6.7L1266.6-319.8L1266.6-319.8z"/>
				<path fill="#FFFFFF" d="M1276.7-319.8v-13.1h9.3v2.5h-6.5v2.7h6.3v2.5h-6.3v5.4L1276.7-319.8L1276.7-319.8z"/>
				<path fill="#FFFFFF" d="M1287.2-324.6c0-2.7,1.9-5,5-5c3.1,0,5,2.3,5,5s-1.9,5-5,5C1289.1-319.6,1287.2-321.9,1287.2-324.6z
					 M1294.6-324.6c0-1.5-0.9-2.7-2.4-2.7c-1.6,0-2.4,1.3-2.4,2.7c0,1.5,0.9,2.8,2.4,2.8C1293.8-321.8,1294.6-323.1,1294.6-324.6z"
					/>
				<path fill="#FFFFFF" d="M1299.1-319.8v-9.5h2.5v1.3c0.7-0.8,1.8-1.5,3-1.5v2.4c-0.2,0-0.4-0.1-0.7-0.1c-0.8,0-1.9,0.5-2.3,1.1
					v6.3L1299.1-319.8L1299.1-319.8z"/>
				<path fill="#FFFFFF" d="M1312.6-319.8v-1.2c-0.6,0.7-1.8,1.4-3.3,1.4c-2.1,0-3.1-1.1-3.1-3v-6.7h2.5v5.8c0,1.3,0.7,1.7,1.7,1.7
					c1,0,1.7-0.5,2.2-1.1v-6.4h2.5v9.5H1312.6z"/>
				<path fill="#FFFFFF" d="M1329.3-319.8v-6c0-0.9-0.4-1.5-1.4-1.5c-0.9,0-1.6,0.6-2,1.1v6.4h-2.5v-6c0-0.9-0.4-1.5-1.4-1.5
					c-0.9,0-1.6,0.6-2,1.1v6.4h-2.5v-9.5h2.5v1.2c0.4-0.5,1.6-1.5,3.1-1.5c1.4,0,2.3,0.6,2.6,1.7c0.5-0.8,1.8-1.7,3.3-1.7
					c1.7,0,2.8,0.9,2.8,2.9v6.9L1329.3-319.8L1329.3-319.8L1329.3-319.8z"/>
			</g>
			<g>
				<rect x="1403.5" y="-334" fill="#09313A" width="30.3" height="12.2"/>
				<rect x="1411.1" y="-329.3" fill="#E6E6E5" width="15.2" height="2.9"/>
			</g>
			<rect x="1442.5" y="-329.8" fill="#E6E6E5" width="15.2" height="2.9"/>
			<rect x="1473.7" y="-329.8" fill="#E6E6E5" width="15.2" height="2.9"/>
			<rect x="1504.8" y="-329.8" fill="#E6E6E5" width="15.2" height="2.9"/>
		</g>
	</g>
	<g>
		<path fill="#CDEAF5" d="M1149.6-317.2c0,0-13.7,10.9-8.1,18.8s-5.6,18.1,0,23.9c5.6,5.8-1.4,20.7,12.1,31.6
			c0,0,9.3-10.2,11.4-19.7l-4.2-0.5c0,0,14.2-5.3,23.7-15.6c0,0-11.4-2.6-20.9-2.6c0,0,14.9-7.7,22-6.5c0,0-2.1-8.8-11.4-10.9
			c0,0,9.1-10.4-3.9-14.9C1157.2-317.9,1152.4-319,1149.6-317.2z"/>
		<path fill="#EAF7FE" d="M1154.5-322c0,0-13.7,10.9-8.1,18.8s-5.6,18.1,0,23.9s-1.4,20.7,12.1,31.6c0,0,9.3-10.2,11.4-19.7
			l-4.2-0.5c0,0,14.2-5.3,23.7-15.6c0,0-11.4-2.6-20.9-2.6c0,0,14.9-7.7,22-6.5c0,0-2.1-8.8-11.4-10.9c0,0,9.1-10.4-3.9-14.9
			C1162.1-322.7,1157.2-323.9,1154.5-322z"/>
		<path fill="#CDEAF5" d="M1188.6-286.3c0,0-11.4-7.8-28.8,6.8c0,0,3.2-0.5,6.7-0.3C1166.6-279.8,1182.8-287.6,1188.6-286.3z"/>
		<path fill="#CDEAF5" d="M1177.3-297.2c0,0-10.1-1.4-15.5-0.2c0,0,6.1-8,17.8-3.5C1179.5-300.8,1178.5-298.1,1177.3-297.2z"/>
		<path fill="#CDEAF5" d="M1187.5-277.2c0,0-25,10.7-30.6,15.6c0,0,2.7-0.5,6.9,0C1163.8-261.7,1181-268.4,1187.5-277.2z"/>
		<path fill="#CDEAF5" d="M1167.2-258.7c0,0-8.5,11-13.8,14.3c0,0,1.5,2.3,3.2,3C1156.6-241.5,1165.6-252,1167.2-258.7z"/>
	</g>
</g>
<g>
	<g>
		<line fill="none" stroke="#D1D3D4" stroke-width="1.5" stroke-miterlimit="10" x1="148.4" y1="80.3" x2="111.4" y2="80.3"/>
		<g>
			<polygon fill="#D1D3D4" points="147.3,76.5 153.8,80.3 147.3,84 			"/>
		</g>
	</g>
</g>
<g display="none">
	<g display="inline">
		<path fill="none" stroke="#0B4F69" stroke-width="3" stroke-miterlimit="10" d="M677.2,51c-28.9-23.3-91.3-39.4-163.7-39.4
			c-99.9,0-180.9,30.8-180.9,68.7c0,37.9,81,68.7,180.9,68.7c72.3,0,134.7-16.1,163.7-39.4"/>
		<g>
			<polygon fill="#0B4F69" points="679.8,45.4 683.5,56.8 671.8,54.4 			"/>
		</g>
		<g>
			<polygon fill="#0B4F69" points="679.8,115.1 683.5,103.7 671.8,106.2 			"/>
		</g>
	</g>
</g>
<g>
	<g>
		<circle fill="#0B4F69" cx="245.2" cy="80.3" r="80.1"/>
		<g opacity="0.5" enable-background="new    ">
			<g>
				<g>
					<defs>
						<circle id="SVGID_7_" cx="245" cy="80.1" r="80.1"/>
					</defs>
					<clipPath id="SVGID_8_">
						<use xlink:href="#SVGID_7_"  overflow="visible"/>
					</clipPath>
					<g clip-path="url(#SVGID_8_)">
						<g>
							<line fill="none" stroke="#FFFFFF" stroke-width="0.5" stroke-miterlimit="10" x1="304.8" y1="219" x2="304.8" y2="-49.6"/>
							<line fill="none" stroke="#FFFFFF" stroke-width="0.5" stroke-miterlimit="10" x1="294" y1="219" x2="294" y2="-49.6"/>
							
								<line fill="none" stroke="#FFFFFF" stroke-width="0.5" stroke-miterlimit="10" x1="315.7" y1="218.8" x2="315.7" y2="-49.8"/>
							<line fill="none" stroke="#FFFFFF" stroke-width="0.5" stroke-miterlimit="10" x1="326.6" y1="219" x2="326.6" y2="-49.6"/>
							<line fill="none" stroke="#FFFFFF" stroke-width="0.5" stroke-miterlimit="10" x1="261.4" y1="219" x2="261.4" y2="-49.6"/>
							<line fill="none" stroke="#FFFFFF" stroke-width="0.5" stroke-miterlimit="10" x1="250.5" y1="219" x2="250.5" y2="-49.6"/>
							
								<line fill="none" stroke="#FFFFFF" stroke-width="0.5" stroke-miterlimit="10" x1="272.3" y1="218.8" x2="272.3" y2="-49.8"/>
							<line fill="none" stroke="#FFFFFF" stroke-width="0.5" stroke-miterlimit="10" x1="283.1" y1="219" x2="283.1" y2="-49.6"/>
							
								<line fill="none" stroke="#FFFFFF" stroke-width="0.5" stroke-miterlimit="10" x1="218.2" y1="219.2" x2="218.2" y2="-49.4"/>
							
								<line fill="none" stroke="#FFFFFF" stroke-width="0.5" stroke-miterlimit="10" x1="207.3" y1="219.2" x2="207.3" y2="-49.4"/>
							<line fill="none" stroke="#FFFFFF" stroke-width="0.5" stroke-miterlimit="10" x1="229" y1="218.9" x2="229" y2="-49.7"/>
							
								<line fill="none" stroke="#FFFFFF" stroke-width="0.5" stroke-miterlimit="10" x1="239.9" y1="219.2" x2="239.9" y2="-49.4"/>
							
								<line fill="none" stroke="#FFFFFF" stroke-width="0.5" stroke-miterlimit="10" x1="174.7" y1="219.2" x2="174.7" y2="-49.4"/>
							
								<line fill="none" stroke="#FFFFFF" stroke-width="0.5" stroke-miterlimit="10" x1="163.8" y1="219.2" x2="163.8" y2="-49.4"/>
							
								<line fill="none" stroke="#FFFFFF" stroke-width="0.5" stroke-miterlimit="10" x1="185.6" y1="218.9" x2="185.6" y2="-49.7"/>
							
								<line fill="none" stroke="#FFFFFF" stroke-width="0.5" stroke-miterlimit="10" x1="196.4" y1="219.2" x2="196.4" y2="-49.4"/>
						</g>
						<g>
							
								<line fill="none" stroke="#FFFFFF" stroke-width="0.5" stroke-miterlimit="10" x1="116.2" y1="139.7" x2="384.8" y2="139.7"/>
							
								<line fill="none" stroke="#FFFFFF" stroke-width="0.5" stroke-miterlimit="10" x1="116.2" y1="128.8" x2="384.8" y2="128.8"/>
							<line fill="none" stroke="#FFFFFF" stroke-width="0.5" stroke-miterlimit="10" x1="116.4" y1="150.5" x2="385" y2="150.5"/>
							
								<line fill="none" stroke="#FFFFFF" stroke-width="0.5" stroke-miterlimit="10" x1="116.2" y1="161.4" x2="384.8" y2="161.4"/>
							<line fill="none" stroke="#FFFFFF" stroke-width="0.5" stroke-miterlimit="10" x1="116.2" y1="96.2" x2="384.8" y2="96.2"/>
							<line fill="none" stroke="#FFFFFF" stroke-width="0.5" stroke-miterlimit="10" x1="116.2" y1="85.3" x2="384.8" y2="85.3"/>
							<line fill="none" stroke="#FFFFFF" stroke-width="0.5" stroke-miterlimit="10" x1="116.4" y1="107.1" x2="385" y2="107.1"/>
							
								<line fill="none" stroke="#FFFFFF" stroke-width="0.5" stroke-miterlimit="10" x1="116.2" y1="117.9" x2="384.8" y2="117.9"/>
							<line fill="none" stroke="#FFFFFF" stroke-width="0.5" stroke-miterlimit="10" x1="116" y1="53" x2="384.6" y2="53"/>
							<line fill="none" stroke="#FFFFFF" stroke-width="0.5" stroke-miterlimit="10" x1="116" y1="42.1" x2="384.6" y2="42.1"/>
							<line fill="none" stroke="#FFFFFF" stroke-width="0.5" stroke-miterlimit="10" x1="116.3" y1="63.8" x2="384.9" y2="63.8"/>
							<line fill="none" stroke="#FFFFFF" stroke-width="0.5" stroke-miterlimit="10" x1="116" y1="74.7" x2="384.6" y2="74.7"/>
							<line fill="none" stroke="#FFFFFF" stroke-width="0.5" stroke-miterlimit="10" x1="116" y1="9.5" x2="384.6" y2="9.5"/>
							<line fill="none" stroke="#FFFFFF" stroke-width="0.5" stroke-miterlimit="10" x1="116" y1="-1.3" x2="384.6" y2="-1.3"/>
							<line fill="none" stroke="#FFFFFF" stroke-width="0.5" stroke-miterlimit="10" x1="116.3" y1="20.4" x2="384.9" y2="20.4"/>
							<line fill="none" stroke="#FFFFFF" stroke-width="0.5" stroke-miterlimit="10" x1="116" y1="31.2" x2="384.6" y2="31.2"/>
						</g>
					</g>
				</g>
			</g>
		</g>
	</g>
</g>
<g>
	<g>
		<polygon fill="none" stroke="#FFFFFF" stroke-width="2" stroke-linejoin="round" stroke-miterlimit="10" points="267.2,50.1 
			223.2,50.1 229.8,39.4 260.6,39.4 		"/>
		<polygon fill="none" stroke="#FFFFFF" stroke-width="2" stroke-linejoin="round" stroke-miterlimit="10" points="267.2,50.1 
			223.2,50.1 245.2,77.8 		"/>
		<polyline fill="none" stroke="#FFFFFF" stroke-width="2" stroke-linejoin="round" stroke-miterlimit="10" points="229.8,39.4 
			236.3,50.1 245.2,39.4 253.7,50.1 260.5,39.4 		"/>
		<polyline fill="none" stroke="#FFFFFF" stroke-width="2" stroke-linejoin="round" stroke-miterlimit="10" points="236.3,50.1 
			245.2,77.8 253.7,50.1 		"/>
	</g>
	
		<line fill="none" stroke="#FFFFFF" stroke-width="2" stroke-linejoin="round" stroke-miterlimit="10" x1="207.3" y1="50.1" x2="215.5" y2="50.1"/>
	
		<line fill="none" stroke="#FFFFFF" stroke-width="2" stroke-linejoin="round" stroke-miterlimit="10" x1="210.8" y1="40.6" x2="217.5" y2="46.2"/>
	
		<line fill="none" stroke="#FFFFFF" stroke-width="2" stroke-linejoin="round" stroke-miterlimit="10" x1="210.8" y1="59.6" x2="217.4" y2="54.1"/>
	
		<line fill="none" stroke="#FFFFFF" stroke-width="2" stroke-linejoin="round" stroke-miterlimit="10" x1="283.1" y1="50.1" x2="274.9" y2="50.1"/>
	
		<line fill="none" stroke="#FFFFFF" stroke-width="2" stroke-linejoin="round" stroke-miterlimit="10" x1="279.6" y1="40.6" x2="272.9" y2="46.2"/>
	
		<line fill="none" stroke="#FFFFFF" stroke-width="2" stroke-linejoin="round" stroke-miterlimit="10" x1="279.6" y1="59.6" x2="273" y2="54.1"/>
</g>
<g>
	<g>
		<path fill="#FFFFFF" d="M215.2,94.1v12.9h-1.7V94.1H215.2z"/>
		<path fill="#FFFFFF" d="M219.3,104.8c0.1,0.2,0.3,0.4,0.6,0.6c0.2,0.1,0.5,0.2,0.8,0.3c0.3,0.1,0.6,0.1,0.9,0.1
			c0.2,0,0.5,0,0.8-0.1s0.5-0.1,0.7-0.2c0.2-0.1,0.4-0.2,0.5-0.4s0.2-0.4,0.2-0.7c0-0.4-0.2-0.7-0.5-0.9s-0.7-0.4-1.1-0.5
			c-0.4-0.1-0.9-0.2-1.5-0.3s-1-0.2-1.5-0.4s-0.8-0.4-1.1-0.8c-0.3-0.3-0.5-0.8-0.5-1.4c0-0.5,0.1-0.9,0.3-1.2s0.5-0.6,0.8-0.8
			s0.7-0.4,1.1-0.5c0.4-0.1,0.8-0.2,1.2-0.2c0.5,0,1,0,1.5,0.1c0.4,0.1,0.8,0.2,1.2,0.5s0.6,0.5,0.8,0.9s0.3,0.8,0.4,1.4h-1.5
			c0-0.3-0.1-0.5-0.2-0.7c-0.1-0.2-0.3-0.4-0.5-0.5c-0.2-0.1-0.4-0.2-0.7-0.3c-0.2-0.1-0.5-0.1-0.7-0.1c-0.2,0-0.5,0-0.7,0.1
			c-0.2,0-0.4,0.1-0.6,0.2c-0.2,0.1-0.3,0.2-0.5,0.4s-0.2,0.3-0.2,0.6c0,0.3,0.1,0.5,0.3,0.7c0.2,0.2,0.4,0.3,0.7,0.4
			c0.3,0.1,0.6,0.2,1,0.3s0.7,0.2,1.1,0.2c0.4,0.1,0.8,0.2,1.1,0.3c0.4,0.1,0.7,0.3,1,0.5c0.3,0.2,0.5,0.4,0.7,0.7
			c0.2,0.3,0.3,0.7,0.3,1.1c0,0.6-0.1,1-0.4,1.4c-0.2,0.4-0.5,0.7-0.9,0.9c-0.4,0.2-0.8,0.4-1.3,0.5c-0.5,0.1-0.9,0.1-1.4,0.1
			c-0.5,0-1-0.1-1.5-0.2c-0.5-0.1-0.9-0.3-1.2-0.5c-0.4-0.2-0.6-0.6-0.9-1c-0.2-0.4-0.3-0.9-0.4-1.5h1.5
			C219.1,104.3,219.2,104.6,219.3,104.8z"/>
		<path fill="#FFFFFF" d="M239.2,94.1c1.2,0,2.2,0.3,2.9,0.9c0.7,0.6,1,1.4,1,2.5c0,0.8-0.2,1.5-0.5,2.1c-0.4,0.6-0.9,1-1.7,1.2v0
			c0.4,0.1,0.7,0.2,0.9,0.4c0.2,0.2,0.4,0.4,0.6,0.6s0.2,0.5,0.3,0.8c0.1,0.3,0.1,0.6,0.2,0.9c0,0.3,0,0.6,0.1,1c0,0.3,0,0.6,0.1,1
			c0,0.3,0.1,0.6,0.2,0.9c0.1,0.3,0.2,0.5,0.4,0.7h-1.9c-0.1-0.1-0.2-0.3-0.2-0.5c0-0.2-0.1-0.5-0.1-0.8c0-0.3,0-0.6,0-0.9
			c0-0.3,0-0.6-0.1-1c0-0.3-0.1-0.6-0.2-0.9c-0.1-0.3-0.2-0.5-0.3-0.7c-0.2-0.2-0.4-0.4-0.6-0.5s-0.6-0.2-1-0.2h-4.2v5.5h-1.7V94.1
			H239.2z M239.6,99.9c0.4-0.1,0.7-0.2,0.9-0.4c0.3-0.2,0.5-0.4,0.6-0.7c0.2-0.3,0.2-0.7,0.2-1.1c0-0.6-0.2-1.2-0.5-1.6
			c-0.4-0.4-0.9-0.6-1.7-0.6h-4.2v4.5h3.6C238.8,100,239.2,100,239.6,99.9z"/>
		<path fill="#FFFFFF" d="M251.8,106.9v-1.5h0c-0.3,0.6-0.7,1-1.2,1.3s-1.1,0.4-1.8,0.4c-0.6,0-1.1-0.1-1.5-0.2
			c-0.4-0.2-0.7-0.4-1-0.7s-0.4-0.7-0.5-1.1c-0.1-0.4-0.2-0.9-0.2-1.4v-6.1h1.5v6.3c0,0.6,0.2,1,0.5,1.4c0.3,0.3,0.8,0.5,1.4,0.5
			c0.5,0,0.9-0.1,1.2-0.2s0.6-0.3,0.9-0.6c0.2-0.3,0.4-0.6,0.5-0.9c0.1-0.4,0.2-0.7,0.2-1.2v-5.3h1.5v9.3H251.8z"/>
		<path fill="#FFFFFF" d="M257.5,94.1v4.8h0c0.3-0.5,0.6-0.9,1.2-1.1s1.1-0.4,1.8-0.4c0.7,0,1.3,0.1,1.9,0.4c0.5,0.3,1,0.6,1.3,1.1
			c0.4,0.5,0.6,1,0.8,1.6c0.2,0.6,0.3,1.2,0.3,1.9c0,0.7-0.1,1.3-0.3,1.9s-0.4,1.1-0.8,1.5c-0.4,0.4-0.8,0.8-1.3,1s-1.2,0.4-1.9,0.4
			c-0.2,0-0.5,0-0.8-0.1s-0.6-0.1-0.8-0.2s-0.5-0.3-0.8-0.4s-0.5-0.4-0.6-0.7h0v1.2H256V94.1H257.5z M263,100.9
			c-0.1-0.4-0.3-0.8-0.5-1.1c-0.2-0.3-0.5-0.6-0.9-0.8c-0.4-0.2-0.8-0.3-1.3-0.3c-0.5,0-1,0.1-1.3,0.3c-0.4,0.2-0.7,0.5-0.9,0.8
			c-0.2,0.3-0.4,0.7-0.5,1.1c-0.1,0.4-0.2,0.8-0.2,1.3c0,0.5,0.1,0.9,0.2,1.3c0.1,0.4,0.3,0.8,0.5,1.1c0.2,0.3,0.5,0.6,0.9,0.8
			c0.4,0.2,0.8,0.3,1.4,0.3c0.5,0,1-0.1,1.3-0.3c0.4-0.2,0.6-0.5,0.9-0.8s0.4-0.7,0.5-1.2c0.1-0.4,0.1-0.9,0.1-1.3
			C263.2,101.8,263.1,101.3,263,100.9z"/>
		<path fill="#FFFFFF" d="M270.1,109.3c-0.2,0.3-0.4,0.6-0.6,0.8c-0.2,0.2-0.4,0.3-0.7,0.4c-0.3,0.1-0.6,0.1-0.9,0.1
			c-0.2,0-0.4,0-0.5,0c-0.2,0-0.4-0.1-0.5-0.1v-1.4c0.1,0,0.3,0.1,0.4,0.1c0.1,0,0.3,0.1,0.5,0.1c0.3,0,0.6-0.1,0.8-0.2
			c0.2-0.1,0.4-0.4,0.5-0.6l0.6-1.6l-3.7-9.3h1.7l2.7,7.6h0l2.6-7.6h1.6l-4.1,10.5C270.5,108.6,270.3,109,270.1,109.3z"/>
		<path fill="#FFFFFF" d="M209,113.1v12.9h-1.7v-12.9H209z"/>
		<path fill="#FFFFFF" d="M213.4,116.6v1.5h0c0.6-1.1,1.6-1.7,3-1.7c0.6,0,1.1,0.1,1.5,0.3s0.7,0.4,1,0.7s0.4,0.7,0.5,1.1
			c0.1,0.4,0.2,0.9,0.2,1.4v6.1h-1.5v-6.3c0-0.6-0.2-1-0.5-1.4s-0.8-0.5-1.4-0.5c-0.5,0-0.9,0.1-1.2,0.2c-0.3,0.1-0.6,0.3-0.9,0.6
			c-0.2,0.3-0.4,0.6-0.5,0.9c-0.1,0.4-0.2,0.7-0.2,1.2v5.3H212v-9.3H213.4z"/>
		<path fill="#FFFFFF" d="M223.5,123.8c0.1,0.2,0.3,0.4,0.6,0.6c0.2,0.1,0.5,0.2,0.8,0.3c0.3,0.1,0.6,0.1,0.9,0.1
			c0.2,0,0.5,0,0.8-0.1s0.5-0.1,0.7-0.2c0.2-0.1,0.4-0.2,0.5-0.4s0.2-0.4,0.2-0.7c0-0.4-0.2-0.7-0.5-0.9s-0.7-0.4-1.1-0.5
			c-0.4-0.1-0.9-0.2-1.5-0.3s-1-0.2-1.5-0.4s-0.8-0.4-1.1-0.8c-0.3-0.3-0.5-0.8-0.5-1.4c0-0.5,0.1-0.9,0.3-1.2s0.5-0.6,0.8-0.8
			s0.7-0.4,1.1-0.5c0.4-0.1,0.8-0.2,1.2-0.2c0.5,0,1,0,1.5,0.1c0.4,0.1,0.8,0.2,1.2,0.5s0.6,0.5,0.8,0.9s0.3,0.8,0.4,1.4h-1.5
			c0-0.3-0.1-0.5-0.2-0.7c-0.1-0.2-0.3-0.4-0.5-0.5c-0.2-0.1-0.4-0.2-0.7-0.3c-0.2-0.1-0.5-0.1-0.7-0.1c-0.2,0-0.5,0-0.7,0.1
			c-0.2,0-0.4,0.1-0.6,0.2c-0.2,0.1-0.3,0.2-0.5,0.4s-0.2,0.3-0.2,0.6c0,0.3,0.1,0.5,0.3,0.7c0.2,0.2,0.4,0.3,0.7,0.4
			c0.3,0.1,0.6,0.2,1,0.3s0.7,0.2,1.1,0.2c0.4,0.1,0.8,0.2,1.1,0.3c0.4,0.1,0.7,0.3,1,0.5c0.3,0.2,0.5,0.4,0.7,0.7
			c0.2,0.3,0.3,0.7,0.3,1.1c0,0.6-0.1,1-0.4,1.4c-0.2,0.4-0.5,0.7-0.9,0.9c-0.4,0.2-0.8,0.4-1.3,0.5c-0.5,0.1-0.9,0.1-1.4,0.1
			c-0.5,0-1-0.1-1.5-0.2c-0.5-0.1-0.9-0.3-1.2-0.5c-0.4-0.2-0.6-0.6-0.9-1c-0.2-0.4-0.3-0.9-0.4-1.5h1.5
			C223.3,123.3,223.4,123.6,223.5,123.8z"/>
		<path fill="#FFFFFF" d="M235.7,116.6v1.4h-1.9v5.8c0,0.2,0,0.3,0,0.4c0,0.1,0.1,0.2,0.2,0.3c0.1,0.1,0.2,0.1,0.4,0.1s0.3,0,0.6,0
			h0.7v1.4h-1.2c-0.4,0-0.7,0-1-0.1c-0.3-0.1-0.5-0.2-0.7-0.3s-0.3-0.3-0.4-0.6c-0.1-0.3-0.1-0.6-0.1-1V118h-1.6v-1.4h1.6v-2.8h1.5
			v2.8H235.7z"/>
		<path fill="#FFFFFF" d="M244.9,126.1c-0.4,0-0.7-0.1-0.9-0.3c-0.2-0.2-0.4-0.6-0.4-1.1c-0.4,0.5-0.9,0.9-1.5,1.1
			c-0.6,0.2-1.2,0.3-1.8,0.3c-0.4,0-0.8,0-1.2-0.1s-0.7-0.2-1-0.5c-0.3-0.2-0.5-0.5-0.7-0.8s-0.2-0.7-0.2-1.2c0-0.5,0.1-1,0.3-1.3
			s0.4-0.6,0.7-0.8s0.6-0.4,1-0.5c0.4-0.1,0.8-0.2,1.2-0.3c0.4-0.1,0.8-0.1,1.2-0.2s0.7-0.1,1-0.2s0.5-0.2,0.7-0.3s0.3-0.4,0.3-0.7
			c0-0.3-0.1-0.6-0.2-0.8c-0.1-0.2-0.3-0.4-0.5-0.5s-0.4-0.2-0.7-0.2c-0.2,0-0.5-0.1-0.7-0.1c-0.6,0-1.2,0.1-1.6,0.4
			c-0.4,0.2-0.7,0.7-0.7,1.4h-1.5c0-0.6,0.1-1.1,0.4-1.5s0.5-0.7,0.9-1c0.4-0.2,0.8-0.4,1.2-0.5c0.5-0.1,1-0.2,1.5-0.2
			c0.4,0,0.8,0,1.3,0.1c0.4,0.1,0.8,0.2,1.1,0.4s0.6,0.4,0.8,0.8s0.3,0.8,0.3,1.3v4.8c0,0.4,0,0.6,0.1,0.8c0,0.2,0.2,0.3,0.4,0.3
			c0.1,0,0.3,0,0.5-0.1v1.2C245.7,126,245.3,126.1,244.9,126.1z M242.7,121.4c-0.3,0.1-0.6,0.1-1,0.2c-0.3,0-0.7,0.1-1,0.1
			c-0.3,0.1-0.7,0.1-0.9,0.3c-0.3,0.1-0.5,0.3-0.7,0.5c-0.2,0.2-0.3,0.5-0.3,0.9c0,0.3,0.1,0.5,0.2,0.6s0.2,0.3,0.4,0.4
			c0.2,0.1,0.4,0.2,0.6,0.2c0.2,0,0.4,0.1,0.7,0.1c0.5,0,0.9-0.1,1.3-0.2c0.4-0.1,0.7-0.3,0.9-0.5c0.2-0.2,0.4-0.4,0.5-0.7
			s0.2-0.5,0.2-0.7v-1.6C243.3,121.3,243,121.4,242.7,121.4z"/>
		<path fill="#FFFFFF" d="M249.4,113.1v12.9h-1.5v-12.9H249.4z"/>
		<path fill="#FFFFFF" d="M253.7,113.1v12.9h-1.5v-12.9H253.7z"/>
		<path fill="#FFFFFF" d="M263.1,125.3c-0.7,0.5-1.6,0.8-2.6,0.8c-0.7,0-1.4-0.1-1.9-0.4c-0.5-0.2-1-0.6-1.4-1s-0.7-0.9-0.8-1.5
			c-0.2-0.6-0.3-1.3-0.3-2c0-0.7,0.1-1.4,0.3-1.9c0.2-0.6,0.5-1.1,0.9-1.5c0.4-0.4,0.9-0.8,1.4-1c0.5-0.2,1.1-0.4,1.8-0.4
			c0.8,0,1.5,0.2,2.1,0.5c0.5,0.3,1,0.8,1.3,1.3c0.3,0.5,0.6,1.1,0.7,1.7c0.1,0.6,0.2,1.2,0.2,1.8h-7c0,0.4,0,0.8,0.1,1.2
			c0.1,0.4,0.3,0.7,0.5,1c0.2,0.3,0.5,0.5,0.9,0.7c0.4,0.2,0.8,0.3,1.3,0.3c0.6,0,1.2-0.1,1.6-0.5c0.4-0.3,0.7-0.8,0.8-1.4h1.5
			C264.2,124,263.8,124.8,263.1,125.3z M262.7,119.4c-0.1-0.3-0.3-0.6-0.6-0.8c-0.2-0.2-0.5-0.4-0.8-0.6c-0.3-0.1-0.7-0.2-1.1-0.2
			c-0.4,0-0.8,0.1-1.1,0.2c-0.3,0.1-0.6,0.3-0.8,0.6c-0.2,0.2-0.4,0.5-0.5,0.8c-0.1,0.3-0.2,0.7-0.2,1h5.3
			C262.9,120,262.8,119.7,262.7,119.4z"/>
		<path fill="#FFFFFF" d="M273.3,125.9v-1.3h0c-0.3,0.5-0.6,0.9-1.2,1.1c-0.5,0.2-1.1,0.3-1.8,0.3c-0.7,0-1.3-0.1-1.9-0.4
			c-0.5-0.3-1-0.6-1.3-1.1c-0.4-0.4-0.6-1-0.8-1.5c-0.2-0.6-0.3-1.2-0.3-1.9c0-0.7,0.1-1.3,0.3-1.9s0.4-1.1,0.8-1.5
			c0.4-0.4,0.8-0.8,1.3-1c0.5-0.3,1.2-0.4,1.9-0.4c0.2,0,0.5,0,0.8,0.1c0.3,0,0.6,0.1,0.8,0.2c0.3,0.1,0.5,0.3,0.8,0.5
			c0.2,0.2,0.5,0.4,0.6,0.7h0v-4.8h1.5v12.9H273.3z M267.8,122.6c0.1,0.4,0.3,0.8,0.5,1.1c0.2,0.3,0.5,0.6,0.9,0.8
			c0.4,0.2,0.8,0.3,1.3,0.3c0.5,0,1-0.1,1.3-0.3s0.7-0.5,0.9-0.8c0.2-0.3,0.4-0.7,0.5-1.1c0.1-0.4,0.2-0.8,0.2-1.3
			c0-0.5-0.1-0.9-0.2-1.3s-0.3-0.8-0.5-1.1c-0.2-0.3-0.5-0.6-0.9-0.8s-0.8-0.3-1.4-0.3c-0.5,0-1,0.1-1.3,0.3
			c-0.4,0.2-0.6,0.5-0.9,0.8c-0.2,0.3-0.4,0.7-0.5,1.2c-0.1,0.4-0.1,0.9-0.1,1.3C267.6,121.8,267.7,122.2,267.8,122.6z"/>
		<path fill="#FFFFFF" d="M277.6,115.4c0.2-0.5,0.5-1,0.8-1.4c0.3-0.4,0.8-0.7,1.3-0.9s1.1-0.3,1.7-0.3c0.6,0,1.1,0.1,1.5,0.2
			s0.9,0.4,1.2,0.7c0.3,0.3,0.6,0.7,0.8,1.1c0.2,0.4,0.3,1,0.3,1.5c0,0.4,0,0.7-0.1,1c-0.1,0.3-0.2,0.6-0.4,0.8s-0.3,0.5-0.5,0.7
			s-0.4,0.4-0.6,0.6c-0.2,0.2-0.4,0.4-0.6,0.5c-0.2,0.2-0.4,0.4-0.5,0.6c-0.2,0.2-0.3,0.4-0.4,0.7s-0.1,0.5-0.1,0.8v0.7h-1.5v-0.8
			c0-0.5,0.1-0.9,0.3-1.3c0.2-0.4,0.4-0.7,0.6-0.9c0.2-0.3,0.5-0.5,0.7-0.8s0.5-0.5,0.7-0.7c0.2-0.3,0.4-0.5,0.5-0.9
			s0.2-0.7,0.2-1.1c0-0.7-0.3-1.2-0.6-1.5c-0.4-0.4-0.9-0.6-1.5-0.6c-0.4,0-0.8,0.1-1.1,0.2c-0.3,0.2-0.6,0.4-0.8,0.6
			s-0.4,0.6-0.5,0.9c-0.1,0.4-0.1,0.8-0.1,1.2h-1.5C277.4,116.5,277.4,115.9,277.6,115.4z M282.3,123.9v2h-2v-2H282.3z"/>
	</g>
</g>
<g display="none">
	
		<polyline display="inline" fill="none" stroke="#0B4F69" stroke-width="3" stroke-miterlimit="10" stroke-dasharray="14,7" points="
		611.4,80.3 611.4,127.9 367.5,127.9 	"/>
	<g display="inline">
		<g>
			<line fill="none" stroke="#0B4F69" stroke-width="3" stroke-miterlimit="10" x1="371.9" y1="80.3" x2="681.8" y2="80.3"/>
			<g>
				<polygon fill="#0B4F69" points="680.1,86.2 690.5,80.3 680.1,74.3 				"/>
			</g>
		</g>
	</g>
	<g display="inline">
		<rect x="453.6" y="101.7" fill="#FFFFFF" width="59.8" height="52.5"/>
		<text transform="matrix(1 0 0 1 459.0929 121.4108)"><tspan x="0" y="0" fill="#0B4F69" font-family="'OpenSans-Semibold'" font-size="14">Libsass</tspan><tspan x="20.4" y="12" fill="#0B4F69" font-family="'OpenSans-Semibold'" font-size="14">+</tspan><tspan x="4.7" y="24" fill="#0B4F69" font-family="'OpenSans-Semibold'" font-size="14">Grunt</tspan></text>
		<rect x="445.9" y="68.5" fill="#FFFFFF" width="75.1" height="23.5"/>
		<text transform="matrix(1 0 0 1 452.8418 83.768)" fill="#0B4F69" font-family="'OpenSans-Semibold'" font-size="14">Compass</text>
	</g>
	
		<text transform="matrix(1 0 0 1 339.8171 83.267)" display="inline" fill="#0B4F69" font-family="'OpenSans-Semibold'" font-size="14">Yes</text>
	
		<text transform="matrix(1 0 0 1 343.4681 130.9094)" display="inline" fill="#0B4F69" font-family="'OpenSans-Semibold'" font-size="14">No</text>
</g>
<g>
	<g>
		<line fill="none" stroke="#D1D3D4" stroke-width="1.5" stroke-miterlimit="10" x1="655.2" y1="80.3" x2="611.4" y2="80.3"/>
		<g>
			<polygon fill="#D1D3D4" points="654.1,76.5 660.6,80.3 654.1,84 			"/>
		</g>
	</g>
</g>
<polyline fill="none" stroke="#D1D3D4" stroke-width="1.5" stroke-miterlimit="10" points="361.2,42.6 611.4,42.6 611.4,117.9 
	361.2,117.9 "/>
<rect x="398.2" y="102.9" fill="#FFFFFF" width="186.4" height="40"/>
<g>
	<path fill="#0B4F69" d="M409.2,109.1v16.4h10v1.5h-11.7v-17.9H409.2z"/>
	<path fill="#0B4F69" d="M422.2,109.1v2.5h-1.6v-2.5H422.2z M422.2,114v12.9h-1.6V114H422.2z"/>
	<path fill="#0B4F69" d="M426.8,109.1v7.4h0c0.2-0.5,0.4-0.9,0.7-1.2c0.3-0.4,0.7-0.6,1.1-0.9c0.4-0.2,0.8-0.4,1.3-0.5
		c0.5-0.1,0.9-0.2,1.4-0.2c1,0,1.8,0.2,2.6,0.5c0.7,0.4,1.3,0.9,1.8,1.5s0.8,1.3,1.1,2.2s0.4,1.7,0.4,2.6c0,0.9-0.1,1.8-0.4,2.6
		c-0.2,0.8-0.6,1.5-1.1,2.2s-1.1,1.1-1.8,1.5c-0.7,0.4-1.6,0.5-2.6,0.5c-1,0-2-0.2-2.8-0.7c-0.8-0.5-1.4-1.2-1.8-2.1h0v2.5h-1.5
		v-17.9H426.8z M435.4,118.5c-0.2-0.7-0.4-1.2-0.8-1.8c-0.3-0.5-0.8-0.9-1.3-1.3c-0.5-0.3-1.2-0.5-1.9-0.5c-0.8,0-1.5,0.2-2.1,0.5
		c-0.6,0.3-1,0.7-1.4,1.3c-0.4,0.5-0.6,1.1-0.8,1.8c-0.2,0.7-0.2,1.3-0.2,2c0,0.7,0.1,1.3,0.2,2c0.2,0.7,0.4,1.2,0.8,1.8
		c0.4,0.5,0.8,0.9,1.4,1.3s1.3,0.5,2.1,0.5c0.8,0,1.4-0.2,1.9-0.5c0.5-0.3,1-0.7,1.3-1.3c0.3-0.5,0.6-1.1,0.8-1.8
		c0.2-0.7,0.2-1.3,0.2-2C435.6,119.8,435.5,119.1,435.4,118.5z"/>
	<path fill="#0B4F69" d="M447,116.5c-0.2-0.4-0.4-0.7-0.7-0.9s-0.7-0.4-1.1-0.5c-0.4-0.1-0.8-0.2-1.3-0.2c-0.3,0-0.7,0-1.1,0.1
		c-0.4,0.1-0.7,0.2-1,0.4c-0.3,0.2-0.5,0.4-0.7,0.7c-0.2,0.3-0.3,0.6-0.3,1c0,0.4,0.1,0.6,0.3,0.9s0.4,0.4,0.7,0.6
		c0.3,0.2,0.6,0.3,0.9,0.4s0.6,0.2,0.9,0.3l2.1,0.5c0.5,0.1,0.9,0.2,1.3,0.4c0.4,0.2,0.8,0.4,1.2,0.7c0.3,0.3,0.6,0.6,0.8,1
		c0.2,0.4,0.3,0.9,0.3,1.5c0,0.7-0.2,1.3-0.5,1.8c-0.3,0.5-0.7,0.9-1.2,1.2c-0.5,0.3-1,0.5-1.7,0.7c-0.6,0.1-1.2,0.2-1.8,0.2
		c-1.5,0-2.7-0.4-3.7-1.1c-0.9-0.7-1.5-1.9-1.6-3.4h1.6c0.1,1.1,0.5,1.9,1.2,2.4c0.7,0.5,1.6,0.8,2.6,0.8c0.4,0,0.8,0,1.2-0.1
		c0.4-0.1,0.8-0.2,1.1-0.4c0.4-0.2,0.6-0.5,0.9-0.8c0.2-0.3,0.3-0.7,0.3-1.1c0-0.4-0.1-0.7-0.2-1s-0.4-0.5-0.6-0.7
		c-0.3-0.2-0.6-0.3-0.9-0.4c-0.3-0.1-0.7-0.2-1-0.3l-2-0.5c-0.5-0.1-1-0.3-1.4-0.5c-0.4-0.2-0.8-0.4-1.1-0.6c-0.3-0.3-0.6-0.6-0.8-1
		s-0.3-0.8-0.3-1.4c0-0.6,0.1-1.2,0.4-1.7c0.3-0.5,0.7-0.8,1.1-1.1c0.5-0.3,1-0.5,1.6-0.6c0.6-0.1,1.1-0.2,1.7-0.2
		c0.6,0,1.3,0.1,1.8,0.2c0.6,0.2,1,0.4,1.5,0.8s0.8,0.8,1,1.3c0.2,0.5,0.4,1.1,0.4,1.8h-1.6C447.3,117.3,447.2,116.9,447,116.5z"/>
	<path fill="#0B4F69" d="M452,116c0.3-0.6,0.6-1,1.1-1.4c0.5-0.4,1-0.6,1.6-0.8c0.6-0.2,1.3-0.2,2-0.2c0.6,0,1.1,0.1,1.7,0.2
		c0.6,0.1,1.1,0.3,1.5,0.6s0.8,0.7,1.1,1.3c0.3,0.5,0.4,1.2,0.4,2.1v6.9c0,0.6,0.3,0.9,0.9,0.9c0.2,0,0.3,0,0.5-0.1v1.3
		c-0.2,0-0.3,0.1-0.5,0.1s-0.3,0-0.5,0c-0.4,0-0.7-0.1-1-0.2c-0.2-0.1-0.4-0.3-0.6-0.5c-0.1-0.2-0.2-0.4-0.3-0.7
		c0-0.3-0.1-0.6-0.1-0.9h0c-0.3,0.4-0.6,0.8-0.9,1.1c-0.3,0.3-0.6,0.6-1,0.8c-0.4,0.2-0.8,0.4-1.2,0.5c-0.5,0.1-1,0.2-1.6,0.2
		c-0.6,0-1.2-0.1-1.7-0.2c-0.5-0.1-1-0.4-1.4-0.7c-0.4-0.3-0.7-0.7-0.9-1.2c-0.2-0.5-0.3-1-0.3-1.7c0-0.9,0.2-1.6,0.6-2.1
		c0.4-0.5,0.9-0.9,1.6-1.2s1.4-0.5,2.2-0.6c0.8-0.1,1.7-0.2,2.5-0.3c0.3,0,0.6-0.1,0.9-0.1c0.2-0.1,0.5-0.1,0.6-0.3
		c0.2-0.1,0.3-0.3,0.4-0.5c0.1-0.2,0.1-0.5,0.1-0.8c0-0.5-0.1-1-0.3-1.3s-0.4-0.6-0.7-0.8c-0.3-0.2-0.7-0.3-1.1-0.4
		c-0.4-0.1-0.8-0.1-1.3-0.1c-1,0-1.8,0.2-2.5,0.7c-0.6,0.5-1,1.2-1,2.3h-1.6C451.5,117.2,451.7,116.6,452,116z M459.8,119.9
		c-0.1,0.2-0.3,0.3-0.6,0.4s-0.5,0.1-0.8,0.2c-0.7,0.1-1.4,0.2-2.1,0.3c-0.7,0.1-1.4,0.2-1.9,0.4c-0.6,0.2-1.1,0.4-1.4,0.8
		c-0.4,0.3-0.6,0.8-0.6,1.5c0,0.4,0.1,0.8,0.2,1.1c0.2,0.3,0.4,0.6,0.6,0.8c0.3,0.2,0.6,0.4,0.9,0.5c0.4,0.1,0.7,0.2,1.1,0.2
		c0.6,0,1.2-0.1,1.7-0.3c0.6-0.2,1-0.4,1.4-0.8s0.7-0.8,1-1.3c0.2-0.5,0.4-1.1,0.4-1.7L459.8,119.9L459.8,119.9z"/>
	<path fill="#0B4F69" d="M472,116.5c-0.2-0.4-0.4-0.7-0.7-0.9s-0.7-0.4-1.1-0.5c-0.4-0.1-0.8-0.2-1.3-0.2c-0.3,0-0.7,0-1.1,0.1
		c-0.4,0.1-0.7,0.2-1,0.4c-0.3,0.2-0.5,0.4-0.7,0.7c-0.2,0.3-0.3,0.6-0.3,1c0,0.4,0.1,0.6,0.3,0.9s0.4,0.4,0.7,0.6
		c0.3,0.2,0.6,0.3,0.9,0.4s0.6,0.2,0.9,0.3l2.1,0.5c0.5,0.1,0.9,0.2,1.3,0.4c0.4,0.2,0.8,0.4,1.2,0.7c0.3,0.3,0.6,0.6,0.8,1
		c0.2,0.4,0.3,0.9,0.3,1.5c0,0.7-0.2,1.3-0.5,1.8c-0.3,0.5-0.7,0.9-1.2,1.2c-0.5,0.3-1,0.5-1.7,0.7c-0.6,0.1-1.2,0.2-1.8,0.2
		c-1.5,0-2.7-0.4-3.7-1.1c-0.9-0.7-1.5-1.9-1.6-3.4h1.6c0.1,1.1,0.5,1.9,1.2,2.4c0.7,0.5,1.6,0.8,2.6,0.8c0.4,0,0.8,0,1.2-0.1
		c0.4-0.1,0.8-0.2,1.1-0.4c0.4-0.2,0.6-0.5,0.9-0.8c0.2-0.3,0.3-0.7,0.3-1.1c0-0.4-0.1-0.7-0.2-1s-0.4-0.5-0.6-0.7
		c-0.3-0.2-0.6-0.3-0.9-0.4c-0.3-0.1-0.7-0.2-1-0.3l-2-0.5c-0.5-0.1-1-0.3-1.4-0.5c-0.4-0.2-0.8-0.4-1.1-0.6c-0.3-0.3-0.6-0.6-0.8-1
		s-0.3-0.8-0.3-1.4c0-0.6,0.1-1.2,0.4-1.7c0.3-0.5,0.7-0.8,1.1-1.1c0.5-0.3,1-0.5,1.6-0.6c0.6-0.1,1.1-0.2,1.7-0.2
		c0.6,0,1.3,0.1,1.8,0.2c0.6,0.2,1,0.4,1.5,0.8s0.8,0.8,1,1.3c0.2,0.5,0.4,1.1,0.4,1.8h-1.6C472.3,117.3,472.2,116.9,472,116.5z"/>
	<path fill="#0B4F69" d="M484.1,116.5c-0.2-0.4-0.4-0.7-0.7-0.9s-0.7-0.4-1.1-0.5c-0.4-0.1-0.8-0.2-1.3-0.2c-0.3,0-0.7,0-1.1,0.1
		c-0.4,0.1-0.7,0.2-1,0.4c-0.3,0.2-0.5,0.4-0.7,0.7c-0.2,0.3-0.3,0.6-0.3,1c0,0.4,0.1,0.6,0.3,0.9s0.4,0.4,0.7,0.6
		c0.3,0.2,0.6,0.3,0.9,0.4s0.6,0.2,0.9,0.3l2.1,0.5c0.5,0.1,0.9,0.2,1.3,0.4c0.4,0.2,0.8,0.4,1.2,0.7c0.3,0.3,0.6,0.6,0.8,1
		c0.2,0.4,0.3,0.9,0.3,1.5c0,0.7-0.2,1.3-0.5,1.8c-0.3,0.5-0.7,0.9-1.2,1.2c-0.5,0.3-1,0.5-1.7,0.7c-0.6,0.1-1.2,0.2-1.8,0.2
		c-1.5,0-2.7-0.4-3.7-1.1c-0.9-0.7-1.5-1.9-1.6-3.4h1.6c0.1,1.1,0.5,1.9,1.2,2.4c0.7,0.5,1.6,0.8,2.6,0.8c0.4,0,0.8,0,1.2-0.1
		c0.4-0.1,0.8-0.2,1.1-0.4c0.4-0.2,0.6-0.5,0.9-0.8c0.2-0.3,0.3-0.7,0.3-1.1c0-0.4-0.1-0.7-0.2-1s-0.4-0.5-0.6-0.7
		c-0.3-0.2-0.6-0.3-0.9-0.4c-0.3-0.1-0.7-0.2-1-0.3l-2-0.5c-0.5-0.1-1-0.3-1.4-0.5c-0.4-0.2-0.8-0.4-1.1-0.6c-0.3-0.3-0.6-0.6-0.8-1
		s-0.3-0.8-0.3-1.4c0-0.6,0.1-1.2,0.4-1.7c0.3-0.5,0.7-0.8,1.1-1.1c0.5-0.3,1-0.5,1.6-0.6c0.6-0.1,1.1-0.2,1.7-0.2
		c0.6,0,1.3,0.1,1.8,0.2c0.6,0.2,1,0.4,1.5,0.8s0.8,0.8,1,1.3c0.2,0.5,0.4,1.1,0.4,1.8h-1.6C484.3,117.3,484.2,116.9,484.1,116.5z"
		/>
	<path fill="#0B4F69" d="M503.4,126.5c-0.9,0.5-1.9,0.7-2.9,0.7c-0.8,0-1.5-0.1-2.1-0.3s-1.2-0.5-1.7-0.9c-0.5-0.4-0.9-0.9-1.1-1.6
		c-0.3-0.6-0.4-1.3-0.4-2.1c0-0.6,0.1-1.2,0.4-1.8c0.3-0.5,0.6-1,1-1.5c0.4-0.4,0.9-0.8,1.4-1.2s1-0.7,1.5-0.9
		c-0.2-0.3-0.5-0.6-0.8-1c-0.3-0.3-0.5-0.7-0.7-1c-0.2-0.4-0.4-0.7-0.5-1.1c-0.1-0.4-0.2-0.8-0.2-1.2c0-0.5,0.1-1,0.3-1.5
		c0.2-0.4,0.5-0.8,0.8-1.1c0.4-0.3,0.8-0.6,1.2-0.7c0.5-0.2,1-0.3,1.5-0.3c0.6,0,1.1,0.1,1.5,0.3c0.5,0.2,0.9,0.4,1.2,0.7
		c0.4,0.3,0.6,0.7,0.8,1.1c0.2,0.4,0.3,0.9,0.3,1.5c0,0.6-0.1,1.1-0.3,1.5c-0.2,0.5-0.5,0.9-0.8,1.2c-0.3,0.4-0.7,0.7-1.1,1
		c-0.4,0.3-0.8,0.6-1.3,0.9l3.9,4.7c0.2-0.4,0.4-0.9,0.4-1.3c0.1-0.4,0.1-1,0.1-1.7h1.6c0,0.5-0.1,1.1-0.2,1.9
		c-0.1,0.8-0.4,1.6-0.8,2.3l3,3.6h-2l-1.9-2.3C505.1,125.4,504.3,126.1,503.4,126.5z M499,118.8c-0.4,0.3-0.8,0.6-1.2,1
		c-0.3,0.4-0.6,0.8-0.8,1.2c-0.2,0.4-0.3,0.9-0.3,1.5c0,0.5,0.1,1,0.3,1.4s0.5,0.8,0.9,1.1s0.8,0.6,1.2,0.7c0.5,0.2,1,0.2,1.5,0.2
		c0.9,0,1.7-0.2,2.4-0.7c0.7-0.5,1.3-1.1,1.8-1.8l-4.5-5.4C499.9,118.3,499.4,118.5,499,118.8z M499.5,111c-0.5,0.4-0.7,1-0.7,1.7
		c0,0.3,0.1,0.6,0.2,1c0.1,0.3,0.3,0.6,0.5,1c0.2,0.3,0.4,0.6,0.7,0.9c0.2,0.3,0.5,0.6,0.6,0.8c0.3-0.2,0.6-0.4,1-0.6
		s0.6-0.5,0.9-0.8c0.3-0.3,0.5-0.6,0.6-1c0.2-0.4,0.2-0.8,0.2-1.2c0-0.8-0.2-1.3-0.7-1.7c-0.5-0.4-1-0.6-1.7-0.6
		C500.6,110.4,500,110.6,499.5,111z"/>
	<path fill="#0B4F69" d="M532.2,126.9l-0.2-3.2h0c-0.3,0.6-0.7,1.2-1.1,1.6s-0.9,0.8-1.5,1.1s-1.1,0.5-1.7,0.6s-1.2,0.2-1.9,0.2
		c-1.4,0-2.6-0.3-3.7-0.8s-1.9-1.2-2.6-2c-0.7-0.8-1.2-1.8-1.6-2.9c-0.3-1.1-0.5-2.3-0.5-3.5s0.2-2.4,0.5-3.5c0.4-1.1,0.9-2.1,1.6-3
		c0.7-0.9,1.6-1.5,2.6-2s2.3-0.8,3.7-0.8c0.9,0,1.8,0.1,2.7,0.4c0.8,0.2,1.6,0.6,2.2,1.1s1.2,1.1,1.7,1.9c0.4,0.7,0.8,1.6,0.9,2.6
		h-1.7c0-0.5-0.2-1-0.5-1.6c-0.3-0.5-0.7-1-1.2-1.4c-0.5-0.4-1.1-0.8-1.8-1.1c-0.7-0.3-1.5-0.4-2.3-0.4c-1.2,0-2.2,0.2-3,0.7
		c-0.9,0.5-1.5,1-2.1,1.8c-0.5,0.7-0.9,1.6-1.2,2.5c-0.3,0.9-0.4,1.9-0.4,2.9c0,1,0.1,1.9,0.4,2.9c0.3,0.9,0.7,1.8,1.2,2.5
		c0.5,0.7,1.2,1.3,2.1,1.8c0.8,0.5,1.9,0.7,3,0.7c1,0,1.9-0.2,2.6-0.5c0.8-0.3,1.4-0.8,2-1.4s0.9-1.3,1.2-2.1s0.4-1.7,0.4-2.6h-6.1
		v-1.5h7.6v9.1H532.2z"/>
	<path fill="#0B4F69" d="M537.8,114v3h0c0.4-1,1-1.9,1.9-2.4s1.8-0.8,3-0.8v1.6c-0.7,0-1.4,0.1-2,0.3s-1.1,0.5-1.5,1
		c-0.4,0.4-0.8,0.9-1,1.5c-0.2,0.6-0.3,1.2-0.3,1.9v6.9h-1.6V114H537.8z"/>
	<path fill="#0B4F69" d="M553.2,126.9v-2.3h0c-0.4,0.9-1,1.5-1.8,2c-0.8,0.5-1.7,0.7-2.6,0.7c-0.8,0-1.5-0.1-2.1-0.3
		c-0.6-0.2-1-0.5-1.4-1c-0.4-0.4-0.6-0.9-0.8-1.5c-0.2-0.6-0.2-1.3-0.2-2V114h1.6v8.4c0,1.2,0.3,2,0.8,2.6s1.4,0.9,2.6,0.9
		c0.7,0,1.3-0.1,1.8-0.4c0.5-0.3,0.9-0.7,1.2-1.2c0.3-0.5,0.5-1,0.7-1.7c0.1-0.6,0.2-1.3,0.2-1.9V114h1.6v12.9H553.2z"/>
	<path fill="#0B4F69" d="M559.2,114v2.2h0c0.3-0.8,0.8-1.4,1.6-1.9s1.6-0.7,2.5-0.7c0.9,0,1.7,0.1,2.3,0.4s1.1,0.6,1.5,1
		c0.4,0.4,0.6,0.9,0.8,1.6c0.2,0.6,0.2,1.3,0.2,2.1v8.3h-1.6v-8c0-0.6,0-1.1-0.2-1.5c-0.1-0.5-0.3-0.9-0.5-1.2
		c-0.2-0.3-0.6-0.6-1-0.8c-0.4-0.2-1-0.3-1.6-0.3c-0.6,0-1.2,0.1-1.7,0.3c-0.5,0.2-0.9,0.5-1.2,0.9s-0.6,0.9-0.8,1.4
		c-0.2,0.5-0.3,1.1-0.3,1.8v7.5h-1.6V114H559.2z"/>
	<path fill="#0B4F69" d="M576.2,114v1.3h-2.6v8.7c0,0.5,0.1,0.9,0.2,1.2c0.1,0.3,0.5,0.5,1.1,0.5c0.4,0,0.9,0,1.3-0.1v1.3
		c-0.2,0-0.5,0-0.7,0c-0.2,0-0.5,0-0.7,0c-1,0-1.8-0.2-2.2-0.6c-0.4-0.4-0.6-1.2-0.6-2.3v-8.8h-2.2V114h2.2v-3.9h1.6v3.9H576.2z"/>
</g>
<rect x="432.6" y="27.6" fill="#FFFFFF" width="117.5" height="40"/>
<g>
	<path fill="#0B4F69" d="M453.6,37.4c-0.3-0.5-0.8-1-1.2-1.4s-1-0.6-1.6-0.8s-1.2-0.3-1.9-0.3c-1.2,0-2.2,0.2-3,0.7
		c-0.9,0.5-1.5,1-2.1,1.8c-0.5,0.7-0.9,1.6-1.2,2.5c-0.3,0.9-0.4,1.9-0.4,2.9c0,1,0.1,1.9,0.4,2.9c0.3,0.9,0.7,1.8,1.2,2.5
		c0.5,0.7,1.2,1.3,2.1,1.8c0.8,0.5,1.9,0.7,3,0.7c0.8,0,1.6-0.1,2.2-0.4c0.7-0.3,1.2-0.7,1.7-1.2s0.9-1.1,1.2-1.8
		c0.3-0.7,0.5-1.4,0.6-2.2h1.7c-0.1,1.1-0.4,2.1-0.8,3c-0.4,0.9-0.9,1.6-1.6,2.2c-0.6,0.6-1.4,1.1-2.2,1.4c-0.9,0.3-1.8,0.5-2.9,0.5
		c-1.4,0-2.6-0.3-3.7-0.8s-1.9-1.2-2.6-2c-0.7-0.8-1.2-1.8-1.6-2.9c-0.3-1.1-0.5-2.3-0.5-3.5s0.2-2.4,0.5-3.5c0.4-1.1,0.9-2.1,1.6-3
		c0.7-0.9,1.6-1.5,2.6-2s2.3-0.8,3.7-0.8c0.8,0,1.7,0.1,2.5,0.4s1.5,0.6,2.2,1.1s1.2,1.1,1.7,1.8c0.4,0.7,0.7,1.5,0.8,2.5h-1.7
		C454.2,38.5,454,37.9,453.6,37.4z"/>
	<path fill="#0B4F69" d="M466.7,38.9c0.8,0.4,1.4,0.9,1.9,1.5c0.5,0.6,0.9,1.3,1.2,2.2c0.3,0.8,0.4,1.7,0.4,2.6
		c0,0.9-0.1,1.8-0.4,2.6c-0.3,0.8-0.7,1.5-1.2,2.2s-1.2,1.1-1.9,1.5c-0.8,0.4-1.6,0.5-2.6,0.5s-1.9-0.2-2.6-0.5
		c-0.8-0.4-1.4-0.8-1.9-1.5s-0.9-1.3-1.2-2.2s-0.4-1.7-0.4-2.6c0-0.9,0.1-1.8,0.4-2.6c0.3-0.8,0.7-1.5,1.2-2.2
		c0.5-0.6,1.2-1.1,1.9-1.5c0.8-0.4,1.6-0.5,2.6-0.5S465.9,38.6,466.7,38.9z M462.1,40.2c-0.6,0.3-1,0.7-1.4,1.2
		c-0.4,0.5-0.7,1.1-0.8,1.8c-0.2,0.7-0.3,1.3-0.3,2c0,0.7,0.1,1.4,0.3,2c0.2,0.7,0.5,1.2,0.8,1.8s0.8,0.9,1.4,1.2s1.2,0.5,2,0.5
		s1.4-0.2,2-0.5s1-0.7,1.4-1.2s0.7-1.1,0.8-1.8c0.2-0.7,0.3-1.3,0.3-2c0-0.7-0.1-1.4-0.3-2c-0.2-0.7-0.5-1.2-0.8-1.8
		c-0.4-0.5-0.8-0.9-1.4-1.2c-0.6-0.3-1.2-0.5-2-0.5S462.6,39.9,462.1,40.2z"/>
	<path fill="#0B4F69" d="M474,38.7v2.2h0.1c0.4-0.8,1-1.4,1.6-1.9c0.7-0.4,1.5-0.7,2.6-0.7c0.8,0,1.6,0.2,2.3,0.6s1.2,1,1.4,1.9
		c0.4-0.9,1-1.5,1.7-1.9s1.5-0.6,2.4-0.6c2.9,0,4.3,1.5,4.3,4.5v8.8h-1.6V43c0-1.1-0.2-1.9-0.7-2.4s-1.2-0.8-2.4-0.8
		c-0.7,0-1.2,0.1-1.7,0.4c-0.5,0.3-0.8,0.6-1.1,1c-0.3,0.4-0.5,0.9-0.6,1.5c-0.1,0.6-0.2,1.1-0.2,1.7v7.3h-1.6v-8.8
		c0-0.4,0-0.8-0.1-1.2s-0.2-0.7-0.5-1c-0.2-0.3-0.5-0.5-0.8-0.7c-0.4-0.2-0.8-0.2-1.3-0.2c-0.7,0-1.2,0.1-1.7,0.4
		c-0.5,0.2-0.9,0.6-1.2,1c-0.3,0.4-0.5,0.9-0.7,1.5c-0.1,0.6-0.2,1.2-0.2,1.9v7.2h-1.6V38.7H474z"/>
	<path fill="#0B4F69" d="M494.8,38.7v2.4h0c0.4-0.9,1-1.6,1.8-2.1c0.8-0.5,1.8-0.7,2.8-0.7c1,0,1.8,0.2,2.6,0.5
		c0.7,0.4,1.3,0.9,1.8,1.5s0.8,1.3,1.1,2.2s0.4,1.7,0.4,2.6c0,0.9-0.1,1.8-0.4,2.6c-0.2,0.8-0.6,1.5-1.1,2.2s-1.1,1.1-1.8,1.5
		c-0.7,0.4-1.6,0.5-2.6,0.5c-0.5,0-0.9-0.1-1.4-0.2c-0.5-0.1-0.9-0.3-1.3-0.5c-0.4-0.2-0.8-0.5-1.1-0.9c-0.3-0.4-0.5-0.8-0.7-1.2h0
		v7.2h-1.6V38.7H494.8z M503.4,43.2c-0.2-0.7-0.4-1.2-0.8-1.8c-0.3-0.5-0.8-0.9-1.3-1.3c-0.5-0.3-1.2-0.5-1.9-0.5
		c-0.9,0-1.6,0.2-2.2,0.5s-1,0.7-1.4,1.2c-0.4,0.5-0.6,1.1-0.7,1.8s-0.2,1.4-0.2,2.1c0,0.7,0.1,1.3,0.2,2c0.2,0.7,0.4,1.2,0.8,1.8
		c0.4,0.5,0.8,0.9,1.4,1.3s1.3,0.5,2.1,0.5c0.8,0,1.4-0.2,1.9-0.5c0.5-0.3,1-0.7,1.3-1.3c0.3-0.5,0.6-1.1,0.8-1.8
		c0.2-0.7,0.2-1.3,0.2-2C503.7,44.5,503.6,43.9,503.4,43.2z"/>
	<path fill="#0B4F69" d="M508,40.7c0.3-0.6,0.6-1,1.1-1.4c0.5-0.4,1-0.6,1.6-0.8c0.6-0.2,1.3-0.2,2-0.2c0.6,0,1.1,0.1,1.7,0.2
		c0.6,0.1,1.1,0.3,1.5,0.6s0.8,0.7,1.1,1.3c0.3,0.5,0.4,1.2,0.4,2.1v6.9c0,0.6,0.3,0.9,0.9,0.9c0.2,0,0.3,0,0.5-0.1v1.3
		c-0.2,0-0.3,0.1-0.5,0.1s-0.3,0-0.5,0c-0.4,0-0.7-0.1-1-0.2c-0.2-0.1-0.4-0.3-0.6-0.5c-0.1-0.2-0.2-0.4-0.3-0.7
		c0-0.3-0.1-0.6-0.1-0.9h0c-0.3,0.4-0.6,0.8-0.9,1.1c-0.3,0.3-0.6,0.6-1,0.8c-0.4,0.2-0.8,0.4-1.2,0.5c-0.5,0.1-1,0.2-1.6,0.2
		c-0.6,0-1.2-0.1-1.7-0.2c-0.5-0.1-1-0.4-1.4-0.7c-0.4-0.3-0.7-0.7-0.9-1.2c-0.2-0.5-0.3-1-0.3-1.7c0-0.9,0.2-1.6,0.6-2.1
		c0.4-0.5,0.9-0.9,1.6-1.2s1.4-0.5,2.2-0.6c0.8-0.1,1.7-0.2,2.5-0.3c0.3,0,0.6-0.1,0.9-0.1c0.2-0.1,0.5-0.1,0.6-0.3
		c0.2-0.1,0.3-0.3,0.4-0.5c0.1-0.2,0.1-0.5,0.1-0.8c0-0.5-0.1-1-0.3-1.3s-0.4-0.6-0.7-0.8c-0.3-0.2-0.7-0.3-1.1-0.4
		c-0.4-0.1-0.8-0.1-1.3-0.1c-1,0-1.8,0.2-2.5,0.7c-0.6,0.5-1,1.2-1,2.3h-1.6C507.6,41.9,507.7,41.3,508,40.7z M515.9,44.6
		c-0.1,0.2-0.3,0.3-0.6,0.4s-0.5,0.1-0.8,0.2c-0.7,0.1-1.4,0.2-2.1,0.3c-0.7,0.1-1.4,0.2-1.9,0.4c-0.6,0.2-1.1,0.4-1.4,0.8
		c-0.4,0.3-0.6,0.8-0.6,1.5c0,0.4,0.1,0.8,0.2,1.1c0.2,0.3,0.4,0.6,0.6,0.8c0.3,0.2,0.6,0.4,0.9,0.5c0.4,0.1,0.7,0.2,1.1,0.2
		c0.6,0,1.2-0.1,1.7-0.3c0.6-0.2,1-0.4,1.4-0.8s0.7-0.8,1-1.3c0.2-0.5,0.4-1.1,0.4-1.7L515.9,44.6L515.9,44.6z"/>
	<path fill="#0B4F69" d="M528.1,41.3c-0.2-0.4-0.4-0.7-0.7-0.9s-0.7-0.4-1.1-0.5c-0.4-0.1-0.8-0.2-1.3-0.2c-0.3,0-0.7,0-1.1,0.1
		c-0.4,0.1-0.7,0.2-1,0.4c-0.3,0.2-0.5,0.4-0.7,0.7c-0.2,0.3-0.3,0.6-0.3,1c0,0.4,0.1,0.6,0.3,0.9s0.4,0.4,0.7,0.6
		c0.3,0.2,0.6,0.3,0.9,0.4s0.6,0.2,0.9,0.3l2.1,0.5c0.5,0.1,0.9,0.2,1.3,0.4c0.4,0.2,0.8,0.4,1.2,0.7c0.3,0.3,0.6,0.6,0.8,1
		c0.2,0.4,0.3,0.9,0.3,1.5c0,0.7-0.2,1.3-0.5,1.8c-0.3,0.5-0.7,0.9-1.2,1.2c-0.5,0.3-1,0.5-1.7,0.7c-0.6,0.1-1.2,0.2-1.8,0.2
		c-1.5,0-2.7-0.4-3.7-1.1c-0.9-0.7-1.5-1.9-1.6-3.4h1.6c0.1,1.1,0.5,1.9,1.2,2.4c0.7,0.5,1.6,0.8,2.6,0.8c0.4,0,0.8,0,1.2-0.1
		c0.4-0.1,0.8-0.2,1.1-0.4c0.4-0.2,0.6-0.5,0.9-0.8c0.2-0.3,0.3-0.7,0.3-1.1c0-0.4-0.1-0.7-0.2-1s-0.4-0.5-0.6-0.7
		c-0.3-0.2-0.6-0.3-0.9-0.4c-0.3-0.1-0.7-0.2-1-0.3l-2-0.5c-0.5-0.1-1-0.3-1.4-0.5c-0.4-0.2-0.8-0.4-1.1-0.6c-0.3-0.3-0.6-0.6-0.8-1
		s-0.3-0.8-0.3-1.4c0-0.6,0.1-1.2,0.4-1.7c0.3-0.5,0.7-0.8,1.1-1.1c0.5-0.3,1-0.5,1.6-0.6c0.6-0.1,1.1-0.2,1.7-0.2
		c0.6,0,1.3,0.1,1.8,0.2c0.6,0.2,1,0.4,1.5,0.8s0.8,0.8,1,1.3c0.2,0.5,0.4,1.1,0.4,1.8h-1.6C528.4,42,528.3,41.6,528.1,41.3z"/>
	<path fill="#0B4F69" d="M540.1,41.3c-0.2-0.4-0.4-0.7-0.7-0.9s-0.7-0.4-1.1-0.5c-0.4-0.1-0.8-0.2-1.3-0.2c-0.3,0-0.7,0-1.1,0.1
		c-0.4,0.1-0.7,0.2-1,0.4c-0.3,0.2-0.5,0.4-0.7,0.7c-0.2,0.3-0.3,0.6-0.3,1c0,0.4,0.1,0.6,0.3,0.9s0.4,0.4,0.7,0.6
		c0.3,0.2,0.6,0.3,0.9,0.4s0.6,0.2,0.9,0.3l2.1,0.5c0.5,0.1,0.9,0.2,1.3,0.4c0.4,0.2,0.8,0.4,1.2,0.7c0.3,0.3,0.6,0.6,0.8,1
		c0.2,0.4,0.3,0.9,0.3,1.5c0,0.7-0.2,1.3-0.5,1.8c-0.3,0.5-0.7,0.9-1.2,1.2c-0.5,0.3-1,0.5-1.7,0.7c-0.6,0.1-1.2,0.2-1.8,0.2
		c-1.5,0-2.7-0.4-3.7-1.1c-0.9-0.7-1.5-1.9-1.6-3.4h1.6c0.1,1.1,0.5,1.9,1.2,2.4c0.7,0.5,1.6,0.8,2.6,0.8c0.4,0,0.8,0,1.2-0.1
		c0.4-0.1,0.8-0.2,1.1-0.4c0.4-0.2,0.6-0.5,0.9-0.8c0.2-0.3,0.3-0.7,0.3-1.1c0-0.4-0.1-0.7-0.2-1s-0.4-0.5-0.6-0.7
		c-0.3-0.2-0.6-0.3-0.9-0.4c-0.3-0.1-0.7-0.2-1-0.3l-2-0.5c-0.5-0.1-1-0.3-1.4-0.5c-0.4-0.2-0.8-0.4-1.1-0.6c-0.3-0.3-0.6-0.6-0.8-1
		s-0.3-0.8-0.3-1.4c0-0.6,0.1-1.2,0.4-1.7c0.3-0.5,0.7-0.8,1.1-1.1c0.5-0.3,1-0.5,1.6-0.6c0.6-0.1,1.1-0.2,1.7-0.2
		c0.6,0,1.3,0.1,1.8,0.2c0.6,0.2,1,0.4,1.5,0.8s0.8,0.8,1,1.3c0.2,0.5,0.4,1.1,0.4,1.8h-1.6C540.4,42,540.3,41.6,540.1,41.3z"/>
</g>
<circle fill="#E6E6E5" cx="354" cy="42.6" r="20.5"/>
<circle fill="#E6E6E5" cx="354" cy="117.8" r="20.5"/>
<g>
	<path fill="#0B4F69" d="M345,43.8l-4.5-7.3h2.4l3.2,5.4l3.1-5.4h2.4l-4.5,7.3v4.7H345V43.8z"/>
	<path fill="#0B4F69" d="M352.4,44.6c0,0.3,0,0.7,0.1,1c0.1,0.3,0.2,0.6,0.4,0.8c0.2,0.2,0.4,0.4,0.7,0.6c0.3,0.1,0.6,0.2,1,0.2
		c0.6,0,1-0.1,1.4-0.4c0.3-0.2,0.6-0.6,0.8-1.1h1.8c-0.1,0.5-0.3,0.9-0.5,1.3c-0.2,0.4-0.5,0.7-0.9,0.9c-0.3,0.3-0.7,0.4-1.2,0.6
		c-0.4,0.1-0.9,0.2-1.4,0.2c-0.7,0-1.3-0.1-1.8-0.3c-0.5-0.2-1-0.5-1.3-0.9c-0.4-0.4-0.6-0.9-0.8-1.4c-0.2-0.6-0.3-1.2-0.3-1.8
		c0-0.6,0.1-1.2,0.3-1.8c0.2-0.6,0.5-1,0.8-1.5c0.4-0.4,0.8-0.8,1.3-1c0.5-0.2,1.1-0.4,1.7-0.4c0.7,0,1.3,0.1,1.8,0.4
		c0.5,0.3,1,0.7,1.4,1.1c0.4,0.5,0.6,1,0.8,1.6c0.2,0.6,0.2,1.2,0.1,1.9H352.4z M356.9,43.4c0-0.3-0.1-0.6-0.2-0.9
		c-0.1-0.3-0.3-0.5-0.4-0.7c-0.2-0.2-0.4-0.4-0.7-0.5c-0.3-0.1-0.6-0.2-0.9-0.2c-0.3,0-0.6,0.1-0.9,0.2c-0.3,0.1-0.5,0.3-0.7,0.5
		c-0.2,0.2-0.4,0.5-0.5,0.7c-0.1,0.3-0.2,0.6-0.2,0.9H356.9z"/>
	<path fill="#0B4F69" d="M361.7,45.7c0.1,0.6,0.3,1,0.6,1.2c0.4,0.2,0.8,0.3,1.3,0.3c0.2,0,0.4,0,0.6,0c0.2,0,0.4-0.1,0.6-0.2
		c0.2-0.1,0.4-0.2,0.5-0.3c0.1-0.2,0.2-0.3,0.2-0.6c0-0.2-0.1-0.4-0.3-0.6c-0.2-0.2-0.4-0.3-0.6-0.4c-0.3-0.1-0.6-0.2-0.9-0.2
		c-0.3-0.1-0.7-0.1-1-0.2c-0.4-0.1-0.7-0.2-1-0.3c-0.3-0.1-0.6-0.3-0.9-0.5c-0.3-0.2-0.5-0.4-0.6-0.7c-0.2-0.3-0.2-0.7-0.2-1.1
		c0-0.5,0.1-0.9,0.3-1.2c0.2-0.3,0.5-0.6,0.9-0.8c0.4-0.2,0.7-0.3,1.2-0.4c0.4-0.1,0.8-0.1,1.2-0.1c0.4,0,0.9,0,1.3,0.1
		c0.4,0.1,0.8,0.2,1.1,0.5c0.3,0.2,0.6,0.5,0.8,0.8c0.2,0.3,0.4,0.8,0.4,1.2h-2c-0.1-0.5-0.3-0.8-0.6-0.9c-0.3-0.2-0.7-0.2-1.1-0.2
		c-0.1,0-0.3,0-0.5,0c-0.2,0-0.4,0.1-0.5,0.1c-0.2,0.1-0.3,0.2-0.4,0.3c-0.1,0.1-0.2,0.3-0.2,0.5c0,0.2,0.1,0.4,0.2,0.6
		c0.2,0.1,0.4,0.3,0.6,0.4c0.3,0.1,0.6,0.2,0.9,0.2c0.3,0.1,0.7,0.1,1,0.2c0.3,0.1,0.7,0.2,1,0.3c0.3,0.1,0.6,0.3,0.9,0.5
		c0.3,0.2,0.5,0.4,0.6,0.7c0.2,0.3,0.2,0.6,0.2,1.1c0,0.5-0.1,1-0.4,1.3c-0.2,0.4-0.5,0.6-0.9,0.9s-0.8,0.4-1.3,0.5
		c-0.5,0.1-0.9,0.2-1.4,0.2c-0.5,0-1.1-0.1-1.5-0.2c-0.5-0.1-0.9-0.3-1.2-0.6c-0.3-0.3-0.6-0.6-0.8-0.9c-0.2-0.4-0.3-0.8-0.3-1.3
		H361.7z"/>
</g>
<g>
	<path fill="#0B4F69" d="M343.8,111.8h2.2l5.5,8.8h0v-8.8h2v12h-2.2l-5.5-8.8h-0.1v8.8h-2V111.8z"/>
	<path fill="#0B4F69" d="M359.7,124c-0.7,0-1.3-0.1-1.9-0.3c-0.5-0.2-1-0.5-1.4-0.9c-0.4-0.4-0.7-0.9-0.9-1.4
		c-0.2-0.6-0.3-1.2-0.3-1.8c0-0.7,0.1-1.3,0.3-1.8c0.2-0.6,0.5-1,0.9-1.4c0.4-0.4,0.8-0.7,1.4-0.9c0.5-0.2,1.2-0.3,1.9-0.3
		c0.7,0,1.3,0.1,1.9,0.3c0.5,0.2,1,0.5,1.4,0.9c0.4,0.4,0.7,0.9,0.9,1.4c0.2,0.6,0.3,1.2,0.3,1.8c0,0.7-0.1,1.3-0.3,1.8
		c-0.2,0.6-0.5,1-0.9,1.4c-0.4,0.4-0.8,0.7-1.4,0.9C361.1,123.9,360.4,124,359.7,124z M359.7,122.5c0.4,0,0.8-0.1,1.1-0.3
		c0.3-0.2,0.6-0.4,0.8-0.7c0.2-0.3,0.4-0.6,0.4-1c0.1-0.4,0.1-0.7,0.1-1.1c0-0.4,0-0.7-0.1-1.1c-0.1-0.4-0.2-0.7-0.4-1
		c-0.2-0.3-0.5-0.5-0.8-0.7c-0.3-0.2-0.7-0.3-1.1-0.3c-0.4,0-0.8,0.1-1.1,0.3c-0.3,0.2-0.6,0.4-0.8,0.7c-0.2,0.3-0.4,0.6-0.4,1
		c-0.1,0.4-0.1,0.7-0.1,1.1c0,0.4,0,0.8,0.1,1.1c0.1,0.4,0.2,0.7,0.4,1c0.2,0.3,0.5,0.5,0.8,0.7C359,122.4,359.3,122.5,359.7,122.5z
		"/>
</g>
</svg>
