<?xml version="1.0" encoding="utf-8"?>
<!-- Generator: Adobe Illustrator 17.1.0, SVG Export Plug-In . SVG Version: 6.00 Build 0)  -->
<!DOCTYPE svg PUBLIC "-//W3C//DTD SVG 1.1//EN" "http://www.w3.org/Graphics/SVG/1.1/DTD/svg11.dtd">
<svg version="1.1" id="Layer_1" xmlns="http://www.w3.org/2000/svg" xmlns:xlink="http://www.w3.org/1999/xlink" x="0px" y="0px"
	 viewBox="0 0 862 160.4" enable-background="new 0 0 862 160.4" xml:space="preserve">
<g display="none">
	<defs>
		<rect id="SVGID_1_" x="-354.4" y="-258.7" width="1298.7" height="709.2"/>
	</defs>
	<clipPath id="SVGID_2_" display="inline">
		<use xlink:href="#SVGID_1_"  overflow="visible"/>
	</clipPath>
</g>
<g display="none">
	<g display="inline">
		<path fill="none" stroke="#0B4F69" stroke-width="3" stroke-miterlimit="10" d="M410.4,120c46.3,26.2,109.6,42.3,179.6,42.3
			c70.3,0,134-16.3,180.3-42.7"/>
		<g>
			<polygon fill="#0B4F69" points="771.8,125.6 777.8,115.3 765.8,115.2 			"/>
		</g>
	</g>
</g>
<g display="none">
	<g display="inline">
		<path fill="none" stroke="#0B4F69" stroke-width="3" stroke-miterlimit="10" d="M769.4,41.1C723.2,15,659.9-1.1,590-1.1
			c-69.5,0-132.5,15.9-178.7,41.8"/>
		<g>
			<polygon fill="#0B4F69" points="770.8,35 776.9,45.3 765,45.4 			"/>
		</g>
	</g>
</g>
<g>
	<path fill="#084F68" d="M-616.9-23.1c0,5.5-4.5,10-10,10h-109.8c-5.5,0-10-4.5-10-10v-20.4c0-5.5,4.5-10,10-10h109.8
		c5.5,0,10,4.5,10,10V-23.1z"/>
</g>
<text transform="matrix(1 0 0 1 -735.0742 -18.804)" fill="#FFFFFF" font-family="'HelveticaNeue'" font-size="40">SCSS</text>
<g>
	<path fill="#084F68" d="M-628.5,274.8c0,5.5-4.5,10-10,10h-87.9c-5.5,0-10-4.5-10-10v-20.4c0-5.5,4.5-10,10-10h87.9
		c5.5,0,10,4.5,10,10V274.8z"/>
</g>
<g>
	<path fill="#FFFFFF" d="M-702.5,254.6c-1.5-1-3.2-1.5-5.2-1.5c-1.7,0-3.2,0.3-4.4,1s-2.2,1.5-3,2.6c-0.8,1.1-1.4,2.3-1.7,3.7
		c-0.4,1.4-0.6,2.8-0.6,4.3c0,1.6,0.2,3.2,0.6,4.6c0.4,1.5,1,2.7,1.7,3.8s1.8,1.9,3,2.6s2.7,1,4.4,1c1.3,0,2.4-0.2,3.3-0.6
		c1-0.4,1.8-1,2.5-1.7c0.7-0.7,1.3-1.6,1.7-2.6c0.4-1,0.6-2.1,0.7-3.3h3.8c-0.4,3.6-1.6,6.4-3.7,8.4c-2.1,2-5,3-8.6,3
		c-2.2,0-4.1-0.4-5.8-1.1c-1.7-0.8-3-1.8-4.1-3.1c-1.1-1.3-1.9-2.9-2.5-4.7c-0.5-1.8-0.8-3.8-0.8-5.8c0-2.1,0.3-4,0.9-5.9
		c0.6-1.8,1.4-3.4,2.6-4.8c1.1-1.4,2.5-2.4,4.2-3.2c1.7-0.8,3.6-1.2,5.8-1.2c1.5,0,2.9,0.2,4.2,0.6c1.3,0.4,2.5,1,3.6,1.8
		s1.9,1.7,2.6,2.9c0.7,1.2,1.1,2.5,1.4,4h-3.8C-700.1,257.1-701,255.6-702.5,254.6z"/>
	<path fill="#FFFFFF" d="M-676.6,254.4c-1.3-0.9-2.9-1.4-4.9-1.4c-0.8,0-1.6,0.1-2.4,0.2c-0.8,0.2-1.5,0.4-2.1,0.8
		c-0.6,0.4-1.1,0.9-1.4,1.5c-0.4,0.6-0.5,1.4-0.5,2.3c0,0.9,0.3,1.6,0.8,2.1c0.5,0.5,1.2,1,2.1,1.3c0.9,0.3,1.8,0.6,2.9,0.9
		c1.1,0.2,2.2,0.5,3.3,0.7c1.1,0.3,2.2,0.6,3.3,0.9c1.1,0.4,2.1,0.8,2.9,1.5c0.9,0.6,1.6,1.4,2.1,2.3c0.5,0.9,0.8,2.1,0.8,3.5
		c0,1.5-0.3,2.8-1,3.9c-0.7,1.1-1.6,2-2.6,2.6c-1.1,0.7-2.3,1.2-3.6,1.5c-1.3,0.3-2.6,0.5-3.9,0.5c-1.6,0-3.1-0.2-4.5-0.6
		c-1.4-0.4-2.7-1-3.8-1.8s-1.9-1.9-2.6-3.1c-0.6-1.3-0.9-2.8-0.9-4.5h3.6c0,1.2,0.2,2.2,0.7,3.1c0.5,0.9,1.1,1.6,1.8,2.1
		c0.8,0.6,1.6,1,2.7,1.2c1,0.3,2.1,0.4,3.1,0.4c0.9,0,1.7-0.1,2.6-0.2c0.9-0.2,1.6-0.4,2.3-0.8c0.7-0.4,1.3-0.9,1.7-1.6
		c0.4-0.7,0.6-1.5,0.6-2.6c0-1-0.3-1.8-0.8-2.4c-0.5-0.6-1.2-1.1-2.1-1.5c-0.9-0.4-1.8-0.7-2.9-0.9c-1.1-0.2-2.2-0.5-3.3-0.7
		c-1.1-0.3-2.2-0.5-3.3-0.9c-1.1-0.3-2.1-0.8-2.9-1.3c-0.9-0.5-1.6-1.3-2.1-2.1c-0.5-0.9-0.8-2-0.8-3.3c0-1.4,0.3-2.7,0.9-3.7
		c0.6-1.1,1.4-1.9,2.3-2.6c1-0.7,2.1-1.2,3.3-1.5c1.2-0.3,2.5-0.5,3.8-0.5c1.5,0,2.8,0.2,4.1,0.5c1.3,0.3,2.4,0.9,3.3,1.6
		c0.9,0.7,1.7,1.7,2.2,2.8c0.5,1.1,0.8,2.5,0.9,4.1h-3.6C-674.6,256.8-675.3,255.3-676.6,254.4z"/>
	<path fill="#FFFFFF" d="M-650.7,254.4c-1.3-0.9-2.9-1.4-4.9-1.4c-0.8,0-1.6,0.1-2.4,0.2c-0.8,0.2-1.5,0.4-2.1,0.8
		c-0.6,0.4-1.1,0.9-1.4,1.5c-0.4,0.6-0.5,1.4-0.5,2.3c0,0.9,0.3,1.6,0.8,2.1c0.5,0.5,1.2,1,2.1,1.3c0.9,0.3,1.8,0.6,2.9,0.9
		s2.2,0.5,3.3,0.7c1.1,0.3,2.2,0.6,3.3,0.9c1.1,0.4,2.1,0.8,2.9,1.5c0.9,0.6,1.6,1.4,2.1,2.3c0.5,0.9,0.8,2.1,0.8,3.5
		c0,1.5-0.3,2.8-1,3.9c-0.7,1.1-1.6,2-2.6,2.6c-1.1,0.7-2.3,1.2-3.6,1.5c-1.3,0.3-2.6,0.5-3.9,0.5c-1.6,0-3.1-0.2-4.5-0.6
		c-1.4-0.4-2.7-1-3.8-1.8s-1.9-1.9-2.6-3.1c-0.6-1.3-0.9-2.8-0.9-4.5h3.6c0,1.2,0.2,2.2,0.7,3.1c0.5,0.9,1.1,1.6,1.8,2.1
		s1.6,1,2.7,1.2c1,0.3,2.1,0.4,3.1,0.4c0.9,0,1.7-0.1,2.6-0.2c0.9-0.2,1.6-0.4,2.3-0.8c0.7-0.4,1.3-0.9,1.7-1.6
		c0.4-0.7,0.6-1.5,0.6-2.6c0-1-0.3-1.8-0.8-2.4c-0.5-0.6-1.2-1.1-2.1-1.5c-0.9-0.4-1.8-0.7-2.9-0.9c-1.1-0.2-2.2-0.5-3.3-0.7
		s-2.2-0.5-3.3-0.9c-1.1-0.3-2.1-0.8-2.9-1.3c-0.9-0.5-1.6-1.3-2.1-2.1c-0.5-0.9-0.8-2-0.8-3.3c0-1.4,0.3-2.7,0.9-3.7
		c0.6-1.1,1.4-1.9,2.3-2.6c1-0.7,2.1-1.2,3.3-1.5c1.2-0.3,2.5-0.5,3.8-0.5c1.5,0,2.8,0.2,4.1,0.5c1.3,0.3,2.4,0.9,3.3,1.6
		c0.9,0.7,1.7,1.7,2.2,2.8s0.8,2.5,0.9,4.1h-3.6C-648.6,256.8-649.4,255.3-650.7,254.4z"/>
</g>
<circle fill="none" stroke="#084F68" stroke-miterlimit="10" stroke-dasharray="6,2" cx="-609.6" cy="122" r="58.1"/>
<g>
	<text transform="matrix(1 0 0 1 -652.3439 112.9953)" fill="#084F68" font-family="'OpenSans-Semibold'" font-size="24.5137">Libsass</text>
	<text transform="matrix(1 0 0 1 -644.1983 145.0296)" fill="#084F68" font-family="'OpenSans-Semibold'" font-size="24.5137">Grunt</text>
	<text transform="matrix(1 0 0 1 -615.6436 128.781)" fill="#084F68" font-family="'OpenSans'" font-size="21.0117">+</text>
</g>
<circle fill="none" stroke="#084F68" stroke-miterlimit="10" stroke-dasharray="6,2" cx="-754.6" cy="122" r="58.1"/>
<text transform="matrix(1 0 0 1 -808.2855 129.0124)" fill="#084F68" font-family="'OpenSans-Semibold'" font-size="24.5137">Compass</text>
<g>
	<g>
		<polyline fill="none" stroke="#084F68" stroke-miterlimit="10" points="-681.8,34.7 -698.2,34.7 -754.6,34.7 -754.6,54.4 		"/>
		<g>
			<polygon fill="#084F68" points="-757.1,53.6 -754.6,58 -752.1,53.6 			"/>
		</g>
	</g>
</g>
<g>
	<g>
		<polyline fill="none" stroke="#084F68" stroke-miterlimit="10" points="-681.8,-13.4 -681.8,34.7 -609.6,34.7 -609.6,54.4 		"/>
		<g>
			<polygon fill="#084F68" points="-612.1,53.6 -609.6,58 -607.1,53.6 			"/>
		</g>
	</g>
</g>
<polyline fill="none" stroke="#084F68" stroke-miterlimit="10" points="-682.5,203.8 -666,203.8 -609.6,203.8 -609.6,180.1 "/>
<g>
	<g>
		<polyline fill="none" stroke="#084F68" stroke-miterlimit="10" points="-682.5,231.9 -682.5,203.8 -754.6,203.8 -754.6,180.1 		
			"/>
		<g>
			<polygon fill="#084F68" points="-680,231.2 -682.5,235.5 -685,231.2 			"/>
		</g>
	</g>
</g>
<circle fill="#FFFFFF" cx="-645.3" cy="35" r="8.8"/>
<text transform="matrix(1 0 0 1 -650.8919 37.2724)" fill="#084F68" font-family="'OpenSans-Semibold'" font-size="8">No</text>
<circle fill="#FFFFFF" cx="-718.2" cy="35" r="9.2"/>
<text transform="matrix(1 0 0 1 -724.8127 37.272)" fill="#084F68" font-family="'OpenSans-Semibold'" font-size="8">Yes</text>
<rect x="-687.5" y="1.6" fill="#FFFFFF" width="11.5" height="15"/>
<text transform="matrix(1 0 0 1 -752.6605 12.3626)" fill="#084F68" font-family="'OpenSans-Bold'" font-size="10">Do You Have Ruby Installed?</text>
<rect x="0" y="60.3" fill="#E6E6E5" width="100" height="40"/>
<g>
	<path fill="#0B4F69" d="M26.2,73.4c-0.8-0.6-1.9-0.9-3.2-0.9c-0.5,0-1.1,0.1-1.6,0.2c-0.5,0.1-1,0.3-1.4,0.5c-0.4,0.2-0.7,0.6-1,1
		c-0.2,0.4-0.4,0.9-0.4,1.6c0,0.6,0.2,1.1,0.5,1.4c0.3,0.4,0.8,0.7,1.4,0.9c0.6,0.2,1.2,0.4,1.9,0.6c0.7,0.2,1.5,0.3,2.2,0.5
		c0.8,0.2,1.5,0.4,2.2,0.6c0.7,0.2,1.4,0.6,1.9,1c0.6,0.4,1,0.9,1.4,1.5c0.3,0.6,0.5,1.4,0.5,2.3c0,1-0.2,1.9-0.7,2.6
		c-0.5,0.7-1,1.3-1.7,1.8c-0.7,0.5-1.5,0.8-2.4,1c-0.9,0.2-1.7,0.3-2.6,0.3c-1.1,0-2.1-0.1-3-0.4c-0.9-0.3-1.8-0.7-2.5-1.2
		c-0.7-0.5-1.3-1.2-1.7-2.1c-0.4-0.8-0.6-1.8-0.6-3H18c0,0.8,0.2,1.5,0.5,2.1c0.3,0.6,0.7,1,1.2,1.4c0.5,0.4,1.1,0.6,1.8,0.8
		c0.7,0.2,1.4,0.3,2.1,0.3c0.6,0,1.1-0.1,1.7-0.2c0.6-0.1,1.1-0.3,1.6-0.5c0.5-0.3,0.8-0.6,1.1-1c0.3-0.4,0.4-1,0.4-1.7
		c0-0.7-0.2-1.2-0.5-1.6c-0.3-0.4-0.8-0.7-1.4-1c-0.6-0.3-1.2-0.5-1.9-0.6c-0.7-0.2-1.5-0.3-2.2-0.5c-0.8-0.2-1.5-0.4-2.2-0.6
		c-0.7-0.2-1.4-0.5-1.9-0.9c-0.6-0.4-1-0.8-1.4-1.4c-0.3-0.6-0.5-1.3-0.5-2.2c0-1,0.2-1.8,0.6-2.5c0.4-0.7,0.9-1.3,1.6-1.7
		c0.6-0.5,1.4-0.8,2.2-1c0.8-0.2,1.7-0.3,2.5-0.3c1,0,1.9,0.1,2.7,0.3c0.8,0.2,1.6,0.6,2.2,1.1c0.6,0.5,1.1,1.1,1.5,1.9
		c0.4,0.8,0.6,1.6,0.6,2.7h-2.4C27.5,75,27,74,26.2,73.4z"/>
	<path fill="#0B4F69" d="M45.3,73.5c-1-0.7-2.1-1-3.4-1c-1.1,0-2.1,0.2-2.9,0.6c-0.8,0.4-1.5,1-2,1.7c-0.5,0.7-0.9,1.5-1.2,2.5
		c-0.2,0.9-0.4,1.9-0.4,2.9c0,1.1,0.1,2.1,0.4,3.1c0.2,1,0.6,1.8,1.2,2.5c0.5,0.7,1.2,1.3,2,1.7c0.8,0.4,1.8,0.6,2.9,0.6
		c0.8,0,1.6-0.1,2.2-0.4c0.6-0.3,1.2-0.7,1.7-1.1c0.5-0.5,0.8-1.1,1.1-1.7c0.3-0.7,0.4-1.4,0.5-2.2h2.5c-0.2,2.4-1.1,4.2-2.5,5.6
		c-1.4,1.3-3.3,2-5.7,2c-1.5,0-2.7-0.3-3.8-0.8c-1.1-0.5-2-1.2-2.7-2.1c-0.7-0.9-1.3-1.9-1.6-3.1C33.2,83,33,81.7,33,80.3
		c0-1.4,0.2-2.7,0.6-3.9c0.4-1.2,1-2.3,1.7-3.2c0.8-0.9,1.7-1.6,2.8-2.1c1.1-0.5,2.4-0.8,3.9-0.8c1,0,1.9,0.1,2.8,0.4
		c0.9,0.3,1.7,0.7,2.4,1.2c0.7,0.5,1.3,1.2,1.7,1.9c0.5,0.8,0.8,1.7,0.9,2.7h-2.5C46.9,75.2,46.3,74.2,45.3,73.5z"/>
	<path fill="#0B4F69" d="M62.5,73.4c-0.8-0.6-1.9-0.9-3.2-0.9c-0.5,0-1.1,0.1-1.6,0.2c-0.5,0.1-1,0.3-1.4,0.5c-0.4,0.2-0.7,0.6-1,1
		c-0.2,0.4-0.4,0.9-0.4,1.6c0,0.6,0.2,1.1,0.5,1.4c0.3,0.4,0.8,0.7,1.4,0.9c0.6,0.2,1.2,0.4,1.9,0.6c0.7,0.2,1.5,0.3,2.2,0.5
		c0.8,0.2,1.5,0.4,2.2,0.6c0.7,0.2,1.4,0.6,1.9,1c0.6,0.4,1,0.9,1.4,1.5c0.3,0.6,0.5,1.4,0.5,2.3c0,1-0.2,1.9-0.7,2.6
		c-0.5,0.7-1,1.3-1.7,1.8c-0.7,0.5-1.5,0.8-2.4,1c-0.9,0.2-1.7,0.3-2.6,0.3c-1.1,0-2.1-0.1-3-0.4c-0.9-0.3-1.8-0.7-2.5-1.2
		c-0.7-0.5-1.3-1.2-1.7-2.1c-0.4-0.8-0.6-1.8-0.6-3h2.4c0,0.8,0.2,1.5,0.5,2.1c0.3,0.6,0.7,1,1.2,1.4s1.1,0.6,1.8,0.8
		c0.7,0.2,1.4,0.3,2.1,0.3c0.6,0,1.1-0.1,1.7-0.2c0.6-0.1,1.1-0.3,1.6-0.5c0.5-0.3,0.8-0.6,1.1-1c0.3-0.4,0.4-1,0.4-1.7
		c0-0.7-0.2-1.2-0.5-1.6c-0.3-0.4-0.8-0.7-1.4-1c-0.6-0.3-1.2-0.5-1.9-0.6c-0.7-0.2-1.5-0.3-2.2-0.5c-0.8-0.2-1.5-0.4-2.2-0.6
		c-0.7-0.2-1.4-0.5-1.9-0.9c-0.6-0.4-1-0.8-1.4-1.4c-0.3-0.6-0.5-1.3-0.5-2.2c0-1,0.2-1.8,0.6-2.5c0.4-0.7,0.9-1.3,1.6-1.7
		c0.6-0.5,1.4-0.8,2.2-1c0.8-0.2,1.7-0.3,2.5-0.3c1,0,1.9,0.1,2.7,0.3c0.8,0.2,1.6,0.6,2.2,1.1c0.6,0.5,1.1,1.1,1.5,1.9
		c0.4,0.8,0.6,1.6,0.6,2.7H64C63.9,75,63.4,74,62.5,73.4z"/>
	<path fill="#0B4F69" d="M79.7,73.4c-0.8-0.6-1.9-0.9-3.2-0.9c-0.5,0-1.1,0.1-1.6,0.2c-0.5,0.1-1,0.3-1.4,0.5c-0.4,0.2-0.7,0.6-1,1
		c-0.2,0.4-0.4,0.9-0.4,1.6c0,0.6,0.2,1.1,0.5,1.4c0.3,0.4,0.8,0.7,1.4,0.9c0.6,0.2,1.2,0.4,1.9,0.6c0.7,0.2,1.5,0.3,2.2,0.5
		c0.8,0.2,1.5,0.4,2.2,0.6c0.7,0.2,1.4,0.6,1.9,1c0.6,0.4,1,0.9,1.4,1.5c0.3,0.6,0.5,1.4,0.5,2.3c0,1-0.2,1.9-0.7,2.6
		c-0.5,0.7-1,1.3-1.7,1.8c-0.7,0.5-1.5,0.8-2.4,1c-0.9,0.2-1.7,0.3-2.6,0.3c-1.1,0-2.1-0.1-3-0.4c-0.9-0.3-1.8-0.7-2.5-1.2
		c-0.7-0.5-1.3-1.2-1.7-2.1c-0.4-0.8-0.6-1.8-0.6-3h2.4c0,0.8,0.2,1.5,0.5,2.1c0.3,0.6,0.7,1,1.2,1.4c0.5,0.4,1.1,0.6,1.8,0.8
		c0.7,0.2,1.4,0.3,2.1,0.3c0.6,0,1.1-0.1,1.7-0.2c0.6-0.1,1.1-0.3,1.6-0.5c0.5-0.3,0.8-0.6,1.1-1c0.3-0.4,0.4-1,0.4-1.7
		c0-0.7-0.2-1.2-0.5-1.6c-0.3-0.4-0.8-0.7-1.4-1c-0.6-0.3-1.2-0.5-1.9-0.6c-0.7-0.2-1.5-0.3-2.2-0.5c-0.8-0.2-1.5-0.4-2.2-0.6
		c-0.7-0.2-1.4-0.5-1.9-0.9c-0.6-0.4-1-0.8-1.4-1.4c-0.3-0.6-0.5-1.3-0.5-2.2c0-1,0.2-1.8,0.6-2.5c0.4-0.7,0.9-1.3,1.6-1.7
		c0.6-0.5,1.4-0.8,2.2-1c0.8-0.2,1.7-0.3,2.5-0.3c1,0,1.9,0.1,2.7,0.3c0.8,0.2,1.6,0.6,2.2,1.1c0.6,0.5,1.1,1.1,1.5,1.9
		c0.4,0.8,0.6,1.6,0.6,2.7h-2.4C81,75,80.6,74,79.7,73.4z"/>
</g>
<rect x="782" y="60.2" fill="#0B4F69" width="80" height="40"/>
<g>
	<path fill="#FFFFFF" d="M808.8,73.5c-1-0.7-2.1-1-3.4-1c-1.1,0-2.1,0.2-2.9,0.6c-0.8,0.4-1.5,1-2,1.7c-0.5,0.7-0.9,1.5-1.1,2.4
		c-0.2,0.9-0.4,1.9-0.4,2.8c0,1.1,0.1,2.1,0.4,3c0.2,1,0.6,1.8,1.1,2.5c0.5,0.7,1.2,1.3,2,1.7c0.8,0.4,1.8,0.6,2.9,0.6
		c0.8,0,1.6-0.1,2.2-0.4c0.6-0.3,1.2-0.6,1.7-1.1c0.5-0.5,0.8-1.1,1.1-1.7c0.3-0.7,0.4-1.4,0.5-2.1h2.5c-0.2,2.4-1.1,4.2-2.4,5.5
		c-1.4,1.3-3.3,2-5.7,2c-1.5,0-2.7-0.2-3.8-0.7c-1.1-0.5-2-1.2-2.7-2.1c-0.7-0.9-1.3-1.9-1.6-3.1c-0.4-1.2-0.5-2.5-0.5-3.8
		c0-1.4,0.2-2.6,0.6-3.8c0.4-1.2,0.9-2.2,1.7-3.1c0.7-0.9,1.7-1.6,2.8-2.1c1.1-0.5,2.4-0.8,3.8-0.8c1,0,1.9,0.1,2.8,0.4
		c0.9,0.3,1.7,0.6,2.3,1.2c0.7,0.5,1.2,1.1,1.7,1.9s0.8,1.6,0.9,2.6h-2.5C810.4,75.1,809.8,74.1,808.8,73.5z"/>
	<path fill="#FFFFFF" d="M825.8,73.4c-0.8-0.6-1.9-0.9-3.2-0.9c-0.5,0-1,0.1-1.5,0.2c-0.5,0.1-1,0.3-1.3,0.5c-0.4,0.2-0.7,0.6-0.9,1
		c-0.2,0.4-0.4,0.9-0.4,1.5c0,0.6,0.2,1,0.5,1.4c0.3,0.4,0.8,0.7,1.4,0.9c0.6,0.2,1.2,0.4,1.9,0.6c0.7,0.1,1.4,0.3,2.2,0.5
		c0.7,0.2,1.5,0.4,2.2,0.6c0.7,0.2,1.4,0.6,1.9,1c0.6,0.4,1,0.9,1.4,1.5c0.3,0.6,0.5,1.4,0.5,2.3c0,1-0.2,1.8-0.7,2.6
		c-0.4,0.7-1,1.3-1.7,1.7c-0.7,0.4-1.5,0.8-2.3,1c-0.9,0.2-1.7,0.3-2.6,0.3c-1,0-2-0.1-3-0.4c-0.9-0.3-1.8-0.7-2.5-1.2
		c-0.7-0.5-1.3-1.2-1.7-2c-0.4-0.8-0.6-1.8-0.6-2.9h2.4c0,0.8,0.2,1.5,0.5,2c0.3,0.6,0.7,1,1.2,1.4s1.1,0.6,1.7,0.8
		c0.7,0.2,1.3,0.3,2,0.3c0.6,0,1.1-0.1,1.7-0.2c0.6-0.1,1.1-0.3,1.5-0.5c0.5-0.3,0.8-0.6,1.1-1c0.3-0.4,0.4-1,0.4-1.7
		c0-0.6-0.2-1.2-0.5-1.6c-0.3-0.4-0.8-0.7-1.4-1c-0.6-0.3-1.2-0.5-1.9-0.6c-0.7-0.2-1.4-0.3-2.2-0.5c-0.7-0.2-1.5-0.4-2.2-0.6
		c-0.7-0.2-1.4-0.5-1.9-0.9c-0.6-0.4-1-0.8-1.4-1.4c-0.3-0.6-0.5-1.3-0.5-2.1c0-0.9,0.2-1.8,0.6-2.5c0.4-0.7,0.9-1.3,1.5-1.7
		c0.6-0.4,1.4-0.8,2.2-1c0.8-0.2,1.6-0.3,2.5-0.3c1,0,1.9,0.1,2.7,0.3c0.8,0.2,1.5,0.6,2.2,1.1c0.6,0.5,1.1,1.1,1.5,1.8
		c0.4,0.7,0.6,1.6,0.6,2.7h-2.4C827.1,75,826.6,74,825.8,73.4z"/>
	<path fill="#FFFFFF" d="M842.8,73.4c-0.8-0.6-1.9-0.9-3.2-0.9c-0.5,0-1,0.1-1.5,0.2c-0.5,0.1-1,0.3-1.3,0.5c-0.4,0.2-0.7,0.6-0.9,1
		c-0.2,0.4-0.4,0.9-0.4,1.5c0,0.6,0.2,1,0.5,1.4c0.3,0.4,0.8,0.7,1.4,0.9c0.6,0.2,1.2,0.4,1.9,0.6c0.7,0.1,1.4,0.3,2.2,0.5
		c0.7,0.2,1.5,0.4,2.2,0.6c0.7,0.2,1.4,0.6,1.9,1c0.6,0.4,1,0.9,1.4,1.5c0.3,0.6,0.5,1.4,0.5,2.3c0,1-0.2,1.8-0.7,2.6
		c-0.4,0.7-1,1.3-1.7,1.7c-0.7,0.4-1.5,0.8-2.3,1c-0.9,0.2-1.7,0.3-2.6,0.3c-1,0-2-0.1-3-0.4c-0.9-0.3-1.8-0.7-2.5-1.2
		c-0.7-0.5-1.3-1.2-1.7-2c-0.4-0.8-0.6-1.8-0.6-2.9h2.4c0,0.8,0.2,1.5,0.5,2c0.3,0.6,0.7,1,1.2,1.4s1.1,0.6,1.7,0.8
		c0.7,0.2,1.3,0.3,2,0.3c0.6,0,1.1-0.1,1.7-0.2c0.6-0.1,1.1-0.3,1.5-0.5c0.5-0.3,0.8-0.6,1.1-1c0.3-0.4,0.4-1,0.4-1.7
		c0-0.6-0.2-1.2-0.5-1.6c-0.3-0.4-0.8-0.7-1.4-1c-0.6-0.3-1.2-0.5-1.9-0.6c-0.7-0.2-1.4-0.3-2.2-0.5c-0.7-0.2-1.5-0.4-2.2-0.6
		c-0.7-0.2-1.4-0.5-1.9-0.9c-0.6-0.4-1-0.8-1.4-1.4c-0.3-0.6-0.5-1.3-0.5-2.1c0-0.9,0.2-1.8,0.6-2.5c0.4-0.7,0.9-1.3,1.5-1.7
		c0.6-0.4,1.4-0.8,2.2-1c0.8-0.2,1.6-0.3,2.5-0.3c1,0,1.9,0.1,2.7,0.3c0.8,0.2,1.5,0.6,2.2,1.1c0.6,0.5,1.1,1.1,1.5,1.8
		c0.4,0.7,0.6,1.6,0.6,2.7h-2.4C844.1,75,843.6,74,842.8,73.4z"/>
</g>
<g>
	<text transform="matrix(1 0 0 1 -742.2845 -254.764)" fill="#FFFFFF" font-family="'HelveticaNeue'" font-size="40">SCSS</text>
</g>
<g>
	<g>
		<circle fill="#0B4F69" cx="-452.9" cy="-307.4" r="126"/>
		<g opacity="0.5" enable-background="new    ">
			<g>
				<g>
					<defs>
						<circle id="SVGID_3_" cx="-453.3" cy="-307.7" r="126"/>
					</defs>
					<clipPath id="SVGID_4_">
						<use xlink:href="#SVGID_3_"  overflow="visible"/>
					</clipPath>
					<g clip-path="url(#SVGID_4_)">
						<g>
							
								<line fill="none" stroke="#FFFFFF" stroke-width="0.5" stroke-miterlimit="10" x1="-359.1" y1="-89.1" x2="-359.1" y2="-511.7"/>
							
								<line fill="none" stroke="#FFFFFF" stroke-width="0.5" stroke-miterlimit="10" x1="-376.2" y1="-89.1" x2="-376.2" y2="-511.7"/>
							<line fill="none" stroke="#FFFFFF" stroke-width="0.5" stroke-miterlimit="10" x1="-342" y1="-89.5" x2="-342" y2="-512.1"/>
							
								<line fill="none" stroke="#FFFFFF" stroke-width="0.5" stroke-miterlimit="10" x1="-324.9" y1="-89.1" x2="-324.9" y2="-511.7"/>
							
								<line fill="none" stroke="#FFFFFF" stroke-width="0.5" stroke-miterlimit="10" x1="-427.5" y1="-89.1" x2="-427.5" y2="-511.7"/>
							
								<line fill="none" stroke="#FFFFFF" stroke-width="0.5" stroke-miterlimit="10" x1="-444.6" y1="-89.1" x2="-444.6" y2="-511.7"/>
							
								<line fill="none" stroke="#FFFFFF" stroke-width="0.5" stroke-miterlimit="10" x1="-410.4" y1="-89.5" x2="-410.4" y2="-512.1"/>
							
								<line fill="none" stroke="#FFFFFF" stroke-width="0.5" stroke-miterlimit="10" x1="-393.3" y1="-89.1" x2="-393.3" y2="-511.7"/>
							
								<line fill="none" stroke="#FFFFFF" stroke-width="0.5" stroke-miterlimit="10" x1="-495.5" y1="-88.9" x2="-495.5" y2="-511.5"/>
							
								<line fill="none" stroke="#FFFFFF" stroke-width="0.5" stroke-miterlimit="10" x1="-512.6" y1="-88.9" x2="-512.6" y2="-511.5"/>
							
								<line fill="none" stroke="#FFFFFF" stroke-width="0.5" stroke-miterlimit="10" x1="-478.4" y1="-89.3" x2="-478.4" y2="-511.9"/>
							
								<line fill="none" stroke="#FFFFFF" stroke-width="0.5" stroke-miterlimit="10" x1="-461.3" y1="-88.9" x2="-461.3" y2="-511.5"/>
							
								<line fill="none" stroke="#FFFFFF" stroke-width="0.5" stroke-miterlimit="10" x1="-563.8" y1="-88.9" x2="-563.8" y2="-511.5"/>
							
								<line fill="none" stroke="#FFFFFF" stroke-width="0.5" stroke-miterlimit="10" x1="-580.9" y1="-88.9" x2="-580.9" y2="-511.5"/>
							
								<line fill="none" stroke="#FFFFFF" stroke-width="0.5" stroke-miterlimit="10" x1="-546.8" y1="-89.3" x2="-546.8" y2="-511.9"/>
							
								<line fill="none" stroke="#FFFFFF" stroke-width="0.5" stroke-miterlimit="10" x1="-529.7" y1="-88.9" x2="-529.7" y2="-511.5"/>
						</g>
						<g>
							<line fill="none" stroke="#FFFFFF" stroke-width="0.5" stroke-miterlimit="10" x1="-656" y1="-214" x2="-233.4" y2="-214"/>
							
								<line fill="none" stroke="#FFFFFF" stroke-width="0.5" stroke-miterlimit="10" x1="-656" y1="-231.1" x2="-233.4" y2="-231.1"/>
							
								<line fill="none" stroke="#FFFFFF" stroke-width="0.5" stroke-miterlimit="10" x1="-655.5" y1="-196.9" x2="-233" y2="-196.9"/>
							
								<line fill="none" stroke="#FFFFFF" stroke-width="0.5" stroke-miterlimit="10" x1="-656" y1="-179.8" x2="-233.4" y2="-179.8"/>
							
								<line fill="none" stroke="#FFFFFF" stroke-width="0.5" stroke-miterlimit="10" x1="-656" y1="-282.4" x2="-233.4" y2="-282.4"/>
							
								<line fill="none" stroke="#FFFFFF" stroke-width="0.5" stroke-miterlimit="10" x1="-656" y1="-299.4" x2="-233.4" y2="-299.4"/>
							
								<line fill="none" stroke="#FFFFFF" stroke-width="0.5" stroke-miterlimit="10" x1="-655.5" y1="-265.3" x2="-233" y2="-265.3"/>
							
								<line fill="none" stroke="#FFFFFF" stroke-width="0.5" stroke-miterlimit="10" x1="-656" y1="-248.2" x2="-233.4" y2="-248.2"/>
							
								<line fill="none" stroke="#FFFFFF" stroke-width="0.5" stroke-miterlimit="10" x1="-656.2" y1="-350.4" x2="-233.6" y2="-350.4"/>
							
								<line fill="none" stroke="#FFFFFF" stroke-width="0.5" stroke-miterlimit="10" x1="-656.2" y1="-367.5" x2="-233.6" y2="-367.5"/>
							
								<line fill="none" stroke="#FFFFFF" stroke-width="0.5" stroke-miterlimit="10" x1="-655.7" y1="-333.3" x2="-233.2" y2="-333.3"/>
							
								<line fill="none" stroke="#FFFFFF" stroke-width="0.5" stroke-miterlimit="10" x1="-656.2" y1="-316.2" x2="-233.6" y2="-316.2"/>
							
								<line fill="none" stroke="#FFFFFF" stroke-width="0.5" stroke-miterlimit="10" x1="-656.2" y1="-418.7" x2="-233.6" y2="-418.7"/>
							
								<line fill="none" stroke="#FFFFFF" stroke-width="0.5" stroke-miterlimit="10" x1="-656.2" y1="-435.8" x2="-233.6" y2="-435.8"/>
							
								<line fill="none" stroke="#FFFFFF" stroke-width="0.5" stroke-miterlimit="10" x1="-655.7" y1="-401.6" x2="-233.2" y2="-401.6"/>
							
								<line fill="none" stroke="#FFFFFF" stroke-width="0.5" stroke-miterlimit="10" x1="-656.2" y1="-384.5" x2="-233.6" y2="-384.5"/>
						</g>
					</g>
				</g>
			</g>
		</g>
	</g>
	<g>
		<polygon fill="none" stroke="#FFFFFF" stroke-width="3" stroke-linejoin="round" stroke-miterlimit="10" points="-382.3,-324 
			-523.6,-324 -502.3,-358.5 -403.6,-358.5 		"/>
		<polygon fill="none" stroke="#FFFFFF" stroke-width="3" stroke-linejoin="round" stroke-miterlimit="10" points="-382.3,-324 
			-523.6,-324 -452.9,-235.2 		"/>
		<polyline fill="none" stroke="#FFFFFF" stroke-width="3" stroke-linejoin="round" stroke-miterlimit="10" points="-502.3,-358.5 
			-481.4,-324 -452.9,-358.5 -425.5,-324 -403.8,-358.5 		"/>
		<polyline fill="none" stroke="#FFFFFF" stroke-width="3" stroke-linejoin="round" stroke-miterlimit="10" points="-481.4,-324 
			-452.9,-235.2 -425.5,-324 		"/>
	</g>
	
		<line fill="none" stroke="#FFFFFF" stroke-width="3" stroke-linejoin="round" stroke-miterlimit="10" x1="-565.2" y1="-324" x2="-537.9" y2="-324"/>
	
		<line fill="none" stroke="#FFFFFF" stroke-width="3" stroke-linejoin="round" stroke-miterlimit="10" x1="-555.7" y1="-349.5" x2="-534.7" y2="-331.9"/>
	
		<line fill="none" stroke="#FFFFFF" stroke-width="3" stroke-linejoin="round" stroke-miterlimit="10" x1="-555.7" y1="-298.6" x2="-534.7" y2="-316.2"/>
	
		<line fill="none" stroke="#FFFFFF" stroke-width="3" stroke-linejoin="round" stroke-miterlimit="10" x1="-340.7" y1="-324" x2="-368" y2="-324"/>
	
		<line fill="none" stroke="#FFFFFF" stroke-width="3" stroke-linejoin="round" stroke-miterlimit="10" x1="-350.2" y1="-349.4" x2="-371.1" y2="-331.9"/>
	
		<line fill="none" stroke="#FFFFFF" stroke-width="3" stroke-linejoin="round" stroke-miterlimit="10" x1="-350.2" y1="-298.6" x2="-371.1" y2="-316.2"/>
</g>
<g>
	<g>
		<circle fill="#0B4F69" cx="1107.3" cy="80.3" r="80.1"/>
		<g opacity="0.5" enable-background="new    ">
			<g>
				<g>
					<defs>
						<circle id="SVGID_5_" cx="1107" cy="80.1" r="80.1"/>
					</defs>
					<clipPath id="SVGID_6_">
						<use xlink:href="#SVGID_5_"  overflow="visible"/>
					</clipPath>
					<g clip-path="url(#SVGID_6_)">
						<g>
							
								<line fill="none" stroke="#FFFFFF" stroke-width="0.5" stroke-miterlimit="10" x1="1166.9" y1="219" x2="1166.9" y2="-49.6"/>
							<line fill="none" stroke="#FFFFFF" stroke-width="0.5" stroke-miterlimit="10" x1="1156" y1="219" x2="1156" y2="-49.6"/>
							
								<line fill="none" stroke="#FFFFFF" stroke-width="0.5" stroke-miterlimit="10" x1="1177.8" y1="218.8" x2="1177.8" y2="-49.8"/>
							
								<line fill="none" stroke="#FFFFFF" stroke-width="0.5" stroke-miterlimit="10" x1="1188.6" y1="219" x2="1188.6" y2="-49.6"/>
							
								<line fill="none" stroke="#FFFFFF" stroke-width="0.5" stroke-miterlimit="10" x1="1123.4" y1="219" x2="1123.4" y2="-49.6"/>
							
								<line fill="none" stroke="#FFFFFF" stroke-width="0.5" stroke-miterlimit="10" x1="1112.6" y1="219" x2="1112.6" y2="-49.6"/>
							
								<line fill="none" stroke="#FFFFFF" stroke-width="0.5" stroke-miterlimit="10" x1="1134.3" y1="218.8" x2="1134.3" y2="-49.8"/>
							
								<line fill="none" stroke="#FFFFFF" stroke-width="0.5" stroke-miterlimit="10" x1="1145.2" y1="219" x2="1145.2" y2="-49.6"/>
							
								<line fill="none" stroke="#FFFFFF" stroke-width="0.5" stroke-miterlimit="10" x1="1080.2" y1="219.2" x2="1080.2" y2="-49.4"/>
							
								<line fill="none" stroke="#FFFFFF" stroke-width="0.5" stroke-miterlimit="10" x1="1069.3" y1="219.2" x2="1069.3" y2="-49.4"/>
							
								<line fill="none" stroke="#FFFFFF" stroke-width="0.5" stroke-miterlimit="10" x1="1091.1" y1="218.9" x2="1091.1" y2="-49.7"/>
							
								<line fill="none" stroke="#FFFFFF" stroke-width="0.5" stroke-miterlimit="10" x1="1101.9" y1="219.2" x2="1101.9" y2="-49.4"/>
							
								<line fill="none" stroke="#FFFFFF" stroke-width="0.5" stroke-miterlimit="10" x1="1036.8" y1="219.2" x2="1036.8" y2="-49.4"/>
							
								<line fill="none" stroke="#FFFFFF" stroke-width="0.5" stroke-miterlimit="10" x1="1025.9" y1="219.2" x2="1025.9" y2="-49.4"/>
							
								<line fill="none" stroke="#FFFFFF" stroke-width="0.5" stroke-miterlimit="10" x1="1047.6" y1="218.9" x2="1047.6" y2="-49.7"/>
							
								<line fill="none" stroke="#FFFFFF" stroke-width="0.5" stroke-miterlimit="10" x1="1058.5" y1="219.2" x2="1058.5" y2="-49.4"/>
						</g>
						<g>
							
								<line fill="none" stroke="#FFFFFF" stroke-width="0.5" stroke-miterlimit="10" x1="978.2" y1="139.7" x2="1246.8" y2="139.7"/>
							
								<line fill="none" stroke="#FFFFFF" stroke-width="0.5" stroke-miterlimit="10" x1="978.2" y1="128.8" x2="1246.8" y2="128.8"/>
							
								<line fill="none" stroke="#FFFFFF" stroke-width="0.5" stroke-miterlimit="10" x1="978.5" y1="150.5" x2="1247.1" y2="150.5"/>
							
								<line fill="none" stroke="#FFFFFF" stroke-width="0.5" stroke-miterlimit="10" x1="978.2" y1="161.4" x2="1246.8" y2="161.4"/>
							<line fill="none" stroke="#FFFFFF" stroke-width="0.5" stroke-miterlimit="10" x1="978.2" y1="96.2" x2="1246.8" y2="96.2"/>
							<line fill="none" stroke="#FFFFFF" stroke-width="0.5" stroke-miterlimit="10" x1="978.2" y1="85.3" x2="1246.8" y2="85.3"/>
							
								<line fill="none" stroke="#FFFFFF" stroke-width="0.5" stroke-miterlimit="10" x1="978.5" y1="107.1" x2="1247.1" y2="107.1"/>
							
								<line fill="none" stroke="#FFFFFF" stroke-width="0.5" stroke-miterlimit="10" x1="978.2" y1="117.9" x2="1246.8" y2="117.9"/>
							<line fill="none" stroke="#FFFFFF" stroke-width="0.5" stroke-miterlimit="10" x1="978.1" y1="53" x2="1246.7" y2="53"/>
							<line fill="none" stroke="#FFFFFF" stroke-width="0.5" stroke-miterlimit="10" x1="978.1" y1="42.1" x2="1246.7" y2="42.1"/>
							<line fill="none" stroke="#FFFFFF" stroke-width="0.5" stroke-miterlimit="10" x1="978.3" y1="63.8" x2="1246.9" y2="63.8"/>
							<line fill="none" stroke="#FFFFFF" stroke-width="0.5" stroke-miterlimit="10" x1="978.1" y1="74.7" x2="1246.7" y2="74.7"/>
							<line fill="none" stroke="#FFFFFF" stroke-width="0.5" stroke-miterlimit="10" x1="978.1" y1="9.5" x2="1246.7" y2="9.5"/>
							<line fill="none" stroke="#FFFFFF" stroke-width="0.5" stroke-miterlimit="10" x1="978.1" y1="-1.3" x2="1246.7" y2="-1.3"/>
							<line fill="none" stroke="#FFFFFF" stroke-width="0.5" stroke-miterlimit="10" x1="978.3" y1="20.4" x2="1246.9" y2="20.4"/>
							<line fill="none" stroke="#FFFFFF" stroke-width="0.5" stroke-miterlimit="10" x1="978.1" y1="31.2" x2="1246.7" y2="31.2"/>
						</g>
					</g>
				</g>
			</g>
		</g>
	</g>
	<g>
		<polygon fill="none" stroke="#FFFFFF" stroke-width="3" stroke-linejoin="round" stroke-miterlimit="10" points="1152.2,69.7 
			1062.3,69.7 1075.8,47.8 1138.6,47.8 		"/>
		<polygon fill="none" stroke="#FFFFFF" stroke-width="3" stroke-linejoin="round" stroke-miterlimit="10" points="1152.2,69.7 
			1062.3,69.7 1107.2,126.2 		"/>
		<polyline fill="none" stroke="#FFFFFF" stroke-width="3" stroke-linejoin="round" stroke-miterlimit="10" points="1075.8,47.8 
			1089.2,69.7 1107.2,47.8 1124.7,69.7 1138.5,47.8 		"/>
		<polyline fill="none" stroke="#FFFFFF" stroke-width="3" stroke-linejoin="round" stroke-miterlimit="10" points="1089.2,69.7 
			1107.2,126.2 1124.7,69.7 		"/>
	</g>
	
		<line fill="none" stroke="#FFFFFF" stroke-width="3" stroke-linejoin="round" stroke-miterlimit="10" x1="1035.9" y1="69.7" x2="1053.3" y2="69.7"/>
	
		<line fill="none" stroke="#FFFFFF" stroke-width="3" stroke-linejoin="round" stroke-miterlimit="10" x1="1041.9" y1="53.6" x2="1055.3" y2="64.7"/>
	
		<line fill="none" stroke="#FFFFFF" stroke-width="3" stroke-linejoin="round" stroke-miterlimit="10" x1="1041.9" y1="85.9" x2="1055.3" y2="74.7"/>
	
		<line fill="none" stroke="#FFFFFF" stroke-width="3" stroke-linejoin="round" stroke-miterlimit="10" x1="1178.6" y1="69.7" x2="1161.2" y2="69.7"/>
	
		<line fill="none" stroke="#FFFFFF" stroke-width="3" stroke-linejoin="round" stroke-miterlimit="10" x1="1172.6" y1="53.6" x2="1159.2" y2="64.7"/>
	
		<line fill="none" stroke="#FFFFFF" stroke-width="3" stroke-linejoin="round" stroke-miterlimit="10" x1="1172.6" y1="85.9" x2="1159.2" y2="74.7"/>
</g>
<path fill="none" stroke="#EC008C" stroke-miterlimit="10" d="M-735.7,144.5"/>
<g>
	<path fill="none" stroke="#EC008C" stroke-miterlimit="10" d="M1129.4-241.7"/>
	<ellipse opacity="0.5" fill="#CDCCCC" enable-background="new    " cx="1396.4" cy="-76.2" rx="297.3" ry="28.3"/>
	<path fill="#EAF7FE" d="M1220.5-88.7c0,0-1.5-20.6,1-28.3c2.6-7.7-45.1-17.2-45.1-17.2s1.2,22.3,3.2,29.2"/>
	<path fill="#A1D4E9" d="M1152.9-206.8l-6.3,9.3l-3.9,1.9l3.2,1.2c0,0-12.3,14.9-13.7,23.7c0,0,4.2-2.1,6-2.6c0,0-5.8,10.2-5.8,15.8
		c0,0,3.7-2.3,5.3-2.1c0,0-5.8,6-8.8,7.4c0,0,3.5,0.5,4.9,0c0,0-7,8.1-6.3,24.8c0,0,2.3-2.6,3.9-3.2c0,0,1.9,17.6,29.2,27.2
		c0,0-3-7.7-3-11.8c0,0,5.3,2,11.4,2.3c0,0-4.1-6.9-3.6-10.3h5.2l-0.5-9.5c0,0-7.8-3-6.2-11.4c0,0-1.8-2.8-6.6-15.3
		C1153-171.1,1161.9-212.1,1152.9-206.8z"/>
	<path fill="#EAF7FE" d="M1220.1-108.1c0-1.9-1.3-2.1-3.5-1.3c-4.2-2.9-11,0.8-11,0.8c-0.9,0-1.8,0.1-2.6,0.1
		c-2.6-0.2-11.4-1-16.8-0.4c0,0,1.3,0.9,1.8,1.8c-5.7,0.9-16.7,2-20.7,3.4c-3.1,0.9-9.9,2.8-12.9,4.2c0,0,1.7,0.1,2.2,0.7
		c-2.1,1.3-5.4,3.7-8.5,8.1c0,0,1-0.4,2-0.8c-2.4,4.2-2.7,6.3-2.5,9.6c-0.1,1-0.3,2.1-0.5,3.2c2-0.2,3.9-0.4,5.9-0.6
		c0,0.2,0,0.4,0.1,0.8l0.2,1.5l5.9-0.4l0.9,0l0.1,2c0,0,40.3-1.4,58.5-1.6c0,0,2.8,0.1,2.7-2C1221.3-81.5,1219.9-97.6,1220.1-108.1z
		"/>
	<path fill="#EAF7FE" d="M1227.5-345.9c0,0-11.5,0.7-19.6,10.4l-2.4-10.1l-11,5c0,0-8.1-14.4-4.3-22c0,0-19.8-0.7-35.9,32.7
		c0,0-7.3-9.4-4.9-18.5c0,0-27.2,20.5-20.9,49.1c0,0-5.9-1.7-7.7-8.4c0,0-3.1,34.5,22.6,82.2c0,0-4.8-3.9-6.4-3.7
		c0,0,5.1,7,7.2,11.8c0,0-3.2-0.9-5.3-0.2c0,0,11.1,3.7,13.9,10.7c2,4.2,4,17.6,5.1,47.3c7.5,15,18.3,45.8,69.2,42.5L1227.5-345.9z"
		/>
	
		<ellipse transform="matrix(0.9787 -0.2052 0.2052 0.9787 70.8173 237.9153)" fill="#CDEAF5" cx="1182.5" cy="-222.5" rx="7.5" ry="9.5"/>
	
		<ellipse transform="matrix(0.9787 -0.2052 0.2052 0.9787 73.8447 244.8223)" fill="#CDEAF5" cx="1217.3" cy="-233.6" rx="7.5" ry="9.5"/>
	
		<ellipse transform="matrix(0.9787 -0.2052 0.2052 0.9787 74.4066 244.7927)" fill="#FFFFFF" cx="1217.4" cy="-236.3" rx="7.4" ry="9.4"/>
	<path fill="#4F4E51" d="M1215.9-241.4c0,0.2,0,0.5,0.1,0.7c0.3,1.3,1.3,2.2,2.4,2c0.9-0.2,1.5-1.2,1.4-2.3c0.8,0.7,1.3,1.6,1.6,2.8
		c0.5,2.4-0.7,4.7-2.6,5.1c-1.9,0.4-3.9-1.2-4.4-3.6C1214-238.7,1214.6-240.5,1215.9-241.4z"/>
	
		<ellipse transform="matrix(0.9787 -0.2052 0.2052 0.9787 71.3791 237.8856)" fill="#FFFFFF" cx="1182.6" cy="-225.2" rx="7.4" ry="9.4"/>
	<path fill="#4F4E51" d="M1181.8-230.2c0,0.2,0,0.5,0.1,0.7c0.3,1.3,1.3,2.2,2.4,2c0.9-0.2,1.5-1.2,1.4-2.3c0.8,0.7,1.3,1.6,1.6,2.8
		c0.5,2.4-0.7,4.7-2.6,5.1s-3.9-1.2-4.4-3.6C1179.9-227.5,1180.5-229.4,1181.8-230.2z"/>
	<path fill="#5C5B5D" d="M1203.1-203.2c0,0,4.1-3.4,4.4-5.3c0,0,12.3-3.1,18.1-11.5C1225.6-220.1,1224.1-198.2,1203.1-203.2z"/>
	<path fill="#A1D4E9" d="M1176.8-252.6c0,0-9.3,0.5-10,9.3c0,0-3.9-6.3,1.6-10.2C1174.1-257.4,1176.8-252.6,1176.8-252.6z"/>
	<path fill="#A1D4E9" d="M1168.2-261.8c0,0-8.6,0.5-8.4,8.4c0,0-3.9-4.9,0.2-8.8C1164.3-266.3,1168.2-261.8,1168.2-261.8z"/>
	<path fill="#CDEAF5" d="M1221.4-116.7c0,0-27.4-3.2-44.8-19.6l4.5,0.9c0,0-11.5-10.3-17.4-28.7h3.1c0,0-2.3-11.5-7.2-24.5
		c0-1.1,0-1.8,0-1.8c-2.4-6.4-6.9-21.4-8.4-29.7c-1.4-13.7-8-25.9-8.3-29.8c1.5-4.5,5.6-13.2,5.6-13.2c-1.6,0.5-6.7,3.2-6.7,3.2
		c-2.1-15.6,8.8-31.6,8.8-31.6c-6.7-0.7-15.3,5.3-15.3,5.3c-3-21.6,7.9-40.2,7.9-40.2c-0.5,7.9,10.7,18.8,10.7,18.8
		c7.9-35.4,30.6-48.8,35.2-51.1c0.1-1.4,0.5-2.8,1.2-4.1c0,0-19.8-0.7-35.9,32.7c0,0-7.3-9.4-4.9-18.5c0,0-13.2,10-19.1,25.8
		c-2.1-2.2-3.9-8.3-3.9-8.3c-3.5,11.8,1.9,31.1,1.9,31.1s0-0.1,0.1-0.3c0.1,0.3,0.1,0.5,0.2,0.8c0,0-5.9-1.7-7.7-8.4
		c0,0-3.1,34.5,22.6,82.2c0,0-4.8-3.9-6.4-3.7c0,0,5.1,7,7.2,11.8c0,0-3.2-0.9-5.3-0.2c0,0,7.3,3,10.2,8.7c0,0,0,0.1,0,0.1
		c2.1,5.9,3.7,11.8,3.7,11.8l-2.8,7l2.3,0.7c0.3,1.4,1.6,15.3,1.6,15.3s0.1-0.6,0.2-1.4c0.2,1.2,0.3,2.4,0.6,3.7
		c-0.8-0.2-1.9-0.5-2.3-0.5c-0.7-0.2-1.3-0.3-1.6-0.3c0,0,0.3,1.6,2.4,4.5c0,0.3,0.1,0.6,0.2,0.8c1.4,6.7,3.7,14.2,7.2,21.5
		c0.8,2.6,0.9,6.7,1.4,8l1.6-2.1c1,1.5,0.7,1.1,1.3,2.7l2.4,5.8l0.3-3.2c2.6,3.4,5.7,6.6,9.2,9.4c0.6,0.5,1.2,1,1.9,1.4
		c0.2,0.2,0.4,0.3,0.6,0.5c0,0,0,0,0,0c0.5,0.3,0.9,0.6,1.4,0.9c4,5.1,6.8,9.2,7,11.2c0,0,6.6,6.5,9.1,9l2.4-4.9
		c0,0,10.4,11.8,21.2,12.2C1220.5-94.8,1219.6-106.7,1221.4-116.7z M1142.5-247.2c0-0.3,0-0.6-0.1-0.9c0.1-0.2,0.1-0.3,0.1-0.3
		c0,0,0-0.1,0-0.1C1142.5-248.1,1142.5-247.7,1142.5-247.2z"/>
	<path fill="#C0E5F3" d="M1154.7-214.1c0-0.2-0.1-0.5-0.1-0.7l0.2,1.4C1154.8-213.7,1154.7-213.9,1154.7-214.1z"/>
	<path fill="#5C5B5D" d="M1240.4-235c0,0-0.7-7.1-1.5-12.6c3.2-0.4,6.5-0.5,6.5-0.5l-0.4-3.9c-3.3-0.5-6.9,0-6.9,0
		c-3.4,0.4-9.2,1.3-15.9,3.4c-8.8,2.8-16,6-20.4,7.9c-1.3,0.6-2.3,1-3.1,1.3l-0.9,0.4c-1.5,0.6-2.2,0.9-3.1,1.1c0,0,0,0.1-0.1,0.1
		c-0.5,0.1-1,0.3-1.8,0.4l-0.9,0.2c-0.8,0.2-1.9,0.4-3.3,0.7c-4.7,0.9-12.5,2.5-21.2,5.2c-6.7,2.1-12,4.7-15,6.3c0,0-3.2,1.7-5.6,4
		l1.9,3.5c0,0,2.8-1.9,5.6-3.4c2.5,5,6,11.2,6,11.2l0.1,0.2c0.2,0.3,0.4,0.6,0.6,0.9c1.6,2.4,2.8,3.7,5.5,3.7
		c2.7,0,8.7-1.3,14.6-3.1c2.2-0.7,4.5-1.7,6.9-3c3.4-1.9,6.3-4.1,7.3-5.5c1.3-2,1-5.8,0.8-8.3l-0.1-0.7c-0.1-0.8-0.2-1.7-0.3-2.6
		c-0.1-1.2-0.3-2.5-0.2-3c0-0.1,0.1-0.4,0.9-0.8c0.4-0.2,0.8-0.4,1.3-0.5c0.1,0,0.3,0,0.4-0.1c0.9-0.1,1.1,0.1,1.2,0.2
		c0.4,0.3,1,1.5,1.5,2.5c0.4,0.8,0.8,1.5,1.3,2.3l0.4,0.6c1.3,2.1,3.2,5.4,5.4,6.3c1.5,0.6,5.2,0.7,9.1,0.3c2.6-0.3,5.1-0.8,7.3-1.5
		c5.8-1.8,11.5-4.2,13.7-5.8c2.3-1.6,2.5-3.4,2.4-6.2c0-0.4,0-0.7,0-1.1L1240.4-235z M1192.7-220.3c-0.5,2.4-0.7,3.1-4.3,5.2
		c-0.2,0.1-0.3,0.2-0.5,0.3c-3.9,2.1-11.4,5-15.9,5.8l-0.3,0.1c-4.6,0.8-6.2,1-7.2-0.2c-1.3-1.6-5.5-9.5-6.3-11.3
		c-0.6-1.3,0.5-2.4,0.8-2.6c0.2-0.1,0.5-0.3,1-0.6c2.8-1.6,9.3-4.4,12.4-5.5c4-1.3,14.1-3.5,16.6-3.3c1.9,0.1,2,0.8,2.4,2.1l0,0.1
		C1191.8-229.1,1193.2-222.8,1192.7-220.3z M1237.2-232.2c-0.1,1.5-1.6,2.3-5.8,4.3l-0.3,0.1c-4.1,2-11.9,3.9-16.3,4.4
		c-0.2,0-0.4,0-0.5,0.1c-4.1,0.4-4.7,0-6.5-1.7c-1.9-1.8-4.3-7.8-4.8-9l0-0.1c-0.5-1.3-0.7-1.9,0.7-3.1c2-1.6,11.5-5.6,15.5-6.8
		c3.2-1,10.1-2.3,13.3-2.7c0.5-0.1,0.9-0.1,1.1-0.1c0.4,0,1.9,0.3,2.2,1.7C1236.3-243.2,1237.4-234.2,1237.2-232.2z"/>
	<path fill="#A1D4E9" d="M1208.6-251.2c0,0,4.9-2.8,8.4-0.5c0,0,0.3-3.8-4.2-3.5C1208.3-254.8,1208.6-251.2,1208.6-251.2z"/>
	<path fill="#A1D4E9" d="M1207.4-259.3c0,0,5.6-4.2,9.9-0.7c0,0,0.2-3.3-4.4-3.5C1208.5-263.7,1207.4-259.3,1207.4-259.3z"/>
	<path fill="#B2DEEF" d="M1194.9-191.5c0,0,5,2.3,7.2,2.7c0,0,3.4-4.4,5.8-5.7c0,0,2.4,5.3,5.9,7.2c0,0,3.8-6.8,9.2-9.1
		c0,0,2.4,2.6,5.1,2.9l-0.1,5c0,0-3.7-1.4-5.1-2.7c0,0-6.2,8.5-5.3,11.8c0,0-7.8-3.7-11.3-7.4c0,0-3.5,2.6-4.3,3.7
		C1202-183,1197.1-187.1,1194.9-191.5z"/>
	<path fill="#85C1CE" d="M1148.1-147.9c0,0,8.2,16.4,7.8,23.8c0,0-8.2-0.2-15.3-6.1c0,0,11,10.8,20.9,9.4
		C1161.5-120.8,1159.5-136.8,1148.1-147.9z"/>
	<path fill="#5C5B5D" d="M1129.4-282.3c-0.6,0.3-2.5,1.1-2.5,1.1c-17.2,8.5-35.8,0.2-35.8,0.2s3.2,11.2,14.8,17.4
		c11.6,6.2,27.8,1.4,27.8,1.4c1.4,2,2.3,7.3,2.3,7.3s2.5-6.9-0.3-16.9C1133.7-278.8,1129.7-282.5,1129.4-282.3"/>
	<path fill="#747F83" d="M1129.4-282.3c-0.6,0.3-2.5,1.1-2.5,1.1c-17.2,8.5-35.8,0.2-35.8,0.2s17.7,20.1,44,7.1
		C1135-273.9,1133.9-278.5,1129.4-282.3"/>
	<path fill="#CDEAF5" d="M1159.2-77.4l-1.8,0.1c-1.4-20.2,17.2-20,17.2-20c-16.7,5.1-14.5,19.9-14.5,19.9L1159.2-77.4z"/>
	<path fill="#CDEAF5" d="M1189.1-104c-1.2-4.2-1.9-15.3-1.9-15.3l-10.6-6.4c0,6.5,2.4,19.8,2.4,19.8c-7.1,0.3-25.4,6.4-25.4,6.4
		c1.1-0.2,2.9,0.7,2.9,0.7c-4.2,1.8-9.1,8.5-9.1,8.5c0.6-0.3,2.6-1.2,2.6-1.2c-1.8,1.7-3,7.8-3,9.2c0,1.4-0.8,3.8-0.8,3.8l3.9-0.7
		c0.9-0.1,1.7-0.2,2.6-0.2c-0.2-2-1.3-13.3,12.7-19.7c0,0-0.1,0-0.3,0.1C1173.5-103.1,1189.1-104,1189.1-104z"/>
	<path fill="#ACDBE3" d="M1221.4-116.7c0,0-21.2-2.2-41-16.1c0,0,13.9,13.8,25.1,17.4c11.1,3.6,14.8,16.6,14.8,16.6
		S1220.2-110.4,1221.4-116.7z"/>
	<g>
		<rect x="1218.8" y="-375.4" fill="#333333" width="403.5" height="19"/>
		<rect x="1218.8" y="-356.4" fill="#0B4F69" width="403.5" height="56.5"/>
		<rect x="1218.8" y="-300" fill="#FFFFFF" width="403.5" height="232.9"/>
		<g>
			<rect x="1238.3" y="-278.6" fill="#F3F3F3" width="76.6" height="53.3"/>
			<rect x="1238.4" y="-239" fill="#E6E6E5" width="76.6" height="13.7"/>
		</g>
		<g>
			<rect x="1331.2" y="-278.6" fill="#0B4F69" width="51.1" height="7.6"/>
			<rect x="1331.2" y="-263.2" fill="#E6E6E5" width="149.6" height="6.8"/>
		</g>
		<g>
			<rect x="1238.4" y="-205.4" fill="#F3F3F3" width="76.6" height="53.3"/>
			<rect x="1238.5" y="-165.8" fill="#E6E6E5" width="76.6" height="13.7"/>
		</g>
		<g>
			<rect x="1238.5" y="-137" fill="#F3F3F3" width="76.6" height="53.3"/>
			<rect x="1238.7" y="-97.4" fill="#E6E6E5" width="76.6" height="13.7"/>
		</g>
		<g>
			<rect x="1518" y="-275.3" fill="#E6E6E5" width="74.8" height="2.9"/>
			<rect x="1518" y="-267.2" fill="#E6E6E5" width="60.6" height="2.9"/>
			<rect x="1518.5" y="-259" fill="#E6E6E5" width="74.8" height="2.9"/>
			<rect x="1518.5" y="-250.9" fill="#E6E6E5" width="74.8" height="2.9"/>
			<rect x="1518.5" y="-242.7" fill="#E6E6E5" width="60.1" height="2.9"/>
			<rect x="1518.5" y="-234.6" fill="#E6E6E5" width="74.8" height="2.9"/>
			<rect x="1518.9" y="-226.4" fill="#E6E6E5" width="74.8" height="2.9"/>
			<rect x="1518.9" y="-218.3" fill="#E6E6E5" width="50.2" height="2.9"/>
		</g>
		<g>
			<rect x="1331.2" y="-205.4" fill="#0B4F69" width="68.5" height="7.6"/>
			<rect x="1331.2" y="-189.9" fill="#E6E6E5" width="130.8" height="6.8"/>
		</g>
		<g>
			<rect x="1331.2" y="-137" fill="#0B4F69" width="39.3" height="7.6"/>
			<rect x="1331.2" y="-121.6" fill="#E6E6E5" width="106.5" height="6.8"/>
		</g>
		<g>
			<g>
				<path fill="#FFFFFF" d="M1240-319.8v-13.1h9.3v2.5h-6.5v2.7h6.3v2.5h-6.3v5.4L1240-319.8L1240-319.8z"/>
				<path fill="#FFFFFF" d="M1250.5-324.6c0-2.7,1.9-5,5-5c3.1,0,5,2.3,5,5s-1.9,5-5,5C1252.4-319.6,1250.5-321.9,1250.5-324.6z
					 M1257.9-324.6c0-1.5-0.9-2.7-2.4-2.7c-1.6,0-2.4,1.3-2.4,2.7c0,1.5,0.9,2.8,2.4,2.8C1257.1-321.8,1257.9-323.1,1257.9-324.6z"
					/>
				<path fill="#FFFFFF" d="M1268.8-319.8v-1.2c-0.6,0.7-1.8,1.4-3.3,1.4c-2.1,0-3.1-1.1-3.1-3v-6.7h2.5v5.8c0,1.3,0.7,1.7,1.7,1.7
					c1,0,1.7-0.5,2.2-1.1v-6.4h2.5v9.5H1268.8z"/>
				<path fill="#FFFFFF" d="M1280.2-319.8v-5.7c0-1.3-0.7-1.8-1.7-1.8c-1,0-1.7,0.5-2.2,1.1v6.4h-2.5v-9.5h2.5v1.2
					c0.6-0.7,1.8-1.5,3.3-1.5c2.1,0,3.1,1.2,3.1,3v6.7L1280.2-319.8L1280.2-319.8z"/>
				<path fill="#FFFFFF" d="M1291.6-319.8v-1.2c-0.7,0.9-1.8,1.5-2.9,1.5c-2.4,0-4.2-1.8-4.2-5c0-3.1,1.8-5,4.2-5
					c1.1,0,2.2,0.5,2.9,1.5v-4.8h2.5v13.1H1291.6z M1291.6-322.9v-3.4c-0.4-0.6-1.3-1.1-2.1-1.1c-1.4,0-2.4,1.1-2.4,2.7
					c0,1.6,1,2.8,2.4,2.8C1290.3-321.8,1291.2-322.2,1291.6-322.9z"/>
				<path fill="#FFFFFF" d="M1302.3-319.8v-1c-0.6,0.8-1.8,1.2-3,1.2c-1.5,0-3.3-1-3.3-3.1c0-2.2,1.8-3.1,3.3-3.1
					c1.3,0,2.4,0.4,3,1.2v-1.2c0-1-0.8-1.6-2.1-1.6c-1,0-1.9,0.4-2.7,1.1l-1-1.7c1.2-1,2.6-1.5,4.1-1.5c2.2,0,4.2,0.9,4.2,3.6v6.1
					H1302.3L1302.3-319.8z M1302.3-322.1v-1.2c-0.4-0.5-1.2-0.8-2-0.8c-1,0-1.8,0.5-1.8,1.4c0,0.9,0.8,1.4,1.8,1.4
					C1301.1-321.3,1301.9-321.5,1302.3-322.1z"/>
				<path fill="#FFFFFF" d="M1307.8-322.2v-4.9h-1.6v-2.2h1.6v-2.6h2.5v2.6h1.9v2.2h-1.9v4.3c0,0.6,0.3,1.1,0.9,1.1
					c0.4,0,0.7-0.1,0.9-0.3l0.5,1.9c-0.4,0.3-1,0.6-2.1,0.6C1308.7-319.6,1307.8-320.5,1307.8-322.2z"/>
				<path fill="#FFFFFF" d="M1313.7-331.8c0-0.8,0.7-1.5,1.5-1.5c0.8,0,1.5,0.6,1.5,1.5c0,0.8-0.7,1.5-1.5,1.5
					C1314.4-330.3,1313.7-331,1313.7-331.8z M1313.9-319.8v-9.5h2.5v9.5H1313.9z"/>
				<path fill="#FFFFFF" d="M1318.3-324.6c0-2.7,1.9-5,5-5c3.1,0,5,2.3,5,5s-1.9,5-5,5C1320.2-319.6,1318.3-321.9,1318.3-324.6z
					 M1325.7-324.6c0-1.5-0.9-2.7-2.4-2.7c-1.6,0-2.4,1.3-2.4,2.7c0,1.5,0.9,2.8,2.4,2.8C1324.9-321.8,1325.7-323.1,1325.7-324.6z"
					/>
				<path fill="#FFFFFF" d="M1336.6-319.8v-5.7c0-1.3-0.7-1.8-1.7-1.8c-1,0-1.7,0.5-2.2,1.1v6.4h-2.5v-9.5h2.5v1.2
					c0.6-0.7,1.8-1.5,3.3-1.5c2.1,0,3.1,1.2,3.1,3v6.7L1336.6-319.8L1336.6-319.8z"/>
				<path fill="#FFFFFF" d="M1346.7-319.8v-13.1h9.3v2.5h-6.5v2.7h6.3v2.5h-6.3v5.4L1346.7-319.8L1346.7-319.8z"/>
				<path fill="#FFFFFF" d="M1357.2-324.6c0-2.7,1.9-5,5-5c3.1,0,5,2.3,5,5s-1.9,5-5,5C1359.1-319.6,1357.2-321.9,1357.2-324.6z
					 M1364.6-324.6c0-1.5-0.9-2.7-2.4-2.7c-1.6,0-2.4,1.3-2.4,2.7c0,1.5,0.9,2.8,2.4,2.8C1363.8-321.8,1364.6-323.1,1364.6-324.6z"
					/>
				<path fill="#FFFFFF" d="M1369.1-319.8v-9.5h2.5v1.3c0.7-0.8,1.8-1.5,3-1.5v2.4c-0.2,0-0.4-0.1-0.7-0.1c-0.8,0-1.9,0.5-2.3,1.1
					v6.3L1369.1-319.8L1369.1-319.8z"/>
				<path fill="#FFFFFF" d="M1382.6-319.8v-1.2c-0.6,0.7-1.8,1.4-3.3,1.4c-2.1,0-3.1-1.1-3.1-3v-6.7h2.5v5.8c0,1.3,0.7,1.7,1.7,1.7
					c1,0,1.7-0.5,2.2-1.1v-6.4h2.5v9.5H1382.6z"/>
				<path fill="#FFFFFF" d="M1399.3-319.8v-6c0-0.9-0.4-1.5-1.4-1.5c-0.9,0-1.6,0.6-2,1.1v6.4h-2.5v-6c0-0.9-0.4-1.5-1.4-1.5
					c-0.9,0-1.6,0.6-2,1.1v6.4h-2.5v-9.5h2.5v1.2c0.4-0.5,1.6-1.5,3.1-1.5c1.4,0,2.3,0.6,2.6,1.7c0.5-0.8,1.8-1.7,3.3-1.7
					c1.7,0,2.8,0.9,2.8,2.9v6.9L1399.3-319.8L1399.3-319.8L1399.3-319.8z"/>
			</g>
			<g>
				<rect x="1473.5" y="-334" fill="#09313A" width="30.3" height="12.2"/>
				<rect x="1481.1" y="-329.3" fill="#E6E6E5" width="15.2" height="2.9"/>
			</g>
			<rect x="1512.5" y="-329.8" fill="#E6E6E5" width="15.2" height="2.9"/>
			<rect x="1543.7" y="-329.8" fill="#E6E6E5" width="15.2" height="2.9"/>
			<rect x="1574.8" y="-329.8" fill="#E6E6E5" width="15.2" height="2.9"/>
		</g>
	</g>
	<g>
		<path fill="#CDEAF5" d="M1219.6-317.2c0,0-13.7,10.9-8.1,18.8s-5.6,18.1,0,23.9c5.6,5.8-1.4,20.7,12.1,31.6
			c0,0,9.3-10.2,11.4-19.7l-4.2-0.5c0,0,14.2-5.3,23.7-15.6c0,0-11.4-2.6-20.9-2.6c0,0,14.9-7.7,22-6.5c0,0-2.1-8.8-11.4-10.9
			c0,0,9.1-10.4-3.9-14.9C1227.2-317.9,1222.4-319,1219.6-317.2z"/>
		<path fill="#EAF7FE" d="M1224.5-322c0,0-13.7,10.9-8.1,18.8s-5.6,18.1,0,23.9s-1.4,20.7,12.1,31.6c0,0,9.3-10.2,11.4-19.7
			l-4.2-0.5c0,0,14.2-5.3,23.7-15.6c0,0-11.4-2.6-20.9-2.6c0,0,14.9-7.7,22-6.5c0,0-2.1-8.8-11.4-10.9c0,0,9.1-10.4-3.9-14.9
			C1232.1-322.7,1227.2-323.9,1224.5-322z"/>
		<path fill="#CDEAF5" d="M1258.6-286.3c0,0-11.4-7.8-28.8,6.8c0,0,3.2-0.5,6.7-0.3C1236.6-279.8,1252.8-287.6,1258.6-286.3z"/>
		<path fill="#CDEAF5" d="M1247.3-297.2c0,0-10.1-1.4-15.5-0.2c0,0,6.1-8,17.8-3.5C1249.5-300.8,1248.5-298.1,1247.3-297.2z"/>
		<path fill="#CDEAF5" d="M1257.5-277.2c0,0-25,10.7-30.6,15.6c0,0,2.7-0.5,6.9,0C1233.8-261.7,1251-268.4,1257.5-277.2z"/>
		<path fill="#CDEAF5" d="M1237.2-258.7c0,0-8.5,11-13.8,14.3c0,0,1.5,2.3,3.2,3C1226.6-241.5,1235.6-252,1237.2-258.7z"/>
	</g>
</g>
<g>
	<g>
		<line fill="none" stroke="#D1D3D4" stroke-width="1.5" stroke-miterlimit="10" x1="218.4" y1="80.3" x2="111.4" y2="80.3"/>
		<g>
			<polygon fill="#D1D3D4" points="217.3,76.5 223.8,80.3 217.3,84 			"/>
		</g>
	</g>
</g>
<g display="none">
	<g display="inline">
		<path fill="none" stroke="#0B4F69" stroke-width="3" stroke-miterlimit="10" d="M747.2,51c-28.9-23.3-91.3-39.4-163.7-39.4
			c-99.9,0-180.9,30.8-180.9,68.7c0,37.9,81,68.7,180.9,68.7c72.3,0,134.7-16.1,163.7-39.4"/>
		<g>
			<polygon fill="#0B4F69" points="749.8,45.4 753.5,56.8 741.8,54.4 			"/>
		</g>
		<g>
			<polygon fill="#0B4F69" points="749.8,115.1 753.5,103.7 741.8,106.2 			"/>
		</g>
	</g>
</g>
<g>
	<g>
		<circle fill="#0B4F69" cx="315.2" cy="80.3" r="80.1"/>
		<g opacity="0.5" enable-background="new    ">
			<g>
				<g>
					<defs>
						<circle id="SVGID_7_" cx="315" cy="80.1" r="80.1"/>
					</defs>
					<clipPath id="SVGID_8_">
						<use xlink:href="#SVGID_7_"  overflow="visible"/>
					</clipPath>
					<g clip-path="url(#SVGID_8_)">
						<g>
							<line fill="none" stroke="#FFFFFF" stroke-width="0.5" stroke-miterlimit="10" x1="374.8" y1="219" x2="374.8" y2="-49.6"/>
							<line fill="none" stroke="#FFFFFF" stroke-width="0.5" stroke-miterlimit="10" x1="364" y1="219" x2="364" y2="-49.6"/>
							
								<line fill="none" stroke="#FFFFFF" stroke-width="0.5" stroke-miterlimit="10" x1="385.7" y1="218.8" x2="385.7" y2="-49.8"/>
							<line fill="none" stroke="#FFFFFF" stroke-width="0.5" stroke-miterlimit="10" x1="396.6" y1="219" x2="396.6" y2="-49.6"/>
							<line fill="none" stroke="#FFFFFF" stroke-width="0.5" stroke-miterlimit="10" x1="331.4" y1="219" x2="331.4" y2="-49.6"/>
							<line fill="none" stroke="#FFFFFF" stroke-width="0.5" stroke-miterlimit="10" x1="320.5" y1="219" x2="320.5" y2="-49.6"/>
							
								<line fill="none" stroke="#FFFFFF" stroke-width="0.5" stroke-miterlimit="10" x1="342.3" y1="218.8" x2="342.3" y2="-49.8"/>
							<line fill="none" stroke="#FFFFFF" stroke-width="0.5" stroke-miterlimit="10" x1="353.1" y1="219" x2="353.1" y2="-49.6"/>
							
								<line fill="none" stroke="#FFFFFF" stroke-width="0.5" stroke-miterlimit="10" x1="288.2" y1="219.2" x2="288.2" y2="-49.4"/>
							
								<line fill="none" stroke="#FFFFFF" stroke-width="0.5" stroke-miterlimit="10" x1="277.3" y1="219.2" x2="277.3" y2="-49.4"/>
							<line fill="none" stroke="#FFFFFF" stroke-width="0.5" stroke-miterlimit="10" x1="299" y1="218.9" x2="299" y2="-49.7"/>
							
								<line fill="none" stroke="#FFFFFF" stroke-width="0.5" stroke-miterlimit="10" x1="309.9" y1="219.2" x2="309.9" y2="-49.4"/>
							
								<line fill="none" stroke="#FFFFFF" stroke-width="0.5" stroke-miterlimit="10" x1="244.7" y1="219.2" x2="244.7" y2="-49.4"/>
							
								<line fill="none" stroke="#FFFFFF" stroke-width="0.5" stroke-miterlimit="10" x1="233.8" y1="219.2" x2="233.8" y2="-49.4"/>
							
								<line fill="none" stroke="#FFFFFF" stroke-width="0.5" stroke-miterlimit="10" x1="255.6" y1="218.9" x2="255.6" y2="-49.7"/>
							
								<line fill="none" stroke="#FFFFFF" stroke-width="0.5" stroke-miterlimit="10" x1="266.4" y1="219.2" x2="266.4" y2="-49.4"/>
						</g>
						<g>
							
								<line fill="none" stroke="#FFFFFF" stroke-width="0.5" stroke-miterlimit="10" x1="186.2" y1="139.7" x2="454.8" y2="139.7"/>
							
								<line fill="none" stroke="#FFFFFF" stroke-width="0.5" stroke-miterlimit="10" x1="186.2" y1="128.8" x2="454.8" y2="128.8"/>
							<line fill="none" stroke="#FFFFFF" stroke-width="0.5" stroke-miterlimit="10" x1="186.4" y1="150.5" x2="455" y2="150.5"/>
							
								<line fill="none" stroke="#FFFFFF" stroke-width="0.5" stroke-miterlimit="10" x1="186.2" y1="161.4" x2="454.8" y2="161.4"/>
							<line fill="none" stroke="#FFFFFF" stroke-width="0.5" stroke-miterlimit="10" x1="186.2" y1="96.2" x2="454.8" y2="96.2"/>
							<line fill="none" stroke="#FFFFFF" stroke-width="0.5" stroke-miterlimit="10" x1="186.2" y1="85.3" x2="454.8" y2="85.3"/>
							<line fill="none" stroke="#FFFFFF" stroke-width="0.5" stroke-miterlimit="10" x1="186.4" y1="107.1" x2="455" y2="107.1"/>
							
								<line fill="none" stroke="#FFFFFF" stroke-width="0.5" stroke-miterlimit="10" x1="186.2" y1="117.9" x2="454.8" y2="117.9"/>
							<line fill="none" stroke="#FFFFFF" stroke-width="0.5" stroke-miterlimit="10" x1="186" y1="53" x2="454.6" y2="53"/>
							<line fill="none" stroke="#FFFFFF" stroke-width="0.5" stroke-miterlimit="10" x1="186" y1="42.1" x2="454.6" y2="42.1"/>
							<line fill="none" stroke="#FFFFFF" stroke-width="0.5" stroke-miterlimit="10" x1="186.3" y1="63.8" x2="454.9" y2="63.8"/>
							<line fill="none" stroke="#FFFFFF" stroke-width="0.5" stroke-miterlimit="10" x1="186" y1="74.7" x2="454.6" y2="74.7"/>
							<line fill="none" stroke="#FFFFFF" stroke-width="0.5" stroke-miterlimit="10" x1="186" y1="9.5" x2="454.6" y2="9.5"/>
							<line fill="none" stroke="#FFFFFF" stroke-width="0.5" stroke-miterlimit="10" x1="186" y1="-1.3" x2="454.6" y2="-1.3"/>
							<line fill="none" stroke="#FFFFFF" stroke-width="0.5" stroke-miterlimit="10" x1="186.3" y1="20.4" x2="454.9" y2="20.4"/>
							<line fill="none" stroke="#FFFFFF" stroke-width="0.5" stroke-miterlimit="10" x1="186" y1="31.2" x2="454.6" y2="31.2"/>
						</g>
					</g>
				</g>
			</g>
		</g>
	</g>
</g>
<g>
	<g>
		<polygon fill="none" stroke="#FFFFFF" stroke-width="2" stroke-linejoin="round" stroke-miterlimit="10" points="337.2,50.1 
			293.2,50.1 299.8,39.4 330.6,39.4 		"/>
		<polygon fill="none" stroke="#FFFFFF" stroke-width="2" stroke-linejoin="round" stroke-miterlimit="10" points="337.2,50.1 
			293.2,50.1 315.2,77.8 		"/>
		<polyline fill="none" stroke="#FFFFFF" stroke-width="2" stroke-linejoin="round" stroke-miterlimit="10" points="299.8,39.4 
			306.3,50.1 315.2,39.4 323.7,50.1 330.5,39.4 		"/>
		<polyline fill="none" stroke="#FFFFFF" stroke-width="2" stroke-linejoin="round" stroke-miterlimit="10" points="306.3,50.1 
			315.2,77.8 323.7,50.1 		"/>
	</g>
	
		<line fill="none" stroke="#FFFFFF" stroke-width="2" stroke-linejoin="round" stroke-miterlimit="10" x1="277.3" y1="50.1" x2="285.5" y2="50.1"/>
	
		<line fill="none" stroke="#FFFFFF" stroke-width="2" stroke-linejoin="round" stroke-miterlimit="10" x1="280.8" y1="40.6" x2="287.5" y2="46.2"/>
	
		<line fill="none" stroke="#FFFFFF" stroke-width="2" stroke-linejoin="round" stroke-miterlimit="10" x1="280.8" y1="59.6" x2="287.4" y2="54.1"/>
	
		<line fill="none" stroke="#FFFFFF" stroke-width="2" stroke-linejoin="round" stroke-miterlimit="10" x1="353.1" y1="50.1" x2="344.9" y2="50.1"/>
	
		<line fill="none" stroke="#FFFFFF" stroke-width="2" stroke-linejoin="round" stroke-miterlimit="10" x1="349.6" y1="40.6" x2="342.9" y2="46.2"/>
	
		<line fill="none" stroke="#FFFFFF" stroke-width="2" stroke-linejoin="round" stroke-miterlimit="10" x1="349.6" y1="59.6" x2="343" y2="54.1"/>
</g>
<g>
	<g>
		<path fill="#FFFFFF" d="M285.2,94.1v12.9h-1.7V94.1H285.2z"/>
		<path fill="#FFFFFF" d="M289.3,104.8c0.1,0.2,0.3,0.4,0.6,0.6c0.2,0.1,0.5,0.2,0.8,0.3c0.3,0.1,0.6,0.1,0.9,0.1
			c0.2,0,0.5,0,0.8-0.1s0.5-0.1,0.7-0.2c0.2-0.1,0.4-0.2,0.5-0.4s0.2-0.4,0.2-0.7c0-0.4-0.2-0.7-0.5-0.9s-0.7-0.4-1.1-0.5
			c-0.4-0.1-0.9-0.2-1.5-0.3s-1-0.2-1.5-0.4s-0.8-0.4-1.1-0.8c-0.3-0.3-0.5-0.8-0.5-1.4c0-0.5,0.1-0.9,0.3-1.2s0.5-0.6,0.8-0.8
			s0.7-0.4,1.1-0.5c0.4-0.1,0.8-0.2,1.2-0.2c0.5,0,1,0,1.5,0.1c0.4,0.1,0.8,0.2,1.2,0.5s0.6,0.5,0.8,0.9s0.3,0.8,0.4,1.4h-1.5
			c0-0.3-0.1-0.5-0.2-0.7c-0.1-0.2-0.3-0.4-0.5-0.5c-0.2-0.1-0.4-0.2-0.7-0.3c-0.2-0.1-0.5-0.1-0.7-0.1c-0.2,0-0.5,0-0.7,0.1
			c-0.2,0-0.4,0.1-0.6,0.2c-0.2,0.1-0.3,0.2-0.5,0.4s-0.2,0.3-0.2,0.6c0,0.3,0.1,0.5,0.3,0.7c0.2,0.2,0.4,0.3,0.7,0.4
			c0.3,0.1,0.6,0.2,1,0.3s0.7,0.2,1.1,0.2c0.4,0.1,0.8,0.2,1.1,0.3c0.4,0.1,0.7,0.3,1,0.5c0.3,0.2,0.5,0.4,0.7,0.7
			c0.2,0.3,0.3,0.7,0.3,1.1c0,0.6-0.1,1-0.4,1.4c-0.2,0.4-0.5,0.7-0.9,0.9c-0.4,0.2-0.8,0.4-1.3,0.5c-0.5,0.1-0.9,0.1-1.4,0.1
			c-0.5,0-1-0.1-1.5-0.2c-0.5-0.1-0.9-0.3-1.2-0.5c-0.4-0.2-0.6-0.6-0.9-1c-0.2-0.4-0.3-0.9-0.4-1.5h1.5
			C289.1,104.3,289.2,104.6,289.3,104.8z"/>
		<path fill="#FFFFFF" d="M309.2,94.1c1.2,0,2.2,0.3,2.9,0.9c0.7,0.6,1,1.4,1,2.5c0,0.8-0.2,1.5-0.5,2.1c-0.4,0.6-0.9,1-1.7,1.2v0
			c0.4,0.1,0.7,0.2,0.9,0.4c0.2,0.2,0.4,0.4,0.6,0.6s0.2,0.5,0.3,0.8c0.1,0.3,0.1,0.6,0.2,0.9c0,0.3,0,0.6,0.1,1c0,0.3,0,0.6,0.1,1
			c0,0.3,0.1,0.6,0.2,0.9c0.1,0.3,0.2,0.5,0.4,0.7h-1.9c-0.1-0.1-0.2-0.3-0.2-0.5c0-0.2-0.1-0.5-0.1-0.8c0-0.3,0-0.6,0-0.9
			c0-0.3,0-0.6-0.1-1c0-0.3-0.1-0.6-0.2-0.9c-0.1-0.3-0.2-0.5-0.3-0.7c-0.2-0.2-0.4-0.4-0.6-0.5s-0.6-0.2-1-0.2h-4.2v5.5h-1.7V94.1
			H309.2z M309.6,99.9c0.4-0.1,0.7-0.2,0.9-0.4c0.3-0.2,0.5-0.4,0.6-0.7c0.2-0.3,0.2-0.7,0.2-1.1c0-0.6-0.2-1.2-0.5-1.6
			c-0.4-0.4-0.9-0.6-1.7-0.6h-4.2v4.5h3.6C308.8,100,309.2,100,309.6,99.9z"/>
		<path fill="#FFFFFF" d="M321.8,106.9v-1.5h0c-0.3,0.6-0.7,1-1.2,1.3s-1.1,0.4-1.8,0.4c-0.6,0-1.1-0.1-1.5-0.2
			c-0.4-0.2-0.7-0.4-1-0.7s-0.4-0.7-0.5-1.1c-0.1-0.4-0.2-0.9-0.2-1.4v-6.1h1.5v6.3c0,0.6,0.2,1,0.5,1.4c0.3,0.3,0.8,0.5,1.4,0.5
			c0.5,0,0.9-0.1,1.2-0.2s0.6-0.3,0.9-0.6c0.2-0.3,0.4-0.6,0.5-0.9c0.1-0.4,0.2-0.7,0.2-1.2v-5.3h1.5v9.3H321.8z"/>
		<path fill="#FFFFFF" d="M327.5,94.1v4.8h0c0.3-0.5,0.6-0.9,1.2-1.1s1.1-0.4,1.8-0.4c0.7,0,1.3,0.1,1.9,0.4c0.5,0.3,1,0.6,1.3,1.1
			c0.4,0.5,0.6,1,0.8,1.6c0.2,0.6,0.3,1.2,0.3,1.9c0,0.7-0.1,1.3-0.3,1.9s-0.4,1.1-0.8,1.5c-0.4,0.4-0.8,0.8-1.3,1s-1.2,0.4-1.9,0.4
			c-0.2,0-0.5,0-0.8-0.1s-0.6-0.1-0.8-0.2s-0.5-0.3-0.8-0.4s-0.5-0.4-0.6-0.7h0v1.2H326V94.1H327.5z M333,100.9
			c-0.1-0.4-0.3-0.8-0.5-1.1c-0.2-0.3-0.5-0.6-0.9-0.8c-0.4-0.2-0.8-0.3-1.3-0.3c-0.5,0-1,0.1-1.3,0.3c-0.4,0.2-0.7,0.5-0.9,0.8
			c-0.2,0.3-0.4,0.7-0.5,1.1c-0.1,0.4-0.2,0.8-0.2,1.3c0,0.5,0.1,0.9,0.2,1.3c0.1,0.4,0.3,0.8,0.5,1.1c0.2,0.3,0.5,0.6,0.9,0.8
			c0.4,0.2,0.8,0.3,1.4,0.3c0.5,0,1-0.1,1.3-0.3c0.4-0.2,0.6-0.5,0.9-0.8s0.4-0.7,0.5-1.2c0.1-0.4,0.1-0.9,0.1-1.3
			C333.2,101.8,333.1,101.3,333,100.9z"/>
		<path fill="#FFFFFF" d="M340.1,109.3c-0.2,0.3-0.4,0.6-0.6,0.8c-0.2,0.2-0.4,0.3-0.7,0.4c-0.3,0.1-0.6,0.1-0.9,0.1
			c-0.2,0-0.4,0-0.5,0c-0.2,0-0.4-0.1-0.5-0.1v-1.4c0.1,0,0.3,0.1,0.4,0.1c0.1,0,0.3,0.1,0.5,0.1c0.3,0,0.6-0.1,0.8-0.2
			c0.2-0.1,0.4-0.4,0.5-0.6l0.6-1.6l-3.7-9.3h1.7l2.7,7.6h0l2.6-7.6h1.6l-4.1,10.5C340.5,108.6,340.3,109,340.1,109.3z"/>
		<path fill="#FFFFFF" d="M279,113.1v12.9h-1.7v-12.9H279z"/>
		<path fill="#FFFFFF" d="M283.4,116.6v1.5h0c0.6-1.1,1.6-1.7,3-1.7c0.6,0,1.1,0.1,1.5,0.3s0.7,0.4,1,0.7s0.4,0.7,0.5,1.1
			c0.1,0.4,0.2,0.9,0.2,1.4v6.1h-1.5v-6.3c0-0.6-0.2-1-0.5-1.4s-0.8-0.5-1.4-0.5c-0.5,0-0.9,0.1-1.2,0.2c-0.3,0.1-0.6,0.3-0.9,0.6
			c-0.2,0.3-0.4,0.6-0.5,0.9c-0.1,0.4-0.2,0.7-0.2,1.2v5.3H282v-9.3H283.4z"/>
		<path fill="#FFFFFF" d="M293.5,123.8c0.1,0.2,0.3,0.4,0.6,0.6c0.2,0.1,0.5,0.2,0.8,0.3c0.3,0.1,0.6,0.1,0.9,0.1
			c0.2,0,0.5,0,0.8-0.1s0.5-0.1,0.7-0.2c0.2-0.1,0.4-0.2,0.5-0.4s0.2-0.4,0.2-0.7c0-0.4-0.2-0.7-0.5-0.9s-0.7-0.4-1.1-0.5
			c-0.4-0.1-0.9-0.2-1.5-0.3s-1-0.2-1.5-0.4s-0.8-0.4-1.1-0.8c-0.3-0.3-0.5-0.8-0.5-1.4c0-0.5,0.1-0.9,0.3-1.2s0.5-0.6,0.8-0.8
			s0.7-0.4,1.1-0.5c0.4-0.1,0.8-0.2,1.2-0.2c0.5,0,1,0,1.5,0.1c0.4,0.1,0.8,0.2,1.2,0.5s0.6,0.5,0.8,0.9s0.3,0.8,0.4,1.4h-1.5
			c0-0.3-0.1-0.5-0.2-0.7c-0.1-0.2-0.3-0.4-0.5-0.5c-0.2-0.1-0.4-0.2-0.7-0.3c-0.2-0.1-0.5-0.1-0.7-0.1c-0.2,0-0.5,0-0.7,0.1
			c-0.2,0-0.4,0.1-0.6,0.2c-0.2,0.1-0.3,0.2-0.5,0.4s-0.2,0.3-0.2,0.6c0,0.3,0.1,0.5,0.3,0.7c0.2,0.2,0.4,0.3,0.7,0.4
			c0.3,0.1,0.6,0.2,1,0.3s0.7,0.2,1.1,0.2c0.4,0.1,0.8,0.2,1.1,0.3c0.4,0.1,0.7,0.3,1,0.5c0.3,0.2,0.5,0.4,0.7,0.7
			c0.2,0.3,0.3,0.7,0.3,1.1c0,0.6-0.1,1-0.4,1.4c-0.2,0.4-0.5,0.7-0.9,0.9c-0.4,0.2-0.8,0.4-1.3,0.5c-0.5,0.1-0.9,0.1-1.4,0.1
			c-0.5,0-1-0.1-1.5-0.2c-0.5-0.1-0.9-0.3-1.2-0.5c-0.4-0.2-0.6-0.6-0.9-1c-0.2-0.4-0.3-0.9-0.4-1.5h1.5
			C293.3,123.3,293.4,123.6,293.5,123.8z"/>
		<path fill="#FFFFFF" d="M305.7,116.6v1.4h-1.9v5.8c0,0.2,0,0.3,0,0.4c0,0.1,0.1,0.2,0.2,0.3c0.1,0.1,0.2,0.1,0.4,0.1s0.3,0,0.6,0
			h0.7v1.4h-1.2c-0.4,0-0.7,0-1-0.1c-0.3-0.1-0.5-0.2-0.7-0.3s-0.3-0.3-0.4-0.6c-0.1-0.3-0.1-0.6-0.1-1V118h-1.6v-1.4h1.6v-2.8h1.5
			v2.8H305.7z"/>
		<path fill="#FFFFFF" d="M314.9,126.1c-0.4,0-0.7-0.1-0.9-0.3c-0.2-0.2-0.4-0.6-0.4-1.1c-0.4,0.5-0.9,0.9-1.5,1.1
			c-0.6,0.2-1.2,0.3-1.8,0.3c-0.4,0-0.8,0-1.2-0.1s-0.7-0.2-1-0.5c-0.3-0.2-0.5-0.5-0.7-0.8s-0.2-0.7-0.2-1.2c0-0.5,0.1-1,0.3-1.3
			s0.4-0.6,0.7-0.8s0.6-0.4,1-0.5c0.4-0.1,0.8-0.2,1.2-0.3c0.4-0.1,0.8-0.1,1.2-0.2s0.7-0.1,1-0.2s0.5-0.2,0.7-0.3s0.3-0.4,0.3-0.7
			c0-0.3-0.1-0.6-0.2-0.8c-0.1-0.2-0.3-0.4-0.5-0.5s-0.4-0.2-0.7-0.2c-0.2,0-0.5-0.1-0.7-0.1c-0.6,0-1.2,0.1-1.6,0.4
			c-0.4,0.2-0.7,0.7-0.7,1.4h-1.5c0-0.6,0.1-1.1,0.4-1.5s0.5-0.7,0.9-1c0.4-0.2,0.8-0.4,1.2-0.5c0.5-0.1,1-0.2,1.5-0.2
			c0.4,0,0.8,0,1.3,0.1c0.4,0.1,0.8,0.2,1.1,0.4s0.6,0.4,0.8,0.8s0.3,0.8,0.3,1.3v4.8c0,0.4,0,0.6,0.1,0.8c0,0.2,0.2,0.3,0.4,0.3
			c0.1,0,0.3,0,0.5-0.1v1.2C315.7,126,315.3,126.1,314.9,126.1z M312.7,121.4c-0.3,0.1-0.6,0.1-1,0.2c-0.3,0-0.7,0.1-1,0.1
			c-0.3,0.1-0.7,0.1-0.9,0.3c-0.3,0.1-0.5,0.3-0.7,0.5c-0.2,0.2-0.3,0.5-0.3,0.9c0,0.3,0.1,0.5,0.2,0.6s0.2,0.3,0.4,0.4
			c0.2,0.1,0.4,0.2,0.6,0.2c0.2,0,0.4,0.1,0.7,0.1c0.5,0,0.9-0.1,1.3-0.2c0.4-0.1,0.7-0.3,0.9-0.5c0.2-0.2,0.4-0.4,0.5-0.7
			s0.2-0.5,0.2-0.7v-1.6C313.3,121.3,313,121.4,312.7,121.4z"/>
		<path fill="#FFFFFF" d="M319.4,113.1v12.9h-1.5v-12.9H319.4z"/>
		<path fill="#FFFFFF" d="M323.7,113.1v12.9h-1.5v-12.9H323.7z"/>
		<path fill="#FFFFFF" d="M333.1,125.3c-0.7,0.5-1.6,0.8-2.6,0.8c-0.7,0-1.4-0.1-1.9-0.4c-0.5-0.2-1-0.6-1.4-1s-0.7-0.9-0.8-1.5
			c-0.2-0.6-0.3-1.3-0.3-2c0-0.7,0.1-1.4,0.3-1.9c0.2-0.6,0.5-1.1,0.9-1.5c0.4-0.4,0.9-0.8,1.4-1c0.5-0.2,1.1-0.4,1.8-0.4
			c0.8,0,1.5,0.2,2.1,0.5c0.5,0.3,1,0.8,1.3,1.3c0.3,0.5,0.6,1.1,0.7,1.7c0.1,0.6,0.2,1.2,0.2,1.8h-7c0,0.4,0,0.8,0.1,1.2
			c0.1,0.4,0.3,0.7,0.5,1c0.2,0.3,0.5,0.5,0.9,0.7c0.4,0.2,0.8,0.3,1.3,0.3c0.6,0,1.2-0.1,1.6-0.5c0.4-0.3,0.7-0.8,0.8-1.4h1.5
			C334.2,124,333.8,124.8,333.1,125.3z M332.7,119.4c-0.1-0.3-0.3-0.6-0.6-0.8c-0.2-0.2-0.5-0.4-0.8-0.6c-0.3-0.1-0.7-0.2-1.1-0.2
			c-0.4,0-0.8,0.1-1.1,0.2c-0.3,0.1-0.6,0.3-0.8,0.6c-0.2,0.2-0.4,0.5-0.5,0.8c-0.1,0.3-0.2,0.7-0.2,1h5.3
			C332.9,120,332.8,119.7,332.7,119.4z"/>
		<path fill="#FFFFFF" d="M343.3,125.9v-1.3h0c-0.3,0.5-0.6,0.9-1.2,1.1c-0.5,0.2-1.1,0.3-1.8,0.3c-0.7,0-1.3-0.1-1.9-0.4
			c-0.5-0.3-1-0.6-1.3-1.1c-0.4-0.4-0.6-1-0.8-1.5c-0.2-0.6-0.3-1.2-0.3-1.9c0-0.7,0.1-1.3,0.3-1.9s0.4-1.1,0.8-1.5
			c0.4-0.4,0.8-0.8,1.3-1c0.5-0.3,1.2-0.4,1.9-0.4c0.2,0,0.5,0,0.8,0.1c0.3,0,0.6,0.1,0.8,0.2c0.3,0.1,0.5,0.3,0.8,0.5
			c0.2,0.2,0.5,0.4,0.6,0.7h0v-4.8h1.5v12.9H343.3z M337.8,122.6c0.1,0.4,0.3,0.8,0.5,1.1c0.2,0.3,0.5,0.6,0.9,0.8
			c0.4,0.2,0.8,0.3,1.3,0.3c0.5,0,1-0.1,1.3-0.3s0.7-0.5,0.9-0.8c0.2-0.3,0.4-0.7,0.5-1.1c0.1-0.4,0.2-0.8,0.2-1.3
			c0-0.5-0.1-0.9-0.2-1.3s-0.3-0.8-0.5-1.1c-0.2-0.3-0.5-0.6-0.9-0.8s-0.8-0.3-1.4-0.3c-0.5,0-1,0.1-1.3,0.3
			c-0.4,0.2-0.6,0.5-0.9,0.8c-0.2,0.3-0.4,0.7-0.5,1.2c-0.1,0.4-0.1,0.9-0.1,1.3C337.6,121.8,337.7,122.2,337.8,122.6z"/>
		<path fill="#FFFFFF" d="M347.6,115.4c0.2-0.5,0.5-1,0.8-1.4c0.3-0.4,0.8-0.7,1.3-0.9s1.1-0.3,1.7-0.3c0.6,0,1.1,0.1,1.5,0.2
			s0.9,0.4,1.2,0.7c0.3,0.3,0.6,0.7,0.8,1.1c0.2,0.4,0.3,1,0.3,1.5c0,0.4,0,0.7-0.1,1c-0.1,0.3-0.2,0.6-0.4,0.8s-0.3,0.5-0.5,0.7
			s-0.4,0.4-0.6,0.6c-0.2,0.2-0.4,0.4-0.6,0.5c-0.2,0.2-0.4,0.4-0.5,0.6c-0.2,0.2-0.3,0.4-0.4,0.7s-0.1,0.5-0.1,0.8v0.7h-1.5v-0.8
			c0-0.5,0.1-0.9,0.3-1.3c0.2-0.4,0.4-0.7,0.6-0.9c0.2-0.3,0.5-0.5,0.7-0.8s0.5-0.5,0.7-0.7c0.2-0.3,0.4-0.5,0.5-0.9
			s0.2-0.7,0.2-1.1c0-0.7-0.3-1.2-0.6-1.5c-0.4-0.4-0.9-0.6-1.5-0.6c-0.4,0-0.8,0.1-1.1,0.2c-0.3,0.2-0.6,0.4-0.8,0.6
			s-0.4,0.6-0.5,0.9c-0.1,0.4-0.1,0.8-0.1,1.2h-1.5C347.4,116.5,347.4,115.9,347.6,115.4z M352.3,123.9v2h-2v-2H352.3z"/>
	</g>
</g>
<g display="none">
	
		<polyline display="inline" fill="none" stroke="#0B4F69" stroke-width="3" stroke-miterlimit="10" stroke-dasharray="14,7" points="
		681.4,80.3 681.4,127.9 437.5,127.9 	"/>
	<g display="inline">
		<g>
			<line fill="none" stroke="#0B4F69" stroke-width="3" stroke-miterlimit="10" x1="441.9" y1="80.3" x2="751.8" y2="80.3"/>
			<g>
				<polygon fill="#0B4F69" points="750.1,86.2 760.5,80.3 750.1,74.3 				"/>
			</g>
		</g>
	</g>
	<g display="inline">
		<rect x="523.6" y="101.7" fill="#FFFFFF" width="59.8" height="52.5"/>
		<text transform="matrix(1 0 0 1 529.0929 121.4108)"><tspan x="0" y="0" fill="#0B4F69" font-family="'OpenSans-Semibold'" font-size="14">Libsass</tspan><tspan x="20.4" y="12" fill="#0B4F69" font-family="'OpenSans-Semibold'" font-size="14">+</tspan><tspan x="4.7" y="24" fill="#0B4F69" font-family="'OpenSans-Semibold'" font-size="14">Grunt</tspan></text>
		<rect x="515.9" y="68.5" fill="#FFFFFF" width="75.1" height="23.5"/>
		<text transform="matrix(1 0 0 1 522.8417 83.768)" fill="#0B4F69" font-family="'OpenSans-Semibold'" font-size="14">Compass</text>
	</g>
	
		<text transform="matrix(1 0 0 1 409.8171 83.267)" display="inline" fill="#0B4F69" font-family="'OpenSans-Semibold'" font-size="14">Yes</text>
	
		<text transform="matrix(1 0 0 1 413.4681 130.9094)" display="inline" fill="#0B4F69" font-family="'OpenSans-Semibold'" font-size="14">No</text>
</g>
<g>
	<g>
		<line fill="none" stroke="#D1D3D4" stroke-width="1.5" stroke-miterlimit="10" x1="765.2" y1="80.3" x2="721.4" y2="80.3"/>
		<g>
			<polygon fill="#D1D3D4" points="764.1,76.5 770.6,80.3 764.1,84 			"/>
		</g>
	</g>
</g>
<polyline fill="none" stroke="#D1D3D4" stroke-width="1.5" stroke-miterlimit="10" points="431.2,42.6 721.4,42.6 721.4,117.9 
	431.2,117.9 "/>
<rect x="498.2" y="102.9" fill="#FFFFFF" width="186.4" height="40"/>
<g>
	<path fill="#0B4F69" d="M509.2,109.1v16.4h10v1.5h-11.7v-17.9H509.2z"/>
	<path fill="#0B4F69" d="M522.2,109.1v2.5h-1.6v-2.5H522.2z M522.2,114v12.9h-1.6V114H522.2z"/>
	<path fill="#0B4F69" d="M526.8,109.1v7.4h0c0.2-0.5,0.4-0.9,0.7-1.2c0.3-0.4,0.7-0.6,1.1-0.9c0.4-0.2,0.8-0.4,1.3-0.5
		c0.5-0.1,0.9-0.2,1.4-0.2c1,0,1.8,0.2,2.6,0.5c0.7,0.4,1.3,0.9,1.8,1.5s0.8,1.3,1.1,2.2s0.4,1.7,0.4,2.6c0,0.9-0.1,1.8-0.4,2.6
		c-0.2,0.8-0.6,1.5-1.1,2.2s-1.1,1.1-1.8,1.5c-0.7,0.4-1.6,0.5-2.6,0.5c-1,0-2-0.2-2.8-0.7c-0.8-0.5-1.4-1.2-1.8-2.1h0v2.5h-1.5
		v-17.9H526.8z M535.4,118.5c-0.2-0.7-0.4-1.2-0.8-1.8c-0.3-0.5-0.8-0.9-1.3-1.3c-0.5-0.3-1.2-0.5-1.9-0.5c-0.8,0-1.5,0.2-2.1,0.5
		c-0.6,0.3-1,0.7-1.4,1.3c-0.4,0.5-0.6,1.1-0.8,1.8c-0.2,0.7-0.2,1.3-0.2,2c0,0.7,0.1,1.3,0.2,2c0.2,0.7,0.4,1.2,0.8,1.8
		c0.4,0.5,0.8,0.9,1.4,1.3s1.3,0.5,2.1,0.5c0.8,0,1.4-0.2,1.9-0.5c0.5-0.3,1-0.7,1.3-1.3c0.3-0.5,0.6-1.1,0.8-1.8
		c0.2-0.7,0.2-1.3,0.2-2C535.6,119.8,535.5,119.1,535.4,118.5z"/>
	<path fill="#0B4F69" d="M547,116.5c-0.2-0.4-0.4-0.7-0.7-0.9s-0.7-0.4-1.1-0.5c-0.4-0.1-0.8-0.2-1.3-0.2c-0.3,0-0.7,0-1.1,0.1
		c-0.4,0.1-0.7,0.2-1,0.4c-0.3,0.2-0.5,0.4-0.7,0.7c-0.2,0.3-0.3,0.6-0.3,1c0,0.4,0.1,0.6,0.3,0.9s0.4,0.4,0.7,0.6
		c0.3,0.2,0.6,0.3,0.9,0.4s0.6,0.2,0.9,0.3l2.1,0.5c0.5,0.1,0.9,0.2,1.3,0.4c0.4,0.2,0.8,0.4,1.2,0.7c0.3,0.3,0.6,0.6,0.8,1
		c0.2,0.4,0.3,0.9,0.3,1.5c0,0.7-0.2,1.3-0.5,1.8c-0.3,0.5-0.7,0.9-1.2,1.2c-0.5,0.3-1,0.5-1.7,0.7c-0.6,0.1-1.2,0.2-1.8,0.2
		c-1.5,0-2.7-0.4-3.7-1.1c-0.9-0.7-1.5-1.9-1.6-3.4h1.6c0.1,1.1,0.5,1.9,1.2,2.4c0.7,0.5,1.6,0.8,2.6,0.8c0.4,0,0.8,0,1.2-0.1
		c0.4-0.1,0.8-0.2,1.1-0.4c0.4-0.2,0.6-0.5,0.9-0.8c0.2-0.3,0.3-0.7,0.3-1.1c0-0.4-0.1-0.7-0.2-1s-0.4-0.5-0.6-0.7
		c-0.3-0.2-0.6-0.3-0.9-0.4c-0.3-0.1-0.7-0.2-1-0.3l-2-0.5c-0.5-0.1-1-0.3-1.4-0.5c-0.4-0.2-0.8-0.4-1.1-0.6c-0.3-0.3-0.6-0.6-0.8-1
		s-0.3-0.8-0.3-1.4c0-0.6,0.1-1.2,0.4-1.7c0.3-0.5,0.7-0.8,1.1-1.1c0.5-0.3,1-0.5,1.6-0.6c0.6-0.1,1.1-0.2,1.7-0.2
		c0.6,0,1.3,0.1,1.8,0.2c0.6,0.2,1,0.4,1.5,0.8s0.8,0.8,1,1.3c0.2,0.5,0.4,1.1,0.4,1.8h-1.6C547.3,117.3,547.2,116.9,547,116.5z"/>
	<path fill="#0B4F69" d="M552,116c0.3-0.6,0.6-1,1.1-1.4c0.5-0.4,1-0.6,1.6-0.8c0.6-0.2,1.3-0.2,2-0.2c0.6,0,1.1,0.1,1.7,0.2
		c0.6,0.1,1.1,0.3,1.5,0.6s0.8,0.7,1.1,1.3c0.3,0.5,0.4,1.2,0.4,2.1v6.9c0,0.6,0.3,0.9,0.9,0.9c0.2,0,0.3,0,0.5-0.1v1.3
		c-0.2,0-0.3,0.1-0.5,0.1s-0.3,0-0.5,0c-0.4,0-0.7-0.1-1-0.2c-0.2-0.1-0.4-0.3-0.6-0.5c-0.1-0.2-0.2-0.4-0.3-0.7
		c0-0.3-0.1-0.6-0.1-0.9h0c-0.3,0.4-0.6,0.8-0.9,1.1c-0.3,0.3-0.6,0.6-1,0.8c-0.4,0.2-0.8,0.4-1.2,0.5c-0.5,0.1-1,0.2-1.6,0.2
		c-0.6,0-1.2-0.1-1.7-0.2c-0.5-0.1-1-0.4-1.4-0.7c-0.4-0.3-0.7-0.7-0.9-1.2c-0.2-0.5-0.3-1-0.3-1.7c0-0.9,0.2-1.6,0.6-2.1
		c0.4-0.5,0.9-0.9,1.6-1.2s1.4-0.5,2.2-0.6c0.8-0.1,1.7-0.2,2.5-0.3c0.3,0,0.6-0.1,0.9-0.1c0.2-0.1,0.5-0.1,0.6-0.3
		c0.2-0.1,0.3-0.3,0.4-0.5c0.1-0.2,0.1-0.5,0.1-0.8c0-0.5-0.1-1-0.3-1.3s-0.4-0.6-0.7-0.8c-0.3-0.2-0.7-0.3-1.1-0.4
		c-0.4-0.1-0.8-0.1-1.3-0.1c-1,0-1.8,0.2-2.5,0.7c-0.6,0.5-1,1.2-1,2.3h-1.6C551.5,117.2,551.7,116.6,552,116z M559.8,119.9
		c-0.1,0.2-0.3,0.3-0.6,0.4s-0.5,0.1-0.8,0.2c-0.7,0.1-1.4,0.2-2.1,0.3c-0.7,0.1-1.4,0.2-1.9,0.4c-0.6,0.2-1.1,0.4-1.4,0.8
		c-0.4,0.3-0.6,0.8-0.6,1.5c0,0.4,0.1,0.8,0.2,1.1c0.2,0.3,0.4,0.6,0.6,0.8c0.3,0.2,0.6,0.4,0.9,0.5c0.4,0.1,0.7,0.2,1.1,0.2
		c0.6,0,1.2-0.1,1.7-0.3c0.6-0.2,1-0.4,1.4-0.8s0.7-0.8,1-1.3c0.2-0.5,0.4-1.1,0.4-1.7L559.8,119.9L559.8,119.9z"/>
	<path fill="#0B4F69" d="M572,116.5c-0.2-0.4-0.4-0.7-0.7-0.9s-0.7-0.4-1.1-0.5c-0.4-0.1-0.8-0.2-1.3-0.2c-0.3,0-0.7,0-1.1,0.1
		c-0.4,0.1-0.7,0.2-1,0.4c-0.3,0.2-0.5,0.4-0.7,0.7c-0.2,0.3-0.3,0.6-0.3,1c0,0.4,0.1,0.6,0.3,0.9s0.4,0.4,0.7,0.6
		c0.3,0.2,0.6,0.3,0.9,0.4s0.6,0.2,0.9,0.3l2.1,0.5c0.5,0.1,0.9,0.2,1.3,0.4c0.4,0.2,0.8,0.4,1.2,0.7c0.3,0.3,0.6,0.6,0.8,1
		c0.2,0.4,0.3,0.9,0.3,1.5c0,0.7-0.2,1.3-0.5,1.8c-0.3,0.5-0.7,0.9-1.2,1.2c-0.5,0.3-1,0.5-1.7,0.7c-0.6,0.1-1.2,0.2-1.8,0.2
		c-1.5,0-2.7-0.4-3.7-1.1c-0.9-0.7-1.5-1.9-1.6-3.4h1.6c0.1,1.1,0.5,1.9,1.2,2.4c0.7,0.5,1.6,0.8,2.6,0.8c0.4,0,0.8,0,1.2-0.1
		c0.4-0.1,0.8-0.2,1.1-0.4c0.4-0.2,0.6-0.5,0.9-0.8c0.2-0.3,0.3-0.7,0.3-1.1c0-0.4-0.1-0.7-0.2-1s-0.4-0.5-0.6-0.7
		c-0.3-0.2-0.6-0.3-0.9-0.4c-0.3-0.1-0.7-0.2-1-0.3l-2-0.5c-0.5-0.1-1-0.3-1.4-0.5c-0.4-0.2-0.8-0.4-1.1-0.6c-0.3-0.3-0.6-0.6-0.8-1
		s-0.3-0.8-0.3-1.4c0-0.6,0.1-1.2,0.4-1.7c0.3-0.5,0.7-0.8,1.1-1.1c0.5-0.3,1-0.5,1.6-0.6c0.6-0.1,1.1-0.2,1.7-0.2
		c0.6,0,1.3,0.1,1.8,0.2c0.6,0.2,1,0.4,1.5,0.8s0.8,0.8,1,1.3c0.2,0.5,0.4,1.1,0.4,1.8h-1.6C572.3,117.3,572.2,116.9,572,116.5z"/>
	<path fill="#0B4F69" d="M584.1,116.5c-0.2-0.4-0.4-0.7-0.7-0.9s-0.7-0.4-1.1-0.5c-0.4-0.1-0.8-0.2-1.3-0.2c-0.3,0-0.7,0-1.1,0.1
		c-0.4,0.1-0.7,0.2-1,0.4c-0.3,0.2-0.5,0.4-0.7,0.7c-0.2,0.3-0.3,0.6-0.3,1c0,0.4,0.1,0.6,0.3,0.9s0.4,0.4,0.7,0.6
		c0.3,0.2,0.6,0.3,0.9,0.4s0.6,0.2,0.9,0.3l2.1,0.5c0.5,0.1,0.9,0.2,1.3,0.4c0.4,0.2,0.8,0.4,1.2,0.7c0.3,0.3,0.6,0.6,0.8,1
		c0.2,0.4,0.3,0.9,0.3,1.5c0,0.7-0.2,1.3-0.5,1.8c-0.3,0.5-0.7,0.9-1.2,1.2c-0.5,0.3-1,0.5-1.7,0.7c-0.6,0.1-1.2,0.2-1.8,0.2
		c-1.5,0-2.7-0.4-3.7-1.1c-0.9-0.7-1.5-1.9-1.6-3.4h1.6c0.1,1.1,0.5,1.9,1.2,2.4c0.7,0.5,1.6,0.8,2.6,0.8c0.4,0,0.8,0,1.2-0.1
		c0.4-0.1,0.8-0.2,1.1-0.4c0.4-0.2,0.6-0.5,0.9-0.8c0.2-0.3,0.3-0.7,0.3-1.1c0-0.4-0.1-0.7-0.2-1s-0.4-0.5-0.6-0.7
		c-0.3-0.2-0.6-0.3-0.9-0.4c-0.3-0.1-0.7-0.2-1-0.3l-2-0.5c-0.5-0.1-1-0.3-1.4-0.5c-0.4-0.2-0.8-0.4-1.1-0.6c-0.3-0.3-0.6-0.6-0.8-1
		s-0.3-0.8-0.3-1.4c0-0.6,0.1-1.2,0.4-1.7c0.3-0.5,0.7-0.8,1.1-1.1c0.5-0.3,1-0.5,1.6-0.6c0.6-0.1,1.1-0.2,1.7-0.2
		c0.6,0,1.3,0.1,1.8,0.2c0.6,0.2,1,0.4,1.5,0.8s0.8,0.8,1,1.3c0.2,0.5,0.4,1.1,0.4,1.8h-1.6C584.3,117.3,584.2,116.9,584.1,116.5z"
		/>
	<path fill="#0B4F69" d="M603.4,126.5c-0.9,0.5-1.9,0.7-2.9,0.7c-0.8,0-1.5-0.1-2.1-0.3s-1.2-0.5-1.7-0.9c-0.5-0.4-0.9-0.9-1.1-1.6
		c-0.3-0.6-0.4-1.3-0.4-2.1c0-0.6,0.1-1.2,0.4-1.8c0.3-0.5,0.6-1,1-1.5c0.4-0.4,0.9-0.8,1.4-1.2s1-0.7,1.5-0.9
		c-0.2-0.3-0.5-0.6-0.8-1c-0.3-0.3-0.5-0.7-0.7-1c-0.2-0.4-0.4-0.7-0.5-1.1c-0.1-0.4-0.2-0.8-0.2-1.2c0-0.5,0.1-1,0.3-1.5
		c0.2-0.4,0.5-0.8,0.8-1.1c0.4-0.3,0.8-0.6,1.2-0.7c0.5-0.2,1-0.3,1.5-0.3c0.6,0,1.1,0.1,1.5,0.3c0.5,0.2,0.9,0.4,1.2,0.7
		c0.4,0.3,0.6,0.7,0.8,1.1c0.2,0.4,0.3,0.9,0.3,1.5c0,0.6-0.1,1.1-0.3,1.5c-0.2,0.5-0.5,0.9-0.8,1.2c-0.3,0.4-0.7,0.7-1.1,1
		c-0.4,0.3-0.8,0.6-1.3,0.9l3.9,4.7c0.2-0.4,0.4-0.9,0.4-1.3c0.1-0.4,0.1-1,0.1-1.7h1.6c0,0.5-0.1,1.1-0.2,1.9
		c-0.1,0.8-0.4,1.6-0.8,2.3l3,3.6h-2l-1.9-2.3C605.1,125.4,604.3,126.1,603.4,126.5z M599,118.8c-0.4,0.3-0.8,0.6-1.2,1
		c-0.3,0.4-0.6,0.8-0.8,1.2c-0.2,0.4-0.3,0.9-0.3,1.5c0,0.5,0.1,1,0.3,1.4s0.5,0.8,0.9,1.1s0.8,0.6,1.2,0.7c0.5,0.2,1,0.2,1.5,0.2
		c0.9,0,1.7-0.2,2.4-0.7c0.7-0.5,1.3-1.1,1.8-1.8l-4.5-5.4C599.9,118.3,599.4,118.5,599,118.8z M599.5,111c-0.5,0.4-0.7,1-0.7,1.7
		c0,0.3,0.1,0.6,0.2,1c0.1,0.3,0.3,0.6,0.5,1c0.2,0.3,0.4,0.6,0.7,0.9c0.2,0.3,0.5,0.6,0.6,0.8c0.3-0.2,0.6-0.4,1-0.6
		s0.6-0.5,0.9-0.8c0.3-0.3,0.5-0.6,0.6-1c0.2-0.4,0.2-0.8,0.2-1.2c0-0.8-0.2-1.3-0.7-1.7c-0.5-0.4-1-0.6-1.7-0.6
		C600.6,110.4,600,110.6,599.5,111z"/>
	<path fill="#0B4F69" d="M632.2,126.9l-0.2-3.2h0c-0.3,0.6-0.7,1.2-1.1,1.6s-0.9,0.8-1.5,1.1s-1.1,0.5-1.7,0.6s-1.2,0.2-1.9,0.2
		c-1.4,0-2.6-0.3-3.7-0.8s-1.9-1.2-2.6-2c-0.7-0.8-1.2-1.8-1.6-2.9c-0.3-1.1-0.5-2.3-0.5-3.5s0.2-2.4,0.5-3.5c0.4-1.1,0.9-2.1,1.6-3
		c0.7-0.9,1.6-1.5,2.6-2s2.3-0.8,3.7-0.8c0.9,0,1.8,0.1,2.7,0.4c0.8,0.2,1.6,0.6,2.2,1.1s1.2,1.1,1.7,1.9c0.4,0.7,0.8,1.6,0.9,2.6
		h-1.7c0-0.5-0.2-1-0.5-1.6c-0.3-0.5-0.7-1-1.2-1.4c-0.5-0.4-1.1-0.8-1.8-1.1c-0.7-0.3-1.5-0.4-2.3-0.4c-1.2,0-2.2,0.2-3,0.7
		c-0.9,0.5-1.5,1-2.1,1.8c-0.5,0.7-0.9,1.6-1.2,2.5c-0.3,0.9-0.4,1.9-0.4,2.9c0,1,0.1,1.9,0.4,2.9c0.3,0.9,0.7,1.8,1.2,2.5
		c0.5,0.7,1.2,1.3,2.1,1.8c0.8,0.5,1.9,0.7,3,0.7c1,0,1.9-0.2,2.6-0.5c0.8-0.3,1.4-0.8,2-1.4s0.9-1.3,1.2-2.1s0.4-1.7,0.4-2.6h-6.1
		v-1.5h7.6v9.1H632.2z"/>
	<path fill="#0B4F69" d="M637.8,114v3h0c0.4-1,1-1.9,1.9-2.4s1.8-0.8,3-0.8v1.6c-0.7,0-1.4,0.1-2,0.3s-1.1,0.5-1.5,1
		c-0.4,0.4-0.8,0.9-1,1.5c-0.2,0.6-0.3,1.2-0.3,1.9v6.9h-1.6V114H637.8z"/>
	<path fill="#0B4F69" d="M653.2,126.9v-2.3h0c-0.4,0.9-1,1.5-1.8,2c-0.8,0.5-1.7,0.7-2.6,0.7c-0.8,0-1.5-0.1-2.1-0.3
		c-0.6-0.2-1-0.5-1.4-1c-0.4-0.4-0.6-0.9-0.8-1.5c-0.2-0.6-0.2-1.3-0.2-2V114h1.6v8.4c0,1.2,0.3,2,0.8,2.6s1.4,0.9,2.6,0.9
		c0.7,0,1.3-0.1,1.8-0.4c0.5-0.3,0.9-0.7,1.2-1.2c0.3-0.5,0.5-1,0.7-1.7c0.1-0.6,0.2-1.3,0.2-1.9V114h1.6v12.9H653.2z"/>
	<path fill="#0B4F69" d="M659.2,114v2.2h0c0.3-0.8,0.8-1.4,1.6-1.9s1.6-0.7,2.5-0.7c0.9,0,1.7,0.1,2.3,0.4s1.1,0.6,1.5,1
		c0.4,0.4,0.6,0.9,0.8,1.6c0.2,0.6,0.2,1.3,0.2,2.1v8.3h-1.6v-8c0-0.6,0-1.1-0.2-1.5c-0.1-0.5-0.3-0.9-0.5-1.2
		c-0.2-0.3-0.6-0.6-1-0.8c-0.4-0.2-1-0.3-1.6-0.3c-0.6,0-1.2,0.1-1.7,0.3c-0.5,0.2-0.9,0.5-1.2,0.9s-0.6,0.9-0.8,1.4
		c-0.2,0.5-0.3,1.1-0.3,1.8v7.5h-1.6V114H659.2z"/>
	<path fill="#0B4F69" d="M676.2,114v1.3h-2.6v8.7c0,0.5,0.1,0.9,0.2,1.2c0.1,0.3,0.5,0.5,1.1,0.5c0.4,0,0.9,0,1.3-0.1v1.3
		c-0.2,0-0.5,0-0.7,0c-0.2,0-0.5,0-0.7,0c-1,0-1.8-0.2-2.2-0.6c-0.4-0.4-0.6-1.2-0.6-2.3v-8.8h-2.2V114h2.2v-3.9h1.6v3.9H676.2z"/>
</g>
<rect x="532.6" y="27.6" fill="#FFFFFF" width="117.5" height="40"/>
<g>
	<path fill="#0B4F69" d="M553.6,37.4c-0.3-0.5-0.8-1-1.2-1.4s-1-0.6-1.6-0.8s-1.2-0.3-1.9-0.3c-1.2,0-2.2,0.2-3,0.7
		c-0.9,0.5-1.5,1-2.1,1.8c-0.5,0.7-0.9,1.6-1.2,2.5c-0.3,0.9-0.4,1.9-0.4,2.9c0,1,0.1,1.9,0.4,2.9c0.3,0.9,0.7,1.8,1.2,2.5
		c0.5,0.7,1.2,1.3,2.1,1.8c0.8,0.5,1.9,0.7,3,0.7c0.8,0,1.6-0.1,2.2-0.4c0.7-0.3,1.2-0.7,1.7-1.2s0.9-1.1,1.2-1.8
		c0.3-0.7,0.5-1.4,0.6-2.2h1.7c-0.1,1.1-0.4,2.1-0.8,3c-0.4,0.9-0.9,1.6-1.6,2.2c-0.6,0.6-1.4,1.1-2.2,1.4c-0.9,0.3-1.8,0.5-2.9,0.5
		c-1.4,0-2.6-0.3-3.7-0.8s-1.9-1.2-2.6-2c-0.7-0.8-1.2-1.8-1.6-2.9c-0.3-1.1-0.5-2.3-0.5-3.5s0.2-2.4,0.5-3.5c0.4-1.1,0.9-2.1,1.6-3
		c0.7-0.9,1.6-1.5,2.6-2s2.3-0.8,3.7-0.8c0.8,0,1.7,0.1,2.5,0.4s1.5,0.6,2.2,1.1s1.2,1.1,1.7,1.8c0.4,0.7,0.7,1.5,0.8,2.5h-1.7
		C554.2,38.5,554,37.9,553.6,37.4z"/>
	<path fill="#0B4F69" d="M566.7,38.9c0.8,0.4,1.4,0.9,1.9,1.5c0.5,0.6,0.9,1.3,1.2,2.2c0.3,0.8,0.4,1.7,0.4,2.6
		c0,0.9-0.1,1.8-0.4,2.6c-0.3,0.8-0.7,1.5-1.2,2.2s-1.2,1.1-1.9,1.5c-0.8,0.4-1.6,0.5-2.6,0.5s-1.9-0.2-2.6-0.5
		c-0.8-0.4-1.4-0.8-1.9-1.5s-0.9-1.3-1.2-2.2s-0.4-1.7-0.4-2.6c0-0.9,0.1-1.8,0.4-2.6c0.3-0.8,0.7-1.5,1.2-2.2
		c0.5-0.6,1.2-1.1,1.9-1.5c0.8-0.4,1.6-0.5,2.6-0.5S565.9,38.6,566.7,38.9z M562.1,40.2c-0.6,0.3-1,0.7-1.4,1.2
		c-0.4,0.5-0.7,1.1-0.8,1.8c-0.2,0.7-0.3,1.3-0.3,2c0,0.7,0.1,1.4,0.3,2c0.2,0.7,0.5,1.2,0.8,1.8s0.8,0.9,1.4,1.2s1.2,0.5,2,0.5
		s1.4-0.2,2-0.5s1-0.7,1.4-1.2s0.7-1.1,0.8-1.8c0.2-0.7,0.3-1.3,0.3-2c0-0.7-0.1-1.4-0.3-2c-0.2-0.7-0.5-1.2-0.8-1.8
		c-0.4-0.5-0.8-0.9-1.4-1.2c-0.6-0.3-1.2-0.5-2-0.5S562.6,39.9,562.1,40.2z"/>
	<path fill="#0B4F69" d="M574,38.7v2.2h0.1c0.4-0.8,1-1.4,1.6-1.9c0.7-0.4,1.5-0.7,2.6-0.7c0.8,0,1.6,0.2,2.3,0.6s1.2,1,1.4,1.9
		c0.4-0.9,1-1.5,1.7-1.9s1.5-0.6,2.4-0.6c2.9,0,4.3,1.5,4.3,4.5v8.8h-1.6V43c0-1.1-0.2-1.9-0.7-2.4s-1.2-0.8-2.4-0.8
		c-0.7,0-1.2,0.1-1.7,0.4c-0.5,0.3-0.8,0.6-1.1,1c-0.3,0.4-0.5,0.9-0.6,1.5c-0.1,0.6-0.2,1.1-0.2,1.7v7.3h-1.6v-8.8
		c0-0.4,0-0.8-0.1-1.2s-0.2-0.7-0.5-1c-0.2-0.3-0.5-0.5-0.8-0.7c-0.4-0.2-0.8-0.2-1.3-0.2c-0.7,0-1.2,0.1-1.7,0.4
		c-0.5,0.2-0.9,0.6-1.2,1c-0.3,0.4-0.5,0.9-0.7,1.5c-0.1,0.6-0.2,1.2-0.2,1.9v7.2h-1.6V38.7H574z"/>
	<path fill="#0B4F69" d="M594.8,38.7v2.4h0c0.4-0.9,1-1.6,1.8-2.1c0.8-0.5,1.8-0.7,2.8-0.7c1,0,1.8,0.2,2.6,0.5
		c0.7,0.4,1.3,0.9,1.8,1.5s0.8,1.3,1.1,2.2s0.4,1.7,0.4,2.6c0,0.9-0.1,1.8-0.4,2.6c-0.2,0.8-0.6,1.5-1.1,2.2s-1.1,1.1-1.8,1.5
		c-0.7,0.4-1.6,0.5-2.6,0.5c-0.5,0-0.9-0.1-1.4-0.2c-0.5-0.1-0.9-0.3-1.3-0.5c-0.4-0.2-0.8-0.5-1.1-0.9c-0.3-0.4-0.5-0.8-0.7-1.2h0
		v7.2h-1.6V38.7H594.8z M603.4,43.2c-0.2-0.7-0.4-1.2-0.8-1.8c-0.3-0.5-0.8-0.9-1.3-1.3c-0.5-0.3-1.2-0.5-1.9-0.5
		c-0.9,0-1.6,0.2-2.2,0.5s-1,0.7-1.4,1.2c-0.4,0.5-0.6,1.1-0.7,1.8s-0.2,1.4-0.2,2.1c0,0.7,0.1,1.3,0.2,2c0.2,0.7,0.4,1.2,0.8,1.8
		c0.4,0.5,0.8,0.9,1.4,1.3s1.3,0.5,2.1,0.5c0.8,0,1.4-0.2,1.9-0.5c0.5-0.3,1-0.7,1.3-1.3c0.3-0.5,0.6-1.1,0.8-1.8
		c0.2-0.7,0.2-1.3,0.2-2C603.7,44.5,603.6,43.9,603.4,43.2z"/>
	<path fill="#0B4F69" d="M608,40.7c0.3-0.6,0.6-1,1.1-1.4c0.5-0.4,1-0.6,1.6-0.8c0.6-0.2,1.3-0.2,2-0.2c0.6,0,1.1,0.1,1.7,0.2
		c0.6,0.1,1.1,0.3,1.5,0.6s0.8,0.7,1.1,1.3c0.3,0.5,0.4,1.2,0.4,2.1v6.9c0,0.6,0.3,0.9,0.9,0.9c0.2,0,0.3,0,0.5-0.1v1.3
		c-0.2,0-0.3,0.1-0.5,0.1s-0.3,0-0.5,0c-0.4,0-0.7-0.1-1-0.2c-0.2-0.1-0.4-0.3-0.6-0.5c-0.1-0.2-0.2-0.4-0.3-0.7
		c0-0.3-0.1-0.6-0.1-0.9h0c-0.3,0.4-0.6,0.8-0.9,1.1c-0.3,0.3-0.6,0.6-1,0.8c-0.4,0.2-0.8,0.4-1.2,0.5c-0.5,0.1-1,0.2-1.6,0.2
		c-0.6,0-1.2-0.1-1.7-0.2c-0.5-0.1-1-0.4-1.4-0.7c-0.4-0.3-0.7-0.7-0.9-1.2c-0.2-0.5-0.3-1-0.3-1.7c0-0.9,0.2-1.6,0.6-2.1
		c0.4-0.5,0.9-0.9,1.6-1.2s1.4-0.5,2.2-0.6c0.8-0.1,1.7-0.2,2.5-0.3c0.3,0,0.6-0.1,0.9-0.1c0.2-0.1,0.5-0.1,0.6-0.3
		c0.2-0.1,0.3-0.3,0.4-0.5c0.1-0.2,0.1-0.5,0.1-0.8c0-0.5-0.1-1-0.3-1.3s-0.4-0.6-0.7-0.8c-0.3-0.2-0.7-0.3-1.1-0.4
		c-0.4-0.1-0.8-0.1-1.3-0.1c-1,0-1.8,0.2-2.5,0.7c-0.6,0.5-1,1.2-1,2.3h-1.6C607.6,41.9,607.7,41.3,608,40.7z M615.9,44.6
		c-0.1,0.2-0.3,0.3-0.6,0.4s-0.5,0.1-0.8,0.2c-0.7,0.1-1.4,0.2-2.1,0.3c-0.7,0.1-1.4,0.2-1.9,0.4c-0.6,0.2-1.1,0.4-1.4,0.8
		c-0.4,0.3-0.6,0.8-0.6,1.5c0,0.4,0.1,0.8,0.2,1.1c0.2,0.3,0.4,0.6,0.6,0.8c0.3,0.2,0.6,0.4,0.9,0.5c0.4,0.1,0.7,0.2,1.1,0.2
		c0.6,0,1.2-0.1,1.7-0.3c0.6-0.2,1-0.4,1.4-0.8s0.7-0.8,1-1.3c0.2-0.5,0.4-1.1,0.4-1.7L615.9,44.6L615.9,44.6z"/>
	<path fill="#0B4F69" d="M628.1,41.3c-0.2-0.4-0.4-0.7-0.7-0.9s-0.7-0.4-1.1-0.5c-0.4-0.1-0.8-0.2-1.3-0.2c-0.3,0-0.7,0-1.1,0.1
		c-0.4,0.1-0.7,0.2-1,0.4c-0.3,0.2-0.5,0.4-0.7,0.7c-0.2,0.3-0.3,0.6-0.3,1c0,0.4,0.1,0.6,0.3,0.9s0.4,0.4,0.7,0.6
		c0.3,0.2,0.6,0.3,0.9,0.4s0.6,0.2,0.9,0.3l2.1,0.5c0.5,0.1,0.9,0.2,1.3,0.4c0.4,0.2,0.8,0.4,1.2,0.7c0.3,0.3,0.6,0.6,0.8,1
		c0.2,0.4,0.3,0.9,0.3,1.5c0,0.7-0.2,1.3-0.5,1.8c-0.3,0.5-0.7,0.9-1.2,1.2c-0.5,0.3-1,0.5-1.7,0.7c-0.6,0.1-1.2,0.2-1.8,0.2
		c-1.5,0-2.7-0.4-3.7-1.1c-0.9-0.7-1.5-1.9-1.6-3.4h1.6c0.1,1.1,0.5,1.9,1.2,2.4c0.7,0.5,1.6,0.8,2.6,0.8c0.4,0,0.8,0,1.2-0.1
		c0.4-0.1,0.8-0.2,1.1-0.4c0.4-0.2,0.6-0.5,0.9-0.8c0.2-0.3,0.3-0.7,0.3-1.1c0-0.4-0.1-0.7-0.2-1s-0.4-0.5-0.6-0.7
		c-0.3-0.2-0.6-0.3-0.9-0.4c-0.3-0.1-0.7-0.2-1-0.3l-2-0.5c-0.5-0.1-1-0.3-1.4-0.5c-0.4-0.2-0.8-0.4-1.1-0.6c-0.3-0.3-0.6-0.6-0.8-1
		s-0.3-0.8-0.3-1.4c0-0.6,0.1-1.2,0.4-1.7c0.3-0.5,0.7-0.8,1.1-1.1c0.5-0.3,1-0.5,1.6-0.6c0.6-0.1,1.1-0.2,1.7-0.2
		c0.6,0,1.3,0.1,1.8,0.2c0.6,0.2,1,0.4,1.5,0.8s0.8,0.8,1,1.3c0.2,0.5,0.4,1.1,0.4,1.8h-1.6C628.4,42,628.3,41.6,628.1,41.3z"/>
	<path fill="#0B4F69" d="M640.1,41.3c-0.2-0.4-0.4-0.7-0.7-0.9s-0.7-0.4-1.1-0.5c-0.4-0.1-0.8-0.2-1.3-0.2c-0.3,0-0.7,0-1.1,0.1
		c-0.4,0.1-0.7,0.2-1,0.4c-0.3,0.2-0.5,0.4-0.7,0.7c-0.2,0.3-0.3,0.6-0.3,1c0,0.4,0.1,0.6,0.3,0.9s0.4,0.4,0.7,0.6
		c0.3,0.2,0.6,0.3,0.9,0.4s0.6,0.2,0.9,0.3l2.1,0.5c0.5,0.1,0.9,0.2,1.3,0.4c0.4,0.2,0.8,0.4,1.2,0.7c0.3,0.3,0.6,0.6,0.8,1
		c0.2,0.4,0.3,0.9,0.3,1.5c0,0.7-0.2,1.3-0.5,1.8c-0.3,0.5-0.7,0.9-1.2,1.2c-0.5,0.3-1,0.5-1.7,0.7c-0.6,0.1-1.2,0.2-1.8,0.2
		c-1.5,0-2.7-0.4-3.7-1.1c-0.9-0.7-1.5-1.9-1.6-3.4h1.6c0.1,1.1,0.5,1.9,1.2,2.4c0.7,0.5,1.6,0.8,2.6,0.8c0.4,0,0.8,0,1.2-0.1
		c0.4-0.1,0.8-0.2,1.1-0.4c0.4-0.2,0.6-0.5,0.9-0.8c0.2-0.3,0.3-0.7,0.3-1.1c0-0.4-0.1-0.7-0.2-1s-0.4-0.5-0.6-0.7
		c-0.3-0.2-0.6-0.3-0.9-0.4c-0.3-0.1-0.7-0.2-1-0.3l-2-0.5c-0.5-0.1-1-0.3-1.4-0.5c-0.4-0.2-0.8-0.4-1.1-0.6c-0.3-0.3-0.6-0.6-0.8-1
		s-0.3-0.8-0.3-1.4c0-0.6,0.1-1.2,0.4-1.7c0.3-0.5,0.7-0.8,1.1-1.1c0.5-0.3,1-0.5,1.6-0.6c0.6-0.1,1.1-0.2,1.7-0.2
		c0.6,0,1.3,0.1,1.8,0.2c0.6,0.2,1,0.4,1.5,0.8s0.8,0.8,1,1.3c0.2,0.5,0.4,1.1,0.4,1.8h-1.6C640.4,42,640.3,41.6,640.1,41.3z"/>
</g>
<circle fill="#E6E6E5" cx="423.7" cy="42.6" r="17.1"/>
<circle fill="#E6E6E5" cx="423.7" cy="117.9" r="17.1"/>
<g>
	<path fill="#0B4F69" d="M416.2,43.6l-3.8-6.1h2l2.6,4.5l2.6-4.5h2l-3.7,6.1v3.9h-1.8V43.6z"/>
	<path fill="#0B4F69" d="M422.4,44.3c0,0.3,0,0.6,0.1,0.8s0.2,0.5,0.4,0.7c0.2,0.2,0.4,0.4,0.6,0.5c0.2,0.1,0.5,0.2,0.9,0.2
		c0.5,0,0.8-0.1,1.1-0.3c0.3-0.2,0.5-0.5,0.6-0.9h1.5c-0.1,0.4-0.2,0.7-0.4,1.1c-0.2,0.3-0.5,0.6-0.7,0.8s-0.6,0.4-1,0.5
		c-0.4,0.1-0.7,0.2-1.1,0.2c-0.6,0-1.1-0.1-1.5-0.3c-0.4-0.2-0.8-0.4-1.1-0.8c-0.3-0.3-0.5-0.7-0.7-1.2c-0.2-0.5-0.2-1-0.2-1.5
		c0-0.5,0.1-1,0.2-1.5c0.2-0.5,0.4-0.9,0.7-1.2c0.3-0.4,0.7-0.6,1.1-0.8c0.4-0.2,0.9-0.3,1.5-0.3c0.6,0,1.1,0.1,1.5,0.4
		c0.5,0.2,0.8,0.6,1.1,0.9c0.3,0.4,0.5,0.8,0.7,1.4c0.1,0.5,0.2,1,0.1,1.6H422.4z M426.2,43.3c0-0.3-0.1-0.5-0.2-0.7
		c-0.1-0.2-0.2-0.4-0.4-0.6c-0.2-0.2-0.3-0.3-0.6-0.4c-0.2-0.1-0.5-0.2-0.7-0.2c-0.3,0-0.5,0-0.8,0.1c-0.2,0.1-0.4,0.2-0.6,0.4
		c-0.2,0.2-0.3,0.4-0.4,0.6c-0.1,0.2-0.2,0.5-0.2,0.8H426.2z"/>
	<path fill="#0B4F69" d="M430.2,45.2c0,0.5,0.2,0.8,0.5,1c0.3,0.2,0.7,0.3,1.1,0.3c0.1,0,0.3,0,0.5,0c0.2,0,0.4-0.1,0.5-0.1
		s0.3-0.2,0.4-0.3s0.2-0.3,0.1-0.5c0-0.2-0.1-0.4-0.2-0.5c-0.1-0.1-0.3-0.2-0.5-0.3c-0.2-0.1-0.5-0.1-0.7-0.2
		c-0.3-0.1-0.6-0.1-0.9-0.2c-0.3-0.1-0.6-0.1-0.9-0.2c-0.3-0.1-0.5-0.2-0.7-0.4c-0.2-0.2-0.4-0.4-0.5-0.6c-0.1-0.2-0.2-0.6-0.2-0.9
		c0-0.4,0.1-0.7,0.3-1s0.4-0.5,0.7-0.6c0.3-0.2,0.6-0.3,1-0.3s0.7-0.1,1-0.1c0.4,0,0.7,0,1.1,0.1c0.3,0.1,0.6,0.2,0.9,0.4
		c0.3,0.2,0.5,0.4,0.7,0.7c0.2,0.3,0.3,0.6,0.3,1h-1.7c-0.1-0.4-0.2-0.6-0.5-0.8c-0.3-0.1-0.6-0.2-0.9-0.2c-0.1,0-0.2,0-0.4,0
		c-0.2,0-0.3,0.1-0.4,0.1c-0.1,0.1-0.2,0.1-0.3,0.2c-0.1,0.1-0.1,0.2-0.1,0.4c0,0.2,0.1,0.4,0.2,0.5c0.1,0.1,0.3,0.2,0.5,0.3
		c0.2,0.1,0.5,0.1,0.7,0.2c0.3,0.1,0.6,0.1,0.9,0.2c0.3,0.1,0.6,0.1,0.9,0.2c0.3,0.1,0.5,0.2,0.7,0.4c0.2,0.2,0.4,0.4,0.5,0.6
		c0.1,0.2,0.2,0.5,0.2,0.9c0,0.4-0.1,0.8-0.3,1.1c-0.2,0.3-0.5,0.5-0.8,0.7s-0.7,0.3-1,0.4s-0.8,0.1-1.1,0.1c-0.5,0-0.9-0.1-1.3-0.2
		c-0.4-0.1-0.7-0.3-1-0.5c-0.3-0.2-0.5-0.5-0.7-0.8c-0.2-0.3-0.2-0.7-0.3-1.1H430.2z"/>
</g>
<g>
	<path fill="#0B4F69" d="M415.3,112.8h1.8l4.6,7.4h0v-7.4h1.7v10h-1.8l-4.5-7.4h0v7.4h-1.7V112.8z"/>
	<path fill="#0B4F69" d="M428.6,123c-0.6,0-1.1-0.1-1.5-0.3c-0.5-0.2-0.8-0.5-1.1-0.8s-0.6-0.7-0.7-1.2s-0.2-1-0.2-1.5
		c0-0.6,0.1-1.1,0.2-1.5s0.4-0.9,0.7-1.2s0.7-0.6,1.1-0.8c0.5-0.2,1-0.3,1.5-0.3c0.6,0,1.1,0.1,1.5,0.3c0.5,0.2,0.8,0.5,1.1,0.8
		c0.3,0.3,0.6,0.7,0.7,1.2c0.2,0.5,0.2,1,0.2,1.5c0,0.6-0.1,1.1-0.2,1.5c-0.2,0.5-0.4,0.9-0.7,1.2c-0.3,0.3-0.7,0.6-1.1,0.8
		C429.7,122.9,429.1,123,428.6,123z M428.6,121.7c0.4,0,0.7-0.1,0.9-0.2c0.3-0.1,0.5-0.3,0.6-0.6s0.3-0.5,0.4-0.8s0.1-0.6,0.1-0.9
		c0-0.3,0-0.6-0.1-0.9c-0.1-0.3-0.2-0.6-0.4-0.8c-0.2-0.2-0.4-0.4-0.6-0.6c-0.3-0.1-0.6-0.2-0.9-0.2c-0.4,0-0.7,0.1-0.9,0.2
		c-0.3,0.1-0.5,0.3-0.6,0.6c-0.2,0.2-0.3,0.5-0.4,0.8c-0.1,0.3-0.1,0.6-0.1,0.9c0,0.3,0,0.6,0.1,0.9s0.2,0.6,0.4,0.8
		s0.4,0.4,0.6,0.6C427.9,121.7,428.2,121.7,428.6,121.7z"/>
</g>
</svg>
