<?xml version="1.0" encoding="utf-8"?>
<!-- Generator: Adobe Illustrator 17.1.0, SVG Export Plug-In . SVG Version: 6.00 Build 0)  -->
<!DOCTYPE svg PUBLIC "-//W3C//DTD SVG 1.1//EN" "http://www.w3.org/Graphics/SVG/1.1/DTD/svg11.dtd">
<svg version="1.1" id="Layer_1" xmlns="http://www.w3.org/2000/svg" xmlns:xlink="http://www.w3.org/1999/xlink" x="0px" y="0px"
	 viewBox="0 0 354.3 386.4" enable-background="new 0 0 354.3 386.4" xml:space="preserve">
<line fill="none" stroke="#D2D3D4" stroke-width="1.5" stroke-miterlimit="10" x1="67" y1="160.5" x2="300" y2="160.5"/>
<g>
	<g>
		<line fill="none" stroke="#D2D3D4" stroke-width="1.5" stroke-miterlimit="10" x1="182.6" y1="65" x2="182.6" y2="38"/>
		<g>
			<polygon fill="#D2D3D4" points="186.3,63.9 182.6,70.4 178.9,63.9 			"/>
		</g>
	</g>
</g>
<g>
	<rect x="132.6" y="0" fill="#E6E6E5" width="100" height="40"/>
	<g>
		<path fill="#0E506A" d="M158.8,13.1c-0.8-0.6-1.9-0.9-3.2-0.9c-0.5,0-1.1,0.1-1.6,0.2c-0.5,0.1-1,0.3-1.4,0.5
			c-0.4,0.2-0.7,0.6-1,1c-0.2,0.4-0.4,0.9-0.4,1.6c0,0.6,0.2,1.1,0.5,1.4c0.3,0.4,0.8,0.7,1.4,0.9c0.6,0.2,1.2,0.4,1.9,0.6
			c0.7,0.2,1.5,0.3,2.2,0.5c0.8,0.2,1.5,0.4,2.2,0.6c0.7,0.2,1.4,0.6,1.9,1c0.6,0.4,1,0.9,1.4,1.5c0.3,0.6,0.5,1.4,0.5,2.3
			c0,1-0.2,1.9-0.7,2.6c-0.5,0.7-1,1.3-1.7,1.8c-0.7,0.5-1.5,0.8-2.4,1c-0.9,0.2-1.7,0.3-2.6,0.3c-1.1,0-2.1-0.1-3-0.4
			c-0.9-0.3-1.8-0.7-2.5-1.2c-0.7-0.5-1.3-1.2-1.7-2.1c-0.4-0.8-0.6-1.8-0.6-3h2.4c0,0.8,0.2,1.5,0.5,2.1c0.3,0.6,0.7,1,1.2,1.4
			c0.5,0.4,1.1,0.6,1.8,0.8c0.7,0.2,1.4,0.3,2.1,0.3c0.6,0,1.1-0.1,1.7-0.2c0.6-0.1,1.1-0.3,1.6-0.5c0.5-0.3,0.8-0.6,1.1-1
			c0.3-0.4,0.4-1,0.4-1.7c0-0.7-0.2-1.2-0.5-1.6c-0.3-0.4-0.8-0.7-1.4-1c-0.6-0.3-1.2-0.5-1.9-0.6c-0.7-0.2-1.5-0.3-2.2-0.5
			c-0.8-0.2-1.5-0.4-2.2-0.6c-0.7-0.2-1.4-0.5-1.9-0.9c-0.6-0.4-1-0.8-1.4-1.4c-0.3-0.6-0.5-1.3-0.5-2.2c0-1,0.2-1.8,0.6-2.5
			c0.4-0.7,0.9-1.3,1.6-1.7c0.6-0.5,1.4-0.8,2.2-1c0.8-0.2,1.7-0.3,2.5-0.3c1,0,1.9,0.1,2.7,0.3c0.8,0.2,1.6,0.6,2.2,1.1
			c0.6,0.5,1.1,1.1,1.5,1.9c0.4,0.8,0.6,1.6,0.6,2.7h-2.4C160.1,14.7,159.6,13.7,158.8,13.1z"/>
		<path fill="#0E506A" d="M178,13.2c-1-0.7-2.1-1-3.4-1c-1.1,0-2.1,0.2-2.9,0.6c-0.8,0.4-1.5,1-2,1.7c-0.5,0.7-0.9,1.5-1.2,2.5
			c-0.2,0.9-0.4,1.9-0.4,2.9c0,1.1,0.1,2.1,0.4,3.1c0.2,1,0.6,1.8,1.2,2.5c0.5,0.7,1.2,1.3,2,1.7c0.8,0.4,1.8,0.6,2.9,0.6
			c0.8,0,1.6-0.1,2.2-0.4c0.6-0.3,1.2-0.7,1.7-1.1c0.5-0.5,0.8-1.1,1.1-1.7c0.3-0.7,0.4-1.4,0.5-2.2h2.5c-0.2,2.4-1.1,4.2-2.5,5.6
			s-3.3,2-5.7,2c-1.5,0-2.7-0.3-3.8-0.8c-1.1-0.5-2-1.2-2.7-2.1c-0.7-0.9-1.3-1.9-1.6-3.1c-0.4-1.2-0.5-2.5-0.5-3.9
			c0-1.4,0.2-2.7,0.6-3.9c0.4-1.2,1-2.3,1.7-3.2c0.8-0.9,1.7-1.6,2.8-2.1c1.1-0.5,2.4-0.8,3.9-0.8c1,0,1.9,0.1,2.8,0.4
			c0.9,0.3,1.7,0.7,2.4,1.2c0.7,0.5,1.3,1.2,1.7,1.9c0.5,0.8,0.8,1.7,0.9,2.7h-2.5C179.5,14.9,178.9,13.9,178,13.2z"/>
		<path fill="#0E506A" d="M195.1,13.1c-0.8-0.6-1.9-0.9-3.2-0.9c-0.5,0-1.1,0.1-1.6,0.2c-0.5,0.1-1,0.3-1.4,0.5
			c-0.4,0.2-0.7,0.6-1,1c-0.2,0.4-0.4,0.9-0.4,1.6c0,0.6,0.2,1.1,0.5,1.4c0.3,0.4,0.8,0.7,1.4,0.9c0.6,0.2,1.2,0.4,1.9,0.6
			c0.7,0.2,1.5,0.3,2.2,0.5c0.8,0.2,1.5,0.4,2.2,0.6c0.7,0.2,1.4,0.6,1.9,1c0.6,0.4,1,0.9,1.4,1.5c0.3,0.6,0.5,1.4,0.5,2.3
			c0,1-0.2,1.9-0.7,2.6c-0.5,0.7-1,1.3-1.7,1.8c-0.7,0.5-1.5,0.8-2.4,1c-0.9,0.2-1.7,0.3-2.6,0.3c-1.1,0-2.1-0.1-3-0.4
			c-0.9-0.3-1.8-0.7-2.5-1.2c-0.7-0.5-1.3-1.2-1.7-2.1c-0.4-0.8-0.6-1.8-0.6-3h2.4c0,0.8,0.2,1.5,0.5,2.1c0.3,0.6,0.7,1,1.2,1.4
			c0.5,0.4,1.1,0.6,1.8,0.8c0.7,0.2,1.4,0.3,2.1,0.3c0.6,0,1.1-0.1,1.7-0.2c0.6-0.1,1.1-0.3,1.6-0.5c0.5-0.3,0.8-0.6,1.1-1
			c0.3-0.4,0.4-1,0.4-1.7c0-0.7-0.2-1.2-0.5-1.6c-0.3-0.4-0.8-0.7-1.4-1c-0.6-0.3-1.2-0.5-1.9-0.6c-0.7-0.2-1.5-0.3-2.2-0.5
			c-0.8-0.2-1.5-0.4-2.2-0.6c-0.7-0.2-1.4-0.5-1.9-0.9c-0.6-0.4-1-0.8-1.4-1.4c-0.3-0.6-0.5-1.3-0.5-2.2c0-1,0.2-1.8,0.6-2.5
			c0.4-0.7,0.9-1.3,1.6-1.7c0.6-0.5,1.4-0.8,2.2-1c0.8-0.2,1.7-0.3,2.5-0.3c1,0,1.9,0.1,2.7,0.3c0.8,0.2,1.6,0.6,2.2,1.1
			c0.6,0.5,1.1,1.1,1.5,1.9c0.4,0.8,0.6,1.6,0.6,2.7h-2.4C196.5,14.7,196,13.7,195.1,13.1z"/>
		<path fill="#0E506A" d="M212.3,13.1c-0.8-0.6-1.9-0.9-3.2-0.9c-0.5,0-1.1,0.1-1.6,0.2c-0.5,0.1-1,0.3-1.4,0.5
			c-0.4,0.2-0.7,0.6-1,1c-0.2,0.4-0.4,0.9-0.4,1.6c0,0.6,0.2,1.1,0.5,1.4c0.3,0.4,0.8,0.7,1.4,0.9c0.6,0.2,1.2,0.4,1.9,0.6
			c0.7,0.2,1.5,0.3,2.2,0.5c0.8,0.2,1.5,0.4,2.2,0.6c0.7,0.2,1.4,0.6,1.9,1c0.6,0.4,1,0.9,1.4,1.5c0.3,0.6,0.5,1.4,0.5,2.3
			c0,1-0.2,1.9-0.7,2.6c-0.5,0.7-1,1.3-1.7,1.8c-0.7,0.5-1.5,0.8-2.4,1c-0.9,0.2-1.7,0.3-2.6,0.3c-1.1,0-2.1-0.1-3-0.4
			c-0.9-0.3-1.8-0.7-2.5-1.2c-0.7-0.5-1.3-1.2-1.7-2.1c-0.4-0.8-0.6-1.8-0.6-3h2.4c0,0.8,0.2,1.5,0.5,2.1c0.3,0.6,0.7,1,1.2,1.4
			c0.5,0.4,1.1,0.6,1.8,0.8c0.7,0.2,1.4,0.3,2.1,0.3c0.6,0,1.1-0.1,1.7-0.2c0.6-0.1,1.1-0.3,1.6-0.5c0.5-0.3,0.8-0.6,1.1-1
			c0.3-0.4,0.4-1,0.4-1.7c0-0.7-0.2-1.2-0.5-1.6c-0.3-0.4-0.8-0.7-1.4-1c-0.6-0.3-1.2-0.5-1.9-0.6c-0.7-0.2-1.5-0.3-2.2-0.5
			c-0.8-0.2-1.5-0.4-2.2-0.6c-0.7-0.2-1.4-0.5-1.9-0.9c-0.6-0.4-1-0.8-1.4-1.4c-0.3-0.6-0.5-1.3-0.5-2.2c0-1,0.2-1.8,0.6-2.5
			c0.4-0.7,0.9-1.3,1.6-1.7c0.6-0.5,1.4-0.8,2.2-1c0.8-0.2,1.7-0.3,2.5-0.3c1,0,1.9,0.1,2.7,0.3c0.8,0.2,1.6,0.6,2.2,1.1
			c0.6,0.5,1.1,1.1,1.5,1.9c0.4,0.8,0.6,1.6,0.6,2.7h-2.4C213.6,14.7,213.2,13.7,212.3,13.1z"/>
	</g>
</g>
<g>
	<rect x="142.6" y="346.4" fill="#0E506A" width="80" height="40"/>
	<g>
		<path fill="#FFFFFF" d="M169.4,359.7c-1-0.7-2.1-1-3.4-1c-1.1,0-2.1,0.2-2.9,0.6c-0.8,0.4-1.5,1-2,1.7c-0.5,0.7-0.9,1.5-1.1,2.4
			c-0.2,0.9-0.4,1.9-0.4,2.8c0,1.1,0.1,2.1,0.4,3c0.2,1,0.6,1.8,1.1,2.5c0.5,0.7,1.2,1.3,2,1.7c0.8,0.4,1.8,0.6,2.9,0.6
			c0.8,0,1.6-0.1,2.2-0.4c0.6-0.3,1.2-0.6,1.7-1.1c0.5-0.5,0.8-1.1,1.1-1.7c0.3-0.7,0.4-1.4,0.5-2.1h2.5c-0.2,2.4-1.1,4.2-2.4,5.5
			s-3.3,2-5.7,2c-1.5,0-2.7-0.2-3.8-0.7c-1.1-0.5-2-1.2-2.7-2.1c-0.7-0.9-1.3-1.9-1.6-3.1c-0.4-1.2-0.5-2.5-0.5-3.8
			c0-1.4,0.2-2.6,0.6-3.8c0.4-1.2,0.9-2.2,1.7-3.1c0.7-0.9,1.7-1.6,2.8-2.1c1.1-0.5,2.4-0.8,3.8-0.8c1,0,1.9,0.1,2.8,0.4
			c0.9,0.3,1.7,0.6,2.3,1.2c0.7,0.5,1.2,1.1,1.7,1.9c0.5,0.8,0.8,1.6,0.9,2.6h-2.5C171,361.3,170.4,360.3,169.4,359.7z"/>
		<path fill="#FFFFFF" d="M186.4,359.6c-0.8-0.6-1.9-0.9-3.2-0.9c-0.5,0-1,0.1-1.5,0.2c-0.5,0.1-1,0.3-1.3,0.5
			c-0.4,0.2-0.7,0.6-0.9,1c-0.2,0.4-0.4,0.9-0.4,1.5c0,0.6,0.2,1,0.5,1.4c0.3,0.4,0.8,0.7,1.4,0.9c0.6,0.2,1.2,0.4,1.9,0.6
			c0.7,0.1,1.4,0.3,2.2,0.5c0.7,0.2,1.5,0.4,2.2,0.6c0.7,0.2,1.4,0.6,1.9,1c0.6,0.4,1,0.9,1.4,1.5c0.3,0.6,0.5,1.4,0.5,2.3
			c0,1-0.2,1.8-0.7,2.6c-0.4,0.7-1,1.3-1.7,1.7c-0.7,0.4-1.5,0.8-2.3,1c-0.9,0.2-1.7,0.3-2.6,0.3c-1,0-2-0.1-3-0.4
			c-0.9-0.3-1.8-0.7-2.5-1.2c-0.7-0.5-1.3-1.2-1.7-2c-0.4-0.8-0.6-1.8-0.6-2.9h2.4c0,0.8,0.2,1.5,0.5,2c0.3,0.6,0.7,1,1.2,1.4
			c0.5,0.4,1.1,0.6,1.7,0.8c0.7,0.2,1.3,0.3,2,0.3c0.6,0,1.1-0.1,1.7-0.2c0.6-0.1,1.1-0.3,1.5-0.5c0.5-0.3,0.8-0.6,1.1-1
			c0.3-0.4,0.4-1,0.4-1.7c0-0.6-0.2-1.2-0.5-1.6c-0.3-0.4-0.8-0.7-1.4-1c-0.6-0.3-1.2-0.5-1.9-0.6c-0.7-0.2-1.4-0.3-2.2-0.5
			c-0.7-0.2-1.5-0.4-2.2-0.6c-0.7-0.2-1.4-0.5-1.9-0.9c-0.6-0.4-1-0.8-1.4-1.4c-0.3-0.6-0.5-1.3-0.5-2.1c0-0.9,0.2-1.8,0.6-2.5
			c0.4-0.7,0.9-1.3,1.5-1.7c0.6-0.4,1.4-0.8,2.2-1c0.8-0.2,1.6-0.3,2.5-0.3c1,0,1.9,0.1,2.7,0.3c0.8,0.2,1.5,0.6,2.2,1.1
			c0.6,0.5,1.1,1.1,1.5,1.8c0.4,0.7,0.6,1.6,0.6,2.7h-2.4C187.7,361.1,187.2,360.2,186.4,359.6z"/>
		<path fill="#FFFFFF" d="M203.4,359.6c-0.8-0.6-1.9-0.9-3.2-0.9c-0.5,0-1,0.1-1.5,0.2c-0.5,0.1-1,0.3-1.3,0.5
			c-0.4,0.2-0.7,0.6-0.9,1c-0.2,0.4-0.4,0.9-0.4,1.5c0,0.6,0.2,1,0.5,1.4c0.3,0.4,0.8,0.7,1.4,0.9c0.6,0.2,1.2,0.4,1.9,0.6
			c0.7,0.1,1.4,0.3,2.2,0.5c0.7,0.2,1.5,0.4,2.2,0.6c0.7,0.2,1.4,0.6,1.9,1c0.6,0.4,1,0.9,1.4,1.5c0.3,0.6,0.5,1.4,0.5,2.3
			c0,1-0.2,1.8-0.7,2.6c-0.4,0.7-1,1.3-1.7,1.7c-0.7,0.4-1.5,0.8-2.3,1c-0.9,0.2-1.7,0.3-2.6,0.3c-1,0-2-0.1-3-0.4
			c-0.9-0.3-1.8-0.7-2.5-1.2c-0.7-0.5-1.3-1.2-1.7-2c-0.4-0.8-0.6-1.8-0.6-2.9h2.4c0,0.8,0.2,1.5,0.5,2c0.3,0.6,0.7,1,1.2,1.4
			s1.1,0.6,1.7,0.8c0.7,0.2,1.3,0.3,2,0.3c0.6,0,1.1-0.1,1.7-0.2c0.6-0.1,1.1-0.3,1.5-0.5c0.5-0.3,0.8-0.6,1.1-1
			c0.3-0.4,0.4-1,0.4-1.7c0-0.6-0.2-1.2-0.5-1.6c-0.3-0.4-0.8-0.7-1.4-1c-0.6-0.3-1.2-0.5-1.9-0.6c-0.7-0.2-1.4-0.3-2.2-0.5
			c-0.7-0.2-1.5-0.4-2.2-0.6c-0.7-0.2-1.4-0.5-1.9-0.9c-0.6-0.4-1-0.8-1.4-1.4c-0.3-0.6-0.5-1.3-0.5-2.1c0-0.9,0.2-1.8,0.6-2.5
			c0.4-0.7,0.9-1.3,1.5-1.7c0.6-0.4,1.4-0.8,2.2-1c0.8-0.2,1.6-0.3,2.5-0.3c1,0,1.9,0.1,2.7,0.3c0.8,0.2,1.5,0.6,2.2,1.1
			c0.6,0.5,1.1,1.1,1.5,1.8c0.4,0.7,0.6,1.6,0.6,2.7h-2.4C204.7,361.1,204.2,360.2,203.4,359.6z"/>
	</g>
</g>
<g>
	<g>
		<g>
			<circle fill="#0E506A" cx="182.7" cy="160.5" r="80.1"/>
			<g opacity="0.5" enable-background="new    ">
				<g>
					<g>
						<defs>
							<circle id="SVGID_1_" cx="182.5" cy="160.3" r="80.1"/>
						</defs>
						<clipPath id="SVGID_2_">
							<use xlink:href="#SVGID_1_"  overflow="visible"/>
						</clipPath>
						<g clip-path="url(#SVGID_2_)">
							<g>
								
									<line fill="none" stroke="#FFFFFF" stroke-width="0.5" stroke-miterlimit="10" x1="242.4" y1="299.3" x2="242.4" y2="30.7"/>
								
									<line fill="none" stroke="#FFFFFF" stroke-width="0.5" stroke-miterlimit="10" x1="231.5" y1="299.3" x2="231.5" y2="30.7"/>
								<line fill="none" stroke="#FFFFFF" stroke-width="0.5" stroke-miterlimit="10" x1="253.2" y1="299" x2="253.2" y2="30.4"/>
								
									<line fill="none" stroke="#FFFFFF" stroke-width="0.5" stroke-miterlimit="10" x1="264.1" y1="299.3" x2="264.1" y2="30.7"/>
								
									<line fill="none" stroke="#FFFFFF" stroke-width="0.5" stroke-miterlimit="10" x1="198.9" y1="299.3" x2="198.9" y2="30.7"/>
								<line fill="none" stroke="#FFFFFF" stroke-width="0.5" stroke-miterlimit="10" x1="188" y1="299.3" x2="188" y2="30.7"/>
								<line fill="none" stroke="#FFFFFF" stroke-width="0.5" stroke-miterlimit="10" x1="209.8" y1="299" x2="209.8" y2="30.4"/>
								
									<line fill="none" stroke="#FFFFFF" stroke-width="0.5" stroke-miterlimit="10" x1="220.6" y1="299.3" x2="220.6" y2="30.7"/>
								
									<line fill="none" stroke="#FFFFFF" stroke-width="0.5" stroke-miterlimit="10" x1="155.7" y1="299.4" x2="155.7" y2="30.8"/>
								
									<line fill="none" stroke="#FFFFFF" stroke-width="0.5" stroke-miterlimit="10" x1="144.8" y1="299.4" x2="144.8" y2="30.8"/>
								
									<line fill="none" stroke="#FFFFFF" stroke-width="0.5" stroke-miterlimit="10" x1="166.5" y1="299.1" x2="166.5" y2="30.5"/>
								
									<line fill="none" stroke="#FFFFFF" stroke-width="0.5" stroke-miterlimit="10" x1="177.4" y1="299.4" x2="177.4" y2="30.8"/>
								
									<line fill="none" stroke="#FFFFFF" stroke-width="0.5" stroke-miterlimit="10" x1="112.2" y1="299.4" x2="112.2" y2="30.8"/>
								
									<line fill="none" stroke="#FFFFFF" stroke-width="0.5" stroke-miterlimit="10" x1="101.4" y1="299.4" x2="101.4" y2="30.8"/>
								
									<line fill="none" stroke="#FFFFFF" stroke-width="0.5" stroke-miterlimit="10" x1="123.1" y1="299.1" x2="123.1" y2="30.5"/>
								
									<line fill="none" stroke="#FFFFFF" stroke-width="0.5" stroke-miterlimit="10" x1="133.9" y1="299.4" x2="133.9" y2="30.8"/>
							</g>
							<g>
								
									<line fill="none" stroke="#FFFFFF" stroke-width="0.5" stroke-miterlimit="10" x1="53.7" y1="219.9" x2="322.3" y2="219.9"/>
								<line fill="none" stroke="#FFFFFF" stroke-width="0.5" stroke-miterlimit="10" x1="53.7" y1="209" x2="322.3" y2="209"/>
								
									<line fill="none" stroke="#FFFFFF" stroke-width="0.5" stroke-miterlimit="10" x1="53.9" y1="230.8" x2="322.5" y2="230.8"/>
								
									<line fill="none" stroke="#FFFFFF" stroke-width="0.5" stroke-miterlimit="10" x1="53.7" y1="241.6" x2="322.3" y2="241.6"/>
								
									<line fill="none" stroke="#FFFFFF" stroke-width="0.5" stroke-miterlimit="10" x1="53.7" y1="176.5" x2="322.3" y2="176.5"/>
								
									<line fill="none" stroke="#FFFFFF" stroke-width="0.5" stroke-miterlimit="10" x1="53.7" y1="165.6" x2="322.3" y2="165.6"/>
								
									<line fill="none" stroke="#FFFFFF" stroke-width="0.5" stroke-miterlimit="10" x1="53.9" y1="187.3" x2="322.5" y2="187.3"/>
								
									<line fill="none" stroke="#FFFFFF" stroke-width="0.5" stroke-miterlimit="10" x1="53.7" y1="198.2" x2="322.3" y2="198.2"/>
								
									<line fill="none" stroke="#FFFFFF" stroke-width="0.5" stroke-miterlimit="10" x1="53.5" y1="133.2" x2="322.1" y2="133.2"/>
								
									<line fill="none" stroke="#FFFFFF" stroke-width="0.5" stroke-miterlimit="10" x1="53.5" y1="122.4" x2="322.1" y2="122.4"/>
								
									<line fill="none" stroke="#FFFFFF" stroke-width="0.5" stroke-miterlimit="10" x1="53.8" y1="144.1" x2="322.4" y2="144.1"/>
								<line fill="none" stroke="#FFFFFF" stroke-width="0.5" stroke-miterlimit="10" x1="53.5" y1="155" x2="322.1" y2="155"/>
								<line fill="none" stroke="#FFFFFF" stroke-width="0.5" stroke-miterlimit="10" x1="53.5" y1="89.8" x2="322.1" y2="89.8"/>
								<line fill="none" stroke="#FFFFFF" stroke-width="0.5" stroke-miterlimit="10" x1="53.5" y1="78.9" x2="322.1" y2="78.9"/>
								
									<line fill="none" stroke="#FFFFFF" stroke-width="0.5" stroke-miterlimit="10" x1="53.8" y1="100.6" x2="322.4" y2="100.6"/>
								
									<line fill="none" stroke="#FFFFFF" stroke-width="0.5" stroke-miterlimit="10" x1="53.5" y1="111.5" x2="322.1" y2="111.5"/>
							</g>
						</g>
					</g>
				</g>
			</g>
		</g>
	</g>
	<g>
		<g>
			<polygon fill="none" stroke="#FFFFFF" stroke-width="2" stroke-linejoin="round" stroke-miterlimit="10" points="204.7,130.4 
				160.7,130.4 167.3,119.6 198.1,119.6 			"/>
			<polygon fill="none" stroke="#FFFFFF" stroke-width="2" stroke-linejoin="round" stroke-miterlimit="10" points="204.7,130.4 
				160.7,130.4 182.7,158.1 			"/>
			<polyline fill="none" stroke="#FFFFFF" stroke-width="2" stroke-linejoin="round" stroke-miterlimit="10" points="167.3,119.6 
				173.8,130.4 182.7,119.6 191.3,130.4 198,119.6 			"/>
			<polyline fill="none" stroke="#FFFFFF" stroke-width="2" stroke-linejoin="round" stroke-miterlimit="10" points="173.8,130.4 
				182.7,158.1 191.3,130.4 			"/>
		</g>
		
			<line fill="none" stroke="#FFFFFF" stroke-width="2" stroke-linejoin="round" stroke-miterlimit="10" x1="144.8" y1="130.4" x2="153" y2="130.4"/>
		
			<line fill="none" stroke="#FFFFFF" stroke-width="2" stroke-linejoin="round" stroke-miterlimit="10" x1="148.3" y1="120.9" x2="155" y2="126.4"/>
		
			<line fill="none" stroke="#FFFFFF" stroke-width="2" stroke-linejoin="round" stroke-miterlimit="10" x1="148.3" y1="139.9" x2="155" y2="134.3"/>
		
			<line fill="none" stroke="#FFFFFF" stroke-width="2" stroke-linejoin="round" stroke-miterlimit="10" x1="220.7" y1="130.4" x2="212.4" y2="130.4"/>
		
			<line fill="none" stroke="#FFFFFF" stroke-width="2" stroke-linejoin="round" stroke-miterlimit="10" x1="217.1" y1="120.9" x2="210.5" y2="126.4"/>
		
			<line fill="none" stroke="#FFFFFF" stroke-width="2" stroke-linejoin="round" stroke-miterlimit="10" x1="217.1" y1="139.9" x2="210.5" y2="134.3"/>
	</g>
	<g>
		<g>
			<path fill="#FFFFFF" d="M152.7,174.3v12.9H151v-12.9H152.7z"/>
			<path fill="#FFFFFF" d="M156.8,185.1c0.1,0.2,0.3,0.4,0.6,0.6c0.2,0.1,0.5,0.2,0.8,0.3c0.3,0.1,0.6,0.1,0.9,0.1
				c0.2,0,0.5,0,0.8-0.1s0.5-0.1,0.7-0.2c0.2-0.1,0.4-0.2,0.5-0.4c0.1-0.2,0.2-0.4,0.2-0.7c0-0.4-0.2-0.7-0.5-0.9s-0.7-0.4-1.1-0.5
				c-0.4-0.1-0.9-0.2-1.5-0.3c-0.5-0.1-1-0.2-1.5-0.4c-0.5-0.2-0.8-0.4-1.1-0.8c-0.3-0.3-0.5-0.8-0.5-1.4c0-0.5,0.1-0.9,0.3-1.2
				s0.5-0.6,0.8-0.8s0.7-0.4,1.1-0.5s0.8-0.2,1.2-0.2c0.5,0,1,0,1.5,0.1c0.4,0.1,0.8,0.2,1.2,0.5c0.3,0.2,0.6,0.5,0.8,0.9
				s0.3,0.8,0.4,1.4H161c0-0.3-0.1-0.5-0.2-0.7c-0.1-0.2-0.3-0.4-0.5-0.5c-0.2-0.1-0.4-0.2-0.7-0.3c-0.2-0.1-0.5-0.1-0.7-0.1
				c-0.2,0-0.5,0-0.7,0.1s-0.4,0.1-0.6,0.2c-0.2,0.1-0.3,0.2-0.5,0.4c-0.1,0.2-0.2,0.3-0.2,0.6c0,0.3,0.1,0.5,0.3,0.7
				c0.2,0.2,0.4,0.3,0.7,0.4c0.3,0.1,0.6,0.2,1,0.3s0.7,0.2,1.1,0.2c0.4,0.1,0.8,0.2,1.1,0.3c0.4,0.1,0.7,0.3,1,0.5s0.5,0.4,0.7,0.7
				s0.3,0.7,0.3,1.1c0,0.6-0.1,1-0.4,1.4c-0.2,0.4-0.5,0.7-0.9,0.9s-0.8,0.4-1.3,0.5c-0.5,0.1-0.9,0.1-1.4,0.1c-0.5,0-1-0.1-1.5-0.2
				c-0.5-0.1-0.9-0.3-1.2-0.5c-0.4-0.2-0.6-0.6-0.9-1c-0.2-0.4-0.3-0.9-0.4-1.5h1.5C156.6,184.6,156.7,184.9,156.8,185.1z"/>
			<path fill="#FFFFFF" d="M176.7,174.3c1.2,0,2.2,0.3,2.9,0.9c0.7,0.6,1,1.4,1,2.5c0,0.8-0.2,1.5-0.5,2.1c-0.4,0.6-0.9,1-1.7,1.2v0
				c0.4,0.1,0.7,0.2,0.9,0.4c0.2,0.2,0.4,0.4,0.6,0.6c0.1,0.2,0.2,0.5,0.3,0.8c0.1,0.3,0.1,0.6,0.2,0.9c0,0.3,0,0.6,0.1,1
				c0,0.3,0,0.6,0.1,1c0,0.3,0.1,0.6,0.2,0.9s0.2,0.5,0.4,0.7h-1.9c-0.1-0.1-0.2-0.3-0.2-0.5s-0.1-0.5-0.1-0.8c0-0.3,0-0.6,0-0.9
				c0-0.3,0-0.6-0.1-1c0-0.3-0.1-0.6-0.2-0.9c-0.1-0.3-0.2-0.5-0.3-0.7c-0.2-0.2-0.4-0.4-0.6-0.5s-0.6-0.2-1-0.2h-4.2v5.5h-1.7
				v-12.9H176.7z M177.1,180.1c0.4-0.1,0.7-0.2,0.9-0.4c0.3-0.2,0.5-0.4,0.6-0.7s0.2-0.7,0.2-1.1c0-0.6-0.2-1.2-0.5-1.6
				c-0.4-0.4-0.9-0.6-1.7-0.6h-4.2v4.5h3.6C176.3,180.2,176.7,180.2,177.1,180.1z"/>
			<path fill="#FFFFFF" d="M189.4,187.2v-1.5h0c-0.3,0.6-0.7,1-1.2,1.3c-0.5,0.3-1.1,0.4-1.8,0.4c-0.6,0-1.1-0.1-1.5-0.2
				c-0.4-0.2-0.7-0.4-1-0.7s-0.4-0.7-0.5-1.1c-0.1-0.4-0.2-0.9-0.2-1.4v-6.1h1.5v6.3c0,0.6,0.2,1,0.5,1.4c0.3,0.3,0.8,0.5,1.4,0.5
				c0.5,0,0.9-0.1,1.2-0.2c0.3-0.1,0.6-0.3,0.9-0.6c0.2-0.3,0.4-0.6,0.5-0.9c0.1-0.4,0.2-0.7,0.2-1.2v-5.3h1.5v9.3H189.4z"/>
			<path fill="#FFFFFF" d="M195,174.3v4.8h0c0.3-0.5,0.6-0.9,1.2-1.1c0.5-0.2,1.1-0.4,1.8-0.4c0.7,0,1.3,0.1,1.9,0.4s1,0.6,1.3,1.1
				c0.4,0.5,0.6,1,0.8,1.6s0.3,1.2,0.3,1.9s-0.1,1.3-0.3,1.9s-0.4,1.1-0.8,1.5c-0.4,0.4-0.8,0.8-1.3,1s-1.2,0.4-1.9,0.4
				c-0.2,0-0.5,0-0.8-0.1s-0.6-0.1-0.8-0.2c-0.3-0.1-0.5-0.3-0.8-0.4c-0.2-0.2-0.5-0.4-0.6-0.7h0v1.2h-1.5v-12.9H195z M200.5,181.2
				c-0.1-0.4-0.3-0.8-0.5-1.1s-0.5-0.6-0.9-0.8c-0.4-0.2-0.8-0.3-1.3-0.3c-0.5,0-1,0.1-1.3,0.3s-0.7,0.5-0.9,0.8
				c-0.2,0.3-0.4,0.7-0.5,1.1c-0.1,0.4-0.2,0.8-0.2,1.3c0,0.5,0.1,0.9,0.2,1.3c0.1,0.4,0.3,0.8,0.5,1.1c0.2,0.3,0.5,0.6,0.9,0.8
				c0.4,0.2,0.8,0.3,1.4,0.3c0.5,0,1-0.1,1.3-0.3c0.4-0.2,0.6-0.5,0.9-0.8s0.4-0.7,0.5-1.2s0.1-0.9,0.1-1.3
				C200.7,182,200.7,181.6,200.5,181.2z"/>
			<path fill="#FFFFFF" d="M207.6,189.5c-0.2,0.3-0.4,0.6-0.6,0.8s-0.4,0.3-0.7,0.4c-0.3,0.1-0.6,0.1-0.9,0.1c-0.2,0-0.4,0-0.5,0
				c-0.2,0-0.4-0.1-0.5-0.1v-1.4c0.1,0,0.3,0.1,0.4,0.1c0.1,0,0.3,0.1,0.5,0.1c0.3,0,0.6-0.1,0.8-0.2c0.2-0.1,0.4-0.4,0.5-0.6
				l0.6-1.6l-3.7-9.3h1.7l2.7,7.6h0l2.6-7.6h1.6l-4.1,10.5C208,188.8,207.8,189.2,207.6,189.5z"/>
			<path fill="#FFFFFF" d="M146.5,193.3v12.9h-1.7v-12.9H146.5z"/>
			<path fill="#FFFFFF" d="M150.9,196.9v1.5h0c0.6-1.1,1.6-1.7,3-1.7c0.6,0,1.1,0.1,1.5,0.3s0.7,0.4,1,0.7s0.4,0.7,0.5,1.1
				c0.1,0.4,0.2,0.9,0.2,1.4v6.1h-1.5v-6.3c0-0.6-0.2-1-0.5-1.4s-0.8-0.5-1.4-0.5c-0.5,0-0.9,0.1-1.2,0.2c-0.3,0.1-0.6,0.3-0.9,0.6
				c-0.2,0.3-0.4,0.6-0.5,0.9c-0.1,0.4-0.2,0.7-0.2,1.2v5.3h-1.5v-9.3H150.9z"/>
			<path fill="#FFFFFF" d="M161,204.1c0.1,0.2,0.3,0.4,0.6,0.6c0.2,0.1,0.5,0.2,0.8,0.3c0.3,0.1,0.6,0.1,0.9,0.1
				c0.2,0,0.5,0,0.8-0.1s0.5-0.1,0.7-0.2c0.2-0.1,0.4-0.2,0.5-0.4c0.1-0.2,0.2-0.4,0.2-0.7c0-0.4-0.2-0.7-0.5-0.9s-0.7-0.4-1.1-0.5
				c-0.4-0.1-0.9-0.2-1.5-0.3c-0.5-0.1-1-0.2-1.5-0.4c-0.5-0.2-0.8-0.4-1.1-0.8c-0.3-0.3-0.5-0.8-0.5-1.4c0-0.5,0.1-0.9,0.3-1.2
				s0.5-0.6,0.8-0.8s0.7-0.4,1.1-0.5s0.8-0.2,1.2-0.2c0.5,0,1,0,1.5,0.1c0.4,0.1,0.8,0.2,1.2,0.5c0.3,0.2,0.6,0.5,0.8,0.9
				s0.3,0.8,0.4,1.4h-1.5c0-0.3-0.1-0.5-0.2-0.7c-0.1-0.2-0.3-0.4-0.5-0.5c-0.2-0.1-0.4-0.2-0.7-0.3c-0.2-0.1-0.5-0.1-0.7-0.1
				c-0.2,0-0.5,0-0.7,0.1s-0.4,0.1-0.6,0.2c-0.2,0.1-0.3,0.2-0.5,0.4c-0.1,0.2-0.2,0.3-0.2,0.6c0,0.3,0.1,0.5,0.3,0.7
				c0.2,0.2,0.4,0.3,0.7,0.4c0.3,0.1,0.6,0.2,1,0.3s0.7,0.2,1.1,0.2c0.4,0.1,0.8,0.2,1.1,0.3c0.4,0.1,0.7,0.3,1,0.5s0.5,0.4,0.7,0.7
				s0.3,0.7,0.3,1.1c0,0.6-0.1,1-0.4,1.4c-0.2,0.4-0.5,0.7-0.9,0.9s-0.8,0.4-1.3,0.5c-0.5,0.1-0.9,0.1-1.4,0.1c-0.5,0-1-0.1-1.5-0.2
				c-0.5-0.1-0.9-0.3-1.2-0.5c-0.4-0.2-0.6-0.6-0.9-1c-0.2-0.4-0.3-0.9-0.4-1.5h1.5C160.8,203.6,160.9,203.9,161,204.1z"/>
			<path fill="#FFFFFF" d="M173.2,196.9v1.4h-1.9v5.8c0,0.2,0,0.3,0,0.4c0,0.1,0.1,0.2,0.2,0.3c0.1,0.1,0.2,0.1,0.4,0.1
				c0.2,0,0.3,0,0.6,0h0.7v1.4H172c-0.4,0-0.7,0-1-0.1c-0.3-0.1-0.5-0.2-0.7-0.3c-0.2-0.1-0.3-0.3-0.4-0.6s-0.1-0.6-0.1-1v-5.9h-1.6
				v-1.4h1.6v-2.8h1.5v2.8H173.2z"/>
			<path fill="#FFFFFF" d="M182.4,206.4c-0.4,0-0.7-0.1-0.9-0.3c-0.2-0.2-0.4-0.6-0.4-1.1c-0.4,0.5-0.9,0.9-1.5,1.1
				c-0.6,0.2-1.2,0.3-1.8,0.3c-0.4,0-0.8,0-1.2-0.1s-0.7-0.2-1-0.5c-0.3-0.2-0.5-0.5-0.7-0.8s-0.2-0.7-0.2-1.2c0-0.5,0.1-1,0.3-1.3
				s0.4-0.6,0.7-0.8s0.6-0.4,1-0.5s0.8-0.2,1.2-0.3c0.4-0.1,0.8-0.1,1.2-0.2s0.7-0.1,1-0.2s0.5-0.2,0.7-0.3c0.2-0.2,0.3-0.4,0.3-0.7
				c0-0.3-0.1-0.6-0.2-0.8c-0.1-0.2-0.3-0.4-0.5-0.5c-0.2-0.1-0.4-0.2-0.7-0.2s-0.5-0.1-0.7-0.1c-0.6,0-1.2,0.1-1.6,0.4
				c-0.4,0.2-0.7,0.7-0.7,1.4h-1.5c0-0.6,0.1-1.1,0.4-1.5c0.2-0.4,0.5-0.7,0.9-1c0.4-0.2,0.8-0.4,1.2-0.5c0.5-0.1,1-0.2,1.5-0.2
				c0.4,0,0.8,0,1.3,0.1c0.4,0.1,0.8,0.2,1.1,0.4c0.3,0.2,0.6,0.4,0.8,0.8s0.3,0.8,0.3,1.3v4.8c0,0.4,0,0.6,0.1,0.8
				c0,0.2,0.2,0.3,0.4,0.3c0.1,0,0.3,0,0.5-0.1v1.2C183.2,206.3,182.9,206.4,182.4,206.4z M180.2,201.7c-0.3,0.1-0.6,0.1-1,0.2
				s-0.7,0.1-1,0.1c-0.3,0.1-0.7,0.1-0.9,0.3c-0.3,0.1-0.5,0.3-0.7,0.5c-0.2,0.2-0.3,0.5-0.3,0.9c0,0.3,0.1,0.5,0.2,0.6
				s0.2,0.3,0.4,0.4c0.2,0.1,0.4,0.2,0.6,0.2c0.2,0,0.4,0.1,0.7,0.1c0.5,0,0.9-0.1,1.3-0.2c0.4-0.1,0.7-0.3,0.9-0.5
				c0.2-0.2,0.4-0.4,0.5-0.7s0.2-0.5,0.2-0.7v-1.6C180.8,201.5,180.6,201.6,180.2,201.7z"/>
			<path fill="#FFFFFF" d="M186.9,193.3v12.9h-1.5v-12.9H186.9z"/>
			<path fill="#FFFFFF" d="M191.2,193.3v12.9h-1.5v-12.9H191.2z"/>
			<path fill="#FFFFFF" d="M200.6,205.6c-0.7,0.5-1.6,0.8-2.6,0.8c-0.7,0-1.4-0.1-1.9-0.4s-1-0.6-1.4-1c-0.4-0.4-0.7-0.9-0.8-1.5
				c-0.2-0.6-0.3-1.3-0.3-2c0-0.7,0.1-1.4,0.3-1.9c0.2-0.6,0.5-1.1,0.9-1.5s0.9-0.8,1.4-1s1.1-0.4,1.8-0.4c0.8,0,1.5,0.2,2.1,0.5
				c0.5,0.3,1,0.8,1.3,1.3c0.3,0.5,0.6,1.1,0.7,1.7c0.1,0.6,0.2,1.2,0.2,1.8h-7c0,0.4,0,0.8,0.1,1.2c0.1,0.4,0.3,0.7,0.5,1
				c0.2,0.3,0.5,0.5,0.9,0.7c0.4,0.2,0.8,0.3,1.3,0.3c0.6,0,1.2-0.2,1.6-0.5s0.7-0.8,0.8-1.4h1.5C201.7,204.3,201.3,205,200.6,205.6
				z M200.2,199.6c-0.1-0.3-0.3-0.6-0.6-0.8c-0.2-0.2-0.5-0.4-0.8-0.6c-0.3-0.1-0.7-0.2-1.1-0.2c-0.4,0-0.8,0.1-1.1,0.2
				c-0.3,0.1-0.6,0.3-0.8,0.6c-0.2,0.2-0.4,0.5-0.5,0.8c-0.1,0.3-0.2,0.7-0.2,1h5.3C200.4,200.3,200.3,199.9,200.2,199.6z"/>
			<path fill="#FFFFFF" d="M210.8,206.2v-1.3h0c-0.3,0.5-0.6,0.9-1.2,1.1c-0.5,0.2-1.1,0.3-1.8,0.3c-0.7,0-1.3-0.1-1.9-0.4
				s-1-0.6-1.3-1.1c-0.4-0.4-0.6-1-0.8-1.5c-0.2-0.6-0.3-1.2-0.3-1.9c0-0.7,0.1-1.3,0.3-1.9s0.4-1.1,0.8-1.5c0.4-0.4,0.8-0.8,1.3-1
				c0.5-0.3,1.2-0.4,1.9-0.4c0.2,0,0.5,0,0.8,0.1s0.6,0.1,0.8,0.2c0.3,0.1,0.5,0.3,0.8,0.5c0.2,0.2,0.5,0.4,0.6,0.7h0v-4.8h1.5v12.9
				H210.8z M205.3,202.9c0.1,0.4,0.3,0.8,0.5,1.1s0.5,0.6,0.9,0.8c0.4,0.2,0.8,0.3,1.3,0.3c0.5,0,1-0.1,1.3-0.3s0.7-0.5,0.9-0.8
				c0.2-0.3,0.4-0.7,0.5-1.1s0.2-0.8,0.2-1.3c0-0.5-0.1-0.9-0.2-1.3s-0.3-0.8-0.5-1.1c-0.2-0.3-0.5-0.6-0.9-0.8s-0.8-0.3-1.4-0.3
				c-0.5,0-1,0.1-1.3,0.3c-0.4,0.2-0.6,0.5-0.9,0.8c-0.2,0.3-0.4,0.7-0.5,1.2c-0.1,0.4-0.1,0.9-0.1,1.3
				C205.1,202,205.2,202.5,205.3,202.9z"/>
			<path fill="#FFFFFF" d="M215.1,195.6c0.2-0.5,0.5-1,0.8-1.4c0.3-0.4,0.8-0.7,1.3-0.9s1.1-0.3,1.7-0.3c0.6,0,1.1,0.1,1.5,0.2
				s0.9,0.4,1.2,0.7c0.3,0.3,0.6,0.7,0.8,1.1c0.2,0.4,0.3,1,0.3,1.5c0,0.4,0,0.7-0.1,1c-0.1,0.3-0.2,0.6-0.4,0.8s-0.3,0.5-0.5,0.7
				s-0.4,0.4-0.6,0.6c-0.2,0.2-0.4,0.4-0.6,0.5c-0.2,0.2-0.4,0.4-0.5,0.6c-0.2,0.2-0.3,0.4-0.4,0.7s-0.1,0.5-0.1,0.8v0.7h-1.5v-0.8
				c0-0.5,0.1-0.9,0.3-1.3c0.2-0.4,0.4-0.7,0.6-0.9c0.2-0.3,0.5-0.5,0.7-0.8c0.3-0.2,0.5-0.5,0.7-0.7s0.4-0.5,0.5-0.9
				c0.1-0.3,0.2-0.7,0.2-1.1c0-0.7-0.3-1.2-0.6-1.5c-0.4-0.4-0.9-0.6-1.5-0.6c-0.4,0-0.8,0.1-1.1,0.2c-0.3,0.2-0.6,0.4-0.8,0.6
				c-0.2,0.3-0.4,0.6-0.5,0.9c-0.1,0.4-0.1,0.8-0.1,1.2h-1.5C214.9,196.7,215,196.1,215.1,195.6z M219.8,204.2v2h-2v-2H219.8z"/>
		</g>
	</g>
</g>
<g>
	<polyline fill="none" stroke="#D2D3D4" stroke-width="1.5" stroke-miterlimit="10" points="313.9,176.6 313.9,307.2 51.3,307.2 
		51.3,176.6 	"/>
	<g>
		<circle fill="#E6E6E5" cx="51.3" cy="160.5" r="17.1"/>
		<g>
			<path fill="#0E506A" d="M43.8,161.5l-3.8-6.1h2l2.7,4.5l2.6-4.5h2l-3.7,6.1v3.9h-1.8V161.5z"/>
			<path fill="#0E506A" d="M50,162.2c0,0.3,0,0.6,0.1,0.8s0.2,0.5,0.4,0.7c0.2,0.2,0.4,0.4,0.6,0.5c0.2,0.1,0.5,0.2,0.9,0.2
				c0.5,0,0.8-0.1,1.1-0.3c0.3-0.2,0.5-0.5,0.6-0.9h1.5c-0.1,0.4-0.2,0.7-0.4,1.1c-0.2,0.3-0.5,0.6-0.7,0.8s-0.6,0.4-1,0.5
				c-0.4,0.1-0.7,0.2-1.1,0.2c-0.6,0-1.1-0.1-1.5-0.3c-0.4-0.2-0.8-0.4-1.1-0.8c-0.3-0.3-0.5-0.7-0.7-1.2c-0.2-0.5-0.2-1-0.2-1.5
				c0-0.5,0.1-1,0.2-1.5c0.2-0.5,0.4-0.9,0.7-1.2c0.3-0.4,0.7-0.6,1.1-0.8c0.4-0.2,0.9-0.3,1.5-0.3c0.6,0,1.1,0.1,1.5,0.4
				c0.5,0.2,0.8,0.6,1.1,0.9c0.3,0.4,0.5,0.8,0.7,1.4c0.1,0.5,0.2,1,0.1,1.6H50z M53.7,161.2c0-0.3-0.1-0.5-0.2-0.7
				c-0.1-0.2-0.2-0.4-0.4-0.6c-0.2-0.2-0.3-0.3-0.6-0.4c-0.2-0.1-0.5-0.2-0.7-0.2c-0.3,0-0.5,0-0.8,0.1c-0.2,0.1-0.4,0.2-0.6,0.4
				c-0.2,0.2-0.3,0.4-0.4,0.6c-0.1,0.2-0.2,0.5-0.2,0.8H53.7z"/>
			<path fill="#0E506A" d="M57.7,163.1c0,0.5,0.2,0.8,0.5,1c0.3,0.2,0.7,0.3,1.1,0.3c0.1,0,0.3,0,0.5,0c0.2,0,0.4-0.1,0.5-0.1
				s0.3-0.2,0.4-0.3s0.2-0.3,0.1-0.5c0-0.2-0.1-0.4-0.2-0.5c-0.1-0.1-0.3-0.2-0.5-0.3c-0.2-0.1-0.5-0.1-0.7-0.2
				c-0.3-0.1-0.6-0.1-0.9-0.2c-0.3-0.1-0.6-0.1-0.9-0.2c-0.3-0.1-0.5-0.2-0.7-0.4c-0.2-0.2-0.4-0.4-0.5-0.6
				c-0.1-0.2-0.2-0.6-0.2-0.9c0-0.4,0.1-0.7,0.3-1s0.4-0.5,0.7-0.6c0.3-0.2,0.6-0.3,1-0.3s0.7-0.1,1-0.1c0.4,0,0.7,0,1.1,0.1
				c0.3,0.1,0.6,0.2,0.9,0.4c0.3,0.2,0.5,0.4,0.7,0.7c0.2,0.3,0.3,0.6,0.3,1h-1.7c-0.1-0.4-0.2-0.6-0.5-0.8
				c-0.3-0.1-0.6-0.2-0.9-0.2c-0.1,0-0.2,0-0.4,0c-0.2,0-0.3,0.1-0.4,0.1c-0.1,0.1-0.2,0.1-0.3,0.2c-0.1,0.1-0.1,0.2-0.1,0.4
				c0,0.2,0.1,0.4,0.2,0.5c0.1,0.1,0.3,0.2,0.5,0.3c0.2,0.1,0.5,0.1,0.7,0.2c0.3,0.1,0.6,0.1,0.9,0.2c0.3,0.1,0.6,0.1,0.9,0.2
				c0.3,0.1,0.5,0.2,0.7,0.4c0.2,0.2,0.4,0.4,0.5,0.6c0.1,0.2,0.2,0.5,0.2,0.9c0,0.4-0.1,0.8-0.3,1.1c-0.2,0.3-0.5,0.5-0.8,0.7
				s-0.7,0.3-1,0.4s-0.8,0.1-1.1,0.1c-0.5,0-0.9-0.1-1.3-0.2c-0.4-0.1-0.7-0.3-1-0.5c-0.3-0.2-0.5-0.5-0.7-0.8
				c-0.2-0.3-0.2-0.7-0.3-1.1H57.7z"/>
		</g>
	</g>
	<g>
		<circle fill="#E6E6E5" cx="313.9" cy="160.5" r="17.1"/>
		<g>
			<path fill="#0E506A" d="M305.5,155.4h1.8l4.6,7.4h0v-7.4h1.7v10h-1.8l-4.5-7.4h0v7.4h-1.7V155.4z"/>
			<path fill="#0E506A" d="M318.7,165.6c-0.6,0-1.1-0.1-1.5-0.3c-0.5-0.2-0.8-0.5-1.1-0.8s-0.6-0.7-0.7-1.2s-0.2-1-0.2-1.5
				c0-0.6,0.1-1.1,0.2-1.5s0.4-0.9,0.7-1.2s0.7-0.6,1.1-0.8c0.5-0.2,1-0.3,1.5-0.3c0.6,0,1.1,0.1,1.5,0.3c0.5,0.2,0.8,0.5,1.1,0.8
				c0.3,0.3,0.6,0.7,0.7,1.2c0.2,0.5,0.2,1,0.2,1.5c0,0.6-0.1,1.1-0.2,1.5c-0.2,0.5-0.4,0.9-0.7,1.2c-0.3,0.3-0.7,0.6-1.1,0.8
				C319.8,165.5,319.3,165.6,318.7,165.6z M318.7,164.4c0.4,0,0.7-0.1,0.9-0.2c0.3-0.1,0.5-0.3,0.6-0.6s0.3-0.5,0.4-0.8
				s0.1-0.6,0.1-0.9c0-0.3,0-0.6-0.1-0.9c-0.1-0.3-0.2-0.6-0.4-0.8c-0.2-0.2-0.4-0.4-0.6-0.6c-0.3-0.1-0.6-0.2-0.9-0.2
				c-0.4,0-0.7,0.1-0.9,0.2c-0.3,0.1-0.5,0.3-0.6,0.6c-0.2,0.2-0.3,0.5-0.4,0.8c-0.1,0.3-0.1,0.6-0.1,0.9c0,0.3,0,0.6,0.1,0.9
				s0.2,0.6,0.4,0.8s0.4,0.4,0.6,0.6C318.1,164.3,318.4,164.4,318.7,164.4z"/>
		</g>
	</g>
</g>
<rect x="5.4" y="224" fill="#FFFFFF" width="92.9" height="40"/>
<g>
	<path fill="#0E506A" d="M14.1,236.2c-0.3-0.5-0.8-1-1.2-1.4c-0.5-0.4-1-0.6-1.6-0.8s-1.2-0.3-1.9-0.3c-1.2,0-2.2,0.2-3,0.7
		c-0.9,0.5-1.5,1-2.1,1.8s-0.9,1.6-1.2,2.5c-0.3,0.9-0.4,1.9-0.4,2.9c0,1,0.1,1.9,0.4,2.9c0.3,0.9,0.7,1.8,1.2,2.5
		c0.5,0.7,1.2,1.3,2.1,1.8c0.8,0.5,1.9,0.7,3,0.7c0.8,0,1.6-0.2,2.2-0.5c0.7-0.3,1.2-0.7,1.7-1.2s0.9-1.1,1.2-1.8
		c0.3-0.7,0.5-1.4,0.6-2.2h1.7c-0.1,1.1-0.4,2.1-0.8,3c-0.4,0.9-0.9,1.6-1.6,2.2c-0.6,0.6-1.4,1.1-2.2,1.4s-1.8,0.5-2.9,0.5
		c-1.4,0-2.6-0.3-3.7-0.8c-1.1-0.5-1.9-1.2-2.6-2s-1.2-1.8-1.6-3C1.1,244,1,242.8,1,241.6s0.2-2.4,0.5-3.5c0.4-1.1,0.9-2.1,1.6-3
		c0.7-0.9,1.6-1.5,2.6-2c1.1-0.5,2.3-0.8,3.7-0.8c0.8,0,1.7,0.1,2.5,0.4s1.5,0.6,2.2,1.1c0.7,0.5,1.2,1.1,1.7,1.8
		c0.4,0.7,0.7,1.5,0.8,2.5h-1.7C14.7,237.4,14.5,236.7,14.1,236.2z"/>
	<path fill="#0E506A" d="M27.2,237.8c0.8,0.4,1.4,0.9,1.9,1.5s0.9,1.3,1.2,2.2c0.3,0.8,0.4,1.7,0.4,2.6s-0.1,1.8-0.4,2.6
		c-0.3,0.8-0.7,1.5-1.2,2.2c-0.5,0.6-1.2,1.1-1.9,1.5c-0.8,0.4-1.6,0.5-2.6,0.5s-1.9-0.2-2.6-0.5c-0.8-0.4-1.4-0.8-1.9-1.5
		c-0.5-0.6-0.9-1.3-1.2-2.2s-0.4-1.7-0.4-2.6s0.1-1.8,0.4-2.6s0.7-1.5,1.2-2.2s1.2-1.1,1.9-1.5c0.8-0.4,1.6-0.5,2.6-0.5
		S26.4,237.4,27.2,237.8z M22.6,239c-0.6,0.3-1,0.7-1.4,1.2c-0.4,0.5-0.7,1.1-0.8,1.8c-0.2,0.7-0.3,1.3-0.3,2s0.1,1.4,0.3,2
		c0.2,0.7,0.5,1.2,0.8,1.8s0.8,0.9,1.4,1.2s1.2,0.5,2,0.5s1.4-0.2,2-0.5s1-0.7,1.4-1.2s0.7-1.1,0.8-1.8s0.3-1.3,0.3-2
		s-0.1-1.4-0.3-2c-0.2-0.7-0.5-1.2-0.8-1.8c-0.4-0.5-0.8-0.9-1.4-1.2c-0.6-0.3-1.2-0.5-2-0.5S23.1,238.7,22.6,239z"/>
	<path fill="#0E506A" d="M34.5,237.6v2.2h0.1c0.4-0.8,1-1.4,1.6-1.9c0.7-0.4,1.5-0.7,2.6-0.7c0.8,0,1.6,0.2,2.3,0.6
		c0.7,0.4,1.2,1,1.4,1.9c0.4-0.9,1-1.5,1.7-1.9c0.8-0.4,1.5-0.6,2.4-0.6c2.9,0,4.3,1.5,4.3,4.5v8.8h-1.6v-8.7c0-1.1-0.2-1.9-0.7-2.4
		s-1.2-0.8-2.4-0.8c-0.7,0-1.2,0.1-1.7,0.4s-0.8,0.6-1.1,1c-0.3,0.4-0.5,0.9-0.6,1.5c-0.1,0.6-0.2,1.1-0.2,1.7v7.3h-1.6v-8.8
		c0-0.4,0-0.8-0.1-1.2s-0.2-0.7-0.5-1c-0.2-0.3-0.5-0.5-0.8-0.7c-0.4-0.2-0.8-0.2-1.3-0.2c-0.7,0-1.2,0.1-1.7,0.4
		c-0.5,0.2-0.9,0.6-1.2,1s-0.5,0.9-0.7,1.5c-0.1,0.6-0.2,1.2-0.2,1.9v7.2H33v-12.9H34.5z"/>
	<path fill="#0E506A" d="M55.3,237.6v2.5h0c0.4-0.9,1-1.6,1.8-2.1c0.8-0.5,1.8-0.7,2.8-0.7c1,0,1.8,0.2,2.6,0.5
		c0.7,0.4,1.3,0.9,1.8,1.5s0.8,1.3,1.1,2.2s0.4,1.7,0.4,2.6c0,0.9-0.1,1.8-0.4,2.6s-0.6,1.5-1.1,2.2s-1.1,1.1-1.8,1.5
		c-0.7,0.4-1.6,0.5-2.6,0.5c-0.5,0-0.9-0.1-1.4-0.2c-0.5-0.1-0.9-0.3-1.3-0.5c-0.4-0.2-0.8-0.5-1.1-0.9c-0.3-0.3-0.5-0.8-0.7-1.2h0
		v7.2h-1.6v-17.7H55.3z M63.9,242c-0.2-0.7-0.4-1.2-0.8-1.8c-0.3-0.5-0.8-0.9-1.3-1.3c-0.5-0.3-1.2-0.5-1.9-0.5
		c-0.9,0-1.6,0.2-2.2,0.5s-1,0.7-1.4,1.2c-0.4,0.5-0.6,1.1-0.7,1.8c-0.1,0.7-0.2,1.4-0.2,2.1c0,0.7,0.1,1.3,0.2,2
		c0.2,0.7,0.4,1.2,0.8,1.8c0.4,0.5,0.8,0.9,1.4,1.3s1.3,0.5,2.1,0.5c0.8,0,1.4-0.2,1.9-0.5c0.5-0.3,1-0.7,1.3-1.3
		c0.3-0.5,0.6-1.1,0.8-1.8c0.2-0.7,0.2-1.3,0.2-2C64.2,243.4,64.1,242.7,63.9,242z"/>
	<path fill="#0E506A" d="M68.5,239.6c0.3-0.5,0.6-1,1.1-1.3c0.5-0.4,1-0.6,1.6-0.8c0.6-0.2,1.3-0.2,2-0.2c0.6,0,1.1,0.1,1.7,0.2
		c0.6,0.1,1.1,0.3,1.5,0.6s0.8,0.7,1.1,1.3c0.3,0.5,0.4,1.2,0.4,2.1v6.8c0,0.6,0.3,1,0.9,1c0.2,0,0.3,0,0.5-0.1v1.3
		c-0.2,0-0.3,0.1-0.5,0.1s-0.3,0-0.5,0c-0.4,0-0.7-0.1-1-0.2c-0.2-0.1-0.4-0.3-0.6-0.5c-0.1-0.2-0.2-0.4-0.3-0.7
		c0-0.3-0.1-0.6-0.1-0.9h0c-0.3,0.4-0.6,0.8-0.9,1.1c-0.3,0.3-0.6,0.6-1,0.8s-0.8,0.4-1.2,0.5c-0.5,0.1-1,0.2-1.6,0.2
		c-0.6,0-1.2-0.1-1.7-0.2c-0.5-0.1-1-0.4-1.4-0.7c-0.4-0.3-0.7-0.7-0.9-1.2c-0.2-0.5-0.3-1-0.3-1.7c0-0.9,0.2-1.6,0.6-2.1
		c0.4-0.5,0.9-0.9,1.6-1.2s1.4-0.5,2.2-0.6c0.8-0.1,1.7-0.2,2.5-0.3c0.3,0,0.6-0.1,0.9-0.1c0.2-0.1,0.5-0.1,0.6-0.3
		c0.2-0.1,0.3-0.3,0.4-0.5s0.1-0.5,0.1-0.8c0-0.5-0.1-1-0.3-1.3s-0.4-0.6-0.7-0.8c-0.3-0.2-0.7-0.3-1.1-0.4s-0.8-0.1-1.3-0.1
		c-1,0-1.8,0.2-2.5,0.7c-0.6,0.5-1,1.2-1,2.3H68C68.1,240.8,68.2,240.1,68.5,239.6z M76.4,243.4c-0.1,0.2-0.3,0.3-0.6,0.4
		c-0.3,0.1-0.5,0.1-0.8,0.2c-0.7,0.1-1.4,0.2-2.1,0.3c-0.7,0.1-1.4,0.2-1.9,0.4c-0.6,0.2-1.1,0.4-1.4,0.8c-0.4,0.3-0.6,0.8-0.6,1.5
		c0,0.4,0.1,0.8,0.2,1.1s0.4,0.6,0.6,0.8s0.6,0.4,0.9,0.5c0.4,0.1,0.7,0.2,1.1,0.2c0.6,0,1.2-0.1,1.7-0.3c0.6-0.2,1-0.4,1.4-0.8
		c0.4-0.3,0.7-0.8,1-1.3c0.2-0.5,0.4-1.1,0.4-1.7L76.4,243.4L76.4,243.4z"/>
	<path fill="#0E506A" d="M88.6,240.1c-0.2-0.4-0.4-0.7-0.7-0.9s-0.7-0.4-1.1-0.5c-0.4-0.1-0.8-0.2-1.3-0.2c-0.3,0-0.7,0-1.1,0.1
		s-0.7,0.2-1,0.4s-0.5,0.4-0.7,0.7c-0.2,0.3-0.3,0.6-0.3,1c0,0.4,0.1,0.6,0.3,0.9c0.2,0.2,0.4,0.4,0.7,0.6c0.3,0.2,0.6,0.3,0.9,0.4
		s0.6,0.2,0.9,0.3l2.1,0.5c0.5,0.1,0.9,0.2,1.3,0.4s0.8,0.4,1.2,0.7c0.3,0.3,0.6,0.6,0.8,1c0.2,0.4,0.3,0.9,0.3,1.5
		c0,0.7-0.2,1.3-0.5,1.8c-0.3,0.5-0.7,0.9-1.2,1.2c-0.5,0.3-1,0.5-1.7,0.7c-0.6,0.1-1.2,0.2-1.8,0.2c-1.5,0-2.7-0.4-3.7-1.1
		c-0.9-0.7-1.5-1.9-1.6-3.4H82c0.1,1.1,0.5,1.9,1.2,2.4c0.7,0.5,1.6,0.8,2.6,0.8c0.4,0,0.8,0,1.2-0.1c0.4-0.1,0.8-0.2,1.1-0.4
		c0.4-0.2,0.6-0.5,0.9-0.8c0.2-0.3,0.3-0.7,0.3-1.1c0-0.4-0.1-0.7-0.2-1c-0.2-0.3-0.4-0.5-0.6-0.7s-0.6-0.3-0.9-0.4
		c-0.3-0.1-0.7-0.2-1-0.3l-2-0.5c-0.5-0.1-1-0.3-1.4-0.5c-0.4-0.2-0.8-0.4-1.1-0.6s-0.6-0.6-0.8-1s-0.3-0.8-0.3-1.4
		c0-0.6,0.1-1.2,0.4-1.7c0.3-0.5,0.7-0.8,1.1-1.1s1-0.5,1.6-0.6c0.6-0.1,1.1-0.2,1.7-0.2c0.6,0,1.3,0.1,1.8,0.2
		c0.6,0.2,1,0.4,1.5,0.8c0.4,0.3,0.8,0.8,1,1.3s0.4,1.1,0.4,1.8h-1.6C88.9,240.9,88.8,240.5,88.6,240.1z"/>
	<path fill="#0E506A" d="M100.6,240.1c-0.2-0.4-0.4-0.7-0.7-0.9s-0.7-0.4-1.1-0.5c-0.4-0.1-0.8-0.2-1.3-0.2c-0.3,0-0.7,0-1.1,0.1
		s-0.7,0.2-1,0.4s-0.5,0.4-0.7,0.7c-0.2,0.3-0.3,0.6-0.3,1c0,0.4,0.1,0.6,0.3,0.9c0.2,0.2,0.4,0.4,0.7,0.6c0.3,0.2,0.6,0.3,0.9,0.4
		s0.6,0.2,0.9,0.3l2.1,0.5c0.5,0.1,0.9,0.2,1.3,0.4s0.8,0.4,1.2,0.7c0.3,0.3,0.6,0.6,0.8,1c0.2,0.4,0.3,0.9,0.3,1.5
		c0,0.7-0.2,1.3-0.5,1.8c-0.3,0.5-0.7,0.9-1.2,1.2c-0.5,0.3-1,0.5-1.7,0.7c-0.6,0.1-1.2,0.2-1.8,0.2c-1.5,0-2.7-0.4-3.7-1.1
		c-0.9-0.7-1.5-1.9-1.6-3.4H94c0.1,1.1,0.5,1.9,1.2,2.4c0.7,0.5,1.6,0.8,2.6,0.8c0.4,0,0.8,0,1.2-0.1c0.4-0.1,0.8-0.2,1.1-0.4
		c0.4-0.2,0.6-0.5,0.9-0.8c0.2-0.3,0.3-0.7,0.3-1.1c0-0.4-0.1-0.7-0.2-1c-0.2-0.3-0.4-0.5-0.6-0.7s-0.6-0.3-0.9-0.4
		c-0.3-0.1-0.7-0.2-1-0.3l-2-0.5c-0.5-0.1-1-0.3-1.4-0.5c-0.4-0.2-0.8-0.4-1.1-0.6s-0.6-0.6-0.8-1s-0.3-0.8-0.3-1.4
		c0-0.6,0.1-1.2,0.4-1.7c0.3-0.5,0.7-0.8,1.1-1.1s1-0.5,1.6-0.6c0.6-0.1,1.1-0.2,1.7-0.2c0.6,0,1.3,0.1,1.8,0.2
		c0.6,0.2,1,0.4,1.5,0.8c0.4,0.3,0.8,0.8,1,1.3s0.4,1.1,0.4,1.8h-1.6C100.9,240.9,100.8,240.5,100.6,240.1z"/>
</g>
<rect x="273.9" y="203.5" fill="#FFFFFF" width="78.1" height="77"/>
<g>
	<path fill="#0E506A" d="M276.3,209.6V226h10v1.5h-11.7v-17.9H276.3z"/>
	<path fill="#0E506A" d="M289.4,209.6v2.5h-1.6v-2.5H289.4z M289.4,214.6v12.9h-1.6v-12.9H289.4z"/>
	<path fill="#0E506A" d="M294,209.6v7.4h0c0.2-0.5,0.4-0.9,0.7-1.2c0.3-0.4,0.7-0.6,1.1-0.9c0.4-0.2,0.8-0.4,1.3-0.5
		c0.5-0.1,0.9-0.2,1.4-0.2c1,0,1.8,0.2,2.6,0.5c0.7,0.4,1.3,0.9,1.8,1.5s0.8,1.3,1.1,2.2s0.4,1.7,0.4,2.6c0,0.9-0.1,1.8-0.4,2.6
		s-0.6,1.5-1.1,2.2s-1.1,1.1-1.8,1.5c-0.7,0.4-1.6,0.5-2.6,0.5c-1,0-2-0.2-2.8-0.7c-0.8-0.5-1.4-1.2-1.8-2.1h0v2.5h-1.5v-17.9H294z
		 M302.5,219c-0.2-0.7-0.4-1.2-0.8-1.8c-0.3-0.5-0.8-0.9-1.3-1.3c-0.5-0.3-1.2-0.5-1.9-0.5c-0.8,0-1.5,0.2-2.1,0.5s-1,0.7-1.4,1.3
		c-0.4,0.5-0.6,1.1-0.8,1.8s-0.2,1.3-0.2,2c0,0.7,0.1,1.3,0.2,2c0.2,0.7,0.4,1.2,0.8,1.8c0.4,0.5,0.8,0.9,1.4,1.3s1.3,0.5,2.1,0.5
		c0.8,0,1.4-0.2,1.9-0.5c0.5-0.3,1-0.7,1.3-1.3c0.3-0.5,0.6-1.1,0.8-1.8c0.2-0.7,0.2-1.3,0.2-2C302.7,220.4,302.6,219.7,302.5,219z"
		/>
	<path fill="#0E506A" d="M314.2,217.1c-0.2-0.4-0.4-0.7-0.7-0.9s-0.7-0.4-1.1-0.5c-0.4-0.1-0.8-0.2-1.3-0.2c-0.3,0-0.7,0-1.1,0.1
		s-0.7,0.2-1,0.4s-0.5,0.4-0.7,0.7c-0.2,0.3-0.3,0.6-0.3,1c0,0.4,0.1,0.6,0.3,0.9c0.2,0.2,0.4,0.4,0.7,0.6c0.3,0.2,0.6,0.3,0.9,0.4
		s0.6,0.2,0.9,0.3l2.1,0.5c0.5,0.1,0.9,0.2,1.3,0.4s0.8,0.4,1.2,0.7c0.3,0.3,0.6,0.6,0.8,1c0.2,0.4,0.3,0.9,0.3,1.5
		c0,0.7-0.2,1.3-0.5,1.8c-0.3,0.5-0.7,0.9-1.2,1.2c-0.5,0.3-1,0.5-1.7,0.7c-0.6,0.1-1.2,0.2-1.8,0.2c-1.5,0-2.7-0.4-3.7-1.1
		c-0.9-0.7-1.5-1.9-1.6-3.4h1.6c0.1,1.1,0.5,1.9,1.2,2.4c0.7,0.5,1.6,0.8,2.6,0.8c0.4,0,0.8,0,1.2-0.1c0.4-0.1,0.8-0.2,1.1-0.4
		c0.4-0.2,0.6-0.5,0.9-0.8c0.2-0.3,0.3-0.7,0.3-1.1c0-0.4-0.1-0.7-0.2-1c-0.2-0.3-0.4-0.5-0.6-0.7s-0.6-0.3-0.9-0.4
		c-0.3-0.1-0.7-0.2-1-0.3l-2-0.5c-0.5-0.1-1-0.3-1.4-0.5c-0.4-0.2-0.8-0.4-1.1-0.6s-0.6-0.6-0.8-1s-0.3-0.8-0.3-1.4
		c0-0.6,0.1-1.2,0.4-1.7c0.3-0.5,0.7-0.8,1.1-1.1s1-0.5,1.6-0.6c0.6-0.1,1.1-0.2,1.7-0.2c0.6,0,1.3,0.1,1.8,0.2
		c0.6,0.2,1,0.4,1.5,0.8c0.4,0.3,0.8,0.8,1,1.3s0.4,1.1,0.4,1.8h-1.6C314.4,217.9,314.3,217.5,314.2,217.1z"/>
	<path fill="#0E506A" d="M319.1,216.6c0.3-0.5,0.6-1,1.1-1.3c0.5-0.4,1-0.6,1.6-0.8c0.6-0.2,1.3-0.2,2-0.2c0.6,0,1.1,0.1,1.7,0.2
		c0.6,0.1,1.1,0.3,1.5,0.6s0.8,0.7,1.1,1.3c0.3,0.5,0.4,1.2,0.4,2.1v6.8c0,0.6,0.3,1,0.9,1c0.2,0,0.3,0,0.5-0.1v1.3
		c-0.2,0-0.3,0.1-0.5,0.1s-0.3,0-0.5,0c-0.4,0-0.7-0.1-1-0.2c-0.2-0.1-0.4-0.3-0.6-0.5c-0.1-0.2-0.2-0.4-0.3-0.7
		c0-0.3-0.1-0.6-0.1-0.9h0c-0.3,0.4-0.6,0.8-0.9,1.1c-0.3,0.3-0.6,0.6-1,0.8s-0.8,0.4-1.2,0.5c-0.5,0.1-1,0.2-1.6,0.2
		c-0.6,0-1.2-0.1-1.7-0.2c-0.5-0.1-1-0.4-1.4-0.7c-0.4-0.3-0.7-0.7-0.9-1.2c-0.2-0.5-0.3-1-0.3-1.7c0-0.9,0.2-1.6,0.6-2.1
		c0.4-0.5,0.9-0.9,1.6-1.2s1.4-0.5,2.2-0.6c0.8-0.1,1.7-0.2,2.5-0.3c0.3,0,0.6-0.1,0.9-0.1c0.2-0.1,0.5-0.1,0.6-0.3
		c0.2-0.1,0.3-0.3,0.4-0.5s0.1-0.5,0.1-0.8c0-0.5-0.1-1-0.3-1.3s-0.4-0.6-0.7-0.8c-0.3-0.2-0.7-0.3-1.1-0.4s-0.8-0.1-1.3-0.1
		c-1,0-1.8,0.2-2.5,0.7c-0.6,0.5-1,1.2-1,2.3h-1.6C318.7,217.8,318.8,217.1,319.1,216.6z M327,220.4c-0.1,0.2-0.3,0.3-0.6,0.4
		c-0.3,0.1-0.5,0.1-0.8,0.2c-0.7,0.1-1.4,0.2-2.1,0.3c-0.7,0.1-1.4,0.2-1.9,0.4c-0.6,0.2-1.1,0.4-1.4,0.8c-0.4,0.3-0.6,0.8-0.6,1.5
		c0,0.4,0.1,0.8,0.2,1.1s0.4,0.6,0.6,0.8s0.6,0.4,0.9,0.5c0.4,0.1,0.7,0.2,1.1,0.2c0.6,0,1.2-0.1,1.7-0.3c0.6-0.2,1-0.4,1.4-0.8
		c0.4-0.3,0.7-0.8,1-1.3c0.2-0.5,0.4-1.1,0.4-1.7L327,220.4L327,220.4z"/>
	<path fill="#0E506A" d="M339.2,217.1c-0.2-0.4-0.4-0.7-0.7-0.9s-0.7-0.4-1.1-0.5c-0.4-0.1-0.8-0.2-1.3-0.2c-0.3,0-0.7,0-1.1,0.1
		s-0.7,0.2-1,0.4s-0.5,0.4-0.7,0.7c-0.2,0.3-0.3,0.6-0.3,1c0,0.4,0.1,0.6,0.3,0.9c0.2,0.2,0.4,0.4,0.7,0.6c0.3,0.2,0.6,0.3,0.9,0.4
		s0.6,0.2,0.9,0.3l2.1,0.5c0.5,0.1,0.9,0.2,1.3,0.4s0.8,0.4,1.2,0.7c0.3,0.3,0.6,0.6,0.8,1c0.2,0.4,0.3,0.9,0.3,1.5
		c0,0.7-0.2,1.3-0.5,1.8c-0.3,0.5-0.7,0.9-1.2,1.2c-0.5,0.3-1,0.5-1.7,0.7c-0.6,0.1-1.2,0.2-1.8,0.2c-1.5,0-2.7-0.4-3.7-1.1
		c-0.9-0.7-1.5-1.9-1.6-3.4h1.6c0.1,1.1,0.5,1.9,1.2,2.4c0.7,0.5,1.6,0.8,2.6,0.8c0.4,0,0.8,0,1.2-0.1c0.4-0.1,0.8-0.2,1.1-0.4
		c0.4-0.2,0.6-0.5,0.9-0.8c0.2-0.3,0.3-0.7,0.3-1.1c0-0.4-0.1-0.7-0.2-1c-0.2-0.3-0.4-0.5-0.6-0.7s-0.6-0.3-0.9-0.4
		c-0.3-0.1-0.7-0.2-1-0.3l-2-0.5c-0.5-0.1-1-0.3-1.4-0.5c-0.4-0.2-0.8-0.4-1.1-0.6s-0.6-0.6-0.8-1s-0.3-0.8-0.3-1.4
		c0-0.6,0.1-1.2,0.4-1.7c0.3-0.5,0.7-0.8,1.1-1.1s1-0.5,1.6-0.6c0.6-0.1,1.1-0.2,1.7-0.2c0.6,0,1.3,0.1,1.8,0.2
		c0.6,0.2,1,0.4,1.5,0.8c0.4,0.3,0.8,0.8,1,1.3s0.4,1.1,0.4,1.8h-1.6C339.4,217.9,339.3,217.5,339.2,217.1z"/>
	<path fill="#0E506A" d="M351.2,217.1c-0.2-0.4-0.4-0.7-0.7-0.9s-0.7-0.4-1.1-0.5c-0.4-0.1-0.8-0.2-1.3-0.2c-0.3,0-0.7,0-1.1,0.1
		s-0.7,0.2-1,0.4s-0.5,0.4-0.7,0.7c-0.2,0.3-0.3,0.6-0.3,1c0,0.4,0.1,0.6,0.3,0.9c0.2,0.2,0.4,0.4,0.7,0.6c0.3,0.2,0.6,0.3,0.9,0.4
		s0.6,0.2,0.9,0.3l2.1,0.5c0.5,0.1,0.9,0.2,1.3,0.4s0.8,0.4,1.2,0.7c0.3,0.3,0.6,0.6,0.8,1c0.2,0.4,0.3,0.9,0.3,1.5
		c0,0.7-0.2,1.3-0.5,1.8c-0.3,0.5-0.7,0.9-1.2,1.2c-0.5,0.3-1,0.5-1.7,0.7c-0.6,0.1-1.2,0.2-1.8,0.2c-1.5,0-2.7-0.4-3.7-1.1
		c-0.9-0.7-1.5-1.9-1.6-3.4h1.6c0.1,1.1,0.5,1.9,1.2,2.4c0.7,0.5,1.6,0.8,2.6,0.8c0.4,0,0.8,0,1.2-0.1c0.4-0.1,0.8-0.2,1.1-0.4
		c0.4-0.2,0.6-0.5,0.9-0.8c0.2-0.3,0.3-0.7,0.3-1.1c0-0.4-0.1-0.7-0.2-1c-0.2-0.3-0.4-0.5-0.6-0.7s-0.6-0.3-0.9-0.4
		c-0.3-0.1-0.7-0.2-1-0.3l-2-0.5c-0.5-0.1-1-0.3-1.4-0.5c-0.4-0.2-0.8-0.4-1.1-0.6s-0.6-0.6-0.8-1s-0.3-0.8-0.3-1.4
		c0-0.6,0.1-1.2,0.4-1.7c0.3-0.5,0.7-0.8,1.1-1.1s1-0.5,1.6-0.6c0.6-0.1,1.1-0.2,1.7-0.2c0.6,0,1.3,0.1,1.8,0.2
		c0.6,0.2,1,0.4,1.5,0.8c0.4,0.3,0.8,0.8,1,1.3s0.4,1.1,0.4,1.8h-1.6C351.5,217.9,351.4,217.5,351.2,217.1z"/>
	<path fill="#0E506A" d="M315.2,252.1c-0.9,0.5-1.9,0.7-2.9,0.7c-0.8,0-1.5-0.1-2.1-0.3c-0.7-0.2-1.2-0.5-1.7-0.9
		c-0.5-0.4-0.9-0.9-1.1-1.6c-0.3-0.6-0.4-1.3-0.4-2.1c0-0.6,0.1-1.2,0.4-1.8s0.6-1,1-1.5c0.4-0.4,0.9-0.8,1.4-1.2
		c0.5-0.4,1-0.7,1.5-0.9c-0.2-0.3-0.5-0.6-0.8-1c-0.3-0.3-0.5-0.7-0.7-1c-0.2-0.3-0.4-0.7-0.5-1.1s-0.2-0.8-0.2-1.2
		c0-0.5,0.1-1,0.3-1.5c0.2-0.4,0.5-0.8,0.8-1.1c0.4-0.3,0.8-0.6,1.2-0.7s1-0.3,1.5-0.3c0.6,0,1.1,0.1,1.5,0.3
		c0.5,0.2,0.9,0.4,1.2,0.7c0.4,0.3,0.6,0.7,0.8,1.1c0.2,0.4,0.3,0.9,0.3,1.5c0,0.6-0.1,1.1-0.3,1.5c-0.2,0.5-0.5,0.9-0.8,1.2
		c-0.3,0.4-0.7,0.7-1.1,1c-0.4,0.3-0.8,0.6-1.3,0.9l3.9,4.7c0.2-0.4,0.4-0.9,0.4-1.3c0.1-0.4,0.1-1,0.1-1.7h1.6
		c0,0.5-0.1,1.1-0.2,1.9c-0.1,0.8-0.4,1.6-0.8,2.3l3,3.6h-2l-1.9-2.3C316.9,251,316.1,251.6,315.2,252.1z M310.8,244.4
		c-0.4,0.3-0.8,0.6-1.2,1c-0.3,0.4-0.6,0.8-0.8,1.2s-0.3,0.9-0.3,1.5c0,0.5,0.1,1,0.3,1.4s0.5,0.8,0.9,1.1s0.8,0.6,1.2,0.7
		c0.5,0.2,1,0.2,1.5,0.2c0.9,0,1.7-0.2,2.4-0.7c0.7-0.5,1.3-1.1,1.8-1.8l-4.5-5.4C311.7,243.8,311.3,244.1,310.8,244.4z
		 M311.4,236.5c-0.5,0.4-0.7,1-0.7,1.7c0,0.3,0.1,0.6,0.2,1s0.3,0.6,0.5,1s0.4,0.6,0.7,0.9c0.2,0.3,0.5,0.6,0.6,0.8
		c0.3-0.2,0.6-0.4,1-0.7s0.6-0.5,0.9-0.8s0.5-0.6,0.6-1c0.2-0.4,0.2-0.8,0.2-1.2c0-0.8-0.2-1.3-0.7-1.7c-0.5-0.4-1-0.6-1.7-0.6
		C312.4,236,311.8,236.2,311.4,236.5z"/>
	<path fill="#0E506A" d="M299.1,273.5l-0.2-3.2h0c-0.3,0.6-0.7,1.2-1.1,1.6c-0.4,0.5-0.9,0.8-1.5,1.1c-0.5,0.3-1.1,0.5-1.7,0.6
		c-0.6,0.1-1.2,0.2-1.9,0.2c-1.4,0-2.6-0.3-3.7-0.8c-1.1-0.5-1.9-1.2-2.6-2s-1.2-1.8-1.6-3c-0.3-1.1-0.5-2.3-0.5-3.5
		s0.2-2.4,0.5-3.5c0.4-1.1,0.9-2.1,1.6-3c0.7-0.9,1.6-1.5,2.6-2c1.1-0.5,2.3-0.8,3.7-0.8c0.9,0,1.8,0.1,2.7,0.4
		c0.8,0.2,1.6,0.6,2.2,1.1s1.2,1.1,1.7,1.9c0.4,0.7,0.8,1.6,0.9,2.6h-1.7c0-0.5-0.2-1-0.5-1.6c-0.3-0.5-0.7-1-1.2-1.4
		c-0.5-0.4-1.1-0.8-1.8-1.1c-0.7-0.3-1.5-0.4-2.3-0.4c-1.2,0-2.2,0.2-3,0.7c-0.9,0.5-1.5,1-2.1,1.8s-0.9,1.6-1.2,2.5
		c-0.3,0.9-0.4,1.9-0.4,2.9c0,1,0.1,1.9,0.4,2.9c0.3,0.9,0.7,1.8,1.2,2.5c0.5,0.7,1.2,1.3,2.1,1.8c0.8,0.5,1.9,0.7,3,0.7
		c1,0,1.9-0.2,2.6-0.5c0.8-0.3,1.4-0.8,2-1.4c0.5-0.6,0.9-1.3,1.2-2.1s0.4-1.7,0.4-2.6h-6.1v-1.5h7.6v9.1H299.1z"/>
	<path fill="#0E506A" d="M304.7,260.6v3h0c0.4-1,1-1.9,1.9-2.4s1.8-0.8,3-0.8v1.6c-0.7,0-1.4,0.1-2,0.3c-0.6,0.2-1.1,0.5-1.5,1
		c-0.4,0.4-0.8,0.9-1,1.5s-0.3,1.2-0.3,1.9v6.9h-1.6v-12.9H304.7z"/>
	<path fill="#0E506A" d="M320.1,273.5v-2.3h0c-0.4,0.9-1,1.5-1.8,2c-0.8,0.5-1.7,0.7-2.6,0.7c-0.8,0-1.5-0.1-2.1-0.3
		c-0.6-0.2-1-0.5-1.4-1c-0.4-0.4-0.6-0.9-0.8-1.5c-0.2-0.6-0.2-1.3-0.2-2v-8.4h1.6v8.4c0,1.2,0.3,2,0.8,2.6c0.5,0.6,1.4,0.9,2.6,0.9
		c0.7,0,1.3-0.1,1.8-0.4c0.5-0.3,0.9-0.7,1.2-1.2c0.3-0.5,0.5-1,0.7-1.7c0.1-0.6,0.2-1.3,0.2-1.9v-6.8h1.6v12.9H320.1z"/>
	<path fill="#0E506A" d="M326.1,260.6v2.2h0c0.3-0.8,0.8-1.4,1.6-1.9c0.8-0.5,1.6-0.7,2.5-0.7c0.9,0,1.7,0.1,2.3,0.4s1.1,0.6,1.5,1
		c0.4,0.4,0.6,0.9,0.8,1.6c0.2,0.6,0.2,1.3,0.2,2.1v8.3h-1.6v-8c0-0.6,0-1.1-0.2-1.5c-0.1-0.5-0.3-0.9-0.5-1.2s-0.6-0.6-1-0.8
		s-1-0.3-1.6-0.3c-0.6,0-1.2,0.1-1.7,0.3c-0.5,0.2-0.9,0.5-1.2,0.9s-0.6,0.9-0.8,1.4c-0.2,0.5-0.3,1.1-0.3,1.8v7.5h-1.6v-12.9H326.1
		z"/>
	<path fill="#0E506A" d="M343.1,260.6v1.3h-2.6v8.7c0,0.5,0.1,0.9,0.2,1.2c0.1,0.3,0.5,0.5,1.1,0.5c0.4,0,0.9,0,1.3-0.1v1.3
		c-0.2,0-0.5,0-0.7,0s-0.5,0-0.7,0c-1,0-1.8-0.2-2.2-0.6c-0.4-0.4-0.6-1.2-0.6-2.3v-8.8h-2.2v-1.3h2.2v-3.9h1.6v3.9H343.1z"/>
</g>
<g>
	<g>
		<line fill="none" stroke="#D2D3D4" stroke-width="1.5" stroke-miterlimit="10" x1="182.6" y1="334.2" x2="182.6" y2="307.2"/>
		<g>
			<polygon fill="#D2D3D4" points="186.3,333.1 182.6,339.6 178.9,333.1 			"/>
		</g>
	</g>
</g>
</svg>
