<?xml version="1.0" encoding="utf-8"?>
<!-- Generator: Adobe Illustrator 17.1.0, SVG Export Plug-In . SVG Version: 6.00 Build 0)  -->
<!DOCTYPE svg PUBLIC "-//W3C//DTD SVG 1.1//EN" "http://www.w3.org/Graphics/SVG/1.1/DTD/svg11.dtd">
<svg version="1.1" id="Layer_1" xmlns="http://www.w3.org/2000/svg" xmlns:xlink="http://www.w3.org/1999/xlink" x="0px" y="0px"
	 viewBox="0 0 253 253" enable-background="new 0 0 253 253" xml:space="preserve">
<g>
	<g>
		<g>
			<g>
				<circle fill="#074E68" cx="126.8" cy="126" r="126.1"/>
				<g opacity="0.5" enable-background="new    ">
					<g>
						<g>
							<g>
								<g>
									<g>
										<g>
											<g>
												<defs>
													<circle id="SVGID_1_" cx="126.4" cy="125.8" r="126.1"/>
												</defs>
												<clipPath id="SVGID_2_">
													<use xlink:href="#SVGID_1_"  overflow="visible"/>
												</clipPath>
												<g clip-path="url(#SVGID_2_)">
													<g>
														
															<line fill="none" stroke="#FFFFFF" stroke-width="0.5" stroke-miterlimit="10" x1="220.6" y1="344.6" x2="220.6" y2="-78.4"/>
														
															<line fill="none" stroke="#FFFFFF" stroke-width="0.5" stroke-miterlimit="10" x1="203.5" y1="344.6" x2="203.5" y2="-78.4"/>
														
															<line fill="none" stroke="#FFFFFF" stroke-width="0.5" stroke-miterlimit="10" x1="237.7" y1="344.2" x2="237.7" y2="-78.8"/>
														
															<line fill="none" stroke="#FFFFFF" stroke-width="0.5" stroke-miterlimit="10" x1="254.9" y1="344.6" x2="254.9" y2="-78.4"/>
														
															<line fill="none" stroke="#FFFFFF" stroke-width="0.5" stroke-miterlimit="10" x1="152.3" y1="344.6" x2="152.3" y2="-78.4"/>
														
															<line fill="none" stroke="#FFFFFF" stroke-width="0.5" stroke-miterlimit="10" x1="135.2" y1="344.6" x2="135.2" y2="-78.4"/>
														
															<line fill="none" stroke="#FFFFFF" stroke-width="0.5" stroke-miterlimit="10" x1="169.3" y1="344.2" x2="169.3" y2="-78.8"/>
														
															<line fill="none" stroke="#FFFFFF" stroke-width="0.5" stroke-miterlimit="10" x1="186.4" y1="344.6" x2="186.4" y2="-78.4"/>
														
															<line fill="none" stroke="#FFFFFF" stroke-width="0.5" stroke-miterlimit="10" x1="84" y1="344.9" x2="84" y2="-78.2"/>
														
															<line fill="none" stroke="#FFFFFF" stroke-width="0.5" stroke-miterlimit="10" x1="67.1" y1="346.5" x2="67.1" y2="-76.5"/>
														
															<line fill="none" stroke="#FFFFFF" stroke-width="0.5" stroke-miterlimit="10" x1="101.3" y1="344.4" x2="101.3" y2="-78.6"/>
														
															<line fill="none" stroke="#FFFFFF" stroke-width="0.5" stroke-miterlimit="10" x1="118.4" y1="344.9" x2="118.4" y2="-78.2"/>
														
															<line fill="none" stroke="#FFFFFF" stroke-width="0.5" stroke-miterlimit="10" x1="15.7" y1="344.9" x2="15.7" y2="-78.2"/>
														
															<line fill="none" stroke="#FFFFFF" stroke-width="0.5" stroke-miterlimit="10" x1="-1.5" y1="344.9" x2="-1.5" y2="-78.2"/>
														
															<line fill="none" stroke="#FFFFFF" stroke-width="0.5" stroke-miterlimit="10" x1="32.8" y1="344.4" x2="32.8" y2="-78.6"/>
														
															<line fill="none" stroke="#FFFFFF" stroke-width="0.5" stroke-miterlimit="10" x1="49.9" y1="344.9" x2="49.9" y2="-78.2"/>
													</g>
													<g>
														
															<line fill="none" stroke="#FFFFFF" stroke-width="0.5" stroke-miterlimit="10" x1="-76.4" y1="219.6" x2="346.6" y2="219.6"/>
														
															<line fill="none" stroke="#FFFFFF" stroke-width="0.5" stroke-miterlimit="10" x1="-76.4" y1="202.5" x2="346.6" y2="202.5"/>
														
															<line fill="none" stroke="#FFFFFF" stroke-width="0.5" stroke-miterlimit="10" x1="-76" y1="236.6" x2="347.1" y2="236.6"/>
														
															<line fill="none" stroke="#FFFFFF" stroke-width="0.5" stroke-miterlimit="10" x1="-76.4" y1="253.8" x2="346.6" y2="253.8"/>
														
															<line fill="none" stroke="#FFFFFF" stroke-width="0.5" stroke-miterlimit="10" x1="-76.4" y1="151.1" x2="346.6" y2="151.1"/>
														
															<line fill="none" stroke="#FFFFFF" stroke-width="0.5" stroke-miterlimit="10" x1="-76.4" y1="134.1" x2="346.6" y2="134.1"/>
														
															<line fill="none" stroke="#FFFFFF" stroke-width="0.5" stroke-miterlimit="10" x1="-76" y1="168.3" x2="347.1" y2="168.3"/>
														
															<line fill="none" stroke="#FFFFFF" stroke-width="0.5" stroke-miterlimit="10" x1="-76.4" y1="185.3" x2="346.6" y2="185.3"/>
														
															<line fill="none" stroke="#FFFFFF" stroke-width="0.5" stroke-miterlimit="10" x1="-76.6" y1="83.1" x2="346.4" y2="83.1"/>
														
															<line fill="none" stroke="#FFFFFF" stroke-width="0.5" stroke-miterlimit="10" x1="-76.6" y1="65.9" x2="346.4" y2="65.9"/>
														
															<line fill="none" stroke="#FFFFFF" stroke-width="0.5" stroke-miterlimit="10" x1="-76.2" y1="100.2" x2="346.8" y2="100.2"/>
														
															<line fill="none" stroke="#FFFFFF" stroke-width="0.5" stroke-miterlimit="10" x1="-76.6" y1="117.3" x2="346.4" y2="117.3"/>
														
															<line fill="none" stroke="#FFFFFF" stroke-width="0.5" stroke-miterlimit="10" x1="-76.6" y1="14.6" x2="346.4" y2="14.6"/>
														
															<line fill="none" stroke="#FFFFFF" stroke-width="0.5" stroke-miterlimit="10" x1="-76.6" y1="-2.5" x2="346.4" y2="-2.5"/>
														
															<line fill="none" stroke="#FFFFFF" stroke-width="0.5" stroke-miterlimit="10" x1="-76.2" y1="31.7" x2="346.8" y2="31.7"/>
														
															<line fill="none" stroke="#FFFFFF" stroke-width="0.5" stroke-miterlimit="10" x1="-76.6" y1="48.9" x2="346.4" y2="48.9"/>
													</g>
												</g>
											</g>
										</g>
									</g>
								</g>
							</g>
						</g>
					</g>
				</g>
			</g>
			<g>
				<line fill="none" stroke="#FFFFFF" stroke-miterlimit="10" x1="203.2" y1="176.5" x2="203.2" y2="78.6"/>
				<polygon fill="#FFFFFF" points="203.2,178.5 200.4,175.6 206.1,175.6 				"/>
				<polygon fill="#FFFFFF" points="203.2,75.7 206.1,78.6 200.4,78.6 				"/>
			</g>
			<g>
				<line fill="none" stroke="#FFFFFF" stroke-miterlimit="10" x1="171.5" y1="185.5" x2="80.7" y2="185.5"/>
				<polygon fill="#FFFFFF" points="173,185.5 170.2,188.4 170.2,182.5 				"/>
				<polygon fill="#FFFFFF" points="79.2,185.5 82,182.5 82,188.4 				"/>
			</g>
		</g>
		<g>
			<circle fill="none" stroke="#FFFFFF" stroke-width="3" stroke-miterlimit="10" cx="126.1" cy="129.2" r="46.8"/>
			<ellipse fill="none" stroke="#FFFFFF" stroke-width="3" stroke-miterlimit="10" cx="138.9" cy="156.7" rx="9.8" ry="5.3"/>
			<path fill="none" stroke="#FFFFFF" stroke-width="3" stroke-miterlimit="10" d="M73.3,113.1L73.3,113.1
				c-9.3,0-16.6,7.5-16.6,16.5c0,9.1,7.6,16.5,16.6,16.5l0,0V113.1L73.3,113.1L73.3,113.1z"/>
			<path fill="none" stroke="#FFFFFF" stroke-width="3" stroke-miterlimit="10" d="M178.8,111.5L178.8,111.5v33.2l0,0
				c9.2,0,16.5-7.5,16.5-16.5C195.4,119,188,111.5,178.8,111.5z"/>
			<path fill="none" stroke="#FFFFFF" stroke-width="3" stroke-miterlimit="10" d="M148.5,157.2c8.4,0.7,19.6,1.1,23.4-1
				c3.2-1.8,6.6-6.9,9.2-11.7"/>
			<path fill="none" stroke="#FFFFFF" stroke-width="3" stroke-miterlimit="10" d="M183,112.1c-4-21.8-23.1-38.5-46-38.5h-20.6
				c-23.5-0.1-43.1,17.3-46.4,39.9"/>
			<path fill="none" stroke="#FFFFFF" stroke-width="3" stroke-miterlimit="10" d="M100.4,128.1c0-3.7,3.2-6.9,6.9-6.9
				c3.7,0,6.9,3.2,6.9,6.9c0,3.7-3.2,6.9-6.9,6.9S100.4,131.8,100.4,128.1z"/>
			<path fill="none" stroke="#FFFFFF" stroke-width="3" stroke-miterlimit="10" d="M138.1,128.1c0-3.7,3.2-6.9,6.9-6.9
				c3.7,0,6.9,3.2,6.9,6.9c0,3.7-3.2,6.9-6.9,6.9C141.3,135,138.1,131.8,138.1,128.1z"/>
		</g>
	</g>
</g>
</svg>
