<?xml version="1.0" encoding="utf-8"?>
<!-- Generator: Adobe Illustrator 17.1.0, SVG Export Plug-In . SVG Version: 6.00 Build 0)  -->
<!DOCTYPE svg PUBLIC "-//W3C//DTD SVG 1.1//EN" "http://www.w3.org/Graphics/SVG/1.1/DTD/svg11.dtd">
<svg version="1.1" id="Layer_1" xmlns="http://www.w3.org/2000/svg" xmlns:xlink="http://www.w3.org/1999/xlink" x="0px" y="0px"
	 viewBox="0 0 253 253" enable-background="new 0 0 253 253" xml:space="preserve">
<g>
	<line fill="none" stroke="#FFFFFF" stroke-miterlimit="10" x1="182.3" y1="192.9" x2="71.9" y2="192.9"/>
	<polygon fill="#FFFFFF" points="183.7,192.9 181,195.7 181,190.2 	"/>
	<polygon fill="#FFFFFF" points="70.5,192.9 73.3,190.2 73.3,195.7 	"/>
</g>
<g>
	<g>
		<circle fill="#074E68" cx="126.6" cy="126.3" r="126.2"/>
		<g opacity="0.5" enable-background="new    ">
			<g>
				<g>
					<g>
						<g>
							<g>
								<g>
									<defs>
										<circle id="SVGID_1_" cx="126.2" cy="126" r="126.2"/>
									</defs>
									<clipPath id="SVGID_2_">
										<use xlink:href="#SVGID_1_"  overflow="visible"/>
									</clipPath>
									<g clip-path="url(#SVGID_2_)">
										<g>

												<line fill="none" stroke="#FFFFFF" stroke-width="0.5" stroke-miterlimit="10" x1="220.5" y1="344.9" x2="220.5" y2="-78.3"/>

												<line fill="none" stroke="#FFFFFF" stroke-width="0.5" stroke-miterlimit="10" x1="203.4" y1="344.9" x2="203.4" y2="-78.3"/>

												<line fill="none" stroke="#FFFFFF" stroke-width="0.5" stroke-miterlimit="10" x1="237.5" y1="344.5" x2="237.5" y2="-78.8"/>

												<line fill="none" stroke="#FFFFFF" stroke-width="0.5" stroke-miterlimit="10" x1="254.7" y1="344.9" x2="254.7" y2="-78.3"/>

												<line fill="none" stroke="#FFFFFF" stroke-width="0.5" stroke-miterlimit="10" x1="152.1" y1="344.9" x2="152.1" y2="-78.3"/>

												<line fill="none" stroke="#FFFFFF" stroke-width="0.5" stroke-miterlimit="10" x1="135" y1="344.9" x2="135" y2="-78.3"/>

												<line fill="none" stroke="#FFFFFF" stroke-width="0.5" stroke-miterlimit="10" x1="169.1" y1="344.5" x2="169.1" y2="-78.8"/>

												<line fill="none" stroke="#FFFFFF" stroke-width="0.5" stroke-miterlimit="10" x1="186.2" y1="344.9" x2="186.2" y2="-78.3"/>
											<line fill="none" stroke="#FFFFFF" stroke-width="0.5" stroke-miterlimit="10" x1="84" y1="345.1" x2="84" y2="-78.1"/>

												<line fill="none" stroke="#FFFFFF" stroke-width="0.5" stroke-miterlimit="10" x1="66.8" y1="346.8" x2="66.8" y2="-76.5"/>

												<line fill="none" stroke="#FFFFFF" stroke-width="0.5" stroke-miterlimit="10" x1="101.1" y1="344.7" x2="101.1" y2="-78.6"/>

												<line fill="none" stroke="#FFFFFF" stroke-width="0.5" stroke-miterlimit="10" x1="118.2" y1="345.1" x2="118.2" y2="-78.1"/>

												<line fill="none" stroke="#FFFFFF" stroke-width="0.5" stroke-miterlimit="10" x1="15.4" y1="345.1" x2="15.4" y2="-78.1"/>

												<line fill="none" stroke="#FFFFFF" stroke-width="0.5" stroke-miterlimit="10" x1="-1.7" y1="345.1" x2="-1.7" y2="-78.1"/>

												<line fill="none" stroke="#FFFFFF" stroke-width="0.5" stroke-miterlimit="10" x1="32.6" y1="344.7" x2="32.6" y2="-78.6"/>

												<line fill="none" stroke="#FFFFFF" stroke-width="0.5" stroke-miterlimit="10" x1="49.7" y1="345.1" x2="49.7" y2="-78.1"/>
										</g>
										<g>

												<line fill="none" stroke="#FFFFFF" stroke-width="0.5" stroke-miterlimit="10" x1="-76.8" y1="219.7" x2="346.4" y2="219.7"/>

												<line fill="none" stroke="#FFFFFF" stroke-width="0.5" stroke-miterlimit="10" x1="-76.8" y1="202.7" x2="346.4" y2="202.7"/>

												<line fill="none" stroke="#FFFFFF" stroke-width="0.5" stroke-miterlimit="10" x1="-76.4" y1="236.9" x2="346.8" y2="236.9"/>

												<line fill="none" stroke="#FFFFFF" stroke-width="0.5" stroke-miterlimit="10" x1="-76.8" y1="254" x2="346.4" y2="254"/>

												<line fill="none" stroke="#FFFFFF" stroke-width="0.5" stroke-miterlimit="10" x1="-76.8" y1="151.4" x2="346.4" y2="151.4"/>

												<line fill="none" stroke="#FFFFFF" stroke-width="0.5" stroke-miterlimit="10" x1="-76.8" y1="134.3" x2="346.4" y2="134.3"/>

												<line fill="none" stroke="#FFFFFF" stroke-width="0.5" stroke-miterlimit="10" x1="-76.4" y1="168.4" x2="346.8" y2="168.4"/>

												<line fill="none" stroke="#FFFFFF" stroke-width="0.5" stroke-miterlimit="10" x1="-76.8" y1="185.6" x2="346.4" y2="185.6"/>

												<line fill="none" stroke="#FFFFFF" stroke-width="0.5" stroke-miterlimit="10" x1="-77" y1="83.3" x2="346.2" y2="83.3"/>

												<line fill="none" stroke="#FFFFFF" stroke-width="0.5" stroke-miterlimit="10" x1="-77" y1="66.2" x2="346.2" y2="66.2"/>

												<line fill="none" stroke="#FFFFFF" stroke-width="0.5" stroke-miterlimit="10" x1="-76.6" y1="100.4" x2="346.6" y2="100.4"/>

												<line fill="none" stroke="#FFFFFF" stroke-width="0.5" stroke-miterlimit="10" x1="-77" y1="117.6" x2="346.2" y2="117.6"/>

												<line fill="none" stroke="#FFFFFF" stroke-width="0.5" stroke-miterlimit="10" x1="-77" y1="14.8" x2="346.2" y2="14.8"/>

												<line fill="none" stroke="#FFFFFF" stroke-width="0.5" stroke-miterlimit="10" x1="-77" y1="-2.4" x2="346.2" y2="-2.4"/>

												<line fill="none" stroke="#FFFFFF" stroke-width="0.5" stroke-miterlimit="10" x1="-76.6" y1="31.9" x2="346.6" y2="31.9"/>
											<line fill="none" stroke="#FFFFFF" stroke-width="0.5" stroke-miterlimit="10" x1="-77" y1="49" x2="346.2" y2="49"/>
										</g>
									</g>
								</g>
							</g>
						</g>
					</g>
				</g>
			</g>
		</g>
	</g>
	<g>
		<line fill="none" stroke="#FFFFFF" stroke-miterlimit="10" x1="185.5" y1="196.3" x2="64.4" y2="196.3"/>
		<polygon fill="#FFFFFF" points="188.4,196.3 185.5,199.2 185.5,193.3 		"/>
		<polygon fill="#FFFFFF" points="64.4,196.3 67.3,193.3 67.3,199.2 		"/>
	</g>
	<g>
		<line fill="none" stroke="#FFFFFF" stroke-miterlimit="10" x1="50.1" y1="187.3" x2="50.1" y2="64.1"/>
		<polygon fill="#FFFFFF" points="50.1,190.2 47.2,187.3 53.1,187.3 		"/>
		<polygon fill="#FFFFFF" points="50.1,64.1 53.1,67 47.2,67 		"/>
	</g>
	<path fill="none" stroke="#FFFFFF" stroke-width="3" stroke-miterlimit="10" d="M126.8,63.6c-35.4,0-64,28.7-64,64
		c0,28.3,18.3,52.3,43.9,60.8c3.2,0.6,4.3-1.3,4.3-3.1c0-1.6-0.1-5.6-0.1-10.9c-17.8,3.8-21.6-8.6-21.6-8.6
		c-2.9-7.4-7.1-9.4-7.1-9.4c-5.8-3.9,0.4-3.9,0.4-3.9c6.4,0.4,9.8,6.6,9.8,6.6c5.7,9.8,15,6.9,18.6,5.3c0.6-4.1,2.3-6.9,4-8.6
		c-14.3-1.7-29.2-7.1-29.2-31.7c0-7,2.5-12.7,6.6-17.2c-0.6-1.7-2.9-8.2,0.6-17c0,0,5.4-1.8,17.6,6.5c5.1-1.4,10.6-2.2,16-2.2
		c5.5,0,11,0.7,16,2.2c12.2-8.3,17.6-6.5,17.6-6.5c3.5,8.8,1.3,15.3,0.6,17c4.1,4.4,6.6,10.2,6.6,17.2c0,24.6-15,30-29.3,31.7
		c2.3,2,4.3,5.9,4.3,11.9c0,8.6-0.1,15.5-0.1,17.6c0,1.8,1.1,3.7,4.4,3.1c25.4-8.5,43.8-32.5,43.8-60.8
		C190.9,92.2,162.2,63.6,126.8,63.6z"/>
</g>
</svg>