<?xml version="1.0" encoding="utf-8"?>
<!-- Generator: Adobe Illustrator 17.1.0, SVG Export Plug-In . SVG Version: 6.00 Build 0)  -->
<!DOCTYPE svg PUBLIC "-//W3C//DTD SVG 1.1//EN" "http://www.w3.org/Graphics/SVG/1.1/DTD/svg11.dtd">
<svg version="1.1" id="Layer_1" xmlns="http://www.w3.org/2000/svg" xmlns:xlink="http://www.w3.org/1999/xlink" x="0px" y="0px"
	 viewBox="0 0 253 253" enable-background="new 0 0 253 253" xml:space="preserve">
<g>
	<g>
		<circle fill="#074E68" cx="127.2" cy="126.4" r="126.3"/>
		<g opacity="0.5" enable-background="new    ">
			<g>
				<g>
					<g>
						<g>
							<defs>
								<circle id="SVGID_1_" cx="126.8" cy="126.2" r="126.3"/>
							</defs>
							<clipPath id="SVGID_2_">
								<use xlink:href="#SVGID_1_"  overflow="visible"/>
							</clipPath>
							<g clip-path="url(#SVGID_2_)">
								<g>
									
										<line fill="none" stroke="#FFFFFF" stroke-width="0.5" stroke-miterlimit="10" x1="221.2" y1="345.2" x2="221.2" y2="-78.3"/>
									<line fill="none" stroke="#FFFFFF" stroke-width="0.5" stroke-miterlimit="10" x1="204" y1="345.2" x2="204" y2="-78.3"/>
									
										<line fill="none" stroke="#FFFFFF" stroke-width="0.5" stroke-miterlimit="10" x1="238.3" y1="344.8" x2="238.3" y2="-78.7"/>
									
										<line fill="none" stroke="#FFFFFF" stroke-width="0.5" stroke-miterlimit="10" x1="255.5" y1="345.2" x2="255.5" y2="-78.3"/>
									
										<line fill="none" stroke="#FFFFFF" stroke-width="0.5" stroke-miterlimit="10" x1="152.7" y1="345.2" x2="152.7" y2="-78.3"/>
									
										<line fill="none" stroke="#FFFFFF" stroke-width="0.5" stroke-miterlimit="10" x1="135.6" y1="345.2" x2="135.6" y2="-78.3"/>
									
										<line fill="none" stroke="#FFFFFF" stroke-width="0.5" stroke-miterlimit="10" x1="169.8" y1="344.8" x2="169.8" y2="-78.7"/>
									
										<line fill="none" stroke="#FFFFFF" stroke-width="0.5" stroke-miterlimit="10" x1="186.9" y1="345.2" x2="186.9" y2="-78.3"/>
									
										<line fill="none" stroke="#FFFFFF" stroke-width="0.5" stroke-miterlimit="10" x1="84.5" y1="345.5" x2="84.5" y2="-78.1"/>
									
										<line fill="none" stroke="#FFFFFF" stroke-width="0.5" stroke-miterlimit="10" x1="67.4" y1="347.1" x2="67.4" y2="-76.4"/>
									
										<line fill="none" stroke="#FFFFFF" stroke-width="0.5" stroke-miterlimit="10" x1="101.6" y1="345" x2="101.6" y2="-78.5"/>
									
										<line fill="none" stroke="#FFFFFF" stroke-width="0.5" stroke-miterlimit="10" x1="118.7" y1="345.5" x2="118.7" y2="-78.1"/>
									<line fill="none" stroke="#FFFFFF" stroke-width="0.5" stroke-miterlimit="10" x1="16" y1="345.5" x2="16" y2="-78.1"/>
									
										<line fill="none" stroke="#FFFFFF" stroke-width="0.5" stroke-miterlimit="10" x1="-1.1" y1="345.5" x2="-1.1" y2="-78.1"/>
									<line fill="none" stroke="#FFFFFF" stroke-width="0.5" stroke-miterlimit="10" x1="33.1" y1="345" x2="33.1" y2="-78.5"/>
									
										<line fill="none" stroke="#FFFFFF" stroke-width="0.5" stroke-miterlimit="10" x1="50.3" y1="345.5" x2="50.3" y2="-78.1"/>
								</g>
								<g>
									
										<line fill="none" stroke="#FFFFFF" stroke-width="0.5" stroke-miterlimit="10" x1="-76.3" y1="220.1" x2="347.2" y2="220.1"/>
									<line fill="none" stroke="#FFFFFF" stroke-width="0.5" stroke-miterlimit="10" x1="-76.3" y1="203" x2="347.2" y2="203"/>
									
										<line fill="none" stroke="#FFFFFF" stroke-width="0.5" stroke-miterlimit="10" x1="-75.9" y1="237.3" x2="347.7" y2="237.3"/>
									
										<line fill="none" stroke="#FFFFFF" stroke-width="0.5" stroke-miterlimit="10" x1="-76.3" y1="254.4" x2="347.2" y2="254.4"/>
									
										<line fill="none" stroke="#FFFFFF" stroke-width="0.5" stroke-miterlimit="10" x1="-76.3" y1="151.6" x2="347.2" y2="151.6"/>
									
										<line fill="none" stroke="#FFFFFF" stroke-width="0.5" stroke-miterlimit="10" x1="-76.3" y1="134.4" x2="347.2" y2="134.4"/>
									
										<line fill="none" stroke="#FFFFFF" stroke-width="0.5" stroke-miterlimit="10" x1="-75.9" y1="168.7" x2="347.7" y2="168.7"/>
									
										<line fill="none" stroke="#FFFFFF" stroke-width="0.5" stroke-miterlimit="10" x1="-76.3" y1="185.8" x2="347.2" y2="185.8"/>
									<line fill="none" stroke="#FFFFFF" stroke-width="0.5" stroke-miterlimit="10" x1="-76.5" y1="83.4" x2="347" y2="83.4"/>
									<line fill="none" stroke="#FFFFFF" stroke-width="0.5" stroke-miterlimit="10" x1="-76.5" y1="66.3" x2="347" y2="66.3"/>
									
										<line fill="none" stroke="#FFFFFF" stroke-width="0.5" stroke-miterlimit="10" x1="-76.1" y1="100.5" x2="347.4" y2="100.5"/>
									
										<line fill="none" stroke="#FFFFFF" stroke-width="0.5" stroke-miterlimit="10" x1="-76.5" y1="117.7" x2="347" y2="117.7"/>
									<line fill="none" stroke="#FFFFFF" stroke-width="0.5" stroke-miterlimit="10" x1="-76.5" y1="14.8" x2="347" y2="14.8"/>
									<line fill="none" stroke="#FFFFFF" stroke-width="0.5" stroke-miterlimit="10" x1="-76.5" y1="-2.2" x2="347" y2="-2.2"/>
									<line fill="none" stroke="#FFFFFF" stroke-width="0.5" stroke-miterlimit="10" x1="-76.1" y1="32" x2="347.4" y2="32"/>
									<line fill="none" stroke="#FFFFFF" stroke-width="0.5" stroke-miterlimit="10" x1="-76.5" y1="49.1" x2="347" y2="49.1"/>
								</g>
							</g>
						</g>
					</g>
				</g>
			</g>
		</g>
	</g>
	<g display="none">
		
			<rect x="65.6" y="83.2" display="inline" fill="none" stroke="#FFFFFF" stroke-width="3" stroke-miterlimit="10" width="122.8" height="85"/>
		<g display="inline">
			<circle fill="none" stroke="#FFFFFF" stroke-width="3" stroke-miterlimit="10" cx="127" cy="122.5" r="22"/>
			<polygon fill="none" stroke="#FFFFFF" stroke-width="3" stroke-miterlimit="10" points="121.3,135.4 120.9,109.6 139.4,122.4 			
				"/>
		</g>
		
			<line display="inline" fill="none" stroke="#FFFFFF" stroke-width="3" stroke-miterlimit="10" x1="65.6" y1="160.7" x2="188.4" y2="160.7"/>
	</g>
</g>
<g>
	<line fill="none" stroke="#FFFFFF" stroke-miterlimit="10" x1="195.5" y1="170" x2="195.5" y2="104.6"/>
	<polygon fill="#FFFFFF" points="195.5,171.9 192.7,169.1 198.3,169.1 	"/>
	<polygon fill="#FFFFFF" points="195.5,101.9 198.3,104.6 192.7,104.6 	"/>
</g>
<g>
	<line fill="none" stroke="#FFFFFF" stroke-miterlimit="10" x1="182.3" y1="192.9" x2="71.9" y2="192.9"/>
	<polygon fill="#FFFFFF" points="183.7,192.9 181,195.7 181,190.2 	"/>
	<polygon fill="#FFFFFF" points="70.5,192.9 73.3,190.2 73.3,195.7 	"/>
</g>
<path fill="none" stroke="#FFFFFF" stroke-width="3" stroke-miterlimit="10" d="M183.6,70.6c0,0-8.6,14.3-23.7,23.9
	c0-2.3,0.1-4.2,0-5.5c-0.9,0.8-2.8,2.3-6.6,5.2c-1.3-5.3-2.9-9.7-2.9-9.7s-3.1,5-5.9,4.2c-2.6-0.9-4.6-4.2,2.2-7.2
	c-13.3,0-29.6,6.7-29.6,6.7s-1.5-4.9-0.9-6.4c-5.4,2.1-9.5,6.2-12,8.9c-1.7-0.2-1.7-4.6-0.3-6.7c-2.9,1.4-7.1,6-8.9,11.2
	c-15.4-9.6-24.3-24.5-24.3-24.5s-7.9,8.3-7,20.9c0.6,7.9,5.6,14.5,9.1,18.3c-0.7,1.9-1.1,4-1.1,6.1v39.9c0,9.8,8,17.9,17.9,17.9
	h47.2l8.7,6.9l2.9,2.3c2.5,1.9,5.2,2.9,7.9,2.9c3.5,0,6.7-1.7,8.8-4.6c1.4-2.1,2.2-4.6,2.2-7.5v0c9.2-0.8,16.5-8.4,16.5-17.9v-39.8
	c0-2.5-0.6-4.9-1.4-7.1c3.4-3.9,7.7-9.9,8.2-17.3C191.6,79,183.6,70.6,183.6,70.6z M175.2,155.8c0,5.1-4.2,9.3-9.3,9.3h-7.2
	c0,0,0,0.8,0,1.1v7.6c0,2.2-0.9,3.4-2.3,3.4c-0.8,0-1.6-0.4-2.6-1l-2.9-2.3c-2.6-2.1-7-5.6-9.6-7.7l-1.4-1.1H89.7
	c-5.1,0-9.3-4.2-9.3-9.3v-39.9c0-5.1,4.2-9.3,9.3-9.3H166c5.1,0,9.3,4.2,9.3,9.3L175.2,155.8L175.2,155.8z"/>
</svg>
