<?xml version="1.0" encoding="utf-8"?>
<!-- Generator: Adobe Illustrator 17.1.0, SVG Export Plug-In . SVG Version: 6.00 Build 0)  -->
<!DOCTYPE svg PUBLIC "-//W3C//DTD SVG 1.1//EN" "http://www.w3.org/Graphics/SVG/1.1/DTD/svg11.dtd">
<svg version="1.1" id="Layer_1" xmlns="http://www.w3.org/2000/svg" xmlns:xlink="http://www.w3.org/1999/xlink" x="0px" y="0px"
	 viewBox="290.8 -0.1 252.4 252.3" enable-background="new 290.8 -0.1 252.4 252.3" xml:space="preserve">
<g>
	<circle fill="#074E68" cx="417.2" cy="126.2" r="126"/>
	<g opacity="0.5" enable-background="new    ">
		<g>
			<g>
				<defs>
					<circle id="SVGID_1_" cx="416.8" cy="125.9" r="126"/>
				</defs>
				<clipPath id="SVGID_2_">
					<use xlink:href="#SVGID_1_"  overflow="visible"/>
				</clipPath>
				<g clip-path="url(#SVGID_2_)">
					<g>
						<line fill="none" stroke="#FFFFFF" stroke-width="0.5" stroke-miterlimit="10" x1="511" y1="344.5" x2="511" y2="-78.1"/>
						<line fill="none" stroke="#FFFFFF" stroke-width="0.5" stroke-miterlimit="10" x1="493.9" y1="344.5" x2="493.9" y2="-78.1"/>
						<line fill="none" stroke="#FFFFFF" stroke-width="0.5" stroke-miterlimit="10" x1="528.1" y1="344.1" x2="528.1" y2="-78.5"/>
						<line fill="none" stroke="#FFFFFF" stroke-width="0.5" stroke-miterlimit="10" x1="545.2" y1="344.5" x2="545.2" y2="-78.1"/>
						<line fill="none" stroke="#FFFFFF" stroke-width="0.5" stroke-miterlimit="10" x1="442.6" y1="344.5" x2="442.6" y2="-78.1"/>
						<line fill="none" stroke="#FFFFFF" stroke-width="0.5" stroke-miterlimit="10" x1="425.5" y1="344.5" x2="425.5" y2="-78.1"/>
						<line fill="none" stroke="#FFFFFF" stroke-width="0.5" stroke-miterlimit="10" x1="459.7" y1="344.1" x2="459.7" y2="-78.5"/>
						<line fill="none" stroke="#FFFFFF" stroke-width="0.5" stroke-miterlimit="10" x1="476.8" y1="344.5" x2="476.8" y2="-78.1"/>
						<line fill="none" stroke="#FFFFFF" stroke-width="0.5" stroke-miterlimit="10" x1="374.6" y1="344.7" x2="374.6" y2="-77.9"/>
						<line fill="none" stroke="#FFFFFF" stroke-width="0.5" stroke-miterlimit="10" x1="357.5" y1="344.7" x2="357.5" y2="-77.9"/>
						<line fill="none" stroke="#FFFFFF" stroke-width="0.5" stroke-miterlimit="10" x1="391.7" y1="344.3" x2="391.7" y2="-78.3"/>
						<line fill="none" stroke="#FFFFFF" stroke-width="0.5" stroke-miterlimit="10" x1="408.8" y1="344.7" x2="408.8" y2="-77.9"/>
						<line fill="none" stroke="#FFFFFF" stroke-width="0.5" stroke-miterlimit="10" x1="306.2" y1="344.7" x2="306.2" y2="-77.9"/>
						<line fill="none" stroke="#FFFFFF" stroke-width="0.5" stroke-miterlimit="10" x1="289.2" y1="344.7" x2="289.2" y2="-77.9"/>
						<line fill="none" stroke="#FFFFFF" stroke-width="0.5" stroke-miterlimit="10" x1="323.3" y1="344.3" x2="323.3" y2="-78.3"/>
						<line fill="none" stroke="#FFFFFF" stroke-width="0.5" stroke-miterlimit="10" x1="340.4" y1="344.7" x2="340.4" y2="-77.9"/>
					</g>
					<g>
						<line fill="none" stroke="#FFFFFF" stroke-width="0.5" stroke-miterlimit="10" x1="214.1" y1="219.6" x2="636.7" y2="219.6"/>
						<line fill="none" stroke="#FFFFFF" stroke-width="0.5" stroke-miterlimit="10" x1="214.1" y1="202.5" x2="636.7" y2="202.5"/>
						<line fill="none" stroke="#FFFFFF" stroke-width="0.5" stroke-miterlimit="10" x1="214.6" y1="236.7" x2="637.1" y2="236.7"/>
						<line fill="none" stroke="#FFFFFF" stroke-width="0.5" stroke-miterlimit="10" x1="214.1" y1="253.8" x2="636.7" y2="253.8"/>
						<line fill="none" stroke="#FFFFFF" stroke-width="0.5" stroke-miterlimit="10" x1="214.1" y1="151.2" x2="636.7" y2="151.2"/>
						<line fill="none" stroke="#FFFFFF" stroke-width="0.5" stroke-miterlimit="10" x1="214.1" y1="134.2" x2="636.7" y2="134.2"/>
						<line fill="none" stroke="#FFFFFF" stroke-width="0.5" stroke-miterlimit="10" x1="214.6" y1="168.3" x2="637.1" y2="168.3"/>
						<line fill="none" stroke="#FFFFFF" stroke-width="0.5" stroke-miterlimit="10" x1="214.1" y1="185.4" x2="636.7" y2="185.4"/>
						<line fill="none" stroke="#FFFFFF" stroke-width="0.5" stroke-miterlimit="10" x1="213.9" y1="83.2" x2="636.5" y2="83.2"/>
						<line fill="none" stroke="#FFFFFF" stroke-width="0.5" stroke-miterlimit="10" x1="213.9" y1="66.2" x2="636.5" y2="66.2"/>
						<line fill="none" stroke="#FFFFFF" stroke-width="0.5" stroke-miterlimit="10" x1="214.3" y1="100.3" x2="636.9" y2="100.3"/>
						<line fill="none" stroke="#FFFFFF" stroke-width="0.5" stroke-miterlimit="10" x1="213.9" y1="117.4" x2="636.5" y2="117.4"/>
						<line fill="none" stroke="#FFFFFF" stroke-width="0.5" stroke-miterlimit="10" x1="213.9" y1="14.9" x2="636.5" y2="14.9"/>
						<line fill="none" stroke="#FFFFFF" stroke-width="0.5" stroke-miterlimit="10" x1="213.9" y1="-2.2" x2="636.5" y2="-2.2"/>
						<line fill="none" stroke="#FFFFFF" stroke-width="0.5" stroke-miterlimit="10" x1="214.3" y1="32" x2="636.9" y2="32"/>
						<line fill="none" stroke="#FFFFFF" stroke-width="0.5" stroke-miterlimit="10" x1="213.9" y1="49.1" x2="636.5" y2="49.1"/>
					</g>
				</g>
			</g>
		</g>
	</g>
</g>
<g>
	<g>
		<rect x="359.1" y="86.8" fill="none" stroke="#FFFFFF" stroke-width="3" stroke-miterlimit="10" width="116.4" height="88.9"/>
	</g>
</g>
<g>
	<line fill="none" stroke="#FFFFFF" stroke-miterlimit="10" x1="487.8" y1="175.6" x2="487.8" y2="86.7"/>
	<polygon fill="#FFFFFF" points="487.8,177 484.9,174.1 490.8,174.1 	"/>
	<polygon fill="#FFFFFF" points="487.8,85.2 490.8,88.1 484.9,88.1 	"/>
</g>
<g>
	<polygon fill="#FFFFFF" points="468.5,86.7 465.5,86.7 465.5,77.3 413.4,77.3 413.4,86.7 410.4,86.7 410.4,74.3 468.5,74.3 	"/>
</g>
</svg>
